<svg width="250" height="250" viewBox="0 0 250 250" fill="none" xmlns="http://www.w3.org/2000/svg">
<g clip-path="url(#clip0_2_84493)">
<path fill-rule="evenodd" clip-rule="evenodd" d="M125 0.574951C193.759 0.574951 249.5 56.3491 249.5 125.15C249.5 193.951 193.759 249.725 125 249.725C56.2405 249.725 0.5 193.951 0.5 125.15C0.5 56.3491 56.2405 0.574951 125 0.574951Z" fill="url(#paint0_radial_2_84493)"/>
<path d="M79.6216 96.7842C104.683 72.3177 145.317 72.3177 170.379 96.7842L173.395 99.7288C174.648 100.952 174.648 102.936 173.395 104.159L163.077 114.232C162.45 114.843 161.434 114.843 160.808 114.232L156.657 110.18C139.173 93.1112 110.827 93.1112 93.3429 110.18L88.8978 114.519C88.2713 115.131 87.2555 115.131 86.6289 114.519L76.311 104.446C75.0579 103.223 75.0579 101.24 76.311 100.016L79.6216 96.7842ZM191.717 117.616L200.9 126.581C202.153 127.804 202.153 129.788 200.9 131.011L159.493 171.435C158.24 172.658 156.209 172.658 154.955 171.435C154.955 171.435 154.955 171.435 154.955 171.435L125.568 142.745C125.254 142.439 124.746 142.439 124.433 142.745L124.433 142.745L95.0457 171.435C93.7926 172.658 91.761 172.658 90.5079 171.435C90.5078 171.435 90.5078 171.435 90.5078 171.435L49.1 131.01C47.8469 129.787 47.8469 127.804 49.1 126.58L58.283 117.615C59.5361 116.392 61.5677 116.392 62.8208 117.615L92.2092 146.306C92.5225 146.612 93.0304 146.612 93.3437 146.306C93.3437 146.306 93.3437 146.306 93.3437 146.306L122.731 117.615C123.984 116.392 126.015 116.392 127.268 117.615C127.268 117.615 127.268 117.615 127.269 117.615L156.657 146.306C156.97 146.612 157.478 146.612 157.791 146.306L187.179 117.616C188.432 116.393 190.464 116.393 191.717 117.616Z" fill="white"/>
</g>
<defs>
<radialGradient id="paint0_radial_2_84493" cx="0" cy="0" r="1" gradientUnits="userSpaceOnUse" gradientTransform="translate(0.5 125.15) scale(249 249.15)">
<stop stop-color="#5D9DF6"/>
<stop offset="1" stop-color="#006FFF"/>
</radialGradient>
<clipPath id="clip0_2_84493">
<rect width="249" height="249.15" fill="white" transform="translate(0.5 0.574951)"/>
</clipPath>
</defs>
</svg>
