<svg width="40" height="40" viewBox="0 0 40 40" fill="none" xmlns="http://www.w3.org/2000/svg">
<rect y="0.000488281" width="40" height="40" rx="20" fill="#DFDAC7"/>
<path fill-rule="evenodd" clip-rule="evenodd" d="M10.7612 16.1737C10.2587 17.3869 10 18.6873 10 20.0005L10.0002 20.0005V30.0005H30.0002V20.0005H30C30 18.6873 29.7413 17.3869 29.2388 16.1737C28.7362 14.9604 27.9997 13.858 27.0711 12.9294C26.1425 12.0008 25.0401 11.2642 23.8268 10.7617C22.6136 10.2591 21.3132 10.0005 20 10.0005C18.6868 10.0005 17.3864 10.2591 16.1732 10.7617C14.9599 11.2642 13.8575 12.0008 12.9289 12.9294C12.0003 13.858 11.2638 14.9604 10.7612 16.1737Z" fill="black"/>
</svg>
