<svg width="36" height="32" viewBox="0 0 36 32" fill="none" xmlns="http://www.w3.org/2000/svg">
<path fill-rule="evenodd" clip-rule="evenodd" d="M28.9013 19.7764C28.7778 19.2381 28.2414 18.9018 27.7031 19.0253C27.1671 19.1482 26.8314 19.6806 26.9503 20.2165L26.9518 20.2237C26.9537 20.2338 26.9574 20.2535 26.9618 20.282C26.9708 20.3391 26.9827 20.4303 26.9909 20.5486C27.0073 20.7868 27.0074 21.1249 26.9411 21.5105C26.811 22.2666 26.4276 23.2131 25.3571 23.991C24.2647 24.7848 23.0114 25 21.9817 25C21.4713 25 21.0334 24.9469 20.7259 24.8943C20.5728 24.8681 20.4538 24.8424 20.3765 24.8242C20.3379 24.8151 20.3098 24.8079 20.2932 24.8035L20.2782 24.7995C19.7483 24.6464 19.1937 24.9511 19.0397 25.4809C18.8856 26.0112 19.1905 26.5661 19.7209 26.7203L19.9937 25.7816C19.7209 26.7203 19.7205 26.7201 19.7209 26.7203L19.7243 26.7213L19.729 26.7226L19.742 26.7262L19.7823 26.7371C19.8154 26.7459 19.8608 26.7574 19.9177 26.7708C20.0313 26.7976 20.191 26.8319 20.3888 26.8657C20.7832 26.9331 21.336 27 21.9817 27C23.2638 27 24.983 26.7352 26.5328 25.609C28.1045 24.4669 28.7119 23.0134 28.9121 21.8495C29.0109 21.2751 29.0111 20.7732 28.9862 20.4114C28.9737 20.2297 28.9547 20.0809 28.9378 19.973C28.9294 19.919 28.9214 19.875 28.915 19.8419L28.9066 19.8007L28.9035 19.7864L28.9023 19.7809L28.9018 19.7785C28.9017 19.778 28.9013 19.7764 27.9266 20L28.9013 19.7764ZM20.0001 25.7596C20.2791 24.7997 20.2785 24.7996 20.2782 24.7995L20.0001 25.7596Z" fill="black"/>
<path fill-rule="evenodd" clip-rule="evenodd" d="M0 13C0 19.8502 5.2983 25.4629 12.0205 25.9636C14.3267 29.5922 18.3821 32 23 32C30.1797 32 36 26.1797 36 19C36 12.1498 30.7017 6.53713 23.9796 6.03635C21.6733 2.40776 17.6179 0 13 0C5.8203 0 0 5.8203 0 13ZM20.3894 6.2622C18.5606 4.2577 15.9272 3 13 3C7.47715 3 3 7.47715 3 13C3 17.6711 6.20274 21.5942 10.5321 22.6932C10.1858 21.5225 10 20.2829 10 19C10 12.7145 14.4609 7.47079 20.3894 6.2622ZM23 29C28.5228 29 33 24.5228 33 19C33 13.4772 28.5228 9 23 9C17.4772 9 13 13.4772 13 19C13 24.5228 17.4772 29 23 29Z" fill="black"/>
</svg>
