<svg width="24" height="24" viewBox="0 0 24 24" fill="none" xmlns="http://www.w3.org/2000/svg">
<rect width="24" height="24" rx="12" fill="#8247E5"/>
<mask id="mask0_10028_160282" style="mask-type:alpha" maskUnits="userSpaceOnUse" x="0" y="0" width="24" height="24">
<rect width="24" height="24" fill="#C4C4C4"/>
</mask>
<g mask="url(#mask0_10028_160282)">
<path d="M15.8634 9.45405C15.5884 9.29688 15.2347 9.29688 14.9204 9.45405L12.7201 10.7507L11.227 11.5758L9.06591 12.8724C8.79086 13.0296 8.43723 13.0296 8.1229 12.8724L6.43335 11.8509C6.1583 11.6937 5.96184 11.3794 5.96184 11.0257V9.06113C5.96184 8.7468 6.11901 8.43246 6.43335 8.236L8.1229 7.2537C8.39794 7.09654 8.75157 7.09654 9.06591 7.2537L10.7555 8.27529C11.0305 8.43246 11.227 8.7468 11.227 9.10042V10.3971L12.7201 9.53263V8.19671C12.7201 7.88237 12.5629 7.56804 12.2486 7.37158L9.1052 5.52486C8.83015 5.36769 8.47653 5.36769 8.16219 5.52486L4.94025 7.41087C4.62592 7.56804 4.46875 7.88237 4.46875 8.19671V11.8902C4.46875 12.2045 4.62592 12.5188 4.94025 12.7153L8.1229 14.562C8.39794 14.7192 8.75157 14.7192 9.06591 14.562L11.227 13.3047L12.7201 12.4402L14.8811 11.1829C15.1562 11.0257 15.5098 11.0257 15.8241 11.1829L17.5137 12.1652C17.7887 12.3224 17.9852 12.6367 17.9852 12.9903V14.9549C17.9852 15.2693 17.828 15.5836 17.5137 15.7801L15.8634 16.7623C15.5884 16.9195 15.2347 16.9195 14.9204 16.7623L13.2308 15.7801C12.9558 15.6229 12.7593 15.3085 12.7593 14.9549V13.6976L11.2663 14.562V15.8586C11.2663 16.173 11.4234 16.4873 11.7378 16.6838L14.9204 18.5305C15.1954 18.6877 15.5491 18.6877 15.8634 18.5305L19.0461 16.6838C19.3211 16.5266 19.5176 16.2123 19.5176 15.8586V12.1259C19.5176 11.8116 19.3604 11.4972 19.0461 11.3008L15.8634 9.45405Z" fill="white"/>
</g>
</svg>
