<svg xmlns="http://www.w3.org/2000/svg" width="16" height="12" fill="none" viewBox="0 0 16 12">
  <path fill="#9CA3AF" d="M14.808 1.682c-.389-.37-1.016-.28-1.355.137-.564.692-1.342 1.331-2.313 1.331-.96 0-1.92-.48-3.09-1.23C6.82 1.11 5.86.87 4.75.87 3.083.87 1.942 1.989 1.083 3.1a.779.779 0 00.09 1.04c.382.363 1.002.261 1.327-.153.557-.708 1.327-1.317 2.31-1.317 1.05 0 1.86.42 3.09 1.2 1.41.9 2.19 1.08 3.33 1.08 1.662 0 2.866-1.111 3.687-2.22a.795.795 0 00-.109-1.048zM15.138 7.812c-.389-.37-1.016-.28-1.355.137-.564.692-1.342 1.331-2.313 1.331-.96 0-1.92-.48-3.09-1.23C7.15 7.24 6.19 7 5.08 7 3.413 7 2.272 8.119 1.413 9.23a.78.78 0 00.09 1.04c.382.363 1.002.261 1.327-.153C3.387 9.409 4.157 8.8 5.14 8.8c1.05 0 1.86.42 3.09 1.2 1.41.9 2.19 1.08 3.33 1.08 1.662 0 2.866-1.111 3.687-2.22a.795.795 0 00-.109-1.048z"/>
</svg>
