<svg width="222" height="85" viewBox="0 0 222 85" fill="none" xmlns="http://www.w3.org/2000/svg">
<path fill-rule="evenodd" clip-rule="evenodd" d="M33 84C50.6731 84 65 69.6731 65 52C65 34.3269 50.6731 20 33 20C15.3269 20 1 34.3269 1 52C1 69.6731 15.3269 84 33 84ZM46.3972 37H24.1291V60.4368H20.5795C20.4258 60.4368 20.2784 60.4934 20.1697 60.5941C20.0611 60.6948 20 60.8314 20 60.9739V64.9109C20 65.0533 20.0611 65.19 20.1697 65.2907C20.2784 65.3914 20.4258 65.448 20.5795 65.448H24.1291V69.4414C24.1299 69.5893 24.1936 69.731 24.3065 69.8356C24.4193 69.9402 24.5722 69.9993 24.7318 70H30.046C30.2054 69.9986 30.3578 69.9393 30.4705 69.8348C30.5832 69.7304 30.6472 69.5891 30.6487 69.4414V65.4399H34.2331C34.3854 65.4359 34.5303 65.378 34.638 65.2781C34.7458 65.1783 34.8082 65.044 34.8126 64.9028V60.9658C34.8089 60.8244 34.7467 60.6898 34.6388 60.5898C34.5309 60.4898 34.3856 60.4321 34.2331 60.4287H30.6487V55.5732H42.4826C42.6414 55.5711 42.7931 55.5115 42.9052 55.4072C43.0173 55.3028 43.0809 55.1619 43.0824 55.0146V49.9121C43.0816 49.7646 43.0183 49.6234 42.906 49.5188C42.7938 49.4143 42.6417 49.3549 42.4826 49.3535H30.6487V43.2305H46.3972C46.4773 43.2301 46.5564 43.2151 46.6301 43.1862C46.7038 43.1573 46.7706 43.1152 46.8267 43.0623C46.8827 43.0093 46.9269 42.9466 46.9566 42.8778C46.9864 42.8089 47.0011 42.7353 46.9999 42.6611V37.5586C46.9992 37.4107 46.9354 37.269 46.8226 37.1644C46.7097 37.0598 46.5568 37.0007 46.3972 37Z" fill="#FFDC38"/>
<path d="M24.1291 37V36.25H23.3791V37H24.1291ZM46.3972 37L46.4006 36.25H46.3972V37ZM24.1291 60.4368V61.1868H24.8791V60.4368H24.1291ZM20.1697 60.5941L20.6796 61.1442L20.6796 61.1442L20.1697 60.5941ZM20.1697 65.2907L20.6796 64.7406L20.6796 64.7406L20.1697 65.2907ZM24.1291 65.448H24.8791V64.698H24.1291V65.448ZM24.1291 69.4414H23.3791L23.3791 69.4453L24.1291 69.4414ZM24.3065 69.8356L24.8163 69.2855L24.8163 69.2855L24.3065 69.8356ZM24.7318 70L24.7285 70.75H24.7318V70ZM30.046 70V70.75L30.0526 70.75L30.046 70ZM30.4705 69.8348L30.9803 70.3849L30.9803 70.3849L30.4705 69.8348ZM30.6487 69.4414L31.3987 69.4491V69.4414H30.6487ZM30.6487 65.4399V64.6899H29.8987V65.4399H30.6487ZM34.2331 65.4399V66.1899H34.243L34.253 66.1897L34.2331 65.4399ZM34.638 65.2781L35.1478 65.8282L35.1478 65.8282L34.638 65.2781ZM34.8126 64.9028L35.5622 64.9261L35.5626 64.9145V64.9028H34.8126ZM34.8126 60.9658H35.5626V60.9561L35.5623 60.9463L34.8126 60.9658ZM34.6388 60.5898L35.1486 60.0397L35.1486 60.0397L34.6388 60.5898ZM34.2331 60.4287L34.2498 59.6789L34.2414 59.6787H34.2331V60.4287ZM30.6487 60.4287H29.8987V61.1787H30.6487V60.4287ZM30.6487 55.5732V54.8232H29.8987V55.5732H30.6487ZM42.4826 55.5732V56.3233L42.4925 56.3232L42.4826 55.5732ZM42.9052 55.4072L43.4163 55.956H43.4163L42.9052 55.4072ZM43.0824 55.0146L43.8324 55.0223V55.0146H43.0824ZM43.0824 49.9121H43.8324L43.8324 49.9083L43.0824 49.9121ZM42.4826 49.3535L42.4892 48.6035H42.4826V49.3535ZM30.6487 49.3535H29.8987V50.1035H30.6487V49.3535ZM30.6487 43.2305V42.4805H29.8987V43.2305H30.6487ZM46.3972 43.2305V43.9805L46.4005 43.9805L46.3972 43.2305ZM46.6301 43.1862L46.3566 42.4879L46.3566 42.4879L46.6301 43.1862ZM46.8267 43.0623L46.3117 42.5171L46.3117 42.5171L46.8267 43.0623ZM46.9566 42.8778L46.2681 42.5804L46.2681 42.5804L46.9566 42.8778ZM46.9999 42.6611H46.2498L46.25 42.6727L46.9999 42.6611ZM46.9999 37.5586H47.75L47.7499 37.5547L46.9999 37.5586ZM46.8226 37.1644L47.3324 36.6143L47.3324 36.6143L46.8226 37.1644ZM64.25 52C64.25 69.2589 50.2589 83.25 33 83.25V84.75C51.0873 84.75 65.75 70.0873 65.75 52H64.25ZM33 20.75C50.2589 20.75 64.25 34.7411 64.25 52H65.75C65.75 33.9127 51.0873 19.25 33 19.25V20.75ZM1.75 52C1.75 34.7411 15.7411 20.75 33 20.75V19.25C14.9127 19.25 0.25 33.9127 0.25 52H1.75ZM33 83.25C15.7411 83.25 1.75 69.2589 1.75 52H0.25C0.25 70.0873 14.9127 84.75 33 84.75V83.25ZM24.1291 37.75H46.3972V36.25H24.1291V37.75ZM24.8791 60.4368V37H23.3791V60.4368H24.8791ZM20.5795 61.1868H24.1291V59.6868H20.5795V61.1868ZM20.6796 61.1442C20.644 61.1771 20.6071 61.1868 20.5795 61.1868V59.6868C20.2445 59.6868 19.9129 59.8096 19.6599 60.044L20.6796 61.1442ZM20.75 60.9739C20.75 61.0495 20.7171 61.1094 20.6796 61.1442L19.6599 60.044C19.4051 60.2802 19.25 60.6133 19.25 60.9739H20.75ZM20.75 64.9109V60.9739H19.25V64.9109H20.75ZM20.6796 64.7406C20.7171 64.7754 20.75 64.8352 20.75 64.9109H19.25C19.25 65.2714 19.4051 65.6045 19.6599 65.8408L20.6796 64.7406ZM20.5795 64.698C20.6071 64.698 20.644 64.7076 20.6796 64.7406L19.6599 65.8408C19.9129 66.0752 20.2445 66.198 20.5795 66.198V64.698ZM24.1291 64.698H20.5795V66.198H24.1291V64.698ZM24.8791 69.4414V65.448H23.3791V69.4414H24.8791ZM24.8163 69.2855C24.8487 69.3156 24.8787 69.3688 24.8791 69.4375L23.3791 69.4453C23.381 69.8099 23.5385 70.1465 23.7966 70.3857L24.8163 69.2855ZM24.7351 69.25C24.7557 69.2501 24.7858 69.2573 24.8163 69.2855L23.7966 70.3857C24.0529 70.6232 24.3887 70.7485 24.7285 70.75L24.7351 69.25ZM30.046 69.25H24.7318V70.75H30.046V69.25ZM29.9607 69.2848C29.9905 69.2571 30.0197 69.2502 30.0394 69.25L30.0526 70.75C30.3911 70.747 30.7251 70.6215 30.9803 70.3849L29.9607 69.2848ZM29.8988 69.4337C29.8995 69.3662 29.9291 69.3141 29.9607 69.2848L30.9803 70.3849C31.2374 70.1467 31.395 69.8121 31.3987 69.4491L29.8988 69.4337ZM29.8987 65.4399V69.4414H31.3987V65.4399H29.8987ZM34.2331 64.6899H30.6487V66.1899H34.2331V64.6899ZM34.1282 64.7281C34.1594 64.6991 34.1907 64.6908 34.2131 64.6902L34.253 66.1897C34.58 66.181 34.9011 66.0569 35.1478 65.8282L34.1282 64.7281ZM34.0629 64.8796C34.0651 64.8113 34.0953 64.7585 34.1282 64.7281L35.1478 65.8282C35.3962 65.598 35.5514 65.2767 35.5622 64.9261L34.0629 64.8796ZM34.0626 60.9658V64.9028H35.5626V60.9658H34.0626ZM34.129 61.1399C34.0954 61.1087 34.0646 61.0548 34.0628 60.9853L35.5623 60.9463C35.5532 60.5941 35.398 60.2709 35.1486 60.0397L34.129 61.1399ZM34.2163 61.1785C34.1931 61.178 34.1609 61.1695 34.129 61.1399L35.1486 60.0397C34.9009 59.8102 34.5781 59.6862 34.2498 59.6789L34.2163 61.1785ZM30.6487 61.1787H34.2331V59.6787H30.6487V61.1787ZM29.8987 55.5732V60.4287H31.3987V55.5732H29.8987ZM42.4826 54.8232H30.6487V56.3232H42.4826V54.8232ZM42.3941 54.8583C42.4238 54.8306 42.4529 54.8236 42.4727 54.8233L42.4925 56.3232C42.8299 56.3187 43.1624 56.1925 43.4163 55.956L42.3941 54.8583ZM42.3324 55.007C42.3331 54.9397 42.3625 54.8877 42.3941 54.8583L43.4163 55.956C43.6721 55.7179 43.8286 55.3841 43.8323 55.0223L42.3324 55.007ZM42.3324 49.9121V55.0146H43.8324V49.9121H42.3324ZM42.3949 50.0677C42.3626 50.0376 42.3327 49.9845 42.3324 49.916L43.8324 49.9083C43.8305 49.5448 43.6739 49.2091 43.4172 48.97L42.3949 50.0677ZM42.4759 50.1035C42.4554 50.1033 42.4253 50.096 42.3949 50.0677L43.4172 48.97C43.1622 48.7326 42.828 48.6065 42.4892 48.6035L42.4759 50.1035ZM30.6487 50.1035H42.4826V48.6035H30.6487V50.1035ZM29.8987 43.2305V49.3535H31.3987V43.2305H29.8987ZM46.3972 42.4805H30.6487V43.9805H46.3972V42.4805ZM46.3566 42.4879C46.37 42.4826 46.3825 42.4805 46.394 42.4805L46.4005 43.9805C46.572 43.9797 46.7428 43.9475 46.9036 43.8846L46.3566 42.4879ZM46.3117 42.5171C46.3274 42.5022 46.3432 42.4931 46.3566 42.4879L46.9036 43.8846C47.0645 43.8216 47.2138 43.7283 47.3417 43.6075L46.3117 42.5171ZM46.2681 42.5804C46.2799 42.5531 46.2958 42.5321 46.3117 42.5171L47.3417 43.6075C47.4697 43.4866 47.5739 43.3402 47.6452 43.1751L46.2681 42.5804ZM46.25 42.6727C46.2495 42.6395 46.2562 42.6079 46.2681 42.5804L47.6452 43.1752C47.7165 43.0099 47.7527 42.8311 47.7498 42.6495L46.25 42.6727ZM46.2499 37.5586V42.6611H47.7499V37.5586H46.2499ZM46.3127 37.7145C46.2804 37.6844 46.2503 37.6312 46.25 37.5625L47.7499 37.5547C47.748 37.1901 47.5905 36.8535 47.3324 36.6143L46.3127 37.7145ZM46.3939 37.75C46.3733 37.7499 46.3433 37.7427 46.3128 37.7145L47.3324 36.6143C47.0761 36.3768 46.7404 36.2515 46.4006 36.25L46.3939 37.75Z" fill="#2E1E00"/>
<path fill-rule="evenodd" clip-rule="evenodd" d="M85 65C102.673 65 117 50.6731 117 33C117 15.3269 102.673 1 85 1C67.3269 1 53 15.3269 53 33C53 50.6731 67.3269 65 85 65ZM90.245 34.1001L89.2976 38.1912H82.7242C83.5743 40.9768 85.4236 42.3697 88.2593 42.3697C91.374 42.3697 94.2941 41.3267 97 39.2476V47.6113C94.7483 49.206 92.0294 50 88.8498 50C83.7041 50 79.895 48.7821 77.4292 46.3463C74.9699 43.9105 73.4644 41.1922 72.9129 38.1912H69L70.0253 34.1001H72.4197C72.3873 33.8781 72.3743 33.4811 72.3743 32.9159C72.3743 32.317 72.3873 31.8864 72.4197 31.624H69.5321L70.5574 27.5329H72.9129C74.7882 19.8421 79.9404 16 88.3696 16C91.121 16 93.9177 16.7671 96.7404 18.2945L94.7937 26.4227C92.8276 24.5521 90.7771 23.6169 88.6422 23.6169C85.8454 23.6169 83.9442 24.9155 82.9643 27.5195H90.7771L89.8297 31.6105H82.2116C82.1791 31.9066 82.1662 32.3372 82.1662 32.9024V34.0867H90.245V34.1001Z" fill="#ECCB30"/>
<path d="M89.2976 38.1912V38.9412H89.8937L90.0282 38.3604L89.2976 38.1912ZM90.245 34.1001L90.9756 34.2693L90.995 34.1858V34.1001H90.245ZM82.7242 38.1912V37.4412H81.7112L82.0069 38.4101L82.7242 38.1912ZM97 39.2476H97.75V37.7255L96.543 38.6529L97 39.2476ZM97 47.6113L97.4335 48.2234L97.75 47.9992V47.6113H97ZM77.4292 46.3463L76.9014 46.8792L76.9021 46.8799L77.4292 46.3463ZM72.9129 38.1912L73.6505 38.0556L73.5376 37.4412H72.9129V38.1912ZM69 38.1912L68.2725 38.0089L68.0388 38.9412H69V38.1912ZM70.0253 34.1001V33.3501H69.44L69.2978 33.9178L70.0253 34.1001ZM72.4197 34.1001V34.8501H73.2873L73.1618 33.9917L72.4197 34.1001ZM72.4197 31.624L73.164 31.716L73.2681 30.874H72.4197V31.624ZM69.5321 31.624L68.8046 31.4417L68.5709 32.374H69.5321V31.624ZM70.5574 27.5329V26.7829H69.9721L69.8299 27.3506L70.5574 27.5329ZM72.9129 27.5329V28.2829H73.502L73.6415 27.7106L72.9129 27.5329ZM96.7404 18.2945L97.4698 18.4692L97.604 17.909L97.0974 17.6349L96.7404 18.2945ZM94.7937 26.4227L94.2768 26.9661L95.2199 27.8634L95.5231 26.5974L94.7937 26.4227ZM82.9643 27.5195L82.2624 27.2554L81.8808 28.2695H82.9643V27.5195ZM90.7771 27.5195L91.5077 27.6887L91.7206 26.7695H90.7771V27.5195ZM89.8297 31.6105V32.3605H90.4258L90.5603 31.7797L89.8297 31.6105ZM82.2116 31.6105V30.8605H81.5393L81.4661 31.5288L82.2116 31.6105ZM82.1662 34.0867H81.4162V34.8367H82.1662V34.0867ZM90.245 34.0867H90.995V33.3367H90.245V34.0867ZM116.25 33C116.25 50.2589 102.259 64.25 85 64.25V65.75C103.087 65.75 117.75 51.0873 117.75 33H116.25ZM85 1.75C102.259 1.75 116.25 15.7411 116.25 33H117.75C117.75 14.9127 103.087 0.25 85 0.25V1.75ZM53.75 33C53.75 15.7411 67.7411 1.75 85 1.75V0.25C66.9127 0.25 52.25 14.9127 52.25 33H53.75ZM85 64.25C67.7411 64.25 53.75 50.2589 53.75 33H52.25C52.25 51.0873 66.9127 65.75 85 65.75V64.25ZM90.0282 38.3604L90.9756 34.2693L89.5143 33.9309L88.5669 38.022L90.0282 38.3604ZM82.7242 38.9412H89.2976V37.4412H82.7242V38.9412ZM88.2593 41.6197C86.9667 41.6197 85.9646 41.304 85.1989 40.7263C84.4315 40.1474 83.8324 39.253 83.4416 37.9723L82.0069 38.4101C82.4661 39.9151 83.2167 41.1099 84.2955 41.9238C85.3759 42.7389 86.7163 43.1197 88.2593 43.1197V41.6197ZM96.543 38.6529C93.9549 40.6415 91.1928 41.6197 88.2593 41.6197V43.1197C91.5553 43.1197 94.6333 42.012 97.457 39.8423L96.543 38.6529ZM97.75 47.6113V39.2476H96.25V47.6113H97.75ZM88.8498 50.75C92.1594 50.75 95.0359 49.9214 97.4335 48.2234L96.5665 46.9993C94.4608 48.4906 91.8994 49.25 88.8498 49.25V50.75ZM76.9021 46.8799C79.5638 49.5092 83.6016 50.75 88.8498 50.75V49.25C83.8065 49.25 80.2262 48.055 77.9563 45.8128L76.9021 46.8799ZM72.1752 38.3267C72.7581 41.4982 74.3484 44.3506 76.9014 46.8792L77.957 45.8135C75.5914 43.4705 74.1707 40.8861 73.6505 38.0556L72.1752 38.3267ZM69 38.9412H72.9129V37.4412H69V38.9412ZM69.2978 33.9178L68.2725 38.0089L69.7275 38.3735L70.7528 34.2825L69.2978 33.9178ZM72.4197 33.3501H70.0253V34.8501H72.4197V33.3501ZM71.6243 32.9159C71.6243 33.4729 71.636 33.9239 71.6776 34.2086L73.1618 33.9917C73.1385 33.8322 73.1243 33.4893 73.1243 32.9159H71.6243ZM71.6754 31.532C71.6365 31.8462 71.6243 32.3201 71.6243 32.9159H73.1243C73.1243 32.3139 73.138 31.9266 73.164 31.716L71.6754 31.532ZM69.5321 32.374H72.4197V30.874H69.5321V32.374ZM69.8299 27.3506L68.8046 31.4417L70.2596 31.8063L71.2849 27.7153L69.8299 27.3506ZM72.9129 26.7829H70.5574V28.2829H72.9129V26.7829ZM88.3696 15.25C84.0437 15.25 80.476 16.2365 77.7351 18.2813C74.9891 20.3299 73.1533 23.3809 72.1842 27.3553L73.6415 27.7106C74.5477 23.9942 76.2258 21.2787 78.632 19.4835C81.0434 17.6846 84.2664 16.75 88.3696 16.75V15.25ZM97.0974 17.6349C94.1835 16.0581 91.265 15.25 88.3696 15.25V16.75C90.9769 16.75 93.652 17.476 96.3835 18.9541L97.0974 17.6349ZM95.5231 26.5974L97.4698 18.4692L96.0111 18.1198L94.0644 26.248L95.5231 26.5974ZM88.6422 24.3669C90.5363 24.3669 92.4106 25.1907 94.2768 26.9661L95.3107 25.8793C93.2445 23.9136 91.0178 22.8669 88.6422 22.8669V24.3669ZM83.6663 27.7836C84.1134 26.5952 84.7497 25.7568 85.5463 25.2101C86.3436 24.6629 87.3616 24.3669 88.6422 24.3669V22.8669C87.126 22.8669 85.795 23.2201 84.6975 23.9733C83.5994 24.7269 82.795 25.8398 82.2624 27.2554L83.6663 27.7836ZM90.7771 26.7695H82.9643V28.2695H90.7771V26.7695ZM90.5603 31.7797L91.5077 27.6887L90.0464 27.3503L89.099 31.4413L90.5603 31.7797ZM82.2116 32.3605H89.8297V30.8605H82.2116V32.3605ZM82.9162 32.9024C82.9162 32.3399 82.9295 31.9445 82.9571 31.6922L81.4661 31.5288C81.4288 31.8687 81.4162 32.3346 81.4162 32.9024H82.9162ZM82.9162 34.0867V32.9024H81.4162V34.0867H82.9162ZM90.245 33.3367H82.1662V34.8367H90.245V33.3367ZM90.995 34.1001V34.0867H89.495V34.1001H90.995Z" fill="#2E1E00"/>
<path fill-rule="evenodd" clip-rule="evenodd" d="M136 84C153.673 84 168 69.6731 168 52C168 34.3269 153.673 20 136 20C118.327 20 104 34.3269 104 52C104 69.6731 118.327 84 136 84ZM135.138 48.9023H142.215V54.4359H135.959C135.879 55.7383 135.639 56.9112 135.232 57.9618C134.905 58.7605 134.367 59.588 133.597 60.4443C134.462 60.2572 135.21 60.1637 135.835 60.1637C136.634 60.1637 137.666 60.3148 138.938 60.6098C140.682 61.0056 142.077 61.1998 143.116 61.1998C143.966 61.1998 144.707 61.1279 145.34 60.984C145.979 60.84 146.807 60.545 147.825 60.0845L151 66.9924C149.46 67.7479 148.108 68.2804 146.938 68.5683C145.775 68.8633 144.526 69 143.189 69C141.721 69 140.057 68.7481 138.175 68.2444C135.704 67.5752 134.178 67.1867 133.583 67.0787C132.994 66.978 132.355 66.9204 131.672 66.9204C129.666 66.9204 127.45 67.6112 125.03 69L122.007 62.4231C125.284 60.1061 126.927 57.7891 126.927 55.472C126.927 55.3425 126.912 54.9971 126.876 54.4287H122V48.8951H125.488C125.357 48.4407 125.238 48.0287 125.132 47.6595C124.764 46.3859 124.543 45.6203 124.492 45.3692C124.398 44.8799 124.347 44.2755 124.347 43.5487C124.347 41.6275 124.863 39.9005 125.902 38.3678C126.927 36.8351 128.293 35.727 129.978 35.0434C131.664 34.3526 133.939 34 136.794 34C139.468 34 141.59 34.3022 143.145 34.8923C144.707 35.4823 146.03 36.4681 147.105 37.8425C148.188 39.2241 148.929 40.8863 149.336 42.8435L140.398 44.2179C139.955 42.5773 139.432 41.4907 138.851 40.9511C138.269 40.4114 137.608 40.1451 136.867 40.1451C135.966 40.1451 135.247 40.4402 134.687 41.023C134.128 41.6059 133.851 42.4334 133.851 43.5056C133.851 44.0812 133.91 44.6281 134.019 45.1534C134.12 45.6931 134.498 46.9379 135.138 48.9023Z" fill="#FFDC38"/>
<path d="M142.215 48.9023H142.965V48.1523H142.215V48.9023ZM135.138 48.9023L134.424 49.1345L134.593 49.6523H135.138V48.9023ZM142.215 54.4359V55.1859H142.965V54.4359H142.215ZM135.959 54.4359V53.6859H135.253L135.21 54.3899L135.959 54.4359ZM135.232 57.9618L135.926 58.2459L135.929 58.2393L135.931 58.2326L135.232 57.9618ZM133.597 60.4443L133.039 59.9427L131.488 61.6681L133.756 61.1773L133.597 60.4443ZM138.938 60.6098L138.768 61.3404L138.772 61.3412L138.938 60.6098ZM145.34 60.984L145.175 60.2523L145.173 60.2527L145.34 60.984ZM147.825 60.0845L148.506 59.7713L148.195 59.0937L147.515 59.4012L147.825 60.0845ZM151 66.9924L151.33 67.6658L151.987 67.3437L151.681 66.6791L151 66.9924ZM146.938 68.5683L146.759 67.84L146.754 67.8413L146.938 68.5683ZM138.175 68.2444L137.979 68.9684L137.981 68.9689L138.175 68.2444ZM133.583 67.0787L133.716 66.3407L133.709 66.3395L133.583 67.0787ZM125.03 69L124.349 69.3132L124.691 70.0591L125.403 69.6505L125.03 69ZM122.007 62.4231L121.574 61.8107L121.066 62.1703L121.326 62.7363L122.007 62.4231ZM126.876 54.4287L127.624 54.3808L127.579 53.6787H126.876V54.4287ZM122 54.4287H121.25V55.1787H122V54.4287ZM122 48.8951V48.1451H121.25V48.8951H122ZM125.488 48.8951V49.6451H126.484L126.209 48.6879L125.488 48.8951ZM125.132 47.6595L124.411 47.8675L125.132 47.6595ZM124.492 45.3692L123.756 45.5114L123.757 45.5177L124.492 45.3692ZM125.902 38.3678L126.523 38.7887L126.526 38.7846L125.902 38.3678ZM129.978 35.0434L130.26 35.7384L130.263 35.7374L129.978 35.0434ZM143.145 34.8923L142.879 35.5935L142.88 35.5939L143.145 34.8923ZM147.105 37.8425L146.515 38.3047L146.515 38.3051L147.105 37.8425ZM149.336 42.8435L149.45 43.5848L150.231 43.4647L150.07 42.6909L149.336 42.8435ZM140.398 44.2179L139.674 44.4135L139.849 45.0612L140.512 44.9592L140.398 44.2179ZM138.851 40.9511L138.34 41.5007L138.851 40.9511ZM134.687 41.023L135.228 41.5424H135.228L134.687 41.023ZM134.019 45.1534L134.756 45.0144L134.753 45.001L134.019 45.1534ZM167.25 52C167.25 69.2589 153.259 83.25 136 83.25V84.75C154.087 84.75 168.75 70.0873 168.75 52H167.25ZM136 20.75C153.259 20.75 167.25 34.7411 167.25 52H168.75C168.75 33.9127 154.087 19.25 136 19.25V20.75ZM104.75 52C104.75 34.7411 118.741 20.75 136 20.75V19.25C117.913 19.25 103.25 33.9127 103.25 52H104.75ZM136 83.25C118.741 83.25 104.75 69.2589 104.75 52H103.25C103.25 70.0873 117.913 84.75 136 84.75V83.25ZM142.215 48.1523H135.138V49.6523H142.215V48.1523ZM142.965 54.4359V48.9023H141.465V54.4359H142.965ZM135.959 55.1859H142.215V53.6859H135.959V55.1859ZM135.931 58.2326C136.371 57.0987 136.623 55.8481 136.707 54.4818L135.21 54.3899C135.134 55.6285 134.907 56.7237 134.533 57.6909L135.931 58.2326ZM134.155 60.9459C134.968 60.0417 135.559 59.1424 135.926 58.2459L134.538 57.6776C134.251 58.3786 133.767 59.1343 133.039 59.9427L134.155 60.9459ZM135.835 59.4137C135.14 59.4137 134.336 59.5171 133.438 59.7112L133.756 61.1773C134.588 60.9973 135.28 60.9137 135.835 60.9137V59.4137ZM139.107 59.8792C137.813 59.5788 136.717 59.4137 135.835 59.4137V60.9137C136.552 60.9137 137.52 61.0507 138.768 61.3404L139.107 59.8792ZM143.116 60.4498C142.158 60.4498 140.824 60.2689 139.104 59.8784L138.772 61.3412C140.539 61.7422 141.996 61.9498 143.116 61.9498V60.4498ZM145.173 60.2527C144.609 60.381 143.926 60.4498 143.116 60.4498V61.9498C144.006 61.9498 144.805 61.8748 145.506 61.7153L145.173 60.2527ZM147.515 59.4012C146.521 59.8512 145.745 60.124 145.175 60.2523L145.504 61.7157C146.213 61.5561 147.093 61.2388 148.134 60.7677L147.515 59.4012ZM151.681 66.6791L148.506 59.7713L147.143 60.3977L150.319 67.3056L151.681 66.6791ZM147.117 69.2965C148.359 68.991 149.764 68.4338 151.33 67.6658L150.67 66.319C149.155 67.0621 147.857 67.5699 146.759 67.84L147.117 69.2965ZM143.189 69.75C144.576 69.75 145.889 69.6082 147.123 69.2952L146.754 67.8413C145.662 68.1184 144.475 68.25 143.189 68.25V69.75ZM137.981 68.9689C139.906 69.4843 141.638 69.75 143.189 69.75V68.25C141.804 68.25 140.207 68.012 138.369 67.52L137.981 68.9689ZM133.449 67.8167C134.006 67.9176 135.495 68.2955 137.979 68.9684L138.371 67.5205C135.914 66.855 134.351 66.4558 133.716 66.3408L133.449 67.8167ZM131.672 67.6704C132.312 67.6704 132.91 67.7245 133.456 67.818L133.709 66.3395C133.078 66.2315 132.397 66.1704 131.672 66.1704V67.6704ZM125.403 69.6505C127.751 68.3032 129.838 67.6704 131.672 67.6704V66.1704C129.494 66.1704 127.149 66.9192 124.657 68.3495L125.403 69.6505ZM121.326 62.7363L124.349 69.3132L125.712 68.6868L122.689 62.1099L121.326 62.7363ZM126.177 55.472C126.177 57.411 124.796 59.5326 121.574 61.8107L122.44 63.0355C125.772 60.6796 127.677 58.1671 127.677 55.472H126.177ZM126.127 54.4765C126.164 55.0477 126.177 55.37 126.177 55.472H127.677C127.677 55.315 127.66 54.9465 127.624 54.3808L126.127 54.4765ZM122 55.1787H126.876V53.6787H122V55.1787ZM121.25 48.8951V54.4287H122.75V48.8951H121.25ZM125.488 48.1451H122V49.6451H125.488V48.1451ZM124.411 47.8675C124.518 48.2368 124.637 48.6483 124.767 49.1024L126.209 48.6879C126.078 48.233 125.959 47.8207 125.852 47.4515L124.411 47.8675ZM123.757 45.5177C123.816 45.8083 124.051 46.6211 124.411 47.8675L125.852 47.4515C125.477 46.1508 125.27 45.4322 125.228 45.2208L123.757 45.5177ZM123.597 43.5487C123.597 44.3074 123.65 44.9619 123.756 45.5114L125.229 45.2271C125.146 44.7979 125.097 44.2436 125.097 43.5487H123.597ZM125.281 37.9469C124.154 39.6095 123.597 41.4844 123.597 43.5487H125.097C125.097 41.7705 125.572 40.1915 126.523 38.7887L125.281 37.9469ZM129.697 34.3483C127.872 35.0884 126.386 36.2935 125.279 37.951L126.526 38.7846C127.467 37.3767 128.714 36.3655 130.26 35.7384L129.697 34.3483ZM136.794 33.25C133.889 33.25 131.506 33.6071 129.694 34.3494L130.263 35.7374C131.823 35.0981 133.989 34.75 136.794 34.75V33.25ZM143.411 34.1911C141.736 33.5555 139.513 33.25 136.794 33.25V34.75C139.424 34.75 141.444 35.0489 142.879 35.5935L143.411 34.1911ZM147.696 37.3803C146.54 35.9031 145.107 34.8315 143.41 34.1906L142.88 35.5939C144.308 36.1331 145.52 37.0332 146.515 38.3047L147.696 37.3803ZM150.07 42.6909C149.643 40.6365 148.859 38.8643 147.696 37.3799L146.515 38.3051C147.517 39.5839 148.215 41.1361 148.602 42.9962L150.07 42.6909ZM140.512 44.9592L149.45 43.5848L149.222 42.1023L140.284 43.4766L140.512 44.9592ZM138.34 41.5007C138.756 41.8868 139.236 42.792 139.674 44.4135L141.122 44.0223C140.674 42.3626 140.108 41.0947 139.361 40.4014L138.34 41.5007ZM136.867 40.8951C137.407 40.8951 137.889 41.0817 138.34 41.5007L139.361 40.4014C138.65 39.7411 137.809 39.3951 136.867 39.3951V40.8951ZM135.228 41.5424C135.633 41.1211 136.15 40.8951 136.867 40.8951V39.3951C135.782 39.3951 134.861 39.7593 134.146 40.5036L135.228 41.5424ZM134.601 43.5056C134.601 42.5595 134.843 41.9435 135.228 41.5424L134.146 40.5036C133.412 41.2683 133.101 42.3073 133.101 43.5056H134.601ZM134.753 45.001C134.654 44.5259 134.601 44.03 134.601 43.5056H133.101C133.101 44.1324 133.165 44.7303 133.284 45.3057L134.753 45.001ZM135.851 48.6702C135.205 46.6852 134.846 45.4952 134.756 45.0144L133.282 45.2923C133.394 45.8909 133.792 47.1906 134.424 49.1345L135.851 48.6702Z" fill="#2E1E00"/>
<path fill-rule="evenodd" clip-rule="evenodd" d="M189 65C206.673 65 221 50.6731 221 33C221 15.3269 206.673 1 189 1C171.327 1 157 15.3269 157 33C157 50.6731 171.327 65 189 65ZM175 19H184.669L189.546 29.5048L194.305 19H204L196.607 32.3769H202.911V37.0529H193.979V39.6059H202.911V44.3275H193.979V50H185.19V44.3275H176.128V39.6059H185.184V37.0529H176.128V32.3769H182.609L175 19Z" fill="#ECCB30"/>
<path d="M184.669 19L185.349 18.6842L185.148 18.25H184.669V19ZM175 19V18.25H173.711L174.348 19.3708L175 19ZM189.546 29.5048L188.865 29.8206L189.554 31.3039L190.229 29.8144L189.546 29.5048ZM194.305 19V18.25H193.821L193.622 18.6905L194.305 19ZM204 19L204.656 19.3628L205.271 18.25H204V19ZM196.607 32.3769L195.95 32.0141L195.335 33.1269H196.607V32.3769ZM202.911 32.3769H203.661V31.6269H202.911V32.3769ZM202.911 37.0529V37.8029H203.661V37.0529H202.911ZM193.979 37.0529V36.3029H193.229V37.0529H193.979ZM193.979 39.6059H193.229V40.3559H193.979V39.6059ZM202.911 39.6059H203.661V38.8559H202.911V39.6059ZM202.911 44.3275V45.0775H203.661V44.3275H202.911ZM193.979 44.3275V43.5775H193.229V44.3275H193.979ZM193.979 50V50.75H194.729V50H193.979ZM185.19 50H184.44V50.75H185.19V50ZM185.19 44.3275H185.94V43.5775H185.19V44.3275ZM176.128 44.3275H175.378V45.0775H176.128V44.3275ZM176.128 39.6059V38.8559H175.378V39.6059H176.128ZM185.184 39.6059V40.3559H185.934V39.6059H185.184ZM185.184 37.0529H185.934V36.3029H185.184V37.0529ZM176.128 37.0529H175.378V37.8029H176.128V37.0529ZM176.128 32.3769V31.6269H175.378V32.3769H176.128ZM182.609 32.3769V33.1269H183.898L183.261 32.0061L182.609 32.3769ZM220.25 33C220.25 50.2589 206.259 64.25 189 64.25V65.75C207.087 65.75 221.75 51.0873 221.75 33H220.25ZM189 1.75C206.259 1.75 220.25 15.7411 220.25 33H221.75C221.75 14.9127 207.087 0.25 189 0.25V1.75ZM157.75 33C157.75 15.7411 171.741 1.75 189 1.75V0.25C170.913 0.25 156.25 14.9127 156.25 33H157.75ZM189 64.25C171.741 64.25 157.75 50.2589 157.75 33H156.25C156.25 51.0873 170.913 65.75 189 65.75V64.25ZM184.669 18.25H175V19.75H184.669V18.25ZM190.226 29.189L185.349 18.6842L183.989 19.3158L188.865 29.8206L190.226 29.189ZM193.622 18.6905L188.862 29.1953L190.229 29.8144L194.988 19.3095L193.622 18.6905ZM204 18.25H194.305V19.75H204V18.25ZM197.263 32.7397L204.656 19.3628L203.344 18.6372L195.95 32.0141L197.263 32.7397ZM202.911 31.6269H196.607V33.1269H202.911V31.6269ZM203.661 37.0529V32.3769H202.161V37.0529H203.661ZM193.979 37.8029H202.911V36.3029H193.979V37.8029ZM194.729 39.6059V37.0529H193.229V39.6059H194.729ZM202.911 38.8559H193.979V40.3559H202.911V38.8559ZM203.661 44.3275V39.6059H202.161V44.3275H203.661ZM193.979 45.0775H202.911V43.5775H193.979V45.0775ZM194.729 50V44.3275H193.229V50H194.729ZM185.19 50.75H193.979V49.25H185.19V50.75ZM184.44 44.3275V50H185.94V44.3275H184.44ZM176.128 45.0775H185.19V43.5775H176.128V45.0775ZM175.378 39.6059V44.3275H176.878V39.6059H175.378ZM185.184 38.8559H176.128V40.3559H185.184V38.8559ZM184.434 37.0529V39.6059H185.934V37.0529H184.434ZM176.128 37.8029H185.184V36.3029H176.128V37.8029ZM175.378 32.3769V37.0529H176.878V32.3769H175.378ZM182.609 31.6269H176.128V33.1269H182.609V31.6269ZM174.348 19.3708L181.957 32.7477L183.261 32.0061L175.652 18.6292L174.348 19.3708Z" fill="#2E1E00"/>
</svg>
