<svg width="222" height="89" viewBox="0 0 222 89" fill="none" xmlns="http://www.w3.org/2000/svg">
<path fill-rule="evenodd" clip-rule="evenodd" d="M64.9583 33.5C64.9583 51.1731 50.6314 65.5 32.9583 65.5C15.2851 65.5 0.958252 51.1731 0.958252 33.5C0.958252 15.8269 15.2851 1.5 32.9583 1.5C50.6314 1.5 64.9583 15.8269 64.9583 33.5ZM48.9583 48.5005V52.5005H16.9583V48.5005H48.9583ZM31.7453 41.822V44.7232H33.8428V41.8239C35.5851 41.7402 37.1028 41.4399 38.396 40.9232C39.9478 40.3065 41.1373 39.419 41.9643 38.2607C42.7914 37.1024 43.2092 35.7149 43.2177 34.0982C43.2092 33.0732 43.0301 32.1482 42.6805 31.3232C42.331 30.4982 41.8151 29.769 41.133 29.1357C40.4594 28.5024 39.6238 27.9565 38.6262 27.4982C37.6371 27.0399 36.4946 26.6732 35.1985 26.3982L33.8428 26.0971V20.7555C34.5881 20.864 35.1935 21.0991 35.659 21.4607C36.3326 21.969 36.712 22.6815 36.7973 23.5982H42.8596C42.8426 22.0065 42.4205 20.6065 41.5934 19.3982C40.7663 18.1899 39.6025 17.2524 38.1018 16.5857C36.8663 16.0268 35.4466 15.6993 33.8428 15.6031V12.7232H31.7453V15.607C30.1894 15.7071 28.7782 16.0292 27.5119 16.5732C25.9601 17.2399 24.745 18.169 23.8668 19.3607C22.9886 20.5524 22.5537 21.9399 22.5622 23.5232C22.5537 25.4649 23.2017 27.0065 24.5063 28.1482C25.8108 29.2815 27.5972 30.1024 29.8652 30.6107L31.7453 31.04V36.6777C31.211 36.6117 30.7207 36.4893 30.2745 36.3107C29.5753 36.0274 29.0253 35.6107 28.6246 35.0607C28.2239 34.5107 27.9979 33.8232 27.9467 32.9982H21.8844C21.91 34.9982 22.3747 36.6524 23.2785 37.9607C24.1823 39.269 25.4485 40.244 27.077 40.8857C28.4369 41.4215 29.993 41.7336 31.7453 41.822ZM33.8428 36.6618C34.2329 36.6058 34.5867 36.5179 34.9044 36.3982C35.5098 36.1732 35.9744 35.8607 36.2985 35.4607C36.6225 35.0607 36.7887 34.6024 36.7973 34.0857C36.7887 33.6024 36.6353 33.1899 36.3368 32.8482C36.0384 32.4982 35.578 32.1982 34.9555 31.9482C34.632 31.8121 34.2611 31.6817 33.8428 31.5571V36.6618ZM31.7453 25.594V20.7544C31.3786 20.8063 31.0503 20.8876 30.7605 20.9982C30.2148 21.2065 29.8055 21.494 29.5327 21.8607C29.2598 22.219 29.1191 22.6315 29.1106 23.0982C29.0936 23.4815 29.1703 23.819 29.3408 24.1107C29.5199 24.4024 29.7757 24.6607 30.1082 24.8857C30.4493 25.1024 30.8585 25.294 31.336 25.4607C31.4679 25.5067 31.6043 25.5512 31.7453 25.594Z" fill="#D1FAE5"/>
<path d="M48.9583 52.5005V53.2505H49.7083V52.5005H48.9583ZM48.9583 48.5005H49.7083V47.7505H48.9583V48.5005ZM16.9583 52.5005H16.2083V53.2505H16.9583V52.5005ZM16.9583 48.5005V47.7505H16.2083V48.5005H16.9583ZM31.7453 44.7232H30.9953V45.4732H31.7453V44.7232ZM31.7453 41.822H32.4953V41.1089L31.7831 41.073L31.7453 41.822ZM33.8428 44.7232V45.4732H34.5928V44.7232H33.8428ZM33.8428 41.8239L33.8068 41.0748L33.0928 41.1091V41.8239H33.8428ZM38.396 40.9232L38.119 40.2262L38.1177 40.2267L38.396 40.9232ZM43.2177 34.0982L43.9678 34.1022L43.9677 34.092L43.2177 34.0982ZM42.6805 31.3232L41.99 31.6158V31.6158L42.6805 31.3232ZM41.133 29.1357L40.6192 29.6821L40.6227 29.6853L41.133 29.1357ZM38.6262 27.4982L38.3109 28.1787L38.3131 28.1797L38.6262 27.4982ZM35.1985 26.3982L35.0359 27.1304L35.0429 27.1319L35.1985 26.3982ZM33.8428 26.0971H33.0928V26.6987L33.6802 26.8292L33.8428 26.0971ZM33.8428 20.7555L33.9509 20.0133L33.0928 19.8884V20.7555H33.8428ZM35.659 21.4607L35.1988 22.053L35.2072 22.0594L35.659 21.4607ZM36.7973 23.5982L36.0505 23.6677L36.1138 24.3482H36.7973V23.5982ZM42.8596 23.5982V24.3482H43.6177L43.6096 23.5902L42.8596 23.5982ZM41.5934 19.3982L40.9745 19.8218L41.5934 19.3982ZM38.1018 16.5857L37.7927 17.269L37.7973 17.2711L38.1018 16.5857ZM33.8428 15.6031H33.0928V16.3095L33.798 16.3518L33.8428 15.6031ZM33.8428 12.7232H34.5928V11.9732H33.8428V12.7232ZM31.7453 12.7232V11.9732H30.9953V12.7232H31.7453ZM31.7453 15.607L31.7934 16.3555L32.4953 16.3104V15.607H31.7453ZM27.5119 16.5732L27.8079 17.2623L27.5119 16.5732ZM23.8668 19.3607L23.2631 18.9157H23.263L23.8668 19.3607ZM22.5622 23.5232L23.3123 23.5265L23.3122 23.5192L22.5622 23.5232ZM24.5063 28.1482L24.0124 28.7126L24.0144 28.7144L24.5063 28.1482ZM29.8652 30.6107L30.0322 29.8795L30.0292 29.8789L29.8652 30.6107ZM31.7453 31.04H32.4953V30.442L31.9123 30.3088L31.7453 31.04ZM31.7453 36.6777L31.6533 37.422L32.4953 37.526V36.6777H31.7453ZM30.2745 36.3107L29.9928 37.0058L29.9957 37.007L30.2745 36.3107ZM28.6246 35.0607L28.0184 35.5024L28.0184 35.5024L28.6246 35.0607ZM27.9467 32.9982L28.6953 32.9518L28.6517 32.2482H27.9467V32.9982ZM21.8844 32.9982V32.2482H21.1247L21.1344 33.0078L21.8844 32.9982ZM27.077 40.8857L26.8021 41.5835L27.077 40.8857ZM33.8428 36.6618H33.0928V37.5272L33.9494 37.4042L33.8428 36.6618ZM34.9044 36.3982L34.6431 35.6952L34.6398 35.6964L34.9044 36.3982ZM36.2985 35.4607L36.8813 35.9328V35.9328L36.2985 35.4607ZM36.7973 34.0857L37.5472 34.0981L37.5474 34.0853L37.5471 34.0725L36.7973 34.0857ZM36.3368 32.8482L35.7661 33.3348L35.772 33.3416L36.3368 32.8482ZM34.9555 31.9482L34.6646 32.6396L34.676 32.6442L34.9555 31.9482ZM33.8428 31.5571L34.0569 30.8383L33.0928 30.5512V31.5571H33.8428ZM31.7453 25.594L31.5272 26.3116L32.4953 26.6059V25.594H31.7453ZM31.7453 20.7544H32.4953V19.8909L31.6402 20.0118L31.7453 20.7544ZM30.7605 20.9982L30.493 20.2975L30.493 20.2975L30.7605 20.9982ZM29.5327 21.8607L30.1294 22.3151L30.1344 22.3084L29.5327 21.8607ZM29.1106 23.0982L29.8599 23.1315L29.8603 23.1217L29.8605 23.1119L29.1106 23.0982ZM29.3408 24.1107L28.6934 24.4892L28.6974 24.4962L28.7017 24.5031L29.3408 24.1107ZM30.1082 24.8857L29.6879 25.5069L29.6969 25.5129L29.706 25.5188L30.1082 24.8857ZM31.336 25.4607L31.0889 26.1688L31.336 25.4607ZM32.9583 66.25C51.0456 66.25 65.7083 51.5873 65.7083 33.5H64.2083C64.2083 50.7589 50.2171 64.75 32.9583 64.75V66.25ZM0.208252 33.5C0.208252 51.5873 14.8709 66.25 32.9583 66.25V64.75C15.6994 64.75 1.70825 50.7589 1.70825 33.5H0.208252ZM32.9583 0.75C14.8709 0.75 0.208252 15.4127 0.208252 33.5H1.70825C1.70825 16.2411 15.6994 2.25 32.9583 2.25V0.75ZM65.7083 33.5C65.7083 15.4127 51.0456 0.75 32.9583 0.75V2.25C50.2171 2.25 64.2083 16.2411 64.2083 33.5H65.7083ZM49.7083 52.5005V48.5005H48.2083V52.5005H49.7083ZM16.9583 53.2505H48.9583V51.7505H16.9583V53.2505ZM16.2083 48.5005V52.5005H17.7083V48.5005H16.2083ZM48.9583 47.7505H16.9583V49.2505H48.9583V47.7505ZM32.4953 44.7232V41.822H30.9953V44.7232H32.4953ZM33.8428 43.9732H31.7453V45.4732H33.8428V43.9732ZM33.0928 41.8239V44.7232H34.5928V41.8239H33.0928ZM38.1177 40.2267C36.9185 40.7059 35.486 40.9941 33.8068 41.0748L33.8788 42.573C35.6841 42.4863 37.2871 42.1739 38.6743 41.6197L38.1177 40.2267ZM41.3539 37.8249C40.6243 38.8468 39.5605 39.6534 38.119 40.2262L38.673 41.6202C40.3351 40.9597 41.6502 39.9912 42.5747 38.6965L41.3539 37.8249ZM42.4677 34.0942C42.4599 35.5779 42.0791 36.8093 41.3539 37.8249L42.5747 38.6965C43.5037 37.3954 43.9585 35.8519 43.9677 34.1022L42.4677 34.0942ZM41.99 31.6158C42.296 32.3381 42.4599 33.1638 42.4678 34.1044L43.9677 34.092C43.9585 32.9826 43.7642 31.9583 43.3711 31.0306L41.99 31.6158ZM40.6227 29.6853C41.2303 30.2495 41.6833 30.892 41.99 31.6158L43.3711 31.0306C42.9786 30.1044 42.3999 29.2885 41.6433 28.5861L40.6227 29.6853ZM38.3131 28.1797C39.2504 28.6103 40.0147 29.1137 40.6192 29.6821L41.6467 28.5893C40.9041 27.8911 39.9972 27.3027 38.9393 26.8167L38.3131 28.1797ZM35.0429 27.1319C36.2952 27.3976 37.3824 27.7484 38.3109 28.1787L38.9415 26.8177C37.8919 26.3313 36.694 25.9488 35.3542 25.6645L35.0429 27.1319ZM33.6802 26.8292L35.0359 27.1304L35.3612 25.666L34.0055 25.3649L33.6802 26.8292ZM33.0928 20.7555V26.0971H34.5928V20.7555H33.0928ZM36.1191 20.8684C35.5265 20.4081 34.7896 20.1355 33.9509 20.0133L33.7348 21.4977C34.3866 21.5926 34.8605 21.7901 35.1989 22.053L36.1191 20.8684ZM37.544 23.5287C37.4412 22.4234 36.9691 21.5098 36.1108 20.862L35.2072 22.0594C35.696 22.4283 35.9828 22.9397 36.0505 23.6677L37.544 23.5287ZM42.8596 22.8482H36.7973V24.3482H42.8596V22.8482ZM40.9745 19.8218C41.7104 20.897 42.094 22.1495 42.1097 23.6062L43.6096 23.5902C43.5911 21.8636 43.1306 20.3161 42.2123 18.9746L40.9745 19.8218ZM37.7973 17.2711C39.1868 17.8884 40.2352 18.7417 40.9745 19.8218L42.2123 18.9746C41.2975 17.638 40.0182 16.6164 38.4063 15.9003L37.7973 17.2711ZM33.798 16.3518C35.3269 16.4434 36.6544 16.7541 37.7927 17.269L38.4109 15.9024C37.0782 15.2995 35.5663 14.9551 33.8877 14.8545L33.798 16.3518ZM33.0928 12.7232V15.6031H34.5928V12.7232H33.0928ZM31.7453 13.4732H33.8428V11.9732H31.7453V13.4732ZM32.4953 15.607V12.7232H30.9953V15.607H32.4953ZM27.8079 17.2623C28.986 16.7562 30.3118 16.4508 31.7934 16.3555L31.6972 14.8586C30.0669 14.9634 28.5704 15.3022 27.2158 15.8841L27.8079 17.2623ZM24.4706 19.8057C25.2591 18.7357 26.361 17.8839 27.8079 17.2623L27.2158 15.8841C25.5591 16.5958 24.231 17.6024 23.2631 18.9157L24.4706 19.8057ZM23.3122 23.5192C23.3045 22.0854 23.695 20.858 24.4706 19.8057L23.263 18.9157C22.2821 20.2467 21.8029 21.7943 21.8123 23.5272L23.3122 23.5192ZM25.0002 27.5838C23.88 26.6035 23.3045 25.28 23.3122 23.5265L21.8123 23.5199C21.8029 25.6498 22.5234 27.4096 24.0124 28.7126L25.0002 27.5838ZM30.0292 29.8789C27.8424 29.3887 26.1821 28.6105 24.9982 27.582L24.0144 28.7144C25.4396 29.9525 27.3519 30.816 29.7012 31.3425L30.0292 29.8789ZM31.9123 30.3088L30.0322 29.8795L29.6982 31.3419L31.5783 31.7712L31.9123 30.3088ZM32.4953 36.6777V31.04H30.9953V36.6777H32.4953ZM29.9957 37.007C30.5086 37.2123 31.0625 37.349 31.6533 37.422L31.8373 35.9333C31.3594 35.8743 30.9328 35.7664 30.5532 35.6144L29.9957 37.007ZM28.0184 35.5024C28.5104 36.1775 29.1785 36.6758 29.9928 37.0058L30.5562 35.6156C29.9721 35.3789 29.5403 35.0439 29.2308 34.619L28.0184 35.5024ZM27.1982 33.0446C27.2563 33.9814 27.517 34.8142 28.0184 35.5024L29.2308 34.619C28.9307 34.2072 28.7395 33.665 28.6953 32.9518L27.1982 33.0446ZM21.8844 33.7482H27.9467V32.2482H21.8844V33.7482ZM23.8955 37.5344C23.0959 36.3769 22.6585 34.878 22.6343 32.9886L21.1344 33.0078C21.1614 35.1184 21.6534 36.9278 22.6614 38.387L23.8955 37.5344ZM27.352 40.1879C25.8473 39.5951 24.7063 38.708 23.8955 37.5344L22.6614 38.387C23.6583 39.83 25.0496 40.893 26.8021 41.5835L27.352 40.1879ZM31.7831 41.073C30.0963 40.9879 28.6227 40.6886 27.352 40.1879L26.8021 41.5835C28.2512 42.1544 29.8897 42.4794 31.7075 42.571L31.7831 41.073ZM33.9494 37.4042C34.3851 37.3417 34.7929 37.2417 35.1689 37.1L34.6398 35.6964C34.3806 35.7941 34.0807 35.87 33.7362 35.9195L33.9494 37.4042ZM35.1657 37.1012C35.8652 36.8412 36.4537 36.4606 36.8813 35.9328L35.7157 34.9886C35.4952 35.2608 35.1543 35.5052 34.6431 35.6952L35.1657 37.1012ZM36.8813 35.9328C37.3112 35.402 37.5359 34.7816 37.5472 34.0981L36.0474 34.0733C36.0416 34.4231 35.9337 34.7194 35.7157 34.9886L36.8813 35.9328ZM37.5471 34.0725C37.5357 33.4248 37.3245 32.8389 36.9017 32.3548L35.772 33.3416C35.946 33.5409 36.0417 33.7799 36.0474 34.0989L37.5471 34.0725ZM36.9075 32.3616C36.5026 31.8867 35.9222 31.5282 35.2351 31.2522L34.676 32.6442C35.2338 32.8682 35.5742 33.1097 35.7661 33.3348L36.9075 32.3616ZM35.2464 31.2569C34.8926 31.108 34.4953 30.9689 34.0569 30.8383L33.6287 32.2759C34.0269 32.3945 34.3713 32.5161 34.6646 32.6395L35.2464 31.2569ZM33.0928 31.5571V36.6618H34.5928V31.5571H33.0928ZM32.4953 25.594V20.7544H30.9953V25.594H32.4953ZM31.6402 20.0118C31.2283 20.0701 30.8441 20.1635 30.493 20.2975L31.028 21.6989C31.2564 21.6117 31.5288 21.5425 31.8504 21.497L31.6402 20.0118ZM30.493 20.2975C29.8508 20.5427 29.3096 20.9041 28.931 21.413L30.1344 22.3084C30.3014 22.084 30.5788 21.8704 31.028 21.6989L30.493 20.2975ZM28.936 21.4063C28.5628 21.8964 28.3721 22.4646 28.3607 23.0845L29.8605 23.1119C29.8662 22.7985 29.9568 22.5417 30.1294 22.3151L28.936 21.4063ZM28.3613 23.0649C28.3388 23.5723 28.4404 24.0566 28.6934 24.4892L29.9883 23.7321C29.9002 23.5814 29.8483 23.3908 29.8599 23.1315L28.3613 23.0649ZM28.7017 24.5031C28.9454 24.9001 29.2821 25.2323 29.6879 25.5069L30.5285 24.2645C30.2692 24.0891 30.0944 23.9046 29.98 23.7183L28.7017 24.5031ZM29.706 25.5188C30.1061 25.7729 30.57 25.9877 31.0889 26.1688L31.5832 24.7526C31.1471 24.6004 30.7925 24.4318 30.5104 24.2526L29.706 25.5188ZM31.0889 26.1688C31.2309 26.2184 31.377 26.266 31.5272 26.3116L31.9634 24.8764C31.8317 24.8364 31.7049 24.7951 31.5832 24.7526L31.0889 26.1688Z" fill="#2E1E00"/>
<path fill-rule="evenodd" clip-rule="evenodd" d="M85.9583 87.5C103.631 87.5 117.958 73.1731 117.958 55.5C117.958 37.8269 103.631 23.5 85.9583 23.5C68.2851 23.5 53.9583 37.8269 53.9583 55.5C53.9583 73.1731 68.2851 87.5 85.9583 87.5ZM94.4144 55.4706C94.4144 59.6047 91.0631 62.956 86.929 62.956C82.7949 62.956 79.4436 59.6047 79.4436 55.4706C79.4436 51.3365 82.7949 47.9852 86.929 47.9852C91.0631 47.9852 94.4144 51.3365 94.4144 55.4706ZM101.9 55.4706C101.9 58.2629 101.135 60.8767 99.8043 63.114L104.958 68.0655L99.7717 73.4632L94.4938 68.3923C92.274 69.6947 89.6887 70.4414 86.929 70.4414C83.9282 70.4414 81.1335 69.5585 78.7907 68.0383L73.1443 73.4632L67.9583 68.0655L73.7224 62.5274C72.5966 60.4249 71.9582 58.0223 71.9582 55.4706C71.9582 52.9247 72.5937 50.5272 73.7147 48.4281L67.9587 42.8978L73.1448 37.5L78.7773 42.9116C81.1228 41.3861 83.9224 40.4998 86.929 40.4998C89.6945 40.4998 92.2848 41.2496 94.5078 42.5571L99.7713 37.5L104.957 42.8978L99.8125 47.8409C101.138 50.0752 101.9 52.684 101.9 55.4706Z" fill="#D1D5DB"/>
<path d="M99.8043 63.114L99.1597 62.7306L98.8553 63.2423L99.2847 63.6549L99.8043 63.114ZM104.958 68.0655L105.499 68.5851L106.018 68.0442L105.477 67.5246L104.958 68.0655ZM99.7717 73.4632L99.2521 74.0041L99.7929 74.5237L100.313 73.9828L99.7717 73.4632ZM94.4938 68.3923L95.0135 67.8515L94.604 67.4581L94.1143 67.7454L94.4938 68.3923ZM78.7907 68.0383L79.199 67.4091L78.7 67.0854L78.2711 67.4975L78.7907 68.0383ZM73.1443 73.4632L72.6035 73.9828L73.1231 74.5237L73.664 74.0041L73.1443 73.4632ZM67.9583 68.0655L67.4386 67.5246L66.8978 68.0442L67.4174 68.5851L67.9583 68.0655ZM73.7224 62.5274L74.242 63.0682L74.6518 62.6744L74.3835 62.1734L73.7224 62.5274ZM73.7147 48.4281L74.3763 48.7814L74.6437 48.2806L74.2343 47.8872L73.7147 48.4281ZM67.9587 42.8978L67.4179 42.3782L66.8982 42.919L67.4391 43.4386L67.9587 42.8978ZM73.1448 37.5L73.6644 36.9592L73.1236 36.4396L72.604 36.9804L73.1448 37.5ZM78.7773 42.9116L78.2577 43.4524L78.687 43.865L79.1862 43.5403L78.7773 42.9116ZM94.5078 42.5571L94.1276 43.2035L94.6175 43.4917L95.0274 43.0979L94.5078 42.5571ZM99.7713 37.5L100.312 36.9804L99.7925 36.4396L99.2517 36.9592L99.7713 37.5ZM104.957 42.8978L105.477 43.4386L106.018 42.919L105.498 42.3782L104.957 42.8978ZM99.8125 47.8409L99.2929 47.3001L98.8639 47.7122L99.1675 48.2237L99.8125 47.8409ZM117.208 55.5C117.208 72.7589 103.217 86.75 85.9583 86.75V88.25C104.046 88.25 118.708 73.5873 118.708 55.5H117.208ZM85.9583 24.25C103.217 24.25 117.208 38.2411 117.208 55.5H118.708C118.708 37.4127 104.046 22.75 85.9583 22.75V24.25ZM54.7083 55.5C54.7083 38.2411 68.6994 24.25 85.9583 24.25V22.75C67.8709 22.75 53.2083 37.4127 53.2083 55.5H54.7083ZM85.9583 86.75C68.6994 86.75 54.7083 72.7589 54.7083 55.5H53.2083C53.2083 73.5873 67.8709 88.25 85.9583 88.25V86.75ZM86.929 63.706C91.4773 63.706 95.1644 60.0189 95.1644 55.4706H93.6644C93.6644 59.1905 90.6489 62.206 86.929 62.206V63.706ZM78.6936 55.4706C78.6936 60.0189 82.3807 63.706 86.929 63.706V62.206C83.2091 62.206 80.1936 59.1905 80.1936 55.4706H78.6936ZM86.929 47.2352C82.3807 47.2352 78.6936 50.9223 78.6936 55.4706H80.1936C80.1936 51.7507 83.2091 48.7352 86.929 48.7352V47.2352ZM95.1644 55.4706C95.1644 50.9223 91.4773 47.2352 86.929 47.2352V48.7352C90.6489 48.7352 93.6644 51.7507 93.6644 55.4706H95.1644ZM100.449 63.4975C101.847 61.1474 102.65 58.4016 102.65 55.4706H101.15C101.15 58.1243 100.424 60.606 99.1597 62.7306L100.449 63.4975ZM105.477 67.5246L100.324 62.5732L99.2847 63.6549L104.438 68.6063L105.477 67.5246ZM100.313 73.9828L105.499 68.5851L104.417 67.5458L99.2309 72.9436L100.313 73.9828ZM93.9742 68.9332L99.2521 74.0041L100.291 72.9224L95.0135 67.8515L93.9742 68.9332ZM86.929 71.1914C89.8257 71.1914 92.5416 70.4073 94.8734 69.0392L94.1143 67.7454C92.0064 68.9822 89.5517 69.6914 86.929 69.6914V71.1914ZM78.3825 68.6674C80.8431 70.2642 83.7789 71.1914 86.929 71.1914V69.6914C84.0774 69.6914 81.4239 68.8529 79.199 67.4091L78.3825 68.6674ZM73.664 74.0041L79.3103 68.5791L78.2711 67.4975L72.6247 72.9224L73.664 74.0041ZM67.4174 68.5851L72.6035 73.9828L73.6852 72.9436L68.4991 67.5458L67.4174 68.5851ZM73.2027 61.9866L67.4386 67.5246L68.4779 68.6063L74.242 63.0682L73.2027 61.9866ZM71.2082 55.4706C71.2082 58.1488 71.8785 60.6727 73.0612 62.8814L74.3835 62.1734C73.3146 60.1771 72.7082 57.8958 72.7082 55.4706H71.2082ZM73.0532 48.0748C71.8755 50.2799 71.2082 52.7984 71.2082 55.4706H72.7082C72.7082 53.0509 73.3119 50.7744 74.3763 48.7814L73.0532 48.0748ZM67.4391 43.4386L73.1951 48.9689L74.2343 47.8872L68.4783 42.3569L67.4391 43.4386ZM72.604 36.9804L67.4179 42.3782L68.4995 43.4174L73.6856 38.0196L72.604 36.9804ZM79.2969 42.3708L73.6644 36.9592L72.6252 38.0408L78.2577 43.4524L79.2969 42.3708ZM86.929 39.7498C83.7729 39.7498 80.8319 40.6806 78.3684 42.2829L79.1862 43.5403C81.4138 42.0915 84.0719 41.2498 86.929 41.2498V39.7498ZM94.888 41.9106C92.5529 40.5372 89.8318 39.7498 86.929 39.7498V41.2498C89.5572 41.2498 92.0167 41.962 94.1276 43.2035L94.888 41.9106ZM99.2517 36.9592L93.9882 42.0162L95.0274 43.0979L100.291 38.0408L99.2517 36.9592ZM105.498 42.3782L100.312 36.9804L99.2304 38.0196L104.417 43.4174L105.498 42.3782ZM100.332 48.3817L105.477 43.4386L104.438 42.3569L99.2929 47.3001L100.332 48.3817ZM102.65 55.4706C102.65 52.5456 101.85 49.8051 100.457 47.4581L99.1675 48.2237C100.427 50.3453 101.15 52.8224 101.15 55.4706H102.65Z" fill="#2E1E00"/>
<path fill-rule="evenodd" clip-rule="evenodd" d="M168.958 33.5C168.958 51.1731 154.631 65.5 136.958 65.5C119.285 65.5 104.958 51.1731 104.958 33.5C104.958 15.8269 119.285 1.5 136.958 1.5C154.631 1.5 168.958 15.8269 168.958 33.5ZM121.339 31.384L125.723 39.6049C126.412 40.8966 128.21 41.0349 129.088 39.8638L143.265 20.961C143.479 20.6752 143.613 20.3371 143.653 19.9819L143.953 17.2796C144.131 15.679 142.44 14.5353 141.021 15.2958L123.265 24.8076C122.788 25.0631 122.435 25.5009 122.287 26.0211L121.18 29.8934C121.038 30.392 121.095 30.9265 121.339 31.384ZM148.193 27.2L152.578 35.4209C152.822 35.8785 152.879 36.4129 152.736 36.9115L151.63 40.7838C151.481 41.304 151.128 41.7418 150.651 41.9973L132.896 51.5092C131.476 52.2697 129.786 51.126 129.964 49.5253L130.264 46.8231C130.303 46.4679 130.437 46.1298 130.652 45.8439L144.829 26.9412C145.707 25.7701 147.504 25.9084 148.193 27.2Z" fill="#F9A058"/>
<path d="M125.723 39.6049L125.061 39.9579V39.9579L125.723 39.6049ZM121.339 31.384L122 31.0311L121.339 31.384ZM129.088 39.8638L128.488 39.4138L129.088 39.8638ZM143.265 20.961L142.665 20.511V20.511L143.265 20.961ZM143.653 19.9819L144.398 20.0647L144.398 20.0647L143.653 19.9819ZM143.953 17.2796L143.208 17.1968L143.208 17.1968L143.953 17.2796ZM141.021 15.2958L140.667 14.6347L140.667 14.6347L141.021 15.2958ZM123.265 24.8076L123.619 25.4687L123.265 24.8076ZM122.287 26.0211L123.008 26.2272V26.2272L122.287 26.0211ZM121.18 29.8934L121.901 30.0995L121.901 30.0995L121.18 29.8934ZM152.578 35.4209L151.916 35.7739L151.916 35.7739L152.578 35.4209ZM148.193 27.2L148.855 26.8471L148.193 27.2ZM152.736 36.9115L153.457 37.1176L152.736 36.9115ZM151.63 40.7838L150.909 40.5778L150.909 40.5778L151.63 40.7838ZM150.651 41.9973L151.005 42.6584L151.005 42.6584L150.651 41.9973ZM132.896 51.5092L132.542 50.848L132.896 51.5092ZM129.964 49.5253L130.709 49.6082L129.964 49.5253ZM130.264 46.8231L129.518 46.7402L130.264 46.8231ZM130.652 45.8439L130.052 45.3939V45.3939L130.652 45.8439ZM144.829 26.9412L145.429 27.3912V27.3912L144.829 26.9412ZM136.958 66.25C155.046 66.25 169.708 51.5873 169.708 33.5H168.208C168.208 50.7589 154.217 64.75 136.958 64.75V66.25ZM104.208 33.5C104.208 51.5873 118.871 66.25 136.958 66.25V64.75C119.699 64.75 105.708 50.7589 105.708 33.5H104.208ZM136.958 0.75C118.871 0.75 104.208 15.4127 104.208 33.5H105.708C105.708 16.2411 119.699 2.25 136.958 2.25V0.75ZM169.708 33.5C169.708 15.4127 155.046 0.75 136.958 0.75V2.25C154.217 2.25 168.208 16.2411 168.208 33.5H169.708ZM126.385 39.252L122 31.0311L120.677 31.737L125.061 39.9579L126.385 39.252ZM128.488 39.4138C127.939 40.1457 126.815 40.0593 126.385 39.252L125.061 39.9579C126.009 41.7339 128.48 41.924 129.688 40.3138L128.488 39.4138ZM142.665 20.511L128.488 39.4138L129.688 40.3138L143.865 21.411L142.665 20.511ZM142.907 19.8991C142.883 20.1211 142.799 20.3324 142.665 20.511L143.865 21.411C144.16 21.018 144.344 20.5531 144.398 20.0647L142.907 19.8991ZM143.208 17.1968L142.907 19.8991L144.398 20.0647L144.698 17.3624L143.208 17.1968ZM141.375 15.9569C142.262 15.4816 143.319 16.1964 143.208 17.1968L144.698 17.3625C144.943 15.1615 142.619 13.589 140.667 14.6347L141.375 15.9569ZM123.619 25.4687L141.375 15.9569L140.667 14.6347L122.911 24.1465L123.619 25.4687ZM123.008 26.2272C123.101 25.9021 123.321 25.6284 123.619 25.4687L122.911 24.1465C122.255 24.4978 121.77 25.0998 121.566 25.8151L123.008 26.2272ZM121.901 30.0995L123.008 26.2272L121.566 25.8151L120.459 29.6874L121.901 30.0995ZM122 31.0311C121.848 30.7451 121.812 30.4111 121.901 30.0995L120.459 29.6874C120.263 30.373 120.341 31.1078 120.677 31.737L122 31.0311ZM153.24 35.068L148.855 26.8471L147.532 27.553L151.916 35.7739L153.24 35.068ZM153.457 37.1176C153.653 36.432 153.575 35.6971 153.24 35.068L151.916 35.7739C152.069 36.0598 152.104 36.3939 152.015 36.7055L153.457 37.1176ZM152.351 40.9898L153.457 37.1176L152.015 36.7055L150.909 40.5778L152.351 40.9898ZM151.005 42.6584C151.661 42.3071 152.147 41.7052 152.351 40.9898L150.909 40.5778C150.816 40.9029 150.595 41.1765 150.297 41.3362L151.005 42.6584ZM133.25 52.1703L151.005 42.6584L150.297 41.3362L132.542 50.848L133.25 52.1703ZM129.218 49.4425C128.974 51.6434 131.298 53.216 133.25 52.1703L132.542 50.848C131.654 51.3234 130.598 50.6086 130.709 49.6082L129.218 49.4425ZM129.518 46.7402L129.218 49.4425L130.709 49.6082L131.009 46.9059L129.518 46.7402ZM130.052 45.3939C129.757 45.787 129.573 46.2519 129.518 46.7402L131.009 46.9059C131.034 46.6839 131.118 46.4726 131.252 46.2939L130.052 45.3939ZM144.229 26.4912L130.052 45.3939L131.252 46.2939L145.429 27.3912L144.229 26.4912ZM148.855 26.8471C147.908 25.0711 145.436 24.881 144.229 26.4912L145.429 27.3912C145.978 26.6593 147.101 26.7457 147.532 27.553L148.855 26.8471Z" fill="#2E1E00"/>
<path fill-rule="evenodd" clip-rule="evenodd" d="M190.877 28.0614V23.5C207.657 24.4924 220.958 38.4146 220.958 55.4434C220.958 72.4723 207.657 86.3944 190.877 87.3868V82.0856L214.958 65.7709V44.376L190.877 28.0614ZM207.661 63.6569L188.958 79.144L170.256 63.6579V46.491L188.959 31.004L207.661 46.49V63.6569ZM187.039 23.5V28.0624L162.958 44.377V65.7719L187.039 82.0865V87.3868C170.26 86.3944 156.958 72.4723 156.958 55.4434C156.958 38.4146 170.26 24.4924 187.039 23.5ZM191.492 50.5176C191.712 50.9859 192.116 51.3981 192.634 51.3981H195.275C195.832 51.3981 196.29 50.9414 196.203 50.3919C196.071 49.5604 195.78 48.8062 195.332 48.1293C194.709 47.1888 193.833 46.4592 192.702 45.9403C192.307 45.7557 191.887 45.6034 191.442 45.4837V42.5002C191.442 41.948 190.994 41.5002 190.442 41.5002H188.06C187.508 41.5002 187.06 41.948 187.06 42.5002V45.2689C186.221 45.392 185.443 45.6126 184.726 45.9306C183.558 46.4495 182.642 47.1726 181.981 48.1001C181.32 49.0275 180.992 50.1074 180.998 51.3397C180.992 52.8509 181.48 54.0507 182.463 54.9393C183.445 55.8213 184.791 56.4602 186.499 56.8558L188.56 57.3422C189.279 57.5108 189.87 57.6957 190.333 57.8967C190.801 58.0913 191.148 58.3248 191.373 58.5972C191.598 58.8631 191.713 59.1842 191.72 59.5603C191.713 59.9624 191.588 60.3192 191.344 60.6305C191.1 60.9418 190.75 61.185 190.294 61.3601C189.845 61.5352 189.299 61.6228 188.657 61.6228C187.957 61.6228 187.34 61.5125 186.807 61.292C186.28 61.0715 185.866 60.7472 185.564 60.3192C185.421 60.1161 185.308 59.8889 185.224 59.6376C185.056 59.1358 184.641 58.7139 184.112 58.7139H181.5C180.943 58.7139 180.486 59.1707 180.551 59.7241C180.682 60.8364 181.01 61.7871 181.538 62.5762C182.219 63.5944 183.172 64.3533 184.399 64.8527C185.196 65.1774 186.083 65.3965 187.06 65.5101V68.253C187.06 68.8053 187.508 69.253 188.06 69.253H190.442C190.994 69.253 191.442 68.8053 191.442 68.253V65.3365C191.973 65.222 192.467 65.0705 192.924 64.8819C194.093 64.4019 194.988 63.7112 195.611 62.8097C196.234 61.9082 196.549 60.8283 196.555 59.5701C196.549 58.7723 196.414 58.0524 196.151 57.4103C195.887 56.7682 195.499 56.2007 194.985 55.7078C194.478 55.2149 193.849 54.7901 193.097 54.4334C192.352 54.0767 191.492 53.7913 190.516 53.5773L188.82 53.1881C188.371 53.0908 187.966 52.9773 187.607 52.8476C187.247 52.7179 186.939 52.5687 186.682 52.4001C186.431 52.225 186.239 52.0239 186.104 51.7969C185.975 51.5699 185.918 51.3073 185.93 51.0089C185.937 50.6457 186.043 50.3247 186.248 50.0458C186.454 49.7604 186.762 49.5367 187.173 49.3745C187.584 49.2124 188.098 49.1313 188.714 49.1313C189.645 49.1313 190.362 49.3324 190.862 49.7345C191.137 49.9489 191.347 50.2099 191.492 50.5176Z" fill="#F5C09A"/>
<path d="M190.877 23.5L190.921 22.7513L190.127 22.7043V23.5H190.877ZM190.877 28.0614H190.127V28.4592L190.457 28.6824L190.877 28.0614ZM190.877 87.3868H190.127V88.1825L190.921 88.1355L190.877 87.3868ZM190.877 82.0856L190.457 81.4646L190.127 81.6878V82.0856H190.877ZM214.958 65.7709L215.379 66.3919L215.708 66.1687V65.7709H214.958ZM214.958 44.376H215.708V43.9782L215.379 43.7551L214.958 44.376ZM188.958 79.144L188.479 79.7217L188.958 80.1177L189.436 79.7217L188.958 79.144ZM207.661 63.6569L208.139 64.2346L208.411 64.0097V63.6569H207.661ZM170.256 63.6579H169.506V64.0106L169.777 64.2356L170.256 63.6579ZM170.256 46.491L169.777 45.9134L169.506 46.1383V46.491H170.256ZM188.959 31.004L189.437 30.4263L188.959 30.0302L188.481 30.4263L188.959 31.004ZM207.661 46.49H208.411V46.1373L208.139 45.9124L207.661 46.49ZM187.039 28.0624L187.46 28.6833L187.789 28.4602V28.0624H187.039ZM187.039 23.5H187.789V22.7043L186.995 22.7513L187.039 23.5ZM162.958 44.377L162.538 43.7561L162.208 43.9792V44.377H162.958ZM162.958 65.7719H162.208V66.1697L162.538 66.3928L162.958 65.7719ZM187.039 82.0865H187.789V81.6887L187.46 81.4656L187.039 82.0865ZM187.039 87.3868L186.995 88.1355L187.789 88.1825V87.3868H187.039ZM191.492 50.5176L192.171 50.1983L191.492 50.5176ZM196.203 50.3919L195.462 50.5098V50.5098L196.203 50.3919ZM195.332 48.1293L195.957 47.7151L195.957 47.7151L195.332 48.1293ZM192.702 45.9403L192.385 46.6198L192.389 46.622L192.702 45.9403ZM191.442 45.4837H190.692V46.0585L191.247 46.2079L191.442 45.4837ZM187.06 45.2689L187.169 46.011L187.81 45.917V45.2689H187.06ZM184.726 45.9306L185.031 46.6161L185.031 46.6161L184.726 45.9306ZM181.981 48.1001L181.37 47.6646L181.981 48.1001ZM180.998 51.3397L181.749 51.3429L181.748 51.3358L180.998 51.3397ZM182.463 54.9393L181.96 55.4955L181.962 55.4974L182.463 54.9393ZM186.499 56.8558L186.671 56.1258L186.668 56.1251L186.499 56.8558ZM188.56 57.3422L188.388 58.0722L188.389 58.0724L188.56 57.3422ZM190.333 57.8967L190.033 58.5846L190.045 58.5895L190.333 57.8967ZM191.373 58.5972L190.794 59.0746L190.8 59.0814L191.373 58.5972ZM191.72 59.5603L192.47 59.5723L192.47 59.5599L192.47 59.5475L191.72 59.5603ZM190.294 61.3601L190.025 60.66L190.022 60.6613L190.294 61.3601ZM186.807 61.292L186.517 61.9838L186.52 61.985L186.807 61.292ZM185.564 60.3192L184.951 60.7514L184.951 60.7514L185.564 60.3192ZM185.224 59.6376L184.512 59.8752L185.224 59.6376ZM180.551 59.7241L181.296 59.6368L180.551 59.7241ZM181.538 62.5762L180.914 62.993L181.538 62.5762ZM184.399 64.8527L184.682 64.158L184.682 64.158L184.399 64.8527ZM187.06 65.5101H187.81V64.8423L187.147 64.7651L187.06 65.5101ZM191.442 65.3365L191.284 64.6033L190.692 64.7309V65.3365H191.442ZM192.924 64.8819L192.639 64.1881L192.638 64.1886L192.924 64.8819ZM195.611 62.8097L196.228 63.236L195.611 62.8097ZM196.555 59.5701L197.305 59.5739L197.305 59.564L196.555 59.5701ZM196.151 57.4103L195.457 57.6949V57.6949L196.151 57.4103ZM194.985 55.7078L194.463 56.2457L194.466 56.249L194.985 55.7078ZM193.097 54.4334L192.773 55.1098L192.776 55.1109L193.097 54.4334ZM190.516 53.5773L190.348 54.3083L190.355 54.3099L190.516 53.5773ZM188.82 53.1881L188.988 52.4571L188.979 52.4551L188.82 53.1881ZM187.607 52.8476L187.352 53.5531H187.352L187.607 52.8476ZM186.682 52.4001L186.252 53.0148L186.261 53.0211L186.27 53.0271L186.682 52.4001ZM186.104 51.7969L185.451 52.1663L185.455 52.1732L185.459 52.18L186.104 51.7969ZM185.93 51.0089L186.68 51.0412L186.68 51.0317L186.68 51.0222L185.93 51.0089ZM186.248 50.0458L186.852 50.4907L186.857 50.4841L186.248 50.0458ZM187.173 49.3745L186.898 48.6769H186.898L187.173 49.3745ZM190.862 49.7345L190.393 50.3194L190.401 50.3259L190.862 49.7345ZM190.127 23.5V28.0614H191.627V23.5H190.127ZM221.708 55.4434C221.708 38.0152 208.095 23.767 190.921 22.7513L190.833 24.2487C207.219 25.2178 220.208 38.8139 220.208 55.4434H221.708ZM190.921 88.1355C208.095 87.1198 221.708 72.8716 221.708 55.4434H220.208C220.208 72.0729 207.219 85.669 190.833 86.6381L190.921 88.1355ZM190.127 82.0856V87.3868H191.627V82.0856H190.127ZM214.538 65.15L190.457 81.4646L191.298 82.7065L215.379 66.3919L214.538 65.15ZM214.208 44.376V65.7709H215.708V44.376H214.208ZM190.457 28.6824L214.538 44.997L215.379 43.7551L191.298 27.4405L190.457 28.6824ZM189.436 79.7217L208.139 64.2346L207.183 63.0793L188.479 78.5663L189.436 79.7217ZM169.777 64.2356L188.479 79.7217L189.436 78.5663L170.734 63.0803L169.777 64.2356ZM169.506 46.491V63.6579H171.006V46.491H169.506ZM188.481 30.4263L169.777 45.9134L170.734 47.0687L189.437 31.5816L188.481 30.4263ZM208.139 45.9124L189.437 30.4263L188.481 31.5816L207.183 47.0677L208.139 45.9124ZM208.411 63.6569V46.49H206.911V63.6569H208.411ZM187.789 28.0624V23.5H186.289V28.0624H187.789ZM163.379 44.9979L187.46 28.6833L186.619 27.4415L162.538 43.7561L163.379 44.9979ZM163.708 65.7719V44.377H162.208V65.7719H163.708ZM187.46 81.4656L163.379 65.151L162.538 66.3928L186.619 82.7075L187.46 81.4656ZM187.789 87.3868V82.0865H186.289V87.3868H187.789ZM156.208 55.4434C156.208 72.8716 169.821 87.1198 186.995 88.1355L187.084 86.6381C170.698 85.669 157.708 72.0729 157.708 55.4434H156.208ZM186.995 22.7513C169.821 23.767 156.208 38.0152 156.208 55.4434H157.708C157.708 38.8139 170.698 25.2178 187.084 24.2487L186.995 22.7513ZM192.634 50.6481C192.586 50.6481 192.52 50.6317 192.433 50.5581C192.34 50.4805 192.245 50.3556 192.171 50.1983L190.813 50.837C191.085 51.4137 191.687 52.1481 192.634 52.1481V50.6481ZM195.275 50.6481H192.634V52.1481H195.275V50.6481ZM195.462 50.5098C195.465 50.5282 195.463 50.5392 195.461 50.547C195.458 50.5562 195.451 50.5697 195.436 50.5851C195.405 50.6177 195.349 50.6481 195.275 50.6481V52.1481C196.211 52.1481 197.116 51.3565 196.944 50.2741L195.462 50.5098ZM194.707 48.5434C195.094 49.1276 195.346 49.7801 195.462 50.5098L196.944 50.2741C196.795 49.3407 196.467 48.4848 195.957 47.7151L194.707 48.5434ZM192.389 46.622C193.406 47.0887 194.169 47.7313 194.707 48.5434L195.957 47.7151C195.249 46.6464 194.259 45.8297 193.015 45.2587L192.389 46.622ZM191.247 46.2079C191.652 46.317 192.031 46.4546 192.385 46.6198L193.02 45.2609C192.583 45.0567 192.122 44.8899 191.637 44.7594L191.247 46.2079ZM190.692 42.5002V45.4837H192.192V42.5002H190.692ZM190.442 42.2502C190.58 42.2502 190.692 42.3622 190.692 42.5002H192.192C192.192 41.5338 191.409 40.7502 190.442 40.7502V42.2502ZM188.06 42.2502H190.442V40.7502H188.06V42.2502ZM187.81 42.5002C187.81 42.3622 187.922 42.2502 188.06 42.2502V40.7502C187.093 40.7502 186.31 41.5337 186.31 42.5002H187.81ZM187.81 45.2689V42.5002H186.31V45.2689H187.81ZM185.031 46.6161C185.68 46.3279 186.391 46.125 187.169 46.011L186.951 44.5269C186.05 44.6591 185.206 44.8973 184.422 45.2451L185.031 46.6161ZM182.592 48.5356C183.166 47.7303 183.969 47.0873 185.031 46.6161L184.422 45.2451C183.146 45.8116 182.119 46.615 181.37 47.6646L182.592 48.5356ZM181.748 51.3358C181.743 50.2474 182.029 49.3242 182.592 48.5356L181.37 47.6646C180.61 48.7309 180.241 49.9674 180.248 51.3436L181.748 51.3358ZM182.966 54.383C182.164 53.6582 181.743 52.6741 181.748 51.3429L180.248 51.3365C180.241 53.0276 180.796 54.4432 181.96 55.4955L182.966 54.383ZM186.668 56.1251C185.044 55.749 183.826 55.1554 182.964 54.3812L181.962 55.4974C183.064 56.4873 184.537 57.1713 186.33 57.5865L186.668 56.1251ZM188.732 56.6123L186.671 56.1258L186.327 57.5857L188.388 58.0722L188.732 56.6123ZM190.632 57.209C190.114 56.9838 189.476 56.7867 188.731 56.612L188.389 58.0724C189.083 58.235 189.627 58.4076 190.034 58.5845L190.632 57.209ZM191.951 58.1199C191.622 57.7208 191.156 57.4264 190.62 57.204L190.045 58.5895C190.447 58.7563 190.674 58.9289 190.794 59.0745L191.951 58.1199ZM192.47 59.5475C192.461 59.0135 192.291 58.5219 191.946 58.113L190.8 59.0814C190.904 59.2043 190.966 59.3549 190.97 59.5731L192.47 59.5475ZM191.934 61.0932C192.281 60.6508 192.461 60.1351 192.47 59.5723L190.97 59.5484C190.966 59.7898 190.895 59.9876 190.754 60.1678L191.934 61.0932ZM190.563 62.0603C191.116 61.8479 191.589 61.5337 191.934 61.0932L190.754 60.1678C190.611 60.3499 190.384 60.5221 190.025 60.66L190.563 62.0603ZM188.657 62.3728C189.363 62.3728 190.007 62.277 190.566 62.059L190.022 60.6613C189.683 60.7934 189.235 60.8728 188.657 60.8728V62.3728ZM186.52 61.985C187.161 62.2503 187.879 62.3728 188.657 62.3728V60.8728C188.034 60.8728 187.519 60.7748 187.094 60.599L186.52 61.985ZM184.951 60.7514C185.342 61.3049 185.873 61.7139 186.517 61.9838L187.097 60.6002C186.688 60.4291 186.391 60.1895 186.177 59.887L184.951 60.7514ZM184.512 59.8752C184.618 60.1912 184.763 60.4847 184.951 60.7514L186.177 59.887C186.079 59.7474 185.997 59.5865 185.935 59.4L184.512 59.8752ZM184.112 59.4639C184.166 59.4639 184.231 59.4831 184.308 59.5503C184.388 59.6214 184.466 59.7353 184.512 59.8752L185.935 59.4C185.706 58.7146 185.076 57.9639 184.112 57.9639V59.4639ZM181.5 59.4639H184.112V57.9639H181.5V59.4639ZM181.296 59.6368C181.292 59.598 181.302 59.5639 181.334 59.5305C181.369 59.4936 181.428 59.4639 181.5 59.4639V57.9639C180.551 57.9639 179.683 58.7577 179.806 59.8113L181.296 59.6368ZM182.161 62.1594C181.711 61.4853 181.415 60.6524 181.296 59.6368L179.806 59.8113C179.948 61.0204 180.31 62.0889 180.914 62.993L182.161 62.1594ZM184.682 64.158C183.582 63.7103 182.752 63.0429 182.161 62.1594L180.914 62.993C181.685 64.146 182.763 64.9962 184.116 65.5473L184.682 64.158ZM187.147 64.7651C186.228 64.6583 185.408 64.4538 184.682 64.158L184.116 65.5473C184.984 65.9009 185.939 66.1347 186.973 66.2551L187.147 64.7651ZM187.81 68.253V65.5101H186.31V68.253H187.81ZM188.06 68.503C187.922 68.503 187.81 68.3911 187.81 68.253H186.31C186.31 69.2195 187.093 70.003 188.06 70.003V68.503ZM190.442 68.503H188.06V70.003H190.442V68.503ZM190.692 68.253C190.692 68.3911 190.58 68.503 190.442 68.503V70.003C191.409 70.003 192.192 69.2195 192.192 68.253H190.692ZM190.692 65.3365V68.253H192.192V65.3365H190.692ZM192.638 64.1886C192.226 64.3585 191.776 64.4974 191.284 64.6033L191.6 66.0696C192.171 65.9466 192.708 65.7824 193.21 65.5751L192.638 64.1886ZM194.994 62.3833C194.466 63.148 193.694 63.7546 192.639 64.1881L193.209 65.5756C194.491 65.0492 195.511 64.2744 196.228 63.236L194.994 62.3833ZM195.805 59.5662C195.8 60.6965 195.519 61.6238 194.994 62.3833L196.228 63.236C196.949 62.1925 197.298 60.96 197.305 59.5739L195.805 59.5662ZM195.457 57.6949C195.679 58.2363 195.8 58.8598 195.805 59.5761L197.305 59.564C197.298 58.6849 197.149 57.8685 196.845 57.1258L195.457 57.6949ZM194.466 56.249C194.906 56.6714 195.234 57.1521 195.457 57.6949L196.845 57.1258C196.541 56.3843 196.092 55.73 195.504 55.1666L194.466 56.249ZM192.776 55.1109C193.465 55.4384 194.023 55.8191 194.463 56.2457L195.508 55.1699C194.932 54.6107 194.232 54.1417 193.419 53.7559L192.776 55.1109ZM190.355 54.3099C191.286 54.514 192.09 54.7826 192.773 55.1098L193.421 53.7569C192.615 53.3707 191.697 53.0686 190.676 52.8447L190.355 54.3099ZM188.652 53.9191L190.348 54.3083L190.683 52.8463L188.988 52.4571L188.652 53.9191ZM187.352 53.5531C187.749 53.6961 188.186 53.8182 188.662 53.9212L188.979 52.4551C188.556 52.3635 188.184 52.2585 187.861 52.1421L187.352 53.5531ZM186.27 53.0271C186.586 53.2347 186.95 53.4081 187.352 53.5531L187.861 52.1421C187.544 52.0277 187.291 51.9028 187.093 51.7731L186.27 53.0271ZM185.459 52.18C185.656 52.5119 185.928 52.7882 186.252 53.0148L187.112 51.7855C186.935 51.6618 186.821 51.536 186.749 51.4139L185.459 52.18ZM185.181 50.9767C185.163 51.3945 185.244 51.8002 185.451 52.1663L186.757 51.4276C186.707 51.3397 186.672 51.2201 186.68 51.0412L185.181 50.9767ZM185.645 49.6009C185.342 50.0113 185.19 50.4849 185.181 50.9957L186.68 51.0222C186.684 50.8065 186.744 50.638 186.852 50.4907L185.645 49.6009ZM186.898 48.6769C186.387 48.8783 185.948 49.1789 185.64 49.6075L186.857 50.4841C186.959 50.3419 187.137 50.1951 187.448 50.0722L186.898 48.6769ZM188.714 48.3813C188.038 48.3813 187.424 48.4694 186.898 48.6769L187.448 50.0722C187.744 49.9554 188.157 49.8813 188.714 49.8813V48.3813ZM191.332 49.1496C190.65 48.6018 189.742 48.3813 188.714 48.3813V49.8813C189.549 49.8813 190.074 50.0629 190.393 50.3193L191.332 49.1496ZM192.171 50.1983C191.974 49.7814 191.689 49.4279 191.324 49.1431L190.401 50.3259C190.586 50.4698 190.72 50.6385 190.813 50.837L192.171 50.1983Z" fill="#2E1E00"/>
</svg>
