<svg width="695" height="322" viewBox="0 0 695 322" fill="none" xmlns="http://www.w3.org/2000/svg">
<path d="M513.874 320.647C513.874 320.647 504.656 284.711 537.941 290.112C537.941 290.112 523.759 236.094 563.701 233.393C603.643 230.693 598.722 278.707 598.722 278.707C598.722 278.707 610.59 273.306 614.64 281.709C618.694 290.111 614.351 298.214 614.351 298.214C614.351 298.214 630.445 306.162 622.688 320.644H513.874V320.647Z" fill="#FEFFFA" stroke="#2E1E00" stroke-width="1.5" stroke-miterlimit="10" stroke-linecap="round" stroke-linejoin="round"/>
<path d="M573.358 301.592C573.358 301.592 584.425 289.404 595.495 301.592H573.358Z" fill="#FEFFFA"/>
<path d="M573.358 301.592C573.358 301.592 584.425 289.404 595.495 301.592" stroke="#2E1E00" stroke-width="1.5" stroke-miterlimit="10" stroke-linecap="round" stroke-linejoin="round"/>
<path d="M554.161 262.077C554.161 262.077 565.227 249.889 576.297 262.077H554.161Z" fill="#FEFFFA"/>
<path d="M554.161 262.077C554.161 262.077 565.227 249.889 576.297 262.077" stroke="#2E1E00" stroke-width="1.5" stroke-miterlimit="10" stroke-linecap="round" stroke-linejoin="round"/>
<path d="M140.46 319.967C140.46 319.967 133.523 296.13 158.186 298.557C158.186 298.557 139.372 284.164 148.436 265.225C153.192 255.289 163.547 248.997 174.477 250.309C180.611 251.045 187.197 254.134 191.745 262.561C191.745 262.561 193.766 217.264 229.345 224.142C264.925 231.016 251.582 286.826 251.582 286.826C251.582 286.826 283.444 291.634 264.479 319.967H140.46Z" fill="#FEFFFA" stroke="#2E1E00" stroke-width="1.5" stroke-miterlimit="10" stroke-linecap="round" stroke-linejoin="round"/>
<path d="M183.068 300.657C183.068 300.657 196.22 286.173 209.375 300.657" stroke="#2E1E00" stroke-width="1.5" stroke-miterlimit="10" stroke-linecap="round" stroke-linejoin="round"/>
<path d="M210.528 261.636C210.528 261.636 223.68 247.152 236.834 261.636" stroke="#2E1E00" stroke-width="1.5" stroke-miterlimit="10" stroke-linecap="round" stroke-linejoin="round"/>
<path d="M530.449 320.362H481.398C481.398 320.362 477.695 300.113 490.885 302.253C490.885 302.253 486.964 290.134 502.655 292.627C502.655 292.627 501.581 273.02 515.846 276.227C530.11 279.441 520.841 301.54 520.841 301.54C520.841 301.54 535.776 296.766 530.449 320.362Z" fill="#FEFFFA" stroke="#2E1E00" stroke-width="1.5" stroke-miterlimit="10" stroke-linecap="round" stroke-linejoin="round"/>
<path d="M1 320.368H693.808" stroke="#2E1E00" stroke-width="1.5" stroke-miterlimit="10" stroke-linecap="round" stroke-linejoin="round"/>
<path d="M356.196 70.1229C356.196 70.1229 348.346 72.5392 349.818 79.6252C351.29 86.7111 357.504 81.4805 357.504 81.4805C357.504 81.4805 359.056 87.2797 363.571 86.0905C368.085 84.9013 366.617 78.8857 366.617 78.8857C366.617 78.8857 375.519 78.7345 373.685 72.2774C371.852 65.8203 365.308 69.8413 365.308 69.8413C365.308 69.8413 362.873 62.8028 359.334 64.3872C355.798 65.994 356.196 70.1229 356.196 70.1229Z" fill="#FEFFFA" stroke="#111827" stroke-width="1.5" stroke-miterlimit="10" stroke-linecap="round" stroke-linejoin="round"/>
<path d="M312.831 54.4614C312.831 54.4614 317.711 57.3904 321.233 53.955C321.971 53.2354 322.38 52.2345 322.433 51.2053C322.663 46.8064 319.112 46.7042 319.112 46.7042C319.112 46.7042 321.771 42.1971 318.27 40.1112C314.769 38.0254 311.92 42.6158 311.92 42.6158C311.92 42.6158 307.353 37.8824 303.491 42.2512C300.59 47.3334 307.095 48.9499 307.095 48.9499C307.095 48.9499 304.204 54.7645 307.353 55.9985C310.507 57.2352 312.831 54.4614 312.831 54.4614Z" fill="#FEFFFA" stroke="#111827" stroke-width="1.5" stroke-miterlimit="10" stroke-linecap="round" stroke-linejoin="round"/>
<path d="M396.15 108.015C396.15 108.015 397.293 103.111 394.044 100.105C392.205 98.4014 389.409 98.0238 387.209 99.2193C386.735 99.4761 385.975 99.9119 385.762 100.327C385.762 100.327 377.281 99.3777 376.284 105.29C375.878 113.125 383.632 110.076 383.632 110.076C383.632 110.076 380.067 117.204 385.668 118.198C391.271 119.198 391.527 111.761 391.527 111.761C391.527 111.761 396.168 115.655 397.821 112.88C399.476 110.11 396.15 108.015 396.15 108.015Z" fill="#FEFFFA" stroke="#111827" stroke-width="1.5" stroke-miterlimit="10" stroke-linecap="round" stroke-linejoin="round"/>
<path d="M212.212 5.32171C212.212 5.32171 208.595 1.31323 203.96 2.3328C201.168 2.94545 198.448 5.76771 199.257 9.80942C199.257 9.80942 192.791 15.4668 197.651 21.141C203.299 26.784 206.362 17.6037 206.362 17.6037C206.362 17.6037 210.454 25.1051 214.759 20.7833C219.069 16.4635 212.679 11.6852 212.679 11.6852C212.679 11.6852 218.949 9.98385 217.518 6.82926C216.093 3.67675 212.212 5.32171 212.212 5.32171Z" fill="#FEFFFA" stroke="#111827" stroke-width="1.5" stroke-miterlimit="10" stroke-linecap="round" stroke-linejoin="round"/>
<path d="M426.542 46.4859C426.542 46.4859 424.831 50.3126 427.01 53.2835C428.321 55.0739 431.179 56.1192 433.795 54.2765C433.795 54.2765 439.842 57.0916 442.346 51.86C444.58 46.0775 437.099 46.7843 437.099 46.7843C437.099 46.7843 441.141 41.524 436.721 39.824C432.301 38.1193 430.914 44.1568 430.914 44.1568C430.914 44.1568 427.738 40.2389 425.947 42.2452C424.156 44.2467 426.542 46.4859 426.542 46.4859Z" fill="#FEFFFA" stroke="#111827" stroke-width="1.5" stroke-miterlimit="10" stroke-linecap="round" stroke-linejoin="round"/>
<path d="M282.614 86.2933C282.186 88.7211 279.826 90.3518 277.332 89.935C275.1 89.562 273.522 87.6753 273.522 85.5473C272.973 85.6643 272.395 85.6717 271.809 85.5766C269.314 85.1598 267.639 82.8636 268.067 80.4357C268.315 79.0025 269.247 77.8543 270.471 77.2328C270.223 77.0207 269.998 76.7721 269.795 76.5015C268.33 74.4905 268.818 71.7117 270.885 70.2857C272.951 68.8597 275.806 69.3423 277.264 71.346C277.519 71.7044 277.722 72.0846 277.858 72.4795C278.383 70.1833 280.683 68.6623 283.095 69.0645C285.589 69.4813 287.265 71.7775 286.837 74.2053C286.656 75.2583 286.108 76.1651 285.334 76.8159C287.746 77.2913 289.354 79.5509 288.933 81.9348C288.505 84.3627 286.138 85.9934 283.643 85.5766C283.298 85.5181 282.96 85.423 282.651 85.2987C282.689 85.6132 282.674 85.9569 282.614 86.2933Z" fill="#FEFFFA" stroke="#111827" stroke-width="1.5" stroke-miterlimit="10" stroke-linecap="round" stroke-linejoin="round"/>
<path d="M131.614 92.2933C131.186 94.7211 128.826 96.3518 126.332 95.935C124.1 95.562 122.522 93.6753 122.522 91.5473C121.973 91.6643 121.395 91.6717 120.809 91.5766C118.314 91.1598 116.639 88.8636 117.067 86.4357C117.315 85.0025 118.247 83.8543 119.471 83.2328C119.223 83.0207 118.998 82.7721 118.795 82.5015C117.33 80.4905 117.818 77.7117 119.885 76.2857C121.951 74.8597 124.806 75.3423 126.264 77.346C126.519 77.7044 126.722 78.0846 126.858 78.4795C127.383 76.1833 129.683 74.6623 132.095 75.0645C134.589 75.4813 136.265 77.7775 135.837 80.2053C135.656 81.2583 135.108 82.1651 134.334 82.8159C136.746 83.2913 138.354 85.5509 137.933 87.9348C137.505 90.3627 135.138 91.9934 132.643 91.5766C132.298 91.5181 131.96 91.423 131.651 91.2987C131.689 91.6132 131.674 91.9569 131.614 92.2933Z" fill="#FEFFFA" stroke="#111827" stroke-width="1.5" stroke-miterlimit="10" stroke-linecap="round" stroke-linejoin="round"/>
<path d="M227.201 76.2323C224.638 77.3599 222.678 79.3849 222.121 82.4239C221.211 87.3885 224.434 91.5495 227.317 89.8532C230.2 88.157 229.534 85.9768 229.534 85.9768C229.534 85.9768 231.582 89.6855 234.263 87.9264C236.945 86.1673 234.894 83.2348 234.894 83.2348C234.894 83.2348 239.894 83.6718 238.746 79.1189C237.764 75.2245 233.105 74.7948 229.89 75.4073C228.95 75.5899 228.041 75.8627 227.201 76.2323Z" fill="#FEFFFA" stroke="#111827" stroke-width="1.5" stroke-miterlimit="10" stroke-linecap="round" stroke-linejoin="round"/>
<path d="M291.176 125.499C291.176 125.499 293.741 130.927 299.002 131.329C301.983 131.558 304.874 129.84 306.044 127.093C306.297 126.502 306.683 125.533 306.575 124.987C306.575 124.987 315.201 119.592 311.753 113.33C306.329 105.709 301.344 114.301 301.344 114.301C301.344 114.301 299.394 105.003 293.425 108.222C287.451 111.438 292.721 118.575 292.721 118.575C292.721 118.575 285.5 118.375 286.012 122.192C286.517 126.006 291.176 125.499 291.176 125.499Z" fill="#FEFFFA" stroke="#111827" stroke-width="1.5" stroke-miterlimit="10" stroke-linecap="round" stroke-linejoin="round"/>
<path d="M275.228 117.177C275.228 117.177 283.592 120.889 287.539 113.858C291.485 106.826 282.438 106.677 282.438 106.677C282.438 106.677 285.375 100.668 280.712 98.3648C276.048 96.0619 272.881 102.19 272.881 102.19C272.881 102.19 265.29 95.8061 262.107 102.573C258.925 109.341 267.365 110.749 267.365 110.749C267.365 110.749 264.262 118.444 268.395 119.702C272.542 120.938 275.228 117.177 275.228 117.177Z" fill="#FEFFFA" stroke="#111827" stroke-width="1.5" stroke-miterlimit="10" stroke-linecap="round" stroke-linejoin="round"/>
<path d="M399.496 75.1042C399.496 75.1042 404.045 77.8918 407.41 74.7515C408.163 74.0483 408.582 73.0466 408.634 72.0173C408.84 67.929 405.518 67.803 405.518 67.803C405.518 67.803 408.079 63.5522 404.777 61.544C401.476 59.5358 398.734 63.8639 398.734 63.8639C398.734 63.8639 394.445 59.336 390.745 63.4452C387.95 68.2391 394.104 69.8283 394.104 69.8283C394.104 69.8283 391.312 75.3169 394.288 76.5144C397.268 77.7144 399.496 75.1042 399.496 75.1042Z" fill="#FEFFFA" stroke="#111827" stroke-width="1.5" stroke-miterlimit="10" stroke-linecap="round" stroke-linejoin="round"/>
<path d="M324.045 108.19C324.045 108.19 320.856 114.439 324.243 119.593C326.281 122.699 330.968 124.692 335.5 121.837C335.5 121.837 345.366 127.063 350.002 118.532C354.233 109.058 341.668 109.596 341.668 109.596C341.668 109.596 348.877 101.15 341.635 97.9285C334.392 94.6985 331.554 104.672 331.554 104.672C331.554 104.672 326.581 97.8494 323.415 101.049C320.249 104.241 324.045 108.19 324.045 108.19Z" fill="#FEFFFA" stroke="#111827" stroke-width="1.5" stroke-miterlimit="10" stroke-linecap="round" stroke-linejoin="round"/>
<path d="M309.618 74.0144C309.618 74.0144 305.709 70.9293 301.652 72.5738C299.208 73.563 297.172 76.5503 298.533 80.1004C298.533 80.1004 293.529 86.2455 298.826 90.653C304.836 94.91 306.2 86.0881 306.2 86.0881C306.2 86.0881 311.082 92.2758 314.328 87.6797C317.579 83.0845 311.028 79.7285 311.028 79.7285C311.028 79.7285 316.466 77.211 314.676 74.564C312.893 71.918 309.618 74.0144 309.618 74.0144Z" fill="#FEFFFA" stroke="#111827" stroke-width="1.5" stroke-miterlimit="10" stroke-linecap="round" stroke-linejoin="round"/>
<path d="M360.648 123.426C360.197 125.85 357.823 127.459 355.332 127.019C353.104 126.626 351.544 124.725 351.563 122.597C351.013 122.709 350.435 122.711 349.85 122.611C347.359 122.171 345.704 119.86 346.155 117.436C346.416 116.005 347.358 114.865 348.588 114.255C348.342 114.041 348.119 113.79 347.919 113.518C346.472 111.493 346.986 108.719 349.065 107.312C351.144 105.905 353.995 106.414 355.434 108.431C355.687 108.791 355.886 109.173 356.018 109.569C356.565 107.278 358.878 105.778 361.286 106.202C363.777 106.642 365.431 108.953 364.981 111.377C364.791 112.428 364.234 113.33 363.454 113.974C365.862 114.471 367.449 116.745 367.006 119.125C366.556 121.549 364.174 123.158 361.684 122.719C361.339 122.657 361.001 122.559 360.694 122.432C360.729 122.747 360.711 123.09 360.648 123.426Z" fill="#FEFFFA" stroke="#111827" stroke-width="1.5" stroke-miterlimit="10" stroke-linecap="round" stroke-linejoin="round"/>
<path d="M238.236 117.233C235.794 116.893 234.078 114.594 234.404 112.086C234.696 109.842 236.524 108.197 238.651 108.12C238.514 107.576 238.485 106.998 238.559 106.409C238.885 103.901 241.119 102.143 243.561 102.482C245.002 102.678 246.183 103.567 246.849 104.769C247.052 104.513 247.292 104.279 247.555 104.066C249.511 102.529 252.306 102.916 253.806 104.929C255.306 106.943 254.928 109.813 252.978 111.343C252.63 111.611 252.257 111.828 251.867 111.977C254.181 112.42 255.785 114.662 255.47 117.087C255.145 119.595 252.911 121.353 250.469 121.013C249.41 120.871 248.484 120.356 247.805 119.607C247.418 122.034 245.218 123.723 242.821 123.389C240.379 123.05 238.663 120.743 238.989 118.235C239.035 117.888 239.118 117.546 239.231 117.234C238.918 117.283 238.574 117.28 238.236 117.233Z" fill="#FEFFFA" stroke="#111827" stroke-width="1.5" stroke-miterlimit="10" stroke-linecap="round" stroke-linejoin="round"/>
<path d="M312.978 112.517C315.903 111.597 318.279 109.627 319.25 106.386C320.836 101.091 317.827 96.1746 314.484 97.6754C311.142 99.1763 311.606 101.629 311.606 101.629C311.606 101.629 309.822 97.3466 306.692 98.9401C303.562 100.534 305.443 103.972 305.443 103.972C305.443 103.972 300.052 102.897 300.756 107.99C301.358 112.348 306.378 113.374 309.952 113.093C310.997 113.006 312.018 112.818 312.978 112.517Z" fill="#FEFFFA" stroke="#111827" stroke-width="1.5" stroke-miterlimit="10" stroke-linecap="round" stroke-linejoin="round"/>
<path d="M262.213 130.554C262.213 130.554 264.827 135.958 270.092 136.311C273.074 136.513 275.949 134.769 277.095 132.012C277.342 131.418 277.72 130.445 277.606 129.901C277.606 129.901 286.183 124.427 282.678 118.197C277.184 110.626 272.278 119.263 272.278 119.263C272.278 119.263 270.243 109.983 264.304 113.257C258.359 116.527 263.694 123.616 263.694 123.616C263.694 123.616 256.472 123.481 257.018 127.294C257.559 131.102 262.213 130.554 262.213 130.554Z" fill="#FEFFFA" stroke="#111827" stroke-width="1.5" stroke-miterlimit="10" stroke-linecap="round" stroke-linejoin="round"/>
<path d="M248.173 119.084C248.173 119.084 239.428 121.776 241.068 129.671C242.708 137.565 249.63 131.738 249.63 131.738C249.63 131.738 251.36 138.199 256.39 136.874C261.419 135.549 259.784 128.847 259.784 128.847C259.784 128.847 269.701 128.678 267.659 121.484C265.616 114.29 258.325 118.77 258.325 118.77C258.325 118.77 255.613 110.929 251.67 112.694C247.73 114.484 248.173 119.084 248.173 119.084Z" fill="#FEFFFA" stroke="#111827" stroke-width="1.5" stroke-miterlimit="10" stroke-linecap="round" stroke-linejoin="round"/>
<path d="M366.187 135.632C366.187 135.632 372.691 139.536 377.199 134.679C377.9 133.924 378.306 132.931 378.4 131.904C378.948 125.877 374.195 125.74 374.195 125.74C374.195 125.74 377.586 119.993 373.122 117.334C368.658 114.674 365.025 120.527 365.025 120.527C365.025 120.527 359.201 114.492 354.277 120.062C350.578 126.543 358.872 128.604 358.872 128.604C358.872 128.604 355.185 136.018 359.201 137.592C363.223 139.169 366.187 135.632 366.187 135.632Z" fill="#FEFFFA" stroke="#111827" stroke-width="1.5" stroke-miterlimit="10" stroke-linecap="round" stroke-linejoin="round"/>
<path d="M279.494 129.755C279.494 129.755 280.138 135.846 285.07 138.003C288.041 139.304 292.419 138.529 294.374 134.282C294.374 134.282 304.081 133.405 303.408 124.957C301.991 116.011 293.056 122.39 293.056 122.39C293.056 122.39 294.307 112.777 287.474 113.87C280.637 114.957 283.312 123.605 283.312 123.605C283.312 123.605 276.424 120.982 275.632 124.831C274.836 128.675 279.494 129.755 279.494 129.755Z" fill="#FEFFFA" stroke="#111827" stroke-width="1.5" stroke-miterlimit="10" stroke-linecap="round" stroke-linejoin="round"/>
<path d="M318.282 120.078C318.282 120.078 315.75 125.741 318.974 130.138C320.915 132.787 325.144 134.334 329.016 131.607C329.016 131.607 337.964 135.773 341.669 128.031C344.975 119.474 333.905 120.52 333.905 120.52C333.905 120.52 339.887 112.735 333.346 110.219C326.804 107.697 324.752 116.631 324.752 116.631C324.752 116.631 320.052 110.833 317.401 113.802C314.751 116.764 318.282 120.078 318.282 120.078Z" fill="#FEFFFA" stroke="#111827" stroke-width="1.5" stroke-miterlimit="10" stroke-linecap="round" stroke-linejoin="round"/>
<path d="M352.614 132.293C352.186 134.721 349.826 136.352 347.332 135.935C345.1 135.562 343.522 133.675 343.522 131.547C342.973 131.664 342.395 131.672 341.809 131.577C339.314 131.16 337.639 128.864 338.067 126.436C338.315 125.002 339.247 123.854 340.471 123.233C340.223 123.021 339.998 122.772 339.795 122.501C338.33 120.49 338.818 117.712 340.885 116.286C342.951 114.86 345.806 115.342 347.264 117.346C347.519 117.704 347.722 118.085 347.858 118.479C348.383 116.183 350.683 114.662 353.095 115.064C355.589 115.481 357.265 117.777 356.837 120.205C356.656 121.258 356.108 122.165 355.334 122.816C357.746 123.291 359.354 125.551 358.933 127.935C358.505 130.363 356.138 131.993 353.643 131.577C353.298 131.518 352.96 131.423 352.651 131.299C352.689 131.613 352.674 131.957 352.614 132.293Z" fill="#FEFFFA" stroke="#111827" stroke-width="1.5" stroke-miterlimit="10" stroke-linecap="round" stroke-linejoin="round"/>
<path d="M238.614 134.293C238.186 136.721 235.826 138.352 233.332 137.935C231.1 137.562 229.522 135.675 229.522 133.547C228.973 133.664 228.395 133.672 227.809 133.577C225.314 133.16 223.639 130.864 224.067 128.436C224.315 127.002 225.247 125.854 226.471 125.233C226.223 125.021 225.998 124.772 225.795 124.501C224.33 122.49 224.818 119.712 226.885 118.286C228.951 116.86 231.806 117.342 233.264 119.346C233.519 119.704 233.722 120.085 233.858 120.479C234.383 118.183 236.683 116.662 239.095 117.064C241.589 117.481 243.265 119.777 242.837 122.205C242.656 123.258 242.108 124.165 241.334 124.816C243.746 125.291 245.354 127.551 244.933 129.935C244.505 132.363 242.138 133.993 239.643 133.577C239.298 133.518 238.96 133.423 238.651 133.299C238.689 133.613 238.674 133.957 238.614 134.293Z" fill="#FEFFFA" stroke="#111827" stroke-width="1.5" stroke-miterlimit="10" stroke-linecap="round" stroke-linejoin="round"/>
<path d="M314.848 135.698C318.539 134.787 321.632 132.534 323.084 128.599C325.457 122.17 322.115 115.854 317.863 117.452C313.611 119.05 313.995 122.121 313.995 122.121C313.995 122.121 312.119 116.683 308.123 118.412C304.127 120.141 306.188 124.541 306.188 124.541C306.188 124.541 299.601 122.793 300.076 129.15C300.484 134.588 306.615 136.247 311.059 136.176C312.359 136.151 313.638 135.997 314.848 135.698Z" fill="#FEFFFA" stroke="#111827" stroke-width="1.5" stroke-miterlimit="10" stroke-linecap="round" stroke-linejoin="round"/>
<path d="M244.119 303.22L215.786 130.652H388.071L356.304 303.22H244.119Z" fill="#73B7EA" stroke="#2E1E00" stroke-width="1.5"/>
<path d="M289.151 193.352H314.744C324.271 193.352 331.994 201.075 331.994 210.602V240.72C331.994 250.247 324.271 257.97 314.744 257.97H289.151C279.624 257.97 271.901 250.247 271.901 240.72V210.602C271.901 201.075 279.624 193.352 289.151 193.352Z" fill="#FFDC38" stroke="#2E1E00" stroke-width="1.5"/>
<path d="M296.328 221.664C294.497 220.461 285.553 228.283 289.518 231.704C292.065 233.901 299.52 234.494 300.879 230.556C298.242 238.202 315.341 237.447 309.385 227.986C309.385 227.986 315.912 229.369 313.341 223.049C310.769 216.73 306.418 220.482 306.418 220.482C306.418 220.482 305.627 213.57 299.293 214.953C295.874 215.702 294.376 218.566 296.328 221.664Z" fill="#FEFFFA" stroke="#2E1E00" stroke-width="1.5" stroke-miterlimit="10" stroke-linecap="round" stroke-linejoin="round"/>
<path d="M443.253 174.115L376.57 194.033L419.004 270.242L455.377 255.52L443.253 174.115Z" fill="#ADF0E7" stroke="#2E1E00" stroke-width="1.5"/>
<path d="M436.681 216.278L437.094 217.961C439.046 225.92 434.176 233.954 426.217 235.906C418.258 237.858 410.224 232.989 408.272 225.03L407.859 223.348C405.907 215.389 410.777 207.354 418.736 205.402C426.695 203.45 434.729 208.32 436.681 216.278Z" fill="#FFDC38" stroke="#2E1E00" stroke-width="1.5"/>
<path d="M422.611 216.518C422.483 215.072 414.739 213.637 414.591 217.104C414.495 219.332 417.252 223.452 419.858 222.54C414.798 224.311 422.219 232.892 424.69 225.906C424.69 225.906 426.654 229.868 428.883 225.933C431.112 221.999 427.372 221.279 427.372 221.279C427.372 221.279 430.641 218.026 427.318 215.302C425.523 213.831 423.419 214.23 422.611 216.518Z" fill="#FEFFFA" stroke="#2E1E00" stroke-width="1.5" stroke-miterlimit="10" stroke-linecap="round" stroke-linejoin="round"/>
<path d="M389.779 319.404V280.434L468.586 247.526L478.112 319.404H389.779Z" fill="#50C56E" stroke="#2E1E00" stroke-width="1.5"/>
<path d="M438.386 305.823L436.704 306.236C428.745 308.188 420.711 303.318 418.758 295.359C416.806 287.4 421.676 279.366 429.635 277.414L431.317 277.001C439.276 275.049 447.311 279.918 449.263 287.877C451.215 295.836 446.345 303.871 438.386 305.823Z" fill="#FFDC38" stroke="#2E1E00" stroke-width="1.5"/>
<path d="M438.146 291.753C439.593 291.625 441.028 283.882 437.56 283.733C435.333 283.638 431.213 286.394 432.125 289C430.353 283.94 421.773 291.362 428.758 293.833C428.758 293.833 424.796 295.797 428.731 298.026C432.666 300.255 433.386 296.515 433.386 296.515C433.386 296.515 436.638 299.784 439.363 296.461C440.833 294.666 440.435 292.562 438.146 291.753Z" fill="#FEFFFA" stroke="#2E1E00" stroke-width="1.5" stroke-miterlimit="10" stroke-linecap="round" stroke-linejoin="round"/>
<path d="M377.827 320.25H224.864V296.959H377.827V320.25Z" fill="#FDEAA7" stroke="#2E1E00" stroke-width="1.5"/>
<path d="M173.93 194.099C173.93 194.099 179.005 200.556 185.089 196.636C191.173 192.716 184.059 188.797 184.059 188.797C184.059 188.797 188.913 185.265 186.181 181.479C183.449 177.694 178.362 181.225 178.362 181.225C178.362 181.225 175.023 172.972 169.656 177.004C164.289 181.035 170.393 185.697 170.393 185.697C170.393 185.697 164.699 190.498 167.449 193.231C170.219 195.954 173.93 194.099 173.93 194.099Z" fill="#FEFFFA" stroke="#111827" stroke-width="1.5" stroke-miterlimit="10" stroke-linecap="round" stroke-linejoin="round"/>
<path d="M508.935 229.506C508.935 229.506 516.578 234.093 521.772 228.234C522.456 227.463 522.859 226.48 522.971 225.455C523.752 218.281 518.154 218.12 518.154 218.12C518.154 218.12 522.057 211.504 516.919 208.442C511.78 205.38 507.598 212.118 507.598 212.118C507.598 212.118 500.894 205.171 495.226 211.583C490.968 219.043 500.515 221.416 500.515 221.416C500.515 221.416 496.271 229.951 500.894 231.762C505.523 233.577 508.935 229.506 508.935 229.506Z" fill="#FEFFFA" stroke="#111827" stroke-width="1.5" stroke-miterlimit="10" stroke-linecap="round" stroke-linejoin="round"/>
<path d="M115.416 263.171C115.416 263.171 121.752 266.038 126.697 262.445C129.499 260.411 130.762 256.727 129.735 253.424C129.514 252.713 129.128 251.567 128.623 251.167C128.623 251.167 132.189 239.933 124.448 236.993C113.943 234.336 115.989 245.659 115.989 245.659C115.989 245.659 107.292 238.915 104.439 246.235C101.578 253.556 111.584 255.901 111.584 255.901C111.584 255.901 105.061 261.142 108.376 264.127C111.683 267.114 115.416 263.171 115.416 263.171Z" fill="#FEFFFA" stroke="#111827" stroke-width="1.5" stroke-miterlimit="10" stroke-linecap="round" stroke-linejoin="round"/>
<path d="M454.212 181.322C454.212 181.322 450.595 177.313 445.96 178.333C443.168 178.945 440.448 181.768 441.257 185.809C441.257 185.809 434.791 191.467 439.651 197.141C445.299 202.784 448.362 193.604 448.362 193.604C448.362 193.604 452.454 201.105 456.759 196.783C461.069 192.464 454.679 187.685 454.679 187.685C454.679 187.685 460.949 185.984 459.518 182.829C458.093 179.677 454.212 181.322 454.212 181.322Z" fill="#FEFFFA" stroke="#111827" stroke-width="1.5" stroke-miterlimit="10" stroke-linecap="round" stroke-linejoin="round"/>
<path d="M467.542 271.486C467.542 271.486 465.831 275.313 468.01 278.284C469.321 280.074 472.179 281.119 474.795 279.277C474.795 279.277 480.842 282.092 483.346 276.86C485.58 271.077 478.099 271.784 478.099 271.784C478.099 271.784 482.141 266.524 477.721 264.824C473.301 263.119 471.914 269.157 471.914 269.157C471.914 269.157 468.738 265.239 466.947 267.245C465.156 269.247 467.542 271.486 467.542 271.486Z" fill="#FEFFFA" stroke="#111827" stroke-width="1.5" stroke-miterlimit="10" stroke-linecap="round" stroke-linejoin="round"/>
<path d="M515.006 156.94C514.537 159.599 511.952 161.385 509.22 160.929C506.776 160.52 505.048 158.454 505.048 156.123C504.447 156.251 503.813 156.259 503.172 156.155C500.439 155.699 498.604 153.184 499.073 150.525C499.345 148.955 500.365 147.698 501.707 147.017C501.435 146.785 501.188 146.512 500.966 146.216C499.361 144.013 499.896 140.97 502.159 139.408C504.422 137.846 507.55 138.375 509.146 140.569C509.426 140.962 509.648 141.378 509.796 141.811C510.372 139.296 512.891 137.63 515.532 138.071C518.265 138.527 520.1 141.042 519.631 143.701C519.433 144.854 518.832 145.847 517.985 146.56C520.626 147.081 522.388 149.556 521.927 152.167C521.458 154.826 518.865 156.612 516.133 156.155C515.755 156.091 515.384 155.987 515.047 155.851C515.088 156.195 515.072 156.572 515.006 156.94Z" fill="#FEFFFA" stroke="#111827" stroke-width="1.5" stroke-miterlimit="10" stroke-linecap="round" stroke-linejoin="round"/>
<path d="M63.6139 179.293C63.1856 181.721 60.8262 183.352 58.3315 182.935C56.0999 182.562 54.522 180.675 54.522 178.547C53.9734 178.664 53.3949 178.672 52.8088 178.577C50.3141 178.16 48.6385 175.864 49.0668 173.436C49.3148 172.002 50.2465 170.854 51.4713 170.233C51.2233 170.021 50.9979 169.772 50.795 169.501C49.3298 167.49 49.8182 164.712 51.8846 163.286C53.9509 161.86 56.8062 162.342 58.2639 164.346C58.5194 164.704 58.7223 165.085 58.8575 165.479C59.3835 163.183 61.6828 161.662 64.0948 162.064C66.5894 162.481 68.265 164.777 67.8367 167.205C67.6564 168.258 67.1079 169.165 66.3339 169.816C68.7459 170.291 70.3539 172.551 69.9331 174.935C69.5048 177.363 67.1379 178.993 64.6433 178.577C64.2976 178.518 63.9595 178.423 63.6514 178.299C63.689 178.613 63.674 178.957 63.6139 179.293Z" fill="#FEFFFA" stroke="#111827" stroke-width="1.5" stroke-miterlimit="10" stroke-linecap="round" stroke-linejoin="round"/>
<path d="M437.698 123.719C434.103 125.3 431.354 128.141 430.573 132.404C429.296 139.368 433.816 145.205 437.861 142.825C441.906 140.446 440.971 137.388 440.971 137.388C440.971 137.388 443.843 142.59 447.605 140.122C451.366 137.655 448.489 133.541 448.489 133.541C448.489 133.541 455.503 134.154 453.893 127.768C452.515 122.305 445.981 121.702 441.47 122.561C440.151 122.818 438.877 123.2 437.698 123.719Z" fill="#FEFFFA" stroke="#111827" stroke-width="1.5" stroke-miterlimit="10" stroke-linecap="round" stroke-linejoin="round"/>
</svg>
