<svg width="989" height="574" viewBox="0 0 989 574" fill="none" xmlns="http://www.w3.org/2000/svg">
<path d="M341.57 319.957L319.153 372.333L367.703 353.395L381.706 326.281L341.57 319.957Z" fill="#73B7EA" stroke="#2E1E00" stroke-miterlimit="10" stroke-linecap="round" stroke-linejoin="round"/>
<path d="M414.55 390.568C414.55 390.568 606.404 233.393 620.047 84.4557L620.078 83.9124C478.553 80.0787 307.63 262.251 307.63 262.251C307.63 262.251 344.796 349.571 414.55 390.568Z" fill="#ADF0E7" stroke="#2E1E00" stroke-miterlimit="10" stroke-linecap="round" stroke-linejoin="round"/>
<path d="M250.573 233.986C250.573 233.986 322.912 232.299 350.936 251.689L307.63 262.251C307.63 262.251 285.25 245.484 250.573 233.986Z" fill="#73B7EA" stroke="#2E1E00" stroke-miterlimit="10" stroke-linecap="round" stroke-linejoin="round"/>
<path d="M404.639 452.343C404.639 452.343 441.808 386.665 439.65 351.356L409.583 385.951C409.657 385.897 412.361 414.79 404.639 452.343Z" fill="#73B7EA" stroke="#2E1E00" stroke-miterlimit="10" stroke-linecap="round" stroke-linejoin="round"/>
<path d="M410.993 292.425C422.678 294.726 433.915 286.578 436.092 274.225C438.268 261.873 430.56 249.994 418.875 247.693C407.19 245.392 395.953 253.541 393.776 265.893C391.599 278.245 399.307 290.124 410.993 292.425Z" stroke="#2E1E00" stroke-miterlimit="10" stroke-linecap="round" stroke-linejoin="round"/>
<path d="M526.938 222.071C522.363 228.861 516.206 234.31 509.086 237.852C504.592 240.126 499.686 241.426 494.755 241.76C490.55 242.03 483.767 241.45 479.674 240.713C464.355 237.696 451.568 235.796 436.413 231.85C431.26 230.492 425.931 229.031 421.103 226.57C418.897 225.448 414.936 223.226 415.509 219.974C416.433 214.731 421.243 214.717 425.307 215.243C443.686 217.488 462.037 220.621 480.08 225.136C480.143 225.148 480.269 225.173 480.331 225.185C479.653 224.983 477.961 220.942 477.501 220.233C476.412 218.302 475.335 216.304 474.184 214.361C471.519 209.578 468.791 204.784 466.125 200.001C463.165 194.68 460.194 189.426 457.234 184.104L454.636 179.679L459.077 180.279L469.416 181.696C469.729 173.655 482.493 165.731 482.493 165.731L482.116 161.605L481.358 154.108C485.537 154.725 489.698 156.918 493.609 160.16C500.139 165.497 505.991 171.731 511.236 178.464C514.56 182.826 517.511 187.459 520.588 192.116C523.614 196.695 526.961 200.925 530.21 205.342L533.378 210.223C533.389 210.157 531.633 214.961 526.938 222.071Z" fill="#FFDC38" stroke="#2E1E00" stroke-miterlimit="10" stroke-linecap="round" stroke-linejoin="round"/>
<path d="M464.206 195.778L482.847 183.998" stroke="#2E1E00" stroke-miterlimit="10" stroke-linecap="round" stroke-linejoin="round"/>
<path d="M490.972 173.649L478.314 182.075C478.314 182.075 485.347 187.512 491.286 183.668C497.225 179.825 490.972 173.649 490.972 173.649Z" fill="#2E1E00" stroke="#2E1E00" stroke-miterlimit="10" stroke-linecap="round" stroke-linejoin="round"/>
<path d="M498.233 169.311L509.052 162.102C509.052 162.102 510.414 169.856 505.459 173.275C500.43 176.748 498.233 169.311 498.233 169.311Z" fill="#2E1E00" stroke="#2E1E00" stroke-miterlimit="10" stroke-linecap="round" stroke-linejoin="round"/>
<path d="M494 176.375L501.233 171.825" stroke="#2E1E00" stroke-miterlimit="10" stroke-linecap="round" stroke-linejoin="round"/>
<path d="M500.507 184.797C501.512 184.995 502.479 184.294 502.666 183.231C502.854 182.168 502.19 181.146 501.185 180.948C500.179 180.75 499.212 181.451 499.025 182.514C498.838 183.577 499.501 184.599 500.507 184.797Z" fill="#2E1E00"/>
<path d="M493.852 187.539C493.852 187.539 497.247 192.602 502.736 189.837" stroke="#2E1E00" stroke-miterlimit="10" stroke-linecap="round" stroke-linejoin="round"/>
<path d="M467.292 201.124L478.758 196.515L471.694 208.583L467.292 201.124Z" fill="#2E1E00" stroke="#2E1E00" stroke-miterlimit="10" stroke-linecap="round" stroke-linejoin="round"/>
<path d="M473.935 212.458L482.31 208.064L476.545 216.817L473.935 212.458Z" fill="#2E1E00" stroke="#2E1E00" stroke-miterlimit="10" stroke-linecap="round" stroke-linejoin="round"/>
<path d="M333.505 339.176L352.811 336.523L340.963 321.554" fill="#2E1E00"/>
<path d="M333.505 339.176L352.811 336.523L340.963 321.554" stroke="#2E1E00" stroke-miterlimit="10" stroke-linecap="round" stroke-linejoin="round"/>
<path opacity="0.4" d="M482.341 225.581C503.977 229.842 524.784 214.754 528.815 191.883C532.845 169.011 518.573 147.015 496.936 142.755C475.3 138.494 454.492 153.582 450.462 176.454C446.432 199.326 460.704 221.321 482.341 225.581Z" fill="#FEFFFA" stroke="#2E1E00" stroke-miterlimit="10" stroke-linecap="round" stroke-linejoin="round"/>
<path d="M482.341 225.581C503.977 229.842 524.784 214.754 528.815 191.883C532.845 169.011 518.573 147.015 496.936 142.755C475.3 138.494 454.492 153.582 450.462 176.454C446.432 199.326 460.704 221.321 482.341 225.581Z" stroke="#2E1E00" stroke-miterlimit="10" stroke-linecap="round" stroke-linejoin="round"/>
<path opacity="0.15" d="M645 178.5L329.5 534H903V24L721.5 245L645 178.5Z" fill="url(#paint0_linear_2732:22558)"/>
<path d="M329.5 534L638.454 189.041C643.194 183.749 651.305 183.242 656.667 187.903L713.333 237.162C718.888 241.991 727.342 241.248 731.97 235.524L903 24" stroke="#50C56E" stroke-width="5" stroke-linecap="round"/>
<path d="M888.5 26L903 24L904.5 37.5" stroke="#50C56E" stroke-width="5" stroke-linecap="round"/>
<path d="M245.645 411.108C245.4 411.587 245.037 411.936 244.524 412.021C243.854 412.207 242.929 411.963 241.831 411.403L241.359 411.133L241.29 411.682C241.168 412.622 240.886 413.909 240.027 414.761C239.362 415.403 238.465 415.663 237.407 415.572C237.063 415.518 236.766 415.441 236.482 415.328C235.737 415.032 235.339 414.545 235.13 414.215C234.515 413.189 234.62 411.831 234.79 410.869L234.906 410.298L234.332 410.441C233.544 410.621 232.388 410.697 231.456 410.121C230.501 409.495 229.972 408.338 229.915 406.628C229.851 405.409 230.236 404.409 231.022 403.651C232.521 402.23 235.165 402.17 236.236 402.225L236.438 402.223L236.572 402.07C236.718 401.881 236.899 401.706 237.151 401.559C238.667 400.557 240.796 400.703 242.278 401.909C244.288 403.572 244.437 406.183 244.397 407.237L244.405 407.446L244.57 407.553C244.934 407.903 246.484 409.26 245.645 411.108Z" fill="#FEFFFA"/>
<path d="M174.302 401.618C174.448 401.666 174.557 401.702 174.715 401.711C177.46 402.315 178.852 399.343 179.819 398.094C180.68 398.842 182.334 399.892 183.137 400.156C183.056 402.753 183.71 404.617 184.978 405.753C186.319 406.912 188.037 406.925 189.038 406.787C189.285 408.265 190.206 410.175 192.434 410.905C192.689 410.989 192.945 411.073 193.26 411.091C196.84 411.715 197.719 406.671 198.251 404.856C199.775 404.848 201.593 403.836 202.701 402.38C204.316 400.285 204.274 397.563 204.076 395.509C204.413 395.451 206.582 395.019 206.905 394.871C206.819 395.985 206.334 397.773 207.094 398.868C207.853 399.964 209.097 400.499 210.804 400.55C211.052 401.478 211.628 403.063 212.953 404.005C213.309 404.291 213.699 404.462 214.101 404.593C214.795 404.821 215.582 404.867 216.437 404.682C219.545 404.05 219.403 400.576 219.341 398.059C219.45 398.095 220.448 398.38 220.557 398.415C221.251 398.643 221.892 398.641 222.542 398.474C223.9 398.073 224.813 395.917 225.397 394.882C225.896 395.638 226.62 397.398 227.682 397.873C228.988 398.471 230.472 398.323 232.076 397.494C233.357 396.814 233.553 395.736 233.854 394.438C234.365 392.151 232.874 389.589 232.048 388.175C232.132 388.161 233.136 388.151 233.257 388.148C233.701 387.998 234.642 387.248 235.025 387.035C235.141 388.004 235.413 389.532 236.35 390.432C237.287 391.332 238.875 391.514 240.54 391.298C240.341 392.248 240.096 393.903 240.675 395.066C241.129 395.976 241.397 396.699 242.493 397.058C242.785 397.154 243.125 397.223 243.465 397.292C245.224 397.573 246.608 397.222 247.593 396.318C248.092 395.847 248.409 394.766 248.616 394.199C249.123 394.788 249.81 395.86 250.686 396.147C251.88 396.581 253.123 396.438 254.415 395.719C257.524 393.988 258.278 391.146 258.442 389.634C259.071 389.671 259.796 389.655 260.567 389.484C261.76 389.24 262.677 388.568 263.261 387.532C264.232 385.861 263.72 383.239 263.523 381.863C264.274 381.897 265.97 381.438 266.676 381.077C267.307 381.791 268.182 383.178 269.679 383.669C270.519 383.944 271.232 384.517 272.082 384.076C273.722 383.259 275.03 381.53 275.56 379.588C275.863 378.418 275.84 377.268 275.542 376.239L275.578 376.251C277.493 375.863 279.172 372.732 279.824 371.464C280.88 372.234 283.004 373.861 284.774 373.425C285.941 373.131 286.369 372.763 286.909 371.332C288.415 367.425 286.587 363.695 285.453 361.968C287.394 361.081 288.192 357.407 288.453 355.97C290.041 356.152 292.36 356.573 293.599 353.848C295.037 350.722 292.775 347.653 291.625 346.388C291.932 346.023 292.236 345.53 292.516 344.987C294.919 339.935 292.751 336.135 292.426 335.605C291.858 334.403 291.293 334.007 290.248 333.749C289.167 333.479 288.043 334.169 287.289 334.556C287.051 332.912 286.207 329.377 284.498 327.971C282.814 326.614 280.923 327.603 279.721 328.013C279.672 327.362 279.571 325.932 279.385 325.067C278.788 322.46 277.476 320.929 275.523 320.627C274.188 320.401 273.982 320.969 273.126 321.703C272.531 322.228 271.955 323.647 271.726 324.292C270.557 322.681 267.795 319.406 265.516 319.124C264.97 319.072 264.654 319.604 264.173 319.742C263.964 318.954 263.448 317.304 262.854 316.051C261.455 313.18 259.375 311.398 256.863 310.956C254.424 310.537 252.559 312.253 251.439 314.298C250.372 312.34 248.053 309.464 244.89 309.739C243.127 309.881 242.381 310.651 241.569 311.782C240.968 312.601 240.77 313.551 240.723 314.255C239.692 314.086 237.488 313.956 236.176 314.88C235.973 315.026 235.807 315.183 235.641 315.34C234.676 314.262 232.656 312.415 230.493 313.102C228.653 313.642 228.432 315.897 228.378 317.445C227.328 316.931 225.447 315.976 223.981 316.469C222.695 316.893 222.247 317.466 221.69 319.23C220.77 322.229 221.24 323.356 222.022 324.375L222.681 325.268C222.132 325.638 220.801 327.444 220.355 328.145C218.736 326.979 217.091 325.763 215.612 326.166C213.555 326.762 212.238 329.207 211.726 330.267C209.821 329.939 208.188 329.911 206.926 330.936C206.189 331.541 205.682 333.406 205.366 335.164C204.473 334.66 202.847 333.788 201.399 333.949C199.94 334.147 198.677 334.495 197.631 336.014C197.349 336.429 196.711 337.786 196.549 338.199C195.539 337.275 193.903 335.892 191.558 336.52C189.861 336.979 188.958 337.741 188.437 339.517C188.029 340.907 188.155 342.387 188.723 343.589C187.739 343.943 186.326 344.665 185.471 346.077C184.757 347.282 184.605 348.756 185.038 350.421C185.403 351.768 186.657 352.814 187.651 353.52C186.596 353.978 184.554 355.89 183.911 356.991C182.807 356.249 181.229 355.351 180.198 355.182C178.731 354.997 178.158 354.767 176.904 356.176C174.988 358.34 175.766 361.558 177.705 364.225C174.103 364.906 173.27 366.791 173.328 369.73C171.861 369.545 169.239 369.067 167.674 370.035C166.838 370.565 166.365 371.087 166.326 372.174C166.216 375.142 167.736 376.783 169.118 377.532C168.447 378.455 167.642 379.969 167.796 381.627C167.904 382.763 169.059 384.284 170.043 385.157C168.05 386.492 165.08 388.566 165.911 392.012C166.755 395.547 169.713 396.517 171.698 396.575C171.528 398.381 172.074 400.888 174.302 401.618Z" fill="#FEFFFA"/>
<path d="M219.918 450.13C220.429 450.297 220.436 450.681 221.052 450.628C222.259 450.474 223.263 449.915 223.957 448.915C225.051 447.369 225.266 444.181 225.212 442.725C226.176 443.125 227.458 444.35 228.693 443.823C229.844 443.312 230.571 442.196 230.912 440.489C231.779 436.033 228.076 432.28 226.269 430.799C227.266 429.856 227.694 428.262 227.53 426.092C227.53 426.092 227.541 426.053 227.505 426.041C227.798 425.587 228.923 423.798 228.562 422.029C228.386 421.125 227.803 420.384 226.899 419.918C224.478 418.617 222.378 420.044 221.289 420.618C220.249 419.389 217.256 416.08 214.766 416.11C213.762 416.12 213.37 416.499 212.711 417.383C212.062 418.228 211.953 419.42 211.85 420.317C210.098 419.193 207.484 417.87 205.328 417.714C201.924 417.444 200.128 420.156 198.852 422.869L198.818 422.985C198.691 423.282 198.473 423.887 198.334 424.223C196.9 423.245 195.336 422.436 194.024 422.133C191.922 421.655 190.356 421.946 189.386 423.067C188.262 424.306 188.228 426.877 188.375 428.152C187.501 427.992 186.327 427.354 185.361 428.053C184.337 428.817 183.892 430.195 184.004 432.136C184.077 433.387 184.426 434.517 185.062 435.487C183.489 436.072 180.625 437.376 179.482 439.498C178.946 440.507 178.834 441.57 179.146 442.688C180.249 446.435 182.751 447.594 183.931 447.939C183.954 449.089 184.208 451.499 185.669 453.205C186.3 453.92 187.035 454.415 187.912 454.702C188.532 454.906 189.187 454.994 189.901 455.016C194.183 455.023 195.657 450.132 196.484 447.314C197.702 448.348 199.728 449.901 200.994 449.681C202.091 449.491 203.308 448.07 203.888 447.456C204.537 449.065 205.412 451.68 207.128 452.242C207.749 452.446 208.463 452.468 209.27 452.31C211.652 451.694 213.216 450.049 214.021 447.985C214.505 446.747 214.472 445.086 214.12 443.828C214.64 443.829 216.679 443.567 217.075 443.443C217.19 444.961 217.201 447.927 218.73 449.402C219.182 449.635 219.443 449.974 219.918 450.13Z" fill="#FEFFFA"/>
<path d="M157.149 363.749C157.465 364.445 157.995 364.957 158.787 365.259C158.824 365.271 158.86 365.283 158.897 365.295C159.7 365.559 160.437 365.504 161.095 365.17C161.621 364.877 162.203 363.713 162.485 363.298C162.979 363.798 163.499 365.027 164.407 365.07C165.351 365.126 166.213 364.647 166.954 363.62C168.933 360.968 167.377 357.538 164.914 355.292C164.31 354.755 163.684 354.296 163.036 353.915C160.773 352.623 158.437 352.534 156.295 353.694C154.058 354.907 152.518 357.153 152.632 359.221C152.669 360.461 153.316 361.392 154.378 361.867C155.451 362.304 156.756 361.674 157.406 361.506C157.307 361.981 156.944 363.216 157.149 363.749Z" fill="#FEFFFA"/>
<path d="M180.898 342.97C181.302 342.002 181.184 340.906 180.593 339.781C178.983 336.672 175.558 337.157 173.735 337.913C173.173 337.645 171.895 337.226 170.635 337.701C169.602 338.082 168.833 338.93 168.291 340.234C167.598 341.911 167.973 343.092 168.41 343.785C169.334 345.273 171.219 345.806 172.419 345.946C172.423 346.751 172.606 348.038 173.361 348.878C173.571 349.116 173.902 349.352 174.34 349.495C174.633 349.591 175.02 349.634 175.431 349.599C176.252 349.53 176.922 349.157 177.429 348.519C178.148 347.57 178.218 346.239 178.192 345.511C178.934 345.162 180.322 344.389 180.898 342.97Z" fill="#FEFFFA"/>
<path d="M170.186 456.72C169.193 456.014 168.156 455.589 167.718 455.446C166.824 454.264 164.542 452.627 161.57 454.023C160.276 454.614 159.847 455.531 159.739 456.173C159.457 457.816 160.676 459.527 161.332 460.292C160.996 461.029 160.493 462.472 160.799 463.884C161.036 464.85 161.571 465.618 162.453 466.161C162.759 466.346 163.076 466.492 163.369 466.588C163.989 466.792 164.594 466.778 165.17 466.586C166.239 466.218 166.97 465.23 167.32 464.583C168.109 464.757 169.54 464.93 170.722 464.175C171.606 463.618 172.181 462.749 172.423 461.516C172.786 459.731 172.003 458.035 170.186 456.72Z" fill="#FEFFFA"/>
<path d="M202.817 318.883C203.445 319.47 204.235 319.644 204.864 319.681C204.805 320.973 205.238 322.639 206.954 323.201C208.78 323.8 210.121 322.504 210.798 321.288C212.239 321.971 214.521 322.381 216.138 320.414C217.001 319.385 217.053 318.387 216.968 317.724C216.799 316.526 215.994 315.585 215.427 315.061C215.625 314.66 215.856 314.144 215.99 313.553C216.451 311.842 216.036 310.394 214.845 309.538C213.459 308.533 212.048 308.156 210.639 308.456C208.761 308.855 207.448 310.329 206.929 311.005C205.141 311.096 202.21 312.082 201.879 315.528C201.752 317.053 202.065 318.171 202.817 318.883Z" fill="#FEFFFA"/>
<path d="M193.288 295.278C193.476 296.82 194.379 299.063 196.79 299.853C196.972 299.913 197.155 299.973 197.312 299.982C198.698 300.309 199.607 299.803 200.13 299.382C201.248 298.437 201.578 296.768 201.681 295.871C202.595 295.62 204.359 294.929 204.981 293.355C205.419 292.272 205.261 291.035 204.449 289.711C202.322 286.179 198.051 286.683 195.831 287.563C194.306 286.894 191.505 286.483 190.088 288.854C189.434 289.994 189.313 291.224 189.82 292.363C190.539 293.868 192.01 294.858 193.288 295.278Z" fill="#FEFFFA"/>
<path d="M170.656 309.652C170.197 310.263 169.672 311.234 169.683 312.422C169.709 313.7 170.325 314.875 171.543 315.909C172.059 316.333 172.598 316.678 173.109 316.846C173.73 317.05 174.323 317.075 174.9 316.883C176.163 316.535 176.921 314.499 177.411 313.644C178.122 314.088 179.333 315.416 180.309 315.229C180.948 315.099 181.497 314.729 181.883 314.094C182.82 312.539 181.628 311.006 180.86 310.077C181.925 308.903 183.475 307.168 182.418 305.721C181.162 303.998 177.804 304.801 176.493 305.176C175.769 304.642 173.994 303.595 172.428 303.885C171.621 304.044 170.965 304.506 170.508 305.245C169.899 306.23 169.689 307.219 169.889 308.173C170.071 308.783 170.37 309.262 170.656 309.652Z" fill="#FEFFFA"/>
<path d="M142.248 377.696L142.212 377.684C142.066 377.636 139.111 376.244 137.004 377.288C136.117 377.717 135.528 378.497 135.2 379.617C134.851 380.941 135.099 381.869 135.685 382.738C136.296 383.658 137.859 383.789 138.527 383.966C138.399 384.813 138.058 386.52 138.646 387.517C138.971 388.047 139.007 388.609 139.554 388.788C139.664 388.824 139.737 388.848 139.847 388.884C141.547 389.23 144.09 386.974 144.981 384.347C145.942 381.615 144.927 379.208 142.248 377.696Z" fill="#FEFFFA"/>
<path d="M157.786 399.377C158.009 398.477 158.806 396.58 158.302 395.569C158.062 395.024 157.607 394.664 157.096 394.496C155.405 393.984 154.191 394.983 153.61 395.596C153.61 395.596 153.61 395.596 153.574 395.584C151.894 395.034 149.075 394.956 147.643 397.787C147.051 398.99 146.961 399.976 147.401 400.797C147.902 401.681 149.46 401.557 150.224 401.68C149.912 403.017 149.438 405.316 151.148 406.173C151.283 406.259 151.429 406.307 151.575 406.355C153.182 406.882 154.478 405.741 155.194 404.664C155.966 405.171 157.286 405.857 158.537 405.548C159.139 405.407 159.952 404.954 160.531 403.663C161.017 402.553 161.022 401.581 160.594 400.721C160.053 399.698 158.516 399.617 157.786 399.377Z" fill="#FEFFFA"/>
<path d="M137.139 429.637C136.734 429.927 136.274 430.538 136.272 431.638C136.276 432.443 136.555 433.127 137.074 433.678C138.123 434.742 139.869 434.933 140.631 434.929C141.054 435.533 141.781 436.194 142.584 436.458C143.168 436.649 143.809 436.648 144.468 436.314C145.498 435.805 146.065 434.552 146.001 433.135C145.939 431.845 145.396 430.693 144.526 430.112C144.597 429.458 144.625 428.409 144.076 427.552C143.801 427.124 143.271 426.611 142.228 426.481C141.174 426.389 140.577 426.786 140.259 427.19C139.774 427.75 139.797 428.9 139.821 429.501C139.082 429.428 137.865 429.071 137.139 429.637Z" fill="#FEFFFA"/>
<path d="M223.577 298.605C222.906 299.528 221.165 301.369 221.31 303.194C221.42 304.457 222.058 305.555 223.212 306.399C223.74 306.783 224.217 307.067 224.728 307.234C225.459 307.474 226.136 307.484 226.808 307.239C227.973 306.817 228.688 305.063 229.142 304.196C230.127 305.069 231.94 306.806 234.347 306.241C235.936 305.873 236.965 304.687 237.151 303.097C237.323 301.419 236.053 299.606 234.689 298.524C235.476 297.343 237.207 294.991 236.936 292.913C236.795 291.893 236.282 291.048 235.412 290.467C232.751 288.621 229.804 290.067 228.258 291.38C226.374 290.297 223.101 289.309 221.291 291.931C220.679 292.789 220.469 293.778 220.611 294.797C220.801 296.468 222.763 297.831 223.577 298.605Z" fill="#FEFFFA"/>
<path d="M171.954 419.172C173.025 419.48 174.015 419.382 174.839 418.89C175.616 418.426 176.049 417.086 176.351 416.466C176.954 417.002 177.885 418.196 178.791 418.112C179.249 418.051 179.921 417.806 180.41 416.823C181.327 414.924 180.56 413.445 179.637 412.634C180.285 411.789 181.236 410.323 181.05 408.908C180.978 408.335 180.671 407.472 179.691 406.855C177.083 405.238 173.997 406.342 173.122 406.732C172.709 406.639 171.883 406.453 170.952 406.487C169.127 406.566 167.85 407.374 167.225 408.82C166.765 409.98 166.951 410.846 167.24 411.363C167.794 412.476 169.514 412.617 170.317 412.88C170.06 413.896 169.282 416.138 169.926 417.491C170.329 418.3 170.957 418.887 171.834 419.175L171.943 419.21L171.954 419.172Z" fill="#FEFFFA"/>
<path d="M193.898 321.037C194.316 320.158 195.305 318.832 195.043 317.815C194.873 317.167 194.416 316.679 193.77 316.425C191.562 315.489 189.058 317.885 188.193 318.786C186.532 318.58 183.819 318.96 183.054 321.841C182.716 323.127 182.835 324.224 183.409 325.131C184.208 326.366 185.82 327.149 188.355 327.514C188.758 328.323 189.747 330.002 191.5 330.576C191.901 330.708 192.362 330.775 192.846 330.764C194.055 330.737 194.66 330.174 194.954 329.72C195.47 328.916 195.461 327.855 195.325 327.091C195.879 326.976 196.599 326.704 197.095 326.105C197.461 325.675 197.856 324.874 197.674 323.587C197.546 322.656 197.084 321.912 196.421 321.441C195.821 321.033 194.528 321.074 193.898 321.037Z" fill="#FEFFFA"/>
<path d="M194.946 466.614C195.268 467.016 195.698 467.326 196.209 467.494C196.83 467.697 197.592 467.693 198.337 467.472C199.575 467.074 200.298 465.703 200.64 464.672C201.267 464.582 202.422 464.875 203.084 464.119C203.402 463.716 203.764 463.03 203.608 461.921C203.453 460.813 202.923 460.3 202.482 460.029C201.834 459.647 200.761 460.438 200.171 460.541C200.094 459.711 200.168 457.958 199.441 457.297C199.059 456.96 198.363 456.605 197.328 456.858C196.594 457.041 195.974 457.515 195.624 458.162C194.865 459.521 195.727 461.496 195.888 462.311C195.147 463.337 193.755 465.081 194.946 466.614Z" fill="#FEFFFA"/>
<path d="M134.634 472.699C133.611 474.141 130.951 474.2 129.995 474.183C129.508 474.616 128.294 475.614 126.866 475.569C126.588 475.563 126.321 475.518 126.066 475.434C125.481 475.242 124.917 474.846 124.446 474.268C123.851 473.565 123.654 472.739 123.782 471.892C124.05 470.16 126.004 468.685 126.899 468.09C126.681 467.468 126.275 466.531 126.645 465.679C126.866 465.201 127.314 464.629 128.349 464.376C129.42 464.134 130.128 464.451 130.558 464.761C131.282 465.295 131.589 466.157 131.745 466.716C132.501 467.006 134.031 467.931 134.88 470.495C135.252 471.547 134.964 472.257 134.634 472.699Z" fill="#FEFFFA"/>
<path d="M196.538 493.119C196.641 492.222 196.823 489.827 194.98 487.785C194.189 486.933 193.3 487.234 192.794 487.322C191.059 487.642 190.185 490.486 189.792 491.416C189.193 491.685 187.665 492.115 187.052 493.522C186.66 494.451 186.419 495.134 186.839 496.16C187.183 497.035 187.8 497.66 188.567 497.912C190.21 498.45 192.281 497.394 193.249 496.823C193.707 497.312 194.445 497.934 195.353 497.978C195.861 498.018 196.595 497.835 197.303 496.925C198.022 495.975 198.066 495.144 197.994 494.57C197.844 493.717 196.945 493.507 196.538 493.119Z" fill="#FEFFFA"/>
<path d="M223.739 502.333C223.092 501.401 221.495 501.385 220.596 501.175C220.713 500.367 220.935 498.79 220.336 497.832C219.812 497.025 218.933 496.61 217.794 496.533C216.451 496.473 215.676 497.066 215.287 497.573C214.45 498.653 214.68 500.463 214.759 501.42C213.409 501.655 211.438 502.236 211.383 504.333C211.35 506.354 213.19 507.042 214.502 507.345C214.276 508.117 213.795 509.483 214.333 510.379C214.633 510.858 215.026 511.156 215.61 511.347C216.012 511.479 216.473 511.546 217.004 511.508C220.122 511.388 220.966 508.237 221.268 506.389C222.061 506.141 223.796 505.821 224.11 503.935C224.195 503.371 224.075 502.824 223.739 502.333Z" fill="#FEFFFA"/>
<path d="M333.376 462.285C332.515 463.644 331.485 464.435 330.313 464.584C329.437 464.686 328.685 464.423 328.205 464.186L327.654 463.92L327.42 464.492C327.049 465.467 326.378 466.737 325.174 467.332C325.032 467.399 324.841 467.488 324.615 467.563L324.081 467.721L324.249 468.29C324.64 469.616 325.131 472.067 323.772 473.474C322.546 474.727 320.879 474.091 320 473.609L319.228 473.17L319.166 474.062C319.112 475.166 318.838 476.68 317.877 477.624C317.036 478.45 315.839 478.672 314.286 478.291C313.839 478.192 313.439 478.072 313.052 477.914C311.643 477.342 310.678 476.408 310.25 475.191L310.014 474.47L309.43 474.775C308.846 475.079 308.216 475.282 307.566 475.309L306.998 475.329L307.035 475.928C307.205 477.789 306.826 479.261 305.9 480.219C304.541 481.626 302.367 481.66 301.505 481.602L301.081 481.554L300.944 481.957C300.36 483.679 299.335 484.93 298.073 485.46C297.383 485.722 296.257 485.973 294.801 485.423L294.062 485.122L294.059 485.955C294.068 486.876 293.904 488.185 293.164 489.302C292.39 490.404 291.222 491.014 289.635 491.203C289.256 491.257 288.832 491.21 288.455 491.14L287.653 491.023L287.817 491.84C288.067 493.109 288.049 494.936 286.593 496.512C285.569 497.639 284.097 498.082 282.591 497.679C281.415 497.368 280.352 496.602 279.719 495.636L279.35 495.069L278.882 495.504C278.174 496.175 277.014 496.997 275.643 497.023C274.472 497.048 273.335 496.502 272.302 495.415C271.443 494.524 270.987 493.505 270.898 492.468L270.799 491.344L269.972 492.009C268.93 492.836 267.943 493.268 267.056 493.283L266.489 493.303L266.526 493.902C266.611 495.187 266.462 496.335 266.116 497.237C265.658 498.468 264.628 499.259 263.098 499.638C260.084 500.373 258.515 498.15 257.697 496.192L257.367 495.391L256.767 495.981C255.938 496.77 254.288 497.975 252.281 497.16C252.034 497.059 251.8 496.923 251.531 496.771L250.97 496.418L250.723 497.027C250.241 498.332 249.139 500.635 247.544 501.321C246.807 501.605 246.051 501.59 245.291 501.114C242.832 499.74 242.513 497.609 242.532 496.491L242.532 495.783L241.869 495.847C240.863 495.98 239.399 495.927 238.278 495.096C237.52 494.496 237.003 493.66 236.798 492.493L236.657 491.727L236.013 492.091C235.118 492.603 232.761 493.646 230.578 492.759C229.98 492.516 229.454 492.177 228.99 491.655C226.364 489.003 227.658 485.777 228.122 484.882L228.379 484.361L227.876 484.073C226.869 483.497 224.639 481.924 225.378 479.389C226.116 476.979 228.74 476.211 230.256 475.993L230.801 475.923L230.716 475.346C230.532 474.354 230.536 473.397 230.704 472.548L230.77 472.116L230.407 471.886C228.394 470.734 227.247 469.392 227.013 467.838C226.767 466.32 227.428 464.963 228.032 464.125L228.347 463.669L227.952 463.3C227.219 462.627 225.595 460.8 226.575 458.029C227.644 454.878 232.355 455.751 233.768 456.075L234.18 456.159L234.387 455.784C235.046 454.551 236.133 453.826 237.661 453.571C240.031 453.2 242.792 454.155 244.179 455.261L244.622 455.608L244.972 455.167C245.13 454.939 245.37 454.703 245.633 454.518L246.387 453.949L245.532 453.518C244.734 453.152 243.695 452.438 243.229 451.331C242.786 450.276 242.912 449.076 243.585 447.682L243.792 447.308L243.502 446.981C242.945 446.38 241.997 445.16 241.856 443.686C241.732 442.635 242.08 441.609 242.805 440.653C244.76 438.195 247.864 439.791 249.115 440.591L249.84 441.052L249.938 440.174C250.045 439.384 250.292 438.776 250.737 438.29C251.603 437.391 252.941 437.226 253.898 437.239L254.807 437.275L254.384 436.395C254.088 435.733 253.703 434.742 253.827 433.667C253.944 432.38 254.683 431.263 255.998 430.339C257.003 429.621 258.069 429.429 259.115 429.771C261.066 430.397 262.528 432.701 263.251 433.995L263.653 434.7L264.231 434.059C264.291 434 264.303 433.964 264.363 433.905C264.663 433.61 264.951 433.352 265.345 433.136L266.014 432.7L265.349 432.179C264.755 431.688 263.953 430.862 263.701 429.717C263.471 428.623 263.763 427.407 264.67 426.15L265.13 425.503L264.378 425.239C263.626 424.975 262.595 424.473 262.032 423.535C261.468 422.597 261.429 421.414 261.901 420.022C262.423 418.483 263.279 417.496 264.325 417.129C264.824 416.957 265.356 416.923 265.922 417.028L266.793 417.174L266.537 416.277C266.29 415.468 266.197 414.68 266.315 413.978C266.487 412.88 267.129 411.932 268.204 411.243C270.857 409.445 273.339 410.161 274.581 410.75L275.062 410.987L275.271 410.488C275.505 409.916 275.857 409.35 276.327 408.791C277.002 407.982 277.825 407.565 278.794 407.542C280.484 407.52 282.211 408.806 283.073 409.573L283.632 410.05L283.938 409.383C284.233 408.752 284.655 408.215 285.181 407.845L285.504 407.601L285.405 407.185C285.013 405.859 284.276 402.599 286.143 401.232C287.47 400.27 289.33 399.984 291.012 400.459C292 400.735 292.83 401.239 293.455 401.994L293.884 402.502L294.307 401.965L294.319 401.928C295.417 400.581 297.616 400.475 298.845 400.515L299.47 400.561L299.41 399.911C299.3 398.699 299.278 396.522 300.373 395.3C301.024 394.563 302.01 394.255 303.258 394.471C306.877 395.024 308.937 398.28 309.828 400.142L310.136 400.768L310.675 400.362C312.182 399.223 314.686 399.991 315.72 400.369L316.213 400.569L316.422 400.071C316.815 399.147 318.033 396.973 320.877 397.212C323.791 397.479 325.129 400.858 325.553 402.322L325.698 402.84L326.208 402.755C326.634 402.678 327.131 402.63 327.639 402.67C332.69 403.013 334.601 406.708 334.784 407.116L334.806 407.167C335.393 408.156 335.602 409.074 335.374 409.982C335.121 410.964 334.4 411.671 333.862 412.078L333.263 412.543L333.858 413.035C334.976 413.99 336.906 415.858 337.215 417.901C337.467 419.755 336.427 421.167 335.539 422.015L334.963 422.531L335.617 422.964C336.038 423.26 336.68 423.729 337.32 424.323C338.993 426.003 339.579 427.701 338.972 429.372C338.574 430.544 337.924 431.281 337.009 431.617C336.497 431.826 335.882 431.868 335.246 431.735L334.269 431.546L334.666 432.5C335.29 434.087 336.257 437.023 335.442 439.069C335.258 439.494 335.003 439.891 334.703 440.186L334.283 440.599L334.701 441.019C335.235 441.57 335.989 442.418 336.691 443.537C338.279 446.059 338.733 448.619 337.937 450.964C337.204 453.126 335.624 454.36 333.663 454.355L332.706 454.341L333.211 455.214C334.06 456.726 335.112 459.53 333.376 462.285Z" fill="#FEFFFA"/>
<path d="M305.789 503.006L305.61 503.059L305.548 503.241C305.289 503.885 303.861 507.131 300.75 506.247C300.561 506.212 300.385 506.141 300.208 506.07C299.326 505.713 298.708 505.172 298.33 504.396C297.688 503.098 297.838 501.247 298.767 498.755L298.829 498.573L298.726 498.406C298.161 497.471 296.922 495.1 298.179 492.824C298.717 491.836 299.395 491.612 299.846 491.586C300.178 491.554 300.508 491.646 300.825 491.774C301.284 491.96 301.705 492.255 302.008 492.543L302.288 492.781L302.506 492.495C302.832 492.128 303.361 491.636 304.063 491.462C304.538 491.363 305.331 491.393 306.23 492.172C306.883 492.727 307.251 493.416 307.309 494.187C307.346 494.784 307.241 495.448 306.886 496.136L306.629 496.655L307.208 496.723C308.449 496.85 309.379 497.185 309.879 497.719C310.263 498.124 310.431 498.691 310.338 499.318C310.097 501.672 306.764 502.735 305.789 503.006Z" fill="#FEFFFA"/>
<path d="M279.215 514.25C279.182 514.819 278.92 516.294 277.888 517.207C277.07 517.958 275.977 518.223 274.596 518.038C273.215 517.853 272.232 517.205 271.705 516.16C270.8 514.338 271.597 511.998 271.833 511.303L271.945 510.974L271.688 510.787C271.055 510.406 270.016 509.569 269.68 508.435C269.523 507.955 269.5 507.197 270.047 506.295C270.485 505.599 271.107 505.185 271.866 505.077C272.494 504.998 273.131 505.131 273.695 505.36C274.154 505.545 274.517 505.775 274.786 505.926L275.021 506.063L275.236 505.9C275.908 505.34 277.261 504.432 278.69 504.595C279.681 504.746 280.511 505.374 281.179 506.476C283.423 510.255 279.748 513.509 279.352 513.848L279.244 513.929L279.215 514.25Z" fill="#FEFFFA"/>
<path d="M216.425 487.959C217.926 488.028 219.204 487.22 220.065 485.513C220.52 484.646 220.732 483.785 220.82 483.349C221.533 482.693 223.832 480.316 223.611 477.112C223.526 475.899 222.957 475.247 222.491 474.925C221.363 474.132 219.698 474.348 218.711 474.574C218.421 473.379 217.522 471.942 215.503 471.999C214.463 471.997 213.953 472.507 213.671 472.922C213.203 473.7 213.61 475.314 213.819 476.102C213.167 476.142 211.998 475.759 211.283 476.286C210.472 476.867 209.981 477.722 209.762 478.877C209.589 479.878 209.764 480.782 210.311 481.511C211.194 482.732 213.436 483.001 214.409 483.235C214.269 484.121 213.625 485.771 214.322 486.804C214.572 487.182 214.979 487.569 215.636 487.785C215.844 487.895 216.111 487.941 216.425 487.959Z" fill="#FEFFFA"/>
<path d="M356.079 463.383C355.672 464.34 355.074 464.68 354.611 464.742C353.922 464.879 353.18 464.58 352.711 464.307L352.348 464.078L352.211 464.479C351.914 465.231 351.424 466.196 350.577 466.56C350.242 466.716 349.684 466.822 348.978 466.537C348.836 466.481 348.66 466.409 348.531 466.316C347.862 465.921 347.422 465.328 347.233 464.588C346.832 463.056 347.608 461.252 347.976 460.528L348.073 460.36L348.005 460.208C347.811 459.715 346.893 457.227 348.679 455.996C349.41 455.502 350.346 455.465 351.264 455.835C351.547 455.949 351.817 456.1 352.074 456.287C353.152 457.012 353.821 458.112 353.933 459.196L353.929 459.443L354.141 459.529C354.67 459.742 355.645 460.302 356.056 461.215C356.332 461.7 356.486 462.426 356.079 463.383Z" fill="#FEFFFA"/>
<path d="M340.211 479.814C339.098 481.19 336.135 481.034 335.283 480.94L335.129 480.919L335.021 481C334.516 481.419 333.197 482.338 331.729 482.162C330.829 482.09 330.008 481.553 329.347 480.665C328.789 479.943 328.589 479.116 328.78 478.323C329.154 476.525 331.157 475.134 332.02 474.611L332.271 474.463L332.169 474.173C332.036 473.622 331.815 472.622 332.22 471.79C332.441 471.381 332.9 470.861 333.922 470.692C334.552 470.614 335.049 470.69 335.438 470.846C335.721 470.96 335.92 471.082 336.072 471.226C336.762 471.794 337.033 472.649 337.153 473.236L337.21 473.424L337.386 473.496C338.222 473.873 339.711 474.928 340.543 477.668C340.718 478.567 340.635 479.28 340.211 479.814Z" fill="#FEFFFA"/>
<path d="M307.435 525.699C307.505 526.432 307.558 528.279 306.711 529.348C306.299 529.846 305.761 530.127 305.109 530.154C304.207 530.206 303.488 529.958 302.904 529.432C302.601 529.144 302.335 528.746 302.2 528.318L302.098 528.028L301.801 528.075C301.207 528.167 300.33 528.146 299.567 527.672C298.747 527.134 298.181 526.201 297.967 524.828C297.786 523.594 297.991 522.639 298.619 521.98C299.366 521.202 300.472 521.025 301.278 521.018L301.645 521.001L301.652 520.63C301.651 519.924 301.751 518.927 302.212 518.283C302.515 517.866 302.945 517.666 303.467 517.669C304.973 517.612 305.64 518.835 305.912 519.567L306.037 519.908L306.347 519.825C307.132 519.644 309.033 519.373 309.625 520.815C310.286 522.409 308.184 524.798 307.545 525.494L307.424 525.611L307.435 525.699Z" fill="#FEFFFA"/>
<path d="M341.474 520.957C341.42 521.353 340.946 525.005 338.091 525.052C337.005 525.069 336.081 524.608 335.436 523.676C334.549 522.395 334.496 520.659 334.763 519.514L334.802 519.28L334.616 519.12C333.987 518.613 331.932 516.646 332.832 513.628C333.206 512.401 333.899 511.89 334.457 511.658C335.466 511.275 336.641 511.587 337.414 511.903C337.519 511.946 337.625 511.989 337.73 512.032L337.976 512.132L338.156 511.955C338.781 511.29 340.026 510.21 341.415 510.359C342.381 510.461 343.183 511.164 343.834 512.433C345.982 516.611 342.063 520.278 341.608 520.678L341.501 520.759L341.474 520.957Z" fill="#FEFFFA"/>
<path d="M279.462 328.351C279.462 328.351 279.861 321.669 275.882 321.042C271.903 320.414 271.762 324.853 271.762 324.853C271.762 324.853 266.849 316.218 262.696 320.824C258.542 325.429 263.981 330.089 266.679 330.17C266.679 330.17 264.175 338.024 269.262 338.422C274.313 338.808 273.417 335.722 273.417 335.722C273.417 335.722 274.768 340.396 278.25 339.718C278.25 339.718 277.676 337.033 280.318 337.307C280.27 337.333 275.518 332.517 279.462 328.351Z" stroke="#2E1E00" stroke-width="1.5" stroke-miterlimit="10" stroke-linecap="round" stroke-linejoin="round"/>
<path d="M279.462 328.351C279.462 328.351 282.448 326.495 284.674 328.325C286.899 330.154 287.103 334.918 287.103 334.918C287.103 334.918 290.724 332.128 292.515 335.846C292.515 335.846 294.995 339.537 292.604 344.55C290.212 349.564 286.926 344.255 286.926 344.255C286.926 344.255 279.326 347.646 278.238 339.756" stroke="#2E1E00" stroke-width="1.5" stroke-miterlimit="10" stroke-linecap="round" stroke-linejoin="round"/>
<path d="M266.967 337.374C266.967 337.374 263.712 338.507 263.11 342.88C262.508 347.253 267.5 347.154 267.5 347.154C267.5 347.154 262.131 349.626 265.292 354.682C268.441 359.777 272.025 358.751 272.025 358.751C272.025 358.751 276.167 355.412 279.742 358.235C279.742 358.235 279.404 353.384 281.776 353.485C281.776 353.485 275.482 349.559 279.417 343.105" stroke="#2E1E00" stroke-width="1.5" stroke-miterlimit="10" stroke-linecap="round" stroke-linejoin="round"/>
<path d="M263.706 319.97C263.706 319.97 262.573 312.235 256.893 311.262C251.225 310.25 249.366 317.681 253.134 321.075C253.134 321.075 247.687 323.267 250.144 328.812C252.6 334.357 257.231 330.035 257.231 330.035C257.231 330.035 262.025 336.346 264.695 329.562" stroke="#2E1E00" stroke-width="1.5" stroke-miterlimit="10" stroke-linecap="round" stroke-linejoin="round"/>
<path d="M263.586 345.49C263.586 345.49 254.977 349.862 253.792 340.121C253.792 340.121 243.467 337.244 250.558 329.582" stroke="#2E1E00" stroke-width="1.5" stroke-miterlimit="10" stroke-linecap="round" stroke-linejoin="round"/>
<path d="M291.259 346.268C291.259 346.268 295.299 349.962 293.701 353.501C292.102 357.039 288.416 355.958 288.416 355.958C288.416 355.958 287.387 366.835 279.728 358.145" stroke="#2E1E00" stroke-width="1.5" stroke-miterlimit="10" stroke-linecap="round" stroke-linejoin="round"/>
<path d="M270.27 358.726C270.27 358.726 267.754 364.165 273.646 365.504C273.646 365.504 268.555 369.759 272.734 374.345C276.913 378.931 279.765 371.53 279.765 371.53C279.765 371.53 284.95 376.234 286.872 371.32C288.768 366.356 284.767 361.574 284.767 361.574" stroke="#2E1E00" stroke-width="1.5" stroke-miterlimit="10" stroke-linecap="round" stroke-linejoin="round"/>
<path d="M249.633 337.785C249.633 337.785 245.625 344.215 241.172 338.651C241.172 338.651 235.369 340.557 234.533 335.628C233.708 330.66 238.132 324.451 238.132 324.451C238.132 324.451 239.778 326.345 242.522 325.044C242.522 325.044 242.255 332.912 248.327 332.956" stroke="#2E1E00" stroke-width="1.5" stroke-miterlimit="10" stroke-linecap="round" stroke-linejoin="round"/>
<path d="M259.747 346.432C259.747 346.432 259.138 356.558 252.226 352.007C252.226 352.007 248.109 355.397 245.002 349.343C242.964 345.374 245.244 340.874 245.244 340.874" stroke="#2E1E00" stroke-width="1.5" stroke-miterlimit="10" stroke-linecap="round" stroke-linejoin="round"/>
<path d="M251.322 315.106C251.322 315.106 249.737 309.593 244.932 310.007C240.127 310.42 240.815 314.624 240.815 314.624C240.815 314.624 235.314 312.905 234.808 318.452C234.415 322.386 238.132 324.451 238.132 324.451" stroke="#2E1E00" stroke-width="1.5" stroke-miterlimit="10" stroke-linecap="round" stroke-linejoin="round"/>
<path d="M256.863 352.85C256.863 352.85 254.687 358.357 258.682 362.206C262.677 366.055 269.911 362.544 269.911 362.544" stroke="#2E1E00" stroke-width="1.5" stroke-miterlimit="10" stroke-linecap="round" stroke-linejoin="round"/>
<path d="M235.536 316.109C235.536 316.109 233.047 312.585 230.498 313.358C227.95 314.13 228.644 318.04 228.644 318.04C228.644 318.04 223.326 313.926 221.565 319.655C219.805 325.383 224.361 327.046 227.93 326.48C227.93 326.48 228.155 330.49 234.891 331.132" stroke="#2E1E00" stroke-width="1.5" stroke-miterlimit="10" stroke-linecap="round" stroke-linejoin="round"/>
<path d="M234.545 335.589C234.545 335.589 229.679 335.39 229.365 339.054C229.051 342.717 232.008 344.237 232.008 344.237C232.008 344.237 226.904 349.08 233.469 353.856C233.469 353.856 237.813 356.38 239.88 352.064C240.484 350.824 241.296 349.693 242.405 348.914C243.168 348.36 243.911 348.012 244.233 348.413" stroke="#2E1E00" stroke-width="1.5" stroke-miterlimit="10" stroke-linecap="round" stroke-linejoin="round"/>
<path d="M239.33 352.984C239.33 352.984 237.45 359.393 244.774 361.582C244.774 361.582 248.22 359.115 249.338 361.851C249.338 361.851 251.868 355.275 256.9 359.548" stroke="#2E1E00" stroke-width="1.5" stroke-miterlimit="10" stroke-linecap="round" stroke-linejoin="round"/>
<path d="M263.555 364.015C263.555 364.015 261.904 368.552 266.183 370.886C266.183 370.886 260.173 372.132 260.388 376.857C260.64 381.594 264.337 382.637 266.592 381.091C266.592 381.091 269.67 385.063 272.22 383.74C274.77 382.418 276.591 378.529 274.854 375.717" stroke="#2E1E00" stroke-width="1.5" stroke-miterlimit="10" stroke-linecap="round" stroke-linejoin="round"/>
<path d="M244.773 361.582C244.773 361.582 241.028 364.798 245.5 370.157C248.512 373.81 251.12 372.973 252.443 372.01C253.696 371.151 255.175 370.747 256.631 370.971C258.148 371.256 259.858 372.113 260.835 374.38" stroke="#2E1E00" stroke-width="1.5" stroke-miterlimit="10" stroke-linecap="round" stroke-linejoin="round"/>
<path d="M223.06 325.476C223.06 325.476 219.394 326.645 219.973 330.812C220.552 334.98 222.444 338.901 229.413 340.254" stroke="#2E1E00" stroke-width="1.5" stroke-miterlimit="10" stroke-linecap="round" stroke-linejoin="round"/>
<path d="M233.506 353.868C233.506 353.868 227.856 356.206 229.155 361.329C230.48 366.503 234.522 365.415 234.522 365.415C234.522 365.415 228.428 370.358 232.651 372.885C236.837 375.4 238.018 369.735 238.018 369.735C238.018 369.735 241.416 376.985 245.574 370.181" stroke="#2E1E00" stroke-width="1.5" stroke-miterlimit="10" stroke-linecap="round" stroke-linejoin="round"/>
<path d="M223.916 338.114C223.916 338.114 222.414 342.826 219.109 340.854C219.109 340.854 218.205 345.848 213.791 343.427C213.791 343.427 212.321 343.115 211.792 339.598C211.792 339.598 205.202 339.681 205.228 335.5C205.251 331.191 208.4 329.6 211.853 330.52C211.853 330.52 214.406 323.317 220.187 328.174" stroke="#2E1E00" stroke-width="1.5" stroke-miterlimit="10" stroke-linecap="round" stroke-linejoin="round"/>
<path d="M205.228 335.5C205.228 335.5 200.893 331.582 197.673 336.282C196.849 337.451 196.554 339.004 197.065 340.399C197.501 341.642 198.614 342.896 201.128 342.789C201.128 342.789 197.034 346.101 201.454 349.455C205.875 352.808 207.664 347.936 207.664 347.936C207.664 347.936 213.014 350.578 214.327 343.646" stroke="#2E1E00" stroke-width="1.5" stroke-miterlimit="10" stroke-linecap="round" stroke-linejoin="round"/>
<path d="M217.614 343.496C217.614 343.496 215.128 348.013 218.235 351.613C221.331 355.251 224.504 353.033 224.504 353.033C224.504 353.033 225.518 357.216 229.34 357.835" stroke="#2E1E00" stroke-width="1.5" stroke-miterlimit="10" stroke-linecap="round" stroke-linejoin="round"/>
<path d="M241.677 373.093C241.677 373.093 236.833 377.049 239.321 381.123C241.809 385.197 246.703 383.797 248.467 383.106C248.467 383.106 248.851 376.884 253.356 377.768C253.356 377.768 249.91 374.776 251.115 372.717" stroke="#2E1E00" stroke-width="1.5" stroke-miterlimit="10" stroke-linecap="round" stroke-linejoin="round"/>
<path d="M231.168 370.706C231.168 370.706 226.615 368.621 224.565 371.927C222.503 375.271 224.027 378.945 227.847 379.435C227.847 379.435 223.654 383.9 228.435 387.118C233.215 390.336 237.648 385.187 239.405 381.108" stroke="#2E1E00" stroke-width="1.5" stroke-miterlimit="10" stroke-linecap="round" stroke-linejoin="round"/>
<path d="M219.357 352.7C219.357 352.7 213.41 351.682 212.507 356.125C211.64 360.581 213.571 362.187 217.009 363.568C217.009 363.568 212.445 366.98 215.771 370.652C219.086 374.363 223.754 373.735 223.754 373.735" stroke="#2E1E00" stroke-width="1.5" stroke-miterlimit="10" stroke-linecap="round" stroke-linejoin="round"/>
<path d="M196.79 338.743C196.79 338.743 194.818 335.642 191.425 336.561C188.033 337.48 187.481 341.954 189.251 343.973C189.251 343.973 183.61 344.917 185.033 350.165C186.455 355.413 192.456 353.107 192.456 353.107C192.456 353.107 192.094 356.797 196.793 357.702C201.454 358.595 202.849 350.293 202.849 350.293" stroke="#2E1E00" stroke-width="1.5" stroke-miterlimit="10" stroke-linecap="round" stroke-linejoin="round"/>
<path d="M212.785 360.363C212.785 360.363 205.177 363.92 201.411 355.196" stroke="#2E1E00" stroke-width="1.5" stroke-miterlimit="10" stroke-linecap="round" stroke-linejoin="round"/>
<path d="M188.801 353.559C188.801 353.559 183.703 354.426 183.71 357.814C183.753 361.214 184.728 362.803 188.422 364.268C188.422 364.268 185.348 370.242 191.272 372.565C197.195 374.888 201.532 368.565 201.532 368.565C201.532 368.565 194.921 361.489 203.709 358.827" stroke="#2E1E00" stroke-width="1.5" stroke-miterlimit="10" stroke-linecap="round" stroke-linejoin="round"/>
<path d="M215.012 369.557C215.012 369.557 207.833 369.192 208.368 374.192C208.368 374.192 208.102 376.601 211.192 377.53C211.192 377.53 208.586 381.5 210.994 383.389C213.402 385.279 217.202 384.197 217.202 384.197C217.202 384.197 220.495 378.294 226.374 381.999" stroke="#2E1E00" stroke-width="1.5" stroke-miterlimit="10" stroke-linecap="round" stroke-linejoin="round"/>
<path d="M183.79 356.994C182.721 356.136 181.423 355.372 180.077 355.184C178.695 354.985 177.524 355.701 176.614 356.757C174.354 359.275 175.52 361.985 177.621 364.239C177.621 364.239 172.962 364.701 173.142 368.865C173.31 373.067 177.615 372.447 177.652 372.459C177.061 372.562 177.202 375.358 177.305 375.688C177.721 377.136 179.032 377.989 180.333 378.331C181.549 378.688 183.466 378.977 184.039 377.431C184.35 376.644 184.079 375.793 184.076 374.988C184.08 374.016 184.265 372.977 184.537 372.05C185.069 370.236 186.278 368.981 188.109 369.836" stroke="#2E1E00" stroke-width="1.5" stroke-miterlimit="10" stroke-linecap="round" stroke-linejoin="round"/>
<path d="M199.757 370.523C199.757 370.523 201.531 378.256 208.484 375.161" stroke="#2E1E00" stroke-width="1.5" stroke-miterlimit="10" stroke-linecap="round" stroke-linejoin="round"/>
<path d="M183.487 378.223C183.487 378.223 184.649 381.904 188.327 381.375C188.327 381.375 186.638 387.677 190.523 389.035C194.456 390.367 196.966 385.223 196.966 385.223C196.966 385.223 192.63 376.396 201.804 374.325" stroke="#2E1E00" stroke-width="1.5" stroke-miterlimit="10" stroke-linecap="round" stroke-linejoin="round"/>
<path d="M217.166 384.185C217.166 384.185 216.557 387.625 219.185 387.81C219.185 387.81 214.022 392.719 218.595 397.053C223.179 401.349 225.198 394.605 225.198 394.605C225.198 394.605 226.887 399.898 231.652 397.44C236.416 394.982 231.587 388.109 231.587 388.109" stroke="#2E1E00" stroke-width="1.5" stroke-miterlimit="10" stroke-linecap="round" stroke-linejoin="round"/>
<path d="M196.977 385.184C196.977 385.184 198.502 387.081 200.92 387.027C200.92 387.027 197.782 392.811 202.652 395.042C207.51 397.312 208.396 388.97 216.741 392.594" stroke="#2E1E00" stroke-width="1.5" stroke-miterlimit="10" stroke-linecap="round" stroke-linejoin="round"/>
<path d="M191.711 389.213C191.711 389.213 186.595 393.418 188.81 397.191C191.026 400.964 194.734 399.514 194.734 399.514C194.734 399.514 193.619 404.269 198.276 404.907C202.933 405.545 204.927 398.201 204.064 395.548" stroke="#2E1E00" stroke-width="1.5" stroke-miterlimit="10" stroke-linecap="round" stroke-linejoin="round"/>
<path d="M207.086 394.253C207.086 394.253 204.953 400.706 211.127 400.402C211.127 400.402 211.881 405.474 216.049 404.639C220.217 403.805 219.075 397.464 219.075 397.464" stroke="#2E1E00" stroke-width="1.5" stroke-miterlimit="10" stroke-linecap="round" stroke-linejoin="round"/>
<path d="M248.515 383.079C248.515 383.079 249.623 388.309 255.155 386.779C255.155 386.779 256.43 390.075 260.742 389.161C265.053 388.247 263.24 381.601 263.24 381.601" stroke="#2E1E00" stroke-width="1.5" stroke-miterlimit="10" stroke-linecap="round" stroke-linejoin="round"/>
<path d="M235.248 386.685C235.248 386.685 234.537 392.927 241.046 391.21C241.046 391.21 238.753 396.298 243.654 397.058C248.555 397.818 248.39 393.194 248.39 393.194C248.39 393.194 250.354 397.689 254.303 395.555C258.251 393.422 258.01 389.196 258.01 389.196" stroke="#2E1E00" stroke-width="1.5" stroke-miterlimit="10" stroke-linecap="round" stroke-linejoin="round"/>
<path d="M173.232 369.783C173.232 369.783 166.284 368.225 166.126 372.447C165.993 376.72 169.491 377.486 169.491 377.486C169.491 377.486 164.936 381.959 169.922 385.16C174.919 388.321 177.568 378.61 188.05 385.728" stroke="#2E1E00" stroke-width="1.5" stroke-miterlimit="10" stroke-linecap="round" stroke-linejoin="round"/>
<path d="M169.922 385.16C169.922 385.16 164.531 387.709 165.663 392.311C166.758 396.902 171.656 396.307 171.656 396.307C171.656 396.307 170.938 400.939 174.108 401.597C177.314 402.267 179.844 398.145 179.844 398.145C179.844 398.145 176.247 393.623 180.552 389.999C180.552 389.999 175.842 386.677 180.041 383.145" stroke="#2E1E00" stroke-width="1.5" stroke-miterlimit="10" stroke-linecap="round" stroke-linejoin="round"/>
<path d="M189.433 398.072C189.433 398.072 184.975 403.17 179.819 398.095" stroke="#2E1E00" stroke-width="1.5" stroke-miterlimit="10" stroke-linecap="round" stroke-linejoin="round"/>
<path d="M198.277 404.907C198.277 404.907 196.598 411.72 192.897 411.099C189.197 410.479 189.191 406.541 189.191 406.541C189.191 406.541 182.676 408.553 183.306 400.127" stroke="#2E1E00" stroke-width="1.5" stroke-miterlimit="10" stroke-linecap="round" stroke-linejoin="round"/>
<path d="M243.939 407.139C243.939 407.139 244.289 403.487 241.797 401.612C240.385 400.557 238.426 400.55 237.032 401.616C236.722 401.853 236.486 402.114 236.384 402.461C236.384 402.461 229.75 402.149 230.114 407.05C230.566 412.742 235.587 409.817 235.587 409.817C235.587 409.817 233.773 415.317 237.72 415.51C241.666 415.704 241.135 410.282 241.135 410.282C241.135 410.282 244.641 412.659 245.554 410.503C246.393 408.324 243.939 407.139 243.939 407.139Z" stroke="#2E1E00" stroke-width="1.5" stroke-miterlimit="10" stroke-linecap="round" stroke-linejoin="round"/>
<path d="M228.218 291.79C228.218 291.79 223.486 288.546 221.205 291.818C218.96 295.103 223.541 298.593 223.541 298.593C223.541 298.593 219.027 303.334 223.128 306.414C227.228 309.493 228.871 303.895 228.871 303.895C228.871 303.895 231.046 306.851 234.609 306.03C238.173 305.21 237.556 300.352 234.416 298.773C234.416 298.773 238.991 292.867 235.508 290.414C232.024 287.96 228.218 291.79 228.218 291.79Z" stroke="#2E1E00" stroke-width="1.5" stroke-miterlimit="10" stroke-linecap="round" stroke-linejoin="round"/>
<path d="M195.68 287.809C195.68 287.809 191.672 285.776 189.918 288.756C188.163 291.735 191.216 294.429 193.618 294.835C193.618 294.835 193.632 299.156 197.58 300.027C201.528 300.898 201.553 295.49 201.553 295.49C201.553 295.49 207.602 294.384 204.801 289.741C201.999 285.099 195.68 287.809 195.68 287.809Z" stroke="#2E1E00" stroke-width="1.5" stroke-miterlimit="10" stroke-linecap="round" stroke-linejoin="round"/>
<path d="M206.996 311.324C206.996 311.324 202.082 311.152 201.64 315.662C201.197 320.172 205.194 319.239 205.194 319.239C205.194 319.239 204.341 322.556 206.824 323.37C209.308 324.185 210.619 320.806 210.619 320.806C210.619 320.806 214.103 323.26 216.453 320.433C218.756 317.633 215.151 315.182 215.151 315.182C215.151 315.182 217.709 311.239 215.158 309.429C210.287 305.971 206.996 311.324 206.996 311.324Z" stroke="#2E1E00" stroke-width="1.5" stroke-miterlimit="10" stroke-linecap="round" stroke-linejoin="round"/>
<path d="M188.201 319.17C188.201 319.17 183.829 318.244 182.862 321.947C181.896 325.651 185.053 326.897 188.642 327.354C188.642 327.354 190.034 331.069 193.177 330.999C196.32 330.929 194.959 326.971 194.959 326.971C194.959 326.971 198.324 327.101 197.825 323.89C197.325 320.68 193.534 321.595 193.534 321.595C193.534 321.595 196.365 317.403 193.865 316.372C191.414 315.314 188.201 319.17 188.201 319.17Z" stroke="#2E1E00" stroke-width="1.5" stroke-miterlimit="10" stroke-linecap="round" stroke-linejoin="round"/>
<path d="M176.439 305.496C176.439 305.496 172.322 302.2 170.576 305.013C168.83 307.826 171.233 309.46 171.233 309.46C171.233 309.46 167.668 312.608 171.529 315.82C175.39 319.033 177.471 313.579 177.471 313.579C177.471 313.579 180.667 316.192 181.942 314.029C183.218 311.866 180.919 310.012 180.919 310.012C180.919 310.012 183.902 307.35 182.621 305.576C181.354 303.891 176.439 305.496 176.439 305.496Z" stroke="#2E1E00" stroke-width="1.5" stroke-miterlimit="10" stroke-linecap="round" stroke-linejoin="round"/>
<path d="M173.521 338.097C173.521 338.097 169.789 335.943 168.083 340.123C166.365 344.342 171.116 345.476 172.797 345.477C172.797 345.477 172.364 349.82 175.333 349.524C178.291 349.267 177.7 345.138 177.7 345.138C177.7 345.138 182.69 343.684 180.616 339.703C178.541 335.723 173.521 338.097 173.521 338.097Z" stroke="#2E1E00" stroke-width="1.5" stroke-miterlimit="10" stroke-linecap="round" stroke-linejoin="round"/>
<path d="M162.895 354.122C160.839 352.941 158.512 352.686 156.238 353.887C152.541 355.848 151.455 360.232 154.053 361.337C156.651 362.443 157.719 360.847 157.719 360.847C157.719 360.847 156.335 364.201 158.869 365.117C161.402 366.032 162.263 363.098 162.263 363.098C162.263 363.098 164.549 366.767 166.929 363.569C168.967 360.852 166.843 357.448 164.786 355.589C164.206 354.975 163.543 354.504 162.895 354.122Z" stroke="#2E1E00" stroke-width="1.5" stroke-miterlimit="10" stroke-linecap="round" stroke-linejoin="round"/>
<path d="M142.085 377.981C142.085 377.981 136.628 375.43 135.501 379.546C134.373 383.662 138.528 383.966 138.528 383.966C138.528 383.966 137.521 388.079 140.047 388.611C142.537 389.131 148.725 381.681 142.085 377.981Z" stroke="#2E1E00" stroke-width="1.5" stroke-miterlimit="10" stroke-linecap="round" stroke-linejoin="round"/>
<path d="M153.775 395.989C153.775 395.989 149.529 394.089 147.584 397.853C145.639 401.616 150.199 401.63 150.199 401.63C150.199 401.63 148.776 404.845 151.146 406.045C153.516 407.245 155.046 403.938 155.046 403.938C155.046 403.938 158.91 407.279 160.458 403.639C162.006 399.999 157.76 399.327 157.76 399.327C157.76 399.327 159.25 395.203 157.157 394.559C155.09 393.966 153.775 395.989 153.775 395.989Z" stroke="#2E1E00" stroke-width="1.5" stroke-miterlimit="10" stroke-linecap="round" stroke-linejoin="round"/>
<path d="M173.113 406.899C173.113 406.899 168.536 405.441 167.186 408.68C165.835 411.919 170.328 412.841 170.328 412.841C170.328 412.841 168.389 418.088 171.918 419.16C175.446 420.232 176.43 416.196 176.43 416.196C176.43 416.196 179.099 419.652 180.412 416.951C181.725 414.25 179.108 412.8 179.108 412.8C179.108 412.8 182.959 408.815 179.91 406.926C176.909 405.012 173.113 406.899 173.113 406.899Z" stroke="#2E1E00" stroke-width="1.5" stroke-miterlimit="10" stroke-linecap="round" stroke-linejoin="round"/>
<path d="M144.083 430.39C144.083 430.39 144.993 426.88 142.267 426.621C139.541 426.362 140.228 429.888 140.228 429.888C140.228 429.888 136.247 428.583 136.201 431.742C136.155 434.9 140.856 434.706 140.856 434.706C140.856 434.706 142.494 437.444 144.566 436.388C146.6 435.32 146.204 431.212 144.083 430.39Z" stroke="#2E1E00" stroke-width="1.5" stroke-miterlimit="10" stroke-linecap="round" stroke-linejoin="round"/>
<path d="M200.64 464.672C200.64 464.672 204.089 464.787 203.656 461.895C203.26 459.015 200.159 460.579 200.159 460.579C200.159 460.579 200.41 456.176 197.521 456.879C194.622 457.621 195.877 462.349 195.877 462.349C195.877 462.349 193.747 464.698 195.21 466.532C196.674 468.366 200.359 466.992 200.64 464.672Z" stroke="#2E1E00" stroke-width="1.5" stroke-miterlimit="10" stroke-linecap="round" stroke-linejoin="round"/>
<path d="M167.49 455.54C167.49 455.54 165.295 452.24 161.424 453.975C157.552 455.71 161.788 460.103 161.788 460.103C161.788 460.103 159.401 464.145 162.475 466.084C165.549 468.023 167.129 464.14 167.129 464.14C167.129 464.14 171.623 465.74 172.458 461.528C173.257 457.304 167.49 455.54 167.49 455.54Z" stroke="#2E1E00" stroke-width="1.5" stroke-miterlimit="10" stroke-linecap="round" stroke-linejoin="round"/>
<path d="M131.372 466.763C131.372 466.763 131.055 463.612 128.347 464.248C125.638 464.883 127.226 468.07 127.226 468.07C127.226 468.07 121.872 471.308 124.289 474.259C126.706 477.209 129.76 473.894 129.76 473.894C129.76 473.894 136.056 474.266 134.897 470.712C133.738 467.158 131.372 466.763 131.372 466.763Z" stroke="#2E1E00" stroke-width="1.5" stroke-miterlimit="10" stroke-linecap="round" stroke-linejoin="round"/>
<path d="M336.714 473.522C336.714 473.522 336.397 470.371 333.689 471.007C330.98 471.642 332.567 474.829 332.567 474.829C332.567 474.829 327.214 478.067 329.631 481.018C332.048 483.968 335.102 480.653 335.102 480.653C335.102 480.653 341.398 481.024 340.239 477.47C339.08 473.917 336.714 473.522 336.714 473.522Z" stroke="#2E1E00" stroke-width="1.5" stroke-miterlimit="10" stroke-linecap="round" stroke-linejoin="round"/>
<path d="M334.71 417.852C334.71 417.852 340.555 420.445 339.281 424.513C338.008 428.582 334.197 426.698 334.197 426.698C334.197 426.698 339.276 435.176 333.557 437.067C327.838 438.959 326.316 431.731 327.4 429.124C327.4 429.124 319.65 427.98 321.546 423.016C323.48 418.064 325.665 420.304 325.665 420.304C325.665 420.304 322.332 416.926 324.438 413.977C324.438 413.977 326.445 415.735 327.383 413.081C327.468 413.066 329.402 419.709 334.71 417.852Z" stroke="#2E1E00" stroke-width="1.5" stroke-miterlimit="10" stroke-linecap="round" stroke-linejoin="round"/>
<path d="M334.71 417.852C334.71 417.852 337.61 415.883 337.068 412.955C336.526 410.026 332.598 407.723 332.598 407.723C332.598 407.723 336.594 405.563 334.217 402.203C334.217 402.203 332.227 398.207 326.894 398.236C321.561 398.265 324.597 403.746 324.597 403.746C324.597 403.746 318.336 409.395 324.522 413.962" stroke="#2E1E00" stroke-width="1.5" stroke-miterlimit="10" stroke-linecap="round" stroke-linejoin="round"/>
<path d="M321.501 425.625C321.501 425.625 319.073 428.172 315.104 426.828C311.134 425.485 313.435 420.78 313.435 420.78C313.435 420.78 308.943 424.766 306.081 419.512C303.219 414.257 305.677 411.339 305.677 411.339C305.677 411.339 310.357 408.895 309.588 404.284C309.588 404.284 313.543 406.766 314.538 404.468C314.538 404.468 315.03 412.205 322.257 411.315" stroke="#2E1E00" stroke-width="1.5" stroke-miterlimit="10" stroke-linecap="round" stroke-linejoin="round"/>
<path d="M334.767 436.49C334.767 436.49 340.807 441.009 339.097 446.839C337.398 452.63 330.292 451.062 329.139 445.986C329.139 445.986 324.832 450.161 321.241 445.344C317.65 440.527 323.37 438.086 323.37 438.086C323.37 438.086 320.164 430.73 327.092 431.266" stroke="#2E1E00" stroke-width="1.5" stroke-miterlimit="10" stroke-linecap="round" stroke-linejoin="round"/>
<path d="M313.1 425.198C313.1 425.198 305.556 431.4 313.284 436.853C313.284 436.853 311.121 447.909 320.767 444.639" stroke="#2E1E00" stroke-width="1.5" stroke-miterlimit="10" stroke-linecap="round" stroke-linejoin="round"/>
<path d="M324.799 398.692C324.799 398.692 323.481 393.224 319.779 393.153C316.029 393.108 315.32 397.023 315.32 397.023C315.32 397.023 305.653 393.134 309.599 404.246" stroke="#2E1E00" stroke-width="1.5" stroke-miterlimit="10" stroke-linecap="round" stroke-linejoin="round"/>
<path d="M304.875 412.98C304.875 412.98 299.129 412.916 300.651 406.772C300.651 406.772 294.784 409.715 292.753 403.674C290.71 397.673 298.268 398.246 298.268 398.246C298.268 398.246 296.641 391.238 301.644 391.651C306.647 392.064 308.917 397.971 308.917 397.971" stroke="#2E1E00" stroke-width="1.5" stroke-miterlimit="10" stroke-linecap="round" stroke-linejoin="round"/>
<path d="M313.383 441.837C313.383 441.837 306.156 442.726 308.866 449.455C308.866 449.455 304.665 454.086 308.474 457.07C312.282 460.053 319.535 458.665 319.535 458.665C319.535 458.665 318.677 456.268 320.995 454.235C320.995 454.235 314.23 450.959 316.884 445.185" stroke="#2E1E00" stroke-width="1.5" stroke-miterlimit="10" stroke-linecap="round" stroke-linejoin="round"/>
<path d="M310.563 428.387C310.563 428.387 301.716 424.428 302.48 433.015C302.48 433.015 297.786 435.37 301.49 441.028C303.923 444.745 308.769 444.599 308.769 444.599" stroke="#2E1E00" stroke-width="1.5" stroke-miterlimit="10" stroke-linecap="round" stroke-linejoin="round"/>
<path d="M333.338 450.368C333.338 450.368 337.299 454.332 334.774 458.709C332.285 463.099 329.041 460.512 329.041 460.512C329.041 460.512 328.047 466.491 323.11 464.492C319.635 463.099 319.535 458.665 319.535 458.665" stroke="#2E1E00" stroke-width="1.5" stroke-miterlimit="10" stroke-linecap="round" stroke-linejoin="round"/>
<path d="M303.873 428.267C303.873 428.267 298.229 427.856 296.753 422.379C295.289 416.863 301.51 411.623 301.51 411.623" stroke="#2E1E00" stroke-width="1.5" stroke-miterlimit="10" stroke-linecap="round" stroke-linejoin="round"/>
<path d="M325.403 464.863C325.403 464.863 327.259 468.772 325.486 470.857C323.714 472.941 320.702 470.515 320.702 470.515C320.702 470.515 321.818 477.356 316.189 476.484C310.572 475.573 311.173 470.523 313.251 467.396C313.251 467.396 309.958 465.385 312.426 458.746" stroke="#2E1E00" stroke-width="1.5" stroke-miterlimit="10" stroke-linecap="round" stroke-linejoin="round"/>
<path d="M308.473 457.07C308.473 457.07 306.462 461.743 303.218 460.383C299.974 459.023 300.026 455.571 300.026 455.571C300.026 455.571 293.645 458.218 292.572 449.868C292.572 449.868 292.383 444.644 296.954 444.619C298.273 444.628 299.597 444.343 300.757 443.665C301.57 443.212 302.176 442.649 301.997 442.167" stroke="#2E1E00" stroke-width="1.5" stroke-miterlimit="10" stroke-linecap="round" stroke-linejoin="round"/>
<path d="M295.869 444.771C295.869 444.771 289.583 443.683 291.058 435.788C291.058 435.788 294.703 433.598 292.869 431.388C292.869 431.388 299.592 431.942 298.178 425.3" stroke="#2E1E00" stroke-width="1.5" stroke-miterlimit="10" stroke-linecap="round" stroke-linejoin="round"/>
<path d="M297.383 416.957C297.383 416.957 292.802 416.471 292.762 411.422C292.762 411.422 289.018 416.542 285.102 414.2C281.185 411.858 281.952 407.878 284.294 406.445C284.294 406.445 282.302 401.772 284.564 399.932C286.825 398.092 290.937 398.128 292.52 401.059" stroke="#2E1E00" stroke-width="1.5" stroke-miterlimit="10" stroke-linecap="round" stroke-linejoin="round"/>
<path d="M291.058 435.788C291.058 435.788 286.685 437.867 284.099 431.264C282.34 426.752 284.222 424.703 285.632 423.853C286.91 423.045 287.939 421.859 288.381 420.353C288.845 418.77 288.866 416.788 287.389 414.865" stroke="#2E1E00" stroke-width="1.5" stroke-miterlimit="10" stroke-linecap="round" stroke-linejoin="round"/>
<path d="M311.888 472.45C311.888 472.45 309.262 475.398 305.997 473.016C302.708 470.584 300.267 467.033 302.216 459.843" stroke="#2E1E00" stroke-width="1.5" stroke-miterlimit="10" stroke-linecap="round" stroke-linejoin="round"/>
<path d="M292.524 449.895C292.524 449.895 288.015 454.214 284.255 450.654C280.496 447.094 283.199 443.749 283.199 443.749C283.199 443.749 276.315 447.29 276.045 442.208C275.774 437.125 281.087 438.529 281.087 438.529C281.087 438.529 276.459 432.06 284.074 431.213" stroke="#2E1E00" stroke-width="1.5" stroke-miterlimit="10" stroke-linecap="round" stroke-linejoin="round"/>
<path d="M301.613 465.993C301.613 465.993 296.942 465.266 297.156 469.313C297.156 469.313 292.546 467.971 292.577 473.187C292.577 473.187 292.208 474.716 294.922 476.791C294.922 476.791 291.913 482.956 295.445 484.833C299.087 486.747 301.836 484.474 302.633 480.8C302.633 480.8 309.881 481.61 308.326 473.949" stroke="#2E1E00" stroke-width="1.5" stroke-miterlimit="10" stroke-linecap="round" stroke-linejoin="round"/>
<path d="M295.445 484.833C295.445 484.833 296.819 490.658 291.408 491.635C290.022 491.858 288.612 491.48 287.658 490.363C286.792 489.36 286.252 487.787 287.452 485.471C287.452 485.471 282.831 487.85 281.969 482.193C281.117 476.497 286.05 477.014 286.05 477.014C286.05 477.014 286.204 470.759 292.662 472.622" stroke="#2E1E00" stroke-width="1.5" stroke-miterlimit="10" stroke-linecap="round" stroke-linejoin="round"/>
<path d="M294.246 469.544C294.246 469.544 289.306 469.872 287.632 465.345C285.958 460.818 289.231 458.802 289.231 458.802C289.231 458.802 286.139 455.969 287.32 452.082" stroke="#2E1E00" stroke-width="1.5" stroke-miterlimit="10" stroke-linecap="round" stroke-linejoin="round"/>
<path d="M279.948 433.542C279.948 433.542 274.441 436.35 272.097 432.196C269.752 428.042 273.143 423.99 274.495 422.656C274.495 422.656 279.949 425.079 281.187 420.449C281.187 420.449 282.161 425.043 284.467 424.825" stroke="#2E1E00" stroke-width="1.5" stroke-miterlimit="10" stroke-linecap="round" stroke-linejoin="round"/>
<path d="M277.265 444.597C277.265 444.597 277.007 449.844 273.267 450.311C269.527 450.777 267.107 447.699 268.397 443.848C268.397 443.848 262.74 445.802 262.162 439.857C261.584 433.913 267.908 432.008 272.144 432.169" stroke="#2E1E00" stroke-width="1.5" stroke-miterlimit="10" stroke-linecap="round" stroke-linejoin="round"/>
<path d="M287.202 463.808C287.202 463.808 285.376 469.895 281.229 468.747C277.082 467.6 276.585 465.067 276.967 461.172C276.967 461.172 272.064 463.965 270.421 459.195C268.778 454.425 271.404 450.25 271.404 450.25" stroke="#2E1E00" stroke-width="1.5" stroke-miterlimit="10" stroke-linecap="round" stroke-linejoin="round"/>
<path d="M288.972 491.344C288.972 491.344 290.705 494.579 288.439 497.39C286.136 500.19 282.128 498.707 281.206 496.119C281.206 496.119 277.881 501.039 274.082 497.339C270.284 493.639 274.921 489.023 274.921 489.023C274.921 489.023 271.629 487.69 272.96 482.879C274.291 478.068 281.958 480.455 281.958 480.455" stroke="#2E1E00" stroke-width="1.5" stroke-miterlimit="10" stroke-linecap="round" stroke-linejoin="round"/>
<path d="M277.787 466.561C277.787 466.561 271.38 472.163 277.08 479.617" stroke="#2E1E00" stroke-width="1.5" stroke-miterlimit="10" stroke-linecap="round" stroke-linejoin="round"/>
<path d="M272.833 492.317C272.833 492.317 269.813 496.744 266.977 495.221C264.141 493.699 263.225 492.045 263.65 487.868C263.65 487.868 257.221 488.087 257.887 481.45C258.553 474.813 265.856 473.526 265.856 473.526C265.856 473.526 268.897 482.944 275.069 475.826" stroke="#2E1E00" stroke-width="1.5" stroke-miterlimit="10" stroke-linecap="round" stroke-linejoin="round"/>
<path d="M271 460.358C271 460.358 268.115 467.326 264.118 464.577C264.118 464.577 261.986 463.793 262.536 460.419C262.536 460.419 258.014 461.095 257.481 458C256.984 454.917 259.546 451.779 259.546 451.779C259.546 451.779 266.007 451.316 265.524 444.091" stroke="#2E1E00" stroke-width="1.5" stroke-miterlimit="10" stroke-linecap="round" stroke-linejoin="round"/>
<path d="M267.66 495.487C267.893 496.876 267.949 498.46 267.505 499.837C267.049 501.254 265.915 501.982 264.629 502.407C261.493 503.41 259.693 501.085 258.763 498.114C258.763 498.114 256.294 502.298 252.844 500.279C249.393 498.259 251.833 494.446 251.833 494.446C251.48 494.965 249.203 493.584 248.92 493.322C247.859 492.297 247.778 490.662 248.029 489.263C248.293 487.953 248.871 485.985 250.422 486.155C251.245 486.213 251.815 486.865 252.511 487.22C253.354 487.624 254.303 487.935 255.214 488.106C256.998 488.437 258.571 487.853 258.673 485.728" stroke="#2E1E00" stroke-width="1.5" stroke-miterlimit="10" stroke-linecap="round" stroke-linejoin="round"/>
<path d="M263.37 474.36C263.37 474.36 257.632 469.221 263.357 464.031" stroke="#2E1E00" stroke-width="1.5" stroke-miterlimit="10" stroke-linecap="round" stroke-linejoin="round"/>
<path d="M249.578 486.301C249.578 486.301 246.983 483.546 249.084 480.342C249.084 480.342 242.99 479.148 243.617 474.826C244.245 470.503 249.71 470.433 249.71 470.433C249.71 470.433 255.228 478.505 261.072 470.73" stroke="#2E1E00" stroke-width="1.5" stroke-miterlimit="10" stroke-linecap="round" stroke-linejoin="round"/>
<path d="M259.582 451.791C259.582 451.791 256.419 450.839 257.419 448.247C257.419 448.247 250.943 450.948 249.342 444.668C247.742 438.388 254.379 439.506 254.379 439.506C254.379 439.506 250.66 435.536 254.861 432.132C259.099 428.739 262.71 436.355 262.71 436.355" stroke="#2E1E00" stroke-width="1.5" stroke-miterlimit="10" stroke-linecap="round" stroke-linejoin="round"/>
<path d="M249.71 470.433C249.71 470.433 248.781 468.14 249.933 465.851C249.933 465.851 243.652 466.247 243.892 460.655C244.131 455.063 251.614 457.939 252.247 448.413" stroke="#2E1E00" stroke-width="1.5" stroke-miterlimit="10" stroke-linecap="round" stroke-linejoin="round"/>
<path d="M243.932 473.617C243.932 473.617 238.101 476.572 235.885 472.799C233.67 469.025 236.551 466.162 236.551 466.162C236.551 466.162 232.019 465.099 233.558 460.399C235.097 455.698 242.212 457.099 244.066 459.104" stroke="#2E1E00" stroke-width="1.5" stroke-miterlimit="10" stroke-linecap="round" stroke-linejoin="round"/>
<path d="M246.547 456.786C246.547 456.786 240.12 455.906 243.151 450.213C243.151 450.213 239.222 447.233 241.787 443.673C244.353 440.113 249.219 443.993 249.219 443.993" stroke="#2E1E00" stroke-width="1.5" stroke-miterlimit="10" stroke-linecap="round" stroke-linejoin="round"/>
<path d="M274.542 422.63C274.542 422.63 270.605 419.266 274.384 414.707C274.384 414.707 272.13 412.021 274.887 408.355C277.596 404.715 282.43 409.389 282.43 409.389" stroke="#2E1E00" stroke-width="1.5" stroke-miterlimit="10" stroke-linecap="round" stroke-linejoin="round"/>
<path d="M265.569 433.568C265.569 433.568 259.94 431.469 264.331 426.053C264.331 426.053 259.007 425.916 260.541 420.96C262.075 416.004 265.916 418.194 265.916 418.194C265.916 418.194 262.972 414.309 266.582 411.557C270.155 408.792 273.619 410.902 273.619 410.902" stroke="#2E1E00" stroke-width="1.5" stroke-miterlimit="10" stroke-linecap="round" stroke-linejoin="round"/>
<path d="M252.156 499.757C252.156 499.757 250.378 507.045 246.702 505.248C243.026 503.45 243.933 499.812 243.933 499.812C243.933 499.812 238.09 502.128 237.653 495.976C237.216 489.823 246.601 491.673 245.276 478.586" stroke="#2E1E00" stroke-width="1.5" stroke-miterlimit="10" stroke-linecap="round" stroke-linejoin="round"/>
<path d="M237.641 496.014C237.641 496.014 233.076 499.977 229.701 496.881C226.289 493.774 228.997 489.457 228.997 489.457C228.997 489.457 224.76 488.068 225.613 484.751C226.467 481.433 231.112 480.883 231.112 480.883C231.112 480.883 233.324 486.305 238.33 483.841C238.33 483.841 239.029 489.783 243.892 487.399" stroke="#2E1E00" stroke-width="1.5" stroke-miterlimit="10" stroke-linecap="round" stroke-linejoin="round"/>
<path d="M235.429 471.761C235.429 471.761 229.131 473.716 231.123 480.844" stroke="#2E1E00" stroke-width="1.5" stroke-miterlimit="10" stroke-linecap="round" stroke-linejoin="round"/>
<path d="M233.606 460.372C233.606 460.372 227.107 458.919 225.96 462.69C224.851 466.473 228.139 468.228 228.139 468.228C228.139 468.228 223.515 473.483 230.943 476.68" stroke="#2E1E00" stroke-width="1.5" stroke-miterlimit="10" stroke-linecap="round" stroke-linejoin="round"/>
<path d="M341.325 520.44C341.325 520.44 341.274 524.57 338.352 524.84C335.431 525.11 334.646 521.509 335.269 519.386C335.269 519.386 332.054 517.655 332.949 514.055C333.845 510.456 337.878 512.539 337.878 512.539C337.878 512.539 341.075 507.917 343.445 512.121C345.825 516.287 341.325 520.44 341.325 520.44Z" stroke="#2E1E00" stroke-width="1.5" stroke-miterlimit="10" stroke-linecap="round" stroke-linejoin="round"/>
<path d="M305.474 502.636C305.474 502.636 304.375 506.931 301.011 506.251C297.648 505.572 297.955 502.203 299.146 498.827C299.146 498.827 296.768 496.016 298.151 493.211C299.535 490.406 302.132 493.289 302.132 493.289C302.132 493.289 303.462 490.255 305.82 492.043C308.177 493.832 305.818 496.825 305.818 496.825C305.818 496.825 310.363 496.071 310.149 498.71C309.924 501.387 305.474 502.636 305.474 502.636Z" stroke="#2E1E00" stroke-width="1.5" stroke-miterlimit="10" stroke-linecap="round" stroke-linejoin="round"/>
<path d="M307.156 525.15C307.156 525.15 307.92 529.506 305.35 529.806C302.78 530.106 302.538 527.656 302.538 527.656C302.538 527.656 299.074 529.229 298.279 525.118C297.484 521.006 301.978 521.379 301.978 521.379C301.978 521.379 301.33 517.993 303.273 517.783C305.252 517.586 305.652 520.044 305.652 520.044C305.652 520.044 308.564 518.714 309.297 520.308C310.056 521.954 307.156 525.15 307.156 525.15Z" stroke="#2E1E00" stroke-width="1.5" stroke-miterlimit="10" stroke-linecap="round" stroke-linejoin="round"/>
<path d="M279.063 513.656C279.063 513.656 279.226 518.152 274.903 517.878C270.58 517.603 271.726 512.605 272.468 511.028C272.468 511.028 268.592 509.504 270.172 506.848C271.715 504.18 274.943 506.55 274.943 506.55C274.943 506.55 278.381 502.472 280.875 506.252C283.308 509.969 279.063 513.656 279.063 513.656Z" stroke="#2E1E00" stroke-width="1.5" stroke-miterlimit="10" stroke-linecap="round" stroke-linejoin="round"/>
<path d="M221.257 506.428C221.257 506.428 220.954 511.28 216.906 511.434C212.857 511.588 214.888 507.26 214.888 507.26C214.888 507.26 211.512 507.169 211.565 504.393C211.619 501.618 215.102 501.617 215.102 501.617C215.102 501.617 214.008 496.477 217.772 496.61C221.524 496.782 220.219 501.094 220.219 501.094C220.219 501.094 224.376 501.526 223.997 503.771C223.619 506.017 221.257 506.428 221.257 506.428Z" stroke="#2E1E00" stroke-width="1.5" stroke-miterlimit="10" stroke-linecap="round" stroke-linejoin="round"/>
<path d="M220.675 483.301C220.675 483.301 219.855 488.279 216.513 488.072C213.159 487.904 214.409 483.236 214.409 483.236C214.409 483.236 209.077 482.715 209.788 478.928C210.499 475.141 214.337 475.976 214.337 475.976C214.337 475.976 212.611 471.898 215.501 471.872C218.354 471.834 218.44 474.951 218.44 474.951C218.44 474.951 223.544 473.112 223.775 476.827C223.97 480.53 220.675 483.301 220.675 483.301Z" stroke="#2E1E00" stroke-width="1.5" stroke-miterlimit="10" stroke-linecap="round" stroke-linejoin="round"/>
<path d="M353.523 459.481C353.523 459.481 356.875 460.199 355.889 462.88C354.902 465.561 352.233 463.332 352.233 463.332C352.233 463.332 351.558 467.681 348.882 466.296C346.206 464.911 348.441 460.566 348.441 460.566C348.441 460.566 346.861 457.763 348.683 456.329C350.457 454.921 353.767 457.149 353.523 459.481Z" stroke="#2E1E00" stroke-width="1.5" stroke-miterlimit="10" stroke-linecap="round" stroke-linejoin="round"/>
<path d="M196.538 493.119C196.538 493.119 199.039 494.828 197.331 497.103C195.622 499.378 193.593 496.47 193.593 496.47C193.593 496.47 188.453 500.075 187.026 496.476C185.6 492.877 189.781 491.454 189.781 491.454C189.781 491.454 192.295 485.339 194.792 488.019C197.288 490.699 196.538 493.119 196.538 493.119Z" stroke="#2E1E00" stroke-width="1.5" stroke-miterlimit="10" stroke-linecap="round" stroke-linejoin="round"/>
<path d="M227.549 425.209C227.549 425.209 230.173 421.584 227.276 419.999C224.378 418.415 221.264 420.568 221.264 420.568C221.264 420.568 215.851 413.503 213.046 417.196C210.241 420.89 214.429 425.309 214.429 425.309C214.429 425.309 210.732 429.726 215.005 432.354C219.278 434.982 221.38 430 221.38 430C221.38 430 228.142 433.148 227.486 425.696" stroke="#2E1E00" stroke-width="1.5" stroke-miterlimit="10" stroke-linecap="round" stroke-linejoin="round"/>
<path d="M200.41 427.654C200.142 426.931 199.789 426.223 199.366 425.619C197.937 423.669 195.585 422.814 193.385 422.262C186.715 420.71 188.701 428.132 188.701 428.132C188.701 428.132 183.615 425.957 183.923 431.728C184.231 437.5 191.166 438.969 195.784 438.24C195.784 438.24 199.041 433.003 202.61 433.665C202.38 433.632 201.833 431.675 201.707 431.422C201.2 430.283 200.883 428.909 200.41 427.654Z" stroke="#2E1E00" stroke-width="1.5" stroke-miterlimit="10" stroke-linecap="round" stroke-linejoin="round"/>
<path d="M212.127 420.873C210.078 419.397 207.692 417.98 205.196 417.755C202.071 417.492 200.5 419.981 199.209 422.605C198.907 423.226 198.453 424.092 198.648 424.791" stroke="#2E1E00" stroke-width="1.5" stroke-miterlimit="10" stroke-linecap="round" stroke-linejoin="round"/>
<path d="M215.03 432.404C215.03 432.404 211.358 433.866 211.619 439.664C211.891 445.424 217.116 443.032 217.116 443.032C217.116 443.032 216.934 450.886 221.531 450.362C226.14 449.799 224.92 442.629 224.92 442.629C224.92 442.629 229.945 445.969 231.022 440.524C232.099 435.08 225.575 430.571 225.575 430.571" stroke="#2E1E00" stroke-width="1.5" stroke-miterlimit="10" stroke-linecap="round" stroke-linejoin="round"/>
<path d="M202.588 433.742C202.588 433.742 206.862 435.82 208.496 431.616C208.496 431.616 209.305 435.817 211.816 436.81" stroke="#2E1E00" stroke-width="1.5" stroke-miterlimit="10" stroke-linecap="round" stroke-linejoin="round"/>
<path d="M195.761 438.317C195.761 438.317 193.42 444.659 197.284 447.999C201.148 451.34 203.78 446.871 203.78 446.871C203.78 446.871 205.255 452.898 209.226 451.914C213.172 450.88 215.671 447.002 213.627 443.328" stroke="#2E1E00" stroke-width="1.5" stroke-miterlimit="10" stroke-linecap="round" stroke-linejoin="round"/>
<path d="M185.562 435.693C185.562 435.693 177.526 437.841 178.888 442.477C180.25 447.113 183.898 447.505 183.898 447.505C183.898 447.505 183.411 454.624 189.362 454.67C195.325 454.678 196.493 447.148 196.493 447.148" stroke="#2E1E00" stroke-width="1.5" stroke-miterlimit="10" stroke-linecap="round" stroke-linejoin="round"/>
<path d="M359.106 14.118L352.749 14.4324L349.44 20.131L347.172 13.8429L341 12.2709L345.945 8.06566L345.499 1.34521L350.816 5.0395L356.69 2.48494L355.017 8.96958L359.106 14.118Z" fill="#FFDC38" stroke="#2E1E00" stroke-miterlimit="10" stroke-linecap="round" stroke-linejoin="round"/>
<path d="M522 476.204L513.573 476.628L509.187 484.325L506.181 475.832L498 473.709L504.554 468.029L503.963 458.952L511.01 463.941L518.797 460.491L516.579 469.25L522 476.204Z" fill="#FFDC38" stroke="#2E1E00" stroke-miterlimit="10" stroke-linecap="round" stroke-linejoin="round"/>
<path d="M633.002 69.4089L628.788 69.6212L626.595 73.4697L625.092 69.2231L621.002 68.1614L624.279 65.3215L623.983 60.783L627.507 63.2778L631.4 61.5527L630.291 65.932L633.002 69.4089Z" fill="#FFDC38" stroke="#2E1E00" stroke-miterlimit="10" stroke-linecap="round" stroke-linejoin="round"/>
<path d="M356.355 115.082C359.866 115.082 362.712 112.073 362.712 108.362C362.712 104.65 359.866 101.641 356.355 101.641C352.843 101.641 349.997 104.65 349.997 108.362C349.997 112.073 352.843 115.082 356.355 115.082Z" fill="#FFDC38" stroke="#2E1E00" stroke-miterlimit="10" stroke-linecap="round" stroke-linejoin="round"/>
<path d="M26 297.928C27.6569 297.928 29 296.398 29 294.512C29 292.625 27.6569 291.096 26 291.096C24.3431 291.096 23 292.625 23 294.512C23 296.398 24.3431 297.928 26 297.928Z" fill="#FFDC38" stroke="#2E1E00" stroke-miterlimit="10" stroke-linecap="round" stroke-linejoin="round"/>
<path d="M842.5 527.265C848.851 527.265 854 521.803 854 515.066C854 508.329 848.851 502.867 842.5 502.867C836.149 502.867 831 508.329 831 515.066C831 521.803 836.149 527.265 842.5 527.265Z" fill="#FFDC38" stroke="#2E1E00" stroke-miterlimit="10" stroke-linecap="round" stroke-linejoin="round"/>
<path d="M806.359 74.2238C809.871 74.2238 812.717 71.215 812.717 67.5034C812.717 63.7918 809.871 60.783 806.359 60.783C802.848 60.783 800.002 63.7918 800.002 67.5034C800.002 71.215 802.848 74.2238 806.359 74.2238Z" fill="#FFDC38" stroke="#2E1E00" stroke-miterlimit="10" stroke-linecap="round" stroke-linejoin="round"/>
<path d="M436.623 99.9513C438.696 99.9513 440.378 98.1741 440.378 95.9819C440.378 93.7896 438.696 92.0125 436.623 92.0125C434.549 92.0125 432.868 93.7896 432.868 95.9819C432.868 98.1741 434.549 99.9513 436.623 99.9513Z" fill="#FEFFFA" stroke="#2E1E00" stroke-miterlimit="10" stroke-linecap="round" stroke-linejoin="round"/>
<path d="M459.747 17.5766C464.182 17.5766 467.778 13.776 467.778 9.08763C467.778 4.39928 464.182 0.598633 459.747 0.598633C455.312 0.598633 451.717 4.39928 451.717 9.08763C451.717 13.776 455.312 17.5766 459.747 17.5766Z" fill="#FEFFFA" stroke="#2E1E00" stroke-miterlimit="10" stroke-linecap="round" stroke-linejoin="round"/>
<path d="M32 570.205C35.3137 570.205 38 567.365 38 563.861C38 560.358 35.3137 557.518 32 557.518C28.6863 557.518 26 560.358 26 563.861C26 567.365 28.6863 570.205 32 570.205Z" fill="#FEFFFA" stroke="#2E1E00" stroke-miterlimit="10" stroke-linecap="round" stroke-linejoin="round"/>
<path d="M795.981 36.3855L790.559 32.7542L784.842 35.684L786.244 28.7929L782.002 23.5935L788.272 22.9746L791.371 16.8674L793.842 23.3459L800.002 24.7489L795.244 29.3706L795.981 36.3855Z" fill="#FEFFFA" stroke="#2E1E00" stroke-miterlimit="10" stroke-linecap="round" stroke-linejoin="round"/>
<path d="M75.8627 549.711L68.9344 544.99L61.6291 548.799L63.4201 539.84L58 533.081L66.0123 532.276L69.9713 524.337L73.1291 532.759L81 534.583L74.9201 540.591L75.8627 549.711Z" fill="#FEFFFA" stroke="#2E1E00" stroke-miterlimit="10" stroke-linecap="round" stroke-linejoin="round"/>
<path d="M805.096 554.59L801.18 551.867L797.051 554.064L798.064 548.896L795 544.996L799.529 544.532L801.766 539.952L803.551 544.811L808 545.863L804.564 549.329L805.096 554.59Z" fill="#FEFFFA" stroke="#2E1E00" stroke-miterlimit="10" stroke-linecap="round" stroke-linejoin="round"/>
<path d="M518.974 42.8865C520.781 42.8865 522.245 41.338 522.245 39.428C522.245 37.5179 520.781 35.9695 518.974 35.9695C517.167 35.9695 515.702 37.5179 515.702 39.428C515.702 41.338 517.167 42.8865 518.974 42.8865Z" fill="#FFDC38" stroke="#2E1E00" stroke-miterlimit="10" stroke-linecap="round" stroke-linejoin="round"/>
<path d="M612.272 472.7C614.079 472.7 615.543 471.151 615.543 469.241C615.543 467.331 614.079 465.783 612.272 465.783C610.465 465.783 609 467.331 609 469.241C609 471.151 610.465 472.7 612.272 472.7Z" fill="#FFDC38" stroke="#2E1E00" stroke-miterlimit="10" stroke-linecap="round" stroke-linejoin="round"/>
<path d="M668.274 150.652C670.081 150.652 671.545 149.103 671.545 147.193C671.545 145.283 670.081 143.735 668.274 143.735C666.467 143.735 665.002 145.283 665.002 147.193C665.002 149.103 666.467 150.652 668.274 150.652Z" fill="#FFDC38" stroke="#2E1E00" stroke-miterlimit="10" stroke-linecap="round" stroke-linejoin="round"/>
<path d="M719.554 65.8827C713.754 73.0664 704.144 76.7701 694.38 74.6165C684.616 72.4628 677.497 65.0695 675.501 56.1663C682.008 58.3002 689.433 60.2485 697.305 61.9848C705.177 63.7211 712.757 65.0045 719.554 65.8827Z" fill="#FEFFFA" stroke="#2E1E00" stroke-miterlimit="10" stroke-linecap="round" stroke-linejoin="round"/>
<path d="M724.17 56.2642C723.332 59.8838 721.712 63.0981 719.48 65.8667C712.665 65.0624 705.103 63.7051 697.231 61.9688C689.359 60.2325 681.951 58.2104 675.426 56.1502C674.631 52.7138 674.585 49.1322 675.424 45.5126C676.005 43.001 676.948 40.6468 678.218 38.5977C683.546 29.6792 694.388 24.7722 705.288 27.1763C716.188 29.5804 723.739 38.5442 724.618 48.8317C724.938 51.2315 724.752 53.7526 724.17 56.2642Z" fill="#FEFFFA" stroke="#2E1E00" stroke-miterlimit="10" stroke-linecap="round" stroke-linejoin="round"/>
<path d="M675.5 45.5289C674.661 49.1485 674.707 52.7301 675.502 56.1665C659.209 50.9424 648.549 45.0973 649.439 41.2561C650.311 37.4888 661.947 36.7165 678.294 38.614C677.1 40.6798 676.081 43.0173 675.5 45.5289Z" stroke="#2E1E00" stroke-miterlimit="10" stroke-linecap="round" stroke-linejoin="round"/>
<path d="M749.657 63.3603C748.767 67.2015 736.568 68.0047 719.556 65.8831C721.788 63.1145 723.408 59.9001 724.246 56.2805C724.828 53.769 725.014 51.2478 724.77 48.8648C740.382 53.9387 750.529 59.593 749.657 63.3603Z" stroke="#2E1E00" stroke-miterlimit="10" stroke-linecap="round" stroke-linejoin="round"/>
<path d="M622.282 553.585C616.481 560.769 606.872 564.472 597.108 562.319C587.343 560.165 580.224 552.772 578.229 543.869C584.736 546.003 592.161 547.951 600.033 549.687C607.905 551.423 615.484 552.707 622.282 553.585Z" fill="#FEFFFA" stroke="#2E1E00" stroke-miterlimit="10" stroke-linecap="round" stroke-linejoin="round"/>
<path d="M626.898 543.967C626.059 547.586 624.44 550.8 622.207 553.569C615.392 552.765 607.83 551.407 599.958 549.671C592.086 547.935 584.678 545.913 578.154 543.853C577.359 540.416 577.313 536.835 578.151 533.215C578.733 530.703 579.676 528.349 580.946 526.3C586.273 517.382 597.116 512.475 608.016 514.879C618.916 517.283 626.466 526.247 627.346 536.534C627.665 538.934 627.479 541.455 626.898 543.967Z" fill="#FEFFFA" stroke="#2E1E00" stroke-miterlimit="10" stroke-linecap="round" stroke-linejoin="round"/>
<path d="M578.227 533.231C577.389 536.851 577.435 540.432 578.23 543.869C561.937 538.645 551.277 532.8 552.166 528.958C553.039 525.191 564.674 524.419 581.022 526.316C579.828 528.382 578.809 530.72 578.227 533.231Z" stroke="#2E1E00" stroke-miterlimit="10" stroke-linecap="round" stroke-linejoin="round"/>
<path d="M652.384 551.063C651.494 554.904 639.295 555.707 622.283 553.585C624.515 550.817 626.135 547.602 626.973 543.983C627.555 541.471 627.741 538.95 627.497 536.567C643.109 541.641 653.256 547.295 652.384 551.063Z" stroke="#2E1E00" stroke-miterlimit="10" stroke-linecap="round" stroke-linejoin="round"/>
<path d="M908.726 291.017C905.321 295.234 899.68 297.408 893.948 296.143C888.217 294.879 884.038 290.54 882.867 285.313C886.686 286.566 891.045 287.71 895.666 288.729C900.286 289.748 904.735 290.501 908.726 291.017Z" fill="#FEFFFA" stroke="#2E1E00" stroke-miterlimit="10" stroke-linecap="round" stroke-linejoin="round"/>
<path d="M911.435 285.371C910.943 287.496 909.992 289.382 908.682 291.008C904.681 290.535 900.242 289.739 895.622 288.72C891.001 287.7 886.652 286.513 882.823 285.304C882.356 283.287 882.329 281.185 882.821 279.06C883.162 277.586 883.716 276.204 884.462 275.001C887.589 269.766 893.953 266.886 900.351 268.297C906.749 269.708 911.182 274.97 911.698 281.008C911.885 282.417 911.776 283.897 911.435 285.371Z" fill="#FEFFFA" stroke="#2E1E00" stroke-miterlimit="10" stroke-linecap="round" stroke-linejoin="round"/>
<path d="M882.866 279.07C882.374 281.194 882.401 283.297 882.868 285.314C873.304 282.247 867.046 278.816 867.569 276.562C868.081 274.35 874.911 273.897 884.506 275.011C883.805 276.223 883.207 277.595 882.866 279.07Z" stroke="#2E1E00" stroke-miterlimit="10" stroke-linecap="round" stroke-linejoin="round"/>
<path d="M926.395 289.536C925.873 291.791 918.712 292.263 908.726 291.017C910.036 289.392 910.987 287.505 911.479 285.381C911.82 283.906 911.93 282.426 911.787 281.028C920.951 284.006 926.907 287.325 926.395 289.536Z" stroke="#2E1E00" stroke-miterlimit="10" stroke-linecap="round" stroke-linejoin="round"/>
<path d="M69.0194 362.656C67.5975 370.14 61.9893 376.5 53.9422 378.605C45.8951 380.709 37.7172 377.954 32.7139 372.15C38.3538 371.262 44.5964 369.891 51.0839 368.194C57.5715 366.498 63.6636 364.579 69.0194 362.656Z" fill="#FEFFFA" stroke="#2E1E00" stroke-miterlimit="10" stroke-linecap="round" stroke-linejoin="round"/>
<path d="M68.6016 353.827C69.4206 356.81 69.5033 359.79 68.9578 362.673C63.6187 364.656 57.5099 366.514 51.0223 368.211C44.5347 369.907 38.2754 371.218 32.6522 372.166C30.7026 369.936 29.2475 367.315 28.4285 364.332C27.8602 362.262 27.6205 360.171 27.7428 358.182C28.1275 349.599 34.1668 341.886 43.1496 339.538C52.1324 337.189 61.2516 340.937 65.9822 348.183C67.1698 349.83 68.0333 351.757 68.6016 353.827Z" fill="#FEFFFA" stroke="#2E1E00" stroke-miterlimit="10" stroke-linecap="round" stroke-linejoin="round"/>
<path d="M28.4909 364.316C29.3099 367.299 30.765 369.919 32.7147 372.15C18.6399 374.46 8.46825 374.184 7.59908 371.018C6.74662 367.914 15.0107 362.947 27.8053 358.166C27.7453 360.139 27.9226 362.246 28.4909 364.316Z" stroke="#2E1E00" stroke-miterlimit="10" stroke-linecap="round" stroke-linejoin="round"/>
<path d="M90.191 349.421C91.0602 352.587 82.3929 357.789 69.0202 362.656C69.5657 359.773 69.4831 356.793 68.664 353.81C68.0957 351.74 67.2322 349.813 66.107 348.15C79.6203 345.986 89.3386 346.316 90.191 349.421Z" stroke="#2E1E00" stroke-miterlimit="10" stroke-linecap="round" stroke-linejoin="round"/>
<path d="M692.91 389.832C692.651 393.835 690.129 397.509 686.055 399.107C681.98 400.704 677.523 399.767 674.529 397.039C677.422 396.227 680.6 395.124 683.885 393.836C687.169 392.548 690.233 391.168 692.91 389.832Z" fill="#FEFFFA" stroke="#2E1E00" stroke-miterlimit="10" stroke-linecap="round" stroke-linejoin="round"/>
<path d="M692.12 385.237C692.742 386.748 692.979 388.302 692.88 389.844C690.215 391.211 687.139 392.56 683.854 393.848C680.569 395.136 677.379 396.208 674.498 397.051C673.333 396.005 672.402 394.723 671.781 393.213C671.349 392.165 671.088 391.086 671.023 390.037C670.669 385.522 673.329 381.114 677.877 379.331C682.425 377.548 687.439 378.946 690.384 382.446C691.112 383.234 691.689 384.189 692.12 385.237Z" fill="#FEFFFA" stroke="#2E1E00" stroke-miterlimit="10" stroke-linecap="round" stroke-linejoin="round"/>
<path d="M671.812 393.2C672.433 394.711 673.365 395.992 674.529 397.039C667.314 399.116 661.974 399.599 661.314 397.997C660.667 396.425 664.669 393.316 671.054 390.025C671.151 391.061 671.38 392.152 671.812 393.2Z" stroke="#2E1E00" stroke-miterlimit="10" stroke-linecap="round" stroke-linejoin="round"/>
<path d="M703.131 381.6C703.791 383.203 699.593 386.46 692.911 389.831C693.01 388.289 692.773 386.735 692.151 385.225C691.72 384.177 691.143 383.222 690.447 382.421C697.377 380.455 702.484 380.028 703.131 381.6Z" stroke="#2E1E00" stroke-miterlimit="10" stroke-linecap="round" stroke-linejoin="round"/>
<path d="M845.794 223.571L837.44 223.953L833.091 230.867L830.111 223.238L822 221.33L828.498 216.228L827.912 208.075L834.899 212.557L842.619 209.457L840.42 217.325L845.794 223.571Z" fill="#FFDC38" stroke="#2E1E00" stroke-miterlimit="10" stroke-linecap="round" stroke-linejoin="round"/>
<path d="M840 341.577C843.314 341.577 846 338.955 846 335.722C846 332.488 843.314 329.866 840 329.866C836.686 329.866 834 332.488 834 335.722C834 338.955 836.686 341.577 840 341.577Z" fill="#FFDC38" stroke="#2E1E00" stroke-miterlimit="10" stroke-linecap="round" stroke-linejoin="round"/>
<path d="M947.666 327.708C950.392 327.708 952.601 325.552 952.601 322.893C952.601 320.233 950.392 318.077 947.666 318.077C944.941 318.077 942.731 320.233 942.731 322.893C942.731 325.552 944.941 327.708 947.666 327.708Z" fill="#FEFFFA" stroke="#2E1E00" stroke-miterlimit="10" stroke-linecap="round" stroke-linejoin="round"/>
<path d="M978.057 227.767C983.885 227.767 988.61 223.156 988.61 217.468C988.61 211.78 983.885 207.168 978.057 207.168C972.228 207.168 967.503 211.78 967.503 217.468C967.503 223.156 972.228 227.767 978.057 227.767Z" fill="#FEFFFA" stroke="#2E1E00" stroke-miterlimit="10" stroke-linecap="round" stroke-linejoin="round"/>
<path d="M52 239.373C55.3137 239.373 58 236.752 58 233.518C58 230.284 55.3137 227.663 52 227.663C48.6863 227.663 46 230.284 46 233.518C46 236.752 48.6863 239.373 52 239.373Z" fill="#FEFFFA" stroke="#2E1E00" stroke-miterlimit="10" stroke-linecap="round" stroke-linejoin="round"/>
<path d="M937.554 449.297C943.382 449.297 948.107 444.686 948.107 438.998C948.107 433.31 943.382 428.699 937.554 428.699C931.725 428.699 927 433.31 927 438.998C927 444.686 931.725 449.297 937.554 449.297Z" fill="#FEFFFA" stroke="#2E1E00" stroke-miterlimit="10" stroke-linecap="round" stroke-linejoin="round"/>
<path d="M130 292.07L121.222 292.479L116.653 299.88L113.522 291.713L105 289.671L111.828 284.21L111.211 275.482L118.552 280.28L126.663 276.962L124.353 285.384L130 292.07Z" fill="#FFDC38" stroke="#2E1E00" stroke-miterlimit="10" stroke-linecap="round" stroke-linejoin="round"/>
<path d="M33 433.341L21.7639 433.864L15.9158 443.337L11.9076 432.884L1 430.271L9.73922 423.28L8.95072 412.108L18.347 418.25L28.729 414.003L25.7721 424.783L33 433.341Z" fill="#FFDC38" stroke="#2E1E00" stroke-miterlimit="10" stroke-linecap="round" stroke-linejoin="round"/>
<path d="M77 363.313C79.2091 363.313 81 361.347 81 358.922C81 356.496 79.2091 354.53 77 354.53C74.7909 354.53 73 356.496 73 358.922C73 361.347 74.7909 363.313 77 363.313Z" fill="#FFDC38" stroke="#2E1E00" stroke-miterlimit="10" stroke-linecap="round" stroke-linejoin="round"/>
<path d="M412.532 63.1658C410.598 67.4496 406.509 70.3971 401.713 70.3971C396.917 70.3971 392.79 67.4496 390.894 63.1658C394.166 63.5195 397.846 63.6767 401.713 63.6767C405.579 63.6767 409.26 63.4802 412.532 63.1658Z" fill="#FEFFFA" stroke="#2E1E00" stroke-miterlimit="10" stroke-linecap="round" stroke-linejoin="round"/>
<path d="M413.647 57.7814C413.647 59.7071 413.238 61.5149 412.494 63.1656C409.223 63.5193 405.542 63.6765 401.675 63.6765C397.809 63.6765 394.128 63.48 390.857 63.1656C390.113 61.5149 389.704 59.7071 389.704 57.7814C389.704 56.4451 389.89 55.1482 390.262 53.9692C391.786 48.8601 396.322 45.1658 401.675 45.1658C407.029 45.1658 411.528 48.8601 413.052 53.9692C413.461 55.1482 413.647 56.4451 413.647 57.7814Z" fill="#FEFFFA" stroke="#2E1E00" stroke-miterlimit="10" stroke-linecap="round" stroke-linejoin="round"/>
<path d="M389.741 57.7817C389.741 59.7074 390.15 61.5152 390.894 63.1659C382.714 62.3406 377.101 60.572 377.101 58.5284C377.101 56.524 382.454 54.8341 390.299 53.9695C389.964 55.1485 389.741 56.4454 389.741 57.7817Z" stroke="#2E1E00" stroke-miterlimit="10" stroke-linecap="round" stroke-linejoin="round"/>
<path d="M426.324 58.5284C426.324 60.572 420.71 62.3406 412.531 63.1659C413.275 61.5152 413.684 59.7074 413.684 57.7817C413.684 56.4454 413.498 55.1485 413.126 53.9695C420.971 54.7948 426.324 56.524 426.324 58.5284Z" stroke="#2E1E00" stroke-miterlimit="10" stroke-linecap="round" stroke-linejoin="round"/>
<defs>
<linearGradient id="paint0_linear_2732:22558" x1="616.25" y1="24" x2="616.25" y2="534" gradientUnits="userSpaceOnUse">
<stop stop-color="#50C56E"/>
<stop offset="1" stop-color="#50C56E" stop-opacity="0"/>
</linearGradient>
</defs>
</svg>
