<svg width="348" height="325" viewBox="0 0 348 325" fill="none" xmlns="http://www.w3.org/2000/svg">
  <path d="M105.056 232.45H24.4658C24.4658 208.678 42.5053 189.409 64.7607 189.409C75.0042 189.409 84.3555 193.49 91.4611 200.218C99.8001 208.102 105.056 219.619 105.056 232.45Z" stroke="#2E1E00" stroke-width="1.5" stroke-miterlimit="10" stroke-linecap="round" stroke-linejoin="round" />
  <path d="M240.753 232.45H105.055C105.055 219.619 99.8 208.102 91.4609 200.218C103.267 170.447 130.875 149.562 163.049 149.562C205.93 149.562 240.694 186.662 240.753 232.45Z" stroke="#2E1E00" stroke-width="1.5" stroke-miterlimit="10" stroke-linecap="round" stroke-linejoin="round" />
  <path d="M117.153 104.172C117.153 138.43 91.1506 166.204 59.0745 166.204C27.0022 166.204 1 138.43 1 104.172C1 76.5426 17.9108 53.1308 41.2755 45.1059C37.1332 40.4202 34.5927 34.1022 34.5927 27.1503C34.5927 12.708 45.5536 1 59.0745 1C72.5953 1 83.5602 12.708 83.5602 27.1503C83.5602 34.1022 81.0197 40.4202 76.8773 45.1059C100.246 53.1349 117.153 76.5426 117.153 104.172Z" stroke="#2E1E00" stroke-width="1.5" stroke-miterlimit="10" stroke-linecap="round" stroke-linejoin="round" />
  <path d="M59.0781 111.443V232.065" stroke="#2E1E00" stroke-width="1.5" stroke-miterlimit="10" stroke-linecap="round" stroke-linejoin="round" />
  <path d="M210.911 308.32C210.914 308.424 210.914 308.527 210.914 308.631C210.914 316.49 204.941 322.895 197.545 322.895C190.664 322.895 184.904 317.315 184.241 309.994L174.665 204.498L167.047 311.386C166.559 318.218 161.225 323.5 154.806 323.5C148.445 323.5 143.136 318.305 142.581 311.535L140.735 289.068C138.194 241.349 139.377 194.559 141.856 154.691C142.55 143.543 143.341 132.932 144.187 122.998C148.368 73.5764 153.74 40.7974 153.74 40.7974L167.032 57.684C183.923 48.9548 200.33 60.4764 200.33 60.4764L217.648 46.8378C213.688 54.7177 211.597 85.5288 210.589 123.88C210.208 138.227 209.984 153.631 209.867 169.283C209.456 224.102 210.395 281.983 210.911 308.32Z" fill="#FFDC38" stroke="#2E1E00" stroke-width="1.5" stroke-miterlimit="10" stroke-linecap="round" stroke-linejoin="round" />
  <path d="M114.694 63.6787L109.434 98.1605L106.172 119.542H70.0003L68.0377 103.128C69.7094 103.397 70.9195 103.298 70.9195 103.298C70.9195 103.298 83.1759 103.004 81.9774 91.0015C80.7828 78.9994 65.7803 84.2651 65.7803 84.2651L65.1481 78.9994L63.3174 63.6787H114.694Z" fill="#ADF0E7" stroke="#2E1E00" stroke-width="1.5" stroke-miterlimit="10" stroke-linecap="round" stroke-linejoin="round" />
  <path d="M144.187 122.997C143.342 132.932 142.55 143.542 141.856 154.691L97.8262 120.101L97.9852 119.542H106.173L109.435 98.1603L144.187 122.997Z" fill="#FFDC38" stroke="#2E1E00" stroke-width="1.5" stroke-miterlimit="10" stroke-linecap="round" stroke-linejoin="round" />
  <path d="M258.73 189.608C257.168 198.735 247.445 200.115 238.759 200.069C230.16 200.023 224.02 196.133 219.036 189.608L209.867 169.282C209.984 153.63 210.208 138.227 210.589 123.88L235.26 176.591C235.26 176.591 260.587 178.756 258.73 189.608Z" fill="#FFDC38" stroke="#2E1E00" stroke-width="1.5" stroke-miterlimit="10" stroke-linecap="round" stroke-linejoin="round" />
  <path d="M70.9192 103.298C70.9192 103.298 69.709 103.397 68.0374 103.128C64.4225 102.552 58.6472 100.269 58.2477 91.6103C57.7823 81.4683 65.1478 78.9991 65.1478 78.9991L65.78 84.2648C65.78 84.2648 80.7825 78.9991 81.9771 91.0013C83.1756 103.003 70.9192 103.298 70.9192 103.298Z" fill="#FFDC38" stroke="#2E1E00" stroke-width="1.5" stroke-miterlimit="10" stroke-linecap="round" stroke-linejoin="round" />
  <path d="M110.998 63.6788L110.994 63.6746L111.052 63.2065H86.1395V63.6208C86.1395 63.6373 86.1356 63.6539 86.1356 63.6788L67.7044 63.6746C67.7006 63.6373 67.305 59.9957 68.9262 57.9242C69.3761 57.3525 69.9463 56.9465 70.6289 56.7186L70.9082 56.6275L70.9004 56.3167C70.8888 55.774 70.9237 53.9387 71.8041 53.0521C72.1416 52.7082 72.5566 52.5384 73.0647 52.5384C73.1966 52.5384 73.3362 52.5508 73.4836 52.5756C73.5379 52.6005 74.0072 52.8367 74.4377 53.1888L74.9885 53.6362L75.0622 52.8988C75.1553 51.9128 75.4655 50.5746 76.4042 49.7957C76.4391 49.775 76.4701 49.7543 76.4973 49.7294L76.7028 49.5472L76.6175 49.2779C76.4158 48.6481 75.8418 46.5394 76.9161 45.7771C77.7151 45.2136 78.4637 45.3255 78.9524 45.5202L79.4799 45.7273L79.476 45.1266C79.4683 44.1282 79.6545 42.4171 80.9809 42.1686C81.5046 42.0691 81.9351 42.1603 82.2958 42.4461C82.6642 42.7361 82.8698 43.167 82.9784 43.4819L83.1685 44.0205L83.5874 43.66C83.758 43.5109 84.0334 43.2954 84.3902 43.0924L84.7083 42.9143L84.5648 42.5621C84.1692 41.5885 83.8589 40.1965 84.2816 39.4674C84.4794 39.1276 84.8246 38.9495 85.3056 38.9329C86.3412 38.8956 86.9036 39.1069 87.1984 39.2851L87.6909 39.5916L87.7763 38.9909C87.9508 37.7522 88.3426 36.8242 88.8778 36.3767C89.2734 36.0411 89.7388 35.9458 90.2974 36.0784C92.2367 36.5383 92.4035 38.183 92.3841 38.8708L92.3724 39.2975H92.7719C93.9549 39.2975 96.1153 39.5254 97.2789 41.0582C98.074 42.1023 98.2446 43.5896 97.7908 45.4705L97.6939 45.8724L98.0701 45.9759C98.5433 46.1085 98.9312 46.3654 99.257 46.7672C99.4625 47.02 99.6332 47.2934 99.7806 47.6083L100.044 48.1758L100.424 47.687C101.049 46.8832 102.325 45.6403 103.826 46.3074C104.26 46.5021 104.559 46.8211 104.734 47.2851C105.16 48.4286 104.683 50.0692 104.458 50.7196L104.353 51.022L104.602 51.2043C105.052 51.5358 106.103 52.4348 106.204 53.6528C106.273 54.4814 105.886 55.31 105.044 56.1137L104.881 56.267L104.924 56.499C105.001 56.9506 105.032 57.4768 105.009 58.0609L105.001 58.2846L105.172 58.4172C105.94 58.9972 106.254 59.6104 106.378 60.0164L106.595 60.7207L107.041 60.1573C107.596 59.4612 108.686 58.2929 109.787 58.2556C110.4 58.2308 110.951 58.5622 111.424 59.2334C112.646 60.9734 111.68 62.8999 110.998 63.6788Z" fill="#FEFFFA" />
  <path d="M67.7039 63.6787C67.7039 63.6787 66.9282 56.8097 71.7027 56.5155C76.0041 56.2504 76.0196 59.2499 76.0196 59.2499C76.0196 59.2499 76.5006 54.125 79.5375 54.8086C82.5745 55.4922 82.0586 59.9335 82.0586 59.9335C82.0586 59.9335 86.647 58.8811 86.1312 63.6787H67.7039Z" stroke="#2E1E00" stroke-width="1.5" stroke-miterlimit="10" stroke-linecap="round" stroke-linejoin="round" />
  <path d="M84.5875 60.1198C84.5875 60.1198 84.3393 53.8308 90.0951 54.7464C95.851 55.6619 94.5749 59.2124 94.5749 59.2124C94.5749 59.2124 100.335 58.7112 100.653 63.6785" stroke="#2E1E00" stroke-width="1.5" stroke-miterlimit="10" stroke-linecap="round" stroke-linejoin="round" />
  <path d="M79.5424 54.8086C79.5424 54.8086 77.7931 50.3632 81.0783 49.6133C84.2355 48.8924 84.5885 51.6806 84.5885 51.6806C84.5885 51.6806 82.909 46.2907 86.1787 45.8184C89.7781 45.2963 89.5803 50.3135 89.5803 50.3135C89.5803 50.3135 93.2106 48.9587 94.7466 52.3725C95.8132 54.7464 93.7808 56.2793 93.7808 56.2793" stroke="#2E1E00" stroke-width="1.5" stroke-miterlimit="10" stroke-linecap="round" stroke-linejoin="round" />
  <path d="M99.625 60.9566C99.625 60.9566 101.157 56.2792 104.322 57.8908C106.828 59.1668 106.475 60.9566 106.475 60.9566C106.475 60.9566 109.349 56.2792 111.424 59.2372C112.975 61.4496 110.993 63.6826 110.993 63.6826" stroke="#2E1E00" stroke-width="1.5" stroke-miterlimit="10" stroke-linecap="round" stroke-linejoin="round" />
  <path d="M94.7422 52.3727C94.7422 52.3727 95.6381 48.6151 98.2252 49.8124C100.812 51.0097 100.122 53.1268 100.122 53.1268C100.122 53.1268 105.397 52.5012 105.001 58.293" stroke="#2E1E00" stroke-width="1.5" stroke-miterlimit="10" stroke-linecap="round" stroke-linejoin="round" />
  <path d="M88.1484 46.2452C88.1484 46.2452 89.6882 42.906 92.6205 43.7346C95.3045 44.4927 94.746 46.7755 94.746 46.7755C94.746 46.7755 97.6239 44.7496 99.2645 46.7755C100.901 48.8014 99.6291 50.8521 99.6291 50.8521" stroke="#2E1E00" stroke-width="1.5" stroke-miterlimit="10" stroke-linecap="round" stroke-linejoin="round" />
  <path d="M100.099 48.1508C100.099 48.1508 101.763 45.3875 103.83 46.3072C105.901 47.227 104.346 51.026 104.346 51.026C104.346 51.026 108.162 53.3461 104.873 56.2752" stroke="#2E1E00" stroke-width="1.5" stroke-miterlimit="10" stroke-linecap="round" stroke-linejoin="round" />
  <path d="M70.9158 56.636C70.9158 56.636 70.5512 52.1119 73.4835 52.5717C73.4835 52.5717 74.8643 53.2677 75.0349 53.9347C75.0349 53.9347 74.6044 47.4966 80.3796 49.5764" stroke="#2E1E00" stroke-width="1.5" stroke-miterlimit="10" stroke-linecap="round" stroke-linejoin="round" />
  <path d="M76.7183 49.5762C76.7183 49.5762 75.6051 46.7051 76.9161 45.7812C78.3085 44.7952 79.5148 45.8517 79.5148 45.8517C79.5148 45.8517 79.0959 42.5207 80.9809 42.1686C82.862 41.8164 83.1374 44.1033 83.1374 44.1033C83.1374 44.1033 86.1666 40.5114 89.0058 44.5632" stroke="#2E1E00" stroke-width="1.5" stroke-miterlimit="10" stroke-linecap="round" stroke-linejoin="round" />
  <path d="M84.5878 42.6119C84.5878 42.6119 83.0557 39.0076 85.3092 38.933C87.5588 38.8584 87.6984 39.9107 87.6984 39.9107C87.6984 39.9107 87.7682 35.4778 90.301 36.0785C92.8337 36.6792 92.3411 39.3183 92.3411 39.3183C92.3411 39.3183 99.7338 38.6513 97.6897 45.889" stroke="#2E1E00" stroke-width="1.5" stroke-miterlimit="10" stroke-linecap="round" stroke-linejoin="round" />
  <path d="M144.822 115.693C144.822 115.693 177.953 132.899 209.867 118.581" stroke="#FEFFFA" stroke-width="1.5" stroke-miterlimit="10" stroke-linecap="round" stroke-linejoin="round" />
  <path d="M181.743 131.561L182.092 124.273" stroke="#FEFFFA" stroke-width="1.5" stroke-miterlimit="10" stroke-linecap="round" stroke-linejoin="round" />
  <path d="M148.372 81.0253L161.633 88.6649L147.231 91.2667L148.372 81.0253Z" fill="#2E1E00" stroke="#2E1E00" stroke-width="1.5" stroke-miterlimit="10" stroke-linecap="round" stroke-linejoin="round" />
  <path d="M146.685 96.4659L162.529 102.365L145.502 108.381L146.685 96.4659Z" fill="#2E1E00" stroke="#2E1E00" stroke-width="1.5" stroke-miterlimit="10" stroke-linecap="round" stroke-linejoin="round" />
  <path d="M212.392 82.0942C212.392 82.0942 201.264 89.2118 201.648 89.2118C202.032 89.2118 211.818 91.6106 211.818 91.6106L212.392 82.0942Z" fill="#2E1E00" stroke="#2E1E00" stroke-width="1.5" stroke-miterlimit="10" stroke-linecap="round" stroke-linejoin="round" />
  <path d="M211.22 95.6543L196.776 102.424L211.092 107.864L211.22 95.6543Z" fill="#2E1E00" stroke="#2E1E00" stroke-width="1.5" stroke-miterlimit="10" stroke-linecap="round" stroke-linejoin="round" />
  <path d="M182.689 100.381C182.942 100.29 189.318 100.65 189.652 92.7664" stroke="#2E1E00" stroke-width="1.5" stroke-miterlimit="10" stroke-linecap="round" stroke-linejoin="round" />
  <path d="M179.04 94.299C181.148 94.299 182.857 92.4739 182.857 90.2224C182.857 87.9709 181.148 86.1458 179.04 86.1458C176.932 86.1458 175.224 87.9709 175.224 90.2224C175.224 92.4739 176.932 94.299 179.04 94.299Z" fill="#2E1E00" />
  <path d="M169.185 85.3257C170.297 85.3257 171.198 84.363 171.198 83.1755C171.198 81.988 170.297 81.0253 169.185 81.0253C168.073 81.0253 167.172 81.988 167.172 83.1755C167.172 84.363 168.073 85.3257 169.185 85.3257Z" fill="#2E1E00" />
  <path d="M190.323 86.1462C191.434 86.1462 192.336 85.1835 192.336 83.996C192.336 82.8085 191.434 81.8458 190.323 81.8458C189.211 81.8458 188.31 82.8085 188.31 83.996C188.31 85.1835 189.211 86.1462 190.323 86.1462Z" fill="#2E1E00" />
  <path d="M168.396 76.8553C170.64 74.8246 171.697 72.2175 170.757 71.0321C169.816 69.8467 167.235 70.5319 164.991 72.5626C162.747 74.5933 161.69 77.2005 162.63 78.3859C163.57 79.5713 166.152 78.886 168.396 76.8553Z" fill="#2E1E00" />
  <path d="M197.759 79.2602C198.699 78.0747 197.642 75.4676 195.398 73.4369C193.154 71.4062 190.572 70.7209 189.632 71.9064C188.692 73.0918 189.749 75.6989 191.993 77.7296C194.237 79.7603 196.818 80.4456 197.759 79.2602Z" fill="#2E1E00" />
  <path d="M186.099 135.385C187.267 136.011 187.736 137.531 187.147 138.774C186.619 139.888 185.424 140.406 184.342 140.054C184.319 140.361 184.238 140.671 184.098 140.961C183.512 142.209 182.089 142.71 180.925 142.08C180.239 141.711 179.793 141.032 179.665 140.278C179.521 140.373 179.358 140.452 179.192 140.51C177.95 140.949 176.612 140.228 176.205 138.902C175.798 137.577 176.469 136.151 177.71 135.712C177.931 135.634 178.152 135.592 178.373 135.588C177.287 134.929 176.864 133.463 177.435 132.257C178.02 131.01 179.444 130.509 180.607 131.139C181.115 131.408 181.488 131.847 181.705 132.361C182.31 131.168 183.698 130.695 184.847 131.313C186.014 131.942 186.483 133.459 185.898 134.706C185.816 134.88 185.719 135.037 185.603 135.182C185.77 135.236 185.94 135.298 186.099 135.385Z" fill="#FEFFFA" stroke="#2E1E00" stroke-width="1.5" stroke-miterlimit="10" stroke-linecap="round" stroke-linejoin="round" />
  <path d="M323.708 232.214H240.698C245.007 221.223 253.04 212.307 263.105 207.265C268.904 204.353 275.377 202.729 282.203 202.729C300.887 202.729 316.913 214.892 323.708 232.214Z" stroke="#2E1E00" stroke-width="1.5" stroke-miterlimit="10" stroke-linecap="round" stroke-linejoin="round" />
  <path d="M304.679 160.901C327.64 160.901 346.254 134.473 346.254 101.873C346.254 69.272 327.64 42.8439 304.679 42.8439C281.718 42.8439 263.104 69.272 263.104 101.873C263.104 134.473 281.718 160.901 304.679 160.901Z" stroke="#2E1E00" stroke-width="1.5" stroke-miterlimit="10" stroke-linecap="round" stroke-linejoin="round" />
  <path d="M304.68 122.38V232.214" stroke="#2E1E00" stroke-width="1.5" stroke-miterlimit="10" stroke-linecap="round" stroke-linejoin="round" />
</svg>