<svg width="287" height="266" viewBox="0 0 287 266" fill="none" xmlns="http://www.w3.org/2000/svg">
<rect x="20.042" y="-105" width="492" height="80" rx="8" transform="rotate(42.495 20.042 -105)" fill="#FBBF24"/>
<path d="M125.33 33.7326C125.539 31.5152 124.161 29.1463 122.533 27.6548C118.676 24.1204 113.42 23.9597 109.739 27.9767C106.156 31.8875 106.454 37.1404 110.365 40.7234C112.489 42.6689 114.862 43.3464 117.224 42.9713L116.588 40.0774C115.156 40.3609 113.56 39.9721 112.215 38.7399C109.631 36.3729 109.702 32.9554 112.199 30.2302C114.566 27.6466 118.15 27.252 120.734 29.619C121.743 30.5432 122.571 32.0187 122.399 33.5211L125.33 33.7326Z" fill="white"/>
<path d="M121.854 39.0754C118.271 42.9862 118.639 48.3039 122.497 51.8383C126.408 55.4213 131.737 55.324 135.32 51.4131C139.001 47.3961 138.47 42.2554 134.559 38.6724C130.701 35.138 125.534 35.0583 121.854 39.0754ZM124.278 41.2965C126.645 38.7129 130.194 38.2858 132.777 40.6529C135.379 43.0361 135.263 46.6084 132.896 49.192C130.448 51.8641 126.913 52.2056 124.347 49.8548C121.798 47.5202 121.83 43.9686 124.278 41.2965Z" fill="white"/>
<path d="M131.701 59.6849L133.825 61.6305L143.05 51.5614L143.085 51.5938L137.612 65.0999L139.169 66.5267L152.199 59.9433L152.234 59.9757L143.009 70.0448L145.221 72.0714L156.699 59.5425L153.196 56.3325L141.82 62.2829L141.767 62.2342L146.666 50.35L143.18 47.1561L131.701 59.6849Z" fill="white"/>
<path d="M147.98 74.5993L150.21 76.6421L161.688 64.1132L159.459 62.0704L147.98 74.5993Z" fill="white"/>
<path d="M152.974 79.1749L155.204 81.2177L164.072 71.5379L164.108 71.5704L161.185 86.6976L164.017 89.2916L175.495 76.7627L173.266 74.72L164.673 84.0989L164.638 84.0665L167.408 69.3536L164.453 66.6461L152.974 79.1749Z" fill="white"/>
<path d="M184.304 94.7278L179.508 90.3342L177.822 92.1746L180.459 94.5902L177.54 97.7755C176.539 97.4116 175.578 96.7912 174.64 95.9319C171.879 93.4028 171.964 89.8998 174.412 87.2277C176.779 84.6441 180.328 84.217 182.964 86.6327C184.309 87.8649 185.011 89.5498 185 90.8413L188.064 90.5884C187.914 88.7264 186.728 86.468 184.746 84.6522C180.888 81.1179 175.633 80.9571 171.952 84.9741C168.369 88.885 168.702 94.1703 172.737 97.8668C174.701 99.6664 176.546 100.673 178.354 101.222L184.304 94.7278Z" fill="white"/>
<path d="M203.271 104.098C203.142 102.32 202.114 100.564 200.857 99.4128C198.592 97.3376 195.237 96.3463 192.902 98.8945C190.762 101.23 191.727 103.481 192.811 105.353C193.932 107.292 194.901 108.863 193.701 110.173C192.469 111.518 190.778 110.912 189.734 109.956C188.743 109.048 188.096 107.479 188.255 106.062L185.301 106.09C185.222 108.166 186.335 110.325 187.964 111.817C190.423 114.07 193.729 114.69 196.193 112C198.447 109.54 197.042 106.952 195.886 104.981C194.876 103.242 194.21 102.014 195.264 100.864C196.383 99.6425 198.023 100.233 199.049 101.174C199.934 101.984 200.45 103.304 200.36 104.361L203.271 104.098Z" fill="white"/>
<path d="M200.225 110.876C196.642 114.787 197.01 120.105 200.868 123.639C204.779 127.222 210.108 127.125 213.691 123.214C217.371 119.197 216.841 114.056 212.93 110.473C209.072 106.939 203.905 106.859 200.225 110.876ZM202.649 113.097C205.016 110.514 208.564 110.087 211.148 112.454C213.749 114.837 213.634 118.409 211.267 120.993C208.819 123.665 205.283 124.007 202.718 121.656C200.169 119.321 200.201 115.77 202.649 113.097Z" fill="white"/>
<path d="M215.242 124.635C211.659 128.546 212.028 133.863 215.885 137.398C219.796 140.981 225.126 140.884 228.709 136.973C232.389 132.956 231.858 127.815 227.947 124.232C224.09 120.698 218.922 120.618 215.242 124.635ZM217.666 126.856C220.033 124.272 223.582 123.845 226.166 126.212C228.767 128.596 228.651 132.168 226.284 134.752C223.836 137.424 220.301 137.765 217.735 135.414C215.187 133.08 215.218 129.528 217.666 126.856Z" fill="white"/>
<path d="M225.089 145.244L227.319 147.287L236.187 137.607L236.223 137.64L233.3 152.767L236.132 155.361L247.61 142.832L245.381 140.79L236.788 150.168L236.753 150.136L239.523 135.423L236.568 132.716L225.089 145.244Z" fill="white"/>
</svg>
