<svg width="240" height="141" viewBox="0 0 240 141" fill="none" xmlns="http://www.w3.org/2000/svg">
<path d="M142.088 89.1865V136.855" stroke="#2E1E00" stroke-miterlimit="10" stroke-linecap="round" stroke-linejoin="round"/>
<path d="M134.308 71.2359C134.308 76.6862 135.43 81.5629 137.203 84.9009C138.689 87.6652 140.619 89.3603 142.732 89.3603C147.374 89.3603 151.155 81.2499 151.155 71.2619C151.155 68.9149 150.946 66.6722 150.555 64.612C149.329 57.9099 146.278 53.1636 142.732 53.1636C138.09 53.1376 134.308 61.2218 134.308 71.2359Z" fill="#FDEAA7" stroke="#2E1E00" stroke-miterlimit="10" stroke-linecap="round" stroke-linejoin="round"/>
<path d="M137.203 84.8753C138.689 87.6396 140.619 89.3347 142.732 89.3347C147.374 89.3347 151.155 81.2244 151.155 71.2364C151.155 68.8893 150.946 66.6466 150.555 64.5864C147.035 66.8552 141.193 72.3317 137.203 84.8753Z" fill="#50C56E" stroke="#2E1E00" stroke-miterlimit="10" stroke-linecap="round" stroke-linejoin="round"/>
<path d="M148.26 84.8753C146.774 87.6396 144.844 89.3347 142.731 89.3347C138.089 89.3347 134.308 81.2244 134.308 71.2364C134.308 68.8893 134.517 66.6466 134.908 64.5864C138.429 66.8552 144.296 72.3317 148.26 84.8753Z" fill="#50C56E" stroke="#2E1E00" stroke-miterlimit="10" stroke-linecap="round" stroke-linejoin="round"/>
<path d="M92.0364 71.3096V136.854" stroke="#2E1E00" stroke-miterlimit="10" stroke-linecap="round" stroke-linejoin="round"/>
<path d="M53.9016 52.2427V138.046" stroke="#2E1E00" stroke-miterlimit="10" stroke-linecap="round" stroke-linejoin="round"/>
<path d="M117.062 48.6675L118.254 136.854" stroke="#2E1E00" stroke-miterlimit="10" stroke-linecap="round" stroke-linejoin="round"/>
<path d="M53.9016 86.0247L46.2142 72.5015L25.3005 114.211L45.2566 88.4907L53.9016 99.548V86.0247Z" fill="#50C56E" stroke="#2E1E00" stroke-miterlimit="10" stroke-linecap="round" stroke-linejoin="round"/>
<path d="M44.3682 89.1865L43.1765 85.6113" stroke="#2E1E00" stroke-miterlimit="10" stroke-linecap="round" stroke-linejoin="round"/>
<path d="M54.4976 62.9688C48.9032 62.9688 44.3681 52.2979 44.3681 39.1346C44.3681 25.9713 48.9032 15.3003 54.4976 15.3003C60.092 15.3003 64.6272 25.9713 64.6272 39.1346C64.6272 52.2979 60.092 62.9688 54.4976 62.9688Z" fill="#FDEAA7" stroke="#2E1E00" stroke-miterlimit="10" stroke-linecap="round" stroke-linejoin="round"/>
<path d="M50.3264 60.896C51.5982 62.2247 52.976 62.9688 54.4598 62.9688C55.4136 62.9688 56.3145 62.6499 57.1888 62.0918C58.2487 61.1351 59.176 60.0987 60.0504 59.0092C70.4102 45.8812 67.9461 24.834 67.9461 24.834C66.4358 26.2424 65.0316 27.7041 63.7598 29.2188C51.4923 43.6755 50.3264 60.896 50.3264 60.896Z" fill="#50C56E" stroke="#2E1E00" stroke-miterlimit="10" stroke-linecap="round" stroke-linejoin="round"/>
<path d="M58.6685 60.896C57.3967 62.2247 56.0189 62.9688 54.5351 62.9688C53.5813 62.9688 52.6804 62.6499 51.8061 62.0918C50.7462 61.1351 49.8189 60.0987 48.9445 59.0092C38.5847 45.8812 41.0488 24.834 41.0488 24.834C42.5591 26.2424 43.9633 27.7041 45.2351 29.2188C57.5026 43.6755 58.6685 60.896 58.6685 60.896Z" fill="#50C56E" stroke="#2E1E00" stroke-miterlimit="10" stroke-linecap="round" stroke-linejoin="round"/>
<path d="M106.877 24.6269C106.877 34.2498 109.303 42.5427 112.797 46.2197C112.797 46.2197 113.423 36.7794 118.795 26.1134C120.62 22.4885 122.968 18.7071 126.019 15.1344C124.48 6.81545 120.96 1 116.865 1C112.901 1 109.459 6.47644 107.842 14.3781C107.242 17.4815 106.877 20.9499 106.877 24.6269Z" fill="#FDEAA7" stroke="#2E1E00" stroke-miterlimit="10" stroke-linecap="round" stroke-linejoin="round"/>
<path d="M112.824 46.2192C114.076 47.5232 115.432 48.2534 116.892 48.2534C117.831 48.2534 118.718 47.9404 119.578 47.3928C120.621 46.454 121.534 45.4369 122.395 44.3677C132.591 31.485 130.166 10.8311 130.166 10.8311C128.679 12.2132 127.297 13.6475 126.046 15.134C113.945 29.3205 112.824 46.2192 112.824 46.2192Z" fill="#50C56E" stroke="#2E1E00" stroke-miterlimit="10" stroke-linecap="round" stroke-linejoin="round"/>
<path d="M106.879 24.6281C106.879 34.251 109.304 42.5439 112.798 46.2209C112.798 46.2209 113.424 36.7806 118.796 26.1146C117.623 22.9852 114.754 17.926 107.87 14.3794C107.244 17.4827 106.879 20.9511 106.879 24.6281Z" fill="#50C56E" stroke="#2E1E00" stroke-miterlimit="10" stroke-linecap="round" stroke-linejoin="round"/>
<path d="M136.639 123.475C130.994 124.987 126.509 127.714 124.901 130.342C124.901 130.342 130.539 129.225 137.641 130.701C140.055 131.202 142.642 131.984 145.218 133.213C149.857 131.002 152.715 128.022 152.072 125.62C151.448 123.295 147.694 122.136 142.804 122.43C140.889 122.566 138.797 122.897 136.639 123.475Z" fill="#FDEAA7" stroke="#2E1E00" stroke-miterlimit="10" stroke-linecap="round" stroke-linejoin="round"/>
<path d="M124.905 130.358C124.337 131.297 124.122 132.208 124.352 133.065C124.499 133.615 124.822 134.086 125.279 134.505C125.994 134.97 126.734 135.345 127.496 135.682C136.658 139.639 148.394 134.969 148.394 134.969C147.35 134.314 146.291 133.729 145.222 133.228C134.996 128.359 124.905 130.358 124.905 130.358Z" fill="#50C56E" stroke="#2E1E00" stroke-miterlimit="10" stroke-linecap="round" stroke-linejoin="round"/>
<path d="M136.639 123.475C130.993 124.988 126.509 127.714 124.901 130.343C124.901 130.343 130.538 129.226 137.64 130.701C139.292 129.52 141.809 127.042 142.808 122.445C140.889 122.566 138.796 122.897 136.639 123.475Z" fill="#50C56E" stroke="#2E1E00" stroke-miterlimit="10" stroke-linecap="round" stroke-linejoin="round"/>
<path d="M88.0858 50.5704C92.4409 54.3257 94.5793 59.2806 95.5703 62.6968C96.7699 60.6627 98.1259 58.7329 99.6646 56.9857C97.8391 51.8743 95.1009 48.6406 92.0497 48.6406C90.6154 48.6406 89.2854 49.3187 88.0858 50.5704Z" fill="#50C56E" stroke="#2E1E00" stroke-miterlimit="10" stroke-linecap="round" stroke-linejoin="round"/>
<path d="M86.5207 91.9836C87.3813 93.3396 88.3201 94.3828 89.3372 95.0347C90.1978 95.6084 91.1105 95.8953 92.0232 95.8953C97.5518 95.8953 102.011 85.3075 102.011 72.2684C102.011 66.4269 101.125 61.0808 99.6381 56.9604C98.0995 58.7077 96.7434 60.6375 95.5438 62.6716C89.3633 73.155 87.1988 86.4289 86.5207 91.9836Z" fill="#50C56E" stroke="#2E1E00" stroke-miterlimit="10" stroke-linecap="round" stroke-linejoin="round"/>
<path d="M82.0347 72.2684C82.0347 80.4831 83.808 87.7328 86.5202 91.9836C87.1982 86.455 89.3888 73.1551 95.5693 62.6977C94.5523 59.2814 92.4399 54.3266 88.0849 50.5713C84.5121 54.1962 82.0347 62.5412 82.0347 72.2684Z" fill="#50C56E" stroke="#2E1E00" stroke-miterlimit="10" stroke-linecap="round" stroke-linejoin="round"/>
<path d="M53.863 123.574C57.5357 121.936 61.3077 122.058 63.7645 122.448C62.8344 121.083 62.0169 119.651 61.3693 118.157C57.5915 117.791 54.7301 118.561 53.8218 120.491C53.3948 121.399 53.428 122.443 53.863 123.574Z" fill="#50C56E" stroke="#2E1E00" stroke-miterlimit="10" stroke-linecap="round" stroke-linejoin="round"/>
<path d="M79.6029 136.891C80.7172 136.75 81.6568 136.467 82.3721 136.017C82.9913 135.643 83.4445 135.151 83.7162 134.574C85.362 131.075 79.9896 125.102 71.7385 121.22C68.042 119.481 64.3952 118.451 61.3453 118.165C61.9929 119.659 62.8104 121.091 63.7405 122.456C68.5345 129.487 76.2898 134.809 79.6029 136.891Z" fill="#50C56E" stroke="#2E1E00" stroke-miterlimit="10" stroke-linecap="round" stroke-linejoin="round"/>
<path d="M65.7918 133.862C70.99 136.308 76.1055 137.344 79.6027 136.893C76.3061 134.818 68.5421 129.473 63.7646 122.449C61.3 122.075 57.5358 121.937 53.8631 123.575C55.0933 126.915 59.6365 130.967 65.7918 133.862Z" fill="#50C56E" stroke="#2E1E00" stroke-miterlimit="10" stroke-linecap="round" stroke-linejoin="round"/>
<path d="M0.870361 137.956H239.213" stroke="#2E1E00" stroke-miterlimit="10" stroke-linecap="round" stroke-linejoin="round"/>
<path d="M160.553 116.937L160.553 116.936C160.854 116.673 161.24 116.537 161.6 116.456C161.596 116.382 161.596 116.305 161.602 116.229C161.627 115.919 161.755 115.596 162.082 115.347L162.082 115.347C162.404 115.102 162.746 114.98 163.094 115.03C163.432 115.078 163.673 115.275 163.83 115.448C163.947 115.577 164.04 115.719 164.106 115.829C164.249 115.814 164.423 115.804 164.603 115.815C164.815 115.828 165.082 115.872 165.321 116.01C165.581 116.158 165.791 116.408 165.855 116.77L165.855 116.77C165.902 117.037 165.86 117.315 165.789 117.56C165.716 117.811 165.602 118.064 165.467 118.296C165.208 118.742 164.825 119.198 164.412 119.416L164.178 118.975L164.412 119.416C164.392 119.427 164.371 119.437 164.35 119.448L160.553 116.937ZM160.553 116.937C160.182 117.261 160.019 117.694 160.159 118.134M160.553 116.937L160.159 118.134M160.159 118.134C160.282 118.521 160.605 118.795 160.926 118.955M160.159 118.134L160.926 118.955M160.926 118.955C161.326 119.154 161.928 119.38 162.533 119.511M160.926 118.955L162.533 119.511M162.533 119.511C162.837 119.577 163.155 119.622 163.457 119.623M162.533 119.511L163.457 119.623M163.457 119.623C163.754 119.624 164.072 119.583 164.35 119.448L163.457 119.623ZM163.776 115.883C163.774 115.883 163.772 115.884 163.771 115.884L163.771 115.884C163.773 115.884 163.774 115.883 163.776 115.883Z" fill="#FEFFFA" stroke="#2E1E00" stroke-linejoin="round"/>
<path d="M155.332 132.711C154.998 133.237 154.322 135.066 153.782 136.887C153.573 137.592 153.862 138.227 154.588 138.342C163.302 139.714 218.128 140.513 218.961 135.113C219.288 132.995 217.703 131.861 215.651 130.727C214.067 129.85 212.297 129.381 210.501 129.35C209.568 129.334 208.698 128.806 208.252 127.986C207.289 126.214 205.845 124.732 204.072 123.717C202.307 122.707 200.304 122.21 198.289 122.265C197.34 122.292 196.432 121.785 195.954 120.964C195.129 119.547 193.991 118.327 192.616 117.4C190.788 116.167 188.628 115.511 186.418 115.519C184.209 115.527 182.053 116.197 180.233 117.443C178.414 118.689 177.014 120.452 176.218 122.501C175.95 123.192 175.051 123.49 174.41 123.119C173.447 122.561 172.381 122.188 171.269 122.027C169.611 121.787 167.919 122.027 166.394 122.718C164.869 123.408 163.577 124.52 162.67 125.921C161.764 127.322 161.282 128.953 161.282 130.619C161.282 130.854 161.029 131.018 160.809 130.932C160.275 130.722 159.704 130.615 159.126 130.618C158.368 130.623 157.623 130.817 156.96 131.182C156.297 131.548 155.737 132.074 155.332 132.711Z" fill="#FEFFFA" stroke="#2E1E00" stroke-linejoin="round"/>
<path d="M195.148 129.028C195.081 129.067 195.016 129.11 194.954 129.154C194.662 129.365 194.353 129.682 194.097 130.034C193.843 130.383 193.613 130.806 193.521 131.238C193.427 131.678 193.467 132.19 193.851 132.592L193.851 132.592C194.276 133.035 195.017 133.26 195.666 133.236C195.929 133.227 196.211 133.174 196.472 133.059C196.55 133.213 196.655 133.351 196.785 133.47C197.185 133.834 197.747 133.949 198.241 133.871C198.742 133.792 199.257 133.502 199.512 132.955C199.685 132.583 199.713 132.151 199.592 131.677C199.644 131.663 199.696 131.646 199.748 131.625C200.026 131.51 200.283 131.279 200.387 130.895C200.483 130.543 200.435 130.121 200.27 129.629L200.27 129.629C200.103 129.134 199.887 128.769 199.611 128.535C199.317 128.286 198.99 128.216 198.695 128.254C198.63 128.262 198.567 128.276 198.508 128.293C198.464 128.165 198.408 128.028 198.338 127.894C198.196 127.623 197.976 127.326 197.638 127.133C197.286 126.932 196.859 126.877 196.376 127.005L196.375 127.005C195.833 127.149 195.41 127.509 195.217 128.011C195.095 128.329 195.074 128.677 195.148 129.028Z" fill="#FEFFFA" stroke="#2E1E00" stroke-miterlimit="10" stroke-linecap="round" stroke-linejoin="round"/>
<path d="M173.107 129.881L173.107 129.881C172.833 129.993 172.554 129.985 172.323 129.94C172.091 129.895 171.874 129.807 171.697 129.719C171.527 129.635 171.378 129.543 171.269 129.469C171.267 129.47 171.265 129.471 171.264 129.473C171.19 129.521 171.107 129.582 171.004 129.657L170.998 129.661C170.897 129.735 170.781 129.82 170.66 129.901C170.429 130.055 170.124 130.235 169.795 130.296C169.425 130.366 169.025 130.284 168.712 129.929M173.107 129.881L168.712 129.929M173.107 129.881C173.397 129.762 173.608 129.538 173.758 129.31C173.909 129.079 174.02 128.811 174.097 128.544C174.247 128.024 174.295 127.417 174.193 126.965C174.15 126.777 174.058 126.599 173.936 126.432L173.936 126.432C173.703 126.112 173.326 125.932 172.974 125.83C172.607 125.723 172.19 125.679 171.785 125.685C171.379 125.691 170.963 125.749 170.598 125.864C170.248 125.975 169.877 126.159 169.645 126.467L170.044 126.768M173.107 129.881L170.044 126.768M168.712 129.929C168.464 129.649 168.397 129.31 168.495 128.988C168.581 128.705 168.779 128.48 168.965 128.32C169.114 128.191 169.29 128.074 169.472 127.977M168.712 129.929L169.472 127.977M169.472 127.977C169.448 127.887 169.432 127.8 169.422 127.721C169.397 127.53 169.397 127.334 169.409 127.169C169.419 127.026 169.444 126.838 169.507 126.697L169.472 127.977ZM170.044 126.768L169.645 126.467C169.592 126.536 169.545 126.613 169.507 126.697L170.044 126.768Z" fill="#FEFFFA" stroke="#2E1E00" stroke-linejoin="round"/>
<path d="M103.387 94.6074C103.319 94.6462 103.254 94.6893 103.193 94.7337C102.901 94.9451 102.591 95.2611 102.335 95.6132C102.081 95.9628 101.851 96.3855 101.759 96.8178C101.665 97.2576 101.705 97.7695 102.09 98.1714L102.09 98.1714C102.514 98.6151 103.255 98.8391 103.904 98.8159C104.167 98.8065 104.45 98.7534 104.71 98.6389C104.788 98.7928 104.893 98.9307 105.024 99.0493C105.424 99.4141 105.985 99.5287 106.48 99.4509C106.98 99.3721 107.495 99.0815 107.75 98.5342C107.924 98.1628 107.951 97.7301 107.831 97.2564C107.882 97.2427 107.934 97.2256 107.986 97.2042C108.265 97.0898 108.521 96.859 108.626 96.475C108.721 96.1228 108.673 95.7001 108.508 95.2082L108.508 95.2081C108.342 94.7132 108.126 94.3483 107.849 94.1143C107.555 93.8656 107.229 93.796 106.933 93.8336C106.868 93.8419 106.805 93.8553 106.746 93.8721C106.702 93.7443 106.647 93.608 106.576 93.4732C106.434 93.2029 106.214 92.9054 105.876 92.7128C105.524 92.5119 105.097 92.4564 104.614 92.5842L104.614 92.5843C104.071 92.7283 103.649 93.0891 103.456 93.5909C103.334 93.9081 103.313 94.2562 103.387 94.6074Z" fill="#FEFFFA" stroke="#2E1E00" stroke-miterlimit="10" stroke-linecap="round" stroke-linejoin="round"/>
<path d="M81.345 95.4605L81.345 95.4605C81.0712 95.5727 80.7917 95.5641 80.5612 95.5194C80.3292 95.4745 80.1122 95.3865 79.9351 95.2986C79.7653 95.2145 79.616 95.1222 79.5067 95.0489C79.5051 95.05 79.5035 95.051 79.5019 95.0521C79.4283 95.1008 79.3449 95.1618 79.2423 95.2369L79.2367 95.241C79.1356 95.3149 79.0196 95.3996 78.8985 95.4804C78.6671 95.635 78.362 95.8143 78.0333 95.876C77.6636 95.9455 77.2631 95.8633 76.9498 95.5087M81.345 95.4605L76.9498 95.5087M81.345 95.4605C81.6349 95.3416 81.8463 95.1176 81.9957 94.8899C82.1472 94.659 82.2579 94.3903 82.3348 94.124C82.4852 93.6032 82.5331 92.9962 82.4309 92.5449C82.3884 92.3568 82.2964 92.179 82.1743 92.0114L82.1743 92.0113C81.9414 91.6918 81.5639 91.5116 81.2117 91.4094C80.8452 91.303 80.4279 91.2583 80.0229 91.2647C79.6175 91.2711 79.2014 91.3289 78.8366 91.4437C78.4859 91.5541 78.115 91.7384 77.8828 92.0463L78.282 92.3474M81.345 95.4605L78.282 92.3474M76.9498 95.5087C76.7022 95.2285 76.6353 94.8898 76.7331 94.5675C76.819 94.2843 77.017 94.0599 77.2032 93.8991C77.3522 93.7704 77.5278 93.6537 77.7101 93.5568M76.9498 95.5087L77.7101 93.5568M77.7101 93.5568C77.6858 93.467 77.6704 93.3794 77.6602 93.301C77.6353 93.1092 77.6347 92.9132 77.647 92.7485C77.6576 92.6055 77.6825 92.4172 77.7454 92.277L77.7101 93.5568ZM78.282 92.3474L77.8828 92.0463C77.8306 92.1156 77.7833 92.1925 77.7454 92.2768L78.282 92.3474Z" fill="#FEFFFA" stroke="#2E1E00" stroke-linejoin="round"/>
</svg>
