<svg width="60" height="60" viewBox="0 0 60 60" fill="none" xmlns="http://www.w3.org/2000/svg">
<g clip-path="url(#clip0_1809_39205)">
<path d="M30.0772 44.8164C30.0772 53.0628 23.3915 59.7483 15.1453 59.7483C6.89893 59.7483 0.213135 53.0628 0.213135 44.8164" fill="black"/>
<path d="M15.1453 37.3505C15.1453 41.4738 11.8022 44.8165 7.6791 44.8165C3.55603 44.8165 0.213135 41.4736 0.213135 37.3505C0.213135 33.2274 3.55629 29.8843 7.6791 29.8843C11.8022 29.8843 15.1453 33.2272 15.1453 37.3505Z" fill="black"/>
<path d="M30.0773 37.3505C30.0773 41.4738 26.7344 44.8165 22.611 44.8165C18.488 44.8165 15.1453 41.4736 15.1453 37.3505C15.1453 33.2274 18.4882 29.8843 22.611 29.8843C26.7346 29.8843 30.0773 33.2272 30.0773 37.3505Z" fill="black"/>
<path d="M30.0772 14.9521C30.0772 23.1985 23.3915 29.8843 15.1453 29.8843C6.89893 29.8843 0.213135 23.1985 0.213135 14.9521" fill="black"/>
<path d="M15.1453 7.48598C15.1453 11.6091 11.8022 14.9522 7.6791 14.9522C3.55603 14.9522 0.213135 11.6091 0.213135 7.48598C0.213135 3.36292 3.55629 0.0200195 7.6791 0.0200195C11.8022 0.0200195 15.1453 3.36292 15.1453 7.48598Z" fill="black"/>
<path d="M30.0773 7.48598C30.0773 11.6091 26.7344 14.9522 22.611 14.9522C18.488 14.9522 15.1453 11.6091 15.1453 7.48598C15.1453 3.36292 18.4882 0.0200195 22.611 0.0200195C26.7346 0.0200195 30.0773 3.36292 30.0773 7.48598Z" fill="black"/>
<path d="M59.9414 44.8164C59.9414 53.0628 53.2558 59.7483 45.0094 59.7483C36.7633 59.7483 30.0775 53.0628 30.0775 44.8164" fill="black"/>
<path d="M45.0094 37.3505C45.0094 41.4738 41.6665 44.8165 37.5435 44.8165C33.4204 44.8165 30.0775 41.4736 30.0775 37.3505C30.0775 33.2274 33.4207 29.8843 37.5435 29.8843C41.6665 29.8843 45.0094 33.2272 45.0094 37.3505Z" fill="black"/>
<path d="M59.9414 37.3505C59.9414 41.4738 56.5985 44.8165 52.4754 44.8165C48.3524 44.8165 45.0095 41.4736 45.0095 37.3505C45.0095 33.2274 48.3526 29.8843 52.4754 29.8843C56.5985 29.8843 59.9414 33.2272 59.9414 37.3505Z" fill="black"/>
<path d="M59.9414 14.9521C59.9414 23.1985 53.2558 29.8843 45.0094 29.8843C36.7633 29.8843 30.0775 23.1985 30.0775 14.9521" fill="black"/>
<path d="M45.0094 7.48598C45.0094 11.6091 41.6665 14.9522 37.5435 14.9522C33.4204 14.9522 30.0775 11.6091 30.0775 7.48598C30.0775 3.36292 33.4207 0.0200195 37.5435 0.0200195C41.6665 0.0200195 45.0094 3.36292 45.0094 7.48598Z" fill="black"/>
<path d="M59.9414 7.48598C59.9414 11.6091 56.5985 14.9522 52.4754 14.9522C48.3524 14.9522 45.0095 11.6091 45.0095 7.48598C45.0095 3.36292 48.3526 0.0200195 52.4754 0.0200195C56.5985 0.0200195 59.9414 3.36292 59.9414 7.48598Z" fill="black"/>
</g>
<defs>
<clipPath id="clip0_1809_39205">
<rect width="60" height="60" fill="white"/>
</clipPath>
</defs>
</svg>
