<svg width="249" height="249" viewBox="0 0 249 249" fill="none" xmlns="http://www.w3.org/2000/svg">
<path d="M166 166C166 211.839 128.84 249 82.9991 249C37.1602 249 0 211.839 0 166H166Z" fill="black"/>
<path d="M165.999 20.7515V145.252C165.999 156.71 156.711 165.999 145.252 165.999C133.788 165.999 124.5 156.71 124.5 145.252C124.5 156.71 115.212 165.999 103.749 165.999C92.29 165.999 83.0024 156.71 83.0024 145.252C83.0024 156.71 73.7099 165.999 62.251 165.999C50.7921 165.999 41.4987 156.71 41.4987 145.252C41.4987 156.71 32.2103 165.999 20.7514 165.999C9.28837 165.999 0 156.71 0 145.252V103.748C0 92.2895 9.28837 83.002 20.7514 83.002C32.2103 83.002 41.4987 92.2895 41.4987 103.748C41.4987 92.2895 50.7913 83.002 62.2501 83.002C73.709 83.002 83.0016 92.2895 83.0016 103.748C83.0016 92.2895 92.29 83.002 103.748 83.002C115.212 83.002 124.499 92.2895 124.499 103.748V20.7515C124.499 9.28758 133.788 0 145.251 0C156.711 0 165.999 9.28758 165.999 20.7515Z" fill="black"/>
<path d="M186.749 207.5C181.439 207.5 176.128 205.474 172.077 201.422C163.974 193.32 163.974 180.181 172.077 172.078L213.576 130.578C221.68 122.474 234.819 122.474 242.922 130.578C251.025 138.681 251.025 151.82 242.922 159.923L201.422 201.422C197.37 205.474 192.061 207.5 186.749 207.5Z" fill="black"/>
</svg>
