<svg width="105" height="97" viewBox="0 0 105 97" fill="none" xmlns="http://www.w3.org/2000/svg">
<path d="M79.4019 36.4364C81.0367 29.1752 79.8095 21.2894 75.2818 14.6529C66.6384 1.94702 49.3295 -1.34464 36.6192 7.30318C25.9113 14.5909 21.9197 28.0234 26.0974 39.6705C22.2874 40.3261 18.5571 41.7615 15.1547 44.0741C2.44435 52.7264 -0.842877 70.0397 7.80051 82.7412C16.4483 95.4515 33.7572 98.7387 46.4676 90.0954C49.6485 87.9334 52.2313 85.231 54.1895 82.2051C63.3158 92.6826 79.0298 94.9332 90.7965 86.9189C103.507 78.2755 106.803 60.9622 98.1507 48.2563C93.6363 41.6153 86.7561 37.575 79.4019 36.4364Z" fill="white" stroke="#111827" stroke-width="4" stroke-miterlimit="10" stroke-linecap="round" stroke-linejoin="round"/>
</svg>
