<svg width="24" height="26" viewBox="0 0 24 26" fill="none" xmlns="http://www.w3.org/2000/svg">
<path d="M18.3229 9.20197C17.9805 9.20391 17.64 9.25158 17.3103 9.34373C17.4213 8.71525 17.4772 8.07828 17.4773 7.44007C17.4773 3.89601 15.7964 1 13.7206 1C12.2017 1 10.8601 2.58976 10.2778 4.86809C9.63372 4.23893 8.85731 3.76147 8.0052 3.47054C7.15309 3.1796 6.24674 3.08251 5.35234 3.18636C4.45794 3.29022 3.59803 3.59241 2.83527 4.07087C2.0725 4.54932 1.42614 5.19199 0.943334 5.95201C0.460526 6.71203 0.153429 7.57023 0.0444629 8.46402C-0.0645035 9.35781 0.0274292 10.2647 0.313494 11.1184C0.599559 11.9722 1.07255 12.7513 1.69802 13.399C2.32349 14.0467 3.08563 14.5466 3.92888 14.8623C3.47476 15.773 3.2326 16.7746 3.22055 17.7921C3.2085 18.8096 3.42687 19.8166 3.85929 20.7378C4.29171 21.6589 4.92696 22.4702 5.71748 23.111C6.50799 23.7517 7.43329 24.2053 8.42398 24.4376C9.41467 24.67 10.4451 24.6751 11.4381 24.4527C12.4311 24.2303 13.3608 23.786 14.1577 23.1532C14.9546 22.5204 15.5979 21.7155 16.0395 20.7987C16.4812 19.882 16.7096 18.8772 16.7078 17.8596C16.7068 17.4521 16.6695 17.0454 16.5964 16.6445C17.1367 16.916 17.7333 17.0565 18.338 17.0546C18.8655 17.0736 19.3914 16.986 19.8843 16.7972C20.3772 16.6084 20.827 16.3223 21.2069 15.9558C21.5867 15.5894 21.8888 15.1501 22.0952 14.6643C22.3015 14.1785 22.4079 13.6561 22.4079 13.1283C22.4079 12.6005 22.3015 12.0781 22.0952 11.5923C21.8888 11.1065 21.5867 10.6672 21.2069 10.3008C20.827 9.9343 20.3772 9.64814 19.8843 9.45935C19.3914 9.27057 18.8655 9.18303 18.338 9.20197H18.3229Z" fill="#FEFFFA"/>
<path d="M10.5512 25.3349C8.62869 25.3309 6.78618 24.565 5.42724 23.2052C4.0683 21.8453 3.30375 20.0022 3.30107 18.0797C3.30066 17.1417 3.48471 16.2127 3.84278 15.3457C2.49579 14.7096 1.40558 13.6338 0.751611 12.2954C0.0976394 10.957 -0.0811301 9.43583 0.244822 7.98231C0.570774 6.52879 1.38197 5.2296 2.54484 4.29863C3.70772 3.36767 5.15298 2.86044 6.64261 2.86046C8.07497 2.85853 9.4681 3.32824 10.6069 4.19707C11.3511 2.05544 12.7536 0.713776 14.3079 0.713776C16.6976 0.713776 18.5709 3.75155 18.5709 7.66014C18.5703 8.0864 18.5466 8.5123 18.5 8.936C19.0975 8.87871 19.7003 8.94328 20.2721 9.1258C20.8439 9.30832 21.3726 9.60499 21.8264 9.99785C22.2801 10.3907 22.6494 10.8716 22.9119 11.4113C23.1744 11.9511 23.3246 12.5385 23.3534 13.138C23.3822 13.7375 23.289 14.3366 23.0795 14.8991C22.87 15.4615 22.5485 15.9756 22.1345 16.4101C21.7205 16.8447 21.2227 17.1907 20.671 17.4272C20.1194 17.6637 19.5255 17.7858 18.9253 17.786C18.5405 17.7867 18.1574 17.7356 17.7862 17.6341C17.7862 17.786 17.7862 17.9329 17.7862 18.0797C17.7848 20 17.0228 21.8415 15.6669 23.2013C14.3109 24.561 12.4715 25.3282 10.5512 25.3349ZM6.64261 3.87305C5.35898 3.90072 4.1243 4.37104 3.14761 5.20442C2.17092 6.03781 1.51218 7.18305 1.28288 8.44633C1.05357 9.70961 1.26781 11.0133 1.88929 12.1368C2.51078 13.2603 3.50137 14.1345 4.69338 14.6116C4.75988 14.6362 4.82043 14.6745 4.87119 14.724C4.92195 14.7735 4.96175 14.8331 4.988 14.899C5.01425 14.9648 5.02639 15.0355 5.0236 15.1063C5.02081 15.1772 5.00316 15.2467 4.97181 15.3103C4.53961 16.1695 4.31426 17.1179 4.31366 18.0797C4.31366 19.734 4.97081 21.3205 6.14058 22.4903C7.31034 23.6601 8.89689 24.3172 10.5512 24.3172C12.2055 24.3172 13.792 23.6601 14.9618 22.4903C16.1316 21.3205 16.7887 19.734 16.7887 18.0797C16.7868 17.7026 16.7513 17.3265 16.6824 16.9557C16.666 16.8634 16.6756 16.7684 16.7101 16.6812C16.7446 16.594 16.8025 16.5181 16.8776 16.4619C16.9527 16.4058 17.0419 16.3715 17.1353 16.3631C17.2286 16.3546 17.3225 16.3722 17.4064 16.414C17.8687 16.6444 18.3771 16.7672 18.8935 16.7732C19.4099 16.7792 19.9211 16.6683 20.3885 16.4487C20.856 16.2291 21.2677 15.9065 21.5928 15.5052C21.9179 15.1039 22.1479 14.6342 22.2657 14.1313C22.3835 13.6284 22.3859 13.1054 22.2728 12.6015C22.1597 12.0975 21.934 11.6257 21.6127 11.2214C21.2913 10.8171 20.8827 10.4907 20.4173 10.2668C19.9519 10.0428 19.4418 9.92713 18.9253 9.92834C18.6226 9.9292 18.3212 9.97007 18.0292 10.0499C17.9465 10.0723 17.8594 10.0734 17.7762 10.053C17.6929 10.0327 17.6162 9.9915 17.5532 9.9334C17.4905 9.87598 17.4432 9.80366 17.4158 9.72313C17.3883 9.64261 17.3817 9.55647 17.3963 9.47267C17.5043 8.87454 17.5585 8.26795 17.5583 7.66014C17.5583 4.44517 16.0698 1.72637 14.3079 1.72637C13.0726 1.72637 11.8878 3.12879 11.3562 5.20966C11.3344 5.29609 11.2903 5.37525 11.2282 5.43914C11.1661 5.50303 11.0881 5.54939 11.0024 5.57353C10.9166 5.59767 10.826 5.59874 10.7396 5.57664C10.6533 5.55453 10.5743 5.51002 10.5107 5.44762C9.47679 4.43724 8.08824 3.87202 6.64261 3.87305Z" fill="#2E1E00"/>
</svg>
