<svg width="426" height="294" viewBox="0 0 426 294" fill="none" xmlns="http://www.w3.org/2000/svg">
<mask id="mask0_2670_24797" style="mask-type:alpha" maskUnits="userSpaceOnUse" x="0" y="0" width="426" height="294">
<rect width="426" height="294" fill="#C4C4C4"/>
</mask>
<g mask="url(#mask0_2670_24797)">
<path d="M159.43 143.922L143.54 172.465L172.832 164.389L182.454 149.746L159.43 143.922Z" fill="#73B7EA" stroke="#2E1E00" stroke-width="1.5" stroke-miterlimit="10" stroke-linecap="round" stroke-linejoin="round"/>
<path d="M198.091 188.13C198.091 188.13 318.306 109.392 334.323 25.4477L334.37 25.1404C252.186 15.1054 142.8 109.221 142.8 109.221C142.8 109.221 159.704 160.943 198.091 188.13Z" fill="#ADF0E7" stroke="#2E1E00" stroke-width="1.5" stroke-miterlimit="10" stroke-linecap="round" stroke-linejoin="round"/>
<path d="M111.115 89.9799C111.115 89.9799 153.321 93.0355 168.585 105.618L142.8 109.221C142.8 109.221 130.68 98.4434 111.115 89.9799Z" fill="#73B7EA" stroke="#2E1E00" stroke-width="1.5" stroke-miterlimit="10" stroke-linecap="round" stroke-linejoin="round"/>
<path d="M188.971 222.711C188.971 222.711 214.17 187.423 214.828 167.223L195.448 185.228C195.495 185.201 195.502 201.783 188.971 222.711Z" fill="#73B7EA" stroke="#2E1E00" stroke-width="1.5" stroke-miterlimit="10" stroke-linecap="round" stroke-linejoin="round"/>
<path d="M201.339 132.118C208.017 134.075 215.001 130.065 216.938 123.161C218.875 116.257 215.031 109.074 208.353 107.116C201.675 105.159 194.691 109.17 192.754 116.074C190.817 122.978 194.661 130.161 201.339 132.118Z" stroke="#2E1E00" stroke-width="1.5" stroke-miterlimit="10" stroke-linecap="round" stroke-linejoin="round"/>
<path d="M272.655 98.5425C269.624 102.15 265.744 104.907 261.406 106.526C258.667 107.57 255.74 108.037 252.852 107.953C250.389 107.874 246.471 107.167 244.128 106.521C235.373 103.955 228.032 102.165 219.423 99.08C216.497 98.0217 213.473 96.8948 210.796 95.227C209.573 94.467 207.387 92.9835 207.897 91.1659C208.719 88.2355 211.52 88.4943 213.858 89.0189C224.436 91.3159 234.95 94.1162 245.209 97.6849C245.245 97.6955 245.317 97.7165 245.353 97.727C244.969 97.5742 244.203 95.1821 243.974 94.7536C243.445 93.5949 242.926 92.3991 242.361 91.2299C241.068 88.3623 239.74 85.4841 238.448 82.6164C237.013 79.426 235.568 76.2727 234.133 73.0822L232.861 70.4211L235.414 71.0088L241.356 72.3889C241.974 67.8331 249.835 64.0349 249.835 64.0349L249.839 61.6676L249.804 57.362C252.204 57.9447 254.507 59.4227 256.608 61.4836C260.121 64.8815 263.19 68.7516 265.878 72.8714C267.577 75.537 269.044 78.3354 270.582 81.1549C272.096 83.9267 273.815 86.5181 275.467 89.2102L277.047 92.162C277.057 92.1249 275.774 94.7598 272.655 98.5425Z" fill="#FFDC38" stroke="#2E1E00" stroke-width="1.5" stroke-miterlimit="10" stroke-linecap="round" stroke-linejoin="round"/>
<path d="M237.559 80.1079L249.05 74.4431" stroke="#2E1E00" stroke-width="1.5" stroke-miterlimit="10" stroke-linecap="round" stroke-linejoin="round"/>
<path d="M254.341 69.0088L246.515 73.0981C246.515 73.0981 250.315 76.58 253.981 74.7239C257.647 72.8678 254.341 69.0088 254.341 69.0088Z" fill="#2E1E00" stroke="#2E1E00" stroke-width="1.5" stroke-miterlimit="10" stroke-linecap="round" stroke-linejoin="round"/>
<path d="M258.804 66.9444L265.494 63.4453C265.494 63.4453 265.866 67.9303 262.796 69.5998C259.68 71.2959 258.804 66.9444 258.804 66.9444Z" fill="#2E1E00" stroke="#2E1E00" stroke-width="1.5" stroke-miterlimit="10" stroke-linecap="round" stroke-linejoin="round"/>
<path d="M255.956 70.7266L260.414 68.5404" stroke="#2E1E00" stroke-width="1.5" stroke-miterlimit="10" stroke-linecap="round" stroke-linejoin="round"/>
<path d="M259.288 75.8777C259.863 76.0461 260.464 75.701 260.63 75.1069C260.797 74.5128 260.466 73.8947 259.892 73.7263C259.317 73.5578 258.716 73.9029 258.549 74.4971C258.383 75.0912 258.713 75.7093 259.288 75.8777Z" fill="#2E1E00"/>
<path d="M255.265 77.0674C255.265 77.0674 256.967 80.1354 260.313 78.8678" stroke="#2E1E00" stroke-width="1.5" stroke-miterlimit="10" stroke-linecap="round" stroke-linejoin="round"/>
<path d="M239.066 83.3194L245.991 81.3345L241.224 87.8058L239.066 83.3194Z" fill="#2E1E00" stroke="#2E1E00" stroke-width="1.5" stroke-miterlimit="10" stroke-linecap="round" stroke-linejoin="round"/>
<path d="M242.319 90.1337L247.432 88.0997L243.602 92.7577L242.319 90.1337Z" fill="#2E1E00" stroke="#2E1E00" stroke-width="1.5" stroke-miterlimit="10" stroke-linecap="round" stroke-linejoin="round"/>
<path d="M153.693 154.405L165.076 153.967L158.99 144.797" fill="#2E1E00"/>
<path d="M153.693 154.405L165.076 153.967L158.99 144.797" stroke="#2E1E00" stroke-width="1.5" stroke-miterlimit="10" stroke-linecap="round" stroke-linejoin="round"/>
<path opacity="0.4" d="M246.501 98.0636C258.866 101.687 271.798 94.262 275.384 81.4784C278.971 68.6947 271.854 55.3939 259.489 51.77C247.123 48.1462 234.192 55.5717 230.605 68.3553C227.019 81.1389 234.135 94.4398 246.501 98.0636Z" fill="#FEFFFA" stroke="#2E1E00" stroke-width="1.5" stroke-miterlimit="10" stroke-linecap="round" stroke-linejoin="round"/>
<path d="M246.501 98.0636C258.866 101.687 271.798 94.262 275.384 81.4784C278.971 68.6947 271.854 55.3939 259.489 51.77C247.123 48.1462 234.192 55.5717 230.605 68.3553C227.019 81.1389 234.135 94.4398 246.501 98.0636Z" stroke="#2E1E00" stroke-width="1.5" stroke-miterlimit="10" stroke-linecap="round" stroke-linejoin="round"/>
<path opacity="0.15" d="M262.429 187.308L151.842 317.288L348.382 297.866L412.331 95.3335L307.584 225.715L262.429 187.308Z" fill="url(#paint0_linear_2670_24797)"/>
<path d="M151.594 314.8L254.824 197.288C259.487 191.98 267.535 191.368 272.947 195.909L298.302 217.184C303.941 221.916 312.38 221.026 316.908 215.222L411.316 94.2014" stroke="url(#paint1_linear_2670_24797)" stroke-width="5" stroke-linecap="round"/>
<path d="M402.857 95.5188L411.316 94.2014L412.33 102.08" stroke="#F37E2A" stroke-width="5" stroke-linecap="round"/>
<path d="M98.8242 190.22C98.6632 190.498 98.4365 190.699 98.1281 190.739C97.7234 190.838 97.1798 190.677 96.5424 190.326L96.2694 190.157L96.212 190.481C96.1108 191.034 95.9034 191.791 95.3658 192.279C94.9501 192.647 94.4077 192.785 93.7799 192.712C93.5764 192.674 93.4021 192.623 93.2363 192.551C92.8012 192.362 92.5794 192.067 92.4649 191.868C92.1298 191.25 92.2336 190.449 92.3641 189.883L92.4507 189.548L92.1045 189.621C91.6291 189.714 90.938 189.738 90.4005 189.381C89.8509 188.993 89.5706 188.299 89.5891 187.287C89.588 186.565 89.8477 185.98 90.339 185.546C91.2753 184.732 92.8526 184.744 93.4888 184.796L93.6095 184.798L93.6936 184.711C93.7863 184.601 93.8996 184.501 94.0544 184.419C94.9882 183.853 96.2522 183.978 97.098 184.718C98.2448 185.738 98.2543 187.285 98.1981 187.907L98.1968 188.031L98.2919 188.097C98.4979 188.311 99.3802 189.142 98.8242 190.22Z" fill="#FEFFFA"/>
<path d="M57.6238 181.08C57.7063 181.115 57.7681 181.141 57.8593 181.156C59.4247 181.651 60.3963 180.039 61.0269 179.382C61.4878 179.855 62.3936 180.544 62.847 180.738C62.6589 182.211 62.9385 183.308 63.6153 184.024C64.3333 184.757 65.3326 184.86 65.9228 184.837C65.9866 185.691 66.4191 186.829 67.6765 187.368C67.8208 187.429 67.965 187.491 68.1473 187.519C70.1978 188.073 70.9831 185.253 71.3913 184.251C72.2788 184.33 73.3921 183.856 74.1161 183.089C75.1699 181.988 75.293 180.437 75.289 179.258C75.4887 179.244 76.7744 179.118 76.9708 179.052C76.8599 179.681 76.481 180.671 76.8638 181.336C77.2466 182.001 77.9419 182.374 78.9325 182.498C79.0267 183.04 79.276 183.973 79.9962 184.583C80.1882 184.765 80.4063 184.884 80.633 184.981C81.0246 185.149 81.4803 185.219 81.9881 185.161C83.8315 184.974 83.9374 182.99 84.0376 181.555C84.0995 181.582 84.6647 181.799 84.7265 181.826C85.1181 181.994 85.4914 182.028 85.8787 181.969C86.6914 181.816 87.3395 180.641 87.7357 180.085C87.9851 180.542 88.3114 181.584 88.9037 181.913C89.6316 182.325 90.5039 182.323 91.4827 181.941C92.265 181.625 92.4377 181.023 92.6832 180.302C93.1045 179.029 92.3759 177.49 91.9714 176.64C92.0213 176.636 92.6061 176.686 92.6767 176.692C92.9436 176.631 93.5318 176.257 93.7661 176.157C93.7812 176.714 93.8569 177.598 94.3536 178.162C94.8504 178.726 95.7649 178.917 96.7458 178.887C96.5785 179.416 96.3461 180.344 96.6203 181.037C96.835 181.58 96.9521 182.006 97.5704 182.271C97.7353 182.342 97.9295 182.4 98.1237 182.458C99.1327 182.715 99.9573 182.593 100.58 182.134C100.896 181.893 101.139 181.296 101.29 180.985C101.554 181.348 101.895 181.996 102.39 182.208C103.061 182.521 103.793 182.509 104.584 182.171C106.488 181.359 107.081 179.785 107.258 178.934C107.623 178.99 108.046 179.021 108.504 178.967C109.211 178.894 109.782 178.563 110.178 178.006C110.834 177.11 110.678 175.59 110.638 174.797C111.073 174.858 112.085 174.691 112.516 174.525C112.845 174.966 113.279 175.803 114.124 176.166C114.598 176.369 114.982 176.734 115.5 176.53C116.5 176.157 117.355 175.246 117.769 174.171C118.009 173.522 118.058 172.867 117.94 172.265L117.96 172.274C119.096 172.16 120.244 170.472 120.692 169.788C121.265 170.284 122.413 171.327 123.467 171.178C124.162 171.075 124.432 170.89 124.823 170.106C125.912 167.968 125.05 165.744 124.483 164.7C125.662 164.303 126.325 162.258 126.556 161.455C127.47 161.647 128.797 162.015 129.667 160.534C130.673 158.836 129.522 156.965 128.921 156.182C129.12 155.991 129.324 155.728 129.516 155.434C131.189 152.695 130.133 150.413 129.972 150.094C129.707 149.379 129.4 149.122 128.805 148.917C128.19 148.704 127.499 149.034 127.039 149.212C126.989 148.264 126.689 146.207 125.771 145.312C124.864 144.447 123.709 144.904 122.988 145.071C122.994 144.698 123.013 143.88 122.951 143.377C122.746 141.861 122.065 140.918 120.944 140.638C120.179 140.435 120.028 140.746 119.49 141.117C119.115 141.382 118.703 142.157 118.535 142.511C117.941 141.53 116.511 139.514 115.199 139.228C114.885 139.168 114.672 139.452 114.384 139.505C114.305 139.045 114.094 138.078 113.817 137.332C113.157 135.622 112.043 134.493 110.605 134.102C109.208 133.728 108.029 134.601 107.266 135.702C106.751 134.529 105.557 132.765 103.7 132.746C102.666 132.728 102.19 133.125 101.656 133.723C101.262 134.155 101.095 134.685 101.03 135.083C100.438 134.929 99.1624 134.733 98.3486 135.186C98.2227 135.257 98.1174 135.337 98.0121 135.417C97.5089 134.751 96.433 133.588 95.1363 133.859C94.0361 134.064 93.7851 135.334 93.6698 136.211C93.0862 135.861 92.0426 135.213 91.1626 135.412C90.3912 135.582 90.0992 135.883 89.679 136.855C88.9809 138.51 89.1933 139.177 89.5935 139.8L89.9286 140.344C89.5889 140.524 88.7163 141.478 88.4189 141.851C87.5392 141.098 86.6476 140.315 85.7644 140.463C84.535 140.687 83.6352 142.005 83.2802 142.579C82.1888 142.287 81.2395 142.18 80.4495 142.693C79.9872 142.996 79.5908 144.029 79.3117 145.011C78.8192 144.675 77.9199 144.089 77.0682 144.1C76.2078 144.132 75.4537 144.259 74.7623 145.065C74.5757 145.286 74.1306 146.022 74.0144 146.248C73.4765 145.666 72.599 144.789 71.1993 145.016C70.1869 145.183 69.6194 145.566 69.2198 146.547C68.9071 147.315 68.9003 148.164 69.1659 148.879C68.5735 149.025 67.7119 149.358 67.1377 150.113C66.6569 150.759 66.4884 151.589 66.6498 152.559C66.7895 153.346 67.4631 154.01 68.0033 154.467C67.3642 154.669 66.0717 155.643 65.6375 156.234C65.0355 155.75 64.1655 155.152 63.5742 154.999C62.7302 154.812 62.4091 154.649 61.6027 155.381C60.3698 156.506 60.6481 158.378 61.6327 160.003C59.4985 160.19 58.9112 161.216 58.786 162.891C57.9419 162.704 56.4415 162.287 55.4779 162.75C54.9624 163.005 54.6586 163.276 54.577 163.892C54.3519 165.574 55.148 166.592 55.9116 167.094C55.471 167.582 54.9207 168.398 54.9204 169.35C54.9213 170.002 55.5112 170.931 56.0373 171.482C54.8045 172.131 52.963 173.145 53.2597 175.151C53.5596 177.208 55.2292 177.924 56.3814 178.067C56.1847 179.085 56.3665 180.541 57.6238 181.08Z" fill="#FEFFFA"/>
<path d="M81.5497 211.2C81.8382 211.324 81.8219 211.542 82.1832 211.547C82.8939 211.526 83.5091 211.264 83.9672 210.734C84.6878 209.915 84.9857 208.114 85.0337 207.283C85.5728 207.564 86.2529 208.332 87.0005 208.101C87.6982 207.874 88.1823 207.28 88.4733 206.328C89.2195 203.842 87.2672 201.502 86.2954 200.559C86.927 200.079 87.2625 199.195 87.2846 197.952C87.2846 197.952 87.2933 197.931 87.2727 197.922C87.468 197.68 88.2202 196.725 88.1055 195.699C88.0525 195.175 87.7532 194.721 87.252 194.406C85.9134 193.532 84.6134 194.227 83.9482 194.493C83.4092 193.736 81.8464 191.689 80.3947 191.567C79.8099 191.517 79.5614 191.711 79.1294 192.177C78.7061 192.622 78.5779 193.293 78.4693 193.798C77.5104 193.061 76.06 192.164 74.8134 191.955C72.8465 191.613 71.6536 193.056 70.7635 194.528L70.7374 194.592C70.6473 194.754 70.4877 195.086 70.3889 195.269C69.6069 194.633 68.7401 194.086 67.9926 193.841C66.7949 193.453 65.8673 193.531 65.2421 194.115C64.5204 194.758 64.3616 196.217 64.3776 196.951C63.8775 196.812 63.2288 196.383 62.6287 196.727C61.9906 197.105 61.6573 197.864 61.6168 198.974C61.5916 199.689 61.7336 200.351 62.0513 200.938C61.104 201.184 59.3657 201.766 58.5852 202.91C58.2184 203.454 58.0956 204.052 58.2169 204.706C58.6556 206.898 60.0496 207.696 60.7179 207.957C60.6689 208.612 60.6858 209.997 61.4439 211.049C61.7725 211.49 62.1738 211.812 62.6685 212.024C63.0189 212.175 63.3954 212.261 63.8098 212.313C66.302 212.555 67.4258 209.855 68.0599 208.299C68.7128 208.954 69.8084 209.95 70.557 209.895C71.2058 209.847 71.9916 209.107 72.3628 208.79C72.6532 209.741 73.0206 211.277 73.9894 211.692C74.3398 211.842 74.7542 211.895 75.2327 211.849C76.653 211.631 77.6525 210.782 78.2333 209.653C78.5818 208.976 78.6526 208.03 78.5162 207.295C78.8189 207.324 80.0199 207.288 80.2576 207.24C80.2421 208.11 80.0875 209.797 80.8977 210.72C81.1483 210.878 81.2817 211.085 81.5497 211.2Z" fill="#FEFFFA"/>
<path d="M49.6904 158.591C49.8367 159.005 50.1176 159.326 50.5624 159.541C50.583 159.55 50.6036 159.559 50.6242 159.568C51.0777 159.762 51.5095 159.772 51.911 159.618C52.2333 159.481 52.6349 158.852 52.8216 158.631C53.0819 158.943 53.3182 159.67 53.8444 159.746C54.3912 159.83 54.9186 159.605 55.4059 159.062C56.7018 157.664 55.982 155.627 54.6696 154.213C54.3475 153.874 54.0079 153.578 53.6511 153.325C52.4036 152.465 51.0485 152.285 49.7388 152.826C48.3704 153.391 47.3523 154.583 47.3064 155.766C47.2606 156.473 47.587 157.038 48.1793 157.367C48.7803 157.675 49.5746 157.389 49.962 157.33C49.8784 157.595 49.6004 158.277 49.6904 158.591Z" fill="#FEFFFA"/>
<path d="M64.644 148.093C64.9317 147.565 64.9221 146.934 64.6391 146.262C63.8704 144.404 61.8502 144.49 60.7477 144.819C60.4353 144.635 59.7139 144.326 58.9543 144.526C58.3326 144.686 57.8388 145.125 57.4523 145.837C56.9584 146.752 57.1122 147.444 57.3291 147.863C57.7867 148.76 58.8553 149.168 59.5464 149.314C59.505 149.772 59.5417 150.515 59.9354 151.034C60.0449 151.181 60.225 151.334 60.4723 151.44C60.6372 151.51 60.8607 151.556 61.1016 151.559C61.5833 151.565 61.9935 151.39 62.3234 151.056C62.7934 150.556 62.9064 149.803 62.9304 149.387C63.3818 149.23 64.2315 148.868 64.644 148.093Z" fill="#FEFFFA"/>
<path d="M52.2398 212.188C51.6996 211.731 51.1193 211.432 50.8719 211.326C50.4154 210.605 49.1755 209.547 47.3699 210.176C46.5843 210.44 46.2847 210.938 46.187 211.297C45.9339 212.216 46.5509 213.257 46.8915 213.728C46.6559 214.128 46.2846 214.921 46.3863 215.741C46.4719 216.304 46.7419 216.77 47.2257 217.128C47.3938 217.25 47.5707 217.351 47.7355 217.422C48.086 217.572 48.4386 217.598 48.7847 217.521C49.4271 217.37 49.9057 216.849 50.1445 216.5C50.5947 216.643 51.4182 216.821 52.1474 216.457C52.6921 216.19 53.0742 215.727 53.2816 215.039C53.5901 214.044 53.2258 213.037 52.2398 212.188Z" fill="#FEFFFA"/>
<path d="M78.7099 135.61C79.044 135.979 79.4942 136.122 79.8587 136.178C79.7544 136.91 79.9157 137.881 80.8845 138.296C81.9151 138.738 82.7659 138.075 83.2262 137.421C84.0278 137.89 85.334 138.249 86.3824 137.221C86.9403 136.683 87.0251 136.119 87.0111 135.737C86.9777 135.046 86.5601 134.466 86.2586 134.137C86.3954 133.92 86.5582 133.639 86.6679 133.31C87.0295 132.363 86.8659 131.516 86.2194 130.964C85.4666 130.315 84.666 130.022 83.8295 130.115C82.7141 130.238 81.8697 131.003 81.5311 131.359C80.4852 131.311 78.7252 131.709 78.346 133.651C78.1895 134.51 78.3108 135.164 78.7099 135.61Z" fill="#FEFFFA"/>
<path d="M74.4423 121.657C74.468 122.545 74.8723 123.871 76.2327 124.454C76.3358 124.498 76.4388 124.542 76.53 124.556C77.3187 124.819 77.8753 124.582 78.2031 124.371C78.9052 123.896 79.1876 122.965 79.2962 122.46C79.842 122.369 80.9065 122.073 81.3537 121.213C81.6675 120.621 81.6427 119.909 81.2415 119.111C80.1952 116.984 77.6813 117.034 76.3412 117.411C75.4896 116.946 73.8807 116.557 72.9277 117.827C72.4848 118.438 72.3479 119.131 72.581 119.807C72.9181 120.703 73.7208 121.348 74.4423 121.657Z" fill="#FEFFFA"/>
<path d="M60.487 128.576C60.1864 128.898 59.8282 129.421 59.7705 130.097C59.716 130.826 60.0109 131.528 60.6639 132.184C60.9416 132.453 61.2366 132.68 61.5252 132.803C61.8756 132.954 62.2195 133.001 62.5656 132.924C63.3197 132.796 63.8712 131.68 64.2034 131.221C64.5928 131.513 65.2262 132.336 65.8045 132.283C66.1832 132.245 66.5228 132.065 66.7822 131.725C67.4118 130.893 66.8012 129.955 66.4043 129.384C67.088 128.775 68.0843 127.875 67.5475 126.993C66.9099 125.943 64.9112 126.214 64.1278 126.354C63.7352 126.01 62.7589 125.316 61.8312 125.395C61.3527 125.44 60.9458 125.666 60.6397 126.061C60.2316 126.588 60.0556 127.139 60.1206 127.692C60.1932 128.049 60.3417 128.338 60.487 128.576Z" fill="#FEFFFA"/>
<path d="M40.26 165.696L40.2394 165.687C40.1569 165.652 38.5124 164.696 37.2287 165.173C36.6894 165.368 36.3041 165.779 36.0522 166.397C35.7775 167.131 35.8717 167.672 36.1656 168.199C36.4714 168.756 37.374 168.918 37.7537 169.055C37.6332 169.53 37.3421 170.482 37.6305 171.082C37.791 171.401 37.7811 171.722 38.0903 171.855C38.1522 171.881 38.1934 171.899 38.2552 171.926C39.2262 172.217 40.8291 171.075 41.4903 169.63C42.1981 168.13 41.7374 166.705 40.26 165.696Z" fill="#FEFFFA"/>
<path d="M48.1301 178.889C48.3093 178.389 48.876 177.355 48.6374 176.751C48.5269 176.428 48.2817 176.198 47.9932 176.074C47.0363 175.689 46.2756 176.19 45.9044 176.507C45.9044 176.507 45.9044 176.507 45.8838 176.498C44.9357 176.092 43.2985 175.891 42.3118 177.422C41.9015 178.072 41.7961 178.628 42.0075 179.12C42.2514 179.65 43.165 179.666 43.6033 179.779C43.3492 180.522 42.9484 181.803 43.8976 182.385C43.9714 182.442 44.0538 182.477 44.1363 182.512C45.0432 182.901 45.8593 182.324 46.3347 181.751C46.7566 182.082 47.4878 182.546 48.2332 182.44C48.5912 182.393 49.0893 182.18 49.4964 181.478C49.8394 180.874 49.8949 180.321 49.6922 179.809C49.4331 179.197 48.5424 179.065 48.1301 178.889Z" fill="#FEFFFA"/>
<path d="M34.4692 194.952C34.2175 195.094 33.9168 195.416 33.8559 196.041C33.8145 196.5 33.9403 196.904 34.2125 197.246C34.7656 197.909 35.7713 198.115 36.2151 198.155C36.4287 198.522 36.8159 198.938 37.2694 199.133C37.5992 199.274 37.9724 199.309 38.3739 199.155C39.0011 198.923 39.3995 198.242 39.4388 197.432C39.4727 196.695 39.219 196.011 38.7439 195.632C38.821 195.264 38.8939 194.669 38.6206 194.151C38.484 193.892 38.2031 193.571 37.6031 193.439C36.9945 193.329 36.6255 193.521 36.4182 193.733C36.1057 194.025 36.0567 194.68 36.0381 195.023C35.6117 194.94 34.9228 194.67 34.4692 194.952Z" fill="#FEFFFA"/>
<path d="M91.8958 125.231C91.4552 125.718 90.3417 126.669 90.3273 127.715C90.3227 128.439 90.635 129.099 91.2609 129.643C91.5472 129.891 91.8097 130.078 92.0983 130.202C92.5105 130.379 92.9044 130.422 93.3091 130.32C94.0101 130.145 94.5214 129.187 94.8329 128.719C95.359 129.27 96.3199 130.358 97.7522 130.171C98.6972 130.05 99.3603 129.432 99.5548 128.539C99.7461 127.594 99.1052 126.492 98.3698 125.801C98.8918 125.173 100.027 123.932 99.9819 122.735C99.955 122.147 99.7023 121.638 99.2272 121.259C97.778 120.062 95.9843 120.721 95.0131 121.382C93.975 120.661 92.1231 119.917 90.9271 121.308C90.5244 121.762 90.3484 122.313 90.3754 122.901C90.3957 123.861 91.4642 124.745 91.8958 125.231Z" fill="#FEFFFA"/>
<path d="M55.3051 190.932C55.9115 191.167 56.4931 191.166 56.9998 190.932C57.4773 190.711 57.8019 189.974 58.0114 189.638C58.3336 189.976 58.8107 190.707 59.3424 190.709C59.6125 190.7 60.0173 190.598 60.3549 190.066C60.9921 189.037 60.6256 188.153 60.1321 187.641C60.5554 187.196 61.1882 186.415 61.1569 185.6C61.1462 185.27 61.014 184.762 60.477 184.357C59.0463 183.293 57.1897 183.749 56.6591 183.923C56.4237 183.847 55.9529 183.695 55.4093 183.663C54.3428 183.606 53.5549 183.995 53.1131 184.783C52.782 185.417 52.8437 185.92 52.9836 186.23C53.2459 186.894 54.2397 187.069 54.6932 187.263C54.4879 187.827 53.9136 189.058 54.215 189.864C54.4058 190.347 54.7399 190.715 55.2346 190.927L55.2964 190.954L55.3051 190.932Z" fill="#FEFFFA"/>
<path d="M73.4009 136.341C73.6918 135.864 74.3397 135.165 74.2423 134.572C74.1784 134.194 73.9387 133.891 73.5764 133.71C72.3418 133.056 70.7541 134.279 70.2017 134.744C69.2459 134.535 67.6456 134.6 67.044 136.196C66.778 136.908 66.7875 137.539 67.0727 138.087C67.4707 138.834 68.3667 139.368 69.8227 139.716C70.0135 140.199 70.4981 141.208 71.4875 141.633C71.7143 141.73 71.979 141.793 72.2611 141.814C72.9663 141.866 73.3494 141.579 73.5447 141.337C73.8888 140.908 73.9411 140.305 73.9032 139.862C74.232 139.828 74.666 139.713 74.9873 139.4C75.2239 139.176 75.4974 138.742 75.4608 138C75.437 137.464 75.2083 137.015 74.8481 136.71C74.5205 136.445 73.7654 136.397 73.4009 136.341Z" fill="#FEFFFA"/>
<path d="M66.1184 219.189C66.2843 219.436 66.5175 219.636 66.8061 219.759C67.1565 219.91 67.6002 219.95 68.0462 219.865C68.7884 219.707 69.2834 218.968 69.5385 218.401C69.9085 218.384 70.5648 218.615 70.9913 218.222C71.1986 218.01 71.4461 217.64 71.4159 217.001C71.3858 216.362 71.1048 216.041 70.8629 215.862C70.5061 215.609 69.8387 215.999 69.4893 216.025C69.4895 215.549 69.6276 214.556 69.2403 214.14C69.0364 213.927 68.6502 213.686 68.0339 213.773C67.5967 213.836 67.2104 214.071 66.9716 214.42C66.456 215.151 66.8505 216.322 66.9003 216.794C66.413 217.336 65.5078 218.251 66.1184 219.189Z" fill="#FEFFFA"/>
<path d="M30.6764 219.302C30.0024 220.065 28.4509 219.951 27.8954 219.889C27.5883 220.108 26.8276 220.608 25.9987 220.504C25.837 220.484 25.6841 220.444 25.5398 220.382C25.21 220.241 24.903 219.984 24.6601 219.629C24.3521 219.196 24.2817 218.715 24.4023 218.241C24.6521 217.271 25.8697 216.54 26.4231 216.252C26.3299 215.886 26.1446 215.331 26.4062 214.867C26.5603 214.607 26.8523 214.306 27.4686 214.22C28.1055 214.142 28.5004 214.362 28.7336 214.562C29.1262 214.905 29.2585 215.413 29.3191 215.74C29.7433 215.946 30.584 216.557 30.9394 218.062C31.0987 218.682 30.8924 219.069 30.6764 219.302Z" fill="#FEFFFA"/>
<path d="M65.6084 234.351C65.717 233.846 65.9529 232.495 64.9909 231.231C64.5766 230.702 64.0427 230.824 63.7433 230.846C62.7158 230.932 62.0523 232.501 61.7734 233.008C61.4098 233.127 60.4973 233.287 60.0642 234.053C59.7852 234.56 59.6082 234.935 59.7968 235.542C59.9497 236.058 60.275 236.448 60.7079 236.634C61.6354 237.032 62.8985 236.546 63.4932 236.275C63.7328 236.578 64.1287 236.973 64.6549 237.048C64.949 237.099 65.3862 237.036 65.8475 236.558C66.3174 236.058 66.3881 235.587 66.3774 235.257C66.3363 234.763 65.8242 234.594 65.6084 234.351Z" fill="#FEFFFA"/>
<path d="M80.9448 241.1C80.6183 240.534 79.6896 240.437 79.1776 240.268C79.2895 239.815 79.5045 238.93 79.2074 238.352C78.9461 237.864 78.4569 237.579 77.7983 237.472C77.0193 237.364 76.5364 237.658 76.2825 237.924C75.7365 238.492 75.772 239.534 75.7664 240.083C74.9679 240.141 73.7884 240.362 73.6427 241.552C73.5143 242.7 74.5481 243.193 75.2956 243.438C75.1219 243.865 74.768 244.615 75.0325 245.154C75.1811 245.443 75.3937 245.634 75.7235 245.776C75.9502 245.873 76.2149 245.936 76.5263 245.945C78.348 246.049 79.0103 244.304 79.2862 243.27C79.7615 243.173 80.789 243.088 81.0736 242.032C81.154 241.716 81.1139 241.398 80.9448 241.1Z" fill="#FEFFFA"/>
<path d="M148.206 222.751C147.648 223.531 147.006 223.976 146.297 224.042C145.767 224.087 145.323 223.919 145.041 223.772L144.717 223.607L144.56 223.937C144.308 224.501 143.868 225.232 143.127 225.559C143.039 225.596 142.921 225.645 142.784 225.684L142.458 225.767L142.542 226.103C142.738 226.886 142.961 228.328 142.103 229.128C141.329 229.839 140.345 229.438 139.831 229.14L139.38 228.87L139.316 229.39C139.251 230.035 139.043 230.917 138.437 231.452C137.907 231.92 137.181 232.029 136.258 231.778C135.992 231.713 135.755 231.635 135.527 231.536C134.697 231.176 134.144 230.613 133.922 229.893L133.802 229.467L133.441 229.635C133.081 229.803 132.697 229.91 132.305 229.915L131.963 229.916L131.968 230.267C132.015 231.36 131.744 232.214 131.16 232.758C130.301 233.558 128.993 233.539 128.476 233.489L128.223 233.454L128.129 233.687C127.727 234.685 127.074 235.398 126.3 235.686C125.877 235.827 125.193 235.954 124.333 235.606L123.898 235.417L123.872 235.905C123.85 236.443 123.713 237.207 123.236 237.847C122.737 238.478 122.017 238.814 121.058 238.897C120.828 238.922 120.574 238.887 120.35 238.839L119.871 238.756L119.946 239.237C120.059 239.984 119.994 241.053 119.073 241.949C118.424 242.59 117.526 242.824 116.632 242.561C115.934 242.358 115.318 241.892 114.965 241.315L114.76 240.977L114.466 241.223C114.02 241.603 113.299 242.063 112.474 242.055C111.77 242.048 111.102 241.709 110.512 241.055C110.022 240.518 109.778 239.914 109.755 239.306L109.728 238.646L109.212 239.021C108.561 239.486 107.954 239.722 107.421 239.715L107.079 239.716L107.084 240.067C107.097 240.821 106.974 241.49 106.739 242.011C106.428 242.724 105.786 243.168 104.854 243.363C103.021 243.739 102.142 242.411 101.708 241.251L101.534 240.777L101.155 241.111C100.634 241.558 99.606 242.234 98.4233 241.721C98.2781 241.658 98.1414 241.574 97.9839 241.481L97.6569 241.265L97.4908 241.616C97.1623 242.371 96.4321 243.699 95.4531 244.073C95.0015 244.226 94.5474 244.203 94.1044 243.912C92.6666 243.064 92.5375 241.812 92.5815 241.158L92.6024 240.743L92.202 240.769C91.5929 240.829 90.7141 240.772 90.0648 240.267C89.6266 239.902 89.3399 239.404 89.2509 238.718L89.1887 238.267L88.7908 238.468C88.2378 238.752 86.79 239.321 85.5036 238.763C85.1508 238.61 84.8445 238.403 84.5809 238.089C83.0798 236.491 83.9529 234.627 84.2581 234.111L84.4279 233.811L84.1337 233.633C83.5454 233.279 82.2505 232.319 82.7696 230.849C83.2837 229.452 84.884 229.049 85.8019 228.948L86.1315 228.917L86.0974 228.578C86.0157 227.994 86.0463 227.434 86.1721 226.941L86.2246 226.689L86.0135 226.548C84.837 225.838 84.1865 225.033 84.0914 224.12C83.9879 223.227 84.425 222.445 84.8132 221.965L85.0159 221.704L84.7889 221.481C84.3679 221.074 83.4453 219.977 84.1157 218.373C84.8508 216.548 87.6581 217.142 88.4979 217.357L88.7432 217.413L88.8787 217.198C89.311 216.488 89.986 216.083 90.9125 215.961C92.348 215.786 93.9798 216.393 94.7817 217.065L95.038 217.276L95.2614 217.024C95.3627 216.893 95.5141 216.759 95.6777 216.656L96.1477 216.336L95.646 216.069C95.1774 215.841 94.5732 215.404 94.3256 214.749C94.0901 214.123 94.2013 213.424 94.647 212.62L94.7825 212.405L94.6177 212.209C94.3004 211.847 93.7659 211.117 93.7246 210.251C93.6808 209.634 93.9201 209.04 94.384 208.494C95.6318 207.09 97.4515 208.079 98.1802 208.569L98.6024 208.852L98.6868 208.34C98.7747 207.88 98.9408 207.528 99.2228 207.251C99.7697 206.741 100.579 206.668 101.154 206.693L101.7 206.73L101.471 206.207C101.313 205.815 101.11 205.228 101.217 204.602C101.324 203.851 101.801 203.21 102.619 202.692C103.244 202.29 103.891 202.197 104.51 202.415C105.665 202.816 106.476 204.19 106.873 204.96L107.094 205.38L107.46 205.015C107.498 204.981 107.506 204.96 107.544 204.927C107.733 204.76 107.914 204.614 108.157 204.495L108.572 204.251L108.188 203.935C107.845 203.637 107.387 203.139 107.269 202.465C107.163 201.821 107.374 201.115 107.956 200.395L108.252 200.025L107.808 199.857C107.363 199.689 106.758 199.377 106.447 198.819C106.136 198.26 106.147 197.567 106.471 196.761C106.83 195.87 107.374 195.308 108.013 195.111C108.319 195.019 108.64 195.009 108.976 195.08L109.496 195.181L109.368 194.652C109.244 194.174 109.211 193.712 109.303 193.303C109.438 192.664 109.852 192.12 110.519 191.736C112.167 190.731 113.637 191.194 114.367 191.56L114.649 191.707L114.79 191.419C114.947 191.089 115.176 190.764 115.475 190.445C115.904 189.983 116.411 189.754 116.994 189.758C118.011 189.775 119.012 190.558 119.507 191.022L119.83 191.311L120.034 190.926C120.229 190.562 120.499 190.255 120.826 190.048L121.027 189.911L120.98 189.666C120.783 188.883 120.436 186.963 121.598 186.196C122.424 185.657 123.551 185.522 124.548 185.83C125.134 186.009 125.619 186.319 125.973 186.771L126.216 187.076L126.485 186.769L126.494 186.748C127.193 185.979 128.519 185.956 129.256 186.001L129.631 186.039L129.614 185.658C129.584 184.947 129.634 183.673 130.328 182.977C130.741 182.558 131.343 182.395 132.087 182.543C134.247 182.931 135.39 184.872 135.871 185.977L136.038 186.349L136.374 186.121C137.314 185.481 138.797 185.975 139.407 186.214L139.697 186.34L139.838 186.052C140.102 185.518 140.898 184.268 142.6 184.458C144.345 184.666 145.05 186.666 145.262 187.531L145.334 187.836L145.643 187.796C145.902 187.758 146.202 187.739 146.506 187.771C149.533 188.061 150.574 190.257 150.671 190.499L150.683 190.529C151.007 191.118 151.106 191.659 150.942 192.186C150.761 192.756 150.307 193.157 149.971 193.385L149.598 193.647L149.941 193.945C150.585 194.524 151.691 195.651 151.816 196.852C151.914 197.941 151.247 198.748 150.688 199.229L150.327 199.521L150.707 199.785C150.952 199.966 151.324 200.252 151.691 200.611C152.648 201.623 152.95 202.627 152.536 203.594C152.263 204.273 151.85 204.692 151.29 204.873C150.976 204.986 150.605 205 150.227 204.911L149.645 204.783L149.856 205.348C150.184 206.288 150.679 208.023 150.13 209.205C150.006 209.451 149.842 209.678 149.652 209.845L149.387 210.079L149.627 210.333C149.932 210.664 150.36 211.174 150.749 211.841C151.63 213.344 151.828 214.851 151.281 216.209C150.776 217.46 149.79 218.154 148.611 218.117L148.036 218.092L148.314 218.611C148.78 219.511 149.33 221.17 148.206 222.751Z" fill="#FEFFFA"/>
<path d="M128.819 246.013L128.71 246.04L128.667 246.146C128.493 246.519 127.541 248.399 125.701 247.825C125.589 247.802 125.485 247.757 125.381 247.712C124.863 247.487 124.508 247.159 124.304 246.697C123.958 245.924 124.102 244.84 124.733 243.395L124.776 243.289L124.718 243.189C124.407 242.631 123.734 241.218 124.555 239.904C124.907 239.334 125.321 239.215 125.591 239.208C125.791 239.195 125.987 239.254 126.173 239.335C126.443 239.452 126.687 239.633 126.86 239.807L127.021 239.952L127.16 239.788C127.367 239.578 127.699 239.299 128.124 239.209C128.412 239.16 128.887 239.191 129.403 239.664C129.779 240.001 129.979 240.412 129.991 240.865C129.996 241.216 129.913 241.604 129.68 242.001L129.51 242.301L129.855 242.351C130.596 242.448 131.144 242.661 131.428 242.983C131.646 243.227 131.73 243.563 131.656 243.929C131.442 245.306 129.412 245.871 128.819 246.013Z" fill="#FEFFFA"/>
<path d="M112.758 250.86C112.721 251.193 112.521 252.053 111.874 252.57C111.362 252.996 110.698 253.132 109.874 252.999C109.05 252.866 108.479 252.469 108.194 251.847C107.705 250.763 108.252 249.405 108.414 249.002L108.491 248.811L108.342 248.697C107.974 248.463 107.375 247.954 107.206 247.283C107.126 246.999 107.134 246.554 107.49 246.035C107.773 245.635 108.158 245.403 108.617 245.353C108.997 245.318 109.375 245.407 109.707 245.551C109.977 245.668 110.188 245.809 110.345 245.902L110.482 245.987L110.616 245.895C111.036 245.579 111.874 245.07 112.727 245.191C113.318 245.297 113.797 245.68 114.166 246.338C115.402 248.593 113.1 250.435 112.852 250.627L112.785 250.673L112.758 250.86Z" fill="#FEFFFA"/>
<path d="M77.4661 232.52C78.3362 232.643 79.124 232.254 79.7178 231.331C80.0293 230.864 80.1998 230.386 80.2747 230.142C80.7251 229.809 82.1924 228.584 82.2374 226.75C82.2539 226.056 81.9578 225.653 81.704 225.444C81.0901 224.931 80.1092 224.961 79.5222 225.035C79.4183 224.339 78.9726 223.472 77.7943 223.393C77.1889 223.334 76.8645 223.595 76.6778 223.816C76.363 224.232 76.5124 225.173 76.5915 225.633C76.2096 225.619 75.55 225.336 75.1051 225.597C74.6016 225.882 74.2694 226.341 74.0794 226.985C73.924 227.545 73.977 228.069 74.2557 228.514C74.7036 229.257 75.9947 229.535 76.5479 229.722C76.4187 230.218 75.954 231.121 76.3043 231.747C76.429 231.976 76.6448 232.218 77.0159 232.377C77.1308 232.452 77.2838 232.492 77.4661 232.52Z" fill="#FEFFFA"/>
<path d="M160.223 226.15C159.951 226.704 159.582 226.893 159.303 226.922C158.885 226.99 158.45 226.801 158.177 226.633L157.966 226.492L157.872 226.725C157.672 227.161 157.349 227.719 156.831 227.918C156.626 228.003 156.288 228.056 155.873 227.876C155.79 227.841 155.686 227.796 155.612 227.738C155.223 227.495 154.977 227.139 154.885 226.701C154.69 225.794 155.209 224.749 155.45 224.33L155.514 224.233L155.477 224.143C155.376 223.85 154.899 222.372 156.006 221.681C156.459 221.404 157.021 221.399 157.56 221.633C157.726 221.705 157.884 221.798 158.032 221.912C158.657 222.357 159.025 223.015 159.061 223.653L159.051 223.798L159.175 223.852C159.486 223.987 160.053 224.333 160.273 224.876C160.424 225.166 160.495 225.595 160.223 226.15Z" fill="#FEFFFA"/>
<path d="M150.121 234.618C149.413 235.407 147.644 235.263 147.137 235.193L147.045 235.178L146.978 235.224C146.664 235.461 145.846 235.978 144.973 235.849C144.436 235.79 143.96 235.46 143.591 234.926C143.279 234.492 143.184 234.002 143.322 233.539C143.599 232.488 144.839 231.706 145.371 231.414L145.526 231.331L145.474 231.159C145.41 230.833 145.308 230.241 145.575 229.759C145.719 229.522 146.01 229.225 146.627 229.143C147.006 229.109 147.301 229.162 147.53 229.261C147.695 229.333 147.811 229.408 147.898 229.495C148.294 229.841 148.431 230.349 148.486 230.696L148.514 230.808L148.617 230.853C149.106 231.09 149.966 231.737 150.383 233.362C150.461 233.894 150.39 234.312 150.121 234.618Z" fill="#FEFFFA"/>
<path d="M128.521 258.923C128.541 259.356 128.518 260.441 127.979 261.055C127.717 261.34 127.387 261.496 126.995 261.5C126.454 261.515 126.03 261.356 125.696 261.037C125.523 260.862 125.375 260.624 125.307 260.37L125.255 260.198L125.075 260.22C124.717 260.263 124.192 260.235 123.749 259.944C123.274 259.613 122.963 259.055 122.875 258.245C122.803 257.516 122.955 256.959 123.35 256.582C123.821 256.139 124.488 256.054 124.971 256.064L125.192 256.061L125.207 255.843C125.228 255.428 125.317 254.844 125.612 254.474C125.806 254.234 126.069 254.124 126.382 254.135C127.286 254.128 127.649 254.859 127.791 255.294L127.855 255.496L128.043 255.453C128.519 255.36 129.666 255.235 129.978 256.092C130.326 257.041 128.996 258.407 128.593 258.805L128.517 258.872L128.521 258.923Z" fill="#FEFFFA"/>
<path d="M148.648 258.15C148.604 258.381 148.212 260.504 146.49 260.481C145.836 260.471 145.293 260.186 144.931 259.63C144.434 258.867 144.453 257.853 144.647 257.189L144.678 257.053L144.57 256.956C144.206 256.649 143.026 255.464 143.656 253.718C143.918 253.009 144.35 252.722 144.693 252.597C145.312 252.392 146.011 252.595 146.467 252.793C146.529 252.82 146.592 252.847 146.654 252.874L146.799 252.937L146.913 252.836C147.309 252.459 148.09 251.851 148.923 251.962C149.502 252.039 149.964 252.464 150.319 253.216C151.491 255.693 149.023 257.764 148.737 257.99L148.67 258.035L148.648 258.15Z" fill="#FEFFFA"/>
<path d="M122.818 145.249C122.818 145.249 123.412 141.471 121.13 140.893C118.847 140.316 118.524 142.832 118.524 142.832C118.524 142.832 116.132 137.649 113.465 140.037C110.797 142.426 113.71 145.378 115.277 145.574C115.277 145.574 113.393 149.901 116.333 150.41C119.253 150.91 118.899 149.105 118.899 149.105C118.899 149.105 119.432 151.839 121.495 151.646C121.495 151.646 121.307 150.087 122.83 150.39C122.801 150.402 120.296 147.399 122.818 145.249Z" stroke="#2E1E00" stroke-width="1.5" stroke-miterlimit="10" stroke-linecap="round" stroke-linejoin="round"/>
<path d="M122.818 145.249C122.818 145.249 124.658 144.359 125.854 145.523C127.05 146.687 126.911 149.408 126.911 149.408C126.911 149.408 129.17 148.022 130.011 150.236C130.011 150.236 131.255 152.473 129.591 155.191C127.927 157.909 126.302 154.708 126.302 154.708C126.302 154.708 121.693 156.214 121.487 151.667" stroke="#2E1E00" stroke-width="1.5" stroke-miterlimit="10" stroke-linecap="round" stroke-linejoin="round"/>
<path d="M115.055 149.687C115.055 149.687 113.098 150.151 112.511 152.604C111.923 155.057 114.835 155.279 114.835 155.279C114.835 155.279 111.575 156.386 113.141 159.437C114.698 162.51 116.84 162.125 116.84 162.125C116.84 162.125 119.433 160.456 121.361 162.259C121.361 162.259 121.427 159.482 122.803 159.671C122.803 159.671 119.351 157.089 121.992 153.637" stroke="#2E1E00" stroke-width="1.5" stroke-miterlimit="10" stroke-linecap="round" stroke-linejoin="round"/>
<path d="M114.099 139.608C114.099 139.608 113.859 135.146 110.605 134.278C107.36 133.388 105.875 137.51 107.885 139.649C107.885 139.649 104.595 140.594 105.724 143.884C106.854 147.173 109.784 144.973 109.784 144.973C109.784 144.973 112.233 148.828 114.155 145.118" stroke="#2E1E00" stroke-width="1.5" stroke-miterlimit="10" stroke-linecap="round" stroke-linejoin="round"/>
<path d="M112.646 154.115C112.646 154.115 107.397 156.123 107.235 150.518C107.235 150.518 101.38 148.309 105.924 144.345" stroke="#2E1E00" stroke-width="1.5" stroke-miterlimit="10" stroke-linecap="round" stroke-linejoin="round"/>
<path d="M128.714 156.093C128.714 156.093 130.866 158.418 129.744 160.342C128.621 162.266 126.534 161.446 126.534 161.446C126.534 161.446 125.345 167.575 121.357 162.208" stroke="#2E1E00" stroke-width="1.5" stroke-miterlimit="10" stroke-linecap="round" stroke-linejoin="round"/>
<path d="M115.82 162.014C115.82 162.014 114.061 164.967 117.419 166.055C117.419 166.055 114.224 168.193 116.408 171.033C118.592 173.873 120.654 169.822 120.654 169.822C120.654 169.822 123.418 172.785 124.803 170.097C126.176 167.379 124.106 164.438 124.106 164.438" stroke="#2E1E00" stroke-width="1.5" stroke-miterlimit="10" stroke-linecap="round" stroke-linejoin="round"/>
<path d="M104.941 148.958C104.941 148.958 102.259 152.393 99.9689 148.981C99.9689 148.981 96.487 149.743 96.2676 146.894C96.0569 144.023 98.9689 140.737 98.9689 140.737C98.9689 140.737 99.8246 141.905 101.492 141.318C101.492 141.318 100.911 145.778 104.443 146.14" stroke="#2E1E00" stroke-width="1.5" stroke-miterlimit="10" stroke-linecap="round" stroke-linejoin="round"/>
<path d="M110.36 154.438C110.36 154.438 109.457 160.162 105.68 157.191C105.68 157.191 103.099 158.89 101.618 155.274C100.647 152.904 102.218 150.472 102.218 150.472" stroke="#2E1E00" stroke-width="1.5" stroke-miterlimit="10" stroke-linecap="round" stroke-linejoin="round"/>
<path d="M107.153 136.155C107.153 136.155 106.529 132.931 103.709 132.9C100.89 132.869 101.062 135.297 101.062 135.297C101.062 135.297 97.9533 134.015 97.3578 137.141C96.9155 139.356 98.9679 140.737 98.9679 140.737" stroke="#2E1E00" stroke-width="1.5" stroke-miterlimit="10" stroke-linecap="round" stroke-linejoin="round"/>
<path d="M108.332 157.927C108.332 157.927 106.767 160.939 108.884 163.349C111.001 165.76 115.403 164.165 115.403 164.165" stroke="#2E1E00" stroke-width="1.5" stroke-miterlimit="10" stroke-linecap="round" stroke-linejoin="round"/>
<path d="M97.9082 135.849C97.9082 135.849 96.6503 133.707 95.1247 134.005C93.5991 134.303 93.7915 136.564 93.7915 136.564C93.7915 136.564 90.9182 133.93 89.5827 137.09C88.2472 140.25 90.8096 141.448 92.9178 141.325C92.9178 141.325 92.8314 143.618 96.7186 144.357" stroke="#2E1E00" stroke-width="1.5" stroke-miterlimit="10" stroke-linecap="round" stroke-linejoin="round"/>
<path d="M96.2756 146.872C96.2756 146.872 93.4537 146.489 93.0722 148.555C92.6907 150.621 94.3298 151.649 94.3298 151.649C94.3298 151.649 91.0958 154.121 94.6591 157.201C94.6591 157.201 97.0509 158.878 98.4882 156.538C98.9072 155.866 99.4412 155.268 100.129 154.887C100.603 154.614 101.055 154.457 101.221 154.703" stroke="#2E1E00" stroke-width="1.5" stroke-miterlimit="10" stroke-linecap="round" stroke-linejoin="round"/>
<path d="M98.1177 157.031C98.1177 157.031 96.6757 160.571 100.821 162.222C100.821 162.222 102.961 161.01 103.464 162.629C103.464 162.629 105.293 159.029 107.991 161.739" stroke="#2E1E00" stroke-width="1.5" stroke-miterlimit="10" stroke-linecap="round" stroke-linejoin="round"/>
<path d="M111.624 164.649C111.624 164.649 110.417 167.137 112.782 168.702C112.782 168.702 109.215 169.077 109.084 171.776C108.974 174.484 111.07 175.282 112.466 174.528C112.466 174.528 114.043 176.958 115.599 176.347C117.155 175.737 118.427 173.626 117.568 171.931" stroke="#2E1E00" stroke-width="1.5" stroke-miterlimit="10" stroke-linecap="round" stroke-linejoin="round"/>
<path d="M100.822 162.222C100.822 162.222 98.4673 163.843 100.781 167.139C102.336 169.384 103.899 169.052 104.722 168.578C105.498 168.159 106.381 168.012 107.216 168.22C108.084 168.466 109.033 169.049 109.479 170.392" stroke="#2E1E00" stroke-width="1.5" stroke-miterlimit="10" stroke-linecap="round" stroke-linejoin="round"/>
<path d="M90.137 140.484C90.137 140.484 87.9398 140.945 88.0508 143.347C88.1618 145.749 89.0508 148.084 93.0345 149.241" stroke="#2E1E00" stroke-width="1.5" stroke-miterlimit="10" stroke-linecap="round" stroke-linejoin="round"/>
<path d="M94.68 157.21C94.68 157.21 91.2642 158.226 91.7428 161.211C92.2334 164.227 94.6454 163.833 94.6454 163.833C94.6454 163.833 90.8299 166.306 93.1512 167.977C95.452 169.64 96.4468 166.484 96.4468 166.484C96.4468 166.484 98.0317 170.796 100.821 167.157" stroke="#2E1E00" stroke-width="1.5" stroke-miterlimit="10" stroke-linecap="round" stroke-linejoin="round"/>
<path d="M89.9513 147.718C89.9513 147.718 88.821 150.315 87.0041 149.01C87.0041 149.01 86.2069 151.799 83.7683 150.178C83.7683 150.178 82.9297 149.919 82.812 147.889C82.812 147.889 78.9713 147.571 79.2129 145.194C79.4599 142.745 81.3795 142.015 83.3398 142.73C83.3398 142.73 85.217 138.775 88.3191 141.858" stroke="#2E1E00" stroke-width="1.5" stroke-miterlimit="10" stroke-linecap="round" stroke-linejoin="round"/>
<path d="M79.212 145.194C79.212 145.194 76.9006 142.726 74.7711 145.22C74.2284 145.839 73.9721 146.706 74.1943 147.527C74.3807 148.259 74.9609 149.033 76.43 149.112C76.43 149.112 73.8667 150.769 76.2585 152.921C78.6502 155.074 79.9563 152.402 79.9563 152.402C79.9563 152.402 82.9275 154.202 84.0679 150.332" stroke="#2E1E00" stroke-width="1.5" stroke-miterlimit="10" stroke-linecap="round" stroke-linejoin="round"/>
<path d="M85.9902 150.429C85.9902 150.429 84.298 152.86 85.9117 155.08C87.5168 157.321 89.4842 156.235 89.4842 156.235C89.4842 156.235 89.8481 158.671 92.0396 159.235" stroke="#2E1E00" stroke-width="1.5" stroke-miterlimit="10" stroke-linecap="round" stroke-linejoin="round"/>
<path d="M98.3952 168.597C98.3952 168.597 95.361 170.578 96.5884 173.033C97.8159 175.488 100.741 174.963 101.806 174.668C101.806 174.668 102.367 171.151 104.941 171.904C104.941 171.904 103.097 170.011 103.91 168.907" stroke="#2E1E00" stroke-width="1.5" stroke-miterlimit="10" stroke-linecap="round" stroke-linejoin="round"/>
<path d="M92.4054 166.656C92.4054 166.656 89.8681 165.218 88.4951 166.984C87.1133 168.771 87.8016 170.945 89.9986 171.436C89.9986 171.436 87.3158 173.743 89.9246 175.838C92.5333 177.933 95.3931 175.251 96.6371 173.029" stroke="#2E1E00" stroke-width="1.5" stroke-miterlimit="10" stroke-linecap="round" stroke-linejoin="round"/>
<path d="M86.5062 155.76C86.5062 155.76 83.0996 154.851 82.3328 157.328C81.5867 159.814 82.6236 160.835 84.5503 161.811C84.5503 161.811 81.7082 163.498 83.4456 165.771C85.1744 168.065 87.9259 167.967 87.9259 167.967" stroke="#2E1E00" stroke-width="1.5" stroke-miterlimit="10" stroke-linecap="round" stroke-linejoin="round"/>
<path d="M74.1242 146.571C74.1242 146.571 73.1439 144.697 71.1193 145.032C69.0946 145.366 68.5307 147.88 69.4515 149.127C69.4515 149.127 66.1162 149.35 66.6599 152.414C67.2036 155.478 70.8223 154.499 70.8223 154.499C70.8223 154.499 70.4116 156.577 73.0978 157.353C75.7634 158.12 77.0255 153.475 77.0255 153.475" stroke="#2E1E00" stroke-width="1.5" stroke-miterlimit="10" stroke-linecap="round" stroke-linejoin="round"/>
<path d="M82.2641 159.754C82.2641 159.754 77.6416 161.354 75.9224 156.184" stroke="#2E1E00" stroke-width="1.5" stroke-miterlimit="10" stroke-linecap="round" stroke-linejoin="round"/>
<path d="M68.6704 154.553C68.6704 154.553 65.6552 154.763 65.4756 156.69C65.3166 158.626 65.7981 159.584 67.869 160.622C67.869 160.622 65.7555 163.849 69.0783 165.499C72.4011 167.149 75.2687 163.794 75.2687 163.794C75.2687 163.794 71.8035 159.403 77.0638 158.376" stroke="#2E1E00" stroke-width="1.5" stroke-miterlimit="10" stroke-linecap="round" stroke-linejoin="round"/>
<path d="M83.0626 165.106C83.0626 165.106 78.9029 164.5 78.9433 167.373C78.9433 167.373 78.6575 168.728 80.4063 169.428C80.4063 169.428 78.674 171.541 79.9735 172.749C81.2729 173.958 83.5439 173.553 83.5439 173.553C83.5439 173.553 85.781 170.379 89.0027 172.812" stroke="#2E1E00" stroke-width="1.5" stroke-miterlimit="10" stroke-linecap="round" stroke-linejoin="round"/>
<path d="M65.5663 156.229C64.9903 155.681 64.2765 155.175 63.503 154.993C62.7089 154.803 61.9883 155.146 61.4012 155.696C59.9491 157.002 60.4813 158.608 61.5821 160.007C61.5821 160.007 58.8447 160.011 58.7236 162.388C58.5937 164.788 61.1337 164.674 61.1543 164.683C60.8049 164.708 60.735 166.307 60.7773 166.5C60.9409 167.347 61.6579 167.905 62.3967 168.171C63.0855 168.441 64.1856 168.713 64.6036 167.865C64.8272 167.435 64.7156 166.936 64.757 166.478C64.8125 165.925 64.9765 165.344 65.185 164.832C65.5933 163.83 66.3649 163.184 67.3846 163.771" stroke="#2E1E00" stroke-width="1.5" stroke-miterlimit="10" stroke-linecap="round" stroke-linejoin="round"/>
<path d="M74.1294 164.808C74.1294 164.808 74.7432 169.305 78.9588 167.931" stroke="#2E1E00" stroke-width="1.5" stroke-miterlimit="10" stroke-linecap="round" stroke-linejoin="round"/>
<path d="M64.2394 168.285C64.2394 168.285 64.7161 170.443 66.8861 170.346C66.8861 170.346 65.5614 173.836 67.7495 174.824C69.9669 175.8 71.707 173.014 71.707 173.014C71.707 173.014 69.6612 167.753 75.1145 167.085" stroke="#2E1E00" stroke-width="1.5" stroke-miterlimit="10" stroke-linecap="round" stroke-linejoin="round"/>
<path d="M83.523 173.545C83.523 173.545 82.982 175.467 84.502 175.718C84.502 175.718 81.23 178.223 83.6574 180.942C86.0935 183.639 87.6342 179.916 87.6342 179.916C87.6342 179.916 88.3309 183.02 91.2379 181.887C94.1449 180.753 91.7061 176.576 91.7061 176.576" stroke="#2E1E00" stroke-width="1.5" stroke-miterlimit="10" stroke-linecap="round" stroke-linejoin="round"/>
<path d="M71.7148 172.992C71.7148 172.992 72.5 174.155 73.9105 174.259C73.9105 174.259 71.7699 177.374 74.4841 178.914C77.1896 180.474 78.1577 175.779 82.8191 178.303" stroke="#2E1E00" stroke-width="1.5" stroke-miterlimit="10" stroke-linecap="round" stroke-linejoin="round"/>
<path d="M68.4314 174.991C68.4314 174.991 65.2246 177.099 66.31 179.367C67.3954 181.636 69.6328 181.017 69.6328 181.017C69.6328 181.017 68.726 183.66 71.4025 184.281C74.079 184.902 75.6382 180.836 75.2796 179.28" stroke="#2E1E00" stroke-width="1.5" stroke-miterlimit="10" stroke-linecap="round" stroke-linejoin="round"/>
<path d="M77.1098 178.711C77.1098 178.711 75.5182 182.262 79.1289 182.432C79.1289 182.432 79.293 185.358 81.7646 185.115C84.2363 184.872 83.9152 181.202 83.9152 181.202" stroke="#2E1E00" stroke-width="1.5" stroke-miterlimit="10" stroke-linecap="round" stroke-linejoin="round"/>
<path d="M101.834 174.655C101.834 174.655 102.196 177.691 105.5 177.128C105.5 177.128 106.063 179.073 108.623 178.793C111.182 178.512 110.487 174.632 110.487 174.632" stroke="#2E1E00" stroke-width="1.5" stroke-miterlimit="10" stroke-linecap="round" stroke-linejoin="round"/>
<path d="M93.9144 175.97C93.9144 175.97 93.1625 179.48 97.0447 178.865C97.0447 178.865 95.4338 181.631 98.2458 182.335C101.058 183.04 101.213 180.401 101.213 180.401C101.213 180.401 102.113 183.066 104.527 182.072C106.941 181.078 107.03 178.661 107.03 178.661" stroke="#2E1E00" stroke-width="1.5" stroke-miterlimit="10" stroke-linecap="round" stroke-linejoin="round"/>
<path d="M58.7277 162.916C58.7277 162.916 54.7668 161.644 54.446 164.036C54.1372 166.459 56.1322 167.089 56.1322 167.089C56.1322 167.089 53.2379 169.38 55.9671 171.477C58.7049 173.552 60.7735 168.176 66.4899 172.806" stroke="#2E1E00" stroke-width="1.5" stroke-miterlimit="10" stroke-linecap="round" stroke-linejoin="round"/>
<path d="M55.9657 171.477C55.9657 171.477 52.6887 172.627 53.098 175.308C53.4867 177.979 56.3706 177.913 56.3706 177.913C56.3706 177.913 55.7015 180.507 57.511 181.057C59.3412 181.616 61.0377 179.412 61.0377 179.412C61.0377 179.412 59.1887 176.641 61.8919 174.819C61.8919 174.819 59.3299 172.668 61.9658 170.892" stroke="#2E1E00" stroke-width="1.5" stroke-miterlimit="10" stroke-linecap="round" stroke-linejoin="round"/>
<path d="M66.6251 179.903C66.6251 179.903 63.7534 182.555 61.0267 179.382" stroke="#2E1E00" stroke-width="1.5" stroke-miterlimit="10" stroke-linecap="round" stroke-linejoin="round"/>
<path d="M71.4035 184.281C71.4035 184.281 70.0569 188.062 67.936 187.504C65.815 186.945 66.0251 184.706 66.0251 184.706C66.0251 184.706 62.1232 185.488 62.9471 180.731" stroke="#2E1E00" stroke-width="1.5" stroke-miterlimit="10" stroke-linecap="round" stroke-linejoin="round"/>
<path d="M97.8656 188.084C97.8656 188.084 98.2677 186.027 96.9184 184.822C96.1536 184.144 95.0134 184.031 94.1441 184.56C93.951 184.678 93.799 184.813 93.7209 185.005C93.7209 185.005 89.8758 184.459 89.8218 187.266C89.7763 190.528 92.8581 189.144 92.8581 189.144C92.8581 189.144 91.5042 192.171 93.7913 192.5C96.0783 192.829 96.063 189.716 96.063 189.716C96.063 189.716 97.9753 191.262 98.6234 190.087C99.2303 188.895 97.8656 188.084 97.8656 188.084Z" stroke="#2E1E00" stroke-width="1.5" stroke-miterlimit="10" stroke-linecap="round" stroke-linejoin="round"/>
<path d="M94.9667 121.613C94.9667 121.613 92.3872 119.505 90.8818 121.239C89.397 122.983 91.8745 125.222 91.8745 125.222C91.8745 125.222 88.9898 127.668 91.2102 129.646C93.4306 131.625 94.6901 128.533 94.6901 128.533C94.6901 128.533 95.7962 130.335 97.9153 130.066C100.034 129.797 99.9386 127 98.1965 125.928C98.1965 125.928 101.18 122.823 99.285 121.234C97.39 119.645 94.9667 121.613 94.9667 121.613Z" stroke="#2E1E00" stroke-width="1.5" stroke-miterlimit="10" stroke-linecap="round" stroke-linejoin="round"/>
<path d="M76.2395 117.543C76.2395 117.543 74.0168 116.164 72.8336 117.761C71.6505 119.358 73.2818 121.059 74.6585 121.424C74.6585 121.424 74.4321 123.882 76.6833 124.597C78.9344 125.311 79.2424 122.237 79.2424 122.237C79.2424 122.237 82.824 121.943 81.4447 119.148C80.0655 116.352 76.2395 117.543 76.2395 117.543Z" stroke="#2E1E00" stroke-width="1.5" stroke-miterlimit="10" stroke-linecap="round" stroke-linejoin="round"/>
<path d="M81.5531 131.544C81.5531 131.544 78.7019 131.173 78.1998 133.713C77.6978 136.254 80.0751 135.945 80.0751 135.945C80.0751 135.945 79.3986 137.784 80.8002 138.385C82.2018 138.986 83.1485 137.137 83.1485 137.137C83.1485 137.137 85.0435 138.726 86.5651 137.249C88.0574 135.784 86.0919 134.19 86.0919 134.19C86.0919 134.19 87.7948 132.09 86.4075 130.919C83.7597 128.682 81.5531 131.544 81.5531 131.544Z" stroke="#2E1E00" stroke-width="1.5" stroke-miterlimit="10" stroke-linecap="round" stroke-linejoin="round"/>
<path d="M70.1854 134.962C70.1854 134.962 67.6902 134.193 66.9268 136.246C66.1634 138.298 67.9338 139.182 69.9984 139.642C69.9984 139.642 70.6075 141.831 72.4411 141.966C74.2747 142.101 73.6971 139.774 73.6971 139.774C73.6971 139.774 75.6489 140.035 75.5323 138.181C75.4157 136.327 73.1588 136.638 73.1588 136.638C73.1588 136.638 75.0343 134.411 73.6349 133.685C72.2648 132.948 70.1854 134.962 70.1854 134.962Z" stroke="#2E1E00" stroke-width="1.5" stroke-miterlimit="10" stroke-linecap="round" stroke-linejoin="round"/>
<path d="M64.0798 126.534C64.0798 126.534 61.8616 124.43 60.6926 125.933C59.5236 127.436 60.834 128.499 60.834 128.499C60.834 128.499 58.5876 130.091 60.6614 132.132C62.7353 134.173 64.2422 131.187 64.2422 131.187C64.2422 131.187 65.9614 132.851 66.821 131.691C67.6807 130.532 66.4431 129.35 66.4431 129.35C66.4431 129.35 68.3238 128.002 67.6742 126.922C67.0279 125.893 64.0798 126.534 64.0798 126.534Z" stroke="#2E1E00" stroke-width="1.5" stroke-miterlimit="10" stroke-linecap="round" stroke-linejoin="round"/>
<path d="M60.6123 144.912C60.6123 144.912 58.5567 143.48 57.3365 145.762C56.1076 148.066 58.8122 148.975 59.7908 149.069C59.7908 149.069 59.3029 151.515 61.0475 151.511C62.7835 151.529 62.6638 149.148 62.6638 149.148C62.6638 149.148 65.6477 148.598 64.6556 146.219C63.6636 143.84 60.6123 144.912 60.6123 144.912Z" stroke="#2E1E00" stroke-width="1.5" stroke-miterlimit="10" stroke-linecap="round" stroke-linejoin="round"/>
<path d="M53.5578 153.436C52.4253 152.65 51.0844 152.375 49.6954 152.932C47.4362 153.843 46.5664 156.275 48.0189 157.048C49.4715 157.821 50.1803 156.973 50.1803 156.973C50.1803 156.973 49.1924 158.804 50.6178 159.465C52.0433 160.126 52.7035 158.505 52.7035 158.505C52.7035 158.505 53.8355 160.719 55.3941 159.032C56.7279 157.6 55.6761 155.546 54.5796 154.375C54.2748 153.994 53.9147 153.689 53.5578 153.436Z" stroke="#2E1E00" stroke-width="1.5" stroke-miterlimit="10" stroke-linecap="round" stroke-linejoin="round"/>
<path d="M40.1494 165.849C40.1494 165.849 37.1108 164.095 36.2313 166.374C35.3518 168.652 37.7538 169.055 37.7538 169.055C37.7538 169.055 36.9448 171.339 38.3866 171.781C39.8078 172.215 43.8148 168.322 40.1494 165.849Z" stroke="#2E1E00" stroke-width="1.5" stroke-miterlimit="10" stroke-linecap="round" stroke-linejoin="round"/>
<path d="M45.9778 176.739C45.9778 176.739 43.6086 175.423 42.2724 177.456C40.9362 179.488 43.5899 179.749 43.5899 179.749C43.5899 179.749 42.5869 181.498 43.9016 182.312C45.2164 183.126 46.2867 181.331 46.2867 181.331C46.2867 181.331 48.3552 183.445 49.4538 181.461C50.5524 179.477 48.1168 178.859 48.1168 178.859C48.1168 178.859 49.2079 176.596 48.0243 176.114C46.8526 175.661 45.9778 176.739 45.9778 176.739Z" stroke="#2E1E00" stroke-width="1.5" stroke-miterlimit="10" stroke-linecap="round" stroke-linejoin="round"/>
<path d="M56.6447 184.017C56.6447 184.017 54.0595 182.934 53.0976 184.701C52.1358 186.468 54.7015 187.242 54.7015 187.242C54.7015 187.242 53.288 190.118 55.2842 190.923C57.2803 191.729 58.0719 189.488 58.0719 189.488C58.0719 189.488 59.4383 191.602 60.3491 190.139C61.2598 188.675 59.8149 187.705 59.8149 187.705C59.8149 187.705 62.273 185.653 60.6004 184.41C58.957 183.154 56.6447 184.017 56.6447 184.017Z" stroke="#2E1E00" stroke-width="1.5" stroke-miterlimit="10" stroke-linecap="round" stroke-linejoin="round"/>
<path d="M38.4714 195.765C38.4714 195.765 39.1914 193.82 37.6182 193.521C36.0451 193.222 36.2539 195.266 36.2539 195.266C36.2539 195.266 34.0072 194.303 33.8091 196.097C33.6111 197.89 36.3583 198.041 36.3583 198.041C36.3583 198.041 37.1639 199.689 38.427 199.203C39.6694 198.709 39.6615 196.351 38.4714 195.765Z" stroke="#2E1E00" stroke-width="1.5" stroke-miterlimit="10" stroke-linecap="round" stroke-linejoin="round"/>
<path d="M69.5387 218.401C69.5387 218.401 71.5404 218.658 71.4454 216.989C71.3711 215.329 69.4808 216.046 69.4808 216.046C69.4808 216.046 69.8656 213.556 68.1459 213.796C66.4174 214.057 66.8918 216.815 66.8918 216.815C66.8918 216.815 65.5243 218.033 66.277 219.157C67.0296 220.281 69.2497 219.705 69.5387 218.401Z" stroke="#2E1E00" stroke-width="1.5" stroke-miterlimit="10" stroke-linecap="round" stroke-linejoin="round"/>
<path d="M50.7337 211.367C50.7337 211.367 49.6353 209.369 47.2871 210.141C44.939 210.913 47.1667 213.646 47.1667 213.646C47.1667 213.646 45.5581 215.812 47.2427 217.085C48.9273 218.359 50.0574 216.238 50.0574 216.238C50.0574 216.238 52.5872 217.397 53.3019 215.048C53.9959 212.691 50.7337 211.367 50.7337 211.367Z" stroke="#2E1E00" stroke-width="1.5" stroke-miterlimit="10" stroke-linecap="round" stroke-linejoin="round"/>
<path d="M29.0984 215.745C29.0984 215.745 29.0848 213.936 27.4736 214.147C25.8623 214.358 26.6136 216.258 26.6136 216.258C26.6136 216.258 23.3213 217.803 24.5685 219.615C25.8157 221.427 27.7735 219.711 27.7735 219.711C27.7735 219.711 31.4189 220.272 30.9367 218.187C30.4545 216.101 29.0984 215.745 29.0984 215.745Z" stroke="#2E1E00" stroke-width="1.5" stroke-miterlimit="10" stroke-linecap="round" stroke-linejoin="round"/>
<path d="M148.279 230.986C148.279 230.986 148.265 229.176 146.654 229.387C145.042 229.598 145.794 231.499 145.794 231.499C145.794 231.499 142.501 233.043 143.749 234.855C144.996 236.668 146.954 234.952 146.954 234.952C146.954 234.952 150.599 235.512 150.117 233.427C149.635 231.341 148.279 230.986 148.279 230.986Z" stroke="#2E1E00" stroke-width="1.5" stroke-miterlimit="10" stroke-linecap="round" stroke-linejoin="round"/>
<path d="M150.13 199.215C150.13 199.215 153.392 201.014 152.43 203.257C151.468 205.5 149.352 204.217 149.352 204.217C149.352 204.217 151.849 209.32 148.417 210.079C144.985 210.837 144.49 206.642 145.263 205.22C145.263 205.22 140.813 204.139 142.186 201.421C143.58 198.712 144.731 200.107 144.731 200.107C144.731 200.107 142.974 198.001 144.36 196.441C144.36 196.441 145.432 197.552 146.123 196.095C146.173 196.091 146.939 199.976 150.13 199.215Z" stroke="#2E1E00" stroke-width="1.5" stroke-miterlimit="10" stroke-linecap="round" stroke-linejoin="round"/>
<path d="M150.13 199.215C150.13 199.215 151.925 198.256 151.769 196.561C151.612 194.865 149.45 193.337 149.45 193.337C149.45 193.337 151.893 192.331 150.692 190.288C150.692 190.288 149.75 187.905 146.644 187.625C143.537 187.346 145.008 190.632 145.008 190.632C145.008 190.632 141.056 193.497 144.41 196.437" stroke="#2E1E00" stroke-width="1.5" stroke-miterlimit="10" stroke-linecap="round" stroke-linejoin="round"/>
<path d="M142.018 202.902C142.018 202.902 140.467 204.216 138.229 203.232C135.991 202.247 137.585 199.699 137.585 199.699C137.585 199.699 134.754 201.717 133.372 198.57C131.991 195.423 133.58 193.899 133.58 193.899C133.58 193.899 136.437 192.77 136.239 190.105C136.239 190.105 138.408 191.735 139.111 190.484C139.111 190.484 138.979 194.911 143.234 194.806" stroke="#2E1E00" stroke-width="1.5" stroke-miterlimit="10" stroke-linecap="round" stroke-linejoin="round"/>
<path d="M149.153 209.818C149.153 209.818 152.424 212.723 151.113 215.943C149.81 219.142 145.758 217.856 145.361 214.906C145.361 214.906 142.628 217.041 140.798 214.102C138.969 211.164 142.431 210.093 142.431 210.093C142.431 210.093 140.963 205.731 144.968 206.421" stroke="#2E1E00" stroke-width="1.5" stroke-miterlimit="10" stroke-linecap="round" stroke-linejoin="round"/>
<path d="M137.151 202.193C137.151 202.193 132.423 205.302 136.626 208.832C136.626 208.832 134.768 214.999 140.561 213.675" stroke="#2E1E00" stroke-width="1.5" stroke-miterlimit="10" stroke-linecap="round" stroke-linejoin="round"/>
<path d="M145.4 187.768C145.4 187.768 144.929 184.585 142.777 184.34C140.597 184.106 139.972 186.293 139.972 186.293C139.972 186.293 134.554 183.545 136.249 190.083" stroke="#2E1E00" stroke-width="1.5" stroke-miterlimit="10" stroke-linecap="round" stroke-linejoin="round"/>
<path d="M133.025 194.789C133.025 194.789 129.684 194.433 130.903 191.023C130.903 191.023 127.328 192.371 126.473 188.824C125.609 185.297 129.978 186.043 129.978 186.043C129.978 186.043 129.411 181.967 132.301 182.479C135.191 182.992 136.193 186.477 136.193 186.477" stroke="#2E1E00" stroke-width="1.5" stroke-miterlimit="10" stroke-linecap="round" stroke-linejoin="round"/>
<path d="M136.413 211.672C136.413 211.672 132.158 211.776 133.371 215.753C133.371 215.753 130.674 218.154 132.729 220.062C134.785 221.97 139.082 221.583 139.082 221.583C139.082 221.583 138.713 220.172 140.172 219.145C140.172 219.145 136.411 216.906 138.27 213.77" stroke="#2E1E00" stroke-width="1.5" stroke-miterlimit="10" stroke-linecap="round" stroke-linejoin="round"/>
<path d="M135.501 203.866C135.501 203.866 130.565 201.124 130.544 206.05C130.544 206.05 127.684 207.128 129.534 210.551C130.748 212.8 133.578 212.986 133.578 212.986" stroke="#2E1E00" stroke-width="1.5" stroke-miterlimit="10" stroke-linecap="round" stroke-linejoin="round"/>
<path d="M147.568 217.631C147.568 217.631 149.659 220.105 147.952 222.454C146.265 224.812 144.517 223.161 144.517 223.161C144.517 223.161 143.614 226.506 140.848 225.095C138.9 224.11 139.082 221.583 139.082 221.583" stroke="#2E1E00" stroke-width="1.5" stroke-miterlimit="10" stroke-linecap="round" stroke-linejoin="round"/>
<path d="M131.614 203.427C131.614 203.427 128.35 202.879 127.788 199.683C127.235 196.464 131.14 193.83 131.14 193.83" stroke="#2E1E00" stroke-width="1.5" stroke-miterlimit="10" stroke-linecap="round" stroke-linejoin="round"/>
<path d="M142.163 225.433C142.163 225.433 143.032 227.76 141.887 228.847C140.742 229.934 139.12 228.387 139.12 228.387C139.12 228.387 139.399 232.34 136.169 231.531C132.948 230.702 133.572 227.863 134.951 226.2C134.951 226.2 133.143 224.873 134.94 221.235" stroke="#2E1E00" stroke-width="1.5" stroke-miterlimit="10" stroke-linecap="round" stroke-linejoin="round"/>
<path d="M132.73 220.062C132.73 220.062 131.306 222.608 129.491 221.655C127.676 220.701 127.894 218.741 127.894 218.741C127.894 218.741 124.035 219.892 123.863 215.084C123.863 215.084 124.036 212.102 126.699 212.342C127.466 212.42 128.253 212.331 128.964 212.01C129.462 211.798 129.846 211.511 129.767 211.227" stroke="#2E1E00" stroke-width="1.5" stroke-miterlimit="10" stroke-linecap="round" stroke-linejoin="round"/>
<path d="M126.058 212.368C126.058 212.368 122.457 211.401 123.744 206.992C123.744 206.992 125.985 205.949 125.037 204.591C125.037 204.591 128.921 205.279 128.458 201.423" stroke="#2E1E00" stroke-width="1.5" stroke-miterlimit="10" stroke-linecap="round" stroke-linejoin="round"/>
<path d="M128.448 196.634C128.448 196.634 125.808 196.103 126.058 193.23C126.058 193.23 123.601 195.934 121.448 194.385C119.294 192.836 119.957 190.615 121.398 189.93C121.398 189.93 120.492 187.162 121.908 186.241C123.324 185.32 125.717 185.569 126.479 187.323" stroke="#2E1E00" stroke-width="1.5" stroke-miterlimit="10" stroke-linecap="round" stroke-linejoin="round"/>
<path d="M123.744 206.993C123.744 206.993 121.086 207.932 119.938 204.033C119.159 201.37 120.365 200.309 121.232 199.904C122.02 199.515 122.683 198.898 123.022 198.066C123.378 197.192 123.498 196.066 122.742 194.89" stroke="#2E1E00" stroke-width="1.5" stroke-miterlimit="10" stroke-linecap="round" stroke-linejoin="round"/>
<path d="M133.883 228.999C133.883 228.999 132.195 230.529 130.423 228.993C128.64 227.427 127.412 225.273 128.936 221.292" stroke="#2E1E00" stroke-width="1.5" stroke-miterlimit="10" stroke-linecap="round" stroke-linejoin="round"/>
<path d="M123.832 215.097C123.832 215.097 120.973 217.303 118.977 215.069C116.981 212.836 118.736 211.084 118.736 211.084C118.736 211.084 114.537 212.715 114.655 209.81C114.773 206.905 117.79 207.998 117.79 207.998C117.79 207.998 115.447 204.062 119.926 204.003" stroke="#2E1E00" stroke-width="1.5" stroke-miterlimit="10" stroke-linecap="round" stroke-linejoin="round"/>
<path d="M128.251 224.756C128.251 224.756 125.571 224.083 125.476 226.397C125.476 226.397 122.865 225.378 122.6 228.346C122.6 228.346 122.303 229.195 123.77 230.525C123.77 230.525 121.684 233.865 123.639 235.128C125.655 236.419 127.379 235.279 128.042 233.233C128.042 233.233 132.218 234.096 131.728 229.653" stroke="#2E1E00" stroke-width="1.5" stroke-miterlimit="10" stroke-linecap="round" stroke-linejoin="round"/>
<path d="M123.64 235.128C123.64 235.128 124.124 238.517 120.921 238.772C120.102 238.822 119.301 238.529 118.806 237.841C118.356 237.222 118.128 236.298 118.952 235.048C118.952 235.048 116.133 236.144 115.937 232.879C115.75 229.592 118.594 230.16 118.594 230.16C118.594 230.16 119.023 226.611 122.682 228.029" stroke="#2E1E00" stroke-width="1.5" stroke-miterlimit="10" stroke-linecap="round" stroke-linejoin="round"/>
<path d="M123.77 226.367C123.77 226.367 120.876 226.279 120.147 223.611C119.418 220.944 121.433 219.979 121.433 219.979C121.433 219.979 119.786 218.196 120.684 216.051" stroke="#2E1E00" stroke-width="1.5" stroke-miterlimit="10" stroke-linecap="round" stroke-linejoin="round"/>
<path d="M117.398 205.099C117.398 205.099 114.04 206.39 112.9 203.897C111.761 201.405 113.954 199.289 114.814 198.605C114.814 198.605 117.858 200.286 118.83 197.721C118.83 197.721 119.148 200.388 120.502 200.392" stroke="#2E1E00" stroke-width="1.5" stroke-miterlimit="10" stroke-linecap="round" stroke-linejoin="round"/>
<path d="M115.237 211.236C115.237 211.236 114.802 214.206 112.599 214.264C110.397 214.322 109.155 212.437 110.115 210.318C110.115 210.318 106.715 211.116 106.701 207.703C106.687 204.29 110.472 203.558 112.929 203.885" stroke="#2E1E00" stroke-width="1.5" stroke-miterlimit="10" stroke-linecap="round" stroke-linejoin="round"/>
<path d="M119.981 222.713C119.981 222.713 118.588 226.074 116.236 225.191C113.884 224.308 113.731 222.84 114.165 220.646C114.165 220.646 111.159 221.963 110.461 219.159C109.763 216.355 111.518 214.126 111.518 214.126" stroke="#2E1E00" stroke-width="1.5" stroke-miterlimit="10" stroke-linecap="round" stroke-linejoin="round"/>
<path d="M119.517 238.472C119.517 238.472 120.351 240.407 118.879 241.88C117.387 243.345 115.134 242.279 114.737 240.756C114.737 240.756 112.535 243.369 110.524 241.054C108.513 238.74 111.463 236.372 111.463 236.372C111.463 236.372 109.619 235.431 110.654 232.769C111.69 230.107 116.024 231.889 116.024 231.889" stroke="#2E1E00" stroke-width="1.5" stroke-miterlimit="10" stroke-linecap="round" stroke-linejoin="round"/>
<path d="M114.349 223.757C114.349 223.757 110.315 226.587 113.229 231.142" stroke="#2E1E00" stroke-width="1.5" stroke-miterlimit="10" stroke-linecap="round" stroke-linejoin="round"/>
<path d="M110.069 238.129C110.069 238.129 108.071 240.479 106.502 239.456C104.934 238.433 104.49 237.441 104.964 235.089C104.964 235.089 101.209 234.857 101.956 231.12C102.704 227.382 107.026 227.055 107.026 227.055C107.026 227.055 108.286 232.58 112.264 228.875" stroke="#2E1E00" stroke-width="1.5" stroke-miterlimit="10" stroke-linecap="round" stroke-linejoin="round"/>
<path d="M110.735 219.852C110.735 219.852 108.678 223.655 106.5 221.87C106.5 221.87 105.301 221.306 105.804 219.417C105.804 219.417 103.135 219.55 102.992 217.761C102.87 215.98 104.532 214.338 104.532 214.338C104.532 214.338 108.318 214.433 108.429 210.297" stroke="#2E1E00" stroke-width="1.5" stroke-miterlimit="10" stroke-linecap="round" stroke-linejoin="round"/>
<path d="M106.886 239.645C106.946 240.447 106.893 241.351 106.559 242.11C106.217 242.891 105.518 243.242 104.746 243.412C102.866 243.808 101.944 242.386 101.564 240.645C101.564 240.645 99.8996 242.888 98.0002 241.548C96.1008 240.207 97.7278 238.174 97.7278 238.174C97.4944 238.45 96.2437 237.538 96.0929 237.373C95.5311 236.732 95.5726 235.798 95.7942 235.016C96.019 234.286 96.462 233.198 97.356 233.381C97.8323 233.46 98.1283 233.862 98.5145 234.103C98.9832 234.379 99.5191 234.609 100.04 234.757C101.061 235.044 102.008 234.799 102.183 233.596" stroke="#2E1E00" stroke-width="1.5" stroke-miterlimit="10" stroke-linecap="round" stroke-linejoin="round"/>
<path d="M105.532 227.392C105.532 227.392 102.47 224.151 106.085 221.517" stroke="#2E1E00" stroke-width="1.5" stroke-miterlimit="10" stroke-linecap="round" stroke-linejoin="round"/>
<path d="M96.857 233.417C96.857 233.417 95.4958 231.707 96.8927 230.001C96.8927 230.001 93.4092 228.984 94.0088 226.56C94.6085 224.137 97.7939 224.4 97.7939 224.4C97.7939 224.4 100.569 229.297 104.393 225.2" stroke="#2E1E00" stroke-width="1.5" stroke-miterlimit="10" stroke-linecap="round" stroke-linejoin="round"/>
<path d="M104.552 214.347C104.552 214.347 102.762 213.629 103.485 212.211C103.485 212.211 99.5678 213.387 98.9765 209.727C98.3852 206.067 102.189 207.071 102.189 207.071C102.189 207.071 100.239 204.607 102.869 202.904C105.52 201.21 107.209 205.741 107.209 205.741" stroke="#2E1E00" stroke-width="1.5" stroke-miterlimit="10" stroke-linecap="round" stroke-linejoin="round"/>
<path d="M97.7937 224.4C97.7937 224.4 97.3775 223.045 98.1721 221.807C98.1721 221.807 94.494 221.683 94.9366 218.516C95.3791 215.35 99.5795 217.401 100.464 212.018" stroke="#2E1E00" stroke-width="1.5" stroke-miterlimit="10" stroke-linecap="round" stroke-linejoin="round"/>
<path d="M94.2578 225.89C94.2578 225.89 90.703 227.247 89.6176 224.979C88.5322 222.71 90.3652 221.241 90.3652 221.241C90.3652 221.241 87.7843 220.385 88.9352 217.797C90.086 215.21 94.1522 216.401 95.1229 217.644" stroke="#2E1E00" stroke-width="1.5" stroke-miterlimit="10" stroke-linecap="round" stroke-linejoin="round"/>
<path d="M96.6921 216.464C96.6921 216.464 92.998 215.607 95.0712 212.537C95.0712 212.537 92.9453 210.624 94.6319 208.742C96.3185 206.86 98.9413 209.337 98.9413 209.337" stroke="#2E1E00" stroke-width="1.5" stroke-miterlimit="10" stroke-linecap="round" stroke-linejoin="round"/>
<path d="M114.843 198.593C114.843 198.593 112.733 196.461 115.18 194.078C115.18 194.078 114.013 192.426 115.817 190.494C117.592 188.574 120.153 191.5 120.153 191.5" stroke="#2E1E00" stroke-width="1.5" stroke-miterlimit="10" stroke-linecap="round" stroke-linejoin="round"/>
<path d="M109.026 204.315C109.026 204.315 105.862 202.809 108.712 199.973C108.712 199.973 105.62 199.599 106.782 196.866C107.944 194.132 110.061 195.591 110.061 195.591C110.061 195.591 108.558 193.218 110.809 191.854C113.039 190.48 114.941 191.872 114.941 191.872" stroke="#2E1E00" stroke-width="1.5" stroke-miterlimit="10" stroke-linecap="round" stroke-linejoin="round"/>
<path d="M97.6283 241.213C97.6283 241.213 96.1981 245.259 94.1555 244.033C92.1128 242.806 92.8382 240.788 92.8382 240.788C92.8382 240.788 89.3106 241.781 89.3898 238.257C89.469 234.734 94.8327 236.307 94.771 228.791" stroke="#2E1E00" stroke-width="1.5" stroke-miterlimit="10" stroke-linecap="round" stroke-linejoin="round"/>
<path d="M89.3808 238.279C89.3808 238.279 86.5082 240.279 84.711 238.331C82.8931 236.375 84.7036 234.069 84.7036 234.069C84.7036 234.069 82.3126 233.045 82.9891 231.205C83.6656 229.366 86.3998 229.311 86.3998 229.311C86.3998 229.311 87.3937 232.517 90.4418 231.394C90.4418 231.394 90.5265 234.812 93.4867 233.726" stroke="#2E1E00" stroke-width="1.5" stroke-miterlimit="10" stroke-linecap="round" stroke-linejoin="round"/>
<path d="M89.4081 224.363C89.4081 224.363 85.6354 225.125 86.4088 229.29" stroke="#2E1E00" stroke-width="1.5" stroke-miterlimit="10" stroke-linecap="round" stroke-linejoin="round"/>
<path d="M88.9634 217.785C88.9634 217.785 85.2586 216.598 84.3867 218.679C83.5354 220.769 85.3546 221.949 85.3546 221.949C85.3546 221.949 82.3777 224.681 86.5292 226.912" stroke="#2E1E00" stroke-width="1.5" stroke-miterlimit="10" stroke-linecap="round" stroke-linejoin="round"/>
<path d="M148.418 257.924C148.418 257.924 148.165 260.27 146.45 260.261C144.734 260.253 144.472 258.161 144.95 256.988C144.95 256.988 143.172 255.826 143.889 253.828C144.605 251.831 146.84 253.24 146.84 253.24C146.84 253.24 148.952 250.788 150.104 253.311C151.264 255.812 148.418 257.924 148.418 257.924Z" stroke="#2E1E00" stroke-width="1.5" stroke-miterlimit="10" stroke-linecap="round" stroke-linejoin="round"/>
<path d="M128.513 245.809C128.513 245.809 127.64 248.191 125.718 247.617C123.797 247.044 124.159 245.145 125.035 243.292C125.035 243.292 123.803 241.561 124.76 240.043C125.718 238.524 127.074 240.308 127.074 240.308C127.074 240.308 128.013 238.656 129.288 239.804C130.564 240.952 129.028 242.523 129.028 242.523C129.028 242.523 131.715 242.347 131.447 243.836C131.171 245.346 128.513 245.809 128.513 245.809Z" stroke="#2E1E00" stroke-width="1.5" stroke-miterlimit="10" stroke-linecap="round" stroke-linejoin="round"/>
<path d="M128.271 258.707C128.271 258.707 128.479 261.226 126.967 261.254C125.454 261.282 125.446 259.876 125.446 259.876C125.446 259.876 123.344 260.578 123.104 258.195C122.864 255.813 125.46 256.275 125.46 256.275C125.46 256.275 125.267 254.313 126.409 254.302C127.572 254.299 127.672 255.719 127.672 255.719C127.672 255.719 129.439 255.124 129.78 256.072C130.132 257.05 128.271 258.707 128.271 258.707Z" stroke="#2E1E00" stroke-width="1.5" stroke-miterlimit="10" stroke-linecap="round" stroke-linejoin="round"/>
<path d="M112.54 250.61C112.54 250.61 112.391 253.177 109.889 252.781C107.387 252.384 108.325 249.605 108.843 248.75C108.843 248.75 106.669 247.668 107.733 246.245C108.776 244.814 110.526 246.341 110.526 246.341C110.526 246.341 112.749 244.212 113.996 246.5C115.211 248.749 112.54 250.61 112.54 250.61Z" stroke="#2E1E00" stroke-width="1.5" stroke-miterlimit="10" stroke-linecap="round" stroke-linejoin="round"/>
<path d="M79.2767 243.291C79.2767 243.291 78.8376 246.034 76.4724 245.897C74.1071 245.76 75.5238 243.411 75.5238 243.411C75.5238 243.411 73.5633 243.172 73.7449 241.597C73.9266 240.021 75.9544 240.214 75.9544 240.214C75.9544 240.214 75.5962 237.23 77.7801 237.515C79.9554 237.821 78.962 240.201 78.962 240.201C78.962 240.201 81.3585 240.677 81.0164 241.933C80.6742 243.189 79.2767 243.291 79.2767 243.291Z" stroke="#2E1E00" stroke-width="1.5" stroke-miterlimit="10" stroke-linecap="round" stroke-linejoin="round"/>
<path d="M80.1922 230.107C80.1922 230.107 79.4449 232.893 77.5105 232.589C75.5673 232.308 76.5479 229.722 76.5479 229.722C76.5479 229.722 73.4721 229.13 74.0912 227.016C74.7103 224.901 76.8996 225.589 76.8996 225.589C76.8996 225.589 76.1159 223.174 77.7997 223.32C79.4629 223.457 79.3441 225.234 79.3441 225.234C79.3441 225.234 82.4149 224.472 82.3481 226.597C82.2606 228.714 80.1922 230.107 80.1922 230.107Z" stroke="#2E1E00" stroke-width="1.5" stroke-miterlimit="10" stroke-linecap="round" stroke-linejoin="round"/>
<path d="M158.825 223.934C158.825 223.934 160.738 224.528 160.018 225.998C159.298 227.468 157.865 226.052 157.865 226.052C157.865 226.052 157.236 228.488 155.753 227.552C154.27 226.616 155.808 224.269 155.808 224.269C155.808 224.269 155.04 222.587 156.178 221.872C157.287 221.17 159.093 222.621 158.825 223.934Z" stroke="#2E1E00" stroke-width="1.5" stroke-miterlimit="10" stroke-linecap="round" stroke-linejoin="round"/>
<path d="M65.6078 234.351C65.6078 234.351 66.9712 235.461 65.8533 236.66C64.7354 237.86 63.7118 236.093 63.7118 236.093C63.7118 236.093 60.5235 237.858 59.8884 235.732C59.2532 233.606 61.7641 233.029 61.7641 233.029C61.7641 233.029 63.5596 229.69 64.8676 231.353C66.1756 233.016 65.6078 234.351 65.6078 234.351Z" stroke="#2E1E00" stroke-width="1.5" stroke-miterlimit="10" stroke-linecap="round" stroke-linejoin="round"/>
<path d="M87.3436 197.451C87.3436 197.451 89.0682 195.535 87.4671 194.473C85.866 193.411 83.9365 194.463 83.9365 194.463C83.9365 194.463 81.1679 190.145 79.3348 192.09C77.5016 194.034 79.7001 196.78 79.7001 196.78C79.7001 196.78 77.3081 199.086 79.6533 200.818C81.9985 202.55 83.4922 199.833 83.4922 199.833C83.4922 199.833 87.2586 201.999 87.2806 197.725" stroke="#2E1E00" stroke-width="1.5" stroke-miterlimit="10" stroke-linecap="round" stroke-linejoin="round"/>
<path d="M71.4123 197.336C71.2952 196.91 71.1282 196.487 70.9146 196.12C70.188 194.932 68.8656 194.315 67.6148 193.879C63.8155 192.626 64.5694 196.957 64.5694 196.957C64.5694 196.957 61.7261 195.438 61.5927 198.738C61.4593 202.037 65.417 203.258 68.1447 203.099C68.1447 203.099 70.3253 200.301 72.367 200.876C72.2347 200.844 72.0224 199.701 71.9627 199.55C71.7297 198.874 71.6193 198.076 71.4123 197.336Z" stroke="#2E1E00" stroke-width="1.5" stroke-miterlimit="10" stroke-linecap="round" stroke-linejoin="round"/>
<path d="M78.6005 194.13C77.4876 193.177 76.1751 192.238 74.7343 191.971C72.929 191.648 71.8794 192.977 70.986 194.398C70.7765 194.734 70.465 195.201 70.5408 195.61" stroke="#2E1E00" stroke-width="1.5" stroke-miterlimit="10" stroke-linecap="round" stroke-linejoin="round"/>
<path d="M79.6655 200.848C79.6655 200.848 77.4487 201.476 77.286 204.788C77.132 208.079 80.3037 207.009 80.3037 207.009C80.3037 207.009 79.7718 211.465 82.4767 211.422C85.1903 211.358 84.8693 207.212 84.8693 207.212C84.8693 207.212 87.6136 209.39 88.5357 206.354C89.4578 203.317 85.9043 200.391 85.9043 200.391" stroke="#2E1E00" stroke-width="1.5" stroke-miterlimit="10" stroke-linecap="round" stroke-linejoin="round"/>
<path d="M72.3492 200.919C72.3492 200.919 74.7249 202.338 75.9039 200.038C75.9039 200.038 76.1473 202.472 77.5554 203.175" stroke="#2E1E00" stroke-width="1.5" stroke-miterlimit="10" stroke-linecap="round" stroke-linejoin="round"/>
<path d="M68.1265 203.142C68.1265 203.142 66.4199 206.619 68.4883 208.733C70.5567 210.847 72.3314 208.451 72.3314 208.451C72.3314 208.451 72.863 211.961 75.2284 211.622C77.5818 211.253 79.2468 209.186 78.2558 206.983" stroke="#2E1E00" stroke-width="1.5" stroke-miterlimit="10" stroke-linecap="round" stroke-linejoin="round"/>
<path d="M62.332 201.083C62.332 201.083 57.5372 201.859 58.0788 204.571C58.6205 207.283 60.7231 207.708 60.7231 207.708C60.7231 207.708 60.0535 211.73 63.5156 212.087C66.9863 212.422 68.0748 208.204 68.0748 208.204" stroke="#2E1E00" stroke-width="1.5" stroke-miterlimit="10" stroke-linecap="round" stroke-linejoin="round"/>
<path d="M134.796 37.8217C133.666 40.2689 131.274 41.9528 128.469 41.9528C125.664 41.9528 123.251 40.2689 122.142 37.8217C124.055 38.0237 126.208 38.1135 128.469 38.1135C130.73 38.1135 132.883 38.0013 134.796 37.8217Z" fill="#FEFFFA" stroke="#2E1E00" stroke-width="1.5" stroke-miterlimit="10" stroke-linecap="round" stroke-linejoin="round"/>
<path d="M135.448 34.7458C135.448 35.846 135.209 36.8788 134.774 37.8217C132.861 38.0238 130.708 38.1136 128.447 38.1136C126.186 38.1136 124.033 38.0014 122.12 37.8217C121.685 36.8788 121.446 35.846 121.446 34.7458C121.446 33.9825 121.555 33.2415 121.772 32.568C122.663 29.6492 125.316 27.5388 128.447 27.5388C131.578 27.5388 134.209 29.6492 135.1 32.568C135.339 33.2415 135.448 33.9825 135.448 34.7458Z" fill="#FEFFFA" stroke="#2E1E00" stroke-width="1.5" stroke-miterlimit="10" stroke-linecap="round" stroke-linejoin="round"/>
<path d="M121.468 34.7458C121.468 35.846 121.707 36.8788 122.142 37.8217C117.359 37.3503 114.076 36.3399 114.076 35.1724C114.076 34.0274 117.207 33.0619 121.794 32.568C121.599 33.2416 121.468 33.9825 121.468 34.7458Z" stroke="#2E1E00" stroke-width="1.5" stroke-miterlimit="10" stroke-linecap="round" stroke-linejoin="round"/>
<path d="M142.862 35.1724C142.862 36.3399 139.579 37.3503 134.796 37.8217C135.231 36.8788 135.47 35.846 135.47 34.7458C135.47 33.9825 135.361 33.2416 135.144 32.568C139.731 33.0395 142.862 34.0274 142.862 35.1724Z" stroke="#2E1E00" stroke-width="1.5" stroke-miterlimit="10" stroke-linecap="round" stroke-linejoin="round"/>
<path d="M103.552 9.80182L99.834 9.98144L97.8989 13.237L96.5726 9.64466L92.9634 8.74658L95.8551 6.34422L95.5942 2.50494L98.7034 4.61543L102.139 3.15605L101.16 6.86062L103.552 9.80182Z" fill="#FFDC38" stroke="#2E1E00" stroke-width="1.5" stroke-miterlimit="10" stroke-linecap="round" stroke-linejoin="round"/>
<path d="M101.943 67.4807C103.996 67.4807 105.661 65.7618 105.661 63.6414C105.661 61.521 103.996 59.8021 101.943 59.8021C99.8897 59.8021 98.2251 61.521 98.2251 63.6414C98.2251 65.7618 99.8897 67.4807 101.943 67.4807Z" fill="#FFDC38" stroke="#2E1E00" stroke-width="1.5" stroke-miterlimit="10" stroke-linecap="round" stroke-linejoin="round"/>
<path d="M148.885 58.8367C150.098 58.8367 151.081 57.8215 151.081 56.5691C151.081 55.3167 150.098 54.3015 148.885 54.3015C147.673 54.3015 146.689 55.3167 146.689 56.5691C146.689 57.8215 147.673 58.8367 148.885 58.8367Z" fill="#FEFFFA" stroke="#2E1E00" stroke-width="1.5" stroke-miterlimit="10" stroke-linecap="round" stroke-linejoin="round"/>
<path d="M162.409 11.7775C165.003 11.7775 167.106 9.60629 167.106 6.92792C167.106 4.24955 165.003 2.07831 162.409 2.07831C159.816 2.07831 157.713 4.24955 157.713 6.92792C157.713 9.60629 159.816 11.7775 162.409 11.7775Z" fill="#FEFFFA" stroke="#2E1E00" stroke-width="1.5" stroke-miterlimit="10" stroke-linecap="round" stroke-linejoin="round"/>
<path d="M175.781 57.2427L172.585 55.2669L169.215 56.861L170.041 53.1115L167.541 50.2826L171.237 49.9458L173.063 46.6229L174.52 50.1479L178.151 50.9112L175.346 53.4259L175.781 57.2427Z" fill="#FEFFFA" stroke="#2E1E00" stroke-width="1.5" stroke-miterlimit="10" stroke-linecap="round" stroke-linejoin="round"/>
<path d="M197.045 26.2366C198.102 26.2366 198.959 25.352 198.959 24.2608C198.959 23.1696 198.102 22.285 197.045 22.285C195.988 22.285 195.132 23.1696 195.132 24.2608C195.132 25.352 195.988 26.2366 197.045 26.2366Z" fill="#FFDC38" stroke="#2E1E00" stroke-width="1.5" stroke-miterlimit="10" stroke-linecap="round" stroke-linejoin="round"/>
</g>
<defs>
<linearGradient id="paint0_linear_2670_24797" x1="244.645" y1="97.1396" x2="243.811" y2="292.122" gradientUnits="userSpaceOnUse">
<stop stop-color="#E94622"/>
<stop offset="1" stop-color="#F15D0A" stop-opacity="0"/>
</linearGradient>
<linearGradient id="paint1_linear_2670_24797" x1="126.89" y1="99.166" x2="-2.07743" y2="341.471" gradientUnits="userSpaceOnUse">
<stop stop-color="#F37E2A"/>
<stop offset="0.679862" stop-color="#E9E241" stop-opacity="0"/>
</linearGradient>
</defs>
</svg>
