<svg width="60" height="60" viewBox="0 0 60 60" fill="none" xmlns="http://www.w3.org/2000/svg">
<path d="M30.0004 15.0001C30.0004 23.2845 23.2847 30.0002 15.0006 30.0002C6.71622 30.0002 0.000793457 23.2845 0.000793457 15.0001C0.000793457 6.71571 6.71622 0 15.0006 0C23.2847 0 30.0004 6.71571 30.0004 15.0001Z" fill="black"/>
<path d="M60 15.0001C60 23.2845 53.2846 30.0002 45.0005 30.0002C36.7161 30.0002 30.0004 23.2845 30.0004 15.0001C30.0004 6.71571 36.7161 0 45.0005 0C53.2846 0 60 6.71571 60 15.0001Z" fill="black"/>
<path d="M60 30C60 46.5686 46.5686 60 30.0001 60C13.4316 60 0 46.5688 0 30H60Z" fill="black"/>
</svg>
