<svg width="640" height="360" viewBox="0 0 640 360" fill="none" xmlns="http://www.w3.org/2000/svg">
<path d="M0 8C0 3.58172 3.58172 0 8 0H632C636.418 0 640 3.58172 640 8V352C640 356.418 636.418 360 632 360H7.99999C3.58171 360 0 356.418 0 352V8Z" fill="#FEE25D"/>
<path d="M49.792 85H55.68V67.272L72.64 39.24H66.048L52.736 61.576L39.36 39.24H32.704L49.792 67.272V85ZM77.227 85H82.987V52.04H77.227V85ZM76.907 46.408H83.371V39.24H76.907V46.408ZM105.297 85.832C112.977 85.832 117.905 81.608 119.505 75.208H113.681C112.529 78.792 110.097 81.224 105.297 81.224C98.7045 81.224 95.8885 76.04 95.5045 70.024H119.889C120.657 55.816 113.489 51.208 105.297 51.208C95.6325 51.208 89.5525 58.632 89.5525 68.552C89.5525 78.472 95.6325 85.832 105.297 85.832ZM95.6325 65.672C96.3365 60.168 99.2805 55.816 105.297 55.816C110.801 55.816 113.873 58.952 114.257 65.672H95.6325ZM126.54 85H132.3V39.24H126.54V85ZM153.264 85.832C157.936 85.832 161.648 83.976 164.272 80.008V85H170.032V39.24H164.272V56.968C161.904 53.192 157.936 51.208 153.264 51.208C145.328 51.208 138.928 58.056 138.928 68.424C138.928 78.792 145.328 85.832 153.264 85.832ZM144.88 68.424C144.88 61.192 148.464 56.008 154.736 56.008C160.944 56.008 164.592 61.32 164.592 68.488C164.592 75.656 160.944 81.032 154.736 81.032C148.464 81.032 144.88 75.656 144.88 68.424ZM48.768 143H54.656V102.168H69.888V97.24H33.536V102.168H48.768V143ZM75.7895 143H81.5495V124.056C81.5495 118.168 85.7095 114.008 90.5735 114.008C95.1175 114.008 98.3175 117.016 98.3175 122.776V143H104.078V122.456C104.078 113.624 99.0855 109.208 92.3655 109.208C87.5655 109.208 83.6615 111.448 81.5495 115.096V97.24H75.7895V143ZM121.504 143.832C125.6 143.832 130.144 142.424 133.024 138.136V138.968C133.024 141.336 134.752 143 137.888 143H141.792V138.264H139.744C138.976 138.264 138.4 137.688 138.4 136.984V120.984C138.4 113.56 134.24 109.208 125.472 109.208C117.6 109.208 112.288 113.56 111.584 120.152H117.344C117.856 116.12 120.672 113.816 125.6 113.816C130.528 113.816 132.704 116.44 132.704 119.64C132.704 121.176 132.192 122.648 129.568 123.032L122.464 123.992C117.088 124.696 110.496 126.424 110.496 134.104C110.496 139.928 114.784 143.832 121.504 143.832ZM116.448 133.848C116.448 130.52 118.56 128.728 123.552 127.96L129.376 127.064C130.464 126.872 131.616 126.68 132.704 126.104V128.408C132.704 134.872 128.864 139.224 122.976 139.224C119.008 139.224 116.448 137.24 116.448 133.848ZM156.765 143H163.101V138.264H158.429C155.805 138.264 155.037 137.24 155.037 134.424V114.776H162.269V110.04H155.037V99.16H149.341V108.632C149.341 109.464 148.765 110.04 147.869 110.04H144.093V114.776H149.341V135.32C149.341 140.824 151.709 143 156.765 143ZM55.36 201.832C65.344 201.832 72.576 196.328 74.432 185.192H68.224C67.328 191.208 63.104 196.776 55.36 196.776C46.464 196.776 40.832 188.712 40.832 178.088C40.832 167.464 46.272 159.464 55.36 159.464C62.784 159.464 66.624 164.84 67.776 170.856H73.984C72.64 161 65.984 154.408 55.36 154.408C43.2 154.408 34.688 163.88 34.688 178.152C34.688 192.424 43.008 201.832 55.36 201.832ZM94.862 201.832C104.846 201.832 110.734 194.408 110.734 184.552C110.734 174.696 104.846 167.208 94.862 167.208C84.878 167.208 78.99 174.696 78.99 184.552C78.99 194.408 84.878 201.832 94.862 201.832ZM84.942 184.488C84.942 178.024 87.63 171.944 94.862 171.944C102.03 171.944 104.782 178.024 104.782 184.488C104.782 190.888 102.03 197.096 94.862 197.096C87.63 197.096 84.942 190.888 84.942 184.488ZM128.552 201.832C133.224 201.832 137.32 199.848 139.496 195.88V201H145.256V168.04H139.496V187.048C139.496 192.936 135.272 197.032 130.6 197.032C125.864 197.032 122.6 194.088 122.6 188.328V168.04H116.84V188.712C116.84 197.288 121.704 201.832 128.552 201.832ZM153.471 201H159.231V181.992C159.231 176.168 163.519 172.008 168.639 172.008C173.503 172.008 176.767 175.016 176.767 180.776V201H182.527V180.456C182.527 171.688 177.535 167.208 170.367 167.208C165.567 167.208 161.407 169.384 159.231 173.032V168.04H153.471V201ZM200.327 201H206.663V196.264H201.991C199.367 196.264 198.599 195.24 198.599 192.424V172.776H205.831V168.04H198.599V157.16H192.903V166.632C192.903 167.464 192.327 168.04 191.431 168.04H187.655V172.776H192.903V193.32C192.903 198.824 195.271 201 200.327 201ZM224.895 201.832C231.423 201.832 238.207 198.824 238.207 191.656C238.207 185.768 233.407 183.208 228.799 182.312L221.887 181.032C219.263 180.52 216.959 179.304 216.959 176.616C216.959 173.544 220.287 171.816 223.871 171.816C228.287 171.816 231.103 173.672 231.743 177.448H237.567C236.863 170.344 231.487 167.208 223.999 167.208C216.319 167.208 211.199 171.304 211.199 176.744C211.199 182.888 215.807 185.064 220.543 185.96L226.687 187.112C231.039 188.008 232.255 189.928 232.255 191.976C232.255 195.432 229.055 197.16 225.023 197.16C219.071 197.16 216.895 194.344 216.191 190.76H210.303C210.815 196.776 215.039 201.832 224.895 201.832Z" fill="black"/>
<path d="M578 283C578 291.285 571.284 298 563 298C554.715 298 548 291.285 548 283C548 274.716 554.715 268 563 268C571.284 268 578 274.716 578 283Z" fill="black"/>
<path d="M608 283C608 291.285 601.284 298 593 298C584.716 298 578 291.285 578 283C578 274.716 584.716 268 593 268C601.284 268 608 274.716 608 283Z" fill="black"/>
<path d="M608 298C608 314.569 594.569 328 578 328C561.432 328 548 314.569 548 298H608Z" fill="black"/>
</svg>
