<svg width="121" height="120" viewBox="0 0 121 120" fill="none" xmlns="http://www.w3.org/2000/svg">
<path d="M75.8993 45.1006C75.8993 42.1392 76.4826 39.2069 77.6159 36.4709C78.7491 33.735 80.4102 31.2491 82.5042 29.1551C84.5982 27.0611 87.0841 25.4 89.82 24.2668C92.556 23.1335 95.4883 22.5502 98.4497 22.5502C101.411 22.5502 104.343 23.1335 107.079 24.2668C109.815 25.4 112.301 27.0611 114.395 29.1551C116.489 31.2491 118.15 33.735 119.283 36.4709C120.417 39.2069 121 42.1392 121 45.1006L98.4497 45.1006L75.8993 45.1006Z" fill="black"/>
<circle cx="90.9494" cy="90" r="30" transform="rotate(-180 90.9494 90)" fill="black"/>
<circle cx="30.9494" cy="90" r="30" transform="rotate(-180 30.9494 90)" fill="black"/>
<circle cx="30.9494" cy="30" r="30" transform="rotate(-180 30.9494 30)" fill="black"/>
<path d="M75.6473 45.1007C78.6351 45.1007 81.5937 44.5174 84.354 43.3841C87.1144 42.2509 89.6225 40.5898 91.7352 38.4958C93.8479 36.4018 95.5238 33.9159 96.6671 31.18C97.8105 28.444 98.399 25.5117 98.399 22.5503C98.399 19.589 97.8105 16.6566 96.6672 13.9207C95.5238 11.1848 93.8479 8.69883 91.7352 6.60484C89.6225 4.51085 87.1144 2.8498 84.354 1.71654C81.5937 0.583282 78.6351 2.31164e-09 75.6473 0L75.6473 22.5503L75.6473 45.1007Z" fill="black"/>
</svg>
