<svg width="200" height="200" viewBox="0 0 200 200" fill="none" xmlns="http://www.w3.org/2000/svg">
<path d="M133.332 133.333C133.332 170.153 103.485 200 66.6662 200C29.8474 200 0 170.153 0 133.333H133.332Z" fill="black"/>
<path d="M150.001 166.667C145.736 166.667 141.47 165.04 138.216 161.785C131.708 155.277 131.708 144.724 138.216 138.216L171.549 104.883C178.058 98.3731 188.611 98.3731 195.12 104.883C201.627 111.391 201.627 121.944 195.12 128.453L161.787 161.785C158.532 165.04 154.267 166.667 150.001 166.667Z" fill="black"/>
<path d="M133.331 16.6685V116.668C133.331 125.872 125.871 133.333 116.667 133.333C107.459 133.333 99.999 125.872 99.999 116.668C99.999 125.872 92.5385 133.333 83.3313 133.333C74.1274 133.333 66.6669 125.872 66.6669 116.668C66.6669 125.872 59.203 133.333 49.9992 133.333C40.7953 133.333 33.3314 125.871 33.3314 116.668C33.3314 125.872 25.8709 133.333 16.6677 133.333C7.4605 133.332 0 125.871 0 116.668V16.6685C0 7.46055 7.4605 0 16.6677 0C25.8716 0 33.3314 7.46055 33.3314 16.6685V83.3325C33.3314 74.1285 40.7953 66.6687 49.9992 66.6687C59.203 66.6687 66.6669 74.1285 66.6669 83.3325C66.6669 74.1285 74.1274 66.6687 83.3313 66.6687C92.5385 66.6687 99.999 74.1285 99.999 83.3325V16.6685C99.999 7.46055 107.459 0 116.667 0C125.871 0 133.331 7.46055 133.331 16.6685Z" fill="black"/>
</svg>
