<svg width="320" height="321" viewBox="0 0 320 321" fill="none" xmlns="http://www.w3.org/2000/svg">
<rect width="320" height="320.734" rx="8" fill="#FA5A6E"/>
<path d="M99 179.22V173.243L107.714 146.926H100.256V141.427H113.715V146.926L104.876 173.72H113.715V179.22H99Z" fill="black"/>
<path d="M121.52 171.912V171.46V149.186C121.52 149.069 121.52 148.919 121.52 148.734C121.536 148.533 121.586 148.148 121.67 147.579C121.771 147.01 121.905 146.466 122.072 145.947C122.239 145.428 122.507 144.859 122.876 144.239C123.244 143.603 123.671 143.059 124.156 142.607C124.658 142.155 125.32 141.778 126.14 141.477C126.96 141.159 127.881 141 128.902 141C129.924 141 130.844 141.151 131.665 141.452C132.485 141.753 133.138 142.147 133.623 142.632C134.126 143.101 134.561 143.628 134.929 144.214C135.314 144.8 135.59 145.386 135.758 145.972C135.925 146.558 136.051 147.094 136.134 147.579C136.235 148.048 136.285 148.433 136.285 148.734L136.31 149.186V171.46C136.31 171.578 136.302 171.737 136.285 171.937C136.285 172.122 136.235 172.498 136.134 173.068C136.051 173.637 135.925 174.181 135.758 174.7C135.59 175.202 135.323 175.771 134.954 176.407C134.586 177.027 134.151 177.563 133.648 178.015C133.146 178.467 132.485 178.852 131.665 179.17C130.844 179.471 129.924 179.622 128.902 179.622C127.881 179.622 126.96 179.471 126.14 179.17C125.32 178.868 124.658 178.483 124.156 178.015C123.671 177.529 123.244 176.993 122.876 176.407C122.507 175.821 122.239 175.244 122.072 174.675C121.905 174.089 121.771 173.561 121.67 173.093C121.586 172.607 121.536 172.214 121.52 171.912ZM127.069 171.46C127.069 171.527 127.069 171.628 127.069 171.762C127.069 171.879 127.094 172.097 127.145 172.415C127.211 172.733 127.295 173.017 127.396 173.268C127.513 173.503 127.697 173.72 127.948 173.921C128.216 174.122 128.534 174.223 128.902 174.223C129.271 174.223 129.58 174.131 129.831 173.946C130.099 173.746 130.292 173.511 130.409 173.243C130.526 172.975 130.61 172.708 130.66 172.44C130.727 172.172 130.761 171.937 130.761 171.737V171.46V149.186C130.761 149.103 130.761 149.002 130.761 148.885C130.761 148.768 130.727 148.55 130.66 148.232C130.61 147.897 130.526 147.613 130.409 147.378C130.292 147.127 130.099 146.901 129.831 146.7C129.58 146.499 129.271 146.399 128.902 146.399C128.316 146.399 127.873 146.633 127.571 147.102C127.27 147.554 127.111 148.015 127.094 148.483L127.069 149.186V171.46Z" fill="black"/>
<path d="M145.195 179.22V141.427H150.745V154.008V155.665H150.946L151.222 154.008L155.843 141.427H161.242L156.144 153.857L161.92 179.22H156.496L152.653 162.772L152.503 161.993H152.352L152.026 162.772L150.745 165.86V179.22H145.195Z" fill="black"/>
<path d="M168.67 141.427H174.119L176.907 153.505L177.057 154.887H177.158L177.308 153.505L180.096 141.427H185.545L179.895 163.123V179.22H174.345V163.123L168.67 141.427Z" fill="black"/>
<path d="M192.596 171.912V171.46V149.186C192.596 149.069 192.596 148.919 192.596 148.734C192.612 148.533 192.663 148.148 192.746 147.579C192.847 147.01 192.981 146.466 193.148 145.947C193.316 145.428 193.583 144.859 193.952 144.239C194.32 143.603 194.747 143.059 195.232 142.607C195.735 142.155 196.396 141.778 197.216 141.477C198.037 141.159 198.957 141 199.979 141C201 141 201.92 141.151 202.741 141.452C203.561 141.753 204.214 142.147 204.699 142.632C205.202 143.101 205.637 143.628 206.005 144.214C206.39 144.8 206.667 145.386 206.834 145.972C207.001 146.558 207.127 147.094 207.211 147.579C207.311 148.048 207.361 148.433 207.361 148.734L207.386 149.186V171.46C207.386 171.578 207.378 171.737 207.361 171.937C207.361 172.122 207.311 172.498 207.211 173.068C207.127 173.637 207.001 174.181 206.834 174.7C206.667 175.202 206.399 175.771 206.03 176.407C205.662 177.027 205.227 177.563 204.725 178.015C204.222 178.467 203.561 178.852 202.741 179.17C201.92 179.471 201 179.622 199.979 179.622C198.957 179.622 198.037 179.471 197.216 179.17C196.396 178.868 195.735 178.483 195.232 178.015C194.747 177.529 194.32 176.993 193.952 176.407C193.583 175.821 193.316 175.244 193.148 174.675C192.981 174.089 192.847 173.561 192.746 173.093C192.663 172.607 192.612 172.214 192.596 171.912ZM198.145 171.46C198.145 171.527 198.145 171.628 198.145 171.762C198.145 171.879 198.17 172.097 198.221 172.415C198.288 172.733 198.371 173.017 198.472 173.268C198.589 173.503 198.773 173.72 199.024 173.921C199.292 174.122 199.61 174.223 199.979 174.223C200.347 174.223 200.657 174.131 200.908 173.946C201.175 173.746 201.368 173.511 201.485 173.243C201.602 172.975 201.686 172.708 201.736 172.44C201.803 172.172 201.837 171.937 201.837 171.737V171.46V149.186C201.837 149.103 201.837 149.002 201.837 148.885C201.837 148.768 201.803 148.55 201.736 148.232C201.686 147.897 201.602 147.613 201.485 147.378C201.368 147.127 201.175 146.901 200.908 146.7C200.657 146.499 200.347 146.399 199.979 146.399C199.393 146.399 198.949 146.633 198.648 147.102C198.346 147.554 198.187 148.015 198.17 148.483L198.145 149.186V171.46Z" fill="black"/>
<path d="M215.543 179.22V173.52H220.942V179.22H215.543Z" fill="#3FAFED"/>
</svg>
