<svg width="120" height="120" viewBox="0 0 120 120" fill="none" xmlns="http://www.w3.org/2000/svg">
<path d="M60.0001 90.001C60.0001 106.569 46.5676 120.001 30.0003 120.001C13.4325 120.001 0 106.569 0 90.001" fill="black"/>
<path d="M30.0003 75.0009C30.0003 83.2851 23.2836 90.0008 14.9999 90.0008C6.71623 90.0008 0 83.2846 0 75.0009C0 66.7172 6.71673 60.0005 14.9999 60.0005C23.2836 60.0005 30.0003 66.7167 30.0003 75.0009Z" fill="black"/>
<path d="M59.9998 75.0009C59.9998 83.2851 53.2836 90.0008 44.9994 90.0008C36.7157 90.0008 30 83.2846 30 75.0009C30 66.7172 36.7162 60.0005 44.9994 60.0005C53.2841 60.0005 59.9998 66.7167 59.9998 75.0009Z" fill="black"/>
<path d="M60.0001 30.0005C60.0001 46.5683 46.5676 60.0008 30.0003 60.0008C13.4325 60.0008 0 46.5683 0 30.0005" fill="black"/>
<path d="M30.0003 14.9999C30.0003 23.2836 23.2836 30.0003 14.9999 30.0003C6.71623 30.0003 0 23.2836 0 14.9999C0 6.71623 6.71673 0 14.9999 0C23.2836 0 30.0003 6.71623 30.0003 14.9999Z" fill="black"/>
<path d="M59.9998 14.9999C59.9998 23.2836 53.2836 30.0003 44.9994 30.0003C36.7157 30.0003 30 23.2836 30 14.9999C30 6.71623 36.7162 0 44.9994 0C53.2841 0 59.9998 6.71623 59.9998 14.9999Z" fill="black"/>
<path d="M120 90.001C120 106.569 106.568 120.001 89.9998 120.001C73.4325 120.001 60 106.569 60 90.001" fill="black"/>
<path d="M89.9998 75.0009C89.9998 83.2851 83.2836 90.0008 74.9999 90.0008C66.7162 90.0008 60 83.2846 60 75.0009C60 66.7172 66.7167 60.0005 74.9999 60.0005C83.2836 60.0005 89.9998 66.7167 89.9998 75.0009Z" fill="black"/>
<path d="M120 75.0009C120 83.2851 113.284 90.0008 105 90.0008C96.7162 90.0008 90 83.2846 90 75.0009C90 66.7172 96.7167 60.0005 105 60.0005C113.284 60.0005 120 66.7167 120 75.0009Z" fill="black"/>
<path d="M120 30.0005C120 46.5683 106.568 60.0008 89.9998 60.0008C73.4325 60.0008 60 46.5683 60 30.0005" fill="black"/>
<path d="M89.9998 14.9999C89.9998 23.2836 83.2836 30.0003 74.9999 30.0003C66.7162 30.0003 60 23.2836 60 14.9999C60 6.71623 66.7167 0 74.9999 0C83.2836 0 89.9998 6.71623 89.9998 14.9999Z" fill="black"/>
<path d="M120 14.9999C120 23.2836 113.284 30.0003 105 30.0003C96.7162 30.0003 90 23.2836 90 14.9999C90 6.71623 96.7167 0 105 0C113.284 0 120 6.71623 120 14.9999Z" fill="black"/>
</svg>
