<svg width="120" height="120" viewBox="0 0 120 120" fill="none" xmlns="http://www.w3.org/2000/svg">
<path d="M59.9993 0C59.9993 16.5686 46.5681 29.9999 29.9999 29.9999C13.4313 29.9999 0 16.5686 0 0H59.9993Z" fill="black"/>
<path d="M59.9993 30C59.9993 46.5687 46.5681 59.9999 29.9999 59.9999C13.4313 59.9999 0 46.5687 0 30H59.9993Z" fill="black"/>
<path d="M119.999 29.9999C119.999 46.5675 106.567 59.9998 89.9994 59.9998C73.4323 59.9998 60 46.5675 60 29.9999C60 13.4323 73.4323 0.000488296 89.9994 0.000488296C106.567 -1.9618e-05 119.999 13.4323 119.999 29.9999Z" fill="black"/>
<path d="M119.999 89.9989C119.999 106.567 106.567 119.998 89.9994 119.998C73.4323 119.998 60 106.567 60 89.9989C60 73.4318 73.4323 59.9995 89.9994 59.9995C106.567 59.999 119.999 73.4318 119.999 89.9989Z" fill="black"/>
<path d="M59.9993 89.9994C59.9993 106.567 46.567 119.999 29.9999 119.999C13.4323 119.999 0 106.567 0 89.9994C0 73.4323 13.4323 60 29.9999 60C46.567 59.9995 59.9993 73.4323 59.9993 89.9994Z" fill="black"/>
</svg>
