<svg width="278" height="279" viewBox="0 0 278 279" fill="none" xmlns="http://www.w3.org/2000/svg">
<g clip-path="url(#clip0_14253_563)">
<path d="M139 174.375C139 193.614 123.42 209.25 104.25 209.25H173.75C154.58 209.25 139 193.614 139 174.375ZM139 174.375C139 193.614 123.42 209.25 104.25 209.25H173.75C154.58 209.25 139 193.614 139 174.375Z" fill="black"/>
<path d="M278 0V139.5C278 216.516 215.798 279 139 279C177.399 279 208.5 247.787 208.5 209.25H173.75C192.92 209.25 208.5 193.614 208.5 174.375C208.5 155.136 192.92 139.5 173.75 139.5C154.58 139.5 139 155.136 139 174.375C139 155.136 123.42 139.5 104.25 139.5C85.0796 139.5 69.5 155.136 69.5 174.375C69.5 193.614 85.0796 209.25 104.25 209.25H69.5C69.5 247.787 100.601 279 139 279C62.2025 279 0 216.516 0 139.5V0C38.3988 0 69.5 31.2131 69.5 69.75H208.5C208.5 31.2131 239.601 0 278 0Z" fill="black"/>
</g>
<defs>
<clipPath id="clip0_14253_563">
<rect width="278" height="279" fill="white"/>
</clipPath>
</defs>
</svg>
