<svg width="279" height="278" viewBox="0 0 279 278" fill="none" xmlns="http://www.w3.org/2000/svg">
<path d="M173.75 208.5H104.25C123.443 208.5 139 192.943 139 173.75C139 192.943 154.556 208.5 173.75 208.5Z" fill="black"/>
<path d="M277.999 69.5002V139C277.999 215.769 215.767 278 138.999 278C177.38 278 208.499 246.881 208.499 208.5H173.749C192.943 208.5 208.499 192.944 208.499 173.75C208.499 154.557 192.943 139 173.749 139C154.556 139 138.999 154.557 138.999 173.75C138.999 154.557 123.443 139 104.249 139C85.056 139 69.4996 154.557 69.4996 173.75C69.4996 192.944 85.056 208.5 104.249 208.5H69.4996C69.4996 246.881 100.618 278 138.999 278C62.2311 278 0 215.769 0 139V69.5002H277.999Z" fill="black"/>
<path d="M0 0H69.4996V69.4999C31.1185 69.4999 0 38.3813 0 0Z" fill="black"/>
<path d="M208.504 69.4999V0H278.004C278.004 38.3813 246.885 69.4999 208.504 69.4999Z" fill="black"/>
</svg>
