<svg width="278" height="278" viewBox="0 0 278 278" fill="none" xmlns="http://www.w3.org/2000/svg">
<path d="M173.75 208.5H104.25C123.444 208.5 139 192.943 139 173.75C139 192.943 154.556 208.5 173.75 208.5Z" fill="black"/>
<path d="M278 139C278 215.769 215.769 278 139 278C177.381 278 208.5 246.881 208.5 208.5H173.75C192.944 208.5 208.5 192.944 208.5 173.75C208.5 154.556 192.944 139 173.75 139C154.556 139 139 154.556 139 173.75C139 154.556 123.444 139 104.25 139C85.0564 139 69.5 154.556 69.5 173.75C69.5 192.944 85.0564 208.5 104.25 208.5H69.5C69.5 246.881 100.619 278 139 278C62.2315 278 0 215.769 0 139C0 62.2315 62.2315 0 139 0C215.769 0 278 62.2315 278 139Z" fill="black"/>
</svg>
