<svg width="278" height="278" viewBox="0 0 278 278" fill="none" xmlns="http://www.w3.org/2000/svg">
<path d="M259.397 69.5C235.367 27.9564 190.447 0 139 0V69.5H0V139C0 215.769 62.2315 278 139 278C100.619 278 69.5 246.881 69.5 208.5H104.25C85.0564 208.5 69.5 192.944 69.5 173.75C69.5 154.556 85.0564 139 104.25 139C123.444 139 139 154.556 139 173.75C139 154.556 154.556 139 173.75 139C192.944 139 208.5 154.556 208.5 173.75C208.5 192.944 192.944 208.5 173.75 208.5H208.5C208.5 246.881 177.381 278 139 278C215.769 278 278 215.769 278 139C278 113.685 271.229 89.9446 259.397 69.5ZM139 173.75C139 192.944 123.444 208.5 104.25 208.5H173.75C154.556 208.5 139 192.944 139 173.75Z" fill="black"/>
</svg>
