<svg width="278" height="278" viewBox="0 0 278 278" fill="none" xmlns="http://www.w3.org/2000/svg">
<g clip-path="url(#clip0_14253_1131)">
<path d="M278 69.5V139C278 215.74 215.74 278 139 278C177.399 278 208.5 246.899 208.5 208.5H173.75C192.92 208.5 208.5 192.92 208.5 173.75C208.5 154.58 192.92 139 173.75 139C154.58 139 139 154.58 139 173.75C139 154.58 123.42 139 104.25 139C85.0796 139 69.5 154.58 69.5 173.75C69.5 192.92 85.0796 208.5 104.25 208.5H69.5C69.5 246.899 100.601 278 139 278C62.2025 278 0 215.74 0 139V69.5H69.5C69.5 31.1012 100.601 0 139 0C177.399 0 208.5 31.1012 208.5 69.5H278Z" fill="black"/>
<path d="M173.75 208.5H104.25C123.42 208.5 139 192.92 139 173.75C139 192.92 154.58 208.5 173.75 208.5Z" fill="black"/>
<path d="M208.5 69.5V0H278C278 38.3988 246.899 69.5 208.5 69.5Z" fill="black"/>
</g>
<defs>
<clipPath id="clip0_14253_1131">
<rect width="278" height="278" fill="white"/>
</clipPath>
</defs>
</svg>
