<svg width="278" height="278" viewBox="0 0 278 278" fill="none" xmlns="http://www.w3.org/2000/svg">
<path d="M139 173.75C139 192.943 123.444 208.5 104.25 208.5H173.75C154.556 208.5 139 192.943 139 173.75ZM139 173.75C139 192.943 123.444 208.5 104.25 208.5H173.75C154.556 208.5 139 192.943 139 173.75Z" fill="black"/>
<path d="M257.573 66.4188C270.529 87.541 278 112.399 278 139C278 215.769 215.769 278 139 278C177.381 278 208.5 246.881 208.5 208.5H173.75C192.944 208.5 208.5 192.944 208.5 173.75C208.5 154.556 192.944 139 173.75 139C154.556 139 139 154.556 139 173.75C139 154.556 123.444 139 104.25 139C85.0564 139 69.5 154.556 69.5 173.75C69.5 192.944 85.0564 208.5 104.25 208.5H69.5C69.5 246.881 100.619 278 139 278C62.2315 278 0 215.769 0 139C0 112.399 7.47126 87.541 20.4272 66.4188C8.38055 60.9631 0 48.8353 0 34.75C0 15.5564 15.5564 0 34.75 0C48.8353 0 60.9631 8.38055 66.4189 20.4272C87.5411 7.47126 112.399 0 139 0C165.601 0 190.459 7.47126 211.581 20.4272C217.037 8.38055 229.165 0 243.25 0C262.444 0 278 15.5564 278 34.75C278 48.8353 269.619 60.9631 257.573 66.4188Z" fill="black"/>
</svg>
