<svg width="467" height="646" viewBox="0 0 467 646" fill="none" xmlns="http://www.w3.org/2000/svg">
<g clip-path="url(#clip0_13614_385715)">
<rect width="467" height="646" rx="20" fill="#FFE650"/>
<path d="M250.999 538C250.999 593.225 295.775 638 351 638C406.225 638 451 593.225 451 538H250.999Z" fill="black"/>
<path d="M226 588.001C232.4 588.001 238.8 585.559 243.675 580.676C253.442 570.909 253.442 555.084 243.675 545.317L193.675 495.317C183.908 485.551 168.083 485.551 158.316 495.317C148.55 505.084 148.55 520.909 158.316 530.676L208.317 580.676C213.2 585.559 219.6 588.001 225.992 588.001H226Z" fill="black"/>
<path d="M250.999 363V513C250.999 526.809 262.191 538.001 276 538.001C289.808 538.001 301 526.809 301 513C301 526.809 312.191 538.001 326 538.001C339.808 538.001 351 526.809 351 513C351 526.809 362.191 538.001 376 538.001C389.808 538.001 401 526.809 401 513C401 526.809 412.192 538.001 426 538.001C439.808 538.001 451 526.809 451 513V363C451 349.192 439.808 338 426 338C412.192 338 401 349.192 401 363V463C401 449.192 389.808 438 376 438C362.191 438 351 449.192 351 463C351 449.192 339.808 438 326 438C312.191 438 301 449.192 301 463V363C301 349.192 289.808 338 276 338C262.191 338 250.999 349.192 250.999 363Z" fill="black"/>
<path d="M188 8C207.882 8 224 24.1177 224 44C224 63.8822 207.882 80 188 80C168.118 80 152 63.8822 152 44C152 24.1177 168.118 8 188 8Z" fill="black"/>
<path d="M116 8C135.882 8 152 24.1177 152 44C152 63.8822 135.882 80 116 80C96.1177 80 80 63.8823 80 44C80 24.1177 96.1177 8 116 8Z" fill="black"/>
<path d="M116 80.0019C135.882 80.0019 152 96.1197 152 116.002C152 135.884 135.882 152.002 116 152.002C96.1178 152.002 80 135.884 80 116.002C80 96.1197 96.1177 80.002 116 80.0019Z" fill="black"/>
<path d="M44 8C63.8822 8 80 24.1177 80 44C80 63.8822 63.8823 80 44 80C24.1178 80 8 63.8822 8 44C8 24.1177 24.1177 8 44 8Z" fill="black"/>
<path d="M44 80.0019C63.8822 80.0019 80 96.1197 80 116.002C80 135.884 63.8823 152.002 44 152.002C24.1178 152.002 8 135.884 8 116.002C8 96.1197 24.1177 80.002 44 80.0019Z" fill="black"/>
<path d="M44 152.001C63.8822 152.001 80 168.119 80 188.001C80 207.883 63.8823 224.001 44 224.001C24.1178 224.001 8 207.883 8 188.001C8 168.119 24.1177 152.001 44 152.001Z" fill="black"/>
<path d="M224.486 381.589C222.087 381.026 220.356 381.785 219.93 383.598C219.608 384.974 220.278 386.038 221.865 386.813L223.839 387.779C224.896 388.3 225.311 388.858 225.129 389.635C224.912 390.561 223.882 390.967 222.546 390.654C221.129 390.321 220.498 389.454 220.542 388.285L219.247 387.981C218.959 389.639 219.963 391.184 222.225 391.714C224.379 392.22 226.107 391.474 226.481 389.88C226.912 388.04 225.565 387.163 224.402 386.602L222.494 385.666C221.485 385.185 221.096 384.576 221.275 383.812C221.553 382.627 222.758 382.334 224.23 382.679C225.77 383.041 226.634 384.077 226.542 385.451L227.837 385.754C228.168 383.977 227.062 382.193 224.486 381.589Z" fill="black"/>
<path d="M214.844 379.284C213.276 378.682 211.938 379.158 211.11 380.34L212.299 380.796C212.816 380.155 213.503 379.848 214.483 380.225C215.829 380.741 215.998 382.021 215.605 383.28L210.625 381.368C209.355 384.21 210.457 385.713 212.13 386.355C214.104 387.112 215.928 386.073 216.705 384.047C217.483 382.021 216.818 380.041 214.844 379.284ZM215.238 384.158C214.663 385.227 213.72 385.885 212.492 385.414C211.368 384.982 210.986 384.101 211.434 382.699L215.238 384.158Z" fill="black"/>
<path d="M206.781 376.149C205.307 375.343 203.918 375.636 202.939 376.697L204.057 377.308C204.654 376.741 205.376 376.53 206.297 377.033C207.562 377.725 207.559 379.016 207.001 380.211L202.321 377.652C200.683 380.298 201.575 381.935 203.147 382.794C205.002 383.809 206.948 383.022 207.989 381.118C209.03 379.214 208.636 377.163 206.781 376.149ZM206.52 381.033C205.807 382.015 204.785 382.541 203.631 381.91C202.574 381.332 202.314 380.408 202.945 379.078L206.52 381.033Z" fill="black"/>
<path d="M197.852 371.585L196.887 370.775L194.223 373.949C193.396 374.936 192.114 375.048 191.298 374.364C190.537 373.725 190.424 372.771 191.234 371.806L194.077 368.417L193.112 367.607L190.224 371.05C188.982 372.53 189.197 373.971 190.323 374.916C191.128 375.591 192.097 375.765 192.964 375.451L190.453 378.443L191.418 379.253L197.852 371.585Z" fill="black"/>
<path d="M189.03 363.879C187.561 362.264 185.493 362.404 183.898 363.855C182.303 365.305 181.958 367.36 183.428 368.976C184.898 370.591 186.976 370.442 188.571 368.991C190.166 367.54 190.5 365.495 189.03 363.879ZM187.684 368.037C186.638 368.989 185.259 369.449 184.194 368.279C183.139 367.119 183.718 365.779 184.764 364.827C185.799 363.885 187.209 363.416 188.264 364.576C189.329 365.747 188.72 367.095 187.684 368.037Z" fill="black"/>
<path d="M183.564 358.855L182.84 357.689L177.254 359.229L181.186 355.025L180.469 353.871L173.177 355.795L173.835 356.854L179.658 355.166L175.533 359.589L176.146 360.577L181.992 358.924L177.881 363.372L178.561 364.466L183.564 358.855Z" fill="black"/>
<path d="M176.195 346.657L175.678 345.507L169.102 348.464L169.619 349.613L176.195 346.657ZM168.524 350.182L167.944 348.893L166.514 349.536L167.094 350.825L168.524 350.182Z" fill="black"/>
<path d="M173.588 340.691L173.126 339.384L172.149 339.73L172.49 340.693C172.682 341.234 172.527 341.467 171.946 341.673L167.894 343.107L167.366 341.616L166.39 341.961L166.918 343.453L164.674 344.247L165.09 345.421L167.043 344.73C167.214 344.669 167.375 344.746 167.441 344.931L167.716 345.709L168.693 345.364L168.31 344.282L172.546 342.782C173.681 342.38 173.957 341.733 173.588 340.691Z" fill="black"/>
<path d="M170.29 331.593L170.168 330.227L164.487 329.087L169.891 327.103L169.77 325.75L162.393 324.186L162.503 325.427L168.463 326.541L162.788 328.634L162.891 329.791L168.855 330.948L163.183 333.069L163.297 334.351L170.29 331.593Z" fill="black"/>
<path d="M169.348 318.135C169.449 315.953 167.887 314.592 165.733 314.492C163.579 314.392 161.883 315.603 161.782 317.784C161.681 319.966 163.258 321.329 165.411 321.428C167.565 321.528 169.247 320.317 169.348 318.135ZM165.458 320.127C164.045 320.062 162.744 319.413 162.817 317.832C162.89 316.266 164.246 315.726 165.659 315.792C167.057 315.857 168.386 316.521 168.313 318.087C168.24 319.667 166.856 320.192 165.458 320.127Z" fill="black"/>
<path d="M169.308 312.76L169.473 311.511L165.6 311.001C164.129 310.807 163.516 309.992 163.666 308.854L163.732 308.354L162.552 308.199L162.499 308.601C162.389 309.434 162.619 310.156 163.435 310.716L162.324 310.569L162.16 311.818L169.308 312.76Z" fill="black"/>
<path d="M169.708 307.004L170.037 305.788L167.902 305.21L166.948 303.646L171.011 302.194L171.41 300.721L166.297 302.57L164.32 299.322L163.909 300.835L166.348 304.789L160.376 303.17L160.046 304.386L169.708 307.004Z" fill="black"/>
<path d="M172.872 296.09C173.424 294.773 173.39 293.15 171.943 292.544C170.755 292.047 169.833 292.799 169.263 293.653L168.421 294.94C168.096 295.426 167.656 295.788 167.114 295.561C166.494 295.302 166.426 294.484 166.729 293.761C167.102 292.87 167.714 292.459 168.53 292.648L169.022 291.473C167.529 291.015 166.442 291.835 165.81 293.346C165.161 294.896 165.555 296.275 166.653 296.735C167.893 297.253 168.721 296.507 169.302 295.627L170.053 294.485C170.602 293.682 171.092 293.599 171.505 293.772C172.202 294.064 172.281 294.856 171.94 295.669C171.438 296.87 170.686 297.072 169.903 296.911L169.406 298.099C170.663 298.504 172.04 298.079 172.872 296.09Z" fill="black"/>
<path d="M173.691 284.671L175.758 281.423L174.778 280.799L172.711 284.047L173.691 284.671Z" fill="black"/>
<path d="M183.752 275.199L184.833 274.245L181.031 266.6L188.117 271.343L189.208 270.379L184.606 261.089L183.609 261.969L187.605 269.685L180.356 264.843L179.349 265.733L183.272 273.513L176.097 268.606L175.089 269.496L183.752 275.199Z" fill="black"/>
<path d="M194.04 266.237C194.783 265.737 195.436 264.926 195.435 263.796L195.536 263.947C195.826 264.377 196.342 264.468 196.912 264.085L197.62 263.608L197.042 262.749L196.67 262.999C196.531 263.093 196.356 263.059 196.27 262.931L194.316 260.027C193.409 258.68 192.123 258.398 190.531 259.469C189.103 260.43 188.67 261.869 189.347 263.151L190.393 262.448C189.993 261.653 190.223 260.891 191.117 260.289C192.012 259.688 192.727 259.898 193.118 260.479C193.305 260.758 193.392 261.087 192.963 261.477L191.791 262.519C190.901 263.304 189.916 264.422 190.854 265.816C191.565 266.873 192.82 267.058 194.04 266.237ZM191.903 265.043C191.496 264.439 191.661 263.855 192.473 263.106L193.421 262.233C193.595 262.065 193.78 261.889 193.907 261.652L194.189 262.07C194.978 263.243 194.813 264.502 193.744 265.221C193.024 265.706 192.317 265.658 191.903 265.043Z" fill="black"/>
<path d="M201.072 261.38L202.283 260.706L201.779 259.801L200.886 260.298C200.385 260.577 200.129 260.463 199.829 259.924L197.739 256.169L199.122 255.4L198.618 254.494L197.236 255.264L196.078 253.184L194.99 253.79L195.997 255.6C196.086 255.759 196.037 255.931 195.866 256.026L195.144 256.428L195.648 257.333L196.651 256.775L198.836 260.702C199.421 261.754 200.105 261.918 201.072 261.38Z" fill="black"/>
<path d="M206.883 258.403C208.473 257.779 209.143 256.418 208.833 254.9L207.66 255.361C207.775 256.383 207.378 257.096 206.505 257.438C205.111 257.985 204.017 257.001 203.49 255.658C202.964 254.316 203.101 252.864 204.495 252.316C205.355 251.979 206.232 252.297 206.796 253.158L207.982 252.693C207.156 251.242 205.667 250.743 204.13 251.347C202.162 252.119 201.496 254.14 202.284 256.147C203.071 258.154 204.929 259.17 206.883 258.403Z" fill="black"/>
<path d="M212.065 255.785L213.29 255.488L212.313 251.461C212.009 250.209 212.679 249.11 213.713 248.86C214.679 248.625 215.514 249.099 215.811 250.324L216.854 254.623L218.079 254.326L217.019 249.959C216.563 248.081 215.274 247.4 213.846 247.747C212.826 247.994 212.111 248.672 211.85 249.556L210.929 245.76L209.705 246.058L212.065 255.785Z" fill="black"/>
<path d="M226.568 252.547L228.121 252.487L230.473 245.181L229.158 245.232L227.294 251.398L224.975 245.393L223.66 245.444L226.568 252.547Z" fill="black"/>
<path d="M233.27 252.233L234.529 252.272L234.752 245.065L233.493 245.026L233.27 252.233ZM233.461 243.793L234.874 243.836L234.922 242.269L233.509 242.225L233.461 243.793Z" fill="black"/>
<path d="M240.711 252.57C241.717 252.754 242.588 252.501 243.309 251.75L243.113 252.824L244.352 253.051L246.153 243.204L244.913 242.978L244.216 246.792C243.855 245.887 243.079 245.304 242.073 245.12C240.366 244.808 238.719 246.029 238.311 248.26C237.903 250.491 239.004 252.258 240.711 252.57ZM239.592 248.495C239.877 246.938 240.852 245.964 242.201 246.211C243.537 246.455 244.113 247.741 243.831 249.284C243.549 250.826 242.553 251.84 241.217 251.595C239.867 251.349 239.308 250.051 239.592 248.495Z" fill="black"/>
<path d="M250.403 254.368C252.001 254.886 253.311 254.34 254.077 253.117L252.865 252.723C252.383 253.391 251.713 253.733 250.714 253.409C249.342 252.964 249.107 251.695 249.433 250.417L254.506 252.064C255.626 249.16 254.445 247.717 252.741 247.164C250.73 246.511 248.964 247.645 248.294 249.709C247.624 251.773 248.392 253.715 250.403 254.368ZM249.753 249.521C250.272 248.423 251.178 247.716 252.43 248.122C253.575 248.494 254.002 249.354 253.628 250.778L249.753 249.521Z" fill="black"/>
<path d="M258.685 257.096C260.653 258.043 262.518 257.139 263.453 255.196C264.388 253.253 263.938 251.219 261.97 250.272C260.002 249.324 258.131 250.242 257.196 252.184C256.261 254.127 256.717 256.149 258.685 257.096ZM258.375 252.737C258.988 251.462 260.095 250.519 261.521 251.205C262.933 251.885 262.899 253.344 262.286 254.619C261.679 255.88 260.547 256.843 259.135 256.163C257.709 255.477 257.768 253.998 258.375 252.737Z" fill="black"/>
<path d="M267.968 261.109L268.959 261.887L271.526 258.616C272.313 257.613 273.612 257.477 274.493 258.168C275.33 258.825 275.486 259.783 274.708 260.775L271.977 264.255L272.968 265.033L275.742 261.497C276.926 259.989 276.672 258.543 275.439 257.575C274.613 256.927 273.603 256.74 272.736 257.074L273.41 256.215L272.419 255.437L267.968 261.109Z" fill="black"/>
<path d="M277.704 269C279.232 270.562 281.293 270.346 282.834 268.839C284.375 267.331 284.645 265.265 283.118 263.704C281.591 262.142 279.519 262.367 277.978 263.875C276.437 265.383 276.177 267.439 277.704 269ZM278.899 264.796C279.909 263.807 281.271 263.297 282.378 264.428C283.474 265.549 282.945 266.909 281.934 267.898C280.933 268.877 279.542 269.397 278.445 268.276C277.339 267.145 277.898 265.775 278.899 264.796Z" fill="black"/>
<path d="M283.336 273.763L284.102 274.901L289.627 273.157L285.852 277.503L286.611 278.629L293.827 276.439L293.132 275.406L287.374 277.306L291.334 272.734L290.685 271.77L284.904 273.636L288.848 269.041L288.129 267.972L283.336 273.763Z" fill="black"/>
<path d="M294.85 284.644L296.429 288.155L297.489 287.679L295.91 284.168L294.85 284.644Z" fill="black"/>
<path d="M294.85 284.644L296.429 288.155L297.489 287.679L295.91 284.168L294.85 284.644Z" fill="black"/>
<path d="M296.96 299.889C297.422 302.31 298.819 303.582 300.648 303.234C302.037 302.969 302.735 301.923 302.798 300.158L302.878 297.962C302.924 296.785 303.264 296.178 304.048 296.029C304.983 295.85 305.773 296.626 306.03 297.974C306.303 299.404 305.767 300.333 304.681 300.768L304.931 302.075C306.562 301.664 307.565 300.118 307.129 297.836C306.715 295.663 305.331 294.387 303.722 294.694C301.866 295.048 301.613 296.636 301.574 297.926L301.494 300.051C301.465 301.168 301.067 301.771 300.297 301.918C299.101 302.146 298.343 301.165 298.06 299.679C297.764 298.125 298.359 296.914 299.651 296.44L299.402 295.133C297.644 295.554 296.464 297.29 296.96 299.889Z" fill="black"/>
<path d="M298.737 309.215C298.834 310.892 299.819 311.915 301.237 312.183L301.163 310.912C300.366 310.705 299.804 310.205 299.743 309.157C299.66 307.717 300.756 307.037 302.065 306.877L302.374 312.202C305.486 312.19 306.402 310.566 306.298 308.777C306.176 306.666 304.478 305.433 302.311 305.558C300.145 305.684 298.614 307.105 298.737 309.215ZM303.017 306.849C304.228 306.934 305.216 307.521 305.292 308.835C305.361 310.037 304.715 310.748 303.253 310.917L303.017 306.849Z" fill="black"/>
<path d="M299.209 318.553C299.073 320.228 299.907 321.377 301.274 321.839L301.377 320.569C300.616 320.255 300.129 319.681 300.214 318.635C300.33 317.198 301.51 316.675 302.829 316.698L302.397 322.015C305.482 322.433 306.613 320.952 306.758 319.166C306.929 317.059 305.418 315.602 303.255 315.426C301.092 315.251 299.38 316.446 299.209 318.553ZM303.776 316.803C304.963 317.054 305.86 317.773 305.753 319.084C305.656 320.285 304.918 320.899 303.446 320.864L303.776 316.803Z" fill="black"/>
<path d="M298.727 328.407L298.379 329.618L302.361 330.762C303.599 331.118 304.223 332.244 303.929 333.266C303.654 334.222 302.829 334.713 301.618 334.365L297.366 333.143L297.018 334.354L301.337 335.595C303.194 336.129 304.424 335.346 304.83 333.933C305.12 332.924 304.885 331.968 304.245 331.303L307.999 332.382L308.347 331.171L298.727 328.407Z" fill="black"/>
<path d="M295.266 339.674C294.386 341.673 295.352 343.506 297.325 344.376C299.298 345.245 301.316 344.727 302.197 342.729C303.078 340.73 302.098 338.891 300.125 338.021C298.152 337.152 296.147 337.676 295.266 339.674ZM299.613 339.219C300.907 339.789 301.887 340.863 301.249 342.311C300.617 343.746 299.157 343.76 297.863 343.19C296.582 342.625 295.582 341.527 296.214 340.092C296.852 338.644 298.332 338.654 299.613 339.219Z" fill="black"/>
<path d="M293.055 346.45L292.285 347.585L295.966 352.06L290.525 350.18L289.763 351.304L294.488 357.182L295.187 356.151L291.275 351.518L296.995 353.486L297.647 352.524L293.759 347.857L299.494 349.802L300.217 348.736L293.055 346.45Z" fill="black"/>
<path d="M284.764 358.353L283.923 359.291L289.291 364.104L290.132 363.165L284.764 358.353ZM291.096 363.936L290.152 364.989L291.32 366.035L292.264 364.982L291.096 363.936Z" fill="black"/>
<path d="M280.308 363.226L279.3 364.177L280.011 364.931L280.754 364.23C281.172 363.836 281.447 363.883 281.87 364.331L284.82 367.458L283.669 368.543L284.38 369.297L285.531 368.211L287.164 369.942L288.07 369.087L286.648 367.58C286.523 367.448 286.529 367.27 286.671 367.135L287.272 366.568L286.561 365.815L285.726 366.602L282.642 363.334C281.816 362.458 281.112 362.467 280.308 363.226Z" fill="black"/>
<path d="M273.426 369.911L272.227 370.579L273.498 376.232L269.487 372.103L268.3 372.764L269.873 380.14L270.962 379.534L269.555 373.636L273.776 377.968L274.791 377.403L273.42 371.485L277.666 375.803L278.791 375.177L273.426 369.911Z" fill="black"/>
<path d="M261.736 376.169C259.703 376.967 259.098 378.949 259.885 380.956C260.673 382.963 262.47 384.017 264.503 383.219C266.536 382.422 267.137 380.426 266.349 378.419C265.562 376.412 263.769 375.371 261.736 376.169ZM265.142 378.908C265.659 380.224 265.597 381.677 264.125 382.255C262.665 382.828 261.619 381.81 261.102 380.493C260.591 379.19 260.655 377.706 262.115 377.133C263.587 376.555 264.631 377.605 265.142 378.908Z" fill="black"/>
<path d="M256.939 378.38L255.732 378.741L256.854 382.483C257.28 383.905 256.787 384.798 255.688 385.127L255.205 385.272L255.546 386.412L255.935 386.295C256.74 386.054 257.305 385.549 257.481 384.575L257.802 385.648L259.009 385.286L256.939 378.38Z" fill="black"/>
<path d="M251.56 380.372L250.316 380.57L250.664 382.755L249.628 384.266L246.638 381.155L245.131 381.395L248.914 385.301L246.762 388.437L248.311 388.19L250.917 384.345L251.89 390.456L253.134 390.258L251.56 380.372Z" fill="black"/>
<path d="M240.124 381.997C238.696 382.031 237.228 382.723 237.264 384.29C237.294 385.578 238.357 386.113 239.369 386.286L240.887 386.531C241.464 386.63 241.974 386.884 241.987 387.472C242.003 388.144 241.284 388.538 240.5 388.556C239.534 388.579 238.909 388.187 238.75 387.365L237.476 387.394C237.666 388.944 238.858 389.603 240.495 389.565C242.175 389.526 243.274 388.604 243.246 387.415C243.215 386.071 242.196 385.618 241.156 385.446L239.807 385.226C238.85 385.052 238.575 384.638 238.564 384.19C238.547 383.434 239.238 383.04 240.12 383.02C241.421 382.99 241.911 383.594 242.084 384.375L243.371 384.345C243.229 383.032 242.279 381.948 240.124 381.997Z" fill="black"/>
<path d="M234.281 375.125C202.249 375.125 176.281 349.158 176.281 317.125C176.281 285.092 202.249 259.125 234.281 259.125C266.314 259.125 292.281 285.092 292.281 317.125C292.281 349.158 266.314 375.125 234.281 375.125Z" fill="#F7F7F7"/>
<path d="M250.609 318.024C251.276 318.409 251.276 319.371 250.609 319.756L229.609 331.88C228.943 332.265 228.109 331.784 228.109 331.014L228.109 306.765C228.109 305.995 228.943 305.514 229.609 305.899L250.609 318.024Z" fill="black"/>
<path d="M295.266 339.674C294.386 341.673 295.352 343.506 297.325 344.376C299.298 345.245 301.316 344.727 302.197 342.729C303.078 340.73 302.098 338.891 300.125 338.021C298.152 337.152 296.147 337.676 295.266 339.674ZM299.613 339.219C300.907 339.789 301.887 340.863 301.249 342.311C300.617 343.746 299.157 343.76 297.863 343.19C296.582 342.625 295.582 341.527 296.214 340.092C296.852 338.644 298.332 338.654 299.613 339.219Z" fill="black"/>
<path d="M293.055 346.45L292.285 347.585L295.966 352.06L290.525 350.18L289.763 351.304L294.488 357.182L295.187 356.151L291.275 351.518L296.995 353.486L297.647 352.524L293.759 347.857L299.494 349.802L300.217 348.736L293.055 346.45Z" fill="#FFE650"/>
<path d="M284.764 358.353L283.923 359.291L289.291 364.104L290.132 363.165L284.764 358.353ZM291.096 363.936L290.152 364.989L291.32 366.035L292.264 364.982L291.096 363.936Z" fill="#FFE650"/>
<path d="M280.308 363.226L279.3 364.177L280.011 364.931L280.754 364.23C281.172 363.836 281.447 363.883 281.87 364.331L284.82 367.458L283.669 368.543L284.38 369.297L285.531 368.211L287.164 369.942L288.07 369.087L286.648 367.58C286.523 367.448 286.529 367.27 286.671 367.135L287.272 366.568L286.561 365.815L285.726 366.602L282.642 363.334C281.816 362.458 281.112 362.467 280.308 363.226Z" fill="#FFE650"/>
<path d="M273.426 369.911L272.227 370.579L273.498 376.232L269.487 372.103L268.3 372.764L269.873 380.14L270.962 379.534L269.555 373.636L273.776 377.968L274.791 377.403L273.42 371.485L277.666 375.803L278.791 375.177L273.426 369.911Z" fill="#FFE650"/>
<path d="M261.736 376.169C259.703 376.967 259.098 378.949 259.885 380.956C260.673 382.963 262.47 384.017 264.503 383.219C266.536 382.422 267.137 380.426 266.349 378.419C265.562 376.412 263.769 375.371 261.736 376.169ZM265.142 378.908C265.659 380.224 265.597 381.677 264.125 382.255C262.665 382.828 261.619 381.81 261.102 380.493C260.591 379.19 260.655 377.706 262.115 377.133C263.587 376.555 264.631 377.605 265.142 378.908Z" fill="#FFE650"/>
<path d="M256.939 378.38L255.732 378.741L256.854 382.483C257.28 383.905 256.787 384.798 255.688 385.127L255.205 385.272L255.546 386.412L255.935 386.295C256.74 386.054 257.305 385.549 257.481 384.575L257.802 385.648L259.009 385.286L256.939 378.38Z" fill="#FFE650"/>
<path d="M251.56 380.372L250.316 380.57L250.664 382.755L249.628 384.266L246.638 381.155L245.131 381.395L248.914 385.301L246.762 388.437L248.311 388.19L250.917 384.345L251.89 390.456L253.134 390.258L251.56 380.372Z" fill="black"/>
</g>
<defs>
<clipPath id="clip0_13614_385715">
<rect width="467" height="646" rx="20" fill="white"/>
</clipPath>
</defs>
</svg>
