<svg width="121" height="121" viewBox="0 0 121 121" fill="none" xmlns="http://www.w3.org/2000/svg">
<path d="M60.5012 30.2503C60.5012 46.9572 46.9579 60.5005 30.2516 60.5005C13.5447 60.5005 0.00195312 46.9572 0.00195312 30.2503C0.00195312 13.5433 13.5447 0 30.2516 0C46.9579 0 60.5012 13.5433 60.5012 30.2503Z" fill="white"/>
<path d="M121.001 30.2503C121.001 46.9572 107.458 60.5005 90.7516 60.5005C74.0448 60.5005 60.5015 46.9572 60.5015 30.2503C60.5015 13.5433 74.0448 0 90.7516 0C107.458 0 121.001 13.5433 121.001 30.2503Z" fill="white"/>
<path d="M121 60.5C121 93.9133 93.9134 121 60.5003 121C27.0871 121 0 93.9138 0 60.5H121Z" fill="white"/>
</svg>
