<svg width="98" height="48" viewBox="0 0 98 48" fill="none" xmlns="http://www.w3.org/2000/svg">
<g clip-path="url(#clip0_2378_40120)">
<path d="M32.1024 16.6469C32.1024 7.59086 25.0606 0.249458 16.374 0.249458C7.68749 0.249458 0.64566 7.59086 0.64566 16.6469C0.64566 25.703 7.68749 33.0444 16.374 33.0444C25.0606 33.0444 32.1024 25.703 32.1024 16.6469Z" fill="url(#paint0_linear_2378_40120)"/>
<path d="M-0.0144863 31.5728C-0.0144863 40.6289 7.02735 47.9703 15.7139 47.9703C24.4004 47.9703 31.4423 40.6289 31.4423 31.5728C31.4423 22.5167 24.4004 15.1753 15.7139 15.1753C7.02735 15.1753 -0.0144863 22.5167 -0.0144863 31.5728Z" fill="url(#paint1_linear_2378_40120)"/>
<path fill-rule="evenodd" clip-rule="evenodd" d="M54.4811 38.5521C50.1626 38.5521 46.6538 37.5496 43.8776 35.9687L46.3068 28.6041H46.4996C47.8491 34.0022 52.0519 36.7784 55.9463 36.7784C58.1441 36.7784 59.7636 35.506 59.7636 33.4624C59.7636 32.2286 59.2623 31.0718 57.0259 30.0693L50.6253 27.1389C46.8466 25.3652 44.8801 22.2034 44.8801 18.8103C44.8801 14.6075 47.5406 10.019 55.2523 10.019C58.7225 10.019 62.7325 11.1372 65.0075 12.4097L62.2313 18.7332H62.0385C60.4962 13.9905 57.0645 11.7156 53.7099 11.7156C50.8952 11.7156 49.8927 13.1423 49.8927 14.4147C49.8927 15.6871 50.5482 16.8824 52.5917 17.8849L59.1852 21.0081C63.4266 22.9746 64.699 25.4038 64.699 28.7583C64.699 34.2336 60.6118 38.5521 54.4811 38.5521ZM77.6007 32.6141C79.5286 32.6141 80.9553 32.0358 81.9963 30.5706L82.3048 30.6477C81.2637 36.5856 77.2537 38.3593 74.169 38.3593C69.7348 38.3593 65.3778 34.812 65.3778 28.0643C65.3778 21.5865 69.195 16.9595 74.4389 16.9595C77.7164 16.9595 82.3819 18.6946 82.3819 26.0207H71.2772C71.8555 30.3778 74.169 32.6141 77.6007 32.6141ZM73.5907 18.2319C72.0098 18.2319 71.1229 20.2755 71.1229 23.7458C71.1229 24.1313 71.1229 24.4784 71.1615 24.8254H75.9427C75.9427 19.7357 75.133 18.2319 73.5907 18.2319ZM96.9416 32.537L97.2886 32.6527C96.4404 35.506 94.1269 38.3593 90.1168 38.3593C86.4538 38.3593 84.8344 36.0073 84.8344 32.8069V18.6175H82.945V18.4247C85.914 15.8799 89.0757 13.5278 92.1218 10.8673H92.1604V17.615H95.7078V18.579H92.1604V31.7659C92.1604 33.4239 92.893 34.5035 94.2425 34.5035C95.7463 34.5035 96.5946 33.501 96.9416 32.537Z" fill="#E5E7EB"/>
</g>
<defs>
<linearGradient id="paint0_linear_2378_40120" x1="0.64566" y1="16.6469" x2="32.1024" y2="16.6469" gradientUnits="userSpaceOnUse">
<stop stop-color="#E5E7EB"/>
<stop offset="1" stop-color="#DCDCDC" stop-opacity="0"/>
</linearGradient>
<linearGradient id="paint1_linear_2378_40120" x1="31.4423" y1="31.5728" x2="-0.0144844" y2="31.5728" gradientUnits="userSpaceOnUse">
<stop stop-color="#E5E7EB"/>
<stop offset="1" stop-color="#DCDCDC" stop-opacity="0"/>
</linearGradient>
<clipPath id="clip0_2378_40120">
<rect width="97.4371" height="48" fill="white"/>
</clipPath>
</defs>
</svg>
