<svg width="238" height="18" viewBox="0 0 238 18" fill="none" xmlns="http://www.w3.org/2000/svg">
<g clip-path="url(#clip0_2378_40141)">
<path d="M23.4178 8.14694C22.4084 7.16045 21.1953 6.66742 19.778 6.66742H5.72908C5.46815 6.66742 5.24431 6.57678 5.05707 6.39505C4.86985 6.21377 4.77646 5.99267 4.77646 5.73174V4.59235C4.77646 4.34332 4.86985 4.12771 5.05707 3.94598C5.24431 3.7647 5.46815 3.67361 5.72908 3.67361H23.8431C23.8884 3.67361 23.925 3.65941 23.9533 3.63104C23.9818 3.60311 23.996 3.57153 23.996 3.53765V0.135957C23.996 0.0906386 23.9818 0.0567636 23.9533 0.033875C23.925 0.0114443 23.888 0 23.8431 0H5.72908C4.30037 0 3.08408 0.493477 2.08065 1.47997C1.07722 2.46646 0.5755 3.65667 0.5755 5.0515V5.27259C0.5755 6.67887 1.07722 7.87502 2.08065 8.86151C3.08408 9.84801 4.30037 10.341 5.72908 10.341H19.778C20.0275 10.341 20.2459 10.4289 20.4326 10.6047C20.6198 10.7805 20.7133 10.9988 20.7133 11.2598V12.3992C20.7133 12.6601 20.6198 12.8784 20.4326 13.0543C20.2454 13.23 20.0271 13.3179 19.778 13.3179H1.64714C1.61327 13.3179 1.58168 13.3322 1.55376 13.3605C1.52537 13.3889 1.51118 13.426 1.51118 13.4713V16.873C1.51118 16.9068 1.52537 16.9384 1.55376 16.9663C1.58214 16.9947 1.61327 17.0089 1.64714 17.0089H19.778C21.1953 17.0089 22.4084 16.5132 23.4178 15.5207C24.4267 14.5287 24.9316 13.3353 24.9316 11.9405V11.7189C24.9312 10.3241 24.4267 9.13344 23.4178 8.14694Z" fill="#E5E7EB"/>
<path d="M53.9181 0H49.989C49.9551 0 49.9235 0.0114443 49.8956 0.033875C49.8673 0.0567636 49.8531 0.0906386 49.8531 0.135957V4.45593C49.8531 4.82993 49.6599 5.11375 49.2748 5.30648L41.4342 8.55481L33.5935 5.30648C33.208 5.11375 33.0153 4.83039 33.0153 4.45593V0.135957C33.0153 0.0906386 33.0039 0.0567636 32.9815 0.033875C32.9582 0.0114443 32.9242 0 32.879 0H28.9499C28.9161 0 28.8844 0.0114443 28.8565 0.033875C28.8281 0.0567636 28.8139 0.0906386 28.8139 0.135957V5.08537C28.8139 5.82284 29.0181 6.49713 29.4265 7.10917C29.8347 7.72167 30.39 8.17486 31.0932 8.46966L39.3252 11.9222V16.8551C39.3252 16.9004 39.3394 16.9376 39.3679 16.9659C39.3962 16.9943 39.4329 17.0084 39.4781 17.0084H43.4072C43.441 17.0084 43.4722 16.9943 43.5006 16.9659C43.529 16.9376 43.5432 16.9009 43.5432 16.8551V11.9226L51.7753 8.48706C52.4779 8.18081 53.0341 7.72442 53.442 7.11788C53.8503 6.51132 54.0541 5.83977 54.0541 5.1023V0.135957C54.0541 0.0906386 54.0398 0.0567636 54.0114 0.033875C53.9831 0.0114443 53.9519 0 53.9181 0Z" fill="#E5E7EB"/>
<path d="M83.1019 0H79.1729C79.1275 0 79.0932 0.0141909 79.0707 0.0425727C79.0479 0.0709544 79.0369 0.102083 79.0369 0.135957V13.3344H77.387C77.0808 13.3344 76.8199 13.1984 76.6047 12.926L68.9852 1.78576C68.1685 0.640879 67.0401 0.0453193 65.6004 0H59.0355C58.9903 0 58.9531 0.0141909 58.9248 0.0425727C58.8963 0.0709544 58.8821 0.102083 58.8821 0.135957V16.8721C58.8821 16.9059 58.8963 16.9376 58.9248 16.9655C58.9531 16.9938 58.9898 17.008 59.0355 17.008H62.9645C62.9984 17.008 63.0296 16.9938 63.0579 16.9655C63.0864 16.9376 63.1006 16.9059 63.1006 16.8721V3.67361H64.7504C65.0566 3.67361 65.317 3.81552 65.5327 4.09888L73.1522 15.2391C73.969 16.3845 75.0969 16.9741 76.537 17.008H83.1024C83.1476 17.008 83.1816 16.9938 83.2044 16.9655C83.2268 16.9376 83.2383 16.9059 83.2383 16.8721V0.135957C83.2383 0.102083 83.2268 0.0709544 83.2044 0.0425727C83.181 0.0141909 83.1471 0 83.1019 0Z" fill="#E5E7EB"/>
<path d="M111.5 0H87.4328C87.3875 0 87.3531 0.0141909 87.3307 0.0425727C87.3079 0.0709544 87.2969 0.102083 87.2969 0.135957V3.53765C87.2969 3.57153 87.3079 3.60311 87.3307 3.63104C87.3531 3.65941 87.3875 3.67361 87.4328 3.67361H97.3655V16.8721C97.3655 16.9059 97.3765 16.9376 97.3994 16.9655C97.4219 16.9938 97.4562 17.008 97.5015 17.008H101.431C101.476 17.008 101.51 16.9938 101.533 16.9655C101.555 16.9376 101.566 16.9059 101.566 16.8721V3.67361H111.499C111.545 3.67361 111.581 3.65941 111.61 3.63104C111.638 3.60266 111.652 3.57153 111.652 3.53765V0.135957C111.652 0.102083 111.638 0.0709544 111.61 0.0425727C111.582 0.0141909 111.545 0 111.5 0Z" fill="#E5E7EB"/>
<path d="M140.683 0H136.753C136.72 0 136.688 0.0141909 136.66 0.0425727C136.632 0.0709544 136.618 0.102083 136.618 0.135957V6.66696H120.698V0.135957C120.698 0.102083 120.684 0.0709544 120.656 0.0425727C120.628 0.0146486 120.59 0 120.545 0H116.616C116.582 0 116.551 0.0141909 116.522 0.0425727C116.494 0.0709544 116.48 0.102083 116.48 0.135957V16.8721C116.48 16.9059 116.494 16.9376 116.522 16.9655C116.551 16.9938 116.582 17.008 116.616 17.008H120.545C120.59 17.008 120.628 16.9938 120.656 16.9655C120.684 16.9371 120.698 16.9059 120.698 16.8721V10.341H136.618V16.8721C136.618 16.9059 136.632 16.9376 136.66 16.9655C136.689 16.9938 136.72 17.008 136.753 17.008H140.683C140.728 17.008 140.765 16.9938 140.793 16.9655C140.821 16.9371 140.836 16.9059 140.836 16.8721V0.135957C140.836 0.102083 140.821 0.0709544 140.793 0.0425727C140.765 0.0141909 140.728 0 140.683 0Z" fill="#E5E7EB"/>
<path d="M169.763 0H150.697C149.279 0 148.065 0.493019 147.056 1.47951C146.047 2.46601 145.543 3.65667 145.543 5.0515V11.9395C145.543 13.3459 146.047 14.542 147.056 15.5285C148.065 16.515 149.279 17.0084 150.697 17.0084H169.763C169.797 17.0084 169.827 16.9943 169.856 16.9659C169.883 16.9376 169.898 16.9064 169.898 16.8725V13.4709C169.898 13.4255 169.885 13.3917 169.856 13.3687C169.827 13.3463 169.797 13.3348 169.763 13.3348H150.697C150.436 13.3348 150.214 13.2442 150.033 13.0629C149.852 12.8817 149.761 12.666 149.761 12.4165V10.341H169.751C169.796 10.341 169.829 10.3268 169.852 10.2985C169.874 10.2701 169.886 10.239 169.886 10.2051V6.80338C169.886 6.75807 169.874 6.72419 169.852 6.7013C169.829 6.67887 169.796 6.66742 169.751 6.66742H149.761V4.59235C149.761 4.34287 149.852 4.12771 150.033 3.94598C150.214 3.7647 150.436 3.67361 150.697 3.67361H169.763C169.797 3.67361 169.827 3.65941 169.856 3.63104C169.883 3.60311 169.898 3.57153 169.898 3.53765V0.135957C169.898 0.102083 169.885 0.0709544 169.856 0.0425726C169.827 0.0146486 169.797 0 169.763 0Z" fill="#E5E7EB"/>
<path d="M198.808 0H174.741C174.696 0 174.661 0.0141909 174.639 0.0425727C174.616 0.0709544 174.605 0.102083 174.605 0.135957V3.53765C174.605 3.57153 174.616 3.60311 174.639 3.63104C174.661 3.65941 174.696 3.67361 174.741 3.67361H184.674V16.8721C184.674 16.9059 184.685 16.9376 184.708 16.9655C184.731 16.9938 184.765 17.008 184.81 17.008H188.738C188.785 17.008 188.818 16.9938 188.841 16.9655C188.863 16.9376 188.875 16.9059 188.875 16.8721V3.67361H198.807C198.853 3.67361 198.889 3.65941 198.917 3.63104C198.947 3.60266 198.96 3.57153 198.96 3.53765V0.135957C198.96 0.102083 198.947 0.0709544 198.917 0.0425727C198.89 0.0141909 198.853 0 198.808 0Z" fill="#E5E7EB"/>
<path d="M207.956 0.033875C207.932 0.0114443 207.898 0 207.853 0H203.925C203.879 0 203.845 0.0114443 203.822 0.033875C203.8 0.0567636 203.789 0.0906386 203.789 0.135957V16.8721C203.789 16.9059 203.8 16.9376 203.822 16.9655C203.845 16.9938 203.879 17.008 203.925 17.008H207.853C207.898 17.008 207.932 16.9938 207.956 16.9655C207.978 16.9371 207.989 16.9059 207.989 16.8721V0.135957C207.989 0.0910963 207.978 0.0567636 207.956 0.033875Z" fill="#E5E7EB"/>
<path d="M218.803 4.13358C218.633 3.94085 218.423 3.84426 218.174 3.84426H213.071C213.026 3.84426 212.989 3.83008 212.961 3.80169C212.933 3.77377 212.918 3.74218 212.918 3.70831V0.306613C212.918 0.272738 212.933 0.241609 212.961 0.213228C212.989 0.185303 213.026 0.170654 213.071 0.170654H218.463C219.823 0.170654 220.997 0.720895 221.983 1.82045L223.293 3.40206L220.742 6.48056L218.803 4.13358ZM228.225 1.80352C229.211 0.714944 230.39 0.170654 231.763 0.170654H237.137C237.183 0.170654 237.217 0.182099 237.239 0.204529C237.262 0.227418 237.273 0.261293 237.273 0.306613V3.70831C237.273 3.74218 237.262 3.77377 237.239 3.80169C237.217 3.83008 237.183 3.84426 237.137 3.84426H232.035C231.785 3.84426 231.576 3.94085 231.406 4.13358L227.647 8.65772L231.423 13.2157C231.593 13.3975 231.797 13.4882 232.035 13.4882H237.137C237.183 13.4882 237.217 13.5023 237.239 13.5307C237.262 13.559 237.273 13.5962 237.273 13.6411V17.0427C237.273 17.0766 237.262 17.1082 237.239 17.1361C237.217 17.1644 237.183 17.1786 237.137 17.1786H231.763C230.392 17.1786 229.218 16.6288 228.243 15.5288L225.113 11.7532L221.983 15.5288C220.997 16.6288 219.818 17.1786 218.446 17.1786H213.071C213.026 17.1786 212.991 17.1644 212.969 17.1361C212.946 17.1077 212.935 17.0711 212.935 17.0253V13.6236C212.935 13.5898 212.946 13.5586 212.969 13.5302C212.991 13.5019 213.026 13.4876 213.071 13.4876H218.174C218.411 13.4876 218.622 13.3915 218.803 13.1984L222.494 8.74241L228.225 1.80352Z" fill="#E5E7EB"/>
</g>
<defs>
<clipPath id="clip0_2378_40141">
<rect width="237.375" height="18" fill="white" transform="translate(0.5755)"/>
</clipPath>
</defs>
</svg>
