<svg width="192" height="44" viewBox="0 0 192 44" fill="none" xmlns="http://www.w3.org/2000/svg">
<g clip-path="url(#clip0_2378_40102)">
<path d="M18.501 22.7701C18.599 22.2441 18.147 21.5161 17.525 21.1971C17.204 21.0321 16.521 20.9671 16.191 21.0691C15.671 21.2301 15.167 21.7861 15.01 22.3701C14.915 22.7251 14.968 23.3491 15.112 23.5421C15.342 23.8541 15.566 23.9361 16.17 23.9321C17.353 23.9221 18.382 23.4101 18.501 22.7701ZM17.574 22.1611C17.449 22.3421 17.059 22.5131 16.775 22.5131C16.348 22.5131 15.882 22.2061 15.882 21.9261C15.882 21.3621 16.776 21.0601 17.366 21.4251C17.677 21.6161 17.757 21.8991 17.574 22.1611Z" fill="#E5E7EB"/>
<path d="M17.845 18.039C18.38 18.088 18.541 17.918 18.299 17.561C17.963 17.065 17.549 16.302 17.441 15.975C17.373 15.772 17.225 15.173 17.113 14.643C16.729 12.834 16.351 12.129 15.479 11.594C15.161 11.399 14.482 11.144 14.089 11.072L13.88 11.033L13.841 11.487C13.717 12.955 14.287 14.919 15.208 16.199C15.921 17.193 17.028 17.965 17.845 18.039Z" fill="#E5E7EB"/>
<path d="M33.987 30.2159C33.306 29.3599 32.304 28.6109 30.547 27.6429C29.139 26.8679 28.61 26.5669 28.347 26.3869C28.215 26.2969 28.079 26.2229 28.047 26.2229C28.014 26.2229 27.961 26.3209 27.927 26.4409C27.614 27.5589 27.745 28.7569 28.317 29.9999C28.604 30.6229 28.89 31.0939 30.057 32.8619C31.061 34.3819 31.558 35.2819 31.803 36.0189C32.201 37.2229 32.141 38.3049 31.614 39.4169C31.49 39.6809 31.406 39.8949 31.428 39.8949C31.45 39.8949 31.657 39.7909 31.886 39.6659C33.452 38.8079 34.55 37.3369 35.023 35.4639C35.172 34.8699 35.231 33.4509 35.131 32.8609C34.953 31.8189 34.584 30.9649 33.987 30.2159Z" fill="#E5E7EB"/>
<path d="M25.239 41.9831C24.813 41.6681 24.469 41.0411 24.293 40.2561C24.263 40.1201 24.162 39.5211 24.069 38.9231C23.834 37.4091 23.608 36.7301 23.081 35.9481C22.542 35.1491 21.507 34.4791 20.349 34.1791C19.626 33.9921 18.327 33.9421 17.546 34.0701C15.736 34.3671 13.749 35.3351 12.151 36.6971L11.676 37.1021L12.093 37.1681C14.274 37.5121 14.861 37.8161 16.374 39.3911C17.245 40.2971 17.539 40.4981 18.26 40.6841C19.321 40.9571 20.366 40.4551 20.724 39.5001C20.884 39.0721 20.863 38.3651 20.679 38.0101C20.242 37.1651 18.968 36.8931 18.352 37.5121C17.839 38.0281 17.988 38.8041 18.626 38.9381C18.772 38.9691 18.768 38.9621 18.589 38.8801C18.31 38.7521 18.189 38.5761 18.187 38.2941C18.184 37.6351 18.931 37.2641 19.626 37.5811C20.135 37.8121 20.337 38.1161 20.337 38.6481C20.337 39.4661 19.648 40.0831 18.845 39.9821C18.416 39.9281 17.891 39.6511 17.61 39.3301C16.902 38.5211 17.178 37.2451 18.167 36.7561C18.919 36.3831 19.919 36.4751 20.695 36.9881C21.586 37.5781 21.966 38.1161 22.733 39.8841C22.983 40.4601 23.304 41.1091 23.447 41.3241C24.174 42.4231 25.046 42.9631 26.095 42.9631C26.674 42.9631 27.109 42.8571 27.657 42.5791C28.064 42.3741 28.641 41.9831 28.599 41.9421C28.587 41.9301 28.418 41.9831 28.224 42.0591C27.08 42.5151 25.915 42.4831 25.239 41.9831Z" fill="#E5E7EB"/>
<path d="M12.565 33.725C12.567 33.214 12.55 33.108 12.413 32.813C12.19 32.334 11.785 31.936 10.891 31.319C9.72 30.51 9.22 29.859 9.081 28.964C8.968 28.229 9.1 27.71 9.748 26.339C10.418 24.919 10.584 24.315 10.697 22.883C10.769 21.958 10.87 21.594 11.133 21.301C11.407 20.996 11.654 20.893 12.333 20.799C13.439 20.646 14.144 20.357 14.724 19.818C15.226 19.35 15.436 18.9 15.469 18.221L15.494 17.707L15.213 17.376C14.195 16.178 0.0629999 0.5 -9.79053e-08 0.5C-0.0140001 0.5 0.321 0.924 0.744 1.441C5.54 7.321 10.806 14.708 11.658 15.902C11.703 15.965 11.736 16.012 11.756 16.039C12.21 16.673 12.585 17.144 12.869 17.501C13.501 18.296 13.688 18.531 13.311 18.748C13.007 18.922 12.693 18.98 12.38 18.98C12.026 18.98 11.627 18.808 11.336 18.529C11.131 18.333 9.726 16.272 7.813 13.273C6.35 10.98 5.125 9.077 5.091 9.045C5.014 8.971 5.015 8.974 7.664 13.761C9.327 16.767 10.465 18.989 10.465 19.131C10.465 19.42 10.387 19.572 10.034 19.97C9.446 20.633 9.182 21.378 8.992 22.92C8.78 24.649 8.18 25.871 6.521 27.961C5.55 29.184 5.391 29.408 5.146 29.901C4.837 30.522 4.752 30.871 4.718 31.654C4.682 32.484 4.753 33.019 5.003 33.812C5.223 34.505 5.452 34.964 6.038 35.88C6.544 36.671 6.835 37.259 6.835 37.489C6.835 37.672 6.87 37.672 7.653 37.493C9.528 37.065 11.05 36.313 11.907 35.391C12.437 34.822 12.561 34.507 12.565 33.725ZM7.406 32.593C7.186 32.987 6.765 33.116 6.468 32.881C6.284 32.735 6.271 32.522 6.431 32.277C6.59 32.036 6.575 31.918 6.374 31.813C6.254 31.751 6.201 31.68 6.201 31.584C6.201 31.266 6.765 31.15 7.129 31.395C7.513 31.653 7.636 32.182 7.406 32.593Z" fill="#E5E7EB"/>
<path d="M29.356 13.783C30.667 14.566 30.89 15.023 30.892 16.925C30.892 17.871 30.881 17.997 30.765 18.283C30.609 18.666 30.637 18.739 30.808 18.399C31.126 17.772 31.258 17.144 31.277 16.167C31.289 15.54 31.308 15.407 31.396 15.319C31.491 15.223 31.514 15.222 31.669 15.302C31.899 15.422 32.942 16.26 33.396 16.69L33.767 17.042L33.396 16.55C33.192 16.279 32.629 15.65 32.146 15.15C31.114 14.086 31.033 13.943 30.89 12.958C30.777 12.181 30.804 11.513 30.968 11.025C31.029 10.845 31.068 10.698 31.054 10.698C31.041 10.698 30.958 10.861 30.868 11.06C30.642 11.563 30.53 12.114 30.483 12.949C30.453 13.488 30.422 13.671 30.36 13.695C30.267 13.731 30.141 13.693 29.376 13.395C28.862 13.195 27.584 12.818 27.546 12.855C27.536 12.865 27.804 12.997 28.14 13.148C28.476 13.299 29.024 13.584 29.356 13.783Z" fill="#E5E7EB"/>
<path d="M18.583 12.3479C19.161 12.9029 19.743 13.5929 20.683 14.8389C22.8 17.6449 23.699 18.4259 25.481 19.0139C26.528 19.3589 27.585 19.5199 29.452 19.6189C31.519 19.7289 32.299 19.8969 33.037 20.3899C33.447 20.6629 33.766 21.0029 34.084 21.5009L34.269 21.7909L34.23 21.4729C34.082 20.2499 33.217 18.5339 32.117 17.2749L31.916 17.0459L31.815 17.5069C31.56 18.6679 31.01 19.5029 30.499 19.5029C30.249 19.5029 29.997 19.3419 29.907 19.1249C29.794 18.8529 29.803 18.7509 29.971 18.4329C30.281 17.8479 30.357 17.0639 30.204 16.0409C30.16 15.7459 30.095 15.4679 30.059 15.4249C29.948 15.2899 29.056 14.7639 28.49 14.4999C26.433 13.5409 23.974 13.2289 21.557 13.6209L20.983 13.7139L20.582 13.2629C19.072 11.5649 17.658 10.6089 16.104 10.2359C15.438 10.0759 14.472 9.98889 14.063 10.0529C13.849 10.0859 13.869 10.0949 14.322 10.1659C15.979 10.4239 17.27 11.0849 18.583 12.3479Z" fill="#E5E7EB"/>
<path d="M23.517 30.855C23.295 30.923 22.421 31.096 21.576 31.238C19.864 31.526 19.099 31.73 18.331 32.104C17.787 32.369 17.127 32.765 17.166 32.805C17.179 32.818 17.303 32.788 17.442 32.738C18.41 32.395 19.488 32.217 21.125 32.132C21.775 32.098 22.514 32.043 22.768 32.011C24.226 31.825 25.238 31.378 26.024 30.57C26.462 30.121 26.722 29.702 26.932 29.11C27.065 28.736 27.083 28.596 27.084 27.932C27.085 27.256 27.069 27.132 26.924 26.715C26.735 26.17 26.512 25.76 26.23 25.441L26.026 25.21L26.136 25.54C26.197 25.722 26.29 26.136 26.344 26.46C26.689 28.531 25.612 30.206 23.517 30.855Z" fill="#E5E7EB"/>
<path d="M191.619 20.71C190.883 18.285 188.724 16.817 185.687 16.666C184.105 16.587 181.801 16.665 180.515 16.724H180.513H180.511C180.381 16.73 180.263 16.735 180.156 16.74C178.986 16.791 177.586 16.903 176.888 16.969H176.886C176.695 16.988 176.676 16.99 176.623 17.057C176.569 17.124 176.579 17.251 176.579 17.251C176.579 17.251 176.579 17.603 176.622 17.701C176.666 17.799 176.944 17.836 176.944 17.836C177.116 17.882 177.281 17.923 177.436 17.961C178.216 18.154 178.766 18.29 178.985 18.803C179.133 19.15 179.143 20.355 179.145 26.815C179.147 33.627 179.145 34.462 178.962 34.913C178.736 35.471 178.303 35.767 177.305 36.049C177.305 36.049 176.865 36.171 176.745 36.281C176.626 36.39 176.603 36.636 176.603 36.636C176.603 36.636 176.593 36.864 176.696 36.973C176.798 37.081 177.068 37.03 177.068 37.03L179.657 37.037L183.949 37.072C183.949 37.072 184.124 37.095 184.215 36.978C184.307 36.863 184.283 36.634 184.283 36.634C184.283 36.634 184.283 36.392 184.17 36.281C184.057 36.172 183.618 36.069 183.618 36.069C182.648 35.831 182.152 35.519 181.931 35.014C181.767 34.639 181.75 33.626 181.726 31.517V28.424C181.834 28.485 181.933 28.555 182.038 28.627C182.533 28.974 183.152 29.407 185.467 29.475C188.272 29.556 189.957 28.308 190.96 26.86C191.965 25.412 192.355 23.136 191.619 20.71ZM187.975 26.75C186.848 27.811 184.626 28.102 183.12 27.806C182.643 27.713 182.373 27.57 182.163 27.459L182.143 27.447L181.756 27.244L181.733 23.522C181.719 21.189 181.745 19.67 181.799 19.453C181.85 18.224 183.663 18.071 184.549 18.116C188.341 18.116 189.01 21.311 189.121 22.972C189.121 24.031 189.102 25.69 187.975 26.75Z" fill="#E5E7EB"/>
<path d="M31.815 21.5991C30.988 21.3221 30.092 21.1321 28.501 20.8981C25.795 20.4991 24.818 20.1971 23.945 19.4901C23.757 19.3381 23.591 19.2141 23.575 19.2141C23.559 19.2141 23.547 19.5231 23.547 19.9001C23.547 22.4631 25.063 23.9831 29.367 25.7331C32.233 26.8991 33.406 27.5021 34.278 28.2581C35.045 28.9241 35.502 29.8141 35.547 30.7271C35.555 30.8981 35.587 31.0231 35.619 31.0121C35.736 30.9741 36.176 29.9791 36.32 29.4281C36.503 28.7291 36.569 27.4041 36.456 26.6981C36.067 24.2641 34.442 22.4791 31.815 21.5991Z" fill="#E5E7EB"/>
<path d="M156.152 17.6091C156.547 17.4721 156.869 17.1801 156.869 16.9601C156.869 16.6211 156.398 16.5601 153.765 16.5601C150.834 16.5601 150.662 16.5891 150.662 17.0761C150.662 17.4491 150.834 17.5911 151.287 17.5911C152.292 17.5911 152.731 17.8631 152.731 18.4871C152.731 19.0081 147.805 32.3761 147.502 32.6781C147.315 32.8651 142.868 20.4461 142.707 19.2911C142.551 18.1681 143.03 17.5911 144.117 17.5911C144.542 17.5911 144.714 17.4421 144.714 17.0761C144.714 16.5831 144.542 16.5601 140.706 16.5601C136.871 16.5601 136.698 16.5821 136.698 17.0761C136.698 17.3691 136.871 17.5911 137.098 17.5911C137.906 17.5911 138.975 18.3681 139.25 19.1551C139.645 20.2831 139.344 21.4271 137.018 27.6141L135.043 32.8691L134.618 31.8651C134.385 31.3121 133.166 28.0541 131.912 24.6251C129.449 17.8861 129.412 17.5911 131.04 17.5911C131.611 17.5911 131.784 17.4721 131.784 17.0761C131.784 16.5831 131.611 16.5601 127.93 16.5601C124.202 16.5601 124.08 16.5771 124.21 17.0761C124.294 17.3951 124.563 17.5911 124.917 17.5911C125.23 17.5911 125.742 17.8611 126.055 18.1911C126.37 18.5261 128.137 22.7611 130.061 27.7891L133.501 36.7871L134.402 36.8651L135.304 36.9411L137.722 30.5511C139.052 27.0361 140.279 23.8831 140.45 23.5431C140.742 22.9601 140.808 23.0501 141.585 25.0891C142.038 26.2801 143.245 29.4281 144.268 32.0851L146.124 36.9161H146.943C147.392 36.9161 147.821 36.7621 147.892 36.5731C147.965 36.3851 149.154 33.3411 150.533 29.8091C151.913 26.2781 153.441 22.3651 153.929 21.1141C155.043 18.2691 155.266 17.9171 156.152 17.6091Z" fill="#E5E7EB"/>
<path d="M173.896 36.0079C173.183 35.8929 172.829 35.3049 172.564 34.8659C172.498 34.7539 172.435 34.6519 172.376 34.5699C172.253 34.4039 171.816 33.4879 171.473 32.6079C171.13 31.7279 170.358 29.7399 169.755 28.1889C169.152 26.6399 168.313 24.4779 167.887 23.3849C167.462 22.2919 166.655 20.2139 166.092 18.7649C166 18.5279 165.917 18.3139 165.843 18.1229C165.466 17.1499 165.315 16.7569 165.272 16.7039C165.137 16.5319 164.716 16.7039 164.716 16.7039C164.716 16.7039 164.531 16.7749 164.25 16.8809L163.238 17.4039L162.509 19.2239C162.108 20.2249 161.374 22.0629 160.879 23.3069C159.977 25.5749 159.381 27.0649 158.753 28.6189C158.568 29.0769 158.012 30.4699 157.516 31.7149C157.02 32.9589 156.524 34.1449 156.414 34.3479C156.394 34.3809 156.376 34.4179 156.355 34.4559C156.078 34.9779 155.595 35.8839 154.744 36.0209C154.744 36.0209 154.275 36.0659 154.103 36.2379C153.929 36.4089 153.945 36.5489 153.945 36.5489V36.7659C153.945 36.7659 153.962 36.8699 154.06 36.9219C154.158 36.9749 154.29 36.9769 154.29 36.9769L157.405 36.9419H160.623C160.623 36.9419 160.851 36.9679 160.938 36.8959C161.026 36.8229 161.05 36.7149 161.05 36.7149V36.4869C161.05 36.4869 161.005 36.2409 160.878 36.1439C160.75 36.0479 160.274 35.9819 160.274 35.9819C158.985 35.8129 158.762 34.8379 158.921 33.9619C158.999 33.5299 159.518 31.9389 160.1 30.3349L160.303 29.7799L163.675 29.7549C165.53 29.7399 167.131 29.7499 167.235 29.7759C167.381 29.8129 167.586 30.2289 168.188 31.7119C169.1 33.9579 169.172 34.2319 168.971 34.6509C168.957 34.6759 168.944 34.7049 168.93 34.7349C168.742 35.1409 168.373 35.9299 167.447 36.0109C167.447 36.0109 166.956 36.0279 166.833 36.1749C166.711 36.3219 166.737 36.4909 166.737 36.4909V36.7159C166.737 36.7159 166.77 36.8479 166.833 36.9009C166.897 36.9529 167.003 36.9399 167.003 36.9399L170.065 36.9179L174.368 36.9169C174.368 36.9169 174.537 36.9359 174.583 36.8709C174.629 36.8059 174.64 36.7289 174.64 36.7289V36.4299C174.64 36.4299 174.62 36.2719 174.537 36.1839C174.454 36.0959 173.896 36.0079 173.896 36.0079ZM163.807 27.7049C162.067 27.7049 161.052 27.6719 161.052 27.6139C161.052 27.5639 161.11 27.3669 161.182 27.1759C161.295 26.8709 161.86 25.2529 163.108 21.6609C163.301 21.1059 163.479 20.6169 163.505 20.5739C163.593 20.4259 163.701 20.5909 163.984 21.3059C164.14 21.6999 164.38 22.2919 164.515 22.6219C164.652 22.9519 165.033 23.8879 165.361 24.6999C165.691 25.5129 166.095 26.5029 166.259 26.8989C166.425 27.2949 166.56 27.6389 166.56 27.6609C166.561 27.6859 165.32 27.7049 163.807 27.7049Z" fill="#E5E7EB"/>
<path d="M89.572 16.6179C86.149 16.5489 86.017 16.5659 86.017 17.0689C86.017 17.4509 86.186 17.5919 86.649 17.5919C86.997 17.5919 87.607 17.8709 88.006 18.2129L88.732 18.8349L88.814 25.0419C88.86 28.5459 88.795 31.2489 88.666 31.2489C88.54 31.2489 87.75 30.4659 86.912 29.5099C86.074 28.5529 83.685 25.9149 81.604 23.6479C79.524 21.3809 77.251 18.8679 76.554 18.0649L75.286 16.6039L72.635 16.5829C70.15 16.5629 69.985 16.5939 69.985 17.0769C69.985 17.4749 70.157 17.5919 70.749 17.5919C72.066 17.5919 72.808 18.0979 73.104 19.1999C73.273 19.8259 73.346 22.8179 73.296 27.0939C73.208 34.7269 73.103 35.2269 71.524 35.5409C71.003 35.6449 70.76 35.8479 70.76 36.1769C70.76 36.6259 71.013 36.6599 74.381 36.6599C77.689 36.6599 78.001 36.6199 78.001 36.1969C78.001 35.8689 77.67 35.6469 76.851 35.4289C75.834 35.1579 75.669 35.0089 75.43 34.1519C75.123 33.0499 75.051 21.4439 75.351 21.4779C75.458 21.4899 76.46 22.5619 77.58 23.8609C78.699 25.1599 81.761 28.5709 84.385 31.4409C88.491 35.9329 89.259 36.6589 89.905 36.6589H90.654L90.728 27.5249C90.781 21.0389 90.889 18.3029 91.102 18.0919C91.267 17.9279 91.79 17.7149 92.265 17.6179C92.769 17.5149 93.129 17.2849 93.129 17.0659C93.127 16.7579 92.483 16.6769 89.572 16.6179Z" fill="#E5E7EB"/>
<path d="M62.744 16.561C59.847 16.561 59.641 16.594 59.641 17.06C59.641 17.434 59.85 17.579 60.475 17.64C61.849 17.773 61.96 18.3 61.964 24.696C61.968 31.178 61.747 32.426 60.359 33.739C59.068 34.96 58.041 35.372 56.282 35.372C53.756 35.372 51.965 34.196 51.378 32.151C51.181 31.463 51.108 28.934 51.16 24.549L51.237 17.978L52.142 17.687C52.64 17.527 53.084 17.208 53.131 16.978C53.205 16.609 52.793 16.561 49.575 16.561C46.108 16.561 45.936 16.585 45.936 17.077C45.936 17.448 46.108 17.592 46.551 17.592C47.8 17.592 47.866 17.952 48.005 25.425C48.126 31.953 48.171 32.475 48.692 33.439C49.44 34.819 50.454 35.738 52.013 36.448C53.081 36.934 53.756 37.038 55.892 37.042C58.209 37.046 58.632 36.972 59.96 36.321C60.774 35.923 61.79 35.175 62.215 34.661C63.691 32.877 63.847 32.015 64.014 24.733C64.175 17.72 64.198 17.607 65.395 17.596C65.674 17.594 65.848 17.394 65.848 17.077C65.847 16.589 65.674 16.561 62.744 16.561Z" fill="#E5E7EB"/>
<path d="M104.247 17.5911C104.721 17.5911 104.893 17.4541 104.893 17.0761C104.893 16.5831 104.721 16.5601 101.016 16.5601C97.309 16.5601 97.136 16.5831 97.136 17.0761C97.136 17.4691 97.309 17.5911 97.862 17.5911C98.262 17.5911 98.815 17.7561 99.091 17.9561C99.566 18.3011 99.598 18.7461 99.674 25.8791C99.77 34.7861 99.692 35.2861 98.161 35.5301C97.39 35.6531 97.137 35.8131 97.137 36.1761C97.137 36.6261 97.398 36.6571 101.017 36.6571C104.722 36.6571 104.894 36.6361 104.894 36.1421C104.894 35.7761 104.722 35.6271 104.297 35.6271C103.969 35.6271 103.476 35.4621 103.198 35.2611C102.723 34.9141 102.692 34.4691 102.621 26.7681C102.549 18.8801 102.561 18.6261 103.074 18.1161C103.363 17.8281 103.893 17.5911 104.247 17.5911Z" fill="#E5E7EB"/>
<path d="M116.52 24.618C113.862 23.014 112.677 21.847 112.503 20.661C112.236 18.839 113.875 17.33 116.115 17.337C117.87 17.342 118.623 17.757 119.245 19.064C119.634 19.881 119.913 20.151 120.374 20.159C120.884 20.167 120.96 20.072 120.83 19.589C120.744 19.27 120.672 18.471 120.67 17.813C120.668 16.978 120.547 16.571 120.27 16.465C119.514 16.176 115.104 16.066 114.129 16.311C110.733 17.167 109.141 19.83 110.106 23.04C110.52 24.416 111.793 25.804 113.591 26.841C116.833 28.712 117.788 29.469 118.342 30.611C118.805 31.563 118.846 31.882 118.612 32.744C118.065 34.77 116.635 35.888 114.591 35.888C112.504 35.888 111.038 34.717 110.711 32.788C110.58 32.013 110.418 31.766 110.043 31.766C109.595 31.766 109.549 31.971 109.549 33.935V36.104L110.905 36.566C113.026 37.286 116.042 37.2 117.841 36.368C121.347 34.747 122.689 31.531 121.116 28.526C120.527 27.398 119.05 26.145 116.52 24.618Z" fill="#E5E7EB"/>
</g>
<defs>
<clipPath id="clip0_2378_40102">
<rect width="192" height="43" fill="white" transform="translate(0 0.5)"/>
</clipPath>
</defs>
</svg>
