<svg width="151" height="48" viewBox="0 0 151 48" fill="none" xmlns="http://www.w3.org/2000/svg">
<g clip-path="url(#clip0_2378_40134)">
<path d="M70.8009 12.3872L66.2999 25.5485L61.6439 12.3872H56.2119L63.5064 30.9679L63.0407 32.2066C62.5751 33.4453 62.1094 33.7549 60.7127 33.7549H57.9191V38.0904H62.8855C65.8344 38.0904 66.7656 36.542 68.0072 33.4453L76.2329 12.3872H70.8009Z" fill="#E5E7EB"/>
<path d="M85.8553 12.2322C80.1129 12.2322 76.2328 15.9483 76.2328 21.6774C76.2328 27.4064 79.9576 31.1225 86.3208 31.1225C91.2873 31.1225 94.5466 28.1806 95.1674 24.6193H90.0457C89.5801 26.3225 88.1833 27.2515 86.0105 27.2515C83.3721 27.2515 81.6648 25.7031 81.5097 23.0709V22.7612H95.1674C95.3226 22.1418 95.3226 21.6774 95.3226 21.058C95.1674 15.6386 91.4425 12.2322 85.8553 12.2322ZM81.6648 19.5096C81.9752 17.3418 83.6825 15.9483 85.8553 15.9483C88.1833 15.9483 89.7354 17.1871 90.2009 19.5096H81.6648Z" fill="#E5E7EB"/>
<path d="M106.495 12.2322C101.529 12.2322 98.1141 14.5547 97.8036 18.2709H102.77C102.925 16.8774 104.322 15.9483 106.34 15.9483C108.513 15.9483 109.754 17.0321 109.754 18.7355V19.6644H106.029C100.442 19.6644 97.4932 21.8322 97.4932 25.858C97.4932 29.4193 100.442 31.2774 104.477 31.2774C107.426 31.2774 109.289 30.0386 110.685 28.0258C110.84 29.729 110.996 31.1225 110.996 31.1225H114.876V19.1999C114.876 14.5547 111.772 12.2322 106.495 12.2322ZM109.754 23.3806C109.754 25.858 108.047 27.5612 105.408 27.5612C103.701 27.5612 102.615 26.7871 102.615 25.3934C102.615 23.8451 103.857 22.9161 106.029 22.9161H109.754V23.3806Z" fill="#E5E7EB"/>
<path d="M123.414 15.1742L122.949 12.3872H118.293V30.9679H123.414V21.8323C123.414 19.0453 124.656 17.0323 127.605 17.0323H129.623V12.3872H128.847C125.898 12.3872 124.501 13.4711 123.414 15.1742Z" fill="#E5E7EB"/>
<path d="M143.112 12.2322C140.164 12.2322 138.457 13.3161 137.37 14.7096L136.75 12.387H132.248V30.9677H137.37V21.5225C137.37 18.2709 138.922 16.4128 141.561 16.4128C144.199 16.4128 145.44 18.1161 145.44 21.2128V30.9677H150.562V20.7483C150.562 14.3999 147.147 12.2322 143.112 12.2322Z" fill="#E5E7EB"/>
<path fill-rule="evenodd" clip-rule="evenodd" d="M5.10308 2.84051L2.34897 5.64065L9.06472 12.4663L15.7803 19.2919V25.6481V32.0041H19.6811H23.5819V25.6484V19.2925L30.298 12.4659L37.0138 5.63935L34.2388 2.81967L31.4638 0L25.6125 5.94687C22.3943 9.21775 19.725 11.8939 19.6808 11.8939C19.6365 11.8939 16.9765 9.2268 13.7698 5.96705C10.5628 2.70731 7.92068 0.0402541 7.8981 0.0402541C7.87563 0.0402541 6.61792 1.30025 5.10308 2.84051ZM2.21817 18.7737C1.24127 20.4934 0.340945 23.5548 0.0928726 26.001C-0.0296363 27.2073 0.0351636 29.8402 0.216254 31.0231C1.91087 42.0914 12.197 49.6147 23.0216 47.703C30.1577 46.443 36.0255 41.3261 38.3065 34.3748C39.057 32.0873 39.3003 30.5403 39.3028 28.0394C39.3052 25.3323 39.0019 23.5332 38.1243 21.0498C37.8233 20.198 37.0492 18.5156 36.9584 18.5156C36.922 18.5156 35.5755 19.854 33.9666 21.4901C31.261 24.2407 31.0439 24.482 31.0814 24.6986C31.1038 24.8275 31.1811 25.2025 31.2531 25.5318C31.4623 26.4892 31.5439 27.7846 31.4632 28.8646C31.3781 29.9995 31.2439 30.6989 30.9043 31.7763C29.8142 35.2354 26.9267 38.1983 23.4786 39.396C22.1616 39.8534 21.4225 39.9663 19.7213 39.97C17.9923 39.9738 17.3402 39.8804 16 39.4372C12.354 38.232 9.38283 35.122 8.31276 31.391C7.9653 30.1792 7.86538 29.4052 7.86985 27.9575C7.87399 26.6119 7.91632 26.2673 8.2713 24.6875C8.29988 24.5602 7.65385 23.8601 5.34068 21.5123L2.37341 18.5005L2.21817 18.7737Z" fill="#E5E7EB"/>
</g>
<defs>
<clipPath id="clip0_2378_40134">
<rect width="150.545" height="48" fill="white" transform="translate(0.0300293)"/>
</clipPath>
</defs>
</svg>
