<svg width="87" height="88" viewBox="0 0 87 88" fill="none" xmlns="http://www.w3.org/2000/svg">
<circle cx="22" cy="22" r="22" fill="black"/>
<rect y="44" width="44" height="44" rx="8" fill="black"/>
<path d="M87 88C81.2218 88 75.5002 86.8619 70.1619 84.6507C64.8236 82.4395 59.9731 79.1985 55.8873 75.1127C51.8015 71.0269 48.5605 66.1764 46.3493 60.8381C44.1381 55.4997 43 49.7782 43 44C43 38.2218 44.1381 32.5002 46.3493 27.1619C48.5605 21.8236 51.8015 16.9731 55.8873 12.8873C59.9731 8.80152 64.8236 5.5605 70.1619 3.3493C75.5003 1.13809 81.2218 -7.57712e-07 87 0L87 44L87 88Z" fill="black"/>
</svg>
