<svg width="161" height="270" viewBox="0 0 161 270" fill="none" xmlns="http://www.w3.org/2000/svg">
<path d="M112.961 12.2748L95.9123 49.8074C83.677 47.6583 79.9192 52.6204 79.9192 52.6204C61.6724 42.6985 50.3754 54.1053 46.3668 59.4609C35.3529 54.5533 27.3109 59.1547 27.3109 59.1547L2.32927 20.3114C1.98949 19.7749 1.79648 19.1885 1.75335 18.5948C1.6596 17.3042 2.26665 15.9985 3.46816 15.1857C10.3474 10.5508 31.5113 6.0077 56.7646 4.17324C82.025 2.33826 103.623 3.77506 111.1 7.36706C113.004 8.28666 113.804 10.423 112.961 12.2748Z" fill="#FDEBA7" stroke="black" stroke-width="1.5" stroke-miterlimit="10" stroke-linecap="round" stroke-linejoin="round"/>
<path d="M127.271 202.97C127.365 204.268 126.758 205.57 125.556 206.38C118.677 211.021 97.5136 215.565 72.2603 217.399C46.9999 219.234 25.4052 217.797 17.9242 214.198C16.0208 213.286 15.2211 211.149 16.0639 209.294L36.5212 164.262L60.6863 111.066L68.3382 110.51L103.833 165.713L126.696 201.261C127.039 201.794 127.228 202.38 127.271 202.97Z" fill="#FDEBA7" stroke="black" stroke-width="1.5" stroke-miterlimit="10" stroke-linecap="round" stroke-linejoin="round"/>
<path d="M91.1241 178.491C94.3237 175.063 94.2302 168.551 93.3689 164.286C92.9821 162.362 92.2547 159.645 90.2541 158.776C87.943 157.771 85.7645 159.924 86.2741 162.256C88.8863 174.207 84.8095 176.258 84.8095 176.258L91.1241 178.491Z" fill="#ADF0E7" stroke="black" stroke-width="1.5" stroke-miterlimit="10" stroke-linecap="round" stroke-linejoin="round"/>
<path d="M80.1645 175.388C80.1653 175.399 80.1729 175.405 80.1737 175.416C80.1737 175.416 86.8701 191.188 81.2398 192.458C76.0926 193.626 73.842 180.047 73.4991 177.742C73.4658 177.53 73.4535 177.409 73.4535 177.409L73.3618 177.823C69.1264 180.254 67.0567 183.46 67.0567 183.46C63.8667 179.774 60.8305 176.775 57.9862 174.347C57.911 172.77 57.8244 168.176 58.9781 162.81C59.7357 159.288 61.0246 155.438 63.1945 151.885C66.5746 146.357 72.0991 141.56 81.0842 139.885L78.8894 144.376C78.8894 144.376 82.2332 146.088 83.6609 150.313L90.2072 151.792C90.2098 151.778 74.6524 158.912 80.1645 175.388Z" fill="#ADF0E7" stroke="black" stroke-width="1.5" stroke-miterlimit="10" stroke-linecap="round" stroke-linejoin="round"/>
<path d="M63.1924 151.878C61.0189 155.431 59.7336 159.281 58.976 162.803L55.5163 140.466L60.4193 139.142L63.1924 151.878Z" fill="#ADF0E7" stroke="black" stroke-width="1.5" stroke-miterlimit="10" stroke-linecap="round" stroke-linejoin="round"/>
<path d="M81.9894 158.901L76.1846 155.749L80.4512 161.636L81.9894 158.901Z" fill="black" stroke="black" stroke-width="1.5" stroke-miterlimit="10" stroke-linecap="round" stroke-linejoin="round"/>
<path d="M80.0321 162.652L73.168 159.066L79.1245 166.328L80.0321 162.652Z" fill="black" stroke="black" stroke-width="1.5" stroke-miterlimit="10" stroke-linecap="round" stroke-linejoin="round"/>
<path d="M69.0574 149.805C69.6301 149.764 70.0607 149.267 70.0192 148.695C69.9777 148.123 69.4797 147.694 68.9071 147.735C68.3344 147.777 67.9038 148.274 67.9453 148.846C67.9868 149.417 68.4847 149.847 69.0574 149.805Z" fill="black"/>
<path d="M77.7737 152.591C78.3049 152.553 78.6703 151.624 78.5898 150.516C78.5094 149.409 78.0135 148.542 77.4823 148.581C76.9511 148.62 76.5857 149.549 76.6662 150.656C76.7466 151.763 77.2425 152.63 77.7737 152.591Z" fill="black"/>
<path d="M74.008 143.918C74.2402 143.439 73.6169 142.659 72.6157 142.175C71.6146 141.691 70.6147 141.687 70.3824 142.165C70.1502 142.644 70.7735 143.424 71.7747 143.908C72.7758 144.392 73.7757 144.396 74.008 143.918Z" fill="black"/>
<path d="M67.959 144.795C67.959 144.795 70.3694 145.135 71.0239 146.599" stroke="black" stroke-width="1.5" stroke-miterlimit="10" stroke-linecap="round" stroke-linejoin="round"/>
<path d="M73.543 149.603C73.543 149.603 75.1005 151.467 74.6022 152.991" stroke="black" stroke-width="1.5" stroke-miterlimit="10" stroke-linecap="round" stroke-linejoin="round"/>
<path d="M59.7405 138.179C59.7405 138.179 59.8691 136.794 59.0696 136.141C57.9005 135.182 56.1932 136.082 56.0941 137.626C56.0803 137.83 56.0788 138.056 56.0897 138.305C56.0897 138.305 54.07 138.798 53.5632 140.744C53.2101 142.095 53.9189 143.57 55.1815 144.043C56.1202 144.393 57.516 144.481 58.601 142.261C58.601 142.261 62.8541 143.575 63.1223 140.464C63.3905 137.353 59.7405 138.179 59.7405 138.179Z" fill="#FEFFFA" stroke="black" stroke-width="1.5" stroke-miterlimit="10" stroke-linecap="round" stroke-linejoin="round"/>
<path d="M66.9352 133.986C66.9352 133.986 66.2091 134.589 66.2739 135.285C66.373 136.304 67.6226 136.695 68.4174 136.001C68.5216 135.908 68.6322 135.804 68.7448 135.677C68.7448 135.677 69.9474 136.409 71.1295 135.722C71.9506 135.244 72.3221 134.195 71.943 133.365C71.6617 132.746 71.037 132.033 69.4471 132.578C69.4471 132.578 68.0429 129.91 66.4157 131.272C64.7921 132.634 66.9352 133.986 66.9352 133.986Z" fill="#FEFFFA" stroke="black" stroke-width="1.5" stroke-miterlimit="10" stroke-linecap="round" stroke-linejoin="round"/>
<path d="M56.4153 133.636C56.8112 133.564 57.2491 133.529 57.7029 133.564C58.5857 133.639 59.3271 134.232 59.6171 135.069C60.0709 136.387 60.2814 139.481 57.7058 139.668C55.1516 139.853 54.7791 137.732 54.6296 135.97C54.53 134.845 55.302 133.838 56.4153 133.636Z" fill="#ADF0E7" stroke="black" stroke-width="1.5" stroke-miterlimit="10" stroke-linecap="round" stroke-linejoin="round"/>
<path d="M68.0202 151.284L70.2224 151.528C70.2224 151.528 69.781 156.149 66.6159 155.911C63.4507 155.673 64.9751 151.909 64.9751 151.909L68.0202 151.284Z" fill="black" stroke="black" stroke-width="1.5" stroke-miterlimit="10" stroke-linecap="round" stroke-linejoin="round"/>
<path d="M65.9665 149.514C65.9665 149.514 66.9562 148.595 66.775 147.579C66.5095 146.094 64.632 145.587 63.5592 146.644C63.4153 146.783 63.2697 146.947 63.1185 147.133C63.1185 147.133 61.2725 146.124 59.6277 147.194C58.4854 147.935 58.072 149.491 58.7212 150.687C59.2049 151.578 60.2055 152.585 62.4623 151.706C62.4623 151.706 64.8355 155.536 67.0482 153.46C69.2606 151.38 65.9665 149.514 65.9665 149.514Z" fill="#FEFFFA" stroke="black" stroke-width="1.5" stroke-miterlimit="10" stroke-linecap="round" stroke-linejoin="round"/>
<path d="M64.6196 117.546C64.6196 117.546 63.456 116.858 62.5297 117.319C61.1751 117.996 61.2227 119.934 62.5399 120.663C62.7153 120.762 62.9119 120.854 63.1336 120.949C63.1336 120.949 62.6884 123.004 64.1772 124.272C65.2118 125.155 66.8238 125.113 67.7923 124.149C68.5102 123.432 69.1969 122.188 67.7151 120.277C67.7151 120.277 70.7265 116.92 68.1051 115.391C65.4837 113.863 64.6196 117.546 64.6196 117.546Z" fill="#FEFFFA" stroke="black" stroke-width="1.5" stroke-miterlimit="10" stroke-linecap="round" stroke-linejoin="round"/>
<path d="M59.2803 161.501C59.2803 161.501 60.4911 163.726 64.4992 165.264C67.5383 166.43 72.1822 167.208 79.123 166.329" stroke="#FEFFFA" stroke-width="1.5" stroke-miterlimit="10" stroke-linecap="round" stroke-linejoin="round"/>
<path d="M63.8779 167.512L64.4991 165.264" stroke="#FEFFFA" stroke-width="1.5" stroke-miterlimit="10" stroke-linecap="round" stroke-linejoin="round"/>
<path d="M127.27 202.971C127.364 204.268 126.757 205.571 125.555 206.38C118.676 211.022 97.5123 215.565 72.259 217.399C46.9985 219.234 25.4039 217.797 17.9229 214.199C16.0195 213.286 15.2197 211.15 16.0626 209.294L36.5198 164.262C40.8847 164.403 48.3891 166.156 57.983 174.34C60.8273 176.768 63.8635 179.767 67.0534 183.453C67.0534 183.453 69.127 180.25 73.3586 177.816C73.3993 177.784 73.4476 177.759 73.4959 177.734C73.8391 180.043 76.0894 193.618 81.2366 192.451C86.8672 191.184 80.1705 175.409 80.1705 175.409C80.1697 175.398 80.1621 175.392 80.1613 175.381C84.3901 174.684 89.661 175.17 96.0071 178.133C96.0071 178.133 96.2793 169.457 103.832 165.706L126.694 201.254C127.037 201.794 127.227 202.381 127.27 202.971Z" fill="#FEFFFA" stroke="black" stroke-width="1.5" stroke-miterlimit="10" stroke-linecap="round" stroke-linejoin="round"/>
<path d="M95.9113 49.8076L86.8191 69.8249C76.8862 63.7773 61.3983 71.6716 61.3983 71.6716C56.1112 65.2436 50.9809 61.5168 46.3621 59.4578C50.3745 54.1055 61.6677 42.6953 79.9145 52.6172C79.918 52.617 83.6761 47.6585 95.9113 49.8076Z" fill="#FEFFFA" stroke="black" stroke-width="1.5" stroke-miterlimit="10" stroke-linecap="round" stroke-linejoin="round"/>
<path d="M86.8195 69.8248L81.024 82.5761L68.3384 110.51L60.6865 111.066L27.3107 59.1582L27.3102 59.1511C27.3102 59.1511 35.3521 54.5497 46.3661 59.4574C50.9813 61.5167 56.1152 65.2431 61.4023 71.6711C61.3988 71.6714 76.8866 63.7771 86.8195 69.8248Z" fill="#FEFFFA" stroke="black" stroke-width="1.5" stroke-miterlimit="10" stroke-linecap="round" stroke-linejoin="round"/>
<path d="M73.5011 177.738L71.6172 169.847" stroke="black" stroke-width="1.5" stroke-miterlimit="10" stroke-linecap="round" stroke-linejoin="round"/>
<path d="M78.3067 37.5121C78.5064 37.1545 78.6085 36.7361 78.5767 36.2988C78.4897 35.1006 77.4467 34.2007 76.2461 34.2879C75.783 34.3215 75.3662 34.4984 75.0313 34.7693C74.6388 34.3939 74.0968 34.1796 73.5161 34.2217C72.4225 34.3012 71.5962 35.2511 71.6758 36.3462C71.7171 36.915 71.9968 37.4129 72.4111 37.7438C71.8334 38.1717 71.48 38.8765 71.5358 39.6444C71.6228 40.8425 72.6658 41.7425 73.8663 41.6553C74.6785 41.5963 75.3516 41.1006 75.6778 40.4157C76.0258 41.2625 76.8873 41.8325 77.8527 41.7624C79.0532 41.6752 79.9552 40.634 79.8682 39.4359C79.7937 38.5084 79.1521 37.7616 78.3067 37.5121Z" fill="#FEFFFA" stroke="black" stroke-width="1.5" stroke-miterlimit="10" stroke-linecap="round" stroke-linejoin="round"/>
<path d="M72.9222 76.2527C72.6398 76.2589 72.3556 76.3403 72.1031 76.5124C71.4173 76.9803 71.245 77.9114 71.7102 78.596C71.8903 78.8581 72.1404 79.0472 72.4202 79.152C72.332 79.5158 72.393 79.9116 72.6211 80.2417C73.0496 80.8647 73.8992 81.0245 74.5234 80.5968C74.851 80.3728 75.0486 80.0368 75.1047 79.6753C75.5594 79.871 76.1047 79.835 76.5448 79.535C77.2307 79.067 77.4029 78.136 76.9378 77.4514C76.6213 76.9883 76.0927 76.7622 75.5693 76.8038C75.9556 76.304 75.9971 75.5933 75.6206 75.0453C75.1519 74.3609 74.2191 74.1892 73.5331 74.6536C73.0014 75.0247 72.7758 75.6665 72.9222 76.2527Z" fill="#FEFFFA" stroke="black" stroke-width="1.5" stroke-miterlimit="10" stroke-linecap="round" stroke-linejoin="round"/>
<path d="M65.4811 96.7359C65.4287 96.4574 65.3019 96.1914 65.0925 95.9707C64.519 95.3726 63.5719 95.3485 62.9724 95.921C62.7414 96.1415 62.5966 96.4165 62.5389 96.7066C62.1681 96.6799 61.783 96.8008 61.4916 97.0793C60.9423 97.6017 60.9226 98.4645 61.4459 99.0126C61.7172 99.2967 62.0855 99.4379 62.4507 99.4364C62.3316 99.9168 62.4526 100.448 62.8207 100.832C63.3941 101.43 64.3413 101.454 64.9407 100.882C65.3459 100.495 65.4881 99.9377 65.3619 99.4322C65.9172 99.7314 66.6281 99.6583 67.1103 99.198C67.7098 98.6255 67.7342 97.6802 67.1605 97.0785C66.7114 96.6144 66.0405 96.4987 65.4811 96.7359Z" fill="#FEFFFA" stroke="black" stroke-width="1.5" stroke-miterlimit="10" stroke-linecap="round" stroke-linejoin="round"/>
<path d="M106.971 200.557C107.193 200.158 107.306 199.693 107.27 199.205C107.173 197.872 106.012 196.867 104.672 196.964C104.156 197.001 103.69 197.2 103.318 197.502C102.883 197.087 102.279 196.845 101.627 196.892C100.405 196.981 99.4899 198.041 99.5782 199.257C99.6244 199.893 99.9365 200.442 100.397 200.816C99.7514 201.296 99.357 202.078 99.4192 202.935C99.5161 204.268 100.678 205.274 102.017 205.177C102.922 205.111 103.673 204.56 104.033 203.797C104.421 204.741 105.38 205.376 106.456 205.298C107.792 205.201 108.8 204.041 108.703 202.704C108.631 201.666 107.911 200.832 106.971 200.557Z" fill="#FEFFFA" stroke="black" stroke-width="1.5" stroke-miterlimit="10" stroke-linecap="round" stroke-linejoin="round"/>
<path d="M58.56 195.306C58.2126 195.01 57.7787 194.805 57.2941 194.741C55.9638 194.569 54.7459 195.501 54.5738 196.829C54.5071 197.341 54.6074 197.834 54.8283 198.261C54.3304 198.605 53.9757 199.145 53.8901 199.791C53.7311 201.004 54.585 202.11 55.7998 202.269C56.4325 202.351 57.0379 202.157 57.494 201.781C57.8332 202.507 58.5245 203.05 59.3778 203.163C60.7081 203.335 61.9261 202.403 62.0982 201.075C62.2156 200.177 61.8248 199.333 61.1504 198.824C62.1539 198.637 62.9721 197.824 63.1097 196.759C63.2818 195.431 62.3484 194.216 61.0181 194.045C59.9876 193.909 59.0237 194.443 58.56 195.306Z" fill="#FEFFFA" stroke="black" stroke-width="1.5" stroke-miterlimit="10" stroke-linecap="round" stroke-linejoin="round"/>
<path d="M44.7932 71.4589C44.7932 71.4589 44.6417 72.3312 45.1437 72.7844C45.8793 73.4458 47.0646 72.9522 47.2013 71.9737C47.2205 71.8437 47.2315 71.6999 47.2379 71.5422C47.2379 71.5422 48.6113 71.3209 49.0424 70.1066C49.3431 69.2663 48.9394 68.2949 48.1186 67.9399C47.5084 67.6733 46.5797 67.5585 45.7511 68.9197C45.7511 68.9197 42.9729 67.8956 42.6465 69.86C42.3198 71.8208 44.7932 71.4589 44.7932 71.4589Z" fill="#FEFFFA" stroke="black" stroke-width="1.5" stroke-miterlimit="10" stroke-linecap="round" stroke-linejoin="round"/>
<path d="M41.8478 48.1022C41.8478 48.1022 40.9897 47.8751 40.493 48.3329C39.7682 49.0039 40.1542 50.2267 41.1161 50.4535C41.2437 50.4835 41.3852 50.509 41.5404 50.5263C41.5404 50.5263 41.6373 51.9096 42.8082 52.45C43.6196 52.8235 44.6247 52.511 45.0547 51.7256C45.3739 51.1413 45.5763 50.2296 44.2935 49.2827C44.2935 49.2827 45.5678 46.6133 43.6371 46.1138C41.7136 45.6138 41.8478 48.1022 41.8478 48.1022Z" fill="#FEFFFA" stroke="black" stroke-width="1.5" stroke-miterlimit="10" stroke-linecap="round" stroke-linejoin="round"/>
<path d="M51.3824 26.2763C51.3824 26.2763 51.5158 25.4017 51.0039 24.9599C50.255 24.3138 49.0822 24.8315 48.9601 25.8125C48.9444 25.9423 48.9334 26.086 48.9341 26.2433C48.9341 26.2433 47.5663 26.4927 47.1571 27.7126C46.8748 28.5587 47.2993 29.5214 48.1262 29.8617C48.7425 30.1135 49.6737 30.2139 50.4761 28.8368C50.4761 28.8368 53.2751 29.8021 53.5618 27.8335C53.8485 25.8648 51.3824 26.2763 51.3824 26.2763Z" fill="#FEFFFA" stroke="black" stroke-width="1.5" stroke-miterlimit="10" stroke-linecap="round" stroke-linejoin="round"/>
<path d="M66.1517 57.5592C66.1517 57.5592 66.4676 56.7321 66.0629 56.1897C65.4684 55.4001 64.2121 55.6558 63.8859 56.5873C63.8412 56.7121 63.8045 56.847 63.7692 57.0032C63.7692 57.0032 62.38 56.9576 61.7226 58.0633C61.2629 58.8329 61.4737 59.8612 62.2089 60.3689C62.7556 60.7474 63.6435 61.0403 64.722 59.8647C64.722 59.8647 67.251 61.4037 67.9501 59.5408C68.6495 57.6816 66.1517 57.5592 66.1517 57.5592Z" fill="#FEFFFA" stroke="black" stroke-width="1.5" stroke-miterlimit="10" stroke-linecap="round" stroke-linejoin="round"/>
<path d="M40.1197 178.354C40.1197 178.354 39.0908 179.473 39.3937 180.587C39.838 182.217 42.0004 182.603 43.1108 181.325C43.2562 181.157 43.4066 180.96 43.5624 180.738C43.5624 180.738 45.7442 181.688 47.4908 180.342C48.7049 179.407 49.0241 177.64 48.1723 176.365C47.5412 175.417 46.3136 174.391 43.8539 175.581C43.8539 175.581 40.8061 171.535 38.515 174.061C36.2239 176.586 40.1197 178.354 40.1197 178.354Z" fill="#FEFFFA" stroke="black" stroke-width="1.5" stroke-miterlimit="10" stroke-linecap="round" stroke-linejoin="round"/>
<path d="M108.618 185.995C108.618 185.995 109.507 186.009 109.878 185.446C110.42 184.62 109.75 183.525 108.762 183.54C108.63 183.542 108.487 183.553 108.331 183.571C108.331 183.571 107.902 182.251 106.635 182.011C105.756 181.843 104.858 182.39 104.63 183.254C104.462 183.895 104.487 184.83 105.96 185.441C105.96 185.441 105.369 188.34 107.361 188.359C109.35 188.379 108.618 185.995 108.618 185.995Z" fill="#FEFFFA" stroke="black" stroke-width="1.5" stroke-miterlimit="10" stroke-linecap="round" stroke-linejoin="round"/>
<path d="M95.1595 188.738C95.1595 188.738 95.4754 187.911 95.0708 187.368C94.4762 186.579 93.2199 186.834 92.8937 187.766C92.849 187.891 92.8123 188.025 92.7771 188.182C92.7771 188.182 91.3878 188.136 90.7305 189.242C90.2707 190.011 90.4815 191.04 91.2167 191.547C91.7634 191.926 92.6513 192.219 93.7298 191.043C93.7298 191.043 96.2588 192.582 96.9579 190.719C97.657 188.856 95.1595 188.738 95.1595 188.738Z" fill="#FEFFFA" stroke="black" stroke-width="1.5" stroke-miterlimit="10" stroke-linecap="round" stroke-linejoin="round"/>
<path d="M77.1558 205.754C77.1558 205.754 76.3858 205.309 75.7892 205.624C74.913 206.085 74.9666 207.364 75.8351 207.833C75.9506 207.897 76.0802 207.955 76.2279 208.016C76.2279 208.016 75.9614 209.375 76.9489 210.201C77.635 210.773 78.6885 210.732 79.3077 210.087C79.767 209.606 80.201 208.778 79.2116 207.531C79.2116 207.531 81.1363 205.286 79.4066 204.3C77.6734 203.315 77.1558 205.754 77.1558 205.754Z" fill="#FEFFFA" stroke="black" stroke-width="1.5" stroke-miterlimit="10" stroke-linecap="round" stroke-linejoin="round"/>
<path d="M83.6608 60.5079C83.6608 60.5079 84.5476 60.49 84.8959 59.9107C85.4075 59.0658 84.6961 57.9988 83.7076 58.0456C83.5755 58.0516 83.4333 58.0656 83.2776 58.0912C83.2776 58.0912 82.7998 56.7892 81.5252 56.5959C80.6415 56.4599 79.7635 57.0419 79.569 57.9138C79.4228 58.5642 79.4834 59.4962 80.981 60.0486C80.981 60.0486 80.5016 62.9641 82.4926 62.9124C84.4873 62.8639 83.6608 60.5079 83.6608 60.5079Z" fill="#FEFFFA" stroke="black" stroke-width="1.5" stroke-miterlimit="10" stroke-linecap="round" stroke-linejoin="round"/>
<path d="M55.554 83.1721C55.554 83.1721 54.6377 84.1643 54.907 85.1598C55.2989 86.6109 57.2256 86.957 58.2138 85.8202C58.3462 85.6712 58.4803 85.497 58.6163 85.2977C58.6163 85.2977 60.5542 86.1434 62.1149 84.9507C63.197 84.1215 63.4837 82.546 62.7282 81.4143C62.1657 80.5724 61.0748 79.6545 58.8883 80.7104C58.8883 80.7104 56.1807 77.1079 54.1376 79.3507C52.091 81.5937 55.554 83.1721 55.554 83.1721Z" fill="#FEFFFA" stroke="black" stroke-width="1.5" stroke-miterlimit="10" stroke-linecap="round" stroke-linejoin="round"/>
<path d="M39.6362 202.51C39.6362 202.51 40.3703 201.917 40.3123 201.217C40.2239 200.198 38.9771 199.795 38.178 200.479C38.0735 200.569 37.9596 200.677 37.8465 200.796C37.8465 200.796 36.6499 200.05 35.4636 200.726C34.638 201.194 34.2557 202.24 34.6243 203.075C34.8987 203.698 35.5166 204.414 37.1113 203.887C37.1113 203.887 38.4881 206.572 40.1272 205.227C41.7631 203.886 39.6362 202.51 39.6362 202.51Z" fill="#FEFFFA" stroke="black" stroke-width="1.5" stroke-miterlimit="10" stroke-linecap="round" stroke-linejoin="round"/>
<rect x="7.34338" y="225.59" width="146.481" height="44.5387" rx="15.25" transform="rotate(-13.0538 7.34338 225.59)" fill="#FFDC38"/>
<path d="M37.896 244.064L35.9189 242.913C35.6425 243.581 35.0146 244.158 34.1008 244.369C32.4915 244.743 31.0813 243.805 30.6734 242.046C30.2781 240.341 31.1464 238.817 32.7694 238.441C33.5058 238.27 34.3496 238.376 34.9252 238.875L36.1404 236.926C35.1207 236.186 33.5476 236.033 32.1974 236.346C29.2516 237.029 27.4188 239.538 28.1366 242.634C28.8386 245.661 31.5423 247.219 34.5154 246.53C36.1384 246.153 37.2781 245.242 37.896 244.064ZM48.6636 237.846C47.9458 234.75 45.257 233.318 42.2293 234.02C39.2152 234.719 37.4307 237.188 38.1486 240.284C38.8569 243.339 41.5742 244.893 44.5882 244.194C47.6159 243.492 49.3719 240.901 48.6636 237.846ZM46.1678 238.424C46.5726 240.17 45.7179 241.69 44.0949 242.067C42.472 242.443 41.0491 241.451 40.6443 239.705C40.2522 238.014 41.0797 236.5 42.7162 236.12C44.3528 235.741 45.7757 236.733 46.1678 238.424ZM63.0432 239.642L60.8044 229.986L57.4358 230.767L56.7711 237.446L56.7165 237.459L53.0852 231.776L49.7711 232.545L52.0099 242.2L54.2056 241.691L52.5669 234.871L52.6078 234.862L56.6332 241.128L58.2698 240.749L59.195 233.334L59.2359 233.325L60.7656 240.17L63.0432 239.642ZM68.0631 238.478L65.8243 228.822L63.4786 229.366L65.7174 239.022L68.0631 238.478ZM79.5241 235.821L77.2853 226.165L75.0214 226.69L76.5369 232.978L76.4959 232.988L71.1618 227.585L68.5023 228.202L70.7411 237.857L73.0051 237.332L71.4864 231.031L71.5274 231.021L76.8783 236.434L79.5241 235.821ZM90.6402 232.626L89.4544 227.511L85.4721 228.435L85.9084 230.317L87.7496 229.89L88.1575 231.649C87.7895 231.921 87.3038 232.12 86.7583 232.247C84.8626 232.686 83.5184 231.661 83.1073 229.888C82.7057 228.156 83.6086 226.596 85.2452 226.217C86.1862 225.998 87.0522 226.2 87.6224 226.614L88.7064 224.595C87.7215 224.004 86.1997 223.825 84.6859 224.176C81.74 224.859 79.9073 227.368 80.6251 230.464C81.3303 233.505 84.0276 235.035 87.1099 234.321C88.5964 233.976 89.813 233.335 90.6402 232.626ZM102.02 221.422C100.994 220.841 99.6714 220.716 98.5803 220.969C96.7801 221.386 95.049 222.722 95.5455 224.863C95.9502 226.609 97.3367 226.948 98.6559 227.059C100.019 227.174 100.809 227.235 100.98 227.972C101.16 228.749 100.596 229.168 99.887 229.332C99.1233 229.509 98.1629 229.272 97.5632 228.793L96.3962 230.702C97.4473 231.392 98.9554 231.574 100.333 231.255C102.242 230.812 103.798 229.402 103.283 227.179C102.837 225.256 101.016 225.089 99.6086 224.97C98.6285 224.896 98.0082 224.824 97.8596 224.183C97.6825 223.419 98.3852 223.041 98.9853 222.901C99.5854 222.762 100.384 222.922 100.897 223.335L102.02 221.422ZM115.129 222.435C114.411 219.339 111.722 217.908 108.694 218.61C105.68 219.308 103.896 221.777 104.614 224.873C105.322 227.928 108.039 229.483 111.053 228.784C114.081 228.082 115.837 225.49 115.129 222.435ZM112.633 223.014C113.038 224.76 112.183 226.28 110.56 226.656C108.937 227.032 107.514 226.04 107.109 224.295C106.717 222.603 107.545 221.089 109.181 220.71C110.818 220.33 112.241 221.323 112.633 223.014ZM127.411 219.587C126.693 216.492 124.004 215.06 120.977 215.762C117.963 216.461 116.178 218.93 116.896 222.025C117.604 225.08 120.322 226.635 123.336 225.936C126.363 225.234 128.119 222.642 127.411 219.587ZM124.915 220.166C125.32 221.912 124.465 223.432 122.842 223.808C121.219 224.185 119.796 223.192 119.392 221.447C119 219.756 119.827 218.242 121.464 217.862C123.1 217.483 124.523 218.475 124.915 220.166ZM139.54 221.906L137.301 212.25L135.038 212.775L136.553 219.063L136.512 219.072L131.178 213.67L128.518 214.286L130.757 223.942L133.021 223.417L131.503 217.115L131.543 217.106L136.894 222.519L139.54 221.906Z" fill="black"/>
<rect x="7.34338" y="225.59" width="146.481" height="44.5387" rx="15.25" transform="rotate(-13.0538 7.34338 225.59)" stroke="black" stroke-width="1.5"/>
</svg>
