<svg width="269" height="204" viewBox="0 0 269 204" fill="none" xmlns="http://www.w3.org/2000/svg">
<rect x="48.0254" y="90.1953" width="35.9057" height="11.3985" rx="5.69926" fill="#F3F4F6" stroke="#374151" stroke-width="1.5"/>
<rect x="47.75" y="78.75" width="24.5" height="10.5" rx="5.25" fill="#F3F4F6" stroke="#374151" stroke-width="1.5"/>
<path d="M1 184.37H268.002" stroke="#374151" stroke-width="1.5" stroke-linecap="round"/>
<path d="M87.1916 18.8701L73.0293 86.7375L111.269 100.862L145.374 43.3283L87.1916 18.8701Z" fill="#D1D5DB" stroke="#374151" stroke-width="1.5" stroke-miterlimit="10" stroke-linecap="round" stroke-linejoin="round"/>
<path d="M115.435 68.9746L114.476 70.6355C111.08 76.5179 103.558 78.5334 97.6757 75.1372C91.7932 71.7409 89.7777 64.219 93.174 58.3366L94.1329 56.6757C97.5291 50.7932 105.051 48.7777 110.933 52.174C116.816 55.5702 118.831 63.0921 115.435 68.9746Z" fill="#F3F4F6" stroke="#374151" stroke-width="1.5"/>
<path d="M106.351 67.8819C106.106 69.2692 104.758 70.201 103.332 69.9628C102.057 69.7497 101.155 68.6716 101.155 67.4556C100.842 67.5225 100.511 67.5267 100.176 67.4723C98.7509 67.2342 97.7934 65.922 98.0382 64.5347C98.1799 63.7157 98.7123 63.0596 99.4122 62.7044C99.2705 62.5833 99.1417 62.4412 99.0257 62.2866C98.1885 61.1374 98.4675 59.5495 99.6483 58.7347C100.829 57.9198 102.461 58.1956 103.294 59.3406C103.44 59.5453 103.556 59.7626 103.633 59.9883C103.933 58.6762 105.247 57.807 106.626 58.0368C108.051 58.275 109.009 59.5871 108.764 60.9745C108.661 61.5762 108.347 62.0943 107.905 62.4662C109.283 62.7379 110.202 64.0291 109.962 65.3913C109.717 66.7787 108.365 67.7105 106.939 67.4723C106.742 67.4389 106.548 67.3846 106.372 67.3135C106.394 67.4932 106.385 67.6896 106.351 67.8819Z" fill="#D1D5DB" stroke="#374151" stroke-width="1.5" stroke-miterlimit="10" stroke-linecap="round" stroke-linejoin="round"/>
<path d="M129.755 90.0456L161.827 183.445L218.926 172.897L218.793 77.6295L129.755 90.0456Z" fill="#D1D5DB" stroke="#374151" stroke-width="1.5" stroke-miterlimit="10" stroke-linecap="round" stroke-linejoin="round"/>
<rect x="43.0254" y="101.804" width="90.0796" height="82.3404" fill="#D1D5DB" stroke="#374151" stroke-width="1.5"/>
<path d="M230.087 194.301H267.624" stroke="#374151" stroke-width="1.5" stroke-linecap="round"/>
<path d="M195.768 203.151H211.855" stroke="#374151" stroke-width="1.5" stroke-linecap="round"/>
<path d="M194.861 126.799L195.358 128.651C197.116 135.212 193.222 141.956 186.661 143.714C180.1 145.472 173.356 141.579 171.598 135.018L171.102 133.165C169.344 126.604 173.237 119.86 179.798 118.102C186.359 116.344 193.103 120.238 194.861 126.799Z" fill="#F3F4F6" stroke="#374151" stroke-width="1.5"/>
<path d="M185.351 134.882C185.106 136.269 183.758 137.201 182.332 136.963C181.057 136.75 180.155 135.672 180.155 134.456C179.842 134.522 179.511 134.527 179.176 134.472C177.751 134.234 176.793 132.922 177.038 131.535C177.18 130.716 177.712 130.06 178.412 129.704C178.27 129.583 178.142 129.441 178.026 129.287C177.188 128.137 177.468 126.55 178.648 125.735C179.829 124.92 181.461 125.196 182.294 126.341C182.44 126.545 182.556 126.763 182.633 126.988C182.933 125.676 184.247 124.807 185.626 125.037C187.051 125.275 188.009 126.587 187.764 127.974C187.661 128.576 187.347 129.094 186.905 129.466C188.283 129.738 189.202 131.029 188.962 132.391C188.717 133.779 187.365 134.711 185.939 134.472C185.742 134.439 185.548 134.385 185.372 134.314C185.394 134.493 185.385 134.69 185.351 134.882Z" fill="#D1D5DB" stroke="#374151" stroke-width="1.5" stroke-miterlimit="10" stroke-linecap="round" stroke-linejoin="round"/>
<path d="M178.693 50.7861C178.409 52.4406 176.844 53.5519 175.19 53.2679C173.71 53.0137 172.663 51.728 172.663 50.2777C172.3 50.3575 171.916 50.3625 171.527 50.2977C169.873 50.0136 168.761 48.4488 169.045 46.7943C169.21 45.8175 169.828 45.0351 170.64 44.6115C170.476 44.467 170.326 44.2975 170.191 44.1131C169.22 42.7427 169.544 40.8489 170.914 39.8771C172.285 38.9054 174.178 39.2343 175.145 40.5998C175.315 40.844 175.449 41.1031 175.539 41.3722C175.888 39.8074 177.413 38.7708 179.012 39.0449C180.667 39.329 181.778 40.8938 181.494 42.5483C181.375 43.2659 181.011 43.8839 180.497 44.3274C182.097 44.6514 183.164 46.1913 182.885 47.8159C182.6 49.4704 181.031 50.5817 179.376 50.2977C179.147 50.2578 178.923 50.193 178.718 50.1083C178.743 50.3226 178.733 50.5568 178.693 50.7861Z" fill="#F9FAFB" stroke="#374151" stroke-width="1.5" stroke-miterlimit="10" stroke-linecap="round" stroke-linejoin="round"/>
<path d="M147.453 183.524C149.809 182.927 151.776 181.476 152.689 178.955C154.18 174.837 152.02 170.814 149.309 171.852C146.599 172.889 146.856 174.851 146.856 174.851C146.856 174.851 145.636 171.383 143.089 172.504C140.542 173.624 141.876 176.428 141.876 176.428C141.876 176.428 137.66 175.336 137.988 179.397C138.27 182.87 142.194 183.907 145.034 183.844C145.865 183.823 146.681 183.72 147.453 183.524Z" fill="#F9FAFB" stroke="#374151" stroke-width="1.5" stroke-miterlimit="10" stroke-linecap="round" stroke-linejoin="round"/>
<path d="M153.778 73.2297C153.625 73.3715 153.538 73.5704 153.538 73.7787C153.538 73.9869 153.625 74.1858 153.777 74.3278C154.354 74.8646 154.792 75.5328 155.055 76.2754C155.319 77.018 155.399 77.8131 155.289 78.5932C155.179 79.3733 154.882 80.1154 154.424 80.7564C153.966 81.3974 153.36 81.9184 152.658 82.275C151.955 82.6317 151.177 82.8136 150.389 82.8052C149.601 82.7968 148.827 82.5984 148.133 82.2268C147.438 81.8553 146.843 81.3215 146.399 80.6709C145.955 80.0203 145.674 79.2721 145.581 78.4898C145.553 78.2559 145.417 78.0487 145.213 77.9303C145.009 77.8118 144.762 77.796 144.545 77.8874C143.795 78.2029 142.979 78.3268 142.17 78.2478C141.361 78.1689 140.584 77.8896 139.91 77.4352C139.235 76.9808 138.685 76.3656 138.308 75.6452C137.931 74.9247 137.739 74.1217 137.75 73.3087C137.762 72.4957 137.975 71.6982 138.372 70.9884C138.768 70.2785 139.335 69.6786 140.022 69.2429C140.708 68.8071 141.493 68.5493 142.304 68.4925C143.115 68.4358 143.927 68.582 144.668 68.9179C144.87 69.0095 145.101 69.0071 145.301 68.9115C145.501 68.8159 145.649 68.6368 145.704 68.4223C145.894 67.6861 146.253 67.0043 146.752 66.4309C147.251 65.8575 147.877 65.4082 148.58 65.1188C149.283 64.8293 150.044 64.7075 150.802 64.7631C151.56 64.8187 152.295 65.0502 152.948 65.4391C153.601 65.8281 154.155 66.3639 154.565 67.004C154.976 67.6441 155.231 68.371 155.312 69.127C155.392 69.883 155.295 70.6473 155.029 71.3595C154.763 72.0716 154.334 72.7119 153.778 73.2297Z" fill="#F9FAFB" stroke="#374151" stroke-width="1.5" stroke-linejoin="round"/>
<path d="M137.535 30.2394C137.517 30.037 137.417 29.8509 137.258 29.7236C137.1 29.5963 136.896 29.5388 136.695 29.5642C136.227 29.6231 135.745 29.5689 135.29 29.4037C134.834 29.2385 134.42 28.9676 134.084 28.6141C133.749 28.2605 133.502 27.8364 133.365 27.3792C133.227 26.9221 133.203 26.4464 133.291 25.9925C133.378 25.5388 133.576 25.1188 133.865 24.767C134.153 24.4151 134.527 24.1398 134.956 23.9651C135.384 23.7904 135.856 23.7213 136.332 23.7667C136.808 23.8121 137.273 23.9707 137.685 24.2307C137.887 24.3576 138.136 24.3814 138.358 24.2948C138.58 24.2082 138.747 24.0216 138.809 23.7918C138.933 23.3332 139.171 22.9183 139.501 22.5833C139.831 22.2482 140.244 22.0015 140.706 21.8671C141.167 21.7326 141.663 21.7147 142.149 21.8183C142.635 21.9219 143.094 22.1435 143.483 22.4641C143.871 22.7847 144.176 23.1925 144.37 23.6493C144.563 24.1058 144.64 24.5955 144.595 25.0734C144.55 25.5511 144.386 26.0031 144.119 26.39C143.852 26.7769 143.489 27.0889 143.062 27.2974C142.86 27.3959 142.713 27.5797 142.661 27.7983C142.609 28.0169 142.658 28.2473 142.794 28.426C143.078 28.7992 143.272 29.2279 143.362 29.6768C143.451 30.1256 143.434 30.5819 143.315 31.0097C143.196 31.4374 142.977 31.8266 142.677 32.1474C142.376 32.4682 142.001 32.7137 141.579 32.8631C141.156 33.0126 140.698 33.0621 140.239 33.005C139.781 32.9479 139.336 32.7857 138.94 32.5299C138.545 32.2742 138.212 31.933 137.968 31.5343C137.725 31.1356 137.577 30.692 137.535 30.2394Z" fill="#F9FAFB" stroke="#374151" stroke-width="1.5" stroke-linejoin="round"/>
<path d="M41.0992 161.983C41.2505 162.115 41.4481 162.18 41.648 162.165C41.8479 162.15 42.0335 162.055 42.1633 161.903C42.4502 161.565 42.8351 161.324 43.2647 161.215C43.6943 161.105 44.1472 161.132 44.5609 161.291L44.8304 160.592L44.5631 161.292C45.0888 161.493 45.5134 161.894 45.7439 162.407C45.9744 162.92 45.9919 163.504 45.7925 164.03C45.7161 164.232 45.7302 164.457 45.8313 164.647C45.9325 164.838 46.1107 164.976 46.3207 165.026C46.5158 165.072 46.7075 165.132 46.8941 165.205L46.8941 165.205L46.8979 165.207C48.1279 165.683 49.1186 166.628 49.652 167.834C50.1853 169.04 50.2177 170.409 49.7419 171.639C49.2661 172.869 48.3212 173.859 47.115 174.393C45.9088 174.926 44.5401 174.958 43.31 174.483L43.3081 174.482C43.0022 174.365 42.7099 174.215 42.436 174.035C42.1078 173.82 41.6693 173.894 41.4301 174.205C40.648 175.222 39.4938 175.887 38.2215 176.053C36.9492 176.219 35.663 175.873 34.6459 175.091C33.6288 174.309 32.9641 173.155 32.7979 171.882C32.6318 170.61 32.9779 169.324 33.76 168.307C33.9319 168.083 33.9639 167.782 33.8428 167.528C33.4414 166.683 33.3027 165.738 33.4446 164.814C33.5865 163.89 34.0026 163.029 34.6389 162.344C35.2752 161.659 36.1025 161.181 37.0137 160.972C37.9249 160.762 38.8779 160.831 39.7495 161.169L39.7505 161.17C40.2439 161.361 40.7002 161.636 41.0992 161.983Z" fill="#F9FAFB" stroke="#374151" stroke-width="1.5" stroke-linejoin="round"/>
<path d="M124.299 7.49267C124.148 7.7231 124.135 8.0179 124.266 8.26042C124.368 8.44825 124.543 8.58129 124.744 8.63173C125.346 8.86858 125.88 9.24861 126.3 9.73879C126.736 10.2466 127.035 10.8561 127.169 11.5101C127.304 12.164 127.27 12.8414 127.07 13.4787C126.87 14.116 126.512 14.6926 126.027 15.1545C125.543 15.6163 124.949 15.9483 124.3 16.119C123.652 16.2898 122.97 16.2936 122.32 16.1303C121.669 15.9669 121.071 15.6417 120.581 15.1854C120.092 14.7291 119.726 14.1565 119.519 13.5215C119.427 13.239 119.177 13.0375 118.882 13.0077C118.586 12.9779 118.301 13.1254 118.154 13.3838C117.858 13.9053 117.447 14.3529 116.951 14.6925C116.455 15.0322 115.888 15.2548 115.293 15.3433C114.698 15.4319 114.09 15.3841 113.516 15.2035C112.942 15.0229 112.417 14.7143 111.981 14.3015C111.545 13.8886 111.21 13.3823 111 12.8211C110.789 12.2599 110.71 11.6584 110.768 11.0623C110.827 10.4662 111.02 9.891 111.335 9.38039C111.649 8.86977 112.076 8.43712 112.584 8.11545C112.783 7.98935 112.911 7.77706 112.93 7.54221C112.949 7.30736 112.857 7.07727 112.68 6.9209C112.318 6.59947 112.026 6.20747 111.822 5.76925C111.618 5.33104 111.506 4.85588 111.494 4.37311C111.482 3.89033 111.569 3.4101 111.75 2.96212C111.931 2.51413 112.203 2.1078 112.548 1.76832C112.893 1.42885 113.305 1.16347 113.758 0.988743C114.21 0.814011 114.694 0.73367 115.179 0.752751C115.664 0.771832 116.14 0.889936 116.577 1.09966C117.015 1.30937 117.404 1.60619 117.721 1.97166C117.972 2.26092 118.401 2.31442 118.716 2.09577C119.47 1.57108 120.385 1.32441 121.303 1.39848C122.22 1.47254 123.083 1.86267 123.743 2.50136C124.403 3.13999 124.819 3.98732 124.921 4.89779C125.022 5.80824 124.803 6.72564 124.299 7.49267Z" fill="#F9FAFB" stroke="#374151" stroke-width="1.5" stroke-linejoin="round"/>
</svg>
