<svg width="71" height="71" viewBox="0 0 71 71" fill="none" xmlns="http://www.w3.org/2000/svg">
<path d="M35.4995 53.2499C35.4995 43.4466 27.5526 35.4997 17.7498 35.4997C7.94658 35.4997 0 43.4466 0 53.2499C0 63.0531 7.94658 71 17.7498 71C27.5526 71 35.4995 63.0531 35.4995 53.2499Z" fill="black"/>
<path d="M70.9995 53.2499C70.9995 43.4466 63.0529 35.4997 53.2501 35.4997C43.4469 35.4997 35.5 43.4466 35.5 53.2499C35.5 63.0531 43.4469 71 53.2501 71C63.0529 71 70.9995 63.0531 70.9995 53.2499Z" fill="black"/>
<path d="M71 35.5C71 15.8939 55.1062 7.62939e-06 35.5001 7.62939e-06C15.8941 7.62939e-06 0 15.8936 0 35.5H71Z" fill="black"/>
</svg>
