<svg width="1920" height="731" viewBox="0 0 1920 731" fill="none" xmlns="http://www.w3.org/2000/svg">
<path d="M1302.99 129.5C1213.49 109 1029.99 213.5 939.988 267.5C906.488 246 868.209 223.927 827.988 200C767.488 166.5 707.862 135.665 652.988 139.5C628.588 140.3 568.988 173 495.988 212.5C446.909 238.004 394.245 263.583 352.988 283.5L1123.49 553.5L1576.99 257L1563.99 239.5C1512.15 211.167 1403.99 138 1302.99 129.5Z" fill="#FDEAA7"/>
<path d="M1210.99 320.794C1007.65 341.127 568.812 343.144 366.488 277C340.488 268.5 299.011 249.869 277.488 241.5C121.988 178.5 32.4883 166 -15.5117 166V902.294L2006.99 966.294V158.794C1999.78 142.514 1963.65 120.694 1904.49 123.5C1842.49 134.5 1693.99 188.135 1617.49 219.5C1607.52 223.587 1590.99 230.5 1565.99 240C1466.7 270.388 1273.57 317.992 1210.99 320.794Z" fill="#FDEAA7"/>
<path fill-rule="evenodd" clip-rule="evenodd" d="M1947.25 117.979C1947.26 118.324 1946.99 118.613 1946.65 118.626C1910.55 119.903 1857.04 133.496 1793.46 154.548C1729.91 175.594 1656.37 204.072 1580.22 235.079L1579.99 234.5L1580.22 235.079C1377.13 317.738 1201.52 335.344 987.492 336.625C934.596 336.956 865.885 336.835 800.976 336.721C761.218 336.652 722.886 336.584 690.489 336.625C588.226 336.732 483.06 319.715 385.492 284.571C354.413 273.386 323.511 261.025 292.569 248.647C275.669 241.887 258.757 235.121 241.798 228.54C193.771 209.904 145.332 192.732 95.5782 181.267L95.578 181.267C53.4927 171.557 8.77863 163.785 -34.312 168.151C-34.6554 168.185 -34.962 167.935 -34.9968 167.592C-35.0316 167.248 -34.7814 166.942 -34.4379 166.907C8.86711 162.52 53.7485 170.333 95.859 180.049C145.7 191.534 194.206 208.732 242.25 227.375C259.236 233.966 276.159 240.736 293.064 247.499C323.991 259.87 354.854 272.216 385.915 283.395L385.704 283.983L385.916 283.395C483.338 318.487 588.361 335.482 690.488 335.375C722.893 335.334 761.229 335.402 800.988 335.471C865.892 335.585 934.592 335.706 987.485 335.375C1201.43 334.094 1376.87 316.497 1579.75 233.921C1655.9 202.911 1729.48 174.421 1793.07 153.362C1856.65 132.309 1910.31 118.661 1946.6 117.376C1946.95 117.364 1947.24 117.634 1947.25 117.979Z" fill="#2E1E00"/>
<path d="M1672.76 514.758H216.227C215.788 514.758 215.496 514.465 215.496 514.027C215.496 513.588 215.788 513.296 216.227 513.296H1672.76C1673.2 513.296 1673.49 513.588 1673.49 514.027C1673.49 514.465 1673.12 514.758 1672.76 514.758Z" fill="#2E1E00"/>
<path d="M1064.41 354.695C1064.26 354.695 1064.12 354.622 1063.97 354.549C1038.04 335.254 1010.13 315.593 976.237 292.644C969.809 288.332 963.089 283.8 956.076 279.122C950.743 275.614 945.338 272.033 939.421 268.159C939.055 267.94 938.982 267.501 939.201 267.136C939.421 266.771 939.859 266.698 940.224 266.917C946.141 270.79 951.547 274.372 956.879 277.88C963.892 282.485 970.613 287.089 977.041 291.401C1011.01 314.351 1038.91 334.085 1064.85 353.38C1065.14 353.599 1065.21 354.111 1064.99 354.403C1064.85 354.549 1064.63 354.695 1064.41 354.695Z" fill="#2E1E00"/>
<path d="M367.077 276.637C366.785 276.637 366.565 276.491 366.419 276.199C366.273 275.833 366.419 275.395 366.785 275.249C398.196 260.047 431.287 243.894 468.104 225.768C488.631 215.609 509.158 204.5 528.954 193.756C543.856 185.643 559.269 177.311 574.61 169.418C576.144 168.614 577.678 167.81 579.212 167.079C603.683 154.435 628.958 141.425 656.79 138.648C687.836 135.578 717.567 146.76 747.81 159.478C771.405 169.418 796.095 181.55 825.68 197.776C835.688 203.184 845.915 208.958 855.996 214.878C856.361 215.098 856.434 215.536 856.288 215.901C856.069 216.267 855.63 216.34 855.265 216.194C845.111 210.347 834.957 204.573 824.877 199.018C795.365 182.866 770.674 170.66 747.152 160.793C717.056 148.149 687.471 136.967 656.79 140.036C629.251 142.814 604.049 155.75 579.723 168.321C578.189 169.125 576.655 169.929 575.121 170.66C559.781 178.554 544.367 186.886 529.465 194.998C509.669 205.742 489.142 216.852 468.615 227.011C431.798 245.137 398.707 261.362 367.296 276.491C367.296 276.564 367.223 276.637 367.077 276.637Z" fill="#2E1E00"/>
<path d="M900.412 346.729C900.339 350.675 899.974 354.549 899.317 358.423C898.002 366.462 895.518 374.356 892.669 381.957C886.971 397.305 879.593 411.923 875.429 427.783C872.288 439.916 870.243 452.268 868.709 464.692C868.636 465.277 868.563 465.862 868.49 466.447C867.467 474.486 866.81 482.16 866.371 489.689C865.056 511.103 865.422 531.129 865.349 554.298C865.203 582.802 867.175 612.695 864.253 645.877C863.23 657.352 856.071 679.863 839.854 673.943C831.235 670.727 829.043 660.422 827.509 652.382C825.683 642.515 825.318 632.502 824.66 622.562C823.638 607.214 823.491 591.792 823.93 576.444C824.295 562.265 824.733 557.002 826.121 542.896C819.401 545.235 811.073 542.239 811.073 542.239C811.511 542.385 810.781 551.082 810.781 551.74C810.562 559.122 810.27 566.577 810.05 573.959C809.612 586.384 809.247 598.809 808.809 611.234C808.224 627.898 808.005 644.123 801.431 659.837C798.728 666.342 792.738 673.578 785.141 674.016C771.553 674.674 767.974 658.741 766.805 648.289C764.979 632.21 764.906 615.838 764.321 599.613C763.737 582.656 763.372 565.7 764.102 548.743C764.248 545.235 764.468 541.727 764.687 538.146C765.49 525.721 766.659 513.369 768.339 501.017C771.188 479.968 775.425 459.211 780.977 438.673C787.624 414.189 796.098 390.143 806.836 367.193C809.831 360.688 813.045 354.33 816.479 348.117C822.615 337.081 825.318 324.949 828.897 312.816L843.069 340.005C864.764 336.716 881.785 350.968 881.785 350.968L899.609 334.815C898.878 335.327 900.412 345.194 900.412 346.729Z" fill="#ADF0E7"/>
<path d="M845.042 675.624C843.288 675.624 841.462 675.259 839.636 674.601C830.359 671.166 828.24 659.91 826.779 652.455C825.245 644.269 824.734 635.864 824.296 627.751C824.223 625.997 824.076 624.316 824.003 622.562C823.054 607.872 822.835 592.815 823.273 576.371C823.638 562.849 824.003 557.587 825.318 543.847C820.059 545.235 814.361 543.92 811.95 543.189C811.95 544.431 811.877 546.624 811.585 550.571C811.512 551.155 811.512 551.521 811.512 551.594L811.439 552.69C811.22 559.707 811.001 566.796 810.708 573.813C810.27 586.238 809.905 598.662 809.467 611.087L809.394 613.207C808.882 629.432 808.371 644.781 802.016 659.91C799.313 666.415 793.25 674.089 785.068 674.528C774.476 675.039 768.048 666.196 765.929 648.143C764.468 635.718 764.176 622.855 763.811 610.503C763.738 606.848 763.592 603.121 763.446 599.466C762.934 584.483 762.496 566.796 763.226 548.524C763.373 545.016 763.592 541.435 763.811 537.926C764.614 525.575 765.856 513.003 767.463 500.725C770.312 479.675 774.622 458.626 780.101 438.308C786.967 412.8 795.733 388.754 805.96 366.682C809.247 359.592 812.462 353.307 815.676 347.533C820.57 338.689 823.2 329.334 825.976 319.394C826.633 317.055 827.291 314.716 828.021 312.377C828.094 312.085 828.386 311.866 828.679 311.866C828.971 311.866 829.263 312.012 829.409 312.231L843.361 338.981C862.793 336.277 878.644 347.46 881.639 349.725L899.025 334.011C899.317 333.719 899.756 333.792 900.048 334.084C900.267 334.304 900.267 334.669 900.121 334.962C899.975 335.765 900.486 340.224 900.778 342.563C901.07 344.682 901.217 345.998 901.217 346.509C901.143 350.31 900.851 354.184 900.121 358.35C898.952 365.366 896.834 372.894 893.4 382.03C891.428 387.292 889.236 392.628 887.118 397.744C883.1 407.465 878.936 417.478 876.234 427.856C873.458 438.454 871.339 450.148 869.513 464.692C869.44 465.277 869.367 465.862 869.294 466.447C868.344 474.121 867.687 481.649 867.176 489.615C866.153 506.206 866.153 522.14 866.153 538.95C866.153 543.92 866.153 548.963 866.153 554.152C866.153 562.484 866.226 570.743 866.372 579.513C866.737 600.563 867.102 622.27 864.984 645.804C864.327 652.894 860.82 667.877 852.054 673.431C849.863 674.966 847.525 675.624 845.042 675.624ZM826.122 542.092C826.268 542.092 826.414 542.166 826.56 542.239C826.779 542.385 826.852 542.604 826.852 542.896C825.464 557.368 825.099 562.557 824.734 576.444C824.296 592.815 824.515 607.872 825.464 622.489C825.611 624.243 825.684 625.997 825.757 627.678C826.268 635.791 826.706 644.123 828.24 652.236C829.555 659.325 831.601 670.142 840.147 673.212C844.238 674.674 847.964 674.382 851.251 672.335C858.921 667.438 862.793 653.844 863.523 645.804C865.642 622.343 865.276 600.636 864.911 579.66C864.765 570.889 864.619 562.63 864.692 554.298C864.692 549.109 864.692 544.066 864.692 539.096C864.692 522.213 864.692 506.279 865.715 489.615C866.226 481.649 866.883 474.048 867.833 466.373C867.906 465.789 867.979 465.204 868.052 464.619C869.878 450.075 871.997 438.308 874.773 427.637C877.476 417.185 881.712 407.099 885.73 397.379C887.849 392.262 890.04 387 892.012 381.738C895.373 372.675 897.491 365.293 898.66 358.35C899.317 354.257 899.683 350.456 899.756 346.729C899.756 346.29 899.536 344.682 899.39 343.001C899.025 339.785 898.806 337.812 898.733 336.569L882.224 351.479C881.932 351.699 881.566 351.699 881.274 351.479C881.128 351.333 864.181 337.52 843.142 340.735C842.85 340.809 842.558 340.662 842.412 340.37L829.044 314.789C828.533 316.543 828.021 318.298 827.583 320.052C824.88 329.626 822.104 339.493 817.137 348.483C813.923 354.257 810.782 360.469 807.494 367.559C797.267 389.558 788.575 413.531 781.708 438.966C776.229 459.211 771.992 480.187 769.143 501.163C767.463 513.369 766.221 525.867 765.491 538.219C765.272 541.727 765.126 545.235 764.98 548.743C764.249 566.942 764.687 584.63 765.199 599.54C765.345 603.194 765.418 606.921 765.564 610.576C765.929 622.928 766.295 635.718 767.682 648.143C769.655 665.319 775.572 673.724 785.287 673.285C789.962 673.066 796.902 669.338 800.92 659.545C807.129 644.708 807.64 629.432 808.152 613.353L808.225 611.234C808.663 598.809 809.101 586.384 809.467 573.959C809.686 566.942 809.978 559.853 810.197 552.836L810.27 551.74C810.27 551.594 810.27 551.228 810.343 550.644C810.708 546.039 810.782 543.335 810.708 542.677C810.562 542.458 810.562 542.239 810.635 542.019C810.782 541.654 811.22 541.435 811.585 541.581C811.877 541.654 819.84 544.431 826.195 542.239C825.976 542.092 826.049 542.092 826.122 542.092Z" fill="#2E1E00"/>
<path d="M768.259 500.944C766.579 513.296 765.337 525.648 764.607 538.073C761.612 536.026 758.69 533.468 756.571 531.86C751.75 528.206 747.221 524.113 743.057 519.728C734.876 511.103 728.009 501.236 723.042 490.493C713.034 468.859 710.624 443.643 717.271 420.767C718.732 415.651 720.85 410.388 725.16 407.172C729.397 403.957 736.41 403.81 739.478 408.123C741.742 411.265 741.304 415.578 740.72 419.451C738.674 432.753 738.674 443.789 740.501 457.165C742.911 474.998 754.234 490.712 768.259 500.944Z" fill="#ADF0E7"/>
<path d="M764.532 538.804C764.386 538.804 764.24 538.731 764.094 538.657C762.048 537.269 760.076 535.661 758.323 534.272C757.519 533.614 756.716 532.957 756.058 532.445C751.237 528.718 746.635 524.625 742.471 520.239C734.071 511.396 727.277 501.529 722.31 490.785C712.083 468.712 709.964 443.132 716.539 420.548C717.927 415.87 720.045 410.023 724.647 406.515C727.204 404.541 730.783 403.664 733.998 404.176C736.554 404.541 738.673 405.784 739.988 407.684C742.471 411.119 741.96 415.578 741.376 419.597C739.403 432.461 739.33 443.278 741.156 457.091C743.348 473.244 753.575 489.396 768.55 500.359C768.769 500.506 768.915 500.798 768.842 501.017C767.162 513.223 765.92 525.721 765.19 538.073C765.19 538.365 765.043 538.584 764.751 538.657C764.751 538.731 764.678 538.804 764.532 538.804ZM732.317 405.565C729.907 405.565 727.496 406.368 725.597 407.757C721.287 410.973 719.242 416.528 718 420.986C711.571 443.205 713.617 468.42 723.698 490.2C728.592 500.798 735.312 510.519 743.567 519.216C747.658 523.528 752.187 527.621 757.008 531.276C757.665 531.787 758.469 532.445 759.346 533.103C760.734 534.272 762.341 535.515 763.948 536.684C764.751 524.844 765.92 512.931 767.527 501.236C752.187 489.908 742.106 473.902 739.841 457.238C737.942 443.278 738.015 432.315 740.061 419.305C740.645 415.651 741.083 411.485 738.892 408.488C737.431 406.515 735.385 405.784 733.851 405.565C733.34 405.565 732.829 405.565 732.317 405.565Z" fill="#2E1E00"/>
<path d="M928.605 466.374V495.243L866.367 489.689C866.805 482.234 867.536 474.559 868.485 466.447C868.558 465.862 868.631 465.277 868.705 464.693L928.605 466.374Z" fill="#ADF0E7"/>
<path d="M928.605 495.974C928.605 495.974 928.532 495.974 928.605 495.974L866.294 490.419C865.929 490.419 865.637 490.054 865.637 489.616C866.148 481.649 866.806 474.048 867.755 466.374C867.828 465.789 867.901 465.204 867.974 464.619C868.047 464.254 868.34 463.962 868.705 463.962L928.532 465.57C928.897 465.57 929.263 465.935 929.263 466.3V495.17C929.263 495.389 929.19 495.536 929.044 495.682C928.97 495.901 928.824 495.974 928.605 495.974ZM867.171 489.031L927.875 494.439V467.031L869.362 465.423C869.289 465.789 869.289 466.154 869.216 466.52C868.34 473.975 867.682 481.357 867.171 489.031Z" fill="#2E1E00"/>
<path d="M1126.8 539.388C1130.81 602.975 1131.03 673.578 1112.33 674.893C1078.29 677.305 1085.45 542.312 1085.45 542.312C1081.07 544.504 1071.5 543.116 1071.5 543.116L1070.91 608.31C1070.91 608.31 1077.27 677.67 1048.27 677.086C1023.87 676.574 1028.47 598.882 1030.52 574.397C1030.88 569.793 1031.17 567.089 1031.17 567.089C1034.68 525.721 1030.74 486.984 1024.6 454.826C1014.45 401.983 998.083 366.828 998.083 366.828V332.915L1016.42 351.918C1024.45 340.37 1036.8 338.251 1036.8 338.251C1032.85 329.992 1034.02 317.859 1039.06 310.331C1047.17 298.345 1062.29 305.58 1072.3 311.208C1080.92 316.105 1089.18 321.806 1096.99 327.872C1109.56 337.593 1125.04 350.749 1128.99 366.974C1136.29 397.159 1117.66 439.55 1117.66 439.55C1117.66 439.55 1121.24 468.639 1124.39 506.426C1125.26 516.877 1126.07 527.987 1126.8 539.388Z" fill="#FA6456"/>
<path d="M1048.71 677.817C1048.56 677.817 1048.49 677.817 1048.34 677.817C1044.98 677.744 1041.91 676.282 1039.43 673.431C1024.67 657.06 1027.81 598.663 1029.86 574.324C1030.22 569.793 1030.52 567.016 1030.52 567.016C1033.51 531.129 1031.32 493.416 1023.94 454.972C1013.93 402.787 997.645 367.486 997.499 367.12C997.426 367.047 997.426 366.901 997.426 366.828V332.915C997.426 332.623 997.572 332.33 997.864 332.257C998.156 332.111 998.448 332.184 998.668 332.404L1016.42 350.822C1023.29 341.393 1032.85 338.47 1035.85 337.739C1032.27 329.407 1033.37 317.64 1038.55 309.966C1047.76 296.444 1065.87 306.75 1072.74 310.623C1080.7 315.155 1089.03 320.783 1097.5 327.287C1112.04 338.543 1125.92 351.114 1129.72 366.828C1133.52 382.615 1130.23 401.618 1126.8 414.774C1123.36 428.002 1119.05 438.162 1118.47 439.623C1118.76 442.255 1122.19 470.613 1125.19 506.28C1126.14 517.681 1126.94 528.791 1127.6 539.242C1133.22 628.555 1128.11 674.455 1112.48 675.551C1108.61 675.843 1105.1 674.382 1101.96 671.385C1092.46 662.03 1086.69 637.472 1084.79 598.297C1083.55 572.643 1084.5 548.817 1084.72 543.335C1080.78 544.651 1074.57 544.139 1072.3 543.847L1071.72 608.164C1071.94 610.576 1075.88 656.256 1060.98 672.262C1057.55 675.989 1053.45 677.817 1048.71 677.817ZM998.887 366.609C1004.58 378.96 1017.37 412.946 1025.4 454.679C1032.85 493.27 1035.05 531.129 1032.05 567.162C1032.05 567.235 1031.76 569.939 1031.39 574.47C1030.52 584.922 1029.13 605.533 1029.86 625.413C1030.74 649.678 1034.32 665.538 1040.6 672.481C1042.86 675.039 1045.49 676.282 1048.49 676.355C1052.94 676.428 1056.81 674.747 1060.03 671.385C1066.02 664.953 1069.74 652.017 1070.69 634.037C1071.42 620.37 1070.4 608.456 1070.4 608.383V608.31L1070.99 543.116C1070.99 542.896 1071.06 542.677 1071.21 542.531C1071.35 542.385 1071.57 542.312 1071.79 542.385C1071.86 542.385 1081.14 543.7 1085.3 541.654C1085.52 541.508 1085.82 541.581 1086.03 541.727C1086.25 541.873 1086.4 542.093 1086.4 542.385C1086.33 543.481 1081.07 648.801 1103.13 670.435C1105.9 673.212 1109.05 674.455 1112.48 674.235C1122.56 673.505 1133.15 649.532 1126.21 539.461C1125.55 528.937 1124.75 517.9 1123.8 506.499C1120.73 469.224 1117.08 439.989 1117.08 439.696C1117.08 439.55 1117.08 439.404 1117.15 439.331C1117.37 438.893 1135.56 396.867 1128.4 367.193C1124.68 351.918 1110.29 339.055 1096.7 328.457C1088.3 321.952 1080.04 316.324 1072.16 311.866C1061.05 305.58 1047.39 299.733 1039.94 310.77C1034.9 318.151 1033.95 330.138 1037.75 337.958C1037.82 338.177 1037.82 338.397 1037.75 338.616C1037.68 338.835 1037.46 338.981 1037.24 338.981C1037.09 338.981 1025.11 341.174 1017.37 352.357C1017.22 352.503 1017.08 352.649 1016.86 352.649C1016.64 352.649 1016.42 352.576 1016.27 352.43L999.179 334.742V366.609H998.887Z" fill="#2E1E00"/>
<path d="M1031.24 567.089C1031.24 567.089 1030.95 569.793 1030.59 574.397C1026.2 576.151 1021.31 575.64 1016.49 570.304C1003.56 556.198 1018.46 482.526 1024.67 454.826C1030.81 486.984 1034.75 525.721 1031.24 567.089Z" fill="#FA6456"/>
<path d="M1026.05 576.078C1022.47 576.078 1019.04 574.324 1015.83 570.816C1002.82 556.637 1017.14 484.865 1023.86 454.679C1023.93 454.314 1024.23 454.095 1024.59 454.095C1024.96 454.095 1025.25 454.314 1025.32 454.679C1032.77 493.27 1034.97 531.129 1031.97 567.162C1031.97 567.162 1031.68 569.939 1031.31 574.47C1031.31 574.763 1031.09 574.982 1030.87 575.055C1029.19 575.713 1027.66 576.078 1026.05 576.078ZM1024.59 458.48C1018.75 485.23 1004.65 556.418 1016.99 569.866C1021.01 574.251 1025.32 575.567 1029.92 573.886C1030.29 569.72 1030.58 567.235 1030.58 567.015C1033.43 532.226 1031.46 495.682 1024.59 458.48Z" fill="#2E1E00"/>
<path d="M1126.79 539.388C1126.06 528.06 1125.26 516.877 1124.38 506.426C1133.66 501.821 1148.85 492.466 1154.91 478.287C1159 468.785 1158.27 457.53 1157.47 447.517C1156.74 438.673 1149.87 419.89 1158.93 413.531C1162.36 411.119 1167.19 411.558 1170.62 413.823C1177.05 418.062 1181.94 437.211 1183.26 444.228C1187.35 466.3 1184.57 520.751 1126.79 539.388Z" fill="#FA6456"/>
<path d="M1126.79 540.119C1126.64 540.119 1126.5 540.046 1126.35 539.973C1126.13 539.827 1126.06 539.608 1126.06 539.388C1125.4 528.864 1124.6 517.827 1123.65 506.426C1123.65 506.133 1123.79 505.841 1124.09 505.695C1132.78 501.383 1148.19 492.027 1154.26 477.921C1158.42 468.201 1157.47 456.214 1156.74 447.517C1156.59 445.47 1156.01 442.766 1155.5 439.916C1153.6 430.122 1151.19 417.989 1158.49 412.873C1162 410.461 1167.11 410.534 1171.06 413.166C1177.78 417.624 1182.67 436.992 1183.99 444.009C1186.25 455.995 1186.03 475.29 1178.95 493.27C1169.89 516.073 1152.43 531.787 1127.01 539.973C1126.94 540.119 1126.86 540.119 1126.79 540.119ZM1125.18 506.864C1126.06 517.754 1126.86 528.352 1127.52 538.438C1151.99 530.325 1168.87 514.977 1177.63 492.904C1184.64 475.144 1184.79 456.214 1182.6 444.447C1181.43 438.015 1176.54 418.72 1170.25 414.554C1166.82 412.288 1162.36 412.142 1159.37 414.262C1152.8 418.793 1155.13 430.487 1156.96 439.843C1157.54 442.766 1158.05 445.47 1158.2 447.59C1158.93 456.507 1159.95 468.639 1155.57 478.725C1149.43 492.831 1134.09 502.333 1125.18 506.864Z" fill="#2E1E00"/>
<path d="M1542.29 471.051L1545.36 789.349H1459.31V666.854C1459.31 666.854 1387.43 616.642 1400.28 585.653C1413.14 554.737 1459.31 615.4 1459.31 615.4C1458.8 591.719 1459.24 567.966 1459.97 544.285C1461.28 503.283 1463.25 461.33 1472.31 421.205C1475.38 407.392 1478.08 389.777 1489.84 380.276C1509.42 364.416 1527.76 387.877 1532.43 405.345C1534.26 412.142 1535.21 419.159 1535.79 426.175C1535.79 426.175 1548.79 404.76 1564.72 411.923C1580.64 419.086 1575.31 448.028 1542.29 471.051Z" fill="#50C56E"/>
<path d="M1545.36 790.08H1459.31C1458.87 790.08 1458.58 789.787 1458.58 789.349V667.219C1456.09 665.465 1439.51 653.478 1424.46 638.349C1402.55 616.35 1394.15 598.516 1399.62 585.361C1402.84 577.613 1408.39 574.69 1416.06 576.736C1423.8 578.783 1433.52 585.872 1444.99 597.712C1449.44 602.317 1453.24 606.702 1455.65 609.626C1456.97 611.161 1457.92 612.33 1458.5 613.134C1458.14 592.45 1458.36 570.451 1459.23 544.212C1460.62 502.113 1462.59 461.038 1471.58 420.986C1471.87 419.597 1472.24 418.136 1472.53 416.674C1475.38 403.372 1478.66 388.316 1489.33 379.691C1495.68 374.575 1502.33 373.04 1509.05 375.233C1520.59 378.96 1529.87 393.066 1533.09 405.126C1534.62 410.681 1535.64 416.893 1536.3 423.983C1537.69 422.009 1540.32 418.72 1543.75 415.724C1550.84 409.657 1558.14 408.122 1564.94 411.192C1570.12 413.531 1573.34 418.282 1573.92 424.421C1574.94 435.384 1567.42 454.168 1542.95 471.344L1546.02 789.276C1546.02 789.495 1545.94 789.641 1545.8 789.787C1545.72 790.006 1545.5 790.08 1545.36 790.08ZM1460.04 788.618H1544.63L1541.56 471.051C1541.56 470.832 1541.71 470.613 1541.85 470.466C1556.97 459.942 1574.07 441.597 1572.53 424.64C1572.02 418.94 1569.17 414.773 1564.42 412.581C1558.14 409.73 1551.49 411.192 1544.77 416.893C1539.66 421.205 1536.45 426.541 1536.45 426.541C1536.3 426.833 1535.93 426.979 1535.64 426.906C1535.35 426.833 1535.13 426.541 1535.06 426.248C1534.4 418.355 1533.31 411.631 1531.7 405.564C1527.53 390.216 1516.94 379.399 1508.61 376.695C1502.41 374.648 1496.2 376.11 1490.28 380.934C1479.98 389.266 1476.76 404.103 1473.99 417.112C1473.7 418.574 1473.33 420.036 1473.04 421.424C1464.13 461.33 1462.08 502.333 1460.77 544.358C1459.89 571.547 1459.67 594.131 1460.11 615.4C1460.11 615.473 1460.11 615.473 1460.11 615.546C1460.04 615.911 1459.74 616.204 1459.38 616.131C1459.16 616.131 1458.94 615.984 1458.87 615.838C1458.65 615.546 1450.98 605.533 1441.04 595.739C1428.11 583.022 1417.45 576.736 1410.22 577.686C1406.2 578.198 1403.13 580.975 1401.09 585.945C1397.51 594.57 1398.89 610.503 1425.63 637.326C1441.77 653.551 1459.67 666.123 1459.89 666.269C1460.11 666.415 1460.18 666.634 1460.18 666.853V788.618H1460.04Z" fill="#2E1E00"/>
<path d="M292.712 514.027V404.834C292.712 404.834 250.708 375.087 263.492 361.346C276.276 347.606 292.712 369.532 292.712 369.532C292.712 369.532 289.059 298.783 323.246 301.049C357.433 303.315 348.813 388.243 348.813 388.243C348.813 388.243 369.34 343.951 385.776 355.353C402.213 366.755 348.302 455.337 348.302 455.337V514.027H292.712Z" fill="#50C56E"/>
<path d="M348.306 514.758H292.643C292.204 514.758 291.912 514.465 291.912 514.027V405.126C288.552 402.714 261.816 383.053 260.355 368.655C260.063 365.585 260.866 362.954 262.912 360.762C266.053 357.4 269.632 355.865 273.65 356.011C281.612 356.449 288.917 363.831 291.839 367.266C291.62 357.838 291.62 321.221 306.668 306.384C311.197 301.853 316.822 299.806 323.25 300.245C328.802 300.61 333.623 303.168 337.568 307.773C345.019 316.617 349.329 332.842 350.279 356.011C350.79 367.997 350.206 378.814 349.84 384.296C354.077 376.11 365.327 356.157 376.942 353.014C380.229 352.137 383.37 352.649 386.146 354.622C393.305 359.592 389.141 378.157 373.874 409.804C363.135 432.022 350.352 453.218 349.11 455.41V513.881C349.037 514.465 348.745 514.758 348.306 514.758ZM293.446 513.296H347.649V455.337C347.649 455.191 347.722 455.045 347.722 454.972C347.868 454.753 361.309 432.607 372.559 409.365C391.186 370.921 389.798 359.154 385.342 356.011C382.859 354.33 380.229 353.818 377.307 354.622C363.574 358.35 349.548 388.243 349.475 388.535C349.329 388.827 348.964 389.047 348.599 388.9C348.233 388.827 348.014 388.462 348.087 388.096C348.16 387.512 353.858 329.334 336.545 308.796C332.893 304.484 328.437 302.072 323.25 301.78C317.26 301.414 312.074 303.315 307.837 307.481C299.217 315.959 295.784 332.33 294.396 344.536C292.862 357.838 293.446 369.313 293.446 369.459C293.446 369.751 293.3 370.044 292.935 370.19C292.643 370.263 292.278 370.19 292.131 369.971C292.058 369.825 283.073 358.057 273.577 357.546C270.071 357.326 266.783 358.788 264.007 361.785C262.254 363.612 261.597 365.805 261.816 368.509C263.277 382.834 292.789 403.957 293.081 404.176C293.3 404.322 293.373 404.541 293.373 404.76V513.296H293.446Z" fill="#2E1E00"/>
<path d="M1565.23 240.971C1565.09 240.971 1564.94 240.898 1564.87 240.824C1542.37 226.499 1517.82 212.32 1489.99 197.483C1454.93 178.773 1417.38 159.405 1377.93 146.176C1335.05 131.777 1295.53 126.807 1257.11 130.9C1173.03 139.817 1095.96 181.696 1028.03 218.606C1027.66 218.825 1027.22 218.679 1027.01 218.313C1026.79 217.948 1026.93 217.509 1027.3 217.29C1095.38 180.308 1172.52 138.428 1256.89 129.439C1295.53 125.346 1335.27 130.389 1378.37 144.787C1417.89 158.016 1455.51 177.457 1490.65 196.168C1518.55 211.078 1543.1 225.257 1565.67 239.582C1566.04 239.801 1566.11 240.24 1565.89 240.605C1565.74 240.824 1565.52 240.971 1565.23 240.971Z" fill="#2E1E00"/>
<path d="M1027.67 217.948C1001.66 232.054 972.661 248.426 939.789 267.501C912.176 249.449 884.198 232.054 855.636 215.463C867.762 199.091 890.261 178.334 921.965 170.879C968.205 160.135 1010.5 190.028 1027.67 217.948Z" fill="#FFDC38"/>
<path d="M939.788 268.232C939.642 268.232 939.496 268.159 939.423 268.086C909.546 248.572 882.006 231.542 855.343 216.048C855.197 215.975 855.051 215.755 854.978 215.536C854.905 215.317 854.978 215.097 855.124 214.951C863.013 204.28 885.293 178.627 921.891 170.148C948.554 163.936 971.492 171.61 986.101 179.211C1003.56 188.274 1018.97 202.234 1028.32 217.509C1028.4 217.656 1028.47 217.875 1028.4 218.094C1028.32 218.313 1028.25 218.46 1028.03 218.533C1002.68 232.346 973.902 248.572 940.153 268.086C940.08 268.232 939.934 268.232 939.788 268.232ZM856.731 215.317C883.102 230.665 910.349 247.475 939.788 266.697C973.026 247.402 1001.44 231.323 1026.57 217.729C1017.29 202.965 1002.32 189.444 985.298 180.673C970.98 173.218 948.335 165.617 922.11 171.756C886.827 179.942 864.913 204.427 856.731 215.317Z" fill="#2E1E00"/>
<path d="M928.603 417.405L909.318 509.934L961.402 529.156L1007.86 450.806L928.603 417.405Z" fill="#FEFFFA"/>
<path d="M961.4 529.887C961.327 529.887 961.254 529.887 961.181 529.814L909.097 510.592C908.732 510.445 908.586 510.08 908.659 509.788L927.944 417.258C928.017 417.039 928.09 416.893 928.309 416.747C928.528 416.674 928.747 416.601 928.967 416.747L1008.22 450.075C1008.44 450.148 1008.59 450.294 1008.66 450.513C1008.74 450.733 1008.74 450.952 1008.59 451.098L962.058 529.594C961.912 529.814 961.693 529.887 961.4 529.887ZM910.12 509.495L961.035 528.352L1006.76 451.171L929.113 418.501L910.12 509.495Z" fill="#2E1E00"/>
<path d="M823.856 432.534C847.962 435.165 872.068 437.796 896.175 440.427C911.004 442.035 925.906 442.766 940.662 444.52C945.629 445.105 951.181 445.836 955.564 448.467C960.239 451.317 962.138 456.141 961.262 461.477C957.755 482.234 915.314 477.337 823.856 468.493" fill="#ADF0E7"/>
<path d="M922.988 476.825C902.315 476.825 872.949 473.975 833.868 470.174L823.714 469.224C823.348 469.151 822.983 468.859 823.056 468.42C823.129 467.981 823.422 467.689 823.86 467.762L834.014 468.712C876.455 472.805 907.136 475.802 927.955 475.29C949.212 474.779 958.928 470.54 960.462 461.33C961.339 456.141 959.366 451.683 955.129 449.052C951.039 446.567 945.852 445.836 940.52 445.178C932.849 444.301 924.96 443.643 917.436 443.059C910.423 442.474 903.191 441.889 896.032 441.158L823.714 433.265C823.348 433.192 823.056 432.826 823.056 432.461C823.129 432.095 823.495 431.803 823.86 431.803L896.179 439.696C903.264 440.5 910.496 441.085 917.509 441.597C925.106 442.181 932.922 442.839 940.666 443.716C946.217 444.374 951.55 445.105 955.86 447.736C960.681 450.66 962.873 455.63 961.85 461.477C960.024 472.805 947.605 476.825 922.988 476.825Z" fill="#2E1E00"/>
<path d="M857.892 430.78C841.383 430.78 826.846 425.152 816.619 419.597C801.644 411.485 792.221 401.837 792.075 401.764C791.782 401.472 791.782 401.033 792.075 400.741C792.367 400.448 792.805 400.448 793.097 400.741C793.17 400.814 802.521 410.388 817.277 418.355C830.864 425.664 851.902 433.192 875.205 427.125C875.57 427.052 876.008 427.271 876.081 427.637C876.154 428.002 875.935 428.441 875.57 428.514C869.58 430.122 863.59 430.78 857.892 430.78Z" fill="#FEFFFA"/>
<path d="M1033.94 443.278C1026.71 443.278 1021.96 442.547 1021.81 442.547C1021.45 442.474 1021.16 442.108 1021.23 441.743C1021.3 441.377 1021.67 441.085 1022.03 441.158C1022.4 441.231 1060.53 447.005 1086.68 424.933C1086.97 424.64 1087.49 424.713 1087.7 425.006C1088 425.298 1087.92 425.81 1087.63 426.029C1070.25 440.647 1047.6 443.278 1033.94 443.278Z" fill="#FEFFFA"/>
<path d="M1083.54 445.105C1083.47 445.105 1083.4 445.105 1083.4 445.105C1083.03 445.032 1082.74 444.593 1082.89 444.228L1083.4 442.108C1086.39 429.537 1088.95 418.428 1091.21 408.269C1092.67 401.545 1093.99 395.478 1095.16 389.704C1095.3 389.12 1095.38 388.535 1095.52 388.023C1096.18 385.027 1096.76 382.469 1095.67 379.545C1094.43 376.256 1091.87 373.479 1089.39 370.848L1088.73 370.117C1083.98 365.001 1079.01 360.396 1074.34 356.084C1067.62 350.018 1060.9 344.244 1054.4 338.908H1036.94C1036.5 338.908 1036.21 338.616 1036.21 338.177C1036.21 337.739 1036.5 337.447 1036.94 337.447H1054.69C1054.83 337.447 1055.05 337.52 1055.13 337.593C1061.7 343.001 1068.49 348.848 1075.36 354.988C1080.11 359.3 1085.08 363.977 1089.9 369.094L1090.56 369.824C1093.11 372.602 1095.74 375.379 1097.13 378.96C1098.37 382.249 1097.71 385.173 1097.06 388.316C1096.91 388.827 1096.84 389.412 1096.69 389.997C1095.52 395.771 1094.21 401.837 1092.75 408.561C1090.48 418.793 1087.93 429.903 1084.93 442.474L1084.42 444.593C1084.13 444.886 1083.84 445.105 1083.54 445.105Z" fill="#2E1E00"/>
<path d="M1006.05 372.878C1009.49 368.345 1010.5 363.325 1008.32 361.665C1006.13 360.006 1001.57 362.335 998.134 366.869C994.694 371.402 993.678 376.422 995.863 378.082C998.048 379.741 1002.61 377.412 1006.05 372.878Z" fill="#2E1E00"/>
<path d="M1048.26 364.449C1049.4 361.953 1046.13 358.009 1040.96 355.64C1035.79 353.27 1030.67 353.373 1029.53 355.868C1028.39 358.364 1031.65 362.308 1036.83 364.677C1042 367.046 1047.12 366.944 1048.26 364.449Z" fill="#2E1E00"/>
<path d="M1074.7 355.572L1062.13 374.137L1089.16 369.605L1074.7 355.572Z" fill="#2E1E00"/>
<path d="M1062.14 374.868C1061.92 374.868 1061.62 374.721 1061.55 374.502C1061.4 374.283 1061.4 373.917 1061.55 373.698L1074.12 355.207C1074.26 355.061 1074.41 354.915 1074.63 354.915C1074.85 354.915 1075.07 354.988 1075.21 355.134L1089.68 369.167C1089.89 369.386 1089.97 369.678 1089.89 369.898C1089.82 370.117 1089.6 370.336 1089.31 370.409L1062.28 374.868C1062.21 374.868 1062.21 374.868 1062.14 374.868ZM1074.85 356.742L1063.74 373.113L1087.7 369.167L1074.85 356.742Z" fill="#2E1E00"/>
<path d="M1094.28 375.598L1077.41 388.535L1095.82 389.851L1096.91 382.761L1094.28 375.598Z" fill="#2E1E00"/>
<path d="M1095.82 390.581C1095.82 390.581 1095.74 390.581 1095.82 390.581L1077.34 389.266C1077.04 389.266 1076.75 389.047 1076.68 388.754C1076.61 388.462 1076.68 388.169 1076.97 387.95L1093.92 375.014C1094.14 374.868 1094.36 374.794 1094.58 374.868C1094.79 374.941 1094.94 375.087 1095.09 375.306L1097.72 382.396C1097.79 382.542 1097.79 382.615 1097.72 382.761L1096.62 389.851C1096.47 390.362 1096.18 390.581 1095.82 390.581ZM1079.38 387.95L1095.23 389.12L1096.26 382.834L1094.06 376.841L1079.38 387.95Z" fill="#2E1E00"/>
<path d="M1060.1 536.392C1060.1 536.392 1064.85 542.677 1071.49 543.116L1060.1 536.392Z" fill="#2E1E00"/>
<path d="M1071.57 543.847C1071.57 543.847 1071.5 543.847 1071.57 543.847C1064.56 543.408 1059.73 537.123 1059.59 536.83C1059.37 536.538 1059.44 536.026 1059.73 535.807C1060.03 535.588 1060.54 535.661 1060.76 535.953C1060.83 536.026 1065.36 542.019 1071.64 542.385C1072.08 542.385 1072.37 542.75 1072.3 543.189C1072.23 543.554 1071.93 543.847 1071.57 543.847Z" fill="#2E1E00"/>
<path d="M826.12 542.823C826.12 542.823 831.306 541.508 833.717 536.392L826.12 542.823Z" fill="#2E1E00"/>
<path d="M826.116 543.554C825.823 543.554 825.531 543.335 825.385 543.043C825.312 542.677 825.531 542.239 825.896 542.166C825.969 542.166 830.791 540.85 832.982 536.099C833.128 535.734 833.567 535.588 833.932 535.734C834.297 535.88 834.443 536.319 834.297 536.684C831.74 542.093 826.481 543.481 826.262 543.554C826.262 543.554 826.189 543.554 826.116 543.554Z" fill="#2E1E00"/>
<path d="M486.36 514.758C486.068 514.758 485.849 514.612 485.703 514.392C485.483 513.954 465.03 474.048 441.508 474.048C417.986 474.048 394.464 514.027 394.245 514.465C394.026 514.831 393.587 514.904 393.222 514.758C392.857 514.538 392.784 514.1 392.93 513.734C393.003 513.661 398.993 503.356 407.832 493.27C419.812 479.603 431.135 472.659 441.435 472.659C451.735 472.659 462.473 479.603 473.503 493.27C481.612 503.429 486.871 513.661 486.944 513.808C487.09 514.173 487.017 514.612 486.652 514.758C486.579 514.758 486.506 514.758 486.36 514.758Z" fill="#2E1E00"/>
<path d="M333.037 320.563C332.891 320.563 332.672 320.49 332.599 320.417C332.307 320.125 332.234 319.686 332.526 319.394L348.305 300.61C348.597 300.318 349.035 300.245 349.327 300.537C349.619 300.83 349.692 301.268 349.4 301.56L333.622 320.344C333.475 320.49 333.256 320.563 333.037 320.563Z" fill="#2E1E00"/>
<path d="M313.599 313.474C313.307 313.474 313.014 313.254 312.941 312.962L304.468 289.793C304.322 289.428 304.541 288.989 304.906 288.843C305.271 288.697 305.709 288.916 305.856 289.282L314.329 312.45C314.475 312.816 314.256 313.254 313.891 313.401C313.818 313.474 313.745 313.474 313.599 313.474Z" fill="#2E1E00"/>
<path d="M269.996 361.858C269.558 361.858 269.266 361.566 269.266 361.127V345.34C269.266 344.901 269.558 344.609 269.996 344.609C270.434 344.609 270.727 344.901 270.727 345.34V361.127C270.727 361.566 270.434 361.858 269.996 361.858Z" fill="#2E1E00"/>
<path d="M317.255 372.163C317.036 372.163 316.89 372.09 316.744 371.944L304.618 359.811C304.325 359.519 304.325 359.081 304.618 358.788C304.91 358.496 305.348 358.496 305.64 358.788L317.766 370.921C318.059 371.213 318.059 371.652 317.766 371.944C317.62 372.09 317.474 372.163 317.255 372.163Z" fill="#2E1E00"/>
<path d="M377.3 376.402C376.935 376.402 376.643 376.183 376.57 375.818C376.497 375.452 376.789 375.014 377.154 374.941L401.407 370.702C401.772 370.628 402.21 370.921 402.283 371.286C402.356 371.652 402.064 372.09 401.699 372.163L377.446 376.402C377.373 376.402 377.3 376.402 377.3 376.402Z" fill="#2E1E00"/>
<path d="M333.032 413.97C332.886 413.97 332.74 413.896 332.667 413.823C332.301 413.604 332.228 413.166 332.447 412.8L340.337 400.741C340.556 400.375 340.994 400.302 341.36 400.521C341.725 400.741 341.798 401.179 341.579 401.545L333.616 413.677C333.47 413.896 333.251 413.97 333.032 413.97Z" fill="#2E1E00"/>
<path d="M297.9 444.886C297.681 444.886 297.535 444.813 297.389 444.667L282.852 430.561C282.56 430.268 282.56 429.83 282.852 429.537C283.144 429.245 283.582 429.245 283.875 429.537L298.411 443.643C298.704 443.936 298.704 444.374 298.411 444.667C298.265 444.813 298.046 444.886 297.9 444.886Z" fill="#2E1E00"/>
<path d="M324.999 474.048C324.634 474.048 324.342 473.829 324.269 473.463L320.178 454.46C320.105 454.095 320.324 453.656 320.762 453.583C321.128 453.51 321.566 453.729 321.639 454.168L325.73 473.171C325.803 473.536 325.584 473.975 325.145 474.048C325.072 474.048 324.999 474.048 324.999 474.048Z" fill="#2E1E00"/>
<path d="M261.08 389.12C260.788 389.12 260.496 388.9 260.35 388.608C260.277 388.243 260.496 387.804 260.861 387.731L278.247 382.907C278.612 382.834 279.051 383.053 279.124 383.419C279.197 383.784 278.978 384.223 278.612 384.296L261.227 389.12C261.227 389.12 261.153 389.12 261.08 389.12Z" fill="#2E1E00"/>
<path d="M329.383 349.725C329.237 349.725 329.091 349.652 329.018 349.579C328.653 349.36 328.58 348.921 328.799 348.556L336.396 337.008C336.615 336.643 337.054 336.569 337.419 336.789C337.784 337.008 337.857 337.447 337.638 337.812L330.041 349.36C329.895 349.579 329.603 349.725 329.383 349.725Z" fill="#2E1E00"/>
<path d="M377.303 416.381H360.355C359.917 416.381 359.625 416.089 359.625 415.651C359.625 415.212 359.917 414.92 360.355 414.92H377.303C377.741 414.92 378.033 415.212 378.033 415.651C378.033 416.089 377.668 416.381 377.303 416.381Z" fill="#2E1E00"/>
<path d="M301.475 498.898C301.329 498.898 301.183 498.898 301.11 498.751L282.921 487.204C282.555 486.984 282.482 486.546 282.701 486.18C282.921 485.815 283.359 485.742 283.724 485.961L301.913 497.509C302.279 497.728 302.352 498.167 302.133 498.532C301.986 498.751 301.767 498.898 301.475 498.898Z" fill="#2E1E00"/>
<path d="M340.928 494.585C340.782 494.585 340.563 494.512 340.417 494.366C340.125 494.074 340.125 493.635 340.344 493.343L353.054 479.529C353.346 479.237 353.785 479.237 354.077 479.456C354.369 479.749 354.369 480.187 354.15 480.479L341.439 494.293C341.293 494.439 341.147 494.585 340.928 494.585Z" fill="#2E1E00"/>
<path d="M1563.55 429.83C1563.33 429.83 1563.04 429.683 1562.89 429.464C1562.68 429.099 1562.82 428.66 1563.11 428.441L1580.21 417.989C1580.57 417.77 1581.01 417.916 1581.23 418.209C1581.45 418.574 1581.3 419.013 1581.01 419.232L1563.92 429.683C1563.77 429.757 1563.63 429.83 1563.55 429.83Z" fill="#2E1E00"/>
<path d="M1536.74 557.441C1536.52 557.441 1536.38 557.368 1536.23 557.222C1535.94 556.929 1535.94 556.491 1536.23 556.198L1550.62 542.239C1550.91 541.946 1551.35 541.946 1551.64 542.239C1551.94 542.531 1551.94 542.97 1551.64 543.262L1537.25 557.222C1537.11 557.368 1536.96 557.441 1536.74 557.441Z" fill="#2E1E00"/>
<path d="M1535.43 646.462C1535.21 646.462 1534.92 646.316 1534.77 646.096C1534.55 645.731 1534.7 645.293 1534.99 645.073L1552.09 634.622C1552.45 634.402 1552.89 634.549 1553.11 634.841C1553.33 635.206 1553.18 635.645 1552.89 635.864L1535.8 646.316C1535.72 646.462 1535.58 646.462 1535.43 646.462Z" fill="#2E1E00"/>
<path d="M1535.43 730.732C1535.21 730.732 1534.92 730.586 1534.77 730.367C1534.55 730.001 1534.7 729.563 1534.99 729.344L1552.09 718.892C1552.45 718.673 1552.89 718.819 1553.11 719.111C1553.33 719.477 1553.18 719.915 1552.89 720.135L1535.8 730.586C1535.72 730.732 1535.58 730.732 1535.43 730.732Z" fill="#2E1E00"/>
<path d="M1478.08 446.713C1477.94 446.713 1477.79 446.64 1477.65 446.567L1457.12 429.683C1456.83 429.391 1456.75 428.953 1457.05 428.66C1457.34 428.368 1457.78 428.295 1458.07 428.587L1478.59 445.47C1478.89 445.763 1478.96 446.201 1478.67 446.494C1478.52 446.567 1478.3 446.713 1478.08 446.713Z" fill="#2E1E00"/>
<path d="M1467.86 503.356C1467.71 503.356 1467.56 503.283 1467.42 503.21L1446.89 486.327C1446.6 486.034 1446.53 485.596 1446.82 485.303C1447.11 485.011 1447.55 484.938 1447.84 485.23L1468.37 502.113C1468.66 502.406 1468.73 502.844 1468.44 503.137C1468.22 503.21 1468.08 503.356 1467.86 503.356Z" fill="#2E1E00"/>
<path d="M1408.98 587.919C1408.83 587.919 1408.69 587.846 1408.54 587.772L1388.01 570.889C1387.72 570.597 1387.65 570.158 1387.94 569.866C1388.23 569.574 1388.67 569.5 1388.96 569.793L1409.49 586.676C1409.78 586.969 1409.85 587.407 1409.56 587.699C1409.42 587.772 1409.2 587.919 1408.98 587.919Z" fill="#2E1E00"/>
<path d="M1465.52 579.44C1465.37 579.44 1465.23 579.367 1465.08 579.294L1444.56 562.411C1444.26 562.119 1444.19 561.68 1444.48 561.388C1444.78 561.095 1445.21 561.022 1445.51 561.315L1466.03 578.198C1466.32 578.49 1466.4 578.929 1466.11 579.221C1465.96 579.367 1465.74 579.44 1465.52 579.44Z" fill="#2E1E00"/>
<path d="M1467.86 720.281C1467.71 720.281 1467.56 720.208 1467.42 720.134L1446.89 703.251C1446.6 702.959 1446.53 702.52 1446.82 702.228C1447.11 701.936 1447.55 701.863 1447.84 702.155L1468.37 719.038C1468.66 719.33 1468.73 719.769 1468.44 720.061C1468.22 720.208 1468.08 720.281 1467.86 720.281Z" fill="#2E1E00"/>
<path d="M1509.71 389.193C1509.64 389.193 1509.49 389.193 1509.42 389.12C1509.06 388.973 1508.91 388.535 1509.06 388.169L1517.68 369.898C1517.82 369.532 1518.26 369.386 1518.63 369.532C1518.99 369.678 1519.14 370.117 1518.99 370.482L1510.37 388.754C1510.22 388.973 1510.01 389.193 1509.71 389.193Z" fill="#2E1E00"/>
<path d="M1507.6 601.221C1507.52 601.221 1507.38 601.221 1507.3 601.148C1506.94 601.001 1506.79 600.563 1506.94 600.197L1515.56 581.925C1515.7 581.56 1516.14 581.414 1516.51 581.56C1516.87 581.706 1517.02 582.145 1516.87 582.51L1508.25 600.782C1508.18 601.074 1507.89 601.221 1507.6 601.221Z" fill="#2E1E00"/>
<path d="M1511.9 432.095C1511.83 432.095 1511.68 432.095 1511.61 432.022C1511.24 431.876 1511.1 431.438 1511.24 431.072L1517.74 416.016C1517.89 415.651 1518.33 415.504 1518.69 415.651C1519.06 415.797 1519.21 416.235 1519.06 416.601L1512.56 431.657C1512.49 431.949 1512.19 432.095 1511.9 432.095Z" fill="#2E1E00"/>
<path d="M1488.75 407.903C1488.53 407.903 1488.39 407.83 1488.24 407.684L1471.44 388.827C1471.15 388.535 1471.22 388.096 1471.51 387.804C1471.81 387.512 1472.24 387.585 1472.54 387.877L1489.34 406.734C1489.63 407.026 1489.56 407.465 1489.26 407.757C1489.12 407.83 1488.97 407.903 1488.75 407.903Z" fill="#2E1E00"/>
<path d="M1500.95 489.835C1500.66 489.835 1500.44 489.689 1500.29 489.469L1488.9 466.885C1488.75 466.52 1488.83 466.081 1489.19 465.935C1489.56 465.716 1489.99 465.862 1490.14 466.227L1501.54 488.812C1501.68 489.177 1501.61 489.615 1501.24 489.762C1501.17 489.762 1501.1 489.835 1500.95 489.835Z" fill="#2E1E00"/>
<path d="M1489.48 646.462C1489.19 646.462 1488.97 646.316 1488.82 646.097L1477.43 623.512C1477.28 623.147 1477.35 622.708 1477.72 622.562C1478.08 622.343 1478.52 622.489 1478.67 622.855L1490.06 645.439C1490.21 645.804 1490.14 646.243 1489.77 646.389C1489.7 646.462 1489.55 646.462 1489.48 646.462Z" fill="#2E1E00"/>
<path d="M1486.05 554.81C1485.75 554.81 1485.53 554.664 1485.39 554.444L1473.99 531.86C1473.85 531.495 1473.92 531.056 1474.28 530.91C1474.65 530.691 1475.09 530.837 1475.23 531.202L1486.63 553.787C1486.78 554.152 1486.7 554.591 1486.34 554.737C1486.26 554.737 1486.19 554.81 1486.05 554.81Z" fill="#2E1E00"/>
<path d="M1448.71 632.429C1448.57 632.429 1448.35 632.356 1448.2 632.21L1429.43 615.253C1429.14 614.961 1429.14 614.523 1429.36 614.23C1429.65 613.938 1430.09 613.938 1430.38 614.157L1449.15 631.114C1449.44 631.406 1449.44 631.844 1449.22 632.137C1449.08 632.283 1448.93 632.429 1448.71 632.429Z" fill="#2E1E00"/>
<path d="M811.435 357.326L826.118 372.017L804.057 372.821L811.435 357.326Z" fill="#2E1E00"/>
<path d="M804.053 373.552C803.834 373.552 803.615 373.406 803.469 373.187C803.323 372.967 803.323 372.675 803.396 372.456L810.774 356.961C810.847 356.742 811.066 356.596 811.285 356.522C811.504 356.449 811.723 356.522 811.942 356.742L826.552 371.432C826.771 371.652 826.844 371.944 826.698 372.236C826.552 372.529 826.333 372.675 826.041 372.675L804.053 373.552C804.126 373.552 804.126 373.552 804.053 373.552ZM811.65 358.569L805.222 372.09L824.361 371.432L811.65 358.569Z" fill="#2E1E00"/>
<path d="M801.207 379.399L815.087 391.312H796.386L801.207 379.399Z" fill="#2E1E00"/>
<path d="M815.088 392.043H796.315C796.096 392.043 795.876 391.897 795.73 391.751C795.584 391.605 795.584 391.312 795.657 391.093L800.552 379.18C800.625 378.96 800.844 378.814 801.063 378.741C801.282 378.668 801.501 378.741 801.72 378.887L815.6 390.801C815.819 391.02 815.892 391.312 815.819 391.605C815.673 391.824 815.381 392.043 815.088 392.043ZM797.411 390.581H813.116L801.501 380.641L797.411 390.581Z" fill="#2E1E00"/>
<path d="M861.693 405.126C861.62 405.126 861.547 405.126 861.474 405.053C861.108 404.907 860.889 404.468 861.035 404.103C863.227 398.036 856.725 395.478 856.433 395.332C856.068 395.186 855.849 394.747 855.995 394.382C856.141 394.017 856.579 393.797 856.945 393.943C857.018 393.943 865.053 397.159 862.35 404.541C862.277 404.907 861.985 405.126 861.693 405.126Z" fill="#2E1E00"/>
<path d="M1036.87 405.126C1036.57 405.126 1036.28 404.907 1036.14 404.614C1034.02 396.794 1040.52 394.09 1040.59 394.017C1040.96 393.87 1041.39 394.017 1041.54 394.455C1041.69 394.821 1041.54 395.259 1041.1 395.405C1040.88 395.478 1035.7 397.671 1037.52 404.249C1037.6 404.614 1037.38 405.053 1037.01 405.126C1036.94 405.053 1036.94 405.126 1036.87 405.126Z" fill="#2E1E00"/>
<path d="M871.191 394.747C873.087 394.747 874.624 393.209 874.624 391.312C874.624 389.415 873.087 387.877 871.191 387.877C869.295 387.877 867.758 389.415 867.758 391.312C867.758 393.209 869.295 394.747 871.191 394.747Z" fill="#2E1E00"/>
<path d="M1022.69 398.987C1024.59 398.987 1026.13 397.449 1026.13 395.551C1026.13 393.654 1024.59 392.116 1022.69 392.116C1020.8 392.116 1019.26 393.654 1019.26 395.551C1019.26 397.449 1020.8 398.987 1022.69 398.987Z" fill="#2E1E00"/>
<path d="M855.997 382.396C857.328 382.396 858.407 381.316 858.407 379.984C858.407 378.652 857.328 377.572 855.997 377.572C854.665 377.572 853.586 378.652 853.586 379.984C853.586 381.316 854.665 382.396 855.997 382.396Z" fill="#2E1E00"/>
<path d="M882.879 390.289C884.211 390.289 885.29 389.209 885.29 387.877C885.29 386.545 884.211 385.465 882.879 385.465C881.548 385.465 880.469 386.545 880.469 387.877C880.469 389.209 881.548 390.289 882.879 390.289Z" fill="#2E1E00"/>
<path d="M1013.56 389.12C1014.89 389.12 1015.97 388.04 1015.97 386.708C1015.97 385.376 1014.89 384.296 1013.56 384.296C1012.23 384.296 1011.15 385.376 1011.15 386.708C1011.15 388.04 1012.23 389.12 1013.56 389.12Z" fill="#2E1E00"/>
<path d="M1034.02 381.445C1035.35 381.445 1036.43 380.366 1036.43 379.033C1036.43 377.701 1035.35 376.622 1034.02 376.622C1032.68 376.622 1031.61 377.701 1031.61 379.033C1031.61 380.366 1032.68 381.445 1034.02 381.445Z" fill="#2E1E00"/>
<path d="M854.872 366.799C860.36 365.3 864.223 361.939 863.501 359.291C862.779 356.643 857.744 355.711 852.257 357.21C846.769 358.708 842.906 362.07 843.628 364.718C844.351 367.366 849.385 368.297 854.872 366.799Z" fill="#2E1E00"/>
<path d="M898.765 383.877C900.96 382.231 899.975 377.204 896.564 372.649C893.153 368.094 888.608 365.736 886.413 367.382C884.217 369.028 885.203 374.054 888.613 378.609C892.024 383.164 896.569 385.523 898.765 383.877Z" fill="#2E1E00"/>
<path d="M1027.66 160.866C1027.44 160.866 1027.29 160.793 1027.14 160.647C1026.85 160.355 1026.85 159.916 1027.14 159.624L1054.03 132.728C1054.32 132.435 1054.76 132.435 1055.05 132.728C1055.34 133.02 1055.34 133.458 1055.05 133.751L1028.17 160.647C1028.02 160.793 1027.88 160.866 1027.66 160.866Z" fill="#2E1E00"/>
<path d="M936.789 139.379C936.351 139.379 936.059 139.086 936.059 138.648V98.2301C936.059 97.7915 936.351 97.4992 936.789 97.4992C937.227 97.4992 937.52 97.7915 937.52 98.2301V138.648C937.52 139.013 937.227 139.379 936.789 139.379Z" fill="#2E1E00"/>
<path d="M853.586 166.421C853.44 166.421 853.294 166.348 853.148 166.275L823.344 143.252C823.052 143.033 822.979 142.521 823.198 142.229C823.417 141.937 823.928 141.863 824.22 142.083L853.951 165.105C854.244 165.325 854.317 165.836 854.098 166.129C854.025 166.348 853.805 166.421 853.586 166.421Z" fill="#2E1E00"/>
<path d="M1043.8 451.464C1043.44 451.464 1043.07 451.171 1043.07 450.733L1042.93 442.547C1042.93 442.108 1043.22 441.816 1043.66 441.816C1044.02 441.816 1044.39 442.108 1044.39 442.547L1044.53 450.733C1044.53 451.098 1044.24 451.464 1043.8 451.464Z" fill="#FEFFFA"/>
<path d="M1051.4 464.4C1052.57 466.52 1051.84 469.224 1049.72 470.393C1047.82 471.49 1045.49 470.978 1044.17 469.37C1043.81 469.809 1043.44 470.174 1042.93 470.466C1040.81 471.636 1038.11 470.905 1036.94 468.785C1036.21 467.543 1036.21 466.081 1036.72 464.912C1036.43 464.912 1036.06 464.839 1035.77 464.766C1033.43 464.108 1032.04 461.696 1032.7 459.357C1033.36 457.018 1035.77 455.63 1038.11 456.287C1038.55 456.434 1038.91 456.58 1039.28 456.799C1038.25 454.753 1038.98 452.194 1041.03 451.025C1043.15 449.856 1045.85 450.587 1047.02 452.706C1047.53 453.583 1047.68 454.606 1047.53 455.63C1049.65 454.533 1052.21 455.264 1053.37 457.311C1054.54 459.43 1053.81 462.134 1051.69 463.304C1051.4 463.45 1051.11 463.596 1050.82 463.669C1051.04 463.815 1051.26 464.108 1051.4 464.4Z" fill="#FEFFFA"/>
<path d="M1040.81 471.709C1039.06 471.709 1037.3 470.759 1036.35 469.151C1035.7 468.055 1035.55 466.739 1035.84 465.497C1035.77 465.497 1035.7 465.496 1035.62 465.423C1034.31 465.058 1033.21 464.181 1032.55 463.012C1031.9 461.842 1031.68 460.453 1032.04 459.138C1032.77 456.507 1035.48 454.899 1038.11 455.483C1037.81 453.437 1038.76 451.391 1040.66 450.294C1041.83 449.636 1043.22 449.417 1044.53 449.783C1045.85 450.148 1046.95 451.025 1047.6 452.195C1047.97 452.852 1048.19 453.583 1048.26 454.387C1050.45 453.802 1052.79 454.753 1053.96 456.799C1055.35 459.284 1054.47 462.427 1052.06 463.815C1051.99 463.815 1051.99 463.889 1051.91 463.889C1051.91 463.962 1051.99 463.962 1051.99 464.035C1053.37 466.52 1052.5 469.589 1050.09 471.051C1048.11 472.147 1045.78 471.855 1044.17 470.466C1043.88 470.686 1043.58 470.905 1043.29 471.124C1042.49 471.49 1041.61 471.709 1040.81 471.709ZM1036.94 456.799C1035.33 456.799 1033.87 457.895 1033.43 459.503C1033.14 460.453 1033.28 461.404 1033.8 462.281C1034.31 463.158 1035.04 463.742 1035.99 464.035C1036.28 464.108 1036.5 464.181 1036.79 464.181C1037.01 464.181 1037.23 464.327 1037.38 464.546C1037.52 464.766 1037.52 464.985 1037.45 465.204C1037.01 466.3 1037.08 467.47 1037.59 468.493C1038.62 470.247 1040.81 470.832 1042.56 469.882C1043 469.663 1043.29 469.37 1043.58 469.005C1043.73 468.859 1043.95 468.712 1044.17 468.712C1044.39 468.712 1044.61 468.785 1044.75 469.005C1045.85 470.393 1047.82 470.759 1049.43 469.882C1051.18 468.859 1051.77 466.666 1050.82 464.912C1050.67 464.693 1050.52 464.473 1050.31 464.254C1050.16 464.035 1050.09 463.815 1050.16 463.596C1050.23 463.377 1050.38 463.158 1050.67 463.085C1050.96 463.011 1051.18 462.865 1051.4 462.792C1053.15 461.769 1053.74 459.576 1052.79 457.822C1051.84 456.068 1049.65 455.483 1047.89 456.361C1047.68 456.507 1047.38 456.434 1047.09 456.287C1046.8 456.141 1046.73 455.849 1046.8 455.557C1046.95 454.753 1046.8 453.876 1046.36 453.145C1045.85 452.268 1045.12 451.683 1044.17 451.391C1043.22 451.098 1042.27 451.244 1041.39 451.756C1039.71 452.706 1039.06 454.826 1039.93 456.58C1040.08 456.872 1040.01 457.238 1039.79 457.457C1039.57 457.676 1039.2 457.676 1038.91 457.53C1038.62 457.384 1038.33 457.238 1037.96 457.091C1037.59 456.872 1037.3 456.799 1036.94 456.799Z" fill="#2E1E00"/>
<path d="M636.627 663.345C636.627 663.345 635.385 657.133 630.052 655.452C627.057 654.502 623.697 655.525 621.798 658.01C621.359 658.521 621.14 659.106 621.067 659.691C621.067 659.691 609.379 662.761 612.52 670.654C616.173 679.79 623.405 672.262 623.405 672.262C623.405 672.262 623.113 682.202 629.979 680.448C636.846 678.621 633.266 670.069 633.266 670.069C633.266 670.069 640.571 672.043 641.01 668.023C641.521 664.003 636.627 663.345 636.627 663.345Z" fill="#FEFFFA"/>
<path d="M628.446 681.398C627.35 681.398 626.328 681.033 625.451 680.375C623.479 678.767 622.894 675.697 622.748 673.797C621.36 674.82 619.023 676.282 616.685 675.77C614.64 675.405 613.033 673.724 611.937 670.873C611.134 668.827 611.134 666.853 612.083 665.099C613.909 661.372 618.95 659.618 620.557 659.106C620.703 658.595 620.922 658.083 621.36 657.498C623.406 654.794 627.131 653.625 630.419 654.648C635.167 656.183 636.92 661.006 637.358 662.614C639.331 663.053 642.326 664.515 641.96 668.023C641.887 669.046 641.376 669.85 640.572 670.362C638.892 671.531 636.189 671.239 634.582 670.946C635.094 672.627 635.605 675.551 634.436 677.963C633.633 679.498 632.318 680.594 630.346 681.106C629.615 681.325 629.031 681.398 628.446 681.398ZM623.479 671.531C623.552 671.531 623.698 671.531 623.771 671.604C624.063 671.75 624.209 671.97 624.209 672.335C624.209 672.408 624.063 677.451 626.401 679.278C627.277 680.009 628.373 680.155 629.834 679.79C631.368 679.425 632.391 678.621 632.975 677.451C634.363 674.601 632.683 670.435 632.61 670.362C632.537 670.069 632.537 669.777 632.756 669.631C632.975 669.412 633.194 669.338 633.487 669.412C634.655 669.704 638.089 670.362 639.55 669.265C639.988 668.973 640.207 668.535 640.28 667.95C640.645 664.661 636.628 664.149 636.482 664.076C636.189 664.003 635.897 663.784 635.897 663.491C635.897 663.418 634.655 657.718 629.834 656.11C627.131 655.233 624.063 656.183 622.383 658.448C622.018 658.96 621.872 659.399 621.799 659.764C621.799 660.056 621.58 660.349 621.287 660.422C621.214 660.422 615.151 662.103 613.325 665.83C612.595 667.219 612.595 668.754 613.252 670.435C614.202 672.774 615.443 674.162 616.977 674.455C619.826 675.039 622.894 671.823 622.894 671.823C623.114 671.604 623.26 671.531 623.479 671.531Z" fill="#2E1E00"/>
<path d="M1216.57 667.584C1216.57 667.584 1207.73 666.707 1206.27 674.382C1204.73 682.056 1213.13 679.425 1213.13 679.425C1213.13 679.425 1212.26 685.856 1217.22 686.587C1222.19 687.318 1223.29 680.74 1223.29 680.74C1223.29 680.74 1232.2 684.322 1233.08 677.159C1233.95 669.996 1225.77 671.239 1225.77 671.239C1225.77 671.239 1226.28 663.199 1222.12 663.345C1217.88 663.272 1216.57 667.584 1216.57 667.584Z" fill="#FEFFFA"/>
<path d="M1217.96 687.318C1217.66 687.318 1217.37 687.318 1217.15 687.245C1213.21 686.66 1212.33 682.933 1212.33 680.302C1210.87 680.594 1208.24 680.813 1206.71 679.352C1205.46 678.255 1205.1 676.501 1205.61 674.162C1206.27 670.727 1208.46 668.388 1211.82 667.365C1213.65 666.78 1215.25 666.78 1216.13 666.78C1216.86 665.099 1218.76 662.541 1222.12 662.468C1223.14 662.468 1224.02 662.834 1224.68 663.565C1226.36 665.319 1226.5 668.754 1226.5 670.362C1227.89 670.289 1230.59 670.435 1232.35 672.116C1233.59 673.285 1234.03 675.039 1233.81 677.232C1233.59 679.278 1232.71 680.667 1231.25 681.544C1228.84 683.006 1225.33 682.202 1223.8 681.69C1223.22 684.029 1221.39 687.318 1217.96 687.318ZM1213.13 678.694C1213.28 678.694 1213.5 678.767 1213.57 678.84C1213.79 678.986 1213.87 679.278 1213.79 679.498C1213.79 679.717 1213.06 685.199 1217.3 685.783C1221.54 686.368 1222.48 680.74 1222.56 680.521C1222.56 680.302 1222.7 680.082 1222.92 680.009C1223.14 679.936 1223.36 679.863 1223.58 679.936C1223.65 679.936 1227.96 681.69 1230.52 680.155C1231.54 679.571 1232.13 678.474 1232.35 676.94C1232.57 675.259 1232.2 673.943 1231.32 673.066C1229.5 671.312 1225.92 671.823 1225.85 671.823C1225.63 671.823 1225.41 671.823 1225.26 671.604C1225.11 671.385 1225.04 671.239 1225.04 671.019C1225.11 669.704 1225.04 665.976 1223.65 664.515C1223.22 664.076 1222.78 663.857 1222.19 663.93C1218.61 664.003 1217.37 667.657 1217.37 667.804C1217.3 668.096 1216.93 668.315 1216.57 668.315C1216.2 668.315 1208.39 667.584 1207 674.528C1206.63 676.355 1206.85 677.671 1207.66 678.401C1209.04 679.644 1211.89 679.059 1212.92 678.767C1212.99 678.694 1213.06 678.694 1213.13 678.694Z" fill="#2E1E00"/>
<path d="M903.553 690.461C907.352 691.776 911.296 691.557 914.876 688.999C920.647 684.833 921.304 677.524 916.629 676.501C911.954 675.478 910.566 678.328 910.566 678.328C910.566 678.328 912.027 672.627 907.498 671.823C902.969 671.093 902.311 675.989 902.311 675.989C902.311 675.989 897.49 670.8 894.349 676.501C891.646 681.398 896.029 686.222 900.047 688.707C901.069 689.438 902.311 690.022 903.553 690.461Z" fill="#FEFFFA"/>
<path d="M908.01 691.996C906.476 691.996 904.869 691.703 903.262 691.192C902.02 690.753 900.779 690.168 899.537 689.365C894.642 686.368 890.917 681.106 893.62 676.209C894.642 674.382 895.957 673.358 897.491 673.212C899.245 672.993 900.925 673.943 901.874 674.747C902.167 673.87 902.751 672.774 903.847 671.97C904.869 671.239 906.184 670.946 907.645 671.166C908.96 671.385 909.983 672.043 910.64 673.066C911.298 674.089 911.517 675.405 911.517 676.428C912.613 675.77 914.293 675.259 916.776 675.843C918.603 676.282 919.918 677.597 920.283 679.498C921.013 682.86 918.895 687.026 915.315 689.657C913.051 691.192 910.64 691.996 908.01 691.996ZM898.003 674.601C897.93 674.601 897.784 674.601 897.637 674.601C896.615 674.747 895.665 675.478 894.862 676.866C892.305 681.471 897.053 686.076 900.267 688.049C901.436 688.78 902.532 689.291 903.701 689.73C906.403 690.68 910.421 691.192 914.293 688.414C917.872 685.856 919.187 682.129 918.749 679.717C918.53 678.767 917.945 677.597 916.338 677.232C912.32 676.355 911.079 678.621 911.079 678.694C910.932 679.059 910.494 679.205 910.202 679.059C909.837 678.913 909.691 678.548 909.764 678.182C909.764 678.182 910.421 675.478 909.325 673.87C908.887 673.212 908.23 672.774 907.28 672.627C906.184 672.481 905.308 672.627 904.65 673.139C903.262 674.162 902.97 676.136 902.97 676.209C902.897 676.501 902.751 676.72 902.459 676.793C902.167 676.866 901.874 676.793 901.728 676.574C901.728 676.501 899.902 674.601 898.003 674.601Z" fill="#2E1E00"/>
<path d="M988.658 670.508C988.658 670.508 983.399 669.996 982.449 674.601C981.573 679.205 986.54 677.671 986.54 677.671C986.54 677.671 986.029 681.544 989.024 681.91C992.019 682.348 992.676 678.401 992.676 678.401C992.676 678.401 998.009 680.521 998.52 676.209C999.031 671.897 994.137 672.627 994.137 672.627C994.137 672.627 994.429 667.804 991.946 667.877C989.462 667.95 988.658 670.508 988.658 670.508Z" fill="#FEFFFA"/>
<path d="M989.531 682.64C989.385 682.64 989.166 682.64 988.947 682.567C986.537 682.202 985.879 680.082 985.806 678.474C984.856 678.621 983.468 678.621 982.519 677.817C981.715 677.086 981.423 675.916 981.788 674.382C982.519 670.581 986.025 669.631 988.217 669.704C988.655 668.827 989.751 667.146 992.015 667.146C992.673 667.146 993.33 667.365 993.768 667.877C994.718 668.9 994.937 670.727 994.937 671.824C995.887 671.824 997.348 671.97 998.37 672.92C999.174 673.724 999.466 674.82 999.32 676.209C999.174 677.524 998.59 678.474 997.64 678.986C996.252 679.79 994.28 679.498 993.257 679.205C992.746 680.813 991.65 682.64 989.531 682.64ZM986.61 676.867C986.756 676.867 986.975 676.94 987.048 677.013C987.267 677.159 987.34 677.451 987.267 677.671C987.267 677.817 986.902 680.813 989.093 681.106C991.358 681.471 991.869 678.328 991.869 678.182C991.869 677.963 992.015 677.744 992.234 677.671C992.454 677.597 992.673 677.524 992.892 677.597C993.549 677.89 995.668 678.474 996.836 677.744C997.348 677.451 997.713 676.867 997.786 675.99C997.932 675.039 997.713 674.382 997.275 673.943C996.471 673.139 994.791 673.212 994.28 673.285C994.061 673.285 993.841 673.285 993.695 673.066C993.549 672.92 993.476 672.701 993.476 672.481C993.549 671.458 993.403 669.485 992.673 668.754C992.454 668.535 992.307 668.461 992.015 668.461C990.043 668.535 989.385 670.581 989.385 670.581C989.312 670.946 988.947 671.093 988.582 671.093C988.363 671.093 983.907 670.727 983.176 674.601C982.957 675.624 983.103 676.282 983.468 676.647C984.199 677.305 985.806 676.94 986.317 676.793C986.463 676.867 986.536 676.867 986.61 676.867Z" fill="#2E1E00"/>
<path d="M494.403 638.495C494.403 638.495 489.144 637.984 488.194 642.588C487.317 647.193 492.285 645.658 492.285 645.658C492.285 645.658 491.773 649.532 494.769 649.897C497.764 650.336 498.421 646.389 498.421 646.389C498.421 646.389 503.754 648.509 504.265 644.196C504.776 639.884 499.882 640.615 499.882 640.615C499.882 640.615 500.174 635.791 497.69 635.864C495.134 635.937 494.403 638.495 494.403 638.495Z" fill="#FEFFFA"/>
<path d="M495.203 650.628C495.057 650.628 494.838 650.628 494.619 650.555C492.208 650.189 491.551 648.07 491.478 646.462C490.528 646.608 489.14 646.608 488.191 645.804C487.387 645.073 487.095 643.904 487.46 642.369C488.191 638.569 491.697 637.618 493.889 637.691C494.327 636.814 495.423 635.133 497.687 635.133C498.345 635.133 499.002 635.353 499.44 635.864C500.39 636.887 500.609 638.715 500.609 639.811C501.559 639.811 503.02 639.957 504.042 640.907C504.846 641.711 505.138 642.808 504.992 644.196C504.846 645.512 504.262 646.462 503.312 646.974C501.924 647.778 499.952 647.485 498.929 647.193C498.418 648.728 497.322 650.628 495.203 650.628ZM492.281 644.854C492.428 644.854 492.647 644.927 492.72 645C492.939 645.146 493.012 645.439 492.939 645.658C492.939 645.804 492.574 648.801 494.765 649.093C497.03 649.385 497.541 646.316 497.541 646.17C497.541 645.95 497.687 645.731 497.906 645.658C498.125 645.585 498.345 645.512 498.564 645.585C499.221 645.877 501.34 646.462 502.508 645.731C503.02 645.439 503.385 644.854 503.458 643.977C503.604 643.027 503.385 642.369 502.947 641.931C502.143 641.127 500.463 641.2 499.879 641.273C499.659 641.273 499.44 641.273 499.294 641.053C499.148 640.907 499.075 640.688 499.075 640.469C499.148 639.446 499.002 637.472 498.271 636.741C498.052 636.522 497.833 636.449 497.614 636.449C495.642 636.522 494.984 638.495 494.984 638.568C494.911 638.861 494.546 639.08 494.181 639.08C493.962 639.08 489.579 638.715 488.775 642.588C488.556 643.612 488.702 644.269 489.067 644.635C489.798 645.293 491.405 644.927 491.916 644.781C492.135 644.854 492.208 644.854 492.281 644.854Z" fill="#2E1E00"/>
<path d="M713.547 291.255C714.475 291.255 715.227 290.502 715.227 289.574C715.227 288.646 714.475 287.893 713.547 287.893C712.619 287.893 711.867 288.646 711.867 289.574C711.867 290.502 712.619 291.255 713.547 291.255Z" fill="#2E1E00"/>
<path d="M749.051 265.82C749.979 265.82 750.731 265.068 750.731 264.139C750.731 263.211 749.979 262.458 749.051 262.458C748.123 262.458 747.371 263.211 747.371 264.139C747.371 265.068 748.123 265.82 749.051 265.82Z" fill="#2E1E00"/>
<path d="M941.68 580.756C942.608 580.756 943.36 580.003 943.36 579.075C943.36 578.147 942.608 577.394 941.68 577.394C940.752 577.394 940 578.147 940 579.075C940 580.003 940.752 580.756 941.68 580.756Z" fill="#2E1E00"/>
<path d="M784.188 323.194C785.116 323.194 785.868 322.442 785.868 321.513C785.868 320.585 785.116 319.832 784.188 319.832C783.26 319.832 782.508 320.585 782.508 321.513C782.508 322.442 783.26 323.194 784.188 323.194Z" fill="#2E1E00"/>
<path d="M695.211 220.214C696.139 220.214 696.891 219.461 696.891 218.533C696.891 217.604 696.139 216.852 695.211 216.852C694.283 216.852 693.531 217.604 693.531 218.533C693.531 219.461 694.283 220.214 695.211 220.214Z" fill="#2E1E00"/>
<path d="M693.532 171.245C694.46 171.245 695.212 170.492 695.212 169.564C695.212 168.635 694.46 167.883 693.532 167.883C692.604 167.883 691.852 168.635 691.852 169.564C691.852 170.492 692.604 171.245 693.532 171.245Z" fill="#2E1E00"/>
<path d="M838.684 262.824C839.612 262.824 840.364 262.071 840.364 261.143C840.364 260.214 839.612 259.462 838.684 259.462C837.756 259.462 837.004 260.214 837.004 261.143C837.004 262.071 837.756 262.824 838.684 262.824Z" fill="#2E1E00"/>
<path d="M915.164 305.507C916.092 305.507 916.845 304.755 916.845 303.826C916.845 302.898 916.092 302.145 915.164 302.145C914.237 302.145 913.484 302.898 913.484 303.826C913.484 304.755 914.237 305.507 915.164 305.507Z" fill="#2E1E00"/>
<path d="M768.262 220.214C769.19 220.214 769.942 219.461 769.942 218.533C769.942 217.604 769.19 216.852 768.262 216.852C767.334 216.852 766.582 217.604 766.582 218.533C766.582 219.461 767.334 220.214 768.262 220.214Z" fill="#2E1E00"/>
<path d="M641.157 199.749C642.085 199.749 642.837 198.996 642.837 198.068C642.837 197.14 642.085 196.387 641.157 196.387C640.229 196.387 639.477 197.14 639.477 198.068C639.477 198.996 640.229 199.749 641.157 199.749Z" fill="#2E1E00"/>
<path d="M664.313 314.424C665.241 314.424 665.993 313.671 665.993 312.743C665.993 311.814 665.241 311.062 664.313 311.062C663.385 311.062 662.633 311.814 662.633 312.743C662.633 313.671 663.385 314.424 664.313 314.424Z" fill="#2E1E00"/>
<path d="M1602.48 717.065C1603.41 717.065 1604.16 716.312 1604.16 715.384C1604.16 714.455 1603.41 713.703 1602.48 713.703C1601.56 713.703 1600.8 714.455 1600.8 715.384C1600.8 716.312 1601.56 717.065 1602.48 717.065Z" fill="#2E1E00"/>
<path d="M377.301 730.001C378.229 730.001 378.981 729.249 378.981 728.32C378.981 727.392 378.229 726.639 377.301 726.639C376.373 726.639 375.621 727.392 375.621 728.32C375.621 729.249 376.373 730.001 377.301 730.001Z" fill="#2E1E00"/>
<path d="M533.625 712.826C534.553 712.826 535.306 712.073 535.306 711.145C535.306 710.216 534.553 709.464 533.625 709.464C532.698 709.464 531.945 710.216 531.945 711.145C531.945 712.073 532.698 712.826 533.625 712.826Z" fill="#2E1E00"/>
<path d="M628.301 269.183C629.229 269.183 629.981 268.43 629.981 267.501C629.981 266.573 629.229 265.82 628.301 265.82C627.373 265.82 626.621 266.573 626.621 267.501C626.621 268.43 627.373 269.183 628.301 269.183Z" fill="#2E1E00"/>
<path d="M457.946 571.985C458.874 571.985 459.626 571.233 459.626 570.304C459.626 569.376 458.874 568.623 457.946 568.623C457.018 568.623 456.266 569.376 456.266 570.304C456.266 571.233 457.018 571.985 457.946 571.985Z" fill="#2E1E00"/>
<path d="M549.262 253.322C550.19 253.322 550.942 252.57 550.942 251.641C550.942 250.713 550.19 249.96 549.262 249.96C548.334 249.96 547.582 250.713 547.582 251.641C547.582 252.57 548.334 253.322 549.262 253.322Z" fill="#2E1E00"/>
<path d="M577.165 204.061C578.092 204.061 578.845 203.309 578.845 202.38C578.845 201.452 578.092 200.699 577.165 200.699C576.237 200.699 575.484 201.452 575.484 202.38C575.484 203.309 576.237 204.061 577.165 204.061Z" fill="#2E1E00"/>
<path d="M486.368 270.864C487.296 270.864 488.048 270.111 488.048 269.182C488.048 268.254 487.296 267.501 486.368 267.501C485.44 267.501 484.688 268.254 484.688 269.182C484.688 270.111 485.44 270.864 486.368 270.864Z" fill="#2E1E00"/>
<path d="M309.368 582.145C310.296 582.145 311.048 581.392 311.048 580.464C311.048 579.535 310.296 578.783 309.368 578.783C308.44 578.783 307.688 579.535 307.688 580.464C307.688 581.392 308.44 582.145 309.368 582.145Z" fill="#2E1E00"/>
<path d="M421.645 503.21C422.573 503.21 423.325 502.457 423.325 501.529C423.325 500.6 422.573 499.848 421.645 499.848C420.717 499.848 419.965 500.6 419.965 501.529C419.965 502.457 420.717 503.21 421.645 503.21Z" fill="#2E1E00"/>
<path d="M575.489 312.158C576.417 312.158 577.169 311.406 577.169 310.477C577.169 309.549 576.417 308.796 575.489 308.796C574.561 308.796 573.809 309.549 573.809 310.477C573.809 311.406 574.561 312.158 575.489 312.158Z" fill="#2E1E00"/>
<path d="M664.313 583.826C665.241 583.826 665.993 583.073 665.993 582.145C665.993 581.216 665.241 580.464 664.313 580.464C663.385 580.464 662.633 581.216 662.633 582.145C662.633 583.073 663.385 583.826 664.313 583.826Z" fill="#2E1E00"/>
<path d="M439.981 488.592C440.909 488.592 441.661 487.84 441.661 486.911C441.661 485.983 440.909 485.23 439.981 485.23C439.053 485.23 438.301 485.983 438.301 486.911C438.301 487.84 439.053 488.592 439.981 488.592Z" fill="#2E1E00"/>
<path d="M459.629 501.529C460.557 501.529 461.31 500.776 461.31 499.848C461.31 498.919 460.557 498.167 459.629 498.167C458.701 498.167 457.949 498.919 457.949 499.848C457.949 500.776 458.701 501.529 459.629 501.529Z" fill="#2E1E00"/>
<path d="M1230.3 270.06C1231.23 270.06 1231.98 269.307 1231.98 268.379C1231.98 267.45 1231.23 266.698 1230.3 266.698C1229.37 266.698 1228.62 267.45 1228.62 268.379C1228.62 269.307 1229.37 270.06 1230.3 270.06Z" fill="#2E1E00"/>
<path d="M1154.47 731.682C1155.4 731.682 1156.15 730.93 1156.15 730.001C1156.15 729.073 1155.4 728.32 1154.47 728.32C1153.55 728.32 1152.79 729.073 1152.79 730.001C1152.79 730.93 1153.55 731.682 1154.47 731.682Z" fill="#2E1E00"/>
<path d="M1277.86 592.962C1278.78 592.962 1279.54 592.209 1279.54 591.281C1279.54 590.352 1278.78 589.6 1277.86 589.6C1276.93 589.6 1276.18 590.352 1276.18 591.281C1276.18 592.209 1276.93 592.962 1277.86 592.962Z" fill="#2E1E00"/>
<path d="M1194.8 244.698C1195.73 244.698 1196.48 243.945 1196.48 243.017C1196.48 242.089 1195.73 241.336 1194.8 241.336C1193.87 241.336 1193.12 242.089 1193.12 243.017C1193.12 243.945 1193.87 244.698 1194.8 244.698Z" fill="#2E1E00"/>
<path d="M1161.34 312.743C1162.27 312.743 1163.02 311.99 1163.02 311.062C1163.02 310.133 1162.27 309.381 1161.34 309.381C1160.42 309.381 1159.66 310.133 1159.66 311.062C1159.66 311.99 1160.42 312.743 1161.34 312.743Z" fill="#2E1E00"/>
<path d="M1248.63 199.018C1249.56 199.018 1250.31 198.266 1250.31 197.337C1250.31 196.409 1249.56 195.656 1248.63 195.656C1247.7 195.656 1246.95 196.409 1246.95 197.337C1246.95 198.266 1247.7 199.018 1248.63 199.018Z" fill="#2E1E00"/>
<path d="M1252 160.574C1252.92 160.574 1253.68 159.821 1253.68 158.893C1253.68 157.965 1252.92 157.212 1252 157.212C1251.07 157.212 1250.32 157.965 1250.32 158.893C1250.32 159.821 1251.07 160.574 1252 160.574Z" fill="#2E1E00"/>
<path d="M1105.16 241.628C1106.09 241.628 1106.84 240.876 1106.84 239.947C1106.84 239.019 1106.09 238.266 1105.16 238.266C1104.24 238.266 1103.48 239.019 1103.48 239.947C1103.48 240.876 1104.24 241.628 1105.16 241.628Z" fill="#2E1E00"/>
<path d="M1028.68 284.312C1029.61 284.312 1030.36 283.559 1030.36 282.631C1030.36 281.702 1029.61 280.95 1028.68 280.95C1027.76 280.95 1027 281.702 1027 282.631C1027 283.559 1027.76 284.312 1028.68 284.312Z" fill="#2E1E00"/>
<path d="M1175.59 199.018C1176.51 199.018 1177.27 198.266 1177.27 197.337C1177.27 196.409 1176.51 195.656 1175.59 195.656C1174.66 195.656 1173.91 196.409 1173.91 197.337C1173.91 198.266 1174.66 199.018 1175.59 199.018Z" fill="#2E1E00"/>
<path d="M1302.69 178.554C1303.62 178.554 1304.37 177.801 1304.37 176.873C1304.37 175.944 1303.62 175.192 1302.69 175.192C1301.76 175.192 1301.01 175.944 1301.01 176.873C1301.01 177.801 1301.76 178.554 1302.69 178.554Z" fill="#2E1E00"/>
<path d="M1279.54 293.228C1280.46 293.228 1281.22 292.476 1281.22 291.547C1281.22 290.619 1280.46 289.866 1279.54 289.866C1278.61 289.866 1277.86 290.619 1277.86 291.547C1277.86 292.476 1278.61 293.228 1279.54 293.228Z" fill="#2E1E00"/>
<path d="M1427.17 539.754C1428.1 539.754 1428.85 539.001 1428.85 538.073C1428.85 537.144 1428.1 536.392 1427.17 536.392C1426.24 536.392 1425.49 537.144 1425.49 538.073C1425.49 539.001 1426.24 539.754 1427.17 539.754Z" fill="#2E1E00"/>
<path d="M1163.02 577.029C1163.95 577.029 1164.7 576.276 1164.7 575.348C1164.7 574.419 1163.95 573.667 1163.02 573.667C1162.09 573.667 1161.34 574.419 1161.34 575.348C1161.34 576.276 1162.09 577.029 1163.02 577.029Z" fill="#2E1E00"/>
<path d="M1315.62 248.06C1316.55 248.06 1317.3 247.308 1317.3 246.379C1317.3 245.451 1316.55 244.698 1315.62 244.698C1314.69 244.698 1313.94 245.451 1313.94 246.379C1313.94 247.308 1314.69 248.06 1315.62 248.06Z" fill="#2E1E00"/>
<path d="M1304.37 726.493C1305.3 726.493 1306.05 725.741 1306.05 724.812C1306.05 723.884 1305.3 723.131 1304.37 723.131C1303.44 723.131 1302.69 723.884 1302.69 724.812C1302.69 725.741 1303.44 726.493 1304.37 726.493Z" fill="#2E1E00"/>
<path d="M1381.73 230.446C1382.66 230.446 1383.42 229.693 1383.42 228.765C1383.42 227.837 1382.66 227.084 1381.73 227.084C1380.81 227.084 1380.05 227.837 1380.05 228.765C1380.05 229.693 1380.81 230.446 1381.73 230.446Z" fill="#2E1E00"/>
<path d="M1368.36 178.554C1369.29 178.554 1370.04 177.801 1370.04 176.873C1370.04 175.944 1369.29 175.192 1368.36 175.192C1367.43 175.192 1366.68 175.944 1366.68 176.873C1366.68 177.801 1367.43 178.554 1368.36 178.554Z" fill="#2E1E00"/>
<path d="M1457.48 249.741C1458.41 249.741 1459.16 248.989 1459.16 248.06C1459.16 247.132 1458.41 246.379 1457.48 246.379C1456.55 246.379 1455.8 247.132 1455.8 248.06C1455.8 248.989 1456.55 249.741 1457.48 249.741Z" fill="#2E1E00"/>
<path d="M1600.81 577.029C1601.73 577.029 1602.49 576.276 1602.49 575.348C1602.49 574.419 1601.73 573.667 1600.81 573.667C1599.88 573.667 1599.12 574.419 1599.12 575.348C1599.12 576.276 1599.88 577.029 1600.81 577.029Z" fill="#2E1E00"/>
<path d="M1368.36 290.963C1369.29 290.963 1370.04 290.21 1370.04 289.282C1370.04 288.353 1369.29 287.601 1368.36 287.601C1367.43 287.601 1366.68 288.353 1366.68 289.282C1366.68 290.21 1367.43 290.963 1368.36 290.963Z" fill="#2E1E00"/>
<path d="M314.265 654.209C314.265 654.209 305.499 653.332 303.965 660.933C302.431 668.535 310.759 665.976 310.759 665.976C310.759 665.976 309.882 672.335 314.849 673.066C319.817 673.797 320.839 667.219 320.839 667.219C320.839 667.219 329.678 670.8 330.555 663.638C331.432 656.475 323.323 657.718 323.323 657.718C323.323 657.718 323.834 649.751 319.671 649.824C315.58 649.97 314.265 654.209 314.265 654.209Z" fill="#FEFFFA"/>
<path d="M315.655 673.87C315.363 673.87 315.144 673.87 314.852 673.797C310.907 673.212 310.03 669.485 310.103 666.927C308.642 667.219 306.086 667.438 304.479 665.976C303.31 664.88 302.872 663.126 303.383 660.787C304.04 657.425 306.232 655.013 309.592 653.99C311.345 653.478 313.025 653.405 313.902 653.405C314.632 651.724 316.532 649.166 319.892 649.093C320.915 649.093 321.791 649.459 322.449 650.19C324.056 651.944 324.275 655.306 324.275 656.914C325.663 656.841 328.366 656.987 330.046 658.668C331.288 659.837 331.726 661.591 331.507 663.711C331.288 665.684 330.411 667.146 328.95 668.023C326.539 669.485 323.106 668.681 321.572 668.169C320.842 670.581 319.088 673.87 315.655 673.87ZM310.834 665.246C310.98 665.246 311.199 665.319 311.272 665.392C311.491 665.538 311.564 665.83 311.491 666.05C311.491 666.269 310.761 671.75 314.925 672.335C319.088 672.92 320.111 667.365 320.111 667.073C320.111 666.854 320.257 666.634 320.476 666.561C320.696 666.488 320.915 666.415 321.134 666.488C321.207 666.488 325.517 668.242 328.074 666.707C329.096 666.123 329.681 665.026 329.9 663.491C330.119 661.81 329.754 660.495 328.877 659.618C327.051 657.864 323.471 658.375 323.471 658.375C323.252 658.375 323.033 658.375 322.887 658.156C322.741 658.01 322.668 657.791 322.668 657.571C322.741 656.256 322.668 652.528 321.28 651.067C320.842 650.628 320.403 650.409 319.819 650.482C316.24 650.555 314.998 654.282 314.998 654.282C314.925 654.648 314.559 654.794 314.194 654.794C313.829 654.794 306.086 654.063 304.698 660.933C304.333 662.761 304.552 664.076 305.355 664.734C306.67 665.976 309.592 665.392 310.615 665.099C310.688 665.319 310.761 665.246 310.834 665.246Z" fill="#2E1E00"/>
<path d="M1363.17 659.033C1363.17 659.033 1369.67 658.375 1369.31 663.565C1368.94 668.827 1362.88 666.415 1362.88 666.415C1362.88 666.415 1363.98 674.308 1358.35 673.431C1352.73 672.554 1354.48 663.784 1354.48 663.784C1354.48 663.784 1350.1 659.837 1352.65 656.329C1355.14 652.894 1362.37 654.867 1363.17 659.033Z" fill="#FEFFFA"/>
<path d="M1359.16 674.308C1358.86 674.308 1358.57 674.308 1358.21 674.235C1356.75 674.016 1355.58 673.285 1354.77 672.116C1352.95 669.558 1353.46 665.392 1353.6 664.149C1351.92 662.468 1349.81 659.033 1351.92 655.963C1353.17 654.209 1355.65 653.405 1358.28 653.99C1360.47 654.429 1362.88 655.963 1363.61 658.229C1364.78 658.229 1367.12 658.375 1368.65 659.837C1369.6 660.787 1370.04 662.03 1369.89 663.638C1369.75 665.246 1369.16 666.415 1368.07 667.073C1366.61 668.023 1364.71 667.731 1363.47 667.438C1363.54 668.973 1363.39 671.677 1361.86 673.139C1361.27 673.943 1360.32 674.308 1359.16 674.308ZM1356.67 655.306C1355.36 655.306 1354.04 655.671 1353.24 656.84C1351.12 659.837 1354.85 663.199 1354.99 663.345C1355.21 663.491 1355.28 663.784 1355.21 664.003C1355.21 664.076 1354.26 668.754 1356.01 671.312C1356.6 672.116 1357.4 672.627 1358.43 672.774C1359.52 672.92 1360.4 672.774 1360.98 672.116C1362.37 670.727 1362.3 667.657 1362.15 666.561C1362.15 666.269 1362.22 666.049 1362.44 665.903C1362.66 665.757 1362.88 665.684 1363.17 665.83C1363.9 666.123 1366.24 666.707 1367.48 665.903C1368.14 665.465 1368.51 664.734 1368.58 663.565C1368.65 662.395 1368.36 661.591 1367.78 660.933C1366.31 659.472 1363.32 659.764 1363.25 659.764C1362.88 659.764 1362.52 659.545 1362.44 659.179C1362.08 657.206 1359.96 655.89 1358.06 655.452C1357.62 655.379 1357.18 655.306 1356.67 655.306Z" fill="#2E1E00"/>
<path d="M1522.72 478.506C1522.64 478.506 1522.5 478.506 1522.43 478.433C1522.06 478.287 1521.91 477.848 1522.06 477.483L1530.68 459.211C1530.83 458.845 1531.26 458.699 1531.63 458.845C1531.99 458.992 1532.14 459.43 1531.99 459.796L1523.37 478.068C1523.23 478.36 1523.01 478.506 1522.72 478.506Z" fill="#2E1E00"/>
<path d="M1509.71 696.454C1509.64 696.454 1509.49 696.454 1509.42 696.381C1509.06 696.235 1508.91 695.796 1509.06 695.431L1517.68 677.159C1517.82 676.793 1518.26 676.647 1518.63 676.793C1518.99 676.94 1519.14 677.378 1518.99 677.744L1510.37 696.016C1510.22 696.308 1510.01 696.454 1509.71 696.454Z" fill="#2E1E00"/>
<path d="M1511.68 544.724C1511.61 544.724 1511.54 544.724 1511.46 544.724C1511.1 544.577 1510.88 544.212 1510.95 543.847L1517.82 520.897C1517.96 520.532 1518.33 520.312 1518.69 520.385C1519.06 520.532 1519.28 520.897 1519.21 521.262L1512.34 544.212C1512.34 544.504 1512.05 544.724 1511.68 544.724Z" fill="#2E1E00"/>
</svg>
