<svg width="339" height="322" viewBox="0 0 339 322" fill="none" xmlns="http://www.w3.org/2000/svg">
<path d="M119.104 122.548C121.474 126.176 127.138 127.287 134.802 126.139C146.02 124.473 161.496 118.068 177.046 107.96C182.895 104.147 188.264 100.149 193.003 96.113C209.478 82.1181 218.401 67.8642 213.847 60.8668C209.367 54.0174 193.188 56.2018 174.121 65.2355C173.084 65.7168 172.048 66.2351 171.011 66.7535C166.087 69.234 161.015 72.1589 155.905 75.4539C144.65 82.7846 135.172 90.8557 128.508 98.4084C127.545 99.5191 126.62 100.593 125.768 101.666C118.919 110.33 116.142 117.994 119.104 122.548Z" fill="#FDEAA7" stroke="#2E1E00" stroke-width="1.5" stroke-miterlimit="10" stroke-linecap="round" stroke-linejoin="round"/>
<path d="M125.768 101.666C129.359 107.516 132.877 117.957 134.802 126.139C136.061 131.544 136.986 137.024 137.69 142.096C139.356 154.092 139.726 163.681 139.726 163.681V195.187C142.577 196.816 144.983 198.297 145.835 202.037C147.316 208.59 146.649 216.069 145.501 222.622C145.057 225.287 144.502 230.582 140.874 230.804C140.54 230.804 140.244 230.804 139.948 230.804L141.059 268.753H169.9C169.9 268.086 169.9 267.457 169.9 266.791C169.9 255.906 169.604 241.837 168.826 223.658C174.158 225.88 183.117 224.14 183.117 224.14L184.413 268.79H213.217C213.291 251.796 212.625 226.546 210.44 189.042C209.885 179.341 209.108 170.382 208.182 162.163C207.219 153.647 206.072 145.909 204.813 138.838C201.481 120.252 197.297 106.405 193.039 96.15C190.892 90.9667 188.412 85.9315 185.487 81.1185C182.155 75.6391 178.156 70.1226 174.306 65.5317L174.158 65.2725C169.233 67.7531 161.014 72.1959 155.942 75.528C144.687 82.8586 135.209 90.9297 128.545 98.4825L125.768 101.666Z" fill="#ADF0E7" stroke="#2E1E00" stroke-width="1.5" stroke-miterlimit="10" stroke-linecap="round" stroke-linejoin="round"/>
<path d="M204.777 138.801C206.036 145.872 207.184 153.61 208.146 162.126L245.429 159.682C248.613 163.644 255.166 164.754 259.905 162.977C266.569 160.497 269.235 152.463 266.051 146.317C263.644 141.652 258.683 138.801 253.426 138.801H204.777Z" fill="#ADF0E7" stroke="#2E1E00" stroke-width="1.5" stroke-miterlimit="10" stroke-linecap="round" stroke-linejoin="round"/>
<path d="M242.023 33.9878H249.428V321.4H242.023V33.9878Z" fill="#FEFFFA" stroke="#2E1E00" stroke-width="1.5" stroke-miterlimit="10" stroke-linecap="round" stroke-linejoin="round"/>
<path d="M251.611 163.384C251.611 163.384 237.616 159.46 239.393 148.686C241.17 137.912 257.275 145.428 257.275 145.428" fill="#ADF0E7"/>
<path d="M251.611 163.384C251.611 163.384 237.616 159.46 239.393 148.686C241.17 137.912 257.275 145.428 257.275 145.428" stroke="#2E1E00" stroke-width="1.5" stroke-miterlimit="10" stroke-linecap="round" stroke-linejoin="round"/>
<path d="M126.065 206.887C129.472 208.664 133.285 211.256 134.803 214.921C137.135 220.474 134.322 230.212 139.912 230.804C140.208 230.841 140.505 230.841 140.838 230.804C144.466 230.582 145.021 225.287 145.466 222.622C146.613 216.069 147.28 208.59 145.799 202.037C144.984 198.297 142.541 196.816 139.69 195.187C139.024 194.817 138.32 194.41 137.617 194.003C132.952 191.189 128.176 188.56 123.4 185.969C122.992 185.746 122.918 185.191 123.215 184.821L139.69 166.939V163.681C139.69 163.681 139.357 154.092 137.654 142.096C126.695 150.056 116.55 160.052 108.739 171.048C106.406 174.343 103.555 178.194 102.333 182.081C98.409 194.928 117.513 202.481 126.065 206.887Z" fill="#ADF0E7" stroke="#2E1E00" stroke-width="1.5" stroke-miterlimit="10" stroke-linecap="round" stroke-linejoin="round"/>
<path d="M120.104 83.6731C120.104 90.3743 122.214 96.5942 125.806 101.666C126.657 100.593 127.583 99.5191 128.545 98.4084C135.21 90.8556 144.688 82.7845 155.943 75.4539C161.052 72.1218 166.124 69.234 171.048 66.7534C172.085 66.2351 173.159 65.7168 174.158 65.2355C168.679 57.7938 159.978 53.0178 150.167 53.0178C133.544 52.9808 120.104 66.7164 120.104 83.6731Z" fill="#F9A058" stroke="#2E1E00" stroke-width="1.5" stroke-miterlimit="10" stroke-linecap="round" stroke-linejoin="round"/>
<path d="M284.561 91.7072C284.561 99.4451 286.153 106.368 288.671 111.107C290.781 115.032 293.521 117.438 296.52 117.438C303.11 117.438 308.479 105.924 308.479 91.7442C308.479 88.4121 308.182 85.2281 307.627 82.3033C305.887 72.7883 301.555 66.05 296.52 66.05C289.93 66.013 284.561 77.4902 284.561 91.7072Z" fill="#FDEAA7" stroke="#2E1E00" stroke-width="1.5" stroke-miterlimit="10" stroke-linecap="round" stroke-linejoin="round"/>
<path d="M41.9119 74.1581C34.0805 74.1581 27.7319 59.1404 27.7319 40.615C27.7319 22.0896 34.0805 7.07184 41.9119 7.07184C49.7432 7.07184 56.0918 22.0896 56.0918 40.615C56.0918 59.1404 49.7432 74.1581 41.9119 74.1581Z" fill="#FDEAA7" stroke="#2E1E00" stroke-width="1.5" stroke-miterlimit="10" stroke-linecap="round" stroke-linejoin="round"/>
<path d="M97.3726 66.8645C98.8165 65.939 100.149 64.458 101.371 62.5698C100.186 64.0878 98.8535 65.5317 97.3726 66.8645Z" fill="#ADF0E7" stroke="#2E1E00" stroke-width="1.5" stroke-miterlimit="10" stroke-linecap="round" stroke-linejoin="round"/>
<path d="M79.3796 34.5432C79.3796 48.2048 82.8227 59.9782 87.7839 65.1985C87.7839 65.1985 88.6724 51.796 96.2992 36.6535C98.8909 31.5072 102.223 26.1388 106.555 21.0667C104.37 9.2562 99.3722 1 93.5595 1C87.932 1 83.0449 8.7749 80.7494 19.993C79.8979 24.3988 79.3796 29.3229 79.3796 34.5432Z" fill="#FDEAA7" stroke="#2E1E00" stroke-width="1.5" stroke-miterlimit="10" stroke-linecap="round" stroke-linejoin="round"/>
<path d="M64.6808 70.863C70.8637 76.1944 73.8996 83.2288 75.3065 88.0789C77.0095 85.1911 78.9348 82.4513 81.1191 79.9708C78.5275 72.7142 74.6401 68.1233 70.3083 68.1233C68.272 68.1233 66.3838 69.0859 64.6808 70.863Z" fill="#50C56E" stroke="#2E1E00" stroke-width="1.5" stroke-miterlimit="10" stroke-linecap="round" stroke-linejoin="round"/>
<path d="M184.636 277.194L185.192 296.965L185.895 321.4H227.287C227.287 300.963 210.404 303.37 210.404 303.37C210.404 303.37 211.33 302.259 212.108 294.817C212.515 290.93 212.885 285.302 213.07 277.194H184.636Z" fill="#FA6456" stroke="#2E1E00" stroke-width="1.5" stroke-miterlimit="10" stroke-linecap="round" stroke-linejoin="round"/>
<path d="M141.281 277.194L141.947 300.445L142.54 321.4H183.932C183.932 300.963 167.049 303.37 167.049 303.37C167.049 303.37 167.715 302.74 168.382 298.297C168.937 294.558 169.53 288.153 169.789 277.157H141.281V277.194Z" fill="#FA6456" stroke="#2E1E00" stroke-width="1.5" stroke-miterlimit="10" stroke-linecap="round" stroke-linejoin="round"/>
<path d="M141.022 268.753L141.281 277.194H169.789C169.826 274.64 169.863 271.826 169.9 268.753H141.022Z" fill="#FEFFFA" stroke="#2E1E00" stroke-width="1.5" stroke-miterlimit="10" stroke-linecap="round" stroke-linejoin="round"/>
<path d="M184.415 268.753L184.637 277.194H213.108C213.145 274.64 213.182 271.826 213.219 268.753H184.415Z" fill="#FEFFFA" stroke="#2E1E00" stroke-width="1.5" stroke-miterlimit="10" stroke-linecap="round" stroke-linejoin="round"/>
<path d="M296.52 117.401V312.033" stroke="#2E1E00" stroke-width="1.5" stroke-miterlimit="10" stroke-linecap="round" stroke-linejoin="round"/>
<path d="M270.604 304.999C270.604 304.999 295.187 319.919 312.884 306.294C323.214 298.334 322.621 276.972 322.621 276.972L325.583 277.935L327.768 271.011C327.657 270.863 327.545 270.715 327.471 270.567C324.584 266.605 319.882 264.495 314.995 265.495C309.737 266.605 305.924 270.863 303.147 275.232C302.666 276.009 300.074 282.34 299.63 282.34C274.01 284.08 270.604 304.999 270.604 304.999Z" fill="#FFDC38" stroke="#2E1E00" stroke-width="1.5" stroke-miterlimit="10" stroke-linecap="round" stroke-linejoin="round"/>
<path d="M281.082 33.9878H210.367" stroke="#2E1E00" stroke-width="1.5" stroke-miterlimit="10" stroke-linecap="round" stroke-linejoin="round"/>
<path d="M245.725 33.9878V22.3995" stroke="#2E1E00" stroke-width="1.5" stroke-miterlimit="10" stroke-linecap="round" stroke-linejoin="round"/>
<path d="M281.082 33.9878V22.3995" stroke="#2E1E00" stroke-width="1.5" stroke-miterlimit="10" stroke-linecap="round" stroke-linejoin="round"/>
<path d="M210.367 33.9878V22.3995" stroke="#2E1E00" stroke-width="1.5" stroke-miterlimit="10" stroke-linecap="round" stroke-linejoin="round"/>
<path d="M303.703 293.077C303.703 293.077 301.111 305.887 285.154 301.889" stroke="#2E1E00" stroke-width="1.5" stroke-miterlimit="10" stroke-linecap="round" stroke-linejoin="round"/>
<path d="M325.62 277.935L332.729 280.23C332.136 279.193 331.322 277.564 331.062 277.083C330.174 275.417 329.359 273.677 328.434 272.048C328.249 271.678 328.027 271.344 327.767 271.011L325.62 277.935Z" fill="#FA6456" stroke="#2E1E00" stroke-width="1.5" stroke-miterlimit="10" stroke-linecap="round" stroke-linejoin="round"/>
<path d="M322.845 271.53C322.19 271.53 321.66 270.999 321.66 270.345C321.66 269.691 322.19 269.16 322.845 269.16C323.499 269.16 324.029 269.691 324.029 270.345C324.029 270.999 323.499 271.53 322.845 271.53Z" fill="#2E1E00"/>
<path d="M317.625 271.091C316.706 270.643 316.658 268.85 317.518 267.085C318.377 265.32 319.819 264.253 320.738 264.7C321.657 265.148 321.706 266.942 320.846 268.706C319.986 270.471 318.544 271.539 317.625 271.091Z" fill="#2E1E00"/>
<path d="M296.52 312.033V321.4" stroke="#2E1E00" stroke-width="1.5" stroke-miterlimit="10" stroke-linecap="round" stroke-linejoin="round"/>
<path d="M301.297 311.478V321.4" stroke="#2E1E00" stroke-width="1.5" stroke-miterlimit="10" stroke-linecap="round" stroke-linejoin="round"/>
<path d="M296.52 217.661L275.638 188.968L259.496 232.211L278.008 210.589L296.52 226.879V217.661Z" fill="#50C56E" stroke="#2E1E00" stroke-width="1.5" stroke-miterlimit="10" stroke-linecap="round" stroke-linejoin="round"/>
<path d="M296.521 148.131L307.554 129.249L337.469 187.487L308.887 151.574L296.521 166.976V148.131Z" fill="#50C56E" stroke="#2E1E00" stroke-width="1.5" stroke-miterlimit="10" stroke-linecap="round" stroke-linejoin="round"/>
<path d="M278.01 210.589L282.342 205.85" stroke="#2E1E00" stroke-width="1.5" stroke-miterlimit="10" stroke-linecap="round" stroke-linejoin="round"/>
<path d="M308.886 151.574L311.996 147.909" stroke="#2E1E00" stroke-width="1.5" stroke-miterlimit="10" stroke-linecap="round" stroke-linejoin="round"/>
<path d="M288.671 111.07C290.781 114.995 293.521 117.401 296.52 117.401C303.11 117.401 308.479 105.887 308.479 91.7072C308.479 88.3751 308.182 85.1911 307.627 82.2662C302.629 85.4873 294.336 93.2622 288.671 111.07Z" fill="#50C56E" stroke="#2E1E00" stroke-width="1.5" stroke-miterlimit="10" stroke-linecap="round" stroke-linejoin="round"/>
<path d="M304.369 111.07C302.259 114.995 299.519 117.401 296.52 117.401C289.93 117.401 284.562 105.887 284.562 91.7072C284.562 88.3751 284.858 85.1911 285.413 82.2662C290.411 85.4873 298.742 93.2622 304.369 111.07Z" fill="#50C56E" stroke="#2E1E00" stroke-width="1.5" stroke-miterlimit="10" stroke-linecap="round" stroke-linejoin="round"/>
<path d="M70.3086 135.21V321.4" stroke="#2E1E00" stroke-width="1.5" stroke-miterlimit="10" stroke-linecap="round" stroke-linejoin="round"/>
<path d="M41.9114 74.1951L42.4668 321.4" stroke="#2E1E00" stroke-width="1.5" stroke-miterlimit="10" stroke-linecap="round" stroke-linejoin="round"/>
<path d="M93.5963 68.1233L95.5586 321.4" stroke="#2E1E00" stroke-width="1.5" stroke-miterlimit="10" stroke-linecap="round" stroke-linejoin="round"/>
<path d="M42.4668 281.822L21.5856 253.129L5.40644 296.372L23.9181 274.751L42.4668 291.041V281.822Z" fill="#50C56E" stroke="#2E1E00" stroke-width="1.5" stroke-miterlimit="10" stroke-linecap="round" stroke-linejoin="round"/>
<path d="M23.9183 274.751L28.25 270.049" stroke="#2E1E00" stroke-width="1.5" stroke-miterlimit="10" stroke-linecap="round" stroke-linejoin="round"/>
<path d="M42.2807 201.852L53.3137 182.97L83.2285 241.207L54.6465 205.295L42.2807 220.697V201.852Z" fill="#50C56E" stroke="#2E1E00" stroke-width="1.5" stroke-miterlimit="10" stroke-linecap="round" stroke-linejoin="round"/>
<path d="M54.6479 205.295L57.7578 201.63" stroke="#2E1E00" stroke-width="1.5" stroke-miterlimit="10" stroke-linecap="round" stroke-linejoin="round"/>
<path d="M95.3354 272.677L106.331 253.795L136.283 312.033L107.701 276.12L95.3354 291.522V272.677Z" fill="#50C56E" stroke="#2E1E00" stroke-width="1.5" stroke-miterlimit="10" stroke-linecap="round" stroke-linejoin="round"/>
<path d="M107.886 276.12L110.996 272.455" stroke="#2E1E00" stroke-width="1.5" stroke-miterlimit="10" stroke-linecap="round" stroke-linejoin="round"/>
<path d="M41.9102 120.548L30.9142 101.667L0.999363 159.904L29.5444 123.992L41.9102 139.43V120.548Z" fill="#50C56E" stroke="#2E1E00" stroke-width="1.5" stroke-miterlimit="10" stroke-linecap="round" stroke-linejoin="round"/>
<path d="M29.5449 123.992L26.435 120.326" stroke="#2E1E00" stroke-width="1.5" stroke-miterlimit="10" stroke-linecap="round" stroke-linejoin="round"/>
<path d="M87.8205 65.1985C89.5976 67.0497 91.5228 68.0863 93.5961 68.0863C94.929 68.0863 96.1878 67.642 97.4096 66.8645C98.8905 65.5317 100.186 64.0878 101.408 62.5698C115.884 44.2803 112.441 14.9578 112.441 14.9578C110.331 16.9201 108.368 18.9563 106.591 21.0667C89.4125 41.2074 87.8205 65.1985 87.8205 65.1985Z" fill="#50C56E" stroke="#2E1E00" stroke-width="1.5" stroke-miterlimit="10" stroke-linecap="round" stroke-linejoin="round"/>
<path d="M36.2834 71.2703C38.0605 73.1214 39.9857 74.1581 42.0591 74.1581C43.3919 74.1581 44.6507 73.7138 45.8725 72.9363C47.3534 71.6035 48.6492 70.1596 49.871 68.6416C64.3471 50.3521 60.9039 21.0296 60.9039 21.0296C58.7936 22.9918 56.8314 25.0281 55.0542 27.1385C37.9124 47.2792 36.2834 71.2703 36.2834 71.2703Z" fill="#50C56E" stroke="#2E1E00" stroke-width="1.5" stroke-miterlimit="10" stroke-linecap="round" stroke-linejoin="round"/>
<path d="M47.6504 71.2703C45.8733 73.1214 43.9481 74.1581 41.8748 74.1581C40.5419 74.1581 39.2831 73.7138 38.0613 72.9363C36.5804 71.6035 35.2846 70.1596 34.0628 68.6416C19.5867 50.3521 23.0299 21.0296 23.0299 21.0296C25.1402 22.9918 27.1024 25.0281 28.8796 27.1385C46.0214 47.2792 47.6504 71.2703 47.6504 71.2703Z" fill="#50C56E" stroke="#2E1E00" stroke-width="1.5" stroke-miterlimit="10" stroke-linecap="round" stroke-linejoin="round"/>
<path d="M79.3792 34.5432C79.3792 48.2048 82.8223 59.9782 87.7835 65.1985C87.7835 65.1985 88.672 51.796 96.2988 36.6535C94.6328 32.2107 90.5602 25.0282 80.786 19.993C79.8975 24.3988 79.3792 29.3229 79.3792 34.5432Z" fill="#50C56E" stroke="#2E1E00" stroke-width="1.5" stroke-miterlimit="10" stroke-linecap="round" stroke-linejoin="round"/>
<path d="M62.4593 129.656C63.6811 131.581 65.0139 133.062 66.4578 133.988C67.6796 134.802 68.9754 135.21 70.2712 135.21C78.1202 135.21 84.4512 120.178 84.4512 101.666C84.4512 93.3732 83.1924 85.7835 81.082 79.9338C78.8977 82.4143 76.9724 85.1541 75.2694 88.0419C66.4948 102.925 63.4219 121.77 62.4593 129.656Z" fill="#50C56E" stroke="#2E1E00" stroke-width="1.5" stroke-miterlimit="10" stroke-linecap="round" stroke-linejoin="round"/>
<path d="M56.0915 101.666C56.0915 113.329 58.6091 123.621 62.4595 129.656C63.4221 121.807 66.5321 102.925 75.3066 88.0789C73.8627 83.2288 70.8638 76.1944 64.6809 70.863C59.6087 76.0093 56.0915 87.8567 56.0915 101.666Z" fill="#50C56E" stroke="#2E1E00" stroke-width="1.5" stroke-miterlimit="10" stroke-linecap="round" stroke-linejoin="round"/>
<path d="M130.878 112.885L174.084 87.9308L195.262 75.7131" fill="#ADF0E7"/>
<path d="M130.878 112.885L174.084 87.9308L195.262 75.7131" stroke="#2E1E00" stroke-width="1.5" stroke-miterlimit="10" stroke-linecap="round" stroke-linejoin="round"/>
<path d="M202.777 128.471C202.777 128.471 184.155 151.537 137.727 142.096" stroke="#FEFFFA" stroke-width="1.5" stroke-miterlimit="10" stroke-linecap="round" stroke-linejoin="round"/>
<path d="M195.261 76.0463C195.261 76.0463 197.149 87.9308 190.188 91.9293C183.265 95.9279 176.786 86.561 176.786 86.561L195.261 76.0463Z" fill="#2E1E00" stroke="#2E1E00" stroke-width="1.5" stroke-miterlimit="10" stroke-linecap="round" stroke-linejoin="round"/>
<path d="M155.868 99.0378C155.868 99.0378 165.235 106.591 172.158 102.592C179.082 98.5935 174.195 88.301 174.195 88.301L155.868 99.0378Z" fill="#2E1E00" stroke="#2E1E00" stroke-width="1.5" stroke-miterlimit="10" stroke-linecap="round" stroke-linejoin="round"/>
<path d="M181.674 99.7413C180.304 99.7413 179.193 98.6307 179.193 97.2607C179.193 95.8907 180.304 94.7802 181.674 94.7802C183.044 94.7802 184.154 95.8907 184.154 97.2607C184.154 98.6307 183.044 99.7413 181.674 99.7413Z" fill="#2E1E00"/>
<path d="M179.49 78.9342C176.198 78.9342 173.53 77.6412 173.53 76.0463C173.53 74.4514 176.198 73.1585 179.49 73.1585C182.782 73.1585 185.451 74.4514 185.451 76.0463C185.451 77.6412 182.782 78.9342 179.49 78.9342Z" fill="#2E1E00"/>
<path d="M156.748 90.9584C155.5 89.9978 156.107 87.1178 158.103 84.5258C160.099 81.9337 162.728 80.6111 163.976 81.5717C165.223 82.5322 164.616 85.4122 162.62 88.0043C160.624 90.5964 157.995 91.919 156.748 90.9584Z" fill="#2E1E00"/>
<path d="M132.878 118.882L144.059 112.885L131.286 113.995L132.878 118.882Z" fill="#2E1E00" stroke="#2E1E00" stroke-width="1.5" stroke-miterlimit="10" stroke-linecap="round" stroke-linejoin="round"/>
<path d="M134.025 122.992L151.352 121.437L136.098 132.322L134.025 122.992Z" fill="#2E1E00" stroke="#2E1E00" stroke-width="1.5" stroke-miterlimit="10" stroke-linecap="round" stroke-linejoin="round"/>
<path d="M186.598 106.072C186.043 104.443 184.858 103.073 182.97 103.481C181.452 103.814 180.304 105.184 179.601 106.48C177.232 110.885 176.602 112.773 172.159 115.402C171.826 115.587 171.789 116.106 172.122 116.328C173.677 117.364 177.713 119.29 182.637 115.883C184.821 114.365 186.672 111.922 186.969 109.182C187.08 108.294 186.969 107.146 186.598 106.072Z" fill="#2E1E00"/>
<path d="M184.673 106.628C183.858 105.11 183.673 103.332 185.265 102.222C186.524 101.333 188.338 101.444 189.745 101.815C194.595 103.073 196.372 103.925 201.333 102.481C201.703 102.37 202.074 102.703 202.036 103.073C201.74 104.887 200.37 109.182 194.558 110.441C191.929 110.996 188.93 110.7 186.709 109.034C185.968 108.479 185.191 107.59 184.673 106.628Z" fill="#2E1E00"/>
<path d="M191.301 221.141C191.301 221.141 186.229 223.695 183.082 224.14" stroke="#2E1E00" stroke-width="1.5" stroke-miterlimit="10" stroke-linecap="round" stroke-linejoin="round"/>
<path d="M210.441 303.407C210.441 303.407 205.665 303.814 203.814 306.369" stroke="#2E1E00" stroke-width="1.5" stroke-miterlimit="10" stroke-linecap="round" stroke-linejoin="round"/>
<path d="M167.086 303.37C167.086 303.37 162.31 303.777 160.459 306.331" stroke="#2E1E00" stroke-width="1.5" stroke-miterlimit="10" stroke-linecap="round" stroke-linejoin="round"/>
<path d="M192.67 143.91L190.856 137.875" stroke="#FEFFFA" stroke-width="1.5" stroke-miterlimit="10" stroke-linecap="round" stroke-linejoin="round"/>
<path d="M190.339 155.721C189.969 157.535 191.116 159.349 192.968 159.719C194.597 160.052 196.226 159.164 196.818 157.646C197.151 157.868 197.558 158.053 198.003 158.127C199.817 158.497 201.631 157.35 202.001 155.498C202.223 154.425 201.927 153.351 201.224 152.574C201.446 152.499 201.668 152.388 201.89 152.24C203.445 151.204 203.889 149.13 202.853 147.575C201.816 146.02 199.743 145.576 198.188 146.613C197.929 146.798 197.67 147.02 197.447 147.242C197.707 145.465 196.559 143.799 194.782 143.429C192.968 143.059 191.153 144.206 190.783 146.057C190.598 146.835 190.746 147.649 191.079 148.316C189.302 147.983 187.562 149.167 187.192 150.945C186.822 152.759 187.969 154.573 189.821 154.943C190.08 154.98 190.339 155.017 190.598 155.017C190.45 155.202 190.376 155.461 190.339 155.721Z" fill="#FEFFFA" stroke="#2E1E00" stroke-width="1.5" stroke-miterlimit="10" stroke-linecap="round" stroke-linejoin="round"/>
<path d="M123.398 185.969H114.439" stroke="#2E1E00" stroke-width="1.5" stroke-miterlimit="10" stroke-linecap="round" stroke-linejoin="round"/>
</svg>
