<svg width="428" height="297" viewBox="0 0 428 297" fill="none" xmlns="http://www.w3.org/2000/svg">
<path d="M367.414 269.72C367.414 269.72 365.029 281.508 350.346 277.829" stroke="#2E1E00" stroke-miterlimit="10" stroke-linecap="round" stroke-linejoin="round"/>
<path d="M360.805 287.164V295.783" stroke="#2E1E00" stroke-miterlimit="10" stroke-linecap="round" stroke-linejoin="round"/>
<path d="M365.2 286.652V295.783" stroke="#2E1E00" stroke-miterlimit="10" stroke-linecap="round" stroke-linejoin="round"/>
<path d="M360.805 108.066V287.164" stroke="#2E1E00" stroke-miterlimit="10" stroke-linecap="round" stroke-linejoin="round"/>
<path d="M336.956 280.69C336.956 280.69 359.577 294.42 375.862 281.883C385.367 274.558 384.822 254.901 384.822 254.901L387.548 255.786L389.558 249.415C389.455 249.279 389.353 249.143 389.285 249.007C386.628 245.361 382.301 243.419 377.804 244.339C372.966 245.361 369.457 249.279 366.902 253.299C366.459 254.015 364.074 259.84 363.666 259.84C340.09 261.442 336.956 280.69 336.956 280.69Z" fill="#FFDC38" stroke="#2E1E00" stroke-miterlimit="10" stroke-linecap="round" stroke-linejoin="round"/>
<path d="M387.582 255.786L394.124 257.899C393.578 256.945 392.829 255.446 392.59 255.003C391.773 253.47 391.023 251.869 390.172 250.37C390.001 250.029 389.797 249.722 389.558 249.416L387.582 255.786Z" fill="#FA6456" stroke="#2E1E00" stroke-miterlimit="10" stroke-linecap="round" stroke-linejoin="round"/>
<path d="M385.027 249.893C384.425 249.893 383.937 249.405 383.937 248.803C383.937 248.2 384.425 247.712 385.027 247.712C385.629 247.712 386.117 248.2 386.117 248.803C386.117 249.405 385.629 249.893 385.027 249.893Z" fill="#2E1E00"/>
<path d="M380.224 249.489C379.379 249.077 379.334 247.427 380.125 245.803C380.916 244.179 382.243 243.196 383.089 243.608C383.934 244.02 383.979 245.671 383.188 247.295C382.397 248.918 381.07 249.901 380.224 249.489Z" fill="#2E1E00"/>
<path d="M360.805 200.323L341.591 173.92L326.737 213.712L343.771 193.816L360.805 208.806V200.323Z" fill="#50C56E" stroke="#2E1E00" stroke-miterlimit="10" stroke-linecap="round" stroke-linejoin="round"/>
<path d="M360.805 136.342L370.958 118.968L398.485 172.557L372.184 139.511L360.805 153.683V136.342Z" fill="#50C56E" stroke="#2E1E00" stroke-miterlimit="10" stroke-linecap="round" stroke-linejoin="round"/>
<path d="M343.771 193.816L347.757 189.455" stroke="#2E1E00" stroke-miterlimit="10" stroke-linecap="round" stroke-linejoin="round"/>
<path d="M372.183 139.511L375.044 136.138" stroke="#2E1E00" stroke-miterlimit="10" stroke-linecap="round" stroke-linejoin="round"/>
<path d="M349.801 84.4218C349.801 91.5421 351.266 97.9129 353.582 102.274C355.524 105.885 358.045 108.099 360.805 108.099C366.869 108.099 371.809 97.5041 371.809 84.4559C371.809 81.3897 371.537 78.4598 371.026 75.7684C369.424 67.0128 365.438 60.8123 360.805 60.8123C354.741 60.7783 349.801 71.3395 349.801 84.4218Z" fill="#FDEAA7" stroke="#2E1E00" stroke-miterlimit="10" stroke-linecap="round" stroke-linejoin="round"/>
<path d="M353.582 102.24C355.524 105.851 358.045 108.065 360.805 108.065C366.869 108.065 371.809 97.4701 371.809 84.4218C371.809 81.3557 371.537 78.4258 371.026 75.7344C366.426 78.6983 358.795 85.8527 353.582 102.24Z" fill="#50C56E" stroke="#2E1E00" stroke-miterlimit="10" stroke-linecap="round" stroke-linejoin="round"/>
<path d="M368.027 102.24C366.085 105.851 363.564 108.065 360.804 108.065C354.74 108.065 349.8 97.4701 349.8 84.4218C349.8 81.3557 350.073 78.4258 350.584 75.7344C355.183 78.6983 362.848 85.8527 368.027 102.24Z" fill="#50C56E" stroke="#2E1E00" stroke-miterlimit="10" stroke-linecap="round" stroke-linejoin="round"/>
<path d="M118.196 61.6077C119.524 60.756 120.751 59.3933 121.875 57.6558C120.785 59.0526 119.558 60.3812 118.196 61.6077Z" fill="#ADF0E7" stroke="#2E1E00" stroke-miterlimit="10" stroke-linecap="round" stroke-linejoin="round"/>
<path d="M101.638 31.8661C101.638 44.4373 104.807 55.2711 109.372 60.0748C109.372 60.0748 110.189 47.742 117.208 33.808C119.592 29.0724 122.659 24.1325 126.645 19.4651C124.634 8.59727 120.035 1 114.686 1C109.508 1 105.011 8.15438 102.899 18.4771C102.115 22.5313 101.638 27.0624 101.638 31.8661Z" fill="#FDEAA7" stroke="#2E1E00" stroke-miterlimit="10" stroke-linecap="round" stroke-linejoin="round"/>
<path d="M93.291 124.498V295.828" stroke="#2E1E00" stroke-miterlimit="10" stroke-linecap="round" stroke-linejoin="round"/>
<path d="M67.1618 68.3536L67.6729 295.829" stroke="#2E1E00" stroke-miterlimit="10" stroke-linecap="round" stroke-linejoin="round"/>
<path d="M114.721 62.7661L116.526 295.829" stroke="#2E1E00" stroke-miterlimit="10" stroke-linecap="round" stroke-linejoin="round"/>
<path d="M67.6729 259.409L48.4582 233.006L33.5703 272.798L50.6045 252.902L67.6729 267.892V259.409Z" fill="#50C56E" stroke="#2E1E00" stroke-miterlimit="10" stroke-linecap="round" stroke-linejoin="round"/>
<path d="M50.6029 252.902L54.5889 248.576" stroke="#2E1E00" stroke-miterlimit="10" stroke-linecap="round" stroke-linejoin="round"/>
<path d="M67.5019 185.822L77.6543 168.447L105.182 222.036L78.8808 188.99L67.5019 203.163V185.822Z" fill="#50C56E" stroke="#2E1E00" stroke-miterlimit="10" stroke-linecap="round" stroke-linejoin="round"/>
<path d="M78.8814 188.99L81.7432 185.617" stroke="#2E1E00" stroke-miterlimit="10" stroke-linecap="round" stroke-linejoin="round"/>
<path d="M116.322 250.995L126.441 233.62L154.002 287.209L127.701 254.163L116.322 268.335V250.995Z" fill="#50C56E" stroke="#2E1E00" stroke-miterlimit="10" stroke-linecap="round" stroke-linejoin="round"/>
<path d="M127.871 254.163L130.732 250.79" stroke="#2E1E00" stroke-miterlimit="10" stroke-linecap="round" stroke-linejoin="round"/>
<path d="M67.1611 111.007L57.0428 93.6323L29.5155 147.222L55.7822 114.176L67.1611 128.382V111.007Z" fill="#50C56E" stroke="#2E1E00" stroke-miterlimit="10" stroke-linecap="round" stroke-linejoin="round"/>
<path d="M55.7822 114.176L52.9205 110.803" stroke="#2E1E00" stroke-miterlimit="10" stroke-linecap="round" stroke-linejoin="round"/>
<path d="M109.407 60.0747C111.042 61.7781 112.814 62.732 114.721 62.732C115.948 62.732 117.106 62.3232 118.231 61.6078C119.593 60.3813 120.786 59.0526 121.91 57.6558C135.231 40.826 132.062 13.8438 132.062 13.8438C130.12 15.6494 128.315 17.5231 126.68 19.4651C110.872 37.9983 109.407 60.0747 109.407 60.0747Z" fill="#50C56E" stroke="#2E1E00" stroke-miterlimit="10" stroke-linecap="round" stroke-linejoin="round"/>
<path d="M67.1617 68.3193C59.9554 68.3193 54.1135 54.5001 54.1135 37.4532C54.1135 20.4064 59.9554 6.58716 67.1617 6.58716C74.3681 6.58716 80.21 20.4064 80.21 37.4532C80.21 54.5001 74.3681 68.3193 67.1617 68.3193Z" fill="#FDEAA7" stroke="#2E1E00" stroke-miterlimit="10" stroke-linecap="round" stroke-linejoin="round"/>
<path d="M61.982 65.6621C63.6173 67.3655 65.3889 68.3194 67.2967 68.3194C68.5232 68.3194 69.6815 67.9106 70.8058 67.1952C72.1685 65.9687 73.3609 64.64 74.4852 63.2432C87.8059 46.4134 84.6376 19.4312 84.6376 19.4312C82.6957 21.2368 80.89 23.1105 79.2547 25.0525C63.481 43.5857 61.982 65.6621 61.982 65.6621Z" fill="#50C56E" stroke="#2E1E00" stroke-miterlimit="10" stroke-linecap="round" stroke-linejoin="round"/>
<path d="M72.4424 65.6621C70.8071 67.3655 69.0355 68.3194 67.1277 68.3194C65.9012 68.3194 64.7429 67.9106 63.6186 67.1952C62.2559 65.9687 61.0635 64.64 59.9392 63.2432C46.6185 46.4134 49.7868 19.4312 49.7868 19.4312C51.7287 21.2368 53.5344 23.1105 55.1697 25.0525C70.9434 43.5857 72.4424 65.6621 72.4424 65.6621Z" fill="#50C56E" stroke="#2E1E00" stroke-miterlimit="10" stroke-linecap="round" stroke-linejoin="round"/>
<path d="M101.64 31.866C101.64 44.4373 104.808 55.2711 109.373 60.0747C109.373 60.0747 110.191 47.7419 117.209 33.8079C115.676 29.7197 111.928 23.1104 102.934 18.4771C102.117 22.5313 101.64 27.0624 101.64 31.866Z" fill="#50C56E" stroke="#2E1E00" stroke-miterlimit="10" stroke-linecap="round" stroke-linejoin="round"/>
<path d="M88.1138 65.2872C93.8033 70.1931 96.5969 76.6661 97.8915 81.129C99.4586 78.4717 101.23 75.9506 103.24 73.668C100.855 66.9906 97.2782 62.7661 93.2922 62.7661C91.4185 62.7661 89.681 63.6519 88.1138 65.2872Z" fill="#50C56E" stroke="#2E1E00" stroke-miterlimit="10" stroke-linecap="round" stroke-linejoin="round"/>
<path d="M86.069 119.388C87.1932 121.16 88.4197 122.522 89.7484 123.374C90.8726 124.124 92.065 124.498 93.2574 124.498C100.48 124.498 106.306 110.666 106.306 93.6322C106.306 86.0009 105.147 79.0169 103.205 73.634C101.195 75.9166 99.4238 78.4377 97.8567 81.095C89.7824 94.7906 86.9548 112.131 86.069 119.388Z" fill="#50C56E" stroke="#2E1E00" stroke-miterlimit="10" stroke-linecap="round" stroke-linejoin="round"/>
<path d="M80.2081 93.6323C80.2081 104.364 82.5248 113.835 86.0679 119.388C86.9537 112.166 89.8154 94.7907 97.8896 81.1292C96.561 76.6662 93.8014 70.1932 88.112 65.2874C83.4446 70.0229 80.2081 80.9248 80.2081 93.6323Z" fill="#50C56E" stroke="#2E1E00" stroke-miterlimit="10" stroke-linecap="round" stroke-linejoin="round"/>
<path d="M163.744 112.479C165.924 115.818 171.136 116.84 178.189 115.784C188.511 114.251 202.752 108.357 217.061 99.056C222.444 95.5469 227.383 91.8675 231.744 88.154C246.905 75.2762 255.115 62.1598 250.925 55.7209C246.802 49.4182 231.915 51.4282 214.369 59.7409C213.415 60.1838 212.461 60.6608 211.508 61.1377C206.976 63.4203 202.309 66.1117 197.608 69.1438C187.251 75.8894 178.529 83.3163 172.397 90.2663C171.511 91.2884 170.659 92.2763 169.876 93.2643C163.573 101.236 161.018 108.289 163.744 112.479Z" fill="#FDEAA7" stroke="#2E1E00" stroke-miterlimit="10" stroke-linecap="round" stroke-linejoin="round"/>
<path d="M169.876 93.2645C173.18 98.6473 176.417 108.255 178.189 115.784C179.347 120.758 180.199 125.8 180.846 130.467C182.379 141.505 182.72 150.329 182.72 150.329V179.321C185.343 180.82 187.557 182.183 188.341 185.624C189.704 191.654 189.09 198.536 188.034 204.566C187.625 207.019 187.114 211.891 183.776 212.095C183.469 212.095 183.197 212.095 182.924 212.095L183.946 247.016H210.485C210.485 246.402 210.485 245.823 210.485 245.21C210.485 235.194 210.213 222.248 209.497 205.52C214.403 207.564 222.648 205.963 222.648 205.963L223.84 247.05H250.346C250.414 231.412 249.8 208.177 247.79 173.666C247.279 164.74 246.564 156.496 245.712 148.932C244.826 141.097 243.77 133.976 242.612 127.469C239.546 110.367 235.696 97.6252 231.778 88.1883C229.802 83.4187 227.52 78.7854 224.828 74.3565C221.762 69.3143 218.083 64.2381 214.54 60.0136L214.403 59.7751C209.872 62.0577 202.309 66.1459 197.642 69.2121C187.285 75.9577 178.563 83.3846 172.431 90.3346L169.876 93.2645Z" fill="#ADF0E7" stroke="#2E1E00" stroke-miterlimit="10" stroke-linecap="round" stroke-linejoin="round"/>
<path d="M242.58 127.435C243.738 133.942 244.794 141.062 245.68 148.898L279.987 146.65C282.917 150.295 288.947 151.317 293.308 149.682C299.44 147.399 301.893 140.006 298.963 134.351C296.749 130.058 292.183 127.435 287.346 127.435H242.58Z" fill="#ADF0E7" stroke="#2E1E00" stroke-miterlimit="10" stroke-linecap="round" stroke-linejoin="round"/>
<path d="M276.851 30.9873H283.665V295.461H276.851V30.9873Z" fill="#FEFFFA" stroke="#2E1E00" stroke-miterlimit="10" stroke-linecap="round" stroke-linejoin="round"/>
<path d="M285.675 150.057C285.675 150.057 272.797 146.445 274.432 136.531C276.067 126.617 290.887 133.533 290.887 133.533" fill="#ADF0E7"/>
<path d="M285.675 150.057C285.675 150.057 272.797 146.445 274.432 136.531C276.067 126.617 290.887 133.533 290.887 133.533" stroke="#2E1E00" stroke-miterlimit="10" stroke-linecap="round" stroke-linejoin="round"/>
<path d="M170.148 190.087C173.282 191.722 176.791 194.107 178.188 197.48C180.334 202.59 177.745 211.55 182.89 212.095C183.162 212.129 183.435 212.129 183.741 212.095C187.08 211.891 187.591 207.019 188 204.566C189.056 198.536 189.669 191.654 188.306 185.624C187.557 182.183 185.308 180.82 182.685 179.321C182.072 178.981 181.425 178.606 180.777 178.231C176.485 175.642 172.09 173.223 167.695 170.838C167.32 170.634 167.252 170.123 167.525 169.782L182.685 153.327V150.329C182.685 150.329 182.379 141.505 180.811 130.467C170.727 137.792 161.392 146.99 154.204 157.109C152.058 160.141 149.434 163.684 148.31 167.261C144.699 179.083 162.278 186.033 170.148 190.087Z" fill="#ADF0E7" stroke="#2E1E00" stroke-miterlimit="10" stroke-linecap="round" stroke-linejoin="round"/>
<path d="M164.662 76.7071C164.662 82.8735 166.604 88.597 169.909 93.2644C170.692 92.2764 171.544 91.2884 172.43 90.2663C178.562 83.3164 187.284 75.8894 197.641 69.1439C202.342 66.0777 207.009 63.4204 211.541 61.1378C212.495 60.6608 213.482 60.1839 214.402 59.741C209.36 52.8932 201.354 48.4984 192.326 48.4984C177.029 48.4643 164.662 61.1037 164.662 76.7071Z" fill="#F9A058" stroke="#2E1E00" stroke-miterlimit="10" stroke-linecap="round" stroke-linejoin="round"/>
<path d="M224.045 254.783L224.556 272.975L225.203 295.461H263.292C263.292 276.655 247.757 278.869 247.757 278.869C247.757 278.869 248.608 277.847 249.324 270.999C249.699 267.422 250.039 262.244 250.21 254.783H224.045Z" fill="#FA6456" stroke="#2E1E00" stroke-miterlimit="10" stroke-linecap="round" stroke-linejoin="round"/>
<path d="M184.151 254.783L184.764 276.178L185.309 295.461H223.397C223.397 276.655 207.862 278.87 207.862 278.87C207.862 278.87 208.475 278.291 209.089 274.202C209.6 270.761 210.145 264.868 210.383 254.749H184.151V254.783Z" fill="#FA6456" stroke="#2E1E00" stroke-miterlimit="10" stroke-linecap="round" stroke-linejoin="round"/>
<path d="M183.911 247.016L184.149 254.783H210.382C210.416 252.433 210.45 249.844 210.484 247.016H183.911Z" fill="#FEFFFA" stroke="#2E1E00" stroke-miterlimit="10" stroke-linecap="round" stroke-linejoin="round"/>
<path d="M223.841 247.016L224.045 254.783H250.244C250.278 252.433 250.312 249.844 250.346 247.016H223.841Z" fill="#FEFFFA" stroke="#2E1E00" stroke-miterlimit="10" stroke-linecap="round" stroke-linejoin="round"/>
<path d="M312.793 30.9873H247.723" stroke="#2E1E00" stroke-miterlimit="10" stroke-linecap="round" stroke-linejoin="round"/>
<path d="M280.257 30.9872V20.3237" stroke="#2E1E00" stroke-miterlimit="10" stroke-linecap="round" stroke-linejoin="round"/>
<path d="M312.793 30.9872V20.3237" stroke="#2E1E00" stroke-miterlimit="10" stroke-linecap="round" stroke-linejoin="round"/>
<path d="M247.722 30.9872V20.3237" stroke="#2E1E00" stroke-miterlimit="10" stroke-linecap="round" stroke-linejoin="round"/>
<path d="M174.578 103.587L214.336 80.6247L233.823 69.3821" fill="#ADF0E7"/>
<path d="M174.578 103.587L214.336 80.6247L233.823 69.3821" stroke="#2E1E00" stroke-miterlimit="10" stroke-linecap="round" stroke-linejoin="round"/>
<path d="M240.737 117.93C240.737 117.93 223.601 139.155 180.879 130.467" stroke="#FEFFFA" stroke-miterlimit="10" stroke-linecap="round" stroke-linejoin="round"/>
<path d="M233.822 69.6892C233.822 69.6892 235.56 80.6252 229.155 84.3046C222.784 87.984 216.822 79.3647 216.822 79.3647L233.822 69.6892Z" fill="#2E1E00" stroke="#2E1E00" stroke-miterlimit="10" stroke-linecap="round" stroke-linejoin="round"/>
<path d="M197.575 90.8454C197.575 90.8454 206.194 97.7954 212.565 94.116C218.936 90.4366 214.439 80.9656 214.439 80.9656L197.575 90.8454Z" fill="#2E1E00" stroke="#2E1E00" stroke-miterlimit="10" stroke-linecap="round" stroke-linejoin="round"/>
<path d="M221.319 91.4929C220.058 91.4929 219.036 90.471 219.036 89.2103C219.036 87.9497 220.058 86.9277 221.319 86.9277C222.58 86.9277 223.602 87.9497 223.602 89.2103C223.602 90.471 222.58 91.4929 221.319 91.4929Z" fill="#2E1E00"/>
<path d="M219.308 72.3462C216.279 72.3462 213.823 71.1565 213.823 69.6888C213.823 68.2212 216.279 67.0315 219.308 67.0315C222.337 67.0315 224.793 68.2212 224.793 69.6888C224.793 71.1565 222.337 72.3462 219.308 72.3462Z" fill="#2E1E00"/>
<path d="M198.383 83.4107C197.235 82.5268 197.793 79.8766 199.63 77.4914C201.467 75.1062 203.886 73.8892 205.034 74.7731C206.182 75.657 205.623 78.3071 203.787 80.6923C201.95 83.0775 199.531 84.2946 198.383 83.4107Z" fill="#2E1E00"/>
<path d="M176.416 109.106L186.705 103.587L174.951 104.609L176.416 109.106Z" fill="#2E1E00" stroke="#2E1E00" stroke-miterlimit="10" stroke-linecap="round" stroke-linejoin="round"/>
<path d="M177.472 112.888L193.416 111.457L179.38 121.473L177.472 112.888Z" fill="#2E1E00" stroke="#2E1E00" stroke-miterlimit="10" stroke-linecap="round" stroke-linejoin="round"/>
<path d="M225.851 97.3187C225.34 95.8197 224.25 94.5591 222.512 94.9339C221.115 95.2405 220.059 96.501 219.412 97.6934C217.232 101.748 216.653 103.485 212.564 105.904C212.258 106.074 212.224 106.551 212.53 106.756C213.961 107.71 217.675 109.481 222.206 106.347C224.216 104.95 225.919 102.701 226.192 100.18C226.294 99.3628 226.192 98.3067 225.851 97.3187Z" fill="#2E1E00"/>
<path d="M224.079 97.8295C223.33 96.4327 223.159 94.7974 224.624 93.7754C225.783 92.9577 227.452 93.0599 228.746 93.4006C233.209 94.5589 234.845 95.3425 239.41 94.0139C239.751 93.9116 240.091 94.2183 240.057 94.559C239.785 96.2283 238.524 100.18 233.175 101.339C230.757 101.85 227.997 101.577 225.953 100.044C225.271 99.5329 224.556 98.7153 224.079 97.8295Z" fill="#2E1E00"/>
<path d="M230.177 203.203C230.177 203.203 225.509 205.554 222.614 205.963" stroke="#2E1E00" stroke-miterlimit="10" stroke-linecap="round" stroke-linejoin="round"/>
<path d="M247.79 278.904C247.79 278.904 243.395 279.279 241.691 281.629" stroke="#2E1E00" stroke-miterlimit="10" stroke-linecap="round" stroke-linejoin="round"/>
<path d="M207.896 278.87C207.896 278.87 203.501 279.244 201.797 281.595" stroke="#2E1E00" stroke-miterlimit="10" stroke-linecap="round" stroke-linejoin="round"/>
<path d="M231.437 132.136L229.767 126.583" stroke="#FEFFFA" stroke-miterlimit="10" stroke-linecap="round" stroke-linejoin="round"/>
<path d="M229.292 143.004C228.951 144.674 230.007 146.343 231.71 146.684C233.21 146.99 234.709 146.173 235.254 144.776C235.56 144.98 235.935 145.151 236.344 145.219C238.013 145.56 239.683 144.503 240.023 142.8C240.228 141.812 239.955 140.824 239.308 140.109C239.512 140.04 239.717 139.938 239.921 139.802C241.352 138.848 241.761 136.94 240.807 135.509C239.853 134.078 237.945 133.67 236.514 134.624C236.276 134.794 236.037 134.998 235.833 135.203C236.071 133.567 235.015 132.034 233.38 131.694C231.71 131.353 230.041 132.409 229.7 134.112C229.53 134.828 229.666 135.577 229.973 136.191C228.338 135.884 226.736 136.974 226.396 138.61C226.055 140.279 227.111 141.948 228.815 142.289C229.053 142.323 229.292 142.357 229.53 142.357C229.394 142.527 229.326 142.766 229.292 143.004Z" fill="#FEFFFA" stroke="#2E1E00" stroke-miterlimit="10" stroke-linecap="round" stroke-linejoin="round"/>
<path d="M167.695 170.838H159.451" stroke="#2E1E00" stroke-miterlimit="10" stroke-linecap="round" stroke-linejoin="round"/>
<path d="M1 295.829H427" stroke="#2E1E00" stroke-miterlimit="10" stroke-linecap="round" stroke-linejoin="round"/>
</svg>
