<svg width="187" height="41" viewBox="0 0 187 41" fill="none" xmlns="http://www.w3.org/2000/svg">
<path fill-rule="evenodd" clip-rule="evenodd" d="M10.4146 16.8911L23.3182 30.0263L36.084 17.0314L46.5509 27.6861L34.3897 40.0656L31.2612 36.9658L40.3772 27.6861L36.084 23.3158L23.3182 36.3108L10.4146 23.1756L6.17365 27.4927L15.4283 36.9135L12.2998 40.0133L0 27.4927L10.4146 16.8911Z" fill="black"/>
<path fill-rule="evenodd" clip-rule="evenodd" d="M36.1362 23.1754L23.2326 10.0403L10.4669 23.0352L0 12.3804L12.1611 0.000976562L15.2896 3.10078L6.17364 12.3804L10.4669 16.7508L23.2326 3.75578L36.1362 16.891L40.3772 12.5738L31.1225 3.15304L34.251 0.0532326L46.5508 12.5738L36.1362 23.1754Z" fill="black"/>
<path fill-rule="evenodd" clip-rule="evenodd" d="M21.3066 39.7571V31.4814H25.5203V39.7571H21.3066Z" fill="black"/>
<path fill-rule="evenodd" clip-rule="evenodd" d="M21.3066 8.58523V0.30957H25.5203V8.58523H21.3066Z" fill="black"/>
<path d="M60.7496 9.77148H56.5508V30.9121H60.7496V9.77148Z" fill="black"/>
<path d="M82.0489 15.3501C80.1403 15.3501 78.3199 16.1723 77.4097 17.9634C76.4701 16.1723 74.7084 15.3501 72.653 15.3501C70.8032 15.3501 69.3939 16.0548 68.6598 17.3174L68.2194 15.6438H64.4023V30.912H68.513V22.3676C68.513 20.1068 69.6875 19.0204 71.4198 19.0204C73.0641 19.0204 74.1799 20.0481 74.1799 22.5438V30.912H78.1437V22.4557C78.2024 20.0774 79.4356 19.0204 81.0505 19.0204C82.7242 19.0204 83.8106 20.0481 83.8106 22.3383V30.9413H87.9506V21.5162C87.9506 17.288 85.1025 15.3501 82.0489 15.3501Z" fill="black"/>
<path d="M108.858 15.3501C106.949 15.3501 105.129 16.1723 104.219 17.9634C103.279 16.1723 101.517 15.3501 99.4616 15.3501C97.6118 15.3501 96.2024 16.0548 95.4684 17.3174L95.0279 15.6438H91.2109V30.912H95.3216V22.3676C95.3216 20.1068 96.496 19.0204 98.2284 19.0204C99.8727 19.0204 100.989 20.0481 100.989 22.5438V30.912H104.953V22.4557C105.011 20.0774 106.245 19.0204 107.86 19.0204C109.533 19.0204 110.62 20.0481 110.62 22.3383V30.9413H114.76V21.5162C114.76 17.288 111.912 15.3501 108.858 15.3501Z" fill="black"/>
<path d="M128.034 15.6436V24.0117C128.034 26.2726 126.977 27.6232 124.951 27.6526C123.013 27.7113 121.78 26.5662 121.78 24.1879V15.6436H117.875V24.7164C117.875 28.6215 120.135 31.2054 124.041 31.2054C125.861 31.2054 127.182 30.3832 127.975 29.2381L128.181 30.9118H131.939V15.6436H128.034Z" fill="black"/>
<path d="M144.002 15.3501C141.712 15.3501 140.185 16.2016 139.392 17.4642L139.157 15.6438H135.34V30.912H139.451V22.8374C139.451 20.371 140.625 18.8736 142.798 18.8736C144.795 18.8736 145.999 20.1655 145.999 22.6906V30.912H150.139V21.8391C150.139 17.934 147.907 15.3501 144.002 15.3501Z" fill="black"/>
<path d="M168.116 23.043C168.116 18.3744 165.091 15.3501 160.54 15.3501C155.989 15.3501 152.936 18.5212 152.936 23.2779C152.936 28.0639 155.989 31.2349 160.57 31.2349C164.416 31.2349 167.323 29.0915 167.998 25.9204H163.858C163.389 27.2417 162.185 27.917 160.687 27.917C158.72 27.917 157.134 26.6545 157.076 24.3936H168.116V23.043ZM160.54 18.5506C162.331 18.5506 163.829 19.5783 164.005 21.6923H157.105C157.281 19.5783 158.779 18.5506 160.54 18.5506Z" fill="black"/>
<path d="M169.721 15.6435V19.2256H172.07V30.9117H176.21V19.2256H179.704V15.6435H176.21V14.0873C176.21 13.0009 176.503 12.1788 178.177 12.1788H179.704V8.83154H177.267C173.42 8.83154 172.07 10.7107 172.07 13.6762V15.6435H169.721Z" fill="black"/>
<path d="M182.42 13.2945H186.589L186.648 8.83154H182.479L182.42 13.2945ZM182.479 30.9117H186.589V15.6435H182.479V30.9117Z" fill="black"/>
</svg>
