<svg width="319" height="319" viewBox="0 0 319 319" fill="none" xmlns="http://www.w3.org/2000/svg">
<rect width="319" height="319" rx="8" fill="#05BE64"/>
<path fill-rule="evenodd" clip-rule="evenodd" d="M76.4146 155.89L89.3182 169.025L102.084 156.03L112.551 166.685L100.39 179.065L97.2612 175.965L106.377 166.685L102.084 162.315L89.3182 175.31L76.4146 162.175L72.1736 166.492L81.4283 175.913L78.2998 179.012L66 166.492L76.4146 155.89Z" fill="black"/>
<path fill-rule="evenodd" clip-rule="evenodd" d="M102.136 162.174L89.2326 149.039L76.4669 162.034L66 151.379L78.1611 139L81.2896 142.1L72.1736 151.379L76.4669 155.75L89.2326 142.755L102.136 155.89L106.377 151.573L97.1225 142.152L100.251 139.052L112.551 151.573L102.136 162.174Z" fill="black"/>
<path fill-rule="evenodd" clip-rule="evenodd" d="M87.3066 178.756V170.48H91.5203V178.756H87.3066Z" fill="black"/>
<path fill-rule="evenodd" clip-rule="evenodd" d="M87.3066 147.584V139.309H91.5203V147.584H87.3066Z" fill="black"/>
<path d="M126.75 148.771H122.551V169.911H126.75V148.771Z" fill="black"/>
<path d="M148.049 154.349C146.14 154.349 144.32 155.171 143.41 156.962C142.47 155.171 140.708 154.349 138.653 154.349C136.803 154.349 135.394 155.054 134.66 156.316L134.219 154.643H130.402V169.911H134.513V161.367C134.513 159.106 135.688 158.019 137.42 158.019C139.064 158.019 140.18 159.047 140.18 161.543V169.911H144.144V161.455C144.202 159.076 145.436 158.019 147.051 158.019C148.724 158.019 149.811 159.047 149.811 161.337V169.94H153.951V160.515C153.951 156.287 151.103 154.349 148.049 154.349Z" fill="black"/>
<path d="M174.858 154.349C172.949 154.349 171.129 155.171 170.219 156.962C169.279 155.171 167.517 154.349 165.462 154.349C163.612 154.349 162.202 155.054 161.468 156.316L161.028 154.643H157.211V169.911H161.322V161.367C161.322 159.106 162.496 158.019 164.228 158.019C165.873 158.019 166.989 159.047 166.989 161.543V169.911H170.953V161.455C171.011 159.076 172.245 158.019 173.86 158.019C175.533 158.019 176.62 159.047 176.62 161.337V169.94H180.76V160.515C180.76 156.287 177.912 154.349 174.858 154.349Z" fill="black"/>
<path d="M194.034 154.643V163.011C194.034 165.272 192.977 166.622 190.951 166.652C189.013 166.71 187.78 165.565 187.78 163.187V154.643H183.875V163.715C183.875 167.62 186.135 170.204 190.041 170.204C191.861 170.204 193.182 169.382 193.975 168.237L194.181 169.911H197.939V154.643H194.034Z" fill="black"/>
<path d="M210.002 154.349C207.712 154.349 206.185 155.201 205.392 156.463L205.157 154.643H201.34V169.911H205.451V161.836C205.451 159.37 206.625 157.873 208.798 157.873C210.795 157.873 211.999 159.165 211.999 161.69V169.911H216.139V160.838C216.139 156.933 213.907 154.349 210.002 154.349Z" fill="black"/>
<path d="M234.116 162.042C234.116 157.373 231.091 154.349 226.54 154.349C221.989 154.349 218.936 157.52 218.936 162.277C218.936 167.063 221.989 170.234 226.57 170.234C230.416 170.234 233.323 168.091 233.998 164.919H229.858C229.389 166.241 228.185 166.916 226.687 166.916C224.72 166.916 223.134 165.654 223.076 163.393H234.116V162.042ZM226.54 157.55C228.331 157.55 229.829 158.577 230.005 160.691H223.105C223.281 158.577 224.779 157.55 226.54 157.55Z" fill="black"/>
<path d="M235.721 154.643V158.225H238.07V169.911H242.21V158.225H245.704V154.643H242.21V153.086C242.21 152 242.503 151.178 244.177 151.178H245.704V147.831H243.267C239.42 147.831 238.07 149.71 238.07 152.675V154.643H235.721Z" fill="black"/>
<path d="M248.42 152.294H252.589L252.648 147.831H248.479L248.42 152.294ZM248.479 169.911H252.589V154.643H248.479V169.911Z" fill="black"/>
</svg>
