<?xml version="1.0" encoding="UTF-8"?>

<svg width="400" height="400" viewBox="0 0 400 400" xmlns="http://www.w3.org/2000/svg">
<g id="svg-id-loadingcat">
  <svg x="110" y="75" fill="none" xmlns="http://www.w3.org/2000/svg">
    <path d="M214.388 17.932C214.388 17.932 190.155 -19.7202 140.31 18.627C140.31 18.627 126.569 12.6707 107.334 19.669C107.307 19.6804 107.288 19.685 107.263 19.6953C95.7077 23.9169 82.1635 32.8227 68.4258 50.5084C68.4258 50.5084 58.1872 45.8334 51.7328 55.3804C48.9299 59.531 46.6296 66.8041 46.3124 76.6636C45.8876 89.5014 48.8211 106.726 58.3475 127.166L53.4721 135.992L40.8416 158.904L11.272 212.497L34.6586 198.442C34.6586 198.442 49.4955 214.951 72.439 212.335L78.4663 240.457L104.761 184.448C104.761 184.448 106.544 184.469 109.57 184.228C145.211 181.392 174.81 155.421 182.436 120.486C184.049 113.082 184.825 105.302 183.696 98.3351C183.696 98.3351 197.403 87.1186 207.799 70.9604C210.774 66.338 213.474 61.3183 215.496 56.033C220.091 44.0827 221.262 30.8156 214.388 17.932ZM176.948 56.1086C172.828 42.5301 158.859 33.093 158.859 33.093C158.859 33.093 174.773 18.5915 186.457 30.9312C197.723 42.8278 176.948 56.1086 176.948 56.1086Z" fill="#F9A058"/>
    <path d="M107.333 19.6701C107.305 19.6804 107.287 19.685 107.262 19.6964C95.7066 23.9181 82.1624 32.8239 68.4247 50.5096C68.4247 50.5096 58.1861 45.8334 51.7317 55.3815C48.9288 59.5322 46.6273 66.8052 46.3113 76.6648C36.9486 77.7629 27.2001 75.0927 38.5241 54.248C57.1212 20.009 87.1901 9.2552 97.4504 10.7357C103.366 11.5933 106.093 16.0554 107.333 19.6701Z" fill="#F9A058"/>
    <path d="M53.471 135.994L40.8394 158.907C-5.52622 122.717 -4.70984 60.5123 11.1954 59.4933C27.7406 58.4318 26.9632 74.5889 31.1172 97.8496C34.3232 115.811 47.5938 130.324 53.471 135.994Z" fill="#F9A058"/>
    <path d="M214.388 17.932C214.388 17.932 190.155 -19.7202 140.31 18.627C140.31 18.627 126.569 12.6707 107.334 19.6689C107.307 19.6804 107.288 19.685 107.263 19.6953C95.7077 23.9169 82.1635 32.8227 68.4258 50.5084C68.4258 50.5084 58.1872 45.8333 51.7328 55.3803C48.9299 59.531 46.6296 66.804 46.3124 76.6636C45.8876 89.5013 48.8211 106.726 58.3475 127.166L53.4721 135.992L40.8416 158.904L11.272 212.497L34.6586 198.442C34.6586 198.442 49.4955 214.951 72.439 212.335L78.4663 240.457L104.761 184.448C104.761 184.448 106.544 184.469 109.57 184.228C145.211 181.392 174.81 155.421 182.436 120.486C184.049 113.081 184.825 105.302 183.696 98.335C183.696 98.335 197.403 87.1186 207.799 70.9603C210.774 66.338 213.474 61.3183 215.496 56.033C220.091 44.0826 221.262 30.8155 214.388 17.932ZM176.948 56.1086C172.828 42.53 158.859 33.0929 158.859 33.0929C158.859 33.0929 174.773 18.5915 186.457 30.9312C197.723 42.8277 176.948 56.1086 176.948 56.1086Z" stroke="black" stroke-width="1.5" stroke-miterlimit="10" stroke-linecap="round" stroke-linejoin="round"/>
    <path d="M107.333 19.6701C107.305 19.6804 107.287 19.6849 107.262 19.6964C95.7066 23.918 82.1624 32.8238 68.4247 50.5095C68.4247 50.5095 58.1861 45.8333 51.7317 55.3815C48.9288 59.5321 46.6273 66.8052 46.3113 76.6647C36.9486 77.7628 27.2001 75.0927 38.5241 54.2479C57.1212 20.009 87.1901 9.25514 97.4504 10.7356C103.366 11.5932 106.093 16.0553 107.333 19.6701Z" stroke="black" stroke-width="1.5" stroke-miterlimit="10" stroke-linecap="round" stroke-linejoin="round"/>
    <path d="M53.471 135.994L40.8394 158.907C-5.52622 122.717 -4.70984 60.5124 11.1954 59.4933C27.7406 58.4319 26.9632 74.589 31.1172 97.8497C34.3232 115.811 47.5938 130.324 53.471 135.994Z" stroke="black" stroke-width="1.5" stroke-miterlimit="10" stroke-linecap="round" stroke-linejoin="round"/>
    <path d="M68.4233 50.5095C68.4233 50.5095 77.881 55.3575 78.1993 84.5435C78.5119 113.268 106.916 136.091 106.916 136.091" stroke="black" stroke-width="1.5" stroke-miterlimit="10" stroke-linecap="round" stroke-linejoin="round"/>
    <path d="M113.303 48.5734L78.1997 84.5436" stroke="black" stroke-width="1.5" stroke-miterlimit="10" stroke-linecap="round" stroke-linejoin="round"/>
    <path d="M58.3457 127.167C58.3457 127.167 70.2651 152.392 85.5612 162.867" stroke="black" stroke-width="1.5" stroke-miterlimit="10" stroke-linecap="round" stroke-linejoin="round"/>
    <path d="M45.6047 150.263L54.5999 162.574L39.7778 160.828L45.6047 150.263Z" fill="black"/>
    <path d="M45.6047 150.263L54.5999 162.574L39.7778 160.828L45.6047 150.263Z" stroke="black" stroke-width="1.5" stroke-miterlimit="10" stroke-linecap="round" stroke-linejoin="round"/>
    <path d="M38.1806 163.724L45.2567 171.054L34.5498 170.304L37.5474 165.038" fill="black"/>
    <path d="M38.1806 163.724L45.2567 171.054L34.5498 170.304L37.5474 165.038" stroke="black" stroke-width="1.5" stroke-miterlimit="10" stroke-linecap="round" stroke-linejoin="round"/>
    <path d="M183.693 98.3352C183.693 98.3352 156.457 117.126 148.341 101.331C142.359 89.6859 153.568 75.9253 163.663 66.6668C170.567 60.335 176.948 56.1088 176.948 56.1088" stroke="black" stroke-width="1.5" stroke-miterlimit="10" stroke-linecap="round" stroke-linejoin="round"/>
    <path d="M147.96 27.7079C147.96 27.7079 154.377 29.5262 158.859 33.094" stroke="black" stroke-width="1.5" stroke-miterlimit="10" stroke-linecap="round" stroke-linejoin="round"/>
    <path d="M59.5464 171.154C59.5464 171.154 66.6053 173.961 65.5462 181.102" stroke="black" stroke-width="1.5" stroke-miterlimit="10" stroke-linecap="round" stroke-linejoin="round"/>
    <path d="M55.3617 177.746C55.0216 179.391 53.414 180.448 51.771 180.107C50.1267 179.767 49.0711 178.161 49.41 176.517C49.7489 174.872 51.3576 173.816 53.0007 174.156C54.6438 174.496 55.7018 176.103 55.3617 177.746Z" fill="black"/>
    <path d="M64.8557 187.992C64.661 188.937 63.7359 189.543 62.7935 189.35C61.8489 189.154 61.2421 188.23 61.4367 187.286C61.6314 186.343 62.5554 185.735 63.4989 185.931C64.4435 186.126 65.0515 187.049 64.8557 187.992Z" fill="black"/>
    <path d="M44.4037 179.234C44.2068 180.19 43.2713 180.806 42.3141 180.607C41.358 180.41 40.742 179.474 40.9412 178.519C41.1382 177.562 42.0748 176.947 43.0309 177.145C43.9869 177.344 44.6018 178.278 44.4037 179.234Z" fill="black"/>
    <path d="M74.2471 198.123C74.8609 199.975 72.3235 202.485 68.5805 203.725C64.8364 204.964 61.3041 204.467 60.6892 202.612C60.0755 200.759 62.6128 198.251 66.3558 197.011C70.0999 195.772 73.6334 196.269 74.2471 198.123Z" fill="black"/>
    <path d="M33.5193 182.136C31.8877 183.21 32.3205 186.75 34.488 190.046C36.6543 193.341 39.7344 195.143 41.3648 194.07C42.9965 192.996 42.5637 189.456 40.3962 186.161C38.2298 182.866 35.1509 181.065 33.5193 182.136Z" fill="black"/>
    <path d="M104.759 184.448L86.6143 176.746L99.7131 195.195L104.759 184.448Z" fill="black"/>
    <path d="M104.759 184.448L86.6143 176.746L99.7131 195.195L104.759 184.448Z" stroke="black" stroke-width="1.5" stroke-miterlimit="10" stroke-linecap="round" stroke-linejoin="round"/>
    <path d="M97.4841 199.945L83.459 194.778L93.4079 208.624L97.4841 199.945Z" fill="black"/>
    <path d="M97.4841 199.945L83.459 194.778L93.4079 208.624L97.4841 199.945Z" stroke="black" stroke-width="1.5" stroke-miterlimit="10" stroke-linecap="round" stroke-linejoin="round"/>
    <path d="M163.663 66.6667L186.485 75.7637L175.648 57.0052L163.663 66.6667Z" fill="black"/>
    <path d="M163.663 66.6667L186.485 75.7637L175.648 57.0052L163.663 66.6667Z" stroke="black" stroke-width="1.5" stroke-miterlimit="10" stroke-linecap="round" stroke-linejoin="round"/>
    <path d="M215.494 56.0341C213.471 61.3195 210.771 66.3391 207.795 70.9615L193.377 51.4645C193.377 51.4645 209.873 54.8731 215.494 56.0341Z" fill="black"/>
    <path d="M215.494 56.0341C213.471 61.3195 210.771 66.3391 207.795 70.9615L193.377 51.4645C193.377 51.4645 209.873 54.8731 215.494 56.0341Z" stroke="black" stroke-width="1.5" stroke-miterlimit="10" stroke-linecap="round" stroke-linejoin="round"/>
    <path d="M178.996 101.201L172.285 84.7131L190.696 91.8682C190.694 91.8682 185.075 98.1668 178.996 101.201Z" fill="black"/>
    <path d="M178.996 101.201L172.285 84.7131L190.696 91.8682C190.694 91.8682 185.075 98.1668 178.996 101.201Z" stroke="black" stroke-width="1.5" stroke-miterlimit="10" stroke-linecap="round" stroke-linejoin="round"/>
  </svg>
</g>
<g id="svg-id-loadingpopcorn">
<svg x="40" width="355" height="383" fill="none" xmlns="http://www.w3.org/2000/svg">
  <path d="M340.822 187.182C339.859 184.954 338.019 183.112 335.551 182.23C330.829 180.544 325.633 183.004 323.945 187.726C322.523 191.705 324.054 196.012 327.394 198.281C326.516 199.187 325.807 200.281 325.356 201.546C323.668 206.268 326.129 211.464 330.851 213.152C335.574 214.84 340.769 212.378 342.457 207.656C342.879 206.478 343.041 205.268 342.974 204.093C347.394 205.101 351.968 202.674 353.533 198.298C355.221 193.576 352.759 188.38 348.037 186.694C345.571 185.811 342.979 186.07 340.822 187.182Z" fill="#FEFFFA"/>
  <path d="M340.822 187.182C339.859 184.954 338.019 183.112 335.551 182.23C330.829 180.544 325.633 183.004 323.945 187.726C322.523 191.705 324.054 196.012 327.394 198.281C326.516 199.187 325.807 200.281 325.356 201.546C323.668 206.268 326.129 211.464 330.851 213.152C335.574 214.84 340.769 212.378 342.457 207.656C342.879 206.478 343.041 205.268 342.974 204.093C347.394 205.101 351.968 202.674 353.533 198.298C355.221 193.576 352.759 188.38 348.037 186.694C345.571 185.811 342.979 186.07 340.822 187.182Z" stroke="black" stroke-width="1.5" stroke-miterlimit="10" stroke-linecap="round" stroke-linejoin="round"/>
  <path d="M209.017 357.173C208.443 357.173 207.891 357.255 207.362 357.398C207.536 356.432 207.63 355.404 207.63 354.338C207.63 348.621 204.928 343.985 201.592 343.985C199.116 343.985 196.99 346.544 196.059 350.201C194.305 348.494 191.911 347.437 189.269 347.437C183.892 347.437 179.533 351.797 179.533 357.173C179.533 361.345 182.162 364.892 185.85 366.278C185.125 367.731 184.71 369.364 184.71 371.098C184.71 377.087 189.565 381.943 195.554 381.943C201.544 381.943 206.401 377.088 206.401 371.098C206.401 370.428 206.33 369.778 206.214 369.141C207.06 369.562 208.011 369.804 209.018 369.804C212.506 369.804 215.335 366.976 215.335 363.487C215.333 360.001 212.505 357.173 209.017 357.173Z" fill="#FEFFFA"/>
  <path d="M209.017 357.173C208.443 357.173 207.891 357.255 207.362 357.398C207.536 356.432 207.63 355.404 207.63 354.338C207.63 348.621 204.928 343.985 201.592 343.985C199.116 343.985 196.99 346.544 196.059 350.201C194.305 348.494 191.911 347.437 189.269 347.437C183.892 347.437 179.533 351.797 179.533 357.173C179.533 361.345 182.162 364.892 185.85 366.278C185.125 367.731 184.71 369.364 184.71 371.098C184.71 377.087 189.565 381.943 195.554 381.943C201.544 381.943 206.401 377.088 206.401 371.098C206.401 370.428 206.33 369.778 206.214 369.141C207.06 369.562 208.011 369.804 209.018 369.804C212.506 369.804 215.335 366.976 215.335 363.487C215.333 360.001 212.505 357.173 209.017 357.173Z" stroke="black" stroke-width="1.5" stroke-miterlimit="10" stroke-linecap="round" stroke-linejoin="round"/>
  <path d="M18.2804 261.276C18.072 261.81 17.9495 262.355 17.8923 262.902C17.0541 262.387 16.1301 261.926 15.1363 261.541C9.80743 259.47 4.50837 260.313 3.30039 263.423C2.40271 265.731 4.01831 268.64 7.09149 270.832C4.86332 271.849 3.01185 273.697 2.05463 276.158C0.108131 281.171 2.59278 286.813 7.60559 288.759C11.494 290.269 15.7534 289.104 18.3812 286.169C19.4747 287.368 20.8441 288.348 22.4608 288.977C28.0427 291.145 34.3276 288.378 36.4951 282.795C38.6649 277.212 35.8963 270.928 30.3132 268.758C29.6904 268.517 29.056 268.345 28.4228 268.222C29.1201 267.586 29.6892 266.789 30.0556 265.85C31.3197 262.597 29.7064 258.939 26.4557 257.674C23.2039 256.412 19.5434 258.024 18.2804 261.276Z" fill="#FEFFFA"/>
  <path d="M18.2804 261.276C18.072 261.81 17.9495 262.355 17.8923 262.902C17.0541 262.387 16.1301 261.926 15.1363 261.541C9.80743 259.47 4.50837 260.313 3.30039 263.423C2.40271 265.731 4.01831 268.64 7.09149 270.832C4.86332 271.849 3.01185 273.697 2.05463 276.158C0.108131 281.171 2.59278 286.813 7.60559 288.759C11.494 290.269 15.7534 289.104 18.3812 286.169C19.4747 287.368 20.8441 288.348 22.4608 288.977C28.0427 291.145 34.3276 288.378 36.4951 282.795C38.6649 277.212 35.8963 270.928 30.3132 268.758C29.6904 268.517 29.056 268.345 28.4228 268.222C29.1201 267.586 29.6892 266.789 30.0556 265.85C31.3197 262.597 29.7064 258.939 26.4557 257.674C23.2039 256.412 19.5434 258.024 18.2804 261.276Z" stroke="black" stroke-width="1.5" stroke-miterlimit="10" stroke-linecap="round" stroke-linejoin="round"/>
  <path d="M95.7285 32.9636C95.1549 32.9636 94.6019 33.0472 94.074 33.1903C94.2481 32.2228 94.3419 31.1946 94.3419 30.1286C94.3419 24.4127 91.6386 19.7766 88.3032 19.7766C85.8266 19.7766 83.7003 22.3346 82.7694 25.9928C81.0164 24.2845 78.6211 23.2277 75.9796 23.2277C70.6027 23.2277 66.2437 27.5867 66.2437 32.9625C66.2437 37.1348 68.8726 40.6832 72.5606 42.0686C71.837 43.5228 71.4202 45.1544 71.4202 46.888C71.4202 52.8774 76.275 57.7334 82.2645 57.7334C88.254 57.7334 93.1099 52.8774 93.1099 46.888C93.1099 46.2193 93.0401 45.5666 92.9233 44.9323C93.7694 45.3525 94.7198 45.5952 95.7274 45.5952C99.2151 45.5952 102.043 42.7671 102.043 39.2794C102.044 35.7918 99.2162 32.9636 95.7285 32.9636Z" fill="#FEFFFA"/>
  <path d="M95.7285 32.9636C95.1549 32.9636 94.6019 33.0472 94.074 33.1903C94.2481 32.2228 94.3419 31.1946 94.3419 30.1286C94.3419 24.4127 91.6386 19.7766 88.3032 19.7766C85.8266 19.7766 83.7003 22.3346 82.7694 25.9928C81.0164 24.2845 78.6211 23.2277 75.9796 23.2277C70.6027 23.2277 66.2437 27.5867 66.2437 32.9625C66.2437 37.1348 68.8726 40.6832 72.5606 42.0686C71.837 43.5228 71.4202 45.1544 71.4202 46.888C71.4202 52.8774 76.275 57.7334 82.2645 57.7334C88.254 57.7334 93.1099 52.8774 93.1099 46.888C93.1099 46.2193 93.0401 45.5666 92.9233 44.9323C93.7694 45.3525 94.7198 45.5952 95.7274 45.5952C99.2151 45.5952 102.043 42.7671 102.043 39.2794C102.044 35.7918 99.2162 32.9636 95.7285 32.9636Z" stroke="black" stroke-width="1.5" stroke-miterlimit="10" stroke-linecap="round" stroke-linejoin="round"/>
  <path d="M296.389 300.707C296.389 299.152 295.388 297.831 293.997 297.345C294.245 296.646 294.387 295.894 294.387 295.11C294.387 291.412 291.388 288.412 287.689 288.412C285.776 288.412 284.053 289.22 282.833 290.507C282.245 290.344 281.629 290.25 280.992 290.25C277.185 290.25 274.098 293.337 274.098 297.144C274.098 300.24 276.139 302.858 278.948 303.73C278.856 304.183 278.808 304.651 278.808 305.13C278.808 309.033 281.973 312.196 285.875 312.196C289.777 312.196 292.941 309.033 292.941 305.13C292.941 304.837 292.918 304.55 292.884 304.266C294.823 304.236 296.389 302.657 296.389 300.707Z" fill="#FEFFFA"/>
  <path d="M296.389 300.707C296.389 299.152 295.388 297.831 293.997 297.345C294.245 296.646 294.387 295.894 294.387 295.11C294.387 291.412 291.388 288.412 287.689 288.412C285.776 288.412 284.053 289.22 282.833 290.507C282.245 290.344 281.629 290.25 280.992 290.25C277.185 290.25 274.098 293.337 274.098 297.144C274.098 300.24 276.139 302.858 278.948 303.73C278.856 304.183 278.808 304.651 278.808 305.13C278.808 309.033 281.973 312.196 285.875 312.196C289.777 312.196 292.941 309.033 292.941 305.13C292.941 304.837 292.918 304.55 292.884 304.266C294.823 304.236 296.389 302.657 296.389 300.707Z" stroke="black" stroke-width="1.5" stroke-miterlimit="10" stroke-linecap="round" stroke-linejoin="round"/>
  <path d="M292.64 13.367C292.64 11.811 291.639 10.4896 290.246 10.0053C290.495 9.30456 290.637 8.55458 290.637 7.76911C290.637 4.07076 287.638 1.07201 283.94 1.07201C282.025 1.07201 280.303 1.87923 279.083 3.16621C278.495 3.00362 277.88 2.90973 277.243 2.90973C273.436 2.90973 270.349 5.99551 270.349 9.80378C270.349 12.901 272.389 15.5185 275.198 16.3898C275.107 16.8421 275.058 17.3104 275.058 17.7902C275.058 21.6923 278.223 24.8559 282.125 24.8559C286.027 24.8559 289.192 21.6923 289.192 17.7902C289.192 17.497 289.168 17.2096 289.134 16.9257C291.074 16.8959 292.64 15.3158 292.64 13.367Z" fill="#FEFFFA"/>
  <path d="M292.64 13.367C292.64 11.811 291.639 10.4896 290.246 10.0053C290.495 9.30456 290.637 8.55458 290.637 7.76911C290.637 4.07076 287.638 1.07201 283.94 1.07201C282.025 1.07201 280.303 1.87923 279.083 3.16621C278.495 3.00362 277.88 2.90973 277.243 2.90973C273.436 2.90973 270.349 5.99551 270.349 9.80378C270.349 12.901 272.389 15.5185 275.198 16.3898C275.107 16.8421 275.058 17.3104 275.058 17.7902C275.058 21.6923 278.223 24.856 282.125 24.856C286.027 24.856 289.192 21.6923 289.192 17.7902C289.192 17.497 289.168 17.2096 289.134 16.9257C291.074 16.8959 292.64 15.3158 292.64 13.367Z" stroke="black" stroke-width="1.5" stroke-miterlimit="10" stroke-linecap="round" stroke-linejoin="round"/>
</svg>
</g>
</svg>
