<svg width="48" height="48" viewBox="0 0 48 48" fill="none" xmlns="http://www.w3.org/2000/svg">
<rect width="48" height="48" rx="12" fill="#F9FAFB"/>
<rect x="14" y="23" width="20" height="12" fill="#73B7EA"/>
<path d="M29 22.75V23.5H29.75V22.75H29ZM19 22.75H18.25V23.5H19V22.75ZM24.75 27.75C24.75 27.3358 24.4142 27 24 27C23.5858 27 23.25 27.3358 23.25 27.75H24.75ZM23.25 30.25C23.25 30.6642 23.5858 31 24 31C24.4142 31 24.75 30.6642 24.75 30.25H23.25ZM16.5 23.5H31.5V22H16.5V23.5ZM33.25 25.25V32.75H34.75V25.25H33.25ZM31.5 34.5H16.5V36H31.5V34.5ZM14.75 32.75V25.25H13.25V32.75H14.75ZM16.5 34.5C15.5335 34.5 14.75 33.7165 14.75 32.75H13.25C13.25 34.5449 14.7051 36 16.5 36V34.5ZM33.25 32.75C33.25 33.7165 32.4665 34.5 31.5 34.5V36C33.2949 36 34.75 34.5449 34.75 32.75H33.25ZM31.5 23.5C32.4665 23.5 33.25 24.2835 33.25 25.25H34.75C34.75 23.4551 33.2949 22 31.5 22V23.5ZM16.5 22C14.7051 22 13.25 23.4551 13.25 25.25H14.75C14.75 24.2835 15.5335 23.5 16.5 23.5V22ZM28.25 17.75V22.75H29.75V17.75H28.25ZM29 22H19V23.5H29V22ZM19.75 22.75V17.75H18.25V22.75H19.75ZM24 13.5C26.3472 13.5 28.25 15.4028 28.25 17.75H29.75C29.75 14.5744 27.1756 12 24 12V13.5ZM24 12C20.8244 12 18.25 14.5744 18.25 17.75H19.75C19.75 15.4028 21.6528 13.5 24 13.5V12ZM23.25 27.75V30.25H24.75V27.75H23.25Z" fill="#2E1E00"/>
</svg>
