<svg width="414" height="305" viewBox="0 0 414 305" fill="none" xmlns="http://www.w3.org/2000/svg">
<path d="M363.788 14.2735C323.868 5.12976 242.021 51.7403 201.878 75.8262C186.936 66.2364 169.862 56.3911 151.922 45.7189C124.937 30.7767 98.3413 17.0232 73.8659 18.7338C62.9827 19.0906 36.399 33.6759 3.83855 51.2943C-18.0524 62.67 -41.5426 74.0791 -59.9443 82.9627L283.725 203.392L486.001 71.1428L480.203 63.3372C457.084 50.6996 408.838 18.0647 363.788 14.2735Z" fill="#FDEAA7"/>
<path d="M322.753 99.5971C232.06 108.666 36.3205 109.566 -53.9226 80.0635C-65.5195 76.2722 -84.0198 67.9623 -93.6196 64.2292C-162.978 36.1291 -202.898 30.5536 -224.308 30.5536V358.966L677.796 387.512V27.3395C674.581 20.078 658.464 10.3455 632.078 11.5973C604.424 16.5036 538.188 40.4267 504.066 54.4165C499.62 56.2396 492.246 59.3229 481.095 63.5602C436.809 77.1145 350.667 98.3472 322.753 99.5971Z" fill="#FDEAA7"/>
<path d="M528.718 186.112H-120.945C-121.14 186.112 -121.271 185.981 -121.271 185.786C-121.271 185.59 -121.14 185.46 -120.945 185.46H528.718C528.913 185.46 529.043 185.59 529.043 185.786C529.043 185.981 528.88 186.112 528.718 186.112Z" fill="#2E1E00"/>
<path fill-rule="evenodd" clip-rule="evenodd" d="M651.151 9.13467C651.156 9.28853 651.036 9.41768 650.882 9.42312C634.78 9.9929 610.913 16.0559 582.557 25.4459C554.211 34.833 521.407 47.5352 487.445 61.3652L487.34 61.107L487.445 61.3652C396.859 98.2343 318.531 106.087 223.066 106.658C199.473 106.806 168.825 106.752 139.874 106.701C122.14 106.67 105.043 106.64 90.5929 106.658C44.9803 106.706 -1.92773 99.116 -45.4462 83.4406C-59.3086 78.4516 -73.0919 72.9379 -86.8929 67.4171C-94.431 64.4017 -101.974 61.3842 -109.539 58.4488C-130.96 50.1364 -152.566 42.4769 -174.758 37.3633L-174.758 37.3633C-193.529 33.0321 -213.473 29.5658 -232.693 31.513C-232.846 31.5285 -232.983 31.4169 -232.999 31.2637C-233.014 31.1106 -232.902 30.9738 -232.749 30.9583C-213.434 29.0014 -193.415 32.4862 -174.632 36.8201C-152.401 41.9427 -130.766 49.6136 -109.337 57.929C-101.761 60.8689 -94.2122 63.8886 -86.6721 66.9049C-72.8777 72.4231 -59.1118 77.9298 -45.2573 82.916L-45.3517 83.1783L-45.2572 82.916C-1.80344 98.5681 45.0401 106.148 90.5923 106.101C105.046 106.083 122.145 106.113 139.879 106.144C168.829 106.195 199.471 106.248 223.063 106.101C318.492 105.53 396.741 97.6803 487.235 60.8489C521.2 47.0174 554.018 34.3096 582.382 24.9166C610.738 15.5263 634.673 9.4388 650.863 8.86593C651.016 8.86049 651.146 8.9808 651.151 9.13467Z" fill="#2E1E00"/>
<path d="M257.373 114.718C257.308 114.718 257.243 114.686 257.178 114.653C245.611 106.047 233.164 97.2774 218.046 87.0411C215.179 85.1177 212.181 83.0966 209.053 81.0102C206.675 79.4454 204.264 77.848 201.624 76.1202C201.461 76.0224 201.429 75.8268 201.527 75.6638C201.624 75.5008 201.82 75.4682 201.983 75.566C204.622 77.2938 207.033 78.8912 209.412 80.456C212.54 82.5098 215.537 84.5636 218.404 86.4869C233.555 96.7232 246.002 105.525 257.569 114.131C257.699 114.229 257.731 114.457 257.634 114.588C257.569 114.653 257.471 114.718 257.373 114.718Z" fill="#2E1E00"/>
<path d="M-53.6603 79.9018C-53.7906 79.9018 -53.8884 79.8366 -53.9535 79.7062C-54.0187 79.5432 -53.9535 79.3476 -53.7906 79.2824C-39.7802 72.5017 -25.0203 65.2971 -8.59873 57.2124C0.55695 52.6811 9.71264 47.7259 18.5425 42.9338C25.1893 39.3152 32.0642 35.5988 38.9065 32.0781C39.5908 31.7195 40.275 31.3609 40.9592 31.0349C51.8744 25.3951 63.1479 19.5924 75.5618 18.3536C89.4094 16.9844 102.67 21.9722 116.16 27.6445C126.684 32.0781 137.697 37.4896 150.893 44.7268C155.356 47.1391 159.918 49.7145 164.414 52.3551C164.577 52.4529 164.61 52.6485 164.545 52.8115C164.447 52.9745 164.251 53.0071 164.088 52.9419C159.559 50.3339 155.031 47.7585 150.534 45.2809C137.371 38.0764 126.358 32.6323 115.866 28.2313C102.442 22.5916 89.2465 17.6038 75.5618 18.973C63.2782 20.2118 52.0373 25.9819 41.1873 31.5891C40.5031 31.9477 39.8188 32.3063 39.1346 32.6323C32.2923 36.153 25.4174 39.8694 18.7706 43.488C9.9407 48.2801 0.78503 53.2353 -8.37065 57.7666C-24.7922 65.8513 -39.5521 73.0885 -53.5626 79.8366C-53.5626 79.8692 -53.5951 79.9018 -53.6603 79.9018Z" fill="#2E1E00"/>
<path d="M184.225 111.165C184.193 112.925 184.03 114.653 183.737 116.381C183.15 119.967 182.042 123.488 180.772 126.878C178.23 133.724 174.939 140.244 173.082 147.318C171.681 152.729 170.769 158.239 170.085 163.781C170.052 164.042 170.02 164.302 169.987 164.563C169.531 168.149 169.238 171.572 169.042 174.93C168.456 184.482 168.618 193.414 168.586 203.748C168.521 216.462 169.4 229.795 168.097 244.595C167.641 249.714 164.448 259.754 157.215 257.114C153.37 255.679 152.392 251.083 151.708 247.497C150.894 243.096 150.731 238.63 150.437 234.196C149.981 227.35 149.916 220.472 150.112 213.626C150.275 207.301 150.47 204.954 151.089 198.662C148.092 199.706 144.377 198.369 144.377 198.369C144.573 198.434 144.247 202.314 144.247 202.607C144.149 205.9 144.019 209.225 143.921 212.517C143.725 218.059 143.563 223.601 143.367 229.143C143.106 236.576 143.009 243.813 140.076 250.822C138.871 253.723 136.199 256.951 132.81 257.146C126.75 257.44 125.153 250.333 124.632 245.671C123.818 238.499 123.785 231.197 123.524 223.96C123.264 216.397 123.101 208.834 123.427 201.27C123.492 199.706 123.589 198.141 123.687 196.543C124.046 191.001 124.567 185.492 125.316 179.983C126.587 170.594 128.477 161.336 130.953 152.175C133.918 141.254 137.698 130.529 142.487 120.293C143.823 117.391 145.257 114.555 146.788 111.784C149.525 106.862 150.731 101.45 152.327 96.0386L158.648 108.166C168.325 106.699 175.917 113.056 175.917 113.056L183.867 105.851C183.541 106.079 184.225 110.48 184.225 111.165Z" fill="#ADF0E7"/>
<path d="M159.529 257.863C158.747 257.863 157.933 257.7 157.118 257.407C152.98 255.875 152.035 250.854 151.383 247.529C150.699 243.878 150.471 240.129 150.276 236.511C150.243 235.728 150.178 234.978 150.145 234.196C149.722 227.644 149.624 220.928 149.819 213.593C149.982 207.562 150.145 205.215 150.732 199.086C148.386 199.706 145.844 199.119 144.769 198.793C144.769 199.347 144.737 200.325 144.606 202.085C144.574 202.346 144.574 202.509 144.574 202.542L144.541 203.031C144.443 206.16 144.346 209.322 144.215 212.452C144.02 217.994 143.857 223.536 143.661 229.078L143.629 230.023C143.401 237.26 143.173 244.106 140.338 250.854C139.132 253.756 136.428 257.179 132.779 257.374C128.054 257.603 125.187 253.658 124.242 245.606C123.591 240.064 123.46 234.326 123.297 228.817C123.265 227.187 123.2 225.525 123.134 223.895C122.906 217.212 122.711 209.322 123.037 201.173C123.102 199.608 123.2 198.01 123.297 196.446C123.656 190.936 124.21 185.329 124.926 179.852C126.197 170.464 128.12 161.075 130.563 152.012C133.626 140.635 137.536 129.91 142.097 120.065C143.564 116.902 144.997 114.099 146.431 111.523C148.614 107.579 149.787 103.406 151.025 98.9726C151.318 97.9294 151.612 96.8862 151.937 95.843C151.97 95.7126 152.1 95.6148 152.231 95.6148C152.361 95.6148 152.491 95.68 152.556 95.7778L158.78 107.709C167.447 106.503 174.517 111.491 175.853 112.501L183.608 105.493C183.738 105.362 183.933 105.395 184.064 105.525C184.161 105.623 184.161 105.786 184.096 105.916C184.031 106.275 184.259 108.264 184.389 109.307C184.52 110.252 184.585 110.839 184.585 111.067C184.552 112.762 184.422 114.49 184.096 116.348C183.575 119.478 182.63 122.836 181.099 126.911C180.219 129.258 179.241 131.637 178.297 133.919C176.505 138.255 174.647 142.721 173.442 147.351C172.204 152.077 171.259 157.293 170.444 163.781C170.412 164.042 170.379 164.302 170.346 164.563C169.923 167.986 169.63 171.344 169.402 174.897C168.945 182.297 168.945 189.404 168.945 196.902C168.945 199.119 168.945 201.368 168.945 203.683C168.945 207.399 168.978 211.083 169.043 214.995C169.206 224.384 169.369 234.066 168.424 244.563C168.131 247.725 166.567 254.408 162.657 256.885C161.68 257.57 160.637 257.863 159.529 257.863ZM151.09 198.304C151.155 198.304 151.221 198.336 151.286 198.369C151.383 198.434 151.416 198.532 151.416 198.662C150.797 205.117 150.634 207.432 150.471 213.626C150.276 220.928 150.373 227.644 150.797 234.163C150.862 234.946 150.895 235.728 150.927 236.478C151.155 240.097 151.351 243.813 152.035 247.432C152.622 250.594 153.534 255.418 157.346 256.788C159.171 257.44 160.832 257.309 162.299 256.396C165.72 254.212 167.447 248.149 167.772 244.563C168.717 234.098 168.554 224.416 168.391 215.06C168.326 211.148 168.261 207.464 168.294 203.748C168.294 201.433 168.294 199.184 168.294 196.967C168.294 189.437 168.294 182.33 168.75 174.897C168.978 171.344 169.271 167.953 169.695 164.531C169.727 164.27 169.76 164.009 169.793 163.748C170.607 157.261 171.552 152.012 172.79 147.253C173.996 142.591 175.885 138.092 177.678 133.756C178.622 131.474 179.6 129.127 180.48 126.78C181.978 122.738 182.923 119.445 183.445 116.348C183.738 114.523 183.901 112.827 183.933 111.165C183.933 110.969 183.836 110.252 183.77 109.502C183.608 108.068 183.51 107.188 183.477 106.634L176.114 113.284C175.983 113.382 175.82 113.382 175.69 113.284C175.625 113.219 168.066 107.057 158.682 108.492C158.552 108.524 158.421 108.459 158.356 108.329L152.394 96.9188C152.165 97.7012 151.937 98.4836 151.742 99.266C150.536 103.537 149.298 107.938 147.083 111.947C145.649 114.523 144.248 117.294 142.782 120.456C138.22 130.268 134.343 140.961 131.28 152.306C128.836 161.336 126.947 170.692 125.676 180.048C124.926 185.492 124.373 191.067 124.047 196.576C123.949 198.141 123.884 199.706 123.819 201.27C123.493 209.388 123.688 217.277 123.916 223.927C123.982 225.557 124.014 227.22 124.079 228.85C124.242 234.359 124.405 240.064 125.024 245.606C125.904 253.267 128.543 257.016 132.877 256.82C134.962 256.722 138.057 255.06 139.849 250.691C142.619 244.074 142.847 237.26 143.075 230.088L143.108 229.143C143.303 223.601 143.498 218.059 143.661 212.517C143.759 209.388 143.889 206.226 143.987 203.096L144.02 202.607C144.02 202.542 144.02 202.379 144.052 202.118C144.215 200.064 144.248 198.858 144.215 198.565C144.15 198.467 144.15 198.369 144.183 198.271C144.248 198.108 144.443 198.01 144.606 198.076C144.737 198.108 148.288 199.347 151.123 198.369C151.025 198.304 151.058 198.304 151.09 198.304Z" fill="#2E1E00"/>
<path d="M125.281 179.95C124.532 185.46 123.978 190.969 123.652 196.511C122.316 195.598 121.013 194.457 120.068 193.74C117.918 192.11 115.898 190.284 114.04 188.328C110.391 184.482 107.328 180.081 105.113 175.288C100.649 165.639 99.5737 154.392 102.539 144.188C103.19 141.906 104.135 139.559 106.058 138.125C107.947 136.69 111.075 136.625 112.444 138.549C113.454 139.95 113.258 141.874 112.998 143.602C112.085 149.535 112.085 154.457 112.9 160.423C113.975 168.377 119.025 175.386 125.281 179.95Z" fill="#ADF0E7"/>
<path d="M123.619 196.837C123.553 196.837 123.488 196.804 123.423 196.772C122.511 196.152 121.631 195.435 120.849 194.816C120.491 194.522 120.132 194.229 119.839 194.001C117.689 192.338 115.636 190.513 113.779 188.557C110.032 184.612 107.002 180.211 104.786 175.419C100.224 165.574 99.2795 154.164 102.212 144.091C102.831 142.004 103.776 139.396 105.829 137.831C106.969 136.951 108.565 136.56 109.999 136.788C111.139 136.951 112.084 137.505 112.671 138.353C113.779 139.885 113.551 141.874 113.29 143.667C112.41 149.404 112.378 154.229 113.192 160.39C114.17 167.595 118.731 174.799 125.411 179.689C125.508 179.755 125.574 179.885 125.541 179.983C124.792 185.427 124.238 191.002 123.912 196.511C123.912 196.641 123.847 196.739 123.716 196.772C123.716 196.804 123.684 196.837 123.619 196.837ZM109.25 137.408C108.174 137.408 107.099 137.766 106.252 138.386C104.33 139.82 103.417 142.298 102.864 144.286C99.9963 154.197 100.909 165.443 105.405 175.158C107.588 179.885 110.586 184.221 114.267 188.1C116.092 190.024 118.112 191.849 120.263 193.479C120.556 193.707 120.914 194.001 121.305 194.294C121.924 194.816 122.641 195.37 123.358 195.891C123.716 190.61 124.238 185.297 124.954 180.081C118.112 175.028 113.616 167.888 112.606 160.456C111.759 154.229 111.791 149.339 112.703 143.536C112.964 141.906 113.16 140.048 112.182 138.712C111.53 137.831 110.618 137.505 109.934 137.408C109.706 137.408 109.478 137.408 109.25 137.408Z" fill="#2E1E00"/>
<path d="M196.801 164.531V177.407L169.041 174.93C169.237 171.605 169.562 168.182 169.986 164.563C170.018 164.302 170.051 164.042 170.084 163.781L196.801 164.531Z" fill="#ADF0E7"/>
<path d="M196.801 177.733C196.801 177.733 196.768 177.733 196.801 177.733L169.008 175.256C168.845 175.256 168.715 175.093 168.715 174.897C168.943 171.344 169.236 167.954 169.66 164.531C169.692 164.27 169.725 164.009 169.757 163.748C169.79 163.585 169.92 163.455 170.083 163.455L196.768 164.172C196.931 164.172 197.094 164.335 197.094 164.498V177.375C197.094 177.473 197.062 177.538 196.996 177.603C196.964 177.701 196.899 177.733 196.801 177.733ZM169.399 174.636L196.475 177.049V164.824L170.377 164.107C170.344 164.27 170.344 164.433 170.311 164.596C169.92 167.921 169.627 171.214 169.399 174.636Z" fill="#2E1E00"/>
<path d="M285.2 197.098C286.992 225.459 287.09 256.951 278.749 257.537C263.566 258.613 266.759 198.402 266.759 198.402C264.804 199.38 260.535 198.76 260.535 198.76L260.275 227.839C260.275 227.839 263.109 258.776 250.174 258.515C239.292 258.287 241.344 223.634 242.257 212.713C242.42 210.659 242.55 209.453 242.55 209.453C244.114 191.002 242.354 173.724 239.617 159.38C235.088 135.81 227.79 120.13 227.79 120.13V105.004L235.968 113.479C239.552 108.329 245.059 107.383 245.059 107.383C243.299 103.7 243.821 98.288 246.069 94.9303C249.685 89.5839 256.43 92.8113 260.894 95.3215C264.739 97.5056 268.42 100.048 271.907 102.754C277.511 107.09 284.418 112.958 286.178 120.195C289.436 133.659 281.128 152.566 281.128 152.566C281.128 152.566 282.724 165.541 284.125 182.395C284.516 187.057 284.875 192.012 285.2 197.098Z" fill="#FA6456"/>
<path d="M250.37 258.841C250.305 258.841 250.272 258.841 250.207 258.841C248.708 258.809 247.34 258.157 246.232 256.885C239.65 249.583 241.051 223.536 241.964 212.68C242.127 210.659 242.257 209.42 242.257 209.42C243.593 193.414 242.615 176.592 239.324 159.445C234.861 136.169 227.595 120.423 227.53 120.26C227.497 120.228 227.497 120.162 227.497 120.13V105.004C227.497 104.873 227.562 104.743 227.693 104.71C227.823 104.645 227.953 104.678 228.051 104.775L235.969 112.99C239.031 108.785 243.3 107.481 244.635 107.155C243.039 103.439 243.528 98.1902 245.841 94.7673C249.946 88.7363 258.027 93.3329 261.09 95.0607C264.641 97.0818 268.356 99.592 272.135 102.493C278.619 107.514 284.81 113.121 286.504 120.13C288.198 127.171 286.732 135.647 285.201 141.515C283.669 147.416 281.747 151.947 281.486 152.599C281.617 153.773 283.148 166.421 284.484 182.33C284.907 187.416 285.266 192.371 285.559 197.032C288.068 236.869 285.787 257.342 278.814 257.831C277.088 257.961 275.524 257.309 274.123 255.973C269.887 251.8 267.313 240.846 266.466 223.373C265.912 211.93 266.335 201.303 266.433 198.858C264.674 199.445 261.904 199.217 260.894 199.086L260.633 227.774C260.731 228.85 262.491 249.225 255.844 256.364C254.312 258.026 252.488 258.841 250.37 258.841ZM228.149 120.032C230.69 125.541 236.392 140.7 239.976 159.315C243.3 176.527 244.277 193.414 242.941 209.486C242.941 209.518 242.811 210.724 242.648 212.745C242.257 217.407 241.638 226.6 241.964 235.467C242.355 246.291 243.951 253.365 246.753 256.462C247.763 257.603 248.936 258.157 250.272 258.189C252.26 258.222 253.987 257.472 255.42 255.973C258.092 253.104 259.754 247.334 260.177 239.314C260.503 233.218 260.047 227.904 260.047 227.872V227.839L260.308 198.76C260.308 198.662 260.34 198.565 260.405 198.499C260.471 198.434 260.568 198.402 260.666 198.434C260.699 198.434 264.837 199.021 266.694 198.108C266.792 198.043 266.922 198.076 267.02 198.141C267.117 198.206 267.183 198.304 267.183 198.434C267.15 198.923 264.804 245.899 274.644 255.549C275.882 256.788 277.283 257.342 278.814 257.244C283.311 256.918 288.035 246.225 284.94 197.13C284.647 192.436 284.288 187.513 283.865 182.428C282.496 165.802 280.867 152.762 280.867 152.632C280.867 152.566 280.867 152.501 280.9 152.469C280.998 152.273 289.111 133.528 285.917 120.293C284.256 113.479 277.837 107.742 271.777 103.015C268.03 100.114 264.348 97.6034 260.829 95.6149C255.876 92.8113 249.783 90.2033 246.46 95.1259C244.212 98.4184 243.788 103.765 245.483 107.253C245.515 107.351 245.515 107.449 245.483 107.546C245.45 107.644 245.352 107.709 245.255 107.709C245.189 107.709 239.846 108.687 236.392 113.675C236.327 113.74 236.262 113.805 236.164 113.805C236.066 113.805 235.968 113.773 235.903 113.708L228.279 105.819V120.032H228.149Z" fill="#2E1E00"/>
<path d="M242.581 209.453C242.581 209.453 242.451 210.659 242.288 212.713C240.333 213.495 238.15 213.267 236 210.887C230.233 204.596 236.88 171.735 239.649 159.38C242.386 173.724 244.145 191.002 242.581 209.453Z" fill="#FA6456"/>
<path d="M240.266 213.463C238.67 213.463 237.138 212.68 235.705 211.116C229.905 204.791 236.291 172.778 239.289 159.315C239.321 159.152 239.452 159.054 239.615 159.054C239.778 159.054 239.908 159.152 239.94 159.315C243.264 176.527 244.241 193.414 242.905 209.486C242.905 209.486 242.775 210.724 242.612 212.745C242.612 212.876 242.515 212.974 242.417 213.006C241.667 213.3 240.983 213.463 240.266 213.463ZM239.615 161.01C237.008 172.941 230.72 204.693 236.226 210.692C238.018 212.648 239.941 213.234 241.993 212.485C242.156 210.627 242.286 209.518 242.286 209.42C243.557 193.903 242.677 177.603 239.615 161.01Z" fill="#2E1E00"/>
<path d="M285.198 197.098C284.872 192.045 284.514 187.057 284.123 182.395C288.261 180.341 295.038 176.169 297.743 169.844C299.567 165.606 299.241 160.586 298.883 156.12C298.557 152.175 295.494 143.797 299.535 140.961C301.066 139.885 303.216 140.081 304.748 141.091C307.615 142.982 309.798 151.523 310.385 154.653C312.209 164.498 310.971 188.785 285.198 197.098Z" fill="#FA6456"/>
<path d="M285.198 197.424C285.133 197.424 285.068 197.391 285.002 197.358C284.905 197.293 284.872 197.195 284.872 197.098C284.579 192.403 284.22 187.481 283.797 182.395C283.797 182.265 283.862 182.134 283.992 182.069C287.87 180.146 294.745 175.973 297.449 169.681C299.306 165.346 298.883 159.999 298.557 156.12C298.492 155.207 298.231 154.001 298.003 152.729C297.156 148.361 296.081 142.95 299.339 140.668C300.903 139.592 303.183 139.624 304.943 140.798C307.941 142.787 310.124 151.425 310.71 154.555C311.72 159.901 311.622 168.508 308.462 176.527C304.422 186.698 296.634 193.707 285.296 197.358C285.263 197.424 285.231 197.424 285.198 197.424ZM284.481 182.591C284.872 187.448 285.231 192.175 285.524 196.674C296.439 193.055 303.965 186.209 307.875 176.364C311.003 168.443 311.068 159.999 310.091 154.751C309.57 151.882 307.387 143.276 304.585 141.417C303.053 140.407 301.066 140.342 299.73 141.287C296.797 143.308 297.84 148.524 298.655 152.697C298.915 154.001 299.143 155.207 299.208 156.152C299.534 160.13 299.99 165.541 298.035 170.04C295.299 176.332 288.456 180.57 284.481 182.591Z" fill="#2E1E00"/>
<path d="M480.758 63.9932C480.693 63.9932 480.628 63.9606 480.595 63.928C470.56 57.5384 459.612 51.2141 447.198 44.5964C431.559 36.2508 414.811 27.6119 397.217 21.7114C378.091 15.2892 360.464 13.0725 343.325 14.8981C305.823 18.8752 271.448 37.5548 241.147 54.0177C240.984 54.1155 240.788 54.0503 240.69 53.8873C240.593 53.7243 240.658 53.5287 240.821 53.4309C271.188 36.9354 305.595 18.2558 343.228 14.2461C360.464 12.4205 378.189 14.6699 397.412 21.092C415.039 26.9925 431.819 35.664 447.491 44.0096C459.938 50.6599 470.886 56.9842 480.954 63.3738C481.117 63.4716 481.149 63.6672 481.051 63.8302C480.986 63.928 480.889 63.9932 480.758 63.9932Z" fill="#2E1E00"/>
<path d="M240.986 53.7242C229.386 60.016 216.451 67.3183 201.789 75.8268C189.473 67.7747 176.994 60.016 164.254 52.6158C169.663 45.3135 179.698 36.0552 193.839 32.7301C214.464 27.9379 233.329 41.2712 240.986 53.7242Z" fill="#FFDC38"/>
<path d="M201.788 76.1528C201.723 76.1528 201.658 76.1202 201.625 76.0876C188.299 67.3835 176.016 59.7878 164.123 52.8766C164.058 52.844 163.993 52.7462 163.96 52.6484C163.927 52.5506 163.96 52.4529 164.025 52.3877C167.544 47.6281 177.482 36.1856 193.806 32.4041C205.698 29.6331 215.929 33.056 222.446 36.4464C230.233 40.4888 237.108 46.7153 241.278 53.5286C241.311 53.5938 241.343 53.6916 241.311 53.7894C241.278 53.8872 241.246 53.9524 241.148 53.985C229.842 60.1464 217.004 67.3835 201.951 76.0876C201.919 76.1528 201.853 76.1528 201.788 76.1528ZM164.742 52.5507C176.504 59.3966 188.658 66.8945 201.788 75.4682C216.613 66.8619 229.288 59.69 240.496 53.6264C236.358 47.0413 229.679 41.0104 222.087 37.0984C215.701 33.7732 205.6 30.3829 193.903 33.1212C178.166 36.7724 168.391 47.6933 164.742 52.5507Z" fill="#2E1E00"/>
<path d="M196.8 142.689L188.198 183.96L211.43 192.534L232.152 157.587L196.8 142.689Z" fill="#FEFFFA"/>
<path d="M211.428 192.86C211.396 192.86 211.363 192.86 211.33 192.827L188.099 184.253C187.936 184.188 187.871 184.025 187.904 183.895L196.505 142.624C196.538 142.526 196.571 142.461 196.668 142.395C196.766 142.363 196.864 142.33 196.962 142.395L232.314 157.261C232.411 157.293 232.476 157.359 232.509 157.456C232.542 157.554 232.542 157.652 232.476 157.717L211.721 192.729C211.656 192.827 211.559 192.86 211.428 192.86ZM188.555 183.764L211.265 192.175L231.662 157.75L197.027 143.178L188.555 183.764Z" fill="#2E1E00"/>
<path d="M150.079 149.437C160.831 150.611 171.584 151.784 182.336 152.958C188.95 153.675 195.597 154.001 202.178 154.783C204.394 155.044 206.87 155.37 208.825 156.544C210.911 157.815 211.758 159.967 211.367 162.346C209.803 171.605 190.872 169.421 150.079 165.476" fill="#ADF0E7"/>
<path d="M194.295 169.192C185.074 169.192 171.976 167.921 154.544 166.226L150.015 165.802C149.852 165.769 149.689 165.639 149.722 165.443C149.755 165.248 149.885 165.117 150.08 165.15L154.609 165.574C173.54 167.399 187.224 168.736 196.51 168.508C205.992 168.28 210.325 166.389 211.01 162.281C211.401 159.967 210.521 157.978 208.631 156.804C206.806 155.696 204.493 155.37 202.115 155.077C198.693 154.685 195.175 154.392 191.819 154.131C188.691 153.87 185.465 153.61 182.272 153.284L150.015 149.763C149.852 149.73 149.722 149.567 149.722 149.404C149.755 149.241 149.917 149.111 150.08 149.111L182.337 152.632C185.498 152.99 188.723 153.251 191.851 153.479C195.24 153.74 198.726 154.033 202.18 154.425C204.656 154.718 207.035 155.044 208.957 156.218C211.107 157.522 212.085 159.738 211.629 162.346C210.814 167.399 205.275 169.192 194.295 169.192Z" fill="#2E1E00"/>
<path d="M165.26 148.655C157.897 148.655 151.413 146.144 146.851 143.667C140.172 140.048 135.969 135.745 135.903 135.712C135.773 135.582 135.773 135.386 135.903 135.256C136.034 135.126 136.229 135.126 136.36 135.256C136.392 135.289 140.563 139.559 147.144 143.113C153.205 146.373 162.588 149.73 172.982 147.025C173.145 146.992 173.341 147.09 173.373 147.253C173.406 147.416 173.308 147.611 173.145 147.644C170.473 148.361 167.802 148.655 165.26 148.655Z" fill="#FEFFFA"/>
<path d="M243.784 154.229C240.558 154.229 238.44 153.903 238.375 153.903C238.212 153.87 238.082 153.707 238.114 153.544C238.147 153.381 238.31 153.251 238.473 153.284C238.636 153.316 255.644 155.892 267.308 146.047C267.439 145.916 267.667 145.949 267.764 146.079C267.895 146.21 267.862 146.438 267.732 146.536C259.977 153.055 249.877 154.229 243.784 154.229Z" fill="#FEFFFA"/>
<path d="M265.908 155.044C265.876 155.044 265.843 155.044 265.843 155.044C265.68 155.011 265.55 154.816 265.615 154.653L265.843 153.707C267.179 148.1 268.319 143.145 269.33 138.614C269.981 135.615 270.568 132.909 271.089 130.333C271.154 130.073 271.187 129.812 271.252 129.584C271.545 128.247 271.806 127.106 271.317 125.802C270.763 124.335 269.623 123.096 268.515 121.923L268.222 121.597C266.104 119.315 263.888 117.261 261.803 115.338C258.805 112.632 255.808 110.056 252.908 107.677H245.121C244.925 107.677 244.795 107.546 244.795 107.351C244.795 107.155 244.925 107.025 245.121 107.025H253.038C253.103 107.025 253.201 107.057 253.234 107.09C256.166 109.502 259.196 112.11 262.259 114.849C264.377 116.772 266.593 118.858 268.743 121.14L269.036 121.466C270.177 122.705 271.35 123.944 271.969 125.541C272.523 127.008 272.229 128.312 271.936 129.714C271.871 129.942 271.838 130.203 271.773 130.464C271.252 133.039 270.665 135.745 270.014 138.744C269.004 143.308 267.863 148.263 266.527 153.87L266.299 154.816C266.169 154.946 266.039 155.044 265.908 155.044Z" fill="#2E1E00"/>
<path d="M231.342 122.829C232.876 120.807 233.33 118.567 232.355 117.827C231.38 117.087 229.347 118.126 227.813 120.148C226.279 122.17 225.825 124.409 226.8 125.149C227.775 125.89 229.808 124.851 231.342 122.829Z" fill="#2E1E00"/>
<path d="M250.17 119.069C250.679 117.955 249.222 116.196 246.915 115.14C244.608 114.083 242.325 114.128 241.816 115.241C241.306 116.355 242.764 118.114 245.071 119.17C247.377 120.227 249.66 120.182 250.17 119.069Z" fill="#2E1E00"/>
<path d="M261.964 115.109L256.359 123.39L268.415 121.369L261.964 115.109Z" fill="#2E1E00"/>
<path d="M256.36 123.716C256.263 123.716 256.132 123.651 256.1 123.553C256.034 123.455 256.034 123.292 256.1 123.194L261.704 114.946C261.769 114.881 261.834 114.816 261.932 114.816C262.03 114.816 262.127 114.849 262.193 114.914L268.644 121.173C268.742 121.271 268.774 121.401 268.742 121.499C268.709 121.597 268.611 121.695 268.481 121.727L256.425 123.716C256.393 123.716 256.393 123.716 256.36 123.716ZM262.03 115.631L257.077 122.933L267.764 121.173L262.03 115.631Z" fill="#2E1E00"/>
<path d="M270.698 124.042L263.172 129.812L271.383 130.399L271.871 127.237L270.698 124.042Z" fill="#2E1E00"/>
<path d="M271.383 130.725C271.383 130.725 271.351 130.725 271.383 130.725L263.14 130.138C263.01 130.138 262.879 130.04 262.847 129.91C262.814 129.779 262.847 129.649 262.977 129.551L270.536 123.781C270.634 123.716 270.732 123.683 270.829 123.716C270.927 123.748 270.992 123.814 271.057 123.911L272.23 127.074C272.263 127.139 272.263 127.171 272.23 127.237L271.742 130.399C271.677 130.627 271.546 130.725 271.383 130.725ZM264.052 129.551L271.123 130.073L271.579 127.269L270.601 124.596L264.052 129.551Z" fill="#2E1E00"/>
<path d="M255.451 195.761C255.451 195.761 257.569 198.565 260.534 198.76L255.451 195.761Z" fill="#2E1E00"/>
<path d="M260.567 199.086C260.567 199.086 260.535 199.086 260.567 199.086C257.439 198.891 255.289 196.087 255.224 195.957C255.126 195.826 255.159 195.598 255.289 195.5C255.419 195.402 255.647 195.435 255.745 195.565C255.778 195.598 257.798 198.271 260.6 198.434C260.795 198.434 260.926 198.597 260.893 198.793C260.861 198.956 260.73 199.086 260.567 199.086Z" fill="#2E1E00"/>
<path d="M151.089 198.63C151.089 198.63 153.402 198.043 154.477 195.761L151.089 198.63Z" fill="#2E1E00"/>
<path d="M151.087 198.956C150.957 198.956 150.826 198.858 150.761 198.728C150.729 198.565 150.826 198.369 150.989 198.336C151.022 198.336 153.172 197.75 154.15 195.631C154.215 195.468 154.41 195.402 154.573 195.468C154.736 195.533 154.801 195.728 154.736 195.891C153.596 198.304 151.25 198.923 151.152 198.956C151.152 198.956 151.12 198.956 151.087 198.956Z" fill="#2E1E00"/>
<path d="M144.539 115.892L151.088 122.444L141.248 122.803L144.539 115.892Z" fill="#2E1E00"/>
<path d="M141.246 123.129C141.149 123.129 141.051 123.064 140.986 122.966C140.92 122.868 140.92 122.738 140.953 122.64L144.244 115.729C144.276 115.631 144.374 115.566 144.472 115.533C144.57 115.501 144.667 115.533 144.765 115.631L151.282 122.184C151.379 122.281 151.412 122.412 151.347 122.542C151.282 122.673 151.184 122.738 151.054 122.738L141.246 123.129C141.279 123.129 141.279 123.129 141.246 123.129ZM144.635 116.446L141.768 122.477L150.304 122.184L144.635 116.446Z" fill="#2E1E00"/>
<path d="M139.978 125.737L146.168 131.051H137.827L139.978 125.737Z" fill="#2E1E00"/>
<path d="M146.169 131.377H137.795C137.697 131.377 137.6 131.311 137.534 131.246C137.469 131.181 137.469 131.051 137.502 130.953L139.685 125.639C139.717 125.541 139.815 125.476 139.913 125.444C140.011 125.411 140.108 125.444 140.206 125.509L146.397 130.823C146.495 130.92 146.527 131.051 146.495 131.181C146.429 131.279 146.299 131.377 146.169 131.377ZM138.284 130.725H145.289L140.108 126.291L138.284 130.725Z" fill="#2E1E00"/>
<path d="M166.955 137.212C166.923 137.212 166.89 137.212 166.858 137.179C166.695 137.114 166.597 136.919 166.662 136.756C167.64 134.05 164.74 132.909 164.609 132.844C164.447 132.778 164.349 132.583 164.414 132.42C164.479 132.257 164.675 132.159 164.838 132.224C164.87 132.224 168.454 133.659 167.249 136.951C167.216 137.114 167.086 137.212 166.955 137.212Z" fill="#2E1E00"/>
<path d="M245.088 137.212C244.958 137.212 244.828 137.114 244.762 136.984C243.818 133.496 246.717 132.289 246.75 132.257C246.913 132.192 247.108 132.257 247.174 132.453C247.239 132.616 247.174 132.811 246.978 132.876C246.88 132.909 244.567 133.887 245.382 136.821C245.414 136.984 245.316 137.179 245.153 137.212C245.121 137.179 245.121 137.212 245.088 137.212Z" fill="#2E1E00"/>
<path d="M171.192 132.583C172.038 132.583 172.724 131.897 172.724 131.051C172.724 130.205 172.038 129.519 171.192 129.519C170.347 129.519 169.661 130.205 169.661 131.051C169.661 131.897 170.347 132.583 171.192 132.583Z" fill="#2E1E00"/>
<path d="M238.768 134.474C239.613 134.474 240.299 133.788 240.299 132.942C240.299 132.095 239.613 131.409 238.768 131.409C237.922 131.409 237.236 132.095 237.236 132.942C237.236 133.788 237.922 134.474 238.768 134.474Z" fill="#2E1E00"/>
<path d="M164.415 127.074C165.009 127.074 165.49 126.592 165.49 125.998C165.49 125.404 165.009 124.922 164.415 124.922C163.821 124.922 163.34 125.404 163.34 125.998C163.34 126.592 163.821 127.074 164.415 127.074Z" fill="#2E1E00"/>
<path d="M176.405 130.594C176.999 130.594 177.481 130.113 177.481 129.519C177.481 128.924 176.999 128.443 176.405 128.443C175.811 128.443 175.33 128.924 175.33 129.519C175.33 130.113 175.811 130.594 176.405 130.594Z" fill="#2E1E00"/>
<path d="M234.693 130.073C235.287 130.073 235.769 129.591 235.769 128.997C235.769 128.403 235.287 127.921 234.693 127.921C234.1 127.921 233.618 128.403 233.618 128.997C233.618 129.591 234.1 130.073 234.693 130.073Z" fill="#2E1E00"/>
<path d="M243.817 126.65C244.411 126.65 244.893 126.168 244.893 125.574C244.893 124.98 244.411 124.498 243.817 124.498C243.224 124.498 242.742 124.98 242.742 125.574C242.742 126.168 243.224 126.65 243.817 126.65Z" fill="#2E1E00"/>
<path d="M163.913 120.117C166.361 119.448 168.084 117.949 167.762 116.768C167.44 115.587 165.194 115.171 162.746 115.84C160.299 116.508 158.576 118.007 158.898 119.189C159.22 120.37 161.465 120.785 163.913 120.117Z" fill="#2E1E00"/>
<path d="M183.49 127.734C184.47 127 184.03 124.758 182.509 122.726C180.988 120.695 178.96 119.643 177.981 120.377C177.002 121.111 177.441 123.353 178.963 125.385C180.484 127.416 182.511 128.468 183.49 127.734Z" fill="#2E1E00"/>
<path d="M240.981 28.2639C240.883 28.2639 240.818 28.2313 240.753 28.1661C240.623 28.0357 240.623 27.8401 240.753 27.7097L252.743 15.713C252.874 15.5826 253.069 15.5826 253.2 15.713C253.33 15.8434 253.33 16.039 253.2 16.1694L241.209 28.1661C241.144 28.2313 241.079 28.2639 240.981 28.2639Z" fill="#2E1E00"/>
<path d="M200.451 18.6796C200.255 18.6796 200.125 18.5492 200.125 18.3536V0.325997C200.125 0.130399 200.255 0 200.451 0C200.646 0 200.777 0.130399 200.777 0.325997V18.3536C200.777 18.5166 200.646 18.6796 200.451 18.6796Z" fill="#2E1E00"/>
<path d="M163.34 30.7415C163.274 30.7415 163.209 30.7089 163.144 30.6763L149.851 20.4074C149.72 20.3096 149.688 20.0814 149.785 19.951C149.883 19.8206 150.111 19.788 150.241 19.8858L163.503 30.1547C163.633 30.2525 163.665 30.4807 163.568 30.6111C163.535 30.7089 163.437 30.7415 163.34 30.7415Z" fill="#2E1E00"/>
<path d="M248.183 157.88C248.02 157.88 247.857 157.75 247.857 157.554L247.792 153.903C247.792 153.707 247.922 153.577 248.118 153.577C248.281 153.577 248.444 153.707 248.444 153.903L248.509 157.554C248.509 157.717 248.379 157.88 248.183 157.88Z" fill="#FEFFFA"/>
<path d="M251.572 163.65C252.094 164.596 251.768 165.802 250.823 166.324C249.976 166.813 248.933 166.584 248.347 165.867C248.184 166.063 248.021 166.226 247.793 166.356C246.848 166.878 245.642 166.552 245.121 165.606C244.795 165.052 244.795 164.4 245.023 163.879C244.893 163.879 244.73 163.846 244.6 163.813C243.557 163.52 242.938 162.444 243.231 161.401C243.524 160.358 244.6 159.738 245.642 160.032C245.838 160.097 246.001 160.162 246.163 160.26C245.707 159.347 246.033 158.206 246.945 157.685C247.89 157.163 249.096 157.489 249.617 158.434C249.845 158.826 249.91 159.282 249.845 159.738C250.79 159.249 251.931 159.575 252.452 160.488C252.973 161.434 252.647 162.64 251.703 163.161C251.572 163.227 251.442 163.292 251.312 163.324C251.409 163.39 251.507 163.52 251.572 163.65Z" fill="#FEFFFA"/>
<path d="M246.848 166.91C246.066 166.91 245.284 166.487 244.86 165.769C244.567 165.28 244.502 164.694 244.632 164.139C244.6 164.139 244.567 164.139 244.534 164.107C243.948 163.944 243.459 163.553 243.166 163.031C242.873 162.509 242.775 161.89 242.938 161.303C243.264 160.13 244.469 159.412 245.642 159.673C245.512 158.76 245.935 157.848 246.783 157.359C247.304 157.065 247.923 156.967 248.509 157.13C249.096 157.293 249.585 157.685 249.878 158.206C250.041 158.5 250.139 158.826 250.171 159.184C251.149 158.923 252.191 159.347 252.713 160.26C253.332 161.368 252.941 162.77 251.865 163.39C251.833 163.39 251.833 163.422 251.8 163.422C251.8 163.455 251.833 163.455 251.833 163.487C252.452 164.596 252.061 165.965 250.986 166.617C250.106 167.106 249.063 166.976 248.347 166.356C248.216 166.454 248.086 166.552 247.956 166.65C247.597 166.813 247.206 166.91 246.848 166.91ZM245.121 160.26C244.404 160.26 243.752 160.749 243.557 161.466C243.427 161.89 243.492 162.314 243.72 162.705C243.948 163.096 244.274 163.357 244.697 163.487C244.828 163.52 244.925 163.553 245.056 163.553C245.153 163.553 245.251 163.618 245.316 163.716C245.382 163.813 245.382 163.911 245.349 164.009C245.153 164.498 245.186 165.02 245.414 165.476C245.87 166.258 246.848 166.519 247.63 166.095C247.825 165.998 247.956 165.867 248.086 165.704C248.151 165.639 248.249 165.574 248.347 165.574C248.444 165.574 248.542 165.606 248.607 165.704C249.096 166.324 249.976 166.487 250.692 166.095C251.474 165.639 251.735 164.661 251.312 163.879C251.246 163.781 251.181 163.683 251.083 163.585C251.018 163.487 250.986 163.39 251.018 163.292C251.051 163.194 251.116 163.096 251.246 163.064C251.377 163.031 251.474 162.966 251.572 162.933C252.354 162.477 252.615 161.499 252.191 160.716C251.768 159.934 250.79 159.673 250.008 160.064C249.91 160.13 249.78 160.097 249.65 160.032C249.52 159.967 249.487 159.836 249.52 159.706C249.585 159.347 249.52 158.956 249.324 158.63C249.096 158.239 248.77 157.978 248.347 157.848C247.923 157.717 247.499 157.782 247.108 158.011C246.359 158.434 246.066 159.38 246.457 160.162C246.522 160.293 246.489 160.456 246.392 160.553C246.294 160.651 246.131 160.651 246.001 160.586C245.87 160.521 245.74 160.456 245.577 160.39C245.414 160.293 245.284 160.26 245.121 160.26Z" fill="#2E1E00"/>
<path d="M66.5685 252.387C66.5685 252.387 66.0146 249.616 63.6361 248.866C62.3002 248.442 60.8014 248.899 59.9542 250.007C59.7587 250.235 59.661 250.496 59.6284 250.757C59.6284 250.757 54.4152 252.126 55.8163 255.647C57.4454 259.722 60.6711 256.364 60.6711 256.364C60.6711 256.364 60.5407 260.797 63.6035 260.015C66.6662 259.2 65.0697 255.386 65.0697 255.386C65.0697 255.386 68.3279 256.266 68.5234 254.473C68.7515 252.68 66.5685 252.387 66.5685 252.387Z" fill="#FEFFFA"/>
<path d="M62.9197 260.439C62.431 260.439 61.9748 260.276 61.5838 259.982C60.7041 259.265 60.4435 257.896 60.3783 257.048C59.7592 257.505 58.7166 258.157 57.6739 257.929C56.7616 257.766 56.0448 257.016 55.5561 255.744C55.1977 254.832 55.1977 253.951 55.6213 253.169C56.4358 251.507 58.684 250.724 59.4008 250.496C59.466 250.268 59.5637 250.04 59.7592 249.779C60.6715 248.573 62.3332 248.051 63.7994 248.507C65.9173 249.192 66.6993 251.344 66.8948 252.061C67.7745 252.256 69.1104 252.908 68.9475 254.473C68.9149 254.929 68.6868 255.288 68.3284 255.516C67.579 256.038 66.3735 255.907 65.6567 255.777C65.8847 256.527 66.1128 257.831 65.5915 258.907C65.2331 259.591 64.6466 260.08 63.7669 260.308C63.441 260.406 63.1804 260.439 62.9197 260.439ZM60.7041 256.038C60.7367 256.038 60.8019 256.038 60.8345 256.07C60.9648 256.136 61.0299 256.233 61.0299 256.396C61.0299 256.429 60.9648 258.678 62.0074 259.493C62.3984 259.819 62.8871 259.885 63.5388 259.722C64.223 259.559 64.6792 259.2 64.9398 258.678C65.5589 257.407 64.8095 255.549 64.7769 255.516C64.7443 255.386 64.7443 255.255 64.8421 255.19C64.9398 255.092 65.0376 255.06 65.1679 255.092C65.6892 255.223 67.2206 255.516 67.8723 255.027C68.0678 254.897 68.1655 254.701 68.1981 254.44C68.361 252.974 66.569 252.745 66.5038 252.713C66.3735 252.68 66.2431 252.582 66.2431 252.452C66.2431 252.419 65.6892 249.877 63.5388 249.159C62.3332 248.768 60.9648 249.192 60.2154 250.203C60.0525 250.431 59.9873 250.626 59.9547 250.789C59.9547 250.92 59.857 251.05 59.7266 251.083C59.6941 251.083 56.9897 251.833 56.1751 253.495C55.8493 254.114 55.8493 254.799 56.1426 255.549C56.5661 256.592 57.12 257.211 57.8043 257.342C59.075 257.603 60.4435 256.168 60.4435 256.168C60.5412 256.07 60.6064 256.038 60.7041 256.038Z" fill="#2E1E00"/>
<path d="M325.241 254.277C325.241 254.277 321.299 253.886 320.647 257.309C319.963 260.732 323.71 259.559 323.71 259.559C323.71 259.559 323.319 262.427 325.534 262.753C327.75 263.079 328.239 260.145 328.239 260.145C328.239 260.145 332.214 261.743 332.605 258.548C332.996 255.353 329.346 255.907 329.346 255.907C329.346 255.907 329.575 252.321 327.717 252.387C325.828 252.354 325.241 254.277 325.241 254.277Z" fill="#FEFFFA"/>
<path d="M325.861 263.079C325.731 263.079 325.6 263.079 325.503 263.047C323.743 262.786 323.352 261.123 323.352 259.95C322.701 260.08 321.528 260.178 320.843 259.526C320.29 259.037 320.127 258.255 320.355 257.211C320.648 255.679 321.625 254.636 323.124 254.18C323.939 253.919 324.656 253.919 325.047 253.919C325.372 253.169 326.22 252.028 327.718 251.996C328.174 251.996 328.565 252.159 328.859 252.485C329.608 253.267 329.673 254.799 329.673 255.516C330.292 255.484 331.498 255.549 332.28 256.299C332.834 256.82 333.029 257.603 332.932 258.581C332.834 259.493 332.443 260.113 331.791 260.504C330.716 261.156 329.152 260.797 328.468 260.569C328.207 261.612 327.393 263.079 325.861 263.079ZM323.711 259.233C323.776 259.233 323.874 259.265 323.906 259.298C324.004 259.363 324.036 259.493 324.004 259.591C324.004 259.689 323.678 262.134 325.568 262.395C327.458 262.656 327.881 260.145 327.914 260.048C327.914 259.95 327.979 259.852 328.077 259.819C328.174 259.787 328.272 259.754 328.37 259.787C328.403 259.787 330.325 260.569 331.465 259.885C331.921 259.624 332.182 259.135 332.28 258.45C332.378 257.7 332.215 257.114 331.824 256.722C331.009 255.94 329.413 256.168 329.38 256.168C329.282 256.168 329.185 256.168 329.119 256.07C329.054 255.973 329.022 255.907 329.022 255.81C329.054 255.223 329.022 253.56 328.403 252.908C328.207 252.713 328.012 252.615 327.751 252.648C326.154 252.68 325.6 254.31 325.6 254.375C325.568 254.506 325.405 254.604 325.242 254.604C325.079 254.604 321.593 254.278 320.974 257.374C320.811 258.189 320.909 258.776 321.267 259.102C321.886 259.656 323.157 259.396 323.613 259.265C323.646 259.233 323.678 259.233 323.711 259.233Z" fill="#2E1E00"/>
<path d="M185.626 264.481C187.32 265.068 189.08 264.97 190.676 263.829C193.25 261.971 193.544 258.711 191.458 258.255C189.373 257.798 188.754 259.07 188.754 259.07C188.754 259.07 189.406 256.527 187.386 256.168C185.365 255.842 185.072 258.026 185.072 258.026C185.072 258.026 182.922 255.712 181.521 258.255C180.315 260.439 182.27 262.59 184.062 263.699C184.518 264.025 185.072 264.286 185.626 264.481Z" fill="#FEFFFA"/>
<path d="M187.615 265.166C186.931 265.166 186.214 265.035 185.497 264.807C184.943 264.612 184.389 264.351 183.836 263.992C181.653 262.656 179.991 260.308 181.196 258.124C181.653 257.309 182.239 256.853 182.923 256.788C183.705 256.69 184.455 257.114 184.878 257.472C185.009 257.081 185.269 256.592 185.758 256.233C186.214 255.907 186.801 255.777 187.452 255.875C188.039 255.973 188.495 256.266 188.788 256.722C189.081 257.179 189.179 257.766 189.179 258.222C189.668 257.929 190.417 257.7 191.525 257.961C192.34 258.157 192.926 258.744 193.089 259.591C193.415 261.091 192.47 262.949 190.873 264.123C189.863 264.807 188.788 265.166 187.615 265.166ZM183.151 257.407C183.119 257.407 183.054 257.407 182.988 257.407C182.532 257.472 182.109 257.798 181.75 258.418C180.61 260.471 182.728 262.525 184.161 263.405C184.683 263.731 185.171 263.96 185.693 264.155C186.898 264.579 188.69 264.807 190.417 263.568C192.014 262.427 192.6 260.765 192.405 259.689C192.307 259.265 192.046 258.744 191.33 258.581C189.538 258.189 188.984 259.2 188.984 259.233C188.918 259.396 188.723 259.461 188.593 259.396C188.43 259.33 188.365 259.167 188.397 259.004C188.397 259.004 188.69 257.798 188.202 257.081C188.006 256.788 187.713 256.592 187.289 256.527C186.801 256.462 186.41 256.527 186.116 256.755C185.497 257.211 185.367 258.092 185.367 258.124C185.334 258.255 185.269 258.352 185.139 258.385C185.009 258.418 184.878 258.385 184.813 258.287C184.813 258.255 183.998 257.407 183.151 257.407Z" fill="#2E1E00"/>
<path d="M223.586 255.582C223.586 255.582 221.24 255.353 220.817 257.407C220.426 259.461 222.641 258.776 222.641 258.776C222.641 258.776 222.413 260.504 223.749 260.667C225.085 260.863 225.378 259.102 225.378 259.102C225.378 259.102 227.757 260.048 227.985 258.124C228.213 256.201 226.03 256.527 226.03 256.527C226.03 256.527 226.16 254.375 225.053 254.408C223.945 254.44 223.586 255.582 223.586 255.582Z" fill="#FEFFFA"/>
<path d="M223.976 260.993C223.911 260.993 223.813 260.993 223.716 260.96C222.64 260.797 222.347 259.852 222.315 259.135C221.891 259.2 221.272 259.2 220.848 258.841C220.49 258.515 220.36 257.994 220.522 257.309C220.848 255.614 222.412 255.19 223.39 255.223C223.585 254.832 224.074 254.082 225.084 254.082C225.377 254.082 225.671 254.18 225.866 254.408C226.29 254.864 226.387 255.679 226.387 256.168C226.811 256.168 227.463 256.233 227.919 256.657C228.277 257.016 228.407 257.505 228.342 258.124C228.277 258.711 228.016 259.135 227.593 259.363C226.974 259.722 226.094 259.591 225.638 259.461C225.41 260.178 224.921 260.993 223.976 260.993ZM222.673 258.418C222.738 258.418 222.836 258.45 222.868 258.483C222.966 258.548 222.999 258.678 222.966 258.776C222.966 258.841 222.803 260.178 223.781 260.308C224.791 260.471 225.019 259.07 225.019 259.004C225.019 258.907 225.084 258.809 225.182 258.776C225.28 258.744 225.377 258.711 225.475 258.744C225.768 258.874 226.713 259.135 227.234 258.809C227.463 258.678 227.625 258.418 227.658 258.026C227.723 257.603 227.625 257.309 227.43 257.114C227.072 256.755 226.322 256.788 226.094 256.82C225.996 256.82 225.899 256.82 225.833 256.722C225.768 256.657 225.736 256.559 225.736 256.462C225.768 256.005 225.703 255.125 225.377 254.799C225.28 254.701 225.214 254.669 225.084 254.669C224.204 254.701 223.911 255.614 223.911 255.614C223.878 255.777 223.716 255.842 223.553 255.842C223.455 255.842 221.467 255.679 221.142 257.407C221.044 257.863 221.109 258.157 221.272 258.32C221.598 258.613 222.314 258.45 222.543 258.385C222.608 258.418 222.64 258.418 222.673 258.418Z" fill="#2E1E00"/>
<path d="M3.13219 241.303C3.13219 241.303 0.786246 241.075 0.362674 243.128C-0.0283161 245.182 2.1873 244.498 2.1873 244.498C2.1873 244.498 1.95922 246.225 3.2951 246.388C4.63098 246.584 4.92422 244.824 4.92422 244.824C4.92422 244.824 7.30274 245.769 7.53082 243.846C7.7589 241.922 5.57587 242.248 5.57587 242.248C5.57587 242.248 5.7062 240.097 4.5984 240.129C3.45801 240.162 3.13219 241.303 3.13219 241.303Z" fill="#FEFFFA"/>
<path d="M3.48891 246.714C3.42375 246.714 3.326 246.714 3.22826 246.682C2.15303 246.519 1.85979 245.573 1.8272 244.856C1.40363 244.921 0.784563 244.921 0.360991 244.563C0.00258369 244.237 -0.127746 243.715 0.0351662 243.031C0.360991 241.335 1.92496 240.912 2.90243 240.944C3.09793 240.553 3.58666 239.803 4.59671 239.803C4.88996 239.803 5.18321 239.901 5.3787 240.129C5.80228 240.586 5.90001 241.401 5.90001 241.89C6.32359 241.89 6.97524 241.955 7.4314 242.379C7.7898 242.737 7.92013 243.226 7.85496 243.846C7.7898 244.432 7.52914 244.856 7.10557 245.084C6.4865 245.443 5.60678 245.313 5.15062 245.182C4.92254 245.867 4.4338 246.714 3.48891 246.714ZM2.18561 244.139C2.25078 244.139 2.34853 244.172 2.38111 244.204C2.47886 244.269 2.51144 244.4 2.47885 244.498C2.47885 244.563 2.31594 245.899 3.29342 246.03C4.30347 246.16 4.53156 244.791 4.53156 244.726C4.53156 244.628 4.59672 244.53 4.69447 244.498C4.79222 244.465 4.88996 244.432 4.98771 244.465C5.28095 244.595 6.22584 244.856 6.74716 244.53C6.97524 244.4 7.13816 244.139 7.17074 243.748C7.2359 243.324 7.13815 243.031 6.94266 242.835C6.58425 242.476 5.83485 242.509 5.57419 242.542C5.47644 242.542 5.3787 242.542 5.31353 242.444C5.24837 242.379 5.21579 242.281 5.21579 242.183C5.24837 241.727 5.18321 240.846 4.85738 240.52C4.75963 240.423 4.66189 240.39 4.56414 240.39C3.68441 240.423 3.39117 241.303 3.39117 241.335C3.35859 241.466 3.19567 241.564 3.03276 241.564C2.93501 241.564 0.980064 241.401 0.621657 243.128C0.52391 243.585 0.589073 243.878 0.751985 244.041C1.07781 244.335 1.79462 244.172 2.0227 244.106C2.12045 244.139 2.15303 244.139 2.18561 244.139Z" fill="#2E1E00"/>
<path d="M100.877 86.4217C101.291 86.4217 101.627 86.086 101.627 85.6719C101.627 85.2578 101.291 84.9221 100.877 84.9221C100.463 84.9221 100.128 85.2578 100.128 85.6719C100.128 86.086 100.463 86.4217 100.877 86.4217Z" fill="#2E1E00"/>
<path d="M210.161 286.812C210.575 286.812 210.911 286.476 210.911 286.062C210.911 285.648 210.575 285.312 210.161 285.312C209.748 285.312 209.412 285.648 209.412 286.062C209.412 286.476 209.748 286.812 210.161 286.812Z" fill="#2E1E00"/>
<path d="M116.713 75.077C117.127 75.077 117.463 74.7413 117.463 74.3272C117.463 73.9131 117.127 73.5774 116.713 73.5774C116.299 73.5774 115.964 73.9131 115.964 74.3272C115.964 74.7413 116.299 75.077 116.713 75.077Z" fill="#2E1E00"/>
<path d="M202.632 215.549C203.046 215.549 203.382 215.213 203.382 214.799C203.382 214.385 203.046 214.049 202.632 214.049C202.218 214.049 201.883 214.385 201.883 214.799C201.883 215.213 202.218 215.549 202.632 215.549Z" fill="#2E1E00"/>
<path d="M117.463 285.801C117.877 285.801 118.213 285.466 118.213 285.052C118.213 284.637 117.877 284.302 117.463 284.302C117.049 284.302 116.714 284.637 116.714 285.052C116.714 285.466 117.049 285.801 117.463 285.801Z" fill="#2E1E00"/>
<path d="M132.386 100.668C132.8 100.668 133.135 100.332 133.135 99.918C133.135 99.5039 132.8 99.1682 132.386 99.1682C131.972 99.1682 131.637 99.5039 131.637 99.918C131.637 100.332 131.972 100.668 132.386 100.668Z" fill="#2E1E00"/>
<path d="M92.6996 54.7348C93.1135 54.7348 93.449 54.3992 93.449 53.9851C93.449 53.571 93.1135 53.2353 92.6996 53.2353C92.2857 53.2353 91.9502 53.571 91.9502 53.9851C91.9502 54.3992 92.2857 54.7348 92.6996 54.7348Z" fill="#2E1E00"/>
<path d="M91.9496 32.8931C92.3635 32.8931 92.699 32.5574 92.699 32.1433C92.699 31.7292 92.3635 31.3935 91.9496 31.3935C91.5357 31.3935 91.2002 31.7292 91.2002 32.1433C91.2002 32.5574 91.5357 32.8931 91.9496 32.8931Z" fill="#2E1E00"/>
<path d="M156.693 73.7405C157.107 73.7405 157.442 73.4048 157.442 72.9907C157.442 72.5766 157.107 72.2409 156.693 72.2409C156.279 72.2409 155.943 72.5766 155.943 72.9907C155.943 73.4048 156.279 73.7405 156.693 73.7405Z" fill="#2E1E00"/>
<path d="M190.806 92.7787C191.22 92.7787 191.555 92.443 191.555 92.0289C191.555 91.6148 191.22 91.2791 190.806 91.2791C190.392 91.2791 190.057 91.6148 190.057 92.0289C190.057 92.443 190.392 92.7787 190.806 92.7787Z" fill="#2E1E00"/>
<path d="M125.283 54.7348C125.696 54.7348 126.032 54.3992 126.032 53.9851C126.032 53.571 125.696 53.2353 125.283 53.2353C124.869 53.2353 124.533 53.571 124.533 53.9851C124.533 54.3992 124.869 54.7348 125.283 54.7348Z" fill="#2E1E00"/>
<path d="M68.5892 45.6069C69.0031 45.6069 69.3386 45.2712 69.3386 44.8571C69.3386 44.443 69.0031 44.1074 68.5892 44.1074C68.1754 44.1074 67.8398 44.443 67.8398 44.8571C67.8398 45.2712 68.1754 45.6069 68.5892 45.6069Z" fill="#2E1E00"/>
<path d="M78.9174 96.7559C79.3313 96.7559 79.6668 96.4202 79.6668 96.0061C79.6668 95.592 79.3313 95.2563 78.9174 95.2563C78.5035 95.2563 78.168 95.592 78.168 96.0061C78.168 96.4202 78.5035 96.7559 78.9174 96.7559Z" fill="#2E1E00"/>
<path d="M20.6263 274.457C21.0402 274.457 21.3757 274.121 21.3757 273.707C21.3757 273.293 21.0402 272.957 20.6263 272.957C20.2125 272.957 19.877 273.293 19.877 273.707C19.877 274.121 20.2125 274.457 20.6263 274.457Z" fill="#2E1E00"/>
<path d="M62.8549 76.5766C63.2688 76.5766 63.6043 76.2409 63.6043 75.8268C63.6043 75.4127 63.2688 75.0771 62.8549 75.0771C62.441 75.0771 62.1055 75.4127 62.1055 75.8268C62.1055 76.2409 62.441 76.5766 62.8549 76.5766Z" fill="#2E1E00"/>
<path d="M27.601 69.5025C28.0148 69.5025 28.3504 69.1668 28.3504 68.7527C28.3504 68.3386 28.0148 68.0029 27.601 68.0029C27.1871 68.0029 26.8516 68.3386 26.8516 68.7527C26.8516 69.1668 27.1871 69.5025 27.601 69.5025Z" fill="#2E1E00"/>
<path d="M40.0463 47.5303C40.4602 47.5303 40.7957 47.1946 40.7957 46.7805C40.7957 46.3664 40.4602 46.0307 40.0463 46.0307C39.6324 46.0307 39.2969 46.3664 39.2969 46.7805C39.2969 47.1946 39.6324 47.5303 40.0463 47.5303Z" fill="#2E1E00"/>
<path d="M-0.451781 77.3264C-0.0379013 77.3264 0.29762 76.9907 0.29762 76.5766C0.29762 76.1625 -0.0379013 75.8268 -0.451781 75.8268C-0.86566 75.8268 -1.20117 76.1625 -1.20117 76.5766C-1.20117 76.9907 -0.86566 77.3264 -0.451781 77.3264Z" fill="#2E1E00"/>
<path d="M39.2992 95.7452C39.7131 95.7452 40.0486 95.4095 40.0486 94.9955C40.0486 94.5814 39.7131 94.2457 39.2992 94.2457C38.8853 94.2457 38.5498 94.5814 38.5498 94.9955C38.5498 95.4095 38.8853 95.7452 39.2992 95.7452Z" fill="#2E1E00"/>
<path d="M78.9174 216.918C79.3313 216.918 79.6668 216.583 79.6668 216.168C79.6668 215.754 79.3313 215.419 78.9174 215.419C78.5035 215.419 78.168 215.754 78.168 216.168C78.168 216.583 78.5035 216.918 78.9174 216.918Z" fill="#2E1E00"/>
<path d="M331.368 76.9678C331.781 76.9678 332.117 76.6321 332.117 76.218C332.117 75.8039 331.781 75.4682 331.368 75.4682C330.954 75.4682 330.618 75.8039 330.618 76.218C330.618 76.6321 330.954 76.9678 331.368 76.9678Z" fill="#2E1E00"/>
<path d="M297.545 282.867C297.959 282.867 298.295 282.532 298.295 282.118C298.295 281.703 297.959 281.368 297.545 281.368C297.131 281.368 296.796 281.703 296.796 282.118C296.796 282.532 297.131 282.867 297.545 282.867Z" fill="#2E1E00"/>
<path d="M352.579 220.993C352.992 220.993 353.328 220.657 353.328 220.243C353.328 219.829 352.992 219.494 352.579 219.494C352.165 219.494 351.829 219.829 351.829 220.243C351.829 220.657 352.165 220.993 352.579 220.993Z" fill="#2E1E00"/>
<path d="M315.534 65.6557C315.947 65.6557 316.283 65.32 316.283 64.9059C316.283 64.4918 315.947 64.1562 315.534 64.1562C315.12 64.1562 314.784 64.4918 314.784 64.9059C314.784 65.32 315.12 65.6557 315.534 65.6557Z" fill="#2E1E00"/>
<path d="M300.611 96.006C301.025 96.006 301.36 95.6703 301.36 95.2562C301.36 94.8421 301.025 94.5064 300.611 94.5064C300.197 94.5064 299.861 94.8421 299.861 95.2562C299.861 95.6703 300.197 96.006 300.611 96.006Z" fill="#2E1E00"/>
<path d="M339.542 45.281C339.956 45.281 340.292 44.9453 340.292 44.5312C340.292 44.1171 339.956 43.7814 339.542 43.7814C339.129 43.7814 338.793 44.1171 338.793 44.5312C338.793 44.9453 339.129 45.281 339.542 45.281Z" fill="#2E1E00"/>
<path d="M341.044 28.1335C341.458 28.1335 341.794 27.7978 341.794 27.3837C341.794 26.9696 341.458 26.6339 341.044 26.6339C340.63 26.6339 340.295 26.9696 340.295 27.3837C340.295 27.7978 340.63 28.1335 341.044 28.1335Z" fill="#2E1E00"/>
<path d="M275.552 64.2866C275.966 64.2866 276.302 63.9509 276.302 63.5368C276.302 63.1227 275.966 62.787 275.552 62.787C275.138 62.787 274.803 63.1227 274.803 63.5368C274.803 63.9509 275.138 64.2866 275.552 64.2866Z" fill="#2E1E00"/>
<path d="M241.44 83.3248C241.854 83.3248 242.189 82.9891 242.189 82.575C242.189 82.1609 241.854 81.8252 241.44 81.8252C241.026 81.8252 240.69 82.1609 240.69 82.575C240.69 82.9891 241.026 83.3248 241.44 83.3248Z" fill="#2E1E00"/>
<path d="M306.963 45.281C307.377 45.281 307.713 44.9453 307.713 44.5312C307.713 44.1171 307.377 43.7814 306.963 43.7814C306.549 43.7814 306.214 44.1171 306.214 44.5312C306.214 44.9453 306.549 45.281 306.963 45.281Z" fill="#2E1E00"/>
<path d="M363.655 36.153C364.069 36.153 364.404 35.8173 364.404 35.4032C364.404 34.9891 364.069 34.6534 363.655 34.6534C363.241 34.6534 362.905 34.9891 362.905 35.4032C362.905 35.8173 363.241 36.153 363.655 36.153Z" fill="#2E1E00"/>
<path d="M353.328 87.3019C353.741 87.3019 354.077 86.9662 354.077 86.5521C354.077 86.138 353.741 85.8024 353.328 85.8024C352.914 85.8024 352.578 86.138 352.578 86.5521C352.578 86.9662 352.914 87.3019 353.328 87.3019Z" fill="#2E1E00"/>
<path d="M301.358 213.886C301.772 213.886 302.107 213.551 302.107 213.137C302.107 212.723 301.772 212.387 301.358 212.387C300.944 212.387 300.608 212.723 300.608 213.137C300.608 213.551 300.944 213.886 301.358 213.886Z" fill="#2E1E00"/>
<path d="M369.421 67.1553C369.835 67.1553 370.171 66.8197 370.171 66.4056C370.171 65.9915 369.835 65.6558 369.421 65.6558C369.007 65.6558 368.672 65.9915 368.672 66.4056C368.672 66.8197 369.007 67.1553 369.421 67.1553Z" fill="#2E1E00"/>
<path d="M364.406 280.553C364.82 280.553 365.155 280.217 365.155 279.803C365.155 279.389 364.82 279.053 364.406 279.053C363.992 279.053 363.656 279.389 363.656 279.803C363.656 280.217 363.992 280.553 364.406 280.553Z" fill="#2E1E00"/>
<path d="M398.913 59.2988C399.326 59.2988 399.662 58.9631 399.662 58.549C399.662 58.1349 399.326 57.7992 398.913 57.7992C398.499 57.7992 398.163 58.1349 398.163 58.549C398.163 58.9631 398.499 59.2988 398.913 59.2988Z" fill="#2E1E00"/>
<path d="M392.947 36.153C393.361 36.153 393.696 35.8173 393.696 35.4032C393.696 34.9891 393.361 34.6534 392.947 34.6534C392.533 34.6534 392.197 34.9891 392.197 35.4032C392.197 35.8173 392.533 36.153 392.947 36.153Z" fill="#2E1E00"/>
<path d="M392.947 86.2913C393.361 86.2913 393.696 85.9556 393.696 85.5415C393.696 85.1274 393.361 84.7917 392.947 84.7917C392.533 84.7917 392.197 85.1274 392.197 85.5415C392.197 85.9556 392.533 86.2913 392.947 86.2913Z" fill="#2E1E00"/>
<path d="M390.633 250.463C390.633 250.463 393.533 250.17 393.37 252.484C393.207 254.832 390.503 253.756 390.503 253.756C390.503 253.756 390.991 257.277 388.483 256.885C385.974 256.494 386.756 252.582 386.756 252.582C386.756 252.582 384.801 250.822 385.941 249.257C387.049 247.725 390.275 248.605 390.633 250.463Z" fill="#FEFFFA"/>
<path d="M388.841 257.277C388.711 257.277 388.58 257.277 388.417 257.244C387.766 257.146 387.244 256.82 386.886 256.299C386.071 255.158 386.299 253.299 386.365 252.745C385.615 251.995 384.67 250.463 385.615 249.094C386.169 248.312 387.277 247.953 388.45 248.214C389.427 248.41 390.503 249.094 390.828 250.105C391.35 250.105 392.392 250.17 393.077 250.822C393.5 251.246 393.696 251.8 393.63 252.517C393.565 253.234 393.305 253.756 392.816 254.049C392.164 254.473 391.317 254.343 390.763 254.212C390.796 254.897 390.731 256.103 390.046 256.755C389.786 257.114 389.362 257.277 388.841 257.277ZM387.733 248.801C387.147 248.801 386.56 248.964 386.202 249.485C385.257 250.822 386.919 252.321 386.984 252.387C387.081 252.452 387.114 252.582 387.081 252.68C387.081 252.713 386.658 254.799 387.44 255.94C387.701 256.299 388.059 256.527 388.515 256.592C389.004 256.657 389.395 256.592 389.655 256.299C390.274 255.679 390.242 254.31 390.177 253.821C390.177 253.691 390.209 253.593 390.307 253.528C390.405 253.462 390.503 253.43 390.633 253.495C390.959 253.625 392.001 253.886 392.555 253.528C392.849 253.332 393.011 253.006 393.044 252.484C393.077 251.963 392.946 251.604 392.686 251.311C392.034 250.659 390.698 250.789 390.665 250.789C390.503 250.789 390.34 250.691 390.307 250.528C390.144 249.648 389.199 249.061 388.352 248.866C388.157 248.833 387.961 248.801 387.733 248.801Z" fill="#2E1E00"/>
<path d="M376.646 208.169L377.711 318.661H347.839V276.139C347.839 276.139 322.887 258.709 327.35 247.951C331.813 237.219 347.839 258.277 347.839 258.277C347.662 250.057 347.814 241.811 348.067 233.591C348.524 219.358 349.208 204.795 352.353 190.866C353.418 186.071 354.356 179.956 358.439 176.658C365.235 171.152 371.599 179.297 373.222 185.36C373.856 187.72 374.186 190.156 374.389 192.591C374.389 192.591 378.902 185.157 384.43 187.644C389.958 190.13 388.107 200.177 376.646 208.169Z" fill="#50C56E"/>
<path d="M377.71 318.915H347.838C347.686 318.915 347.584 318.813 347.584 318.661V276.265C346.722 275.657 340.966 271.496 335.742 266.244C328.135 258.607 325.219 252.417 327.121 247.85C328.236 245.16 330.164 244.146 332.826 244.856C335.514 245.566 338.887 248.027 342.868 252.137C344.415 253.736 345.733 255.258 346.57 256.273C347.027 256.806 347.356 257.212 347.559 257.491C347.432 250.311 347.508 242.674 347.813 233.566C348.294 218.952 348.979 204.693 352.098 190.79C352.2 190.308 352.326 189.8 352.428 189.293C353.417 184.675 354.558 179.449 358.26 176.455C360.466 174.679 362.774 174.146 365.107 174.907C369.113 176.201 372.334 181.098 373.449 185.284C373.982 187.212 374.337 189.369 374.565 191.83C375.047 191.145 375.96 190.003 377.152 188.963C379.611 186.857 382.147 186.324 384.505 187.39C386.306 188.202 387.422 189.851 387.624 191.982C387.98 195.788 385.368 202.308 376.873 208.271L377.938 318.635C377.938 318.712 377.912 318.762 377.862 318.813C377.836 318.889 377.76 318.915 377.71 318.915ZM348.092 318.407H377.456L376.391 208.169C376.391 208.093 376.442 208.017 376.492 207.966C381.741 204.313 387.675 197.945 387.143 192.058C386.965 190.079 385.976 188.633 384.328 187.872C382.147 186.883 379.84 187.39 377.507 189.369C375.732 190.866 374.616 192.718 374.616 192.718C374.565 192.82 374.438 192.87 374.337 192.845C374.236 192.82 374.159 192.718 374.134 192.617C373.906 189.876 373.526 187.542 372.968 185.437C371.522 180.109 367.845 176.354 364.955 175.415C362.799 174.704 360.644 175.212 358.59 176.886C355.014 179.779 353.899 184.929 352.935 189.445C352.834 189.953 352.707 190.46 352.605 190.942C349.512 204.795 348.802 219.028 348.345 233.616C348.041 243.055 347.965 250.894 348.117 258.277C348.117 258.303 348.117 258.303 348.117 258.328C348.092 258.455 347.99 258.556 347.863 258.531C347.787 258.531 347.711 258.48 347.686 258.43C347.61 258.328 344.947 254.852 341.499 251.452C337.01 247.038 333.308 244.856 330.798 245.186C329.403 245.363 328.338 246.327 327.628 248.053C326.385 251.046 326.867 256.577 336.148 265.889C341.752 271.521 347.965 275.885 348.041 275.936C348.117 275.986 348.142 276.063 348.142 276.139V318.407H348.092Z" fill="#2E1E00"/>
<path d="M384.027 193.86C383.95 193.86 383.849 193.809 383.798 193.733C383.722 193.606 383.773 193.454 383.874 193.378L389.808 189.75C389.935 189.673 390.087 189.724 390.163 189.826C390.239 189.953 390.189 190.105 390.087 190.181L384.153 193.809C384.103 193.834 384.052 193.86 384.027 193.86Z" fill="#2E1E00"/>
<path d="M374.718 238.158C374.642 238.158 374.592 238.133 374.541 238.082C374.439 237.98 374.439 237.828 374.541 237.727L379.536 232.881C379.638 232.779 379.79 232.779 379.891 232.881C379.993 232.982 379.993 233.134 379.891 233.236L374.896 238.082C374.845 238.133 374.794 238.158 374.718 238.158Z" fill="#2E1E00"/>
<path d="M374.264 269.06C374.188 269.06 374.086 269.009 374.036 268.933C373.96 268.806 374.01 268.654 374.112 268.578L380.045 264.95C380.172 264.874 380.324 264.925 380.4 265.026C380.477 265.153 380.426 265.305 380.324 265.381L374.391 269.009C374.365 269.06 374.315 269.06 374.264 269.06Z" fill="#2E1E00"/>
<path d="M374.264 298.313C374.188 298.313 374.086 298.262 374.036 298.186C373.96 298.059 374.01 297.907 374.112 297.831L380.045 294.203C380.172 294.127 380.324 294.178 380.4 294.279C380.477 294.406 380.426 294.558 380.324 294.634L374.391 298.262C374.365 298.313 374.315 298.313 374.264 298.313Z" fill="#2E1E00"/>
<path d="M354.356 199.72C354.305 199.72 354.255 199.695 354.204 199.67L347.078 193.809C346.977 193.708 346.951 193.555 347.053 193.454C347.154 193.352 347.306 193.327 347.408 193.428L354.533 199.289C354.635 199.391 354.66 199.543 354.559 199.644C354.508 199.67 354.432 199.72 354.356 199.72Z" fill="#2E1E00"/>
<path d="M350.806 219.383C350.755 219.383 350.705 219.358 350.654 219.332L343.528 213.472C343.427 213.37 343.402 213.218 343.503 213.116C343.604 213.015 343.757 212.99 343.858 213.091L350.984 218.952C351.085 219.053 351.11 219.206 351.009 219.307C350.933 219.332 350.882 219.383 350.806 219.383Z" fill="#2E1E00"/>
<path d="M330.368 248.738C330.317 248.738 330.266 248.712 330.215 248.687L323.09 242.826C322.988 242.725 322.963 242.573 323.065 242.471C323.166 242.37 323.318 242.344 323.42 242.446L330.545 248.306C330.647 248.408 330.672 248.56 330.57 248.662C330.52 248.687 330.444 248.738 330.368 248.738Z" fill="#2E1E00"/>
<path d="M349.996 245.795C349.946 245.795 349.895 245.769 349.844 245.744L342.719 239.883C342.617 239.782 342.592 239.629 342.693 239.528C342.795 239.426 342.947 239.401 343.048 239.503L350.174 245.363C350.275 245.465 350.301 245.617 350.199 245.719C350.149 245.769 350.073 245.795 349.996 245.795Z" fill="#2E1E00"/>
<path d="M350.806 294.685C350.755 294.685 350.705 294.66 350.654 294.634L343.528 288.774C343.427 288.672 343.402 288.52 343.503 288.418C343.604 288.317 343.757 288.291 343.858 288.393L350.984 294.254C351.085 294.355 351.11 294.507 351.009 294.609C350.933 294.66 350.882 294.685 350.806 294.685Z" fill="#2E1E00"/>
<path d="M365.336 179.753C365.311 179.753 365.26 179.753 365.235 179.728C365.108 179.677 365.058 179.525 365.108 179.398L368.101 173.055C368.151 172.928 368.303 172.878 368.43 172.928C368.557 172.979 368.608 173.131 368.557 173.258L365.565 179.601C365.514 179.677 365.438 179.753 365.336 179.753Z" fill="#2E1E00"/>
<path d="M364.601 253.355C364.576 253.355 364.525 253.355 364.5 253.33C364.373 253.279 364.322 253.127 364.373 253L367.365 246.657C367.416 246.53 367.568 246.48 367.695 246.53C367.822 246.581 367.872 246.733 367.822 246.86L364.829 253.203C364.804 253.305 364.703 253.355 364.601 253.355Z" fill="#2E1E00"/>
<path d="M366.096 194.646C366.071 194.646 366.02 194.646 365.995 194.621C365.868 194.57 365.817 194.418 365.868 194.291L368.125 189.065C368.176 188.938 368.328 188.887 368.455 188.938C368.581 188.988 368.632 189.141 368.581 189.268L366.324 194.494C366.299 194.596 366.198 194.646 366.096 194.646Z" fill="#2E1E00"/>
<path d="M358.06 186.248C357.984 186.248 357.933 186.223 357.882 186.172L352.05 179.627C351.948 179.525 351.974 179.373 352.075 179.271C352.177 179.17 352.329 179.195 352.43 179.297L358.263 185.842C358.364 185.944 358.339 186.096 358.237 186.198C358.186 186.223 358.136 186.248 358.06 186.248Z" fill="#2E1E00"/>
<path d="M362.294 214.69C362.193 214.69 362.117 214.639 362.066 214.563L358.11 206.723C358.06 206.596 358.085 206.444 358.212 206.393C358.339 206.317 358.491 206.368 358.542 206.495L362.497 214.334C362.548 214.461 362.523 214.613 362.396 214.664C362.371 214.664 362.345 214.69 362.294 214.69Z" fill="#2E1E00"/>
<path d="M364.272 308.588C364.171 308.588 364.094 308.538 364.044 308.462L360.088 300.622C360.037 300.495 360.063 300.343 360.189 300.292C360.316 300.216 360.468 300.267 360.519 300.394L364.475 308.233C364.526 308.36 364.5 308.512 364.373 308.563C364.348 308.588 364.323 308.588 364.272 308.588Z" fill="#2E1E00"/>
<path d="M358.312 269.06C358.211 269.06 358.135 269.009 358.084 268.933L354.128 261.093C354.077 260.967 354.103 260.814 354.229 260.764C354.356 260.688 354.508 260.738 354.559 260.865L358.515 268.705C358.566 268.832 358.54 268.984 358.413 269.035C358.388 269.06 358.337 269.06 358.312 269.06Z" fill="#2E1E00"/>
<path d="M357.121 237.245C357.019 237.245 356.943 237.194 356.892 237.118L352.937 229.278C352.886 229.151 352.911 228.999 353.038 228.948C353.165 228.872 353.317 228.923 353.368 229.05L357.323 236.889C357.374 237.016 357.349 237.168 357.222 237.219C357.197 237.219 357.171 237.245 357.121 237.245Z" fill="#2E1E00"/>
<path d="M344.161 264.189C344.11 264.189 344.034 264.163 343.983 264.113L337.466 258.227C337.365 258.125 337.365 257.973 337.441 257.871C337.542 257.77 337.695 257.77 337.796 257.846L344.313 263.732C344.414 263.834 344.414 263.986 344.338 264.087C344.288 264.138 344.237 264.189 344.161 264.189Z" fill="#2E1E00"/>
<path d="M397.54 293.569C397.862 293.569 398.123 293.307 398.123 292.985C398.123 292.663 397.862 292.402 397.54 292.402C397.218 292.402 396.957 292.663 396.957 292.985C396.957 293.307 397.218 293.569 397.54 293.569Z" fill="#2E1E00"/>
<path d="M336.684 232.018C337.006 232.018 337.267 231.757 337.267 231.435C337.267 231.112 337.006 230.851 336.684 230.851C336.362 230.851 336.101 231.112 336.101 231.435C336.101 231.757 336.362 232.018 336.684 232.018Z" fill="#2E1E00"/>
<path d="M396.957 244.957C397.279 244.957 397.54 244.696 397.54 244.374C397.54 244.052 397.279 243.79 396.957 243.79C396.635 243.79 396.374 244.052 396.374 244.374C396.374 244.696 396.635 244.957 396.957 244.957Z" fill="#2E1E00"/>
<path d="M369.85 210.757C369.825 210.757 369.774 210.757 369.749 210.732C369.622 210.681 369.571 210.529 369.622 210.402L372.614 204.059C372.665 203.932 372.817 203.881 372.944 203.932C373.071 203.983 373.121 204.135 373.071 204.262L370.078 210.605C370.028 210.706 369.952 210.757 369.85 210.757Z" fill="#2E1E00"/>
<path d="M365.336 286.414C365.311 286.414 365.26 286.414 365.235 286.389C365.108 286.338 365.058 286.186 365.108 286.059L368.101 279.716C368.151 279.589 368.303 279.538 368.43 279.589C368.557 279.64 368.608 279.792 368.557 279.919L365.565 286.262C365.514 286.363 365.438 286.414 365.336 286.414Z" fill="#2E1E00"/>
<path d="M366.02 233.743C365.995 233.743 365.969 233.743 365.944 233.743C365.817 233.693 365.741 233.566 365.767 233.439L368.15 225.472C368.201 225.345 368.328 225.269 368.455 225.295C368.581 225.345 368.657 225.472 368.632 225.599L366.248 233.566C366.248 233.667 366.147 233.743 366.02 233.743Z" fill="#2E1E00"/>
</svg>
