<svg width="89" height="89" viewBox="0 0 89 89" fill="none" xmlns="http://www.w3.org/2000/svg">
<ellipse cx="22.3479" cy="66.6719" rx="21.9631" ry="22" fill="black"/>
<path d="M44.4594 22.6719C44.4594 25.561 43.8913 28.4217 42.7876 31.0909C41.6838 33.7601 40.0661 36.1853 38.0266 38.2282C35.9871 40.2711 33.5659 41.8916 30.9012 42.9972C28.2365 44.1028 25.3806 44.6719 22.4963 44.6719C19.6121 44.6719 16.7561 44.1028 14.0914 42.9972C11.4267 41.8916 9.00551 40.2711 6.96605 38.2282C4.92658 36.1853 3.30879 33.7601 2.20504 31.0909C1.10129 28.4217 0.533203 25.561 0.533203 22.6719L22.4963 22.6719L44.4594 22.6719Z" fill="black"/>
<path d="M44.4594 0.671881C44.4594 3.56096 43.8913 6.42175 42.7876 9.09091C41.6838 11.7601 40.0661 14.1853 38.0266 16.2282C35.9871 18.2711 33.5659 19.8916 30.9012 20.9972C28.2365 22.1028 25.3806 22.6719 22.4963 22.6719C19.6121 22.6719 16.7561 22.1028 14.0914 20.9972C11.4267 19.8916 9.00551 18.2711 6.96605 16.2282C4.92658 14.1853 3.30879 11.7601 2.20504 9.0909C1.10129 6.42174 0.533203 3.56095 0.533203 0.671875L22.4963 0.671879L44.4594 0.671881Z" fill="black"/>
<ellipse cx="66.4221" cy="66.6719" rx="21.9631" ry="22" fill="black"/>
</svg>
