<svg width="158" height="142" viewBox="0 0 158 142" fill="none" xmlns="http://www.w3.org/2000/svg">
<path d="M140.561 1.00049H22.2529V107.565H140.561V1.00049Z" fill="#ADF0E7" stroke="black" stroke-miterlimit="10" stroke-linecap="round" stroke-linejoin="round"/>
<path d="M40.5865 70.1511L53.3553 67.4218V14.3984H128.274V40.5601V45.07V49.0828C128.274 49.0828 130.983 49.2756 132.226 49.9402C137.35 52.6847 135.564 57.8947 135.564 57.8947C135.564 57.8947 138.572 55.3886 141.51 57.4635C144.447 59.5434 144.234 63.125 144.234 63.125C144.234 63.125 148.318 62.4097 150.753 67.8531C150.753 67.8531 153.69 66.1333 154.907 68.7104C156.125 71.2875 154.263 73.5805 151.899 74.585C151.899 74.585 157.129 75.0872 155.841 80.0284C155.841 80.0284 154.907 82.6816 153.69 83.8991C153.69 83.8991 157.987 84.3303 157.271 88.0539C156.556 91.7775 150.895 92.2087 150.895 92.2087C150.895 92.2087 154.334 96.9368 148.744 98.7986C148.744 98.7986 153.832 101.736 151.468 104.886C149.104 108.037 143.803 104.455 143.803 104.455C143.803 104.455 138.714 107.681 137.857 100.513C137.857 100.513 135.635 101.731 132.343 100.513C132.343 100.513 135.64 104.237 131.054 105.454C131.054 105.454 128.832 106.099 126.686 104.597C126.686 104.597 127.33 107.676 124.322 108.894C124.322 108.894 129.984 110.685 128.837 114.626C127.691 118.568 122.749 116.204 122.749 116.204C122.749 116.204 124.297 120.044 120.456 120.359C116.981 120.643 116.444 116.92 116.444 116.92C116.444 116.92 114.653 119.141 111.426 117.133C111.426 117.133 112.213 120.43 108.702 120.856C108.702 120.856 107.195 121.5 104.76 118.421C104.76 118.421 105.334 121.48 103.01 122.754C101.712 123.469 100.073 123.357 98.9518 122.393C98.1705 121.724 97.511 120.562 97.7444 118.563C97.7444 118.563 91.2255 121.287 92.0119 111.542C92.0119 111.542 90.008 112.257 87.9991 109.462C87.9991 109.462 90.0385 114.479 84.4327 114.261C84.4327 114.261 85.6351 118.416 80.8309 117.341C80.8309 117.341 81.2621 122.713 76.0318 120.993C76.0318 120.993 75.7071 125.219 71.7349 121.927C71.7349 121.927 69.9797 124.935 66.6112 122.571C66.6112 122.571 64.7494 128.085 61.1678 122.931C61.1678 122.931 57.9921 125.671 55.6483 122.677C54.9888 121.83 54.1213 121.145 53.1067 120.785C52.0566 120.41 50.9456 120.43 50.7072 122.003C49.8498 127.669 44.6398 125.138 44.6398 125.138C44.2289 130.769 37.1977 127.766 37.1977 127.766C35.3917 130.875 32.1551 129.47 32.1551 129.47C31.2977 136.633 26.2095 133.412 26.2095 133.412C26.2095 133.412 20.9081 136.994 18.5441 133.843C16.1801 130.693 21.2683 127.756 21.2683 127.756C15.6778 125.894 19.1174 121.166 19.1174 121.166C19.1174 121.166 13.674 121.465 12.9587 117.736C12.2434 114.013 16.3221 112.856 16.3221 112.856C16.0685 112.602 15.7692 112.308 15.4546 111.999C12.5884 109.173 14.0748 104.262 18.0368 103.557C18.0825 103.547 18.1078 103.547 18.1078 103.547C15.7438 102.543 13.882 100.249 15.0995 97.6724C16.317 95.0953 19.2543 96.815 19.2543 96.815C21.6894 91.3717 25.7732 92.087 25.7732 92.087C25.7732 92.087 25.5601 88.5054 28.4974 86.4255C31.4347 84.3455 34.443 86.8567 34.443 86.8567C34.443 86.8567 32.6573 81.6467 37.7811 78.9021L40.5865 70.1511Z" fill="#FEFFFA" stroke="black" stroke-miterlimit="10" stroke-linecap="round" stroke-linejoin="round"/>
<path d="M40.581 30.4443H34.5343V46.8851H40.581V30.4443Z" fill="#ADF0E7" stroke="black" stroke-miterlimit="10" stroke-linecap="round" stroke-linejoin="round"/>
<path d="M148.54 32.1131C149.007 31.408 149.276 30.5608 149.276 29.6528C149.276 27.1722 147.267 25.1634 144.787 25.1634C143.828 25.1634 142.945 25.4627 142.22 25.975C141.469 25.1482 140.388 24.6206 139.181 24.6206C136.919 24.6206 135.082 26.4569 135.082 28.7194C135.082 29.9013 135.585 30.9616 136.386 31.7072C135.133 32.5037 134.301 33.8987 134.301 35.4966C134.301 37.9772 136.31 39.986 138.791 39.986C140.465 39.986 141.925 39.0678 142.697 37.7032C143.28 39.499 144.969 40.8027 146.963 40.8027C149.443 40.8027 151.452 38.7939 151.452 36.3133C151.452 34.3907 150.24 32.7522 148.54 32.1131Z" fill="#FEFFFA" stroke="black" stroke-miterlimit="10" stroke-linecap="round" stroke-linejoin="round"/>
<path d="M53.4471 100.645L40.5869 93.776V14.7888L53.4471 9.24902V100.645Z" fill="#ADF0E7" stroke="black" stroke-miterlimit="10" stroke-linecap="round" stroke-linejoin="round"/>
<path d="M40.581 62.5215H34.5343V78.9623H40.581V62.5215Z" fill="#ADF0E7" stroke="black" stroke-miterlimit="10" stroke-linecap="round" stroke-linejoin="round"/>
<path d="M3.25393 73.9605C3.1474 74.0214 2.74665 72.5604 2.70607 72.4336C1.74732 69.2378 6.10989 68.3399 7.91579 70.3132C7.98174 70.3842 8.30132 70.9422 8.47887 71.3937C8.60568 71.7183 8.93541 71.901 9.28036 71.8756C10.0971 71.8097 10.9544 71.8857 11.6392 72.3169C13.6531 73.5953 12.3595 76.6947 10.4471 77.3034C9.61009 77.5723 8.60568 77.5469 7.76361 77.2882C7.7839 77.2933 7.40851 78.1202 7.38315 78.1658C6.86066 79.155 5.96278 79.9616 4.85692 80.2152C3.73584 80.4739 2.58939 80.1493 1.7321 79.3884C0.874802 78.6274 0.352308 77.4962 0.829147 76.3954C1.2857 75.3454 2.2901 74.5337 3.25393 73.9605Z" fill="#FEFFFA" stroke="black" stroke-miterlimit="10" stroke-linecap="round" stroke-linejoin="round"/>
<path d="M91.8234 133.148C91.8234 133.148 92.148 131.286 91.0777 130.317C89.5153 128.907 86.989 129.952 86.6898 132.037C86.6492 132.311 86.6238 132.62 86.6137 132.955C86.6137 132.955 83.6917 133.427 82.7634 136.009C82.1192 137.805 82.9765 139.875 84.7266 140.641C86.0252 141.209 88.0036 141.462 89.774 138.566C89.774 138.566 95.6888 140.762 96.3889 136.577C97.0889 132.387 91.8234 133.148 91.8234 133.148Z" fill="#FEFFFA" stroke="black" stroke-miterlimit="10" stroke-linecap="round" stroke-linejoin="round"/>
<path d="M67.671 29.4346C67.5848 21.587 60.3409 23.4842 60.3409 23.4842C57.9263 17.7064 53.447 22.2769 53.447 22.2769" stroke="black" stroke-miterlimit="10" stroke-linecap="round" stroke-linejoin="round"/>
<path d="M66.895 14.3984C66.895 14.3984 69.548 19.7401 63.5673 23.4229" stroke="black" stroke-miterlimit="10" stroke-linecap="round" stroke-linejoin="round"/>
<path d="M53.447 32.8848C53.447 32.8848 58.7078 29.9526 58.7078 35.2996C58.7078 35.2996 63.0503 32.2253 64.9831 34.6299C65.4346 35.193 65.6325 35.9236 65.5716 36.6389C65.4955 37.5063 65.0998 38.7289 63.5728 39.3529C63.5728 39.3529 68.6256 42.8026 64.3997 45.9935C64.3997 45.9935 62.3908 44.8623 60.3464 45.7906C58.586 46.5871 57.9722 48.7533 58.8447 50.4832C59.7985 52.3704 60.047 55.2011 53.4521 55.6729" stroke="black" stroke-miterlimit="10" stroke-linecap="round" stroke-linejoin="round"/>
<path d="M53.447 41.8488C53.447 41.8488 59.2097 39.6675 60.0365 45.9425" stroke="black" stroke-miterlimit="10" stroke-linecap="round" stroke-linejoin="round"/>
<path d="M56.5559 55.1499C56.5559 55.1499 59.0822 55.9818 57.9712 58.7617C57.9712 58.7617 62.2577 55.9007 64.6825 59.1168C67.6044 62.9975 63.3737 66.0259 63.3737 66.0259C63.3737 66.0259 60.1576 64.915 58.6104 68.3695C58.6104 68.3695 57.3219 65.7875 53.3601 67.4158" stroke="black" stroke-miterlimit="10" stroke-linecap="round" stroke-linejoin="round"/>
<path d="M58.6059 68.3755C58.6059 68.3755 60.7517 70.8358 57.6116 73.0221C57.6116 73.0221 60.9444 76.081 57.2921 78.1862C57.2921 78.1862 54.4615 76.847 53.4368 79.7841" stroke="black" stroke-miterlimit="10" stroke-linecap="round" stroke-linejoin="round"/>
<path d="M66.9106 19.8721C66.9106 19.8721 68.0368 25.3253 73.1806 22.0433C73.1806 22.0433 76.9851 25.5485 80.3382 22.1904C83.6913 18.8322 79.4454 14.3936 79.4454 14.3936" stroke="black" stroke-miterlimit="10" stroke-linecap="round" stroke-linejoin="round"/>
<path d="M72.0396 40.6966C76.5138 34.9542 71.02 34.6448 71.02 34.6448C71.02 34.6448 72.8107 30.7692 68.93 29.9474C64.395 28.9887 63.2587 33.7266 63.2587 33.7266" stroke="black" stroke-miterlimit="10" stroke-linecap="round" stroke-linejoin="round"/>
<path d="M64.3993 45.9932C64.3993 45.9932 66.7733 47.4034 65.1298 50.4623C65.1298 50.4623 69.0814 47.9259 71.0192 51.8065C72.957 55.6821 68.5945 57.625 68.5945 57.625" stroke="black" stroke-miterlimit="10" stroke-linecap="round" stroke-linejoin="round"/>
<path d="M73.9364 36.44C73.9364 36.44 79.6737 35.6943 75.8691 30.9209C75.8691 30.9209 79.8969 32.4884 80.6426 28.8309C80.6426 28.8309 77.3707 28.2323 78.4461 23.4233" stroke="black" stroke-miterlimit="10" stroke-linecap="round" stroke-linejoin="round"/>
<path d="M65.7085 41.7371C65.7085 41.7371 69.2188 38.3688 72.8966 41.2653C73.9264 42.077 74.5655 43.3249 74.4083 44.6235C74.3575 45.0597 74.2155 45.5264 73.9365 45.9931C73.9365 45.9931 78.0404 46.7185 75.6257 50.5992" stroke="black" stroke-miterlimit="10" stroke-linecap="round" stroke-linejoin="round"/>
<path d="M80.6433 28.8304C80.6433 28.8304 82.921 29.5203 83.5804 25.873C83.5804 25.873 86.1929 28.871 89.1503 26.71C89.9112 26.152 90.4794 25.3505 90.6417 24.4222C90.8446 23.2453 90.4997 21.6119 87.6539 20.5669C87.6539 20.5669 92.1991 19.2176 89.2163 14.3984" stroke="black" stroke-miterlimit="10" stroke-linecap="round" stroke-linejoin="round"/>
<path d="M76.3717 35.4312C76.3717 35.4312 82.1546 34.6348 80.643 40.367C80.643 40.367 85.1425 38.8046 85.9947 43.2585C86.9027 47.9964 79.6284 50.1726 76.7014 48.4682" stroke="black" stroke-miterlimit="10" stroke-linecap="round" stroke-linejoin="round"/>
<path d="M71.0193 51.8016C71.0193 51.8016 75.0978 49.5442 77.8472 51.8016C80.5966 54.059 79.1712 57.1331 78.0856 58.0817C78.0856 58.0817 82.362 59.639 80.9264 63.124C79.9778 65.422 75.9906 64.2857 75.9906 64.2857" stroke="black" stroke-miterlimit="10" stroke-linecap="round" stroke-linejoin="round"/>
<path d="M65.0282 59.6397C65.0282 59.6397 67.803 56.5403 70.035 58.0875C72.0235 59.4622 70.7452 61.7652 70.7452 61.7652C70.7452 61.7652 73.4946 59.9796 75.4324 62.587C77.3753 65.1944 73.6316 68.6033 73.6316 68.6033" stroke="black" stroke-miterlimit="10" stroke-linecap="round" stroke-linejoin="round"/>
<path d="M90.683 23.6461C90.683 23.6461 97.8406 27.4811 99.9205 18.2943C99.9205 18.2943 105.034 20.4908 106.977 14.3984" stroke="black" stroke-miterlimit="10" stroke-linecap="round" stroke-linejoin="round"/>
<path d="M89.5874 26.3403C89.5874 26.3403 93.4224 26.9541 93.4325 31.0884C93.4427 34.9234 88.5525 34.9742 88.5525 34.9742C88.5525 34.9742 92.5347 40.1129 85.6661 42.1623" stroke="black" stroke-miterlimit="10" stroke-linecap="round" stroke-linejoin="round"/>
<path d="M104.298 18.1068C104.334 19.5627 104.938 21.3686 106.404 21.957C108.088 22.6368 109.534 21.4193 110.437 20.1106C110.437 20.1106 111.005 24.9449 115.032 23.976C118.776 23.0781 117.356 19.0199 117.356 19.0199C117.356 19.0199 122.52 18.4518 121.952 14.3936" stroke="black" stroke-miterlimit="10" stroke-linecap="round" stroke-linejoin="round"/>
<path d="M96.446 23.8496C96.446 23.8496 94.2393 30.15 101.057 29.9268C101.057 29.9268 100.017 33.8734 103.426 33.9241" stroke="black" stroke-miterlimit="10" stroke-linecap="round" stroke-linejoin="round"/>
<path d="M117.403 22.0386C117.403 22.0386 118.392 24.2249 120.639 25.4322C122.384 26.3707 124.89 26.7157 128.274 24.9757" stroke="black" stroke-miterlimit="10" stroke-linecap="round" stroke-linejoin="round"/>
<path d="M89.6991 38.2824C89.6991 38.2824 93.7169 36.9076 95.7107 39.7028C95.7107 39.7028 98.9777 36.5728 102.818 38.8252C102.818 38.8252 100.971 31.3222 108.642 33.118C108.642 33.118 112.335 25.1128 119.534 31.794C119.534 31.794 114.511 33.4985 116.5 38.6172C118.489 43.7359 126.646 42.6452 128.274 40.5602" stroke="black" stroke-miterlimit="10" stroke-linecap="round" stroke-linejoin="round"/>
<path d="M120.639 25.4326C120.639 25.4326 116.683 26.2747 117.966 30.5257" stroke="black" stroke-miterlimit="10" stroke-linecap="round" stroke-linejoin="round"/>
<path d="M102.813 38.8252C102.813 38.8252 105.466 40.3673 103.426 43.4008C103.426 43.4008 108.068 42.3153 109.991 46.0082C110.589 47.1648 110.731 48.5142 110.422 49.7824C110.062 51.2636 109.093 53.1456 106.506 53.5362" stroke="black" stroke-miterlimit="10" stroke-linecap="round" stroke-linejoin="round"/>
<path d="M85.1884 46.5054C85.1884 46.5054 90.3068 47.2358 89.972 52.2122C89.6372 57.1886 83.5144 59.0402 79.238 56.1943" stroke="black" stroke-miterlimit="10" stroke-linecap="round" stroke-linejoin="round"/>
<path d="M89.9779 52.207C89.9779 52.207 96.0855 52.9831 97.4602 49.0416C98.8349 45.1 94.1934 44.2986 94.1934 44.2986C94.1934 44.2986 97.9371 42.3557 95.7101 39.7026" stroke="black" stroke-miterlimit="10" stroke-linecap="round" stroke-linejoin="round"/>
<path d="M110.564 48.0376C110.564 48.0376 116.174 44.6794 117.711 50.7921C117.711 50.7921 122.378 48.9913 124.174 53.5415C125.97 58.0918 120.278 60.7093 120.278 60.7093" stroke="black" stroke-miterlimit="10" stroke-linecap="round" stroke-linejoin="round"/>
<path d="M118.879 41.3311C118.879 41.3311 114.029 41.9246 114.41 47.1647" stroke="black" stroke-miterlimit="10" stroke-linecap="round" stroke-linejoin="round"/>
<path d="M128.274 49.0776C128.274 49.0776 124.195 49.9603 123.637 52.4815" stroke="black" stroke-miterlimit="10" stroke-linecap="round" stroke-linejoin="round"/>
<path d="M96.2782 50.7822C96.2782 50.7822 100.347 52.2584 99.3066 56.6159C98.2667 60.9734 94.1933 59.6494 94.1933 59.6494C94.1933 59.6494 96.8006 63.1547 90.972 64.5294" stroke="black" stroke-miterlimit="10" stroke-linecap="round" stroke-linejoin="round"/>
<path d="M99.2816 53.8918C99.2816 53.8918 108.59 49.372 107.834 58.5131" stroke="black" stroke-miterlimit="10" stroke-linecap="round" stroke-linejoin="round"/>
<path d="M105.557 65.7572C105.557 65.7572 104.005 59.0307 108.124 58.493C108.935 58.3865 109.752 58.5843 110.467 58.98C111.096 59.33 111.822 59.8728 112.091 60.6438C112.091 60.6438 113.81 57.3821 116.631 57.656C121.308 58.1125 120.141 64.8492 120.141 64.8492" stroke="black" stroke-miterlimit="10" stroke-linecap="round" stroke-linejoin="round"/>
<path d="M87.5625 56.4033C87.5625 56.4033 90.733 58.052 88.3183 61.7602C88.3183 61.7602 91.3975 63.1957 90.9714 65.5191C90.5453 67.8424 88.2067 68.7403 84.6152 67.9844" stroke="black" stroke-miterlimit="10" stroke-linecap="round" stroke-linejoin="round"/>
<path d="M45.5275 96.8149C45.5275 96.8149 46.3138 100.3 41.9208 100.848C41.9208 100.848 42.8086 104.125 40.7642 105.297C38.7148 106.468 36.5183 105.266 34.7834 102.03" stroke="black" stroke-miterlimit="10" stroke-linecap="round" stroke-linejoin="round"/>
<path d="M80.9264 63.125C80.9264 63.125 84.8882 64.9512 84.6143 69.263C84.3404 73.5749 79.2372 71.9617 79.2372 71.9617C79.2372 71.9617 77.1827 69.8768 74.342 71.8197C74.342 71.8197 75.3362 68.2485 71.8309 68.2485C68.9395 68.2485 68.6554 70.7443 68.6554 70.7443" stroke="black" stroke-miterlimit="10" stroke-linecap="round" stroke-linejoin="round"/>
<path d="M63.3696 66.0317C63.3696 66.0317 66.885 67.0818 65.0284 70.161C65.0284 70.161 69.7968 69.5928 69.6548 73.1437C69.5127 76.6947 66.0835 75.7004 66.0835 75.7004C66.0835 75.7004 69.8729 81.3362 60.3868 81.3362" stroke="black" stroke-miterlimit="10" stroke-linecap="round" stroke-linejoin="round"/>
<path d="M61.1628 122.946C63.5928 119.938 59.925 117.518 59.925 117.518C64.0037 117.427 63.4102 113.303 60.7062 111.177C58.0023 109.051 55.1208 111.177 55.1208 111.177C55.1208 111.177 56.6377 103.775 49.3071 104.694" stroke="black" stroke-miterlimit="10" stroke-linecap="round" stroke-linejoin="round"/>
<path d="M60.706 111.172C65.0637 107.534 60.2646 103.547 60.2646 103.547C60.2646 103.547 64.0796 101.756 62.862 98.9762C61.7358 96.4041 59.3211 97.8043 59.3211 97.8043C59.3211 97.8043 64.0999 92.8327 58.0122 89.7939" stroke="black" stroke-miterlimit="10" stroke-linecap="round" stroke-linejoin="round"/>
<path d="M67.1896 78.5369C67.1896 78.5369 69.3354 77.7506 71.1565 78.3796C73.1704 79.0746 73.7994 81.7175 72.1304 83.0415C72.0543 83.1024 71.9783 83.1582 71.892 83.214C71.892 83.214 75.1031 83.7618 74.9661 86.5164C74.8292 89.2607 70.5325 89.9506 70.5122 89.9557C70.4514 89.9658 70.0354 89.5549 69.9694 89.5093C69.4723 89.1745 68.9042 88.9766 68.3107 88.9259C65.409 88.6621 61.7668 90.3006 61.0769 93.3392" stroke="black" stroke-miterlimit="10" stroke-linecap="round" stroke-linejoin="round"/>
<path d="M73.5658 88.7642C73.5658 88.7642 78.2631 90.6918 77.4363 94.958C76.6855 98.8336 74.0426 97.9864 74.0426 97.9864C74.0426 97.9864 76.6348 99.493 74.5905 101.735C72.5715 103.947 69.2286 101.735 69.2286 101.735C69.2286 101.735 64.6428 104.611 62.8572 98.9807" stroke="black" stroke-miterlimit="10" stroke-linecap="round" stroke-linejoin="round"/>
<path d="M62.2742 109.137C62.2742 109.137 66.9513 107.717 66.8295 113.394C66.8295 113.394 69.9594 111.151 71.3899 114.428C72.5516 117.081 69.8579 118.076 69.8579 118.076C69.8579 118.076 72.3284 119.05 71.7349 121.946" stroke="black" stroke-miterlimit="10" stroke-linecap="round" stroke-linejoin="round"/>
<path d="M70.7361 113.393C70.7361 113.393 74.4189 112.353 74.5407 109.7C74.6675 107.047 71.9282 105.51 70.1882 105.348C70.1882 105.348 72.1717 104.795 72.0905 102.71" stroke="black" stroke-miterlimit="10" stroke-linecap="round" stroke-linejoin="round"/>
<path d="M80.8303 117.355C80.8303 117.355 80.0947 115.625 78.0656 115.174C78.0656 115.174 80.8607 113.936 79.8005 111.506C79.2983 110.36 78.1823 109.594 76.9395 109.452C76.2496 109.376 75.4126 109.396 74.54 109.701" stroke="black" stroke-miterlimit="10" stroke-linecap="round" stroke-linejoin="round"/>
<path d="M78.406 109.948C78.406 109.948 84.5542 103.775 75.2964 100.579" stroke="black" stroke-miterlimit="10" stroke-linecap="round" stroke-linejoin="round"/>
<path d="M77.361 95.3232C77.361 95.3232 79.8923 93.1926 81.7996 94.5166C83.8693 95.9573 81.7996 97.4588 81.7996 97.4588C81.7996 97.4588 85.9035 96.5457 87.1463 100.076C88.45 103.769 84.823 104.667 84.823 104.667" stroke="black" stroke-miterlimit="10" stroke-linecap="round" stroke-linejoin="round"/>
<path d="M57.2054 78.1362C57.2054 78.1362 60.3961 79.0138 60.386 81.3371C60.3708 83.8583 57.9612 83.0061 57.9612 83.0061C57.9612 83.0061 61.0404 85.8722 58.8388 88.8955C56.5358 92.0609 53.7356 89.5854 53.7356 89.5854" stroke="black" stroke-miterlimit="10" stroke-linecap="round" stroke-linejoin="round"/>
<path d="M80.384 105.262C80.384 105.262 86.309 102.035 87.9932 109.472" stroke="black" stroke-miterlimit="10" stroke-linecap="round" stroke-linejoin="round"/>
<path d="M73.0697 80.7434C73.0697 80.7434 75.6416 76.9337 78.4823 78.8461C80.6383 80.297 78.4823 82.9906 78.4823 82.9906C78.4823 82.9906 82.9058 80.8955 84.1943 84.69C85.1074 87.3836 82.0079 88.7583 82.0079 88.7583C82.0079 88.7583 84.9501 91.5737 81.7999 94.5159" stroke="black" stroke-miterlimit="10" stroke-linecap="round" stroke-linejoin="round"/>
<path d="M78.1115 78.6326C78.1115 78.6326 81.7791 75.9034 79.2376 71.9619" stroke="black" stroke-miterlimit="10" stroke-linecap="round" stroke-linejoin="round"/>
<path d="M89.4398 67.6904C89.4398 67.6904 93.4371 69.9732 92.453 74.285C91.5094 78.4244 87.3954 78.3128 87.3954 78.3128C87.3954 78.3128 92.3464 83.2841 84.1895 84.6943" stroke="black" stroke-miterlimit="10" stroke-linecap="round" stroke-linejoin="round"/>
<path d="M94.4982 62.4707C94.4982 62.4707 100.043 64.165 100.002 70.0088C99.9616 75.8526 92.3423 74.7113 92.3423 74.7113" stroke="black" stroke-miterlimit="10" stroke-linecap="round" stroke-linejoin="round"/>
<path d="M87.4309 83.6299C87.4309 83.6299 90.4188 83.7313 92.1942 85.4814C93.853 87.1199 93.3457 89.9556 91.1594 90.7622C91.134 90.7723 91.1137 90.7774 91.0884 90.7875C91.0884 90.7875 95.8212 91.168 95.5625 93.9986C95.4408 95.3175 94.274 96.3168 92.945 96.3321C92.2094 96.3422 91.2304 96.1951 89.9673 95.7386C89.9673 95.7386 90.7586 98.4068 86.9845 99.6801" stroke="black" stroke-miterlimit="10" stroke-linecap="round" stroke-linejoin="round"/>
<path d="M93.123 87.2514C93.123 87.2514 98.7132 86.6376 96.8921 82.1584C96.8921 82.1584 100.377 83.1526 101.331 79.6727C102.284 76.1877 98.1349 73.7427 98.1349 73.7427" stroke="black" stroke-miterlimit="10" stroke-linecap="round" stroke-linejoin="round"/>
<path d="M99.7328 67.853C99.7328 67.853 103.608 64.0738 106.469 66.4072C109.204 68.6393 107.423 70.5517 107.423 70.5517C107.423 70.5517 112.126 71.0488 112.07 74.3918C112.004 78.1963 107.423 77.476 107.423 77.476C107.423 77.476 108.316 81.4429 105.384 82.8633C104.364 83.3553 103.172 83.3756 102.112 82.985C101.432 82.7314 100.681 82.2951 100.225 81.5444" stroke="black" stroke-miterlimit="10" stroke-linecap="round" stroke-linejoin="round"/>
<path d="M42.5395 103.4C42.5395 103.4 47.5818 101.421 49.3065 104.683C50.9602 107.803 48.576 108.873 48.576 108.873C48.576 108.873 52.7154 111.156 51.3661 114.215C49.829 117.695 45.8875 115.255 45.8875 115.255C45.8875 115.255 45.1671 119.257 41.9206 119.424C40.7894 119.485 39.6835 119.039 38.8566 118.263C38.3291 117.766 37.8066 117.071 37.6747 116.198" stroke="black" stroke-miterlimit="10" stroke-linecap="round" stroke-linejoin="round"/>
<path d="M111.655 72.784C111.655 72.784 115.307 67.8381 118.29 69.7708C121.024 71.5463 118.082 74.808 118.082 74.808C118.082 74.808 123.804 73.9102 124.839 78.43C125.874 82.9498 121.598 86.0239 121.598 86.0239" stroke="black" stroke-miterlimit="10" stroke-linecap="round" stroke-linejoin="round"/>
<path d="M107.201 80.8804C107.201 80.8804 110.534 82.4987 109.955 85.5679C109.377 88.637 106.638 88.2211 106.638 88.2211C106.638 88.2211 109.915 94.1109 102.285 93.6543C102.285 93.6543 105.522 100.954 100.667 101.7C95.8169 102.446 94.7921 95.577 94.7921 95.577" stroke="black" stroke-miterlimit="10" stroke-linecap="round" stroke-linejoin="round"/>
<path d="M92.0068 111.552C92.0068 111.552 95.8976 110.857 93.0772 106.383C93.0772 106.383 98.3681 107.149 98.4391 101.457" stroke="black" stroke-miterlimit="10" stroke-linecap="round" stroke-linejoin="round"/>
<path d="M102.69 100.579C102.69 100.579 107.053 102.111 106.764 105.55C106.475 108.99 102.69 108.046 102.69 108.046C102.69 108.046 99.6415 111.622 96.0906 105.89" stroke="black" stroke-miterlimit="10" stroke-linecap="round" stroke-linejoin="round"/>
<path d="M104.761 118.431C104.761 118.431 104.172 112.156 101.093 109.041" stroke="black" stroke-miterlimit="10" stroke-linecap="round" stroke-linejoin="round"/>
<path d="M106.506 103.846C106.506 103.846 109.996 100.95 112.69 104.059C115.383 107.169 113.146 110.03 113.146 110.03C113.146 110.03 118.523 111.298 116.439 116.924" stroke="black" stroke-miterlimit="10" stroke-linecap="round" stroke-linejoin="round"/>
<path d="M107.246 91.534C107.246 91.534 110.782 89.6266 112.69 91.6557C115.043 94.1566 112.69 95.9726 112.69 95.9726C112.69 95.9726 117.336 96.6371 117.128 100.244C116.92 103.851 112.69 104.059 112.69 104.059" stroke="black" stroke-miterlimit="10" stroke-linecap="round" stroke-linejoin="round"/>
<path d="M117.128 100.244C117.128 100.244 125.082 98.7226 126.68 104.602" stroke="black" stroke-miterlimit="10" stroke-linecap="round" stroke-linejoin="round"/>
<path d="M110.006 84.5231C110.006 84.5231 114.186 80.6727 117.133 82.1642C120.319 83.7774 117.666 86.3545 117.666 86.3545C117.666 86.3545 120.167 85.6493 122.13 86.3799C125.073 87.4756 124.413 91.9044 121.288 92.1936C121.258 92.1986 121.222 92.1986 121.192 92.2037C121.192 92.2037 128.893 95.8614 123.424 100.833" stroke="black" stroke-miterlimit="10" stroke-linecap="round" stroke-linejoin="round"/>
<path d="M117.311 69.375C117.311 69.375 117.291 69.1569 117.286 68.8069C117.225 65.1999 121.537 63.2975 124.175 65.758C124.175 65.758 124.921 59.4826 129.857 60.4769C134.793 61.4712 136.076 69.0199 133.215 72.0891C133.215 72.0891 128.365 71.8405 130.186 78.6841C130.186 78.6841 128.238 77.5629 124.961 79.1812" stroke="black" stroke-miterlimit="10" stroke-linecap="round" stroke-linejoin="round"/>
<path d="M132.419 61.8058C132.419 61.8058 133.053 59.1883 135.569 57.8896" stroke="black" stroke-miterlimit="10" stroke-linecap="round" stroke-linejoin="round"/>
<path d="M133.214 72.0889C133.214 72.0889 137.734 72.9157 140.017 78.3486C140.017 78.3486 133.63 80.2966 137.572 87.3071C137.572 87.3071 135.208 88.0528 134.959 89.2145C134.959 89.2145 131.444 84.0301 124.017 89.2145" stroke="black" stroke-miterlimit="10" stroke-linecap="round" stroke-linejoin="round"/>
<path d="M151.898 74.5849C151.898 74.5849 148.266 74.2044 146.648 79.6322C146.648 79.6322 144.492 77.1009 140.013 78.3488" stroke="black" stroke-miterlimit="10" stroke-linecap="round" stroke-linejoin="round"/>
<path d="M137.857 100.518C137.857 100.518 142.463 96.1804 135.204 94.1057C135.204 94.1057 137.401 92.1171 134.955 89.2104" stroke="black" stroke-miterlimit="10" stroke-linecap="round" stroke-linejoin="round"/>
<path d="M137.573 87.3082C137.573 87.3082 142.838 86.5219 143.214 91.9092C143.214 91.9092 147.891 88.3228 150.899 92.2085" stroke="black" stroke-miterlimit="10" stroke-linecap="round" stroke-linejoin="round"/>
<path d="M137.573 74.8078C137.573 74.8078 139.232 68.274 144.233 71.2162C144.233 71.2162 138.161 66.2551 144.233 63.1201" stroke="black" stroke-miterlimit="10" stroke-linecap="round" stroke-linejoin="round"/>
<path d="M25.6565 92.077C25.6565 92.077 31.4803 91.6661 29.5932 97.2819C29.5932 97.2819 34.1893 96.0188 34.7474 100.513C35.3409 105.302 27.9394 106.997 25.1289 105.105C25.1289 105.105 26.4174 115.606 16.317 112.851" stroke="black" stroke-miterlimit="10" stroke-linecap="round" stroke-linejoin="round"/>
<path d="M21.2635 127.761C21.2635 127.761 28.2187 127.781 29.0253 123.586C29.1927 122.708 29.0202 121.795 28.6144 120.998C28.0614 119.908 26.9859 118.284 25.5503 118.437C25.5503 118.437 32.1909 113.419 24.6067 109.777" stroke="black" stroke-miterlimit="10" stroke-linecap="round" stroke-linejoin="round"/>
<path d="M32.1503 129.48C32.1503 129.48 34.1236 125.954 29.0204 123.585" stroke="black" stroke-miterlimit="10" stroke-linecap="round" stroke-linejoin="round"/>
<path d="M29.5322 105.713C29.5322 105.713 32.5201 105.815 34.2955 107.565C35.9543 109.203 35.4471 112.039 33.2607 112.846C33.2353 112.856 33.215 112.861 33.1897 112.871C33.1897 112.871 37.9226 113.251 37.6638 116.082C37.5421 117.401 36.3754 118.4 35.0463 118.416C34.3108 118.426 33.3317 118.279 32.0686 117.822C32.0686 117.822 32.8599 120.49 29.0858 121.764" stroke="black" stroke-miterlimit="10" stroke-linecap="round" stroke-linejoin="round"/>
<path d="M44.6346 125.147C44.6346 125.147 46.7296 120.962 42.8693 119.253L44.6346 125.147Z" fill="#FEFFFA"/>
<path d="M44.6346 125.147C44.6346 125.147 46.7296 120.962 42.8693 119.253" stroke="black" stroke-miterlimit="10" stroke-linecap="round" stroke-linejoin="round"/>
</svg>
