<svg width="123" height="40" viewBox="0 0 123 40" fill="none" xmlns="http://www.w3.org/2000/svg">
<g clip-path="url(#clip0_993_13222)">
<path d="M0 38.2199V32.2434L8.71373 5.92643H1.25558V0.426987H14.7154V5.92643L5.87611 32.7205H14.7154V38.2199H0Z" fill="black"/>
<path d="M22.52 30.9125V30.4605V8.18648C22.52 8.06929 22.52 7.91862 22.52 7.73446C22.5367 7.53358 22.5869 7.14853 22.6706 6.57933C22.771 6.01013 22.905 5.46605 23.0724 4.94708C23.2399 4.42811 23.5077 3.85891 23.876 3.23949C24.2443 2.60333 24.6712 2.05925 25.1567 1.60723C25.6589 1.15523 26.3202 0.778552 27.1404 0.477212C27.9609 0.159132 28.8816 9.15527e-05 29.9027 9.15527e-05C30.924 9.15527e-05 31.8447 0.150762 32.665 0.4521C33.4853 0.75344 34.1383 1.14685 34.6237 1.63235C35.126 2.10109 35.5613 2.62843 35.9296 3.21438C36.3146 3.80032 36.5909 4.38625 36.7583 4.97219C36.9256 5.55812 37.0512 6.09383 37.1349 6.57933C37.2353 7.04808 37.2856 7.43312 37.2856 7.73446L37.3107 8.18648V30.4605C37.3107 30.5777 37.3023 30.7367 37.2856 30.9375C37.2856 31.1218 37.2353 31.4984 37.1349 32.0677C37.0512 32.6368 36.9256 33.181 36.7583 33.6998C36.5909 34.2021 36.323 34.7712 35.9547 35.4075C35.5863 36.027 35.1512 36.5627 34.6489 37.0147C34.1466 37.4667 33.4853 37.8517 32.665 38.1698C31.8447 38.4711 30.924 38.6218 29.9027 38.6218C28.8816 38.6218 27.9609 38.4711 27.1404 38.1698C26.3202 37.8684 25.6589 37.4834 25.1567 37.0147C24.6712 36.5291 24.2443 35.9934 23.876 35.4075C23.5077 34.8215 23.2399 34.2439 23.0724 33.6748C22.905 33.0888 22.771 32.5615 22.6706 32.0927C22.5869 31.6072 22.5367 31.2138 22.52 30.9125ZM28.0696 30.4605C28.0696 30.5274 28.0696 30.6279 28.0696 30.7618C28.0696 30.8789 28.0947 31.0967 28.145 31.4147C28.2119 31.7328 28.2956 32.0174 28.396 32.2685C28.5133 32.5029 28.6974 32.7205 28.9486 32.9214C29.2164 33.1222 29.5344 33.2228 29.9027 33.2228C30.271 33.2228 30.5807 33.1307 30.8319 32.9465C31.0997 32.7457 31.2923 32.5112 31.4094 32.2434C31.5267 31.9755 31.6103 31.7077 31.6606 31.4398C31.7276 31.1719 31.761 30.9375 31.761 30.7367V30.4605V8.18648C31.761 8.10278 31.761 8.00232 31.761 7.88513C31.761 7.76795 31.7276 7.55032 31.6606 7.23223C31.6103 6.89741 31.5267 6.61282 31.4094 6.37843C31.2923 6.12732 31.0997 5.90132 30.8319 5.70042C30.5807 5.49953 30.271 5.39909 29.9027 5.39909C29.3169 5.39909 28.8732 5.63346 28.5719 6.10221C28.2706 6.55422 28.1114 7.01461 28.0947 7.48335L28.0696 8.18648V30.4605Z" fill="black"/>
<path d="M46.1953 38.2199V0.426987H51.745V13.0079V14.6652H51.9459L52.2222 13.0079L56.8426 0.426987H62.2416L57.144 12.8572L62.9197 38.2199H57.4956L53.6535 21.7718L53.5029 20.9934H53.3522L53.0257 21.7718L51.745 24.8605V38.2199H46.1953Z" fill="black"/>
<path d="M69.6697 0.426987H75.119L77.9064 12.5057L78.057 13.8868H78.1575L78.3081 12.5057L81.0955 0.426987H86.5447L80.8947 22.1234V38.2199H75.345V22.1234L69.6697 0.426987Z" fill="black"/>
<path d="M93.5959 30.9125V30.4605V8.18648C93.5959 8.06929 93.5959 7.91862 93.5959 7.73446C93.6127 7.53358 93.663 7.14853 93.7467 6.57933C93.8471 6.01013 93.981 5.46605 94.1484 4.94708C94.3158 4.42811 94.5837 3.85891 94.952 3.23949C95.3202 2.60333 95.7471 2.05925 96.2327 1.60723C96.735 1.15523 97.3961 0.778552 98.2165 0.477212C99.0368 0.159132 99.9575 9.15527e-05 100.979 9.15527e-05C102 9.15527e-05 102.921 0.150762 103.741 0.4521C104.561 0.75344 105.214 1.14685 105.7 1.63235C106.202 2.10109 106.637 2.62843 107.006 3.21438C107.391 3.80032 107.667 4.38625 107.834 4.97219C108.002 5.55812 108.127 6.09383 108.211 6.57933C108.311 7.04808 108.362 7.43312 108.362 7.73446L108.387 8.18648V30.4605C108.387 30.5777 108.378 30.7367 108.362 30.9375C108.362 31.1218 108.311 31.4984 108.211 32.0677C108.127 32.6368 108.002 33.181 107.834 33.6998C107.667 34.2021 107.399 34.7712 107.031 35.4075C106.662 36.027 106.227 36.5627 105.725 37.0147C105.223 37.4667 104.561 37.8517 103.741 38.1698C102.921 38.4711 102 38.6218 100.979 38.6218C99.9575 38.6218 99.0368 38.4711 98.2165 38.1698C97.3961 37.8684 96.735 37.4834 96.2327 37.0147C95.7471 36.5291 95.3202 35.9934 94.952 35.4075C94.5837 34.8215 94.3158 34.2439 94.1484 33.6748C93.981 33.0888 93.8471 32.5615 93.7467 32.0927C93.663 31.6072 93.6127 31.2138 93.5959 30.9125ZM99.1457 30.4605C99.1457 30.5274 99.1457 30.6279 99.1457 30.7618C99.1457 30.8789 99.1707 31.0967 99.2209 31.4147C99.2879 31.7328 99.3717 32.0174 99.4721 32.2685C99.5892 32.5029 99.7734 32.7205 100.025 32.9214C100.292 33.1222 100.61 33.2228 100.979 33.2228C101.347 33.2228 101.657 33.1307 101.908 32.9465C102.176 32.7457 102.368 32.5112 102.485 32.2434C102.603 31.9755 102.686 31.7077 102.737 31.4398C102.804 31.1719 102.837 30.9375 102.837 30.7367V30.4605V8.18648C102.837 8.10278 102.837 8.00232 102.837 7.88513C102.837 7.76795 102.804 7.55032 102.737 7.23223C102.686 6.89741 102.603 6.61282 102.485 6.37843C102.368 6.12732 102.176 5.90132 101.908 5.70042C101.657 5.49953 101.347 5.39909 100.979 5.39909C100.393 5.39909 99.9492 5.63346 99.6478 6.10221C99.3465 6.55422 99.1875 7.01461 99.1707 7.48335L99.1457 8.18648V30.4605Z" fill="black"/>
<path d="M116.543 38.22V32.5197H121.942V38.22H116.543Z" fill="#3FAFED"/>
</g>
<defs>
<clipPath id="clip0_993_13222">
<rect y="9.15527e-05" width="122.857" height="40" rx="8" fill="white"/>
</clipPath>
</defs>
</svg>
