<svg width="81" height="80" viewBox="0 0 81 80" fill="none" xmlns="http://www.w3.org/2000/svg">
<path d="M49.968 30.0672C49.968 28.0929 50.3569 26.138 51.1124 24.3141C51.8679 22.4901 52.9753 20.8328 54.3713 19.4368C55.7673 18.0408 57.4246 16.9335 59.2485 16.178C61.0725 15.4225 63.0274 15.0336 65.0016 15.0336C66.9758 15.0336 68.9307 15.4225 70.7547 16.178C72.5786 16.9335 74.2359 18.0408 75.6319 19.4368C77.0279 20.8328 78.1353 22.4901 78.8908 24.3141C79.6463 26.138 80.0352 28.0929 80.0352 30.0672L65.0016 30.0672L49.968 30.0672Z" fill="black"/>
<circle cx="60.002" cy="60.0001" r="20" transform="rotate(-180 60.002 60.0001)" fill="black"/>
<circle cx="20" cy="60.0001" r="20" transform="rotate(-180 20 60.0001)" fill="black"/>
<circle cx="20" cy="20" r="20" transform="rotate(-180 20 20)" fill="black"/>
<path d="M49.8008 30.0673C51.7926 30.0673 53.765 29.6784 55.6052 28.9229C57.4455 28.1674 59.1176 27.06 60.526 25.664C61.9345 24.268 63.0517 22.6108 63.814 20.7868C64.5762 18.9628 64.9686 17.0079 64.9686 15.0337C64.9686 13.0595 64.5762 11.1046 63.814 9.28062C63.0517 7.45666 61.9345 5.79937 60.526 4.40338C59.1176 3.00738 57.4455 1.90002 55.6052 1.14451C53.765 0.389007 51.7926 0.000152589 49.8008 0.000152588L49.8008 15.0337L49.8008 30.0673Z" fill="black"/>
</svg>
