<svg width="88" height="88" viewBox="0 0 88 88" fill="none" xmlns="http://www.w3.org/2000/svg">
<path d="M88 88C88 82.2218 86.8619 76.5003 84.6507 71.1619C82.4395 65.8236 79.1985 60.9731 75.1127 56.8873C71.0269 52.8015 66.1764 49.5605 60.8381 47.3493C55.4997 45.1381 49.7782 44 44 44C38.2218 44 32.5002 45.1381 27.1619 47.3493C21.8236 49.5605 16.9731 52.8016 12.8873 56.8873C8.80152 60.9731 5.5605 65.8236 3.3493 71.1619C1.13809 76.5003 -1.01028e-06 82.2218 0 88L44 88L88 88Z" fill="black"/>
<path d="M88 1.21992e-05C88 5.77817 86.8619 11.4997 84.6507 16.8381C82.4395 22.1764 79.1985 27.0269 75.1127 31.1127C71.0269 35.1985 66.1764 38.4395 60.8381 40.6507C55.4997 42.8619 49.7782 44 44 44C38.2218 44 32.5002 42.8619 27.1619 40.6507C21.8236 38.4395 16.9731 35.1984 12.8873 31.1127C8.80152 27.0269 5.5605 22.1764 3.3493 16.8381C1.13809 11.4997 -1.01028e-06 5.77816 0 0L44 8.35256e-06L88 1.21992e-05Z" fill="black"/>
</svg>
