<svg width="88" height="88" viewBox="0 0 88 88" fill="none" xmlns="http://www.w3.org/2000/svg">
<path d="M43.9994 22.0002C43.9994 34.1507 34.1498 44.0004 21.9997 44.0004C9.84929 44.0004 0 34.1507 0 22.0002C0 9.8497 9.84929 0 21.9997 0C34.1498 0 43.9994 9.8497 43.9994 22.0002Z" fill="black"/>
<path d="M87.9994 22.0002C87.9994 34.1507 78.1501 44.0004 66.0001 44.0004C53.8497 44.0004 44 34.1507 44 22.0002C44 9.8497 53.8497 0 66.0001 0C78.1501 0 87.9994 9.8497 87.9994 22.0002Z" fill="black"/>
<path d="M88 44C88 68.3006 68.3006 88 44.0002 88C19.6997 88 0 68.301 0 44H88Z" fill="black"/>
</svg>
