<svg width="88" height="88" viewBox="0 0 88 88" fill="none" xmlns="http://www.w3.org/2000/svg">
<circle cx="22" cy="22" r="22" fill="black"/>
<path d="M88 22C88 24.8891 87.431 27.7499 86.3253 30.419C85.2197 33.0882 83.5992 35.5135 81.5563 37.5564C79.5135 39.5992 77.0882 41.2197 74.419 42.3254C71.7499 43.431 68.8891 44 66 44C63.1109 44 60.2501 43.431 57.581 42.3254C54.9118 41.2197 52.4865 39.5992 50.4436 37.5563C48.4008 35.5135 46.7803 33.0882 45.6746 30.419C44.569 27.7499 44 24.8891 44 22L66 22H88Z" fill="black"/>
<path d="M88 2.25298e-06C88 2.88908 87.431 5.74988 86.3253 8.41904C85.2197 11.0882 83.5992 13.5135 81.5563 15.5564C79.5135 17.5992 77.0882 19.2197 74.419 20.3254C71.7499 21.431 68.8891 22 66 22C63.1109 22 60.2501 21.431 57.581 20.3254C54.9118 19.2197 52.4865 17.5992 50.4436 15.5563C48.4008 13.5135 46.7803 11.0882 45.6746 8.41904C44.569 5.74987 44 2.88908 44 0L66 2.25298e-06H88Z" fill="black"/>
<path d="M88 44C88 49.7782 86.8619 55.4998 84.6507 60.8381C82.4395 66.1764 79.1985 71.0269 75.1127 75.1127C71.0269 79.1985 66.1764 82.4395 60.8381 84.6507C55.4997 86.8619 49.7782 88 44 88C38.2218 88 32.5003 86.8619 27.1619 84.6507C21.8236 82.4395 16.9731 79.1985 12.8873 75.1127C8.80152 71.0269 5.56051 66.1764 3.3493 60.8381C1.13809 55.4997 -5.05143e-07 49.7782 0 44L44 44H88Z" fill="black"/>
</svg>
