<svg width="614" height="816" viewBox="0 0 614 816" fill="none" xmlns="http://www.w3.org/2000/svg">
<g opacity="0.8">
<path d="M407.97 611.948C407.97 499.3 316.648 407.963 203.985 407.963C91.323 407.963 0 499.3 0 611.948C0 724.61 91.323 815.947 203.985 815.947C316.648 815.947 407.97 724.597 407.97 611.948Z" fill="#05BE64"/>
<path d="M467.734 756.218C547.4 835.884 676.561 835.884 756.213 756.218C835.865 676.552 835.879 547.378 756.213 467.726L467.734 756.218Z" fill="#05BE64"/>
<path d="M552.242 552.257C631.908 472.591 631.908 343.431 552.242 263.765C472.576 184.099 343.416 184.099 263.75 263.765L552.242 552.257Z" fill="#05BE64"/>
<path d="M756.213 348.228C835.879 268.562 835.879 139.402 756.213 59.7494C676.547 -19.9165 547.387 -19.9165 467.734 59.7494L756.213 348.228Z" fill="#05BE64"/>
<path d="M348.228 59.7494C268.562 -19.9165 139.402 -19.9165 59.7494 59.7494C-19.9165 139.415 -19.9165 268.576 59.7494 348.228L348.228 59.7494Z" fill="#05BE64"/>
</g>
</svg>
