<svg width="432" height="24" viewBox="0 0 432 24" fill="none" xmlns="http://www.w3.org/2000/svg">
<line x1="200" y1="12.5" x2="4.37114e-08" y2="12.5" stroke="#D7D5BD"/>
<path d="M216.88 12.256C216.88 10 215.216 8.32003 212.88 8.32003C210.56 8.32003 208.896 10 208.896 12.256C208.896 14.512 210.56 16.192 212.88 16.192C215.216 16.192 216.88 14.512 216.88 12.256ZM215.728 12.256C215.728 13.936 214.624 15.264 212.88 15.264C211.152 15.264 210.048 13.936 210.048 12.256C210.048 10.576 211.152 9.23203 212.88 9.23203C214.624 9.23203 215.728 10.576 215.728 12.256ZM219.221 10.16V16H220.309V12.16C220.309 10.16 221.349 9.32803 222.501 9.32803C222.789 9.32803 223.141 9.37603 223.269 9.42403L223.413 8.40003C223.189 8.33603 222.965 8.32003 222.693 8.32003C221.637 8.32003 220.709 8.92803 220.293 9.79203H220.261C220.261 9.47203 220.229 8.91203 220.197 8.51203H219.157C219.205 9.02403 219.221 9.76003 219.221 10.16Z" fill="#D7D5BD"/>
<line x1="432" y1="12.5" x2="232" y2="12.5" stroke="#D7D5BD"/>
</svg>
