<svg width="40" height="40" viewBox="0 0 40 40" fill="none" xmlns="http://www.w3.org/2000/svg">
<path fill-rule="evenodd" clip-rule="evenodd" d="M20 0.000305176C8.95435 0.000305176 6.10352e-05 8.9546 6.10352e-05 20.0003C6.10352e-05 31.046 8.95435 40.0003 20 40.0003C31.0457 40.0003 40 31.046 40 20.0003C40 8.9546 31.0457 0.000305176 20 0.000305176ZM33.1251 20.9377C33.1251 22.6283 28.7985 24.0337 23.0982 24.3214V31.8753H18.7232V24.3186C13.0495 24.0249 8.75007 22.6229 8.75007 20.9377C8.75007 19.2526 13.0494 17.8506 18.7232 17.5569V15.0003H23.0982V17.5541C28.7985 17.8417 33.1251 19.2472 33.1251 20.9377ZM23.0982 17.9296C28.6249 18.1747 32.8126 19.3429 32.8126 20.7469C32.8126 22.329 27.4959 23.6115 20.9376 23.6115C14.3792 23.6115 9.06257 22.329 9.06257 20.7469C9.06257 19.3474 13.223 18.1823 18.7232 17.9321V21.8753H23.0982V17.9296ZM11.875 10.6253H30V15.0003H11.875V10.6253Z" fill="#50AF95"/>
</svg>
