<svg width="40" height="40" viewBox="0 0 40 40" fill="none" xmlns="http://www.w3.org/2000/svg">
<path d="M20 40.0004C31.0457 40.0004 40 31.0461 40 20.0004C40 8.95473 31.0457 0.000427246 20 0.000427246C8.9543 0.000427246 0 8.95473 0 20.0004C0 31.0461 8.9543 40.0004 20 40.0004Z" fill="white"/>
<path d="M31.6828 17.3055V11.9196H28.9859V9.21662H23.594V6.52167H18.202V9.21662H12.8121V11.9196H10.1152V28.0813H12.8101V30.7782H18.202V33.4732H23.5919V30.7843H28.9859V28.0813H31.6828V22.6954H26.2909V25.3924H23.594V28.0813H18.202V25.3924H15.5071V14.6085H18.202V11.9196H23.594V14.6085H26.2909V17.3055H31.6828Z" fill="#3A3A3A"/>
<path d="M26.2909 14.6105H24.4929V17.3055H26.2909V14.6105Z" fill="#1682FE"/>
<path d="M23.5939 11.9136H21.796V14.6085H23.5939V11.9136Z" fill="#1682FE"/>
<path d="M18.204 6.52167H16.4061V9.21662H18.204V6.52167Z" fill="#1682FE"/>
<path d="M26.2889 22.6974H23.5959V25.3944H26.2889V22.6974Z" fill="#FF5A5A"/>
<path d="M23.596 25.3923H21.798V28.0873H23.596V25.3923Z" fill="#FF5A5A"/>
<path d="M18.202 30.7842H16.4041V33.4792H18.202V30.7842Z" fill="#FF5A5A"/>
<path d="M12.8101 28.0873H11.0121V30.7822H12.8101V28.0873Z" fill="#F4BB3B"/>
<path d="M10.1152 20.0004H8.3172V28.0873H10.1152V20.0004Z" fill="#F4BB3B"/>
<path d="M10.1152 11.9136H8.3172V20.0004H10.1152V11.9136Z" fill="#60D8A4"/>
<path d="M12.8121 9.21863H11.0142V11.9136H12.8121V9.21863Z" fill="#1682FE"/>
</svg>
