<svg width="40" height="40" viewBox="0 0 40 40" fill="none" xmlns="http://www.w3.org/2000/svg">
<path fill-rule="evenodd" clip-rule="evenodd" d="M20 0.000244141C8.95429 0.000244141 0 8.95454 0 20.0002C0 31.0459 8.95429 40.0002 20 40.0002C31.0457 40.0002 40 31.0459 40 20.0002C40 8.95454 31.0457 0.000244141 20 0.000244141ZM9.75043 19.5489C7.99633 21.3448 8.04844 24.228 9.86631 25.9593C11.6666 27.6739 14.5156 27.606 16.2322 25.8076L16.3281 25.7072C18.1576 23.7905 21.2174 23.7905 23.0469 25.7072L23.1428 25.8076C24.8594 27.606 27.7083 27.6739 29.5087 25.9593C31.3265 24.228 31.3786 21.3448 29.6245 19.5489L26.2858 16.1307C22.667 12.4258 16.7079 12.4258 13.0892 16.1307L9.75043 19.5489Z" fill="url(#paint0_linear_1177_10639)"/>
<defs>
<linearGradient id="paint0_linear_1177_10639" x1="20" y1="0.000244141" x2="20" y2="40.0002" gradientUnits="userSpaceOnUse">
<stop stop-color="#9CB998"/>
<stop offset="1" stop-color="#FACDA9"/>
</linearGradient>
</defs>
</svg>
