<svg width="40" height="40" viewBox="0 0 40 40" fill="none" xmlns="http://www.w3.org/2000/svg">
<path fill-rule="evenodd" clip-rule="evenodd" d="M20 0.000244141C8.95429 0.000244141 0 8.95454 0 20.0002C0 31.0459 8.95429 40.0002 20 40.0002C22.1811 40.0002 24.2807 39.6511 26.2458 39.0056C19.9176 37.7417 14.7201 33.3446 12.3392 27.5003H5.00001L7.18751 22.8128H11.1002C10.993 21.9946 10.9377 21.1601 10.9377 20.3128C10.9377 19.3572 11.008 18.4181 11.1437 17.5002H5.31269L7.18769 12.8128H12.4698C15.0588 6.7692 20.6816 2.33417 27.4228 1.42303C30.6017 2.69436 33.3781 4.75799 35.5079 7.36977C33.8164 6.64908 31.9549 6.25026 30.0002 6.25026C24.991 6.25026 20.5936 8.86932 18.1025 12.8128H35.9377L34.0627 17.5002H16.219C16.0345 18.409 15.9377 19.3496 15.9377 20.3128C15.9377 21.166 16.0137 22.0015 16.1593 22.8128H31.5625L29.375 27.5003H17.9108C20.3637 31.6172 24.8599 34.3752 30.0002 34.3752C31.6438 34.3752 33.2215 34.0933 34.6876 33.5751C37.985 30.0092 40 25.24 40 20.0002C40 8.95454 31.0457 0.000244141 20 0.000244141Z" fill="url(#paint0_linear_1177_10655)"/>
<defs>
<linearGradient id="paint0_linear_1177_10655" x1="35.625" y1="-1.24976" x2="20" y2="40.0002" gradientUnits="userSpaceOnUse">
<stop stop-color="#B030EC"/>
<stop offset="1" stop-color="#15BCFF"/>
</linearGradient>
</defs>
</svg>
