<svg width="40" height="40" viewBox="0 0 40 40" fill="none" xmlns="http://www.w3.org/2000/svg">
<g clip-path="url(#clip0_1177_10665)">
<path d="M19.9999 0.000305176C31.0466 0.000305176 39.9998 8.95539 39.9998 20.0003C39.9998 31.047 31.0466 40.0003 19.9999 40.0003C8.95496 40.0003 -0.00012207 31.0461 -0.00012207 20.0003C-0.00012207 8.95539 8.95496 0.000305176 19.9999 0.000305176Z" fill="#F5AC37"/>
<path d="M20.7369 21.4124H28.3366C28.4986 21.4124 28.5751 21.4124 28.5868 21.2C28.6489 20.4269 28.6489 19.6493 28.5868 18.8753C28.5868 18.725 28.5121 18.6629 28.3492 18.6629H13.2246C13.0374 18.6629 12.987 18.725 12.987 18.9005V21.1253C12.987 21.4124 12.987 21.4124 13.2867 21.4124H20.7369ZM27.7381 16.0627C27.7597 16.006 27.7597 15.9439 27.7381 15.8881C27.6112 15.6118 27.4609 15.3481 27.2863 15.1006C27.0235 14.6776 26.7139 14.2879 26.3611 13.9378C26.1946 13.7263 26.002 13.5364 25.786 13.3753C24.7042 12.4546 23.4181 11.803 22.0357 11.4754C21.3381 11.3188 20.6253 11.2441 19.9107 11.2504H13.1985C13.0113 11.2504 12.9861 11.3251 12.9861 11.488V15.925C12.9861 16.1122 12.9861 16.1626 13.2237 16.1626H27.6481C27.6481 16.1626 27.7732 16.1374 27.7984 16.0627H27.7372H27.7381ZM27.7381 24.0125C27.5257 23.9891 27.3115 23.9891 27.0991 24.0125H13.2372C13.05 24.0125 12.987 24.0125 12.987 24.2627V28.6008C12.987 28.8006 12.987 28.851 13.2372 28.851H19.6371C19.9431 28.8744 20.2491 28.8528 20.5488 28.7889C21.4776 28.7223 22.3912 28.5207 23.2624 28.1886C23.5792 28.0788 23.8852 27.9357 24.1741 27.7638H24.2614C25.7617 26.9834 26.9803 25.7576 27.7489 24.2528C27.7489 24.2528 27.8362 24.0638 27.7381 24.0143V24.0125ZM10.475 31.1001V31.0254V28.113V27.1256V24.188C10.475 24.0251 10.475 24.0008 10.2752 24.0008H7.56262C7.41232 24.0008 7.35022 24.0008 7.35022 23.801V21.4259H10.25C10.412 21.4259 10.475 21.4259 10.475 21.2135V18.8636C10.475 18.7133 10.475 18.6764 10.2752 18.6764H7.56262C7.41232 18.6764 7.35022 18.6764 7.35022 18.4766V16.2769C7.35022 16.1392 7.35022 16.1023 7.55002 16.1023H10.2374C10.4246 16.1023 10.475 16.1023 10.475 15.8647V9.12728C10.475 8.92748 10.475 8.87708 10.7253 8.87708H20.0997C20.7801 8.90408 21.456 8.97878 22.1248 9.10208C23.5027 9.35678 24.8266 9.84908 26.0371 10.552C26.8399 11.0245 27.5788 11.5951 28.2367 12.2521C28.7317 12.766 29.1781 13.3222 29.5741 13.9144C29.9674 14.5147 30.2941 15.1564 30.5506 15.8269C30.5821 16.0015 30.7495 16.1194 30.9241 16.0897H33.1616C33.4487 16.0897 33.4487 16.0897 33.4613 16.3651V18.4154C33.4613 18.6152 33.3866 18.6656 33.1859 18.6656H31.4605C31.2859 18.6656 31.2355 18.6656 31.2481 18.8906C31.3165 19.652 31.3165 20.4161 31.2481 21.1775C31.2481 21.3899 31.2481 21.4151 31.4866 21.4151H33.4604C33.5477 21.5276 33.4604 21.6401 33.4604 21.7535C33.473 21.8984 33.473 22.0451 33.4604 22.19V23.7029C33.4604 23.9153 33.3983 23.9783 33.2102 23.9783H30.8476C30.6829 23.9468 30.5227 24.0521 30.4849 24.2159C29.9224 25.6784 29.0224 26.9897 27.8596 28.041C27.4348 28.4235 26.9884 28.7835 26.5222 29.1156C26.0218 29.4036 25.5349 29.7033 25.0219 29.9409C24.0778 30.3657 23.0878 30.6789 22.0717 30.8778C21.1068 31.0506 20.1285 31.1289 19.1466 31.1154H10.4714V31.1028L10.475 31.1001Z" fill="#FEFEFD"/>
</g>
<defs>
<clipPath id="clip0_1177_10665">
<rect width="40" height="40" fill="white" transform="translate(-0.00012207 0.000305176)"/>
</clipPath>
</defs>
</svg>
