<svg width="40" height="40" viewBox="0 0 40 40" fill="none" xmlns="http://www.w3.org/2000/svg">
<path d="M19.877 35.3788C28.4385 35.3788 35.379 28.4383 35.379 19.8768C35.379 11.3153 28.4385 4.37482 19.877 4.37482C11.3155 4.37482 4.375 11.3153 4.375 19.8768C4.375 28.4383 11.3155 35.3788 19.877 35.3788Z" fill="black"/>
<path fill-rule="evenodd" clip-rule="evenodd" d="M20 3.08183C10.6566 3.08183 3.08225 10.6562 3.08225 19.9996C3.08225 29.343 10.6566 36.9173 20 36.9173C29.3434 36.9173 36.9177 29.343 36.9177 19.9996C36.9177 10.6562 29.3434 3.08183 20 3.08183ZM0 19.9996C0 8.95387 8.9543 -0.000427246 20 -0.000427246C31.0457 -0.000427246 40 8.95387 40 19.9996C40 31.0452 31.0457 39.9995 20 39.9995C8.9543 39.9995 0 31.0452 0 19.9996Z" fill="black"/>
<path d="M20.2433 24.4373C20.739 24.3745 21.0998 24.2616 21.3257 24.0984C21.7211 23.8098 21.9187 23.3109 21.9187 22.6018C21.9187 22.0622 21.7336 21.6355 21.3634 21.3217C21.1437 21.1397 20.7704 20.9515 20.2433 20.757V24.4373ZM19.3491 14.6011C18.8031 14.6136 18.3984 14.7611 18.1348 15.0435C17.8713 15.3196 17.7395 15.6992 17.7395 16.1824C17.7395 16.7095 17.9372 17.1268 18.3325 17.4343C18.5521 17.6037 18.891 17.7606 19.3491 17.9049V14.6011ZM20.2621 28.4283H19.3491V26.5551C18.1129 26.4171 17.1904 26.1473 16.5818 25.7457C15.5087 25.024 14.9816 23.7941 15.0004 22.0559H17.5418C17.6297 22.8466 17.7521 23.3768 17.9089 23.6466C18.1537 24.0671 18.6337 24.34 19.3491 24.4655V20.4463L18.5866 20.2204C17.3881 19.869 16.541 19.3796 16.0452 18.7521C15.5558 18.1246 15.311 17.3684 15.311 16.4836C15.311 15.9 15.4052 15.3698 15.5934 14.8929C15.788 14.416 16.0578 14.005 16.4029 13.6598C16.8484 13.2143 17.3442 12.9068 17.8901 12.7374C18.2227 12.6307 18.709 12.5523 19.3491 12.5021V11.2502H20.2433V12.5209C21.2661 12.6025 22.0693 12.8535 22.6529 13.2739C23.7134 13.9453 24.2625 15.0341 24.3001 16.5401H21.8246C21.7744 15.9816 21.6803 15.5737 21.5422 15.3164C21.3038 14.8709 20.8708 14.6262 20.2433 14.5823V18.1685C21.7367 18.683 22.7408 19.138 23.2553 19.5333C24.1025 20.1922 24.526 21.1209 24.526 22.3195C24.526 23.9008 23.9456 25.0491 22.7847 25.7645C22.0756 26.2037 21.2347 26.461 20.2621 26.5363V28.4283Z" fill="white"/>
</svg>
