<svg width="46" height="40" viewBox="0 0 46 40" fill="none" xmlns="http://www.w3.org/2000/svg">
<g clip-path="url(#clip0_2490_51137)">
<path fill-rule="evenodd" clip-rule="evenodd" d="M8.41939 0.196701L0.0352017 17.8077C0.00329745 17.8732 -0.0068128 17.9472 0.00634947 18.0189C0.0195117 18.0905 0.055256 18.1561 0.108355 18.206L22.752 39.9041C22.8164 39.9658 22.902 40.0002 22.9911 40.0002C23.0803 40.0002 23.1659 39.9658 23.2302 39.9041L45.8739 18.2073C45.927 18.1574 45.9628 18.0919 45.9759 18.0202C45.9891 17.9486 45.979 17.8746 45.9471 17.8091L37.5629 0.198055C37.5358 0.13891 37.4923 0.0888068 37.4375 0.0537331C37.3828 0.0186594 37.3191 9.90547e-05 37.254 0.000270357H8.73097C8.66562 -0.000542678 8.60143 0.0175705 8.54614 0.052425C8.49086 0.0872795 8.44684 0.137386 8.41939 0.196701Z" fill="#50AF95"/>
<path fill-rule="evenodd" clip-rule="evenodd" d="M25.9002 19.6162C25.7377 19.6284 24.8978 19.6785 23.0242 19.6785C21.5341 19.6785 20.4761 19.6338 20.1049 19.6162C14.3461 19.3629 10.0476 18.3604 10.0476 17.1602C10.0476 15.9599 14.3461 14.9588 20.1049 14.7014V18.6178C20.4815 18.6449 21.5598 18.7086 23.05 18.7086C24.8382 18.7086 25.7336 18.6341 25.8948 18.6192V14.7041C31.6414 14.9601 35.9304 15.9626 35.9304 17.1602C35.9304 18.3577 31.6428 19.3602 25.8948 19.6149L25.9002 19.6162ZM25.9002 14.299V10.7945H33.92V5.4502H12.0851V10.7945H20.1035V14.2977C13.5861 14.5971 8.68481 15.8881 8.68481 17.4352C8.68481 18.9822 13.5861 20.2719 20.1035 20.5726V31.803H25.8989V20.5686C32.4014 20.2692 37.2946 18.9795 37.2946 17.4338C37.2946 15.8881 32.4055 14.5984 25.8989 14.2977L25.9002 14.299Z" fill="white"/>
</g>
<defs>
<clipPath id="clip0_2490_51137">
<rect width="45.9823" height="40" fill="white" transform="translate(-0.00012207 0.000244141)"/>
</clipPath>
</defs>
</svg>
