<svg width="150" height="86" viewBox="0 0 150 86" fill="none" xmlns="http://www.w3.org/2000/svg">
<path d="M63.9916 58.8713C63.9916 50.9303 59.1184 44.1811 51.8833 41.0565C57.9943 38.0886 62.1562 32.081 62.1562 24.4477C62.1562 16.6245 58.5351 10.8219 53.1376 7.02756C47.7915 3.26936 40.7469 1.5 33.7715 1.5C21.2793 1.5 9.11794 7.58576 4.52857 19.7673C3.77504 21.7673 5.06815 23.7962 6.99155 24.237L19.829 27.1794C21.7615 27.6224 23.4622 26.3867 24.1012 24.8316C25.5337 21.3448 28.6795 19.1917 32.5839 19.1917C34.7944 19.1917 36.8511 19.8386 38.3211 21C39.7546 22.1326 40.6932 23.7957 40.6932 26.0563C40.6932 27.6465 40.3368 28.842 39.7773 29.759C39.2165 30.6783 38.398 31.4055 37.3403 31.9733C35.1756 33.1355 32.132 33.5643 28.8049 33.5643H25.5144C23.5814 33.5643 22.0144 35.1313 22.0144 37.0643V46.2547C22.0144 48.1877 23.5814 49.7547 25.5144 49.7547H28.373C32.0459 49.7547 35.655 50.3086 38.2897 51.677C40.8286 52.9957 42.4207 55.0252 42.4207 58.2279C42.4207 61.2795 41.1723 63.24 39.43 64.4885C37.6219 65.7843 35.1757 66.3794 32.7998 66.3794C27.3667 66.3794 23.5725 63.3795 21.8822 59.6675C21.1874 58.142 19.4544 56.9936 17.5606 57.488L4.6088 60.8689C2.72903 61.3596 1.51754 63.3597 2.23041 65.3098C7.18571 78.8656 20.0216 84.5 33.6636 84.5C40.9215 84.5 48.4576 82.5637 54.2218 78.3832C60.0372 74.1656 63.9916 67.6944 63.9916 58.8713ZM146.875 76.9764L122.169 41.1275C122.052 40.9581 122.051 40.7344 122.166 40.5639L143.482 8.99616C145.051 6.67165 143.386 3.53754 140.581 3.53754H123.996C122.762 3.53754 121.619 4.18744 120.988 5.248L109.239 24.9961C109.046 25.3206 108.577 25.3222 108.382 24.9989L96.438 5.22779C95.8043 4.17869 94.6679 3.53754 93.4422 3.53754H76.1302C73.3123 3.53754 71.6496 6.69769 73.2457 9.01998L94.9424 40.5883C95.0583 40.7569 95.0598 40.979 94.9462 41.1491L70.9985 77.0191C69.4457 79.3449 71.1129 82.4625 73.9094 82.4625H91.063C92.2923 82.4625 93.4316 81.8175 94.0641 80.7634L107.888 57.7264C108.08 57.4061 108.543 57.402 108.741 57.7189L123.158 80.8158C123.798 81.8401 124.92 82.4625 126.127 82.4625H143.993C146.813 82.4625 148.475 79.2983 146.875 76.9764Z" fill="#FCD34D" stroke="#2E1E00" stroke-width="3"/>
</svg>
