<svg version="1.2" xmlns="http://www.w3.org/2000/svg" viewBox="0 0 150 150" width="150" height="150">
	<title>threeX-svg</title>
	<style>
		.s0 { fill: #fcd34d;stroke: #2e1e00;stroke-width: 3 } 
	</style>
	<path id="Layer" class="s0" d="m54.2 110.4c-5.7 4.2-13.3 6.1-20.5 6.1-13.7 0-26.5-5.6-31.5-19.2-0.7-1.9 0.5-3.9 2.4-4.4l13-3.4c1.9-0.5 3.6 0.6 4.3 2.2 1.7 3.7 5.5 6.7 10.9 6.7 2.4 0 4.8-0.6 6.6-1.9 1.8-1.3 3-3.2 3-6.3 0-3.2-1.6-5.2-4.1-6.5-2.6-1.4-6.3-1.9-9.9-1.9h-2.9c-1.9 0-3.5-1.6-3.5-3.5v-9.2c0-2 1.6-3.5 3.5-3.5h3.3c3.3 0 6.4-0.5 8.5-1.6q1.6-0.9 2.5-2.2c0.5-1 0.9-2.2 0.9-3.7 0-2.3-0.9-4-2.4-5.1-1.4-1.2-3.5-1.8-5.7-1.8-3.9 0-7.1 2.1-8.5 5.6-0.6 1.6-2.3 2.8-4.3 2.4l-12.8-3c-1.9-0.4-3.2-2.4-2.5-4.4 4.6-12.2 16.8-18.3 29.3-18.3 6.9 0 14 1.8 19.3 5.5 5.4 3.8 9.1 9.6 9.1 17.4 0 7.7-4.2 13.7-10.3 16.7 7.2 3.1 12.1 9.8 12.1 17.8 0 8.8-4 15.3-9.8 19.5zm89.8 4.1h-17.9c-1.2 0-2.3-0.7-2.9-1.7l-14.5-23.1c-0.2-0.3-0.6-0.3-0.8 0l-13.8 23.1c-0.7 1-1.8 1.7-3 1.7h-17.2c-2.8 0-4.5-3.2-2.9-5.5l23.9-35.9c0.2-0.1 0.2-0.3 0-0.5l-21.7-31.6c-1.6-2.3 0.1-5.5 2.9-5.5h17.3c1.3 0 2.4 0.7 3 1.7l12 19.8c0.2 0.3 0.6 0.3 0.8 0l11.8-19.8c0.6-1 1.8-1.7 3-1.7h16.6c2.8 0 4.5 3.2 2.9 5.5l-21.3 31.6c-0.1 0.1-0.1 0.4 0 0.5l24.7 35.9c1.6 2.3-0.1 5.5-2.9 5.5z"/>
</svg>