<svg width="40" height="40" viewBox="0 0 40 40" fill="none" xmlns="http://www.w3.org/2000/svg">
<g clip-path="url(#clip0_1177_10669)">
<path d="M19.9999 40.0002C31.0833 40.0002 39.9999 31.0836 39.9999 20.0002C39.9999 8.91684 31.0833 0.000244141 19.9999 0.000244141C8.91653 0.000244141 -6.10352e-05 8.91684 -6.10352e-05 20.0002C-6.10352e-05 31.0836 8.91653 40.0002 19.9999 40.0002Z" fill="#2775CA"/>
<path d="M25.4999 23.1668C25.4999 20.2502 23.7499 19.2502 20.2499 18.8336C17.7499 18.5002 17.2499 17.8336 17.2499 16.6668C17.2499 15.5 18.0833 14.7502 19.7499 14.7502C21.2499 14.7502 22.0833 15.2502 22.4999 16.5002C22.5833 16.7502 22.8333 16.9168 23.0833 16.9168H24.4165C24.7499 16.9168 24.9999 16.6668 24.9999 16.3336V16.2502C24.6665 14.4168 23.1665 13.0002 21.2499 12.8336V10.8336C21.2499 10.5002 20.9999 10.2502 20.5833 10.1668H19.3333C18.9999 10.1668 18.7499 10.4168 18.6665 10.8336V12.7502C16.1665 13.0836 14.5833 14.7502 14.5833 16.8336C14.5833 19.5836 16.2499 20.6668 19.7499 21.0836C22.0833 21.5002 22.8333 22.0002 22.8333 23.3336C22.8333 24.667 21.6665 25.5836 20.0833 25.5836C17.9165 25.5836 17.1665 24.6668 16.9165 23.4168C16.8333 23.0836 16.5833 22.9168 16.3333 22.9168H14.9165C14.5833 22.9168 14.3333 23.1668 14.3333 23.5002V23.5836C14.6665 25.6668 15.9999 27.1668 18.7499 27.5836V29.5836C18.7499 29.9168 18.9999 30.1668 19.4165 30.2502H20.6665C20.9999 30.2502 21.2499 30.0002 21.3333 29.5836V27.5836C23.8333 27.1668 25.4999 25.4168 25.4999 23.1668Z" fill="white"/>
<path d="M15.7499 31.9168C9.24991 29.5836 5.91652 22.3336 8.33331 15.9168C9.58331 12.4168 12.3333 9.75022 15.7499 8.50022C16.0833 8.33362 16.2499 8.08362 16.2499 7.66682V6.50022C16.2499 6.16682 16.0833 5.91682 15.7499 5.83362C15.6665 5.83362 15.4999 5.83362 15.4165 5.91682C7.49991 8.41682 3.16652 16.8336 5.66652 24.7502C7.16651 29.4168 10.7499 33.0002 15.4165 34.5002C15.7499 34.6668 16.0833 34.5002 16.1665 34.1668C16.2499 34.0836 16.2499 34.0002 16.2499 33.8336V32.6668C16.2499 32.4168 15.9999 32.0836 15.7499 31.9168ZM24.5833 5.91682C24.2499 5.75022 23.9165 5.91682 23.8333 6.25022C23.7499 6.33362 23.7499 6.41682 23.7499 6.58362V7.75022C23.7499 8.08362 23.9999 8.41682 24.2499 8.58362C30.7499 10.9168 34.0833 18.1668 31.6665 24.5836C30.4165 28.0836 27.6665 30.7502 24.2499 32.0002C23.9165 32.1668 23.7499 32.4168 23.7499 32.8336V34.0002C23.7499 34.3336 23.9165 34.5836 24.2499 34.6668C24.3333 34.6668 24.4999 34.6668 24.5833 34.5836C32.4999 32.0836 36.8333 23.6668 34.3333 15.7502C32.8333 11.0002 29.1665 7.41682 24.5833 5.91682Z" fill="white"/>
</g>
<defs>
<clipPath id="clip0_1177_10669">
<rect width="40" height="40" fill="white" transform="translate(-6.10352e-05 0.000244141)"/>
</clipPath>
</defs>
</svg>
